<svg width="23" height="23" viewBox="0 0 23 23" fill="none" xmlns="http://www.w3.org/2000/svg">
<g id="Group 10379">
<path id="Star 1" d="M14.1926 0.943745C14.2958 0.724115 14.6082 0.724116 14.7113 0.943746L16.8817 5.56394C16.9101 5.62441 16.9587 5.67306 17.0192 5.70147L21.6394 7.87181C21.859 7.97498 21.859 8.28737 21.6394 8.39054L17.0192 10.5609C16.9587 10.5893 16.9101 10.6379 16.8817 10.6984L14.7113 15.3186C14.6082 15.5382 14.2958 15.5382 14.1926 15.3186L12.0223 10.6984C11.9939 10.6379 11.9452 10.5893 11.8847 10.5609L7.26455 8.39054C7.04492 8.28737 7.04492 7.97498 7.26455 7.87181L11.8847 5.70147C11.9452 5.67306 11.9939 5.62441 12.0223 5.56394L14.1926 0.943745Z" fill="url(#paint0_linear_1452_418)"/>
<path id="Star 2" d="M18.512 14.5268C18.6152 14.3071 18.9276 14.3071 19.0307 14.5268L20.0272 16.648C20.0556 16.7085 20.1043 16.7571 20.1647 16.7855L22.286 17.782C22.5056 17.8852 22.5056 18.1976 22.286 18.3008L20.1647 19.2972C20.1043 19.3256 20.0556 19.3743 20.0272 19.4347L19.0307 21.556C18.9276 21.7756 18.6152 21.7756 18.512 21.556L17.5155 19.4347C17.4871 19.3743 17.4385 19.3256 17.378 19.2972L15.2567 18.3008C15.0371 18.1976 15.0371 17.8852 15.2567 17.782L17.378 16.7855C17.4385 16.7571 17.4871 16.7085 17.5155 16.648L18.512 14.5268Z" fill="url(#paint1_linear_1452_418)"/>
<path id="Star 3" d="M6.45332 10.9262C6.55649 10.7065 6.86889 10.7065 6.97206 10.9262L8.53656 14.2567C8.56497 14.3171 8.61362 14.3658 8.67409 14.3942L12.0046 15.9587C12.2242 16.0619 12.2242 16.3743 12.0046 16.4774L8.67409 18.0419C8.61362 18.0703 8.56497 18.119 8.53656 18.1795L6.97206 21.51C6.86889 21.7296 6.55649 21.7296 6.45332 21.51L4.88882 18.1795C4.86041 18.119 4.81176 18.0703 4.75129 18.0419L1.4208 16.4774C1.20117 16.3743 1.20117 16.0619 1.4208 15.9587L4.75129 14.3942C4.81176 14.3658 4.86041 14.3171 4.88882 14.2567L6.45332 10.9262Z" fill="url(#paint2_linear_1452_418)"/>
</g>
<defs>
<linearGradient id="paint0_linear_1452_418" x1="12.0964" y1="18.4338" x2="22.4047" y2="-12.8144" gradientUnits="userSpaceOnUse">
<stop stop-color="#FF9900"/>
<stop offset="0.541667" stop-color="#FFDD00"/>
</linearGradient>
<linearGradient id="paint1_linear_1452_418" x1="17.5336" y1="23.4549" x2="22.9501" y2="7.03548" gradientUnits="userSpaceOnUse">
<stop stop-color="#FF9900"/>
<stop offset="0.541667" stop-color="#FFDD00"/>
</linearGradient>
<linearGradient id="paint2_linear_1452_418" x1="4.93406" y1="23.9974" x2="12.7177" y2="0.402349" gradientUnits="userSpaceOnUse">
<stop stop-color="#FF9900"/>
<stop offset="0.541667" stop-color="#FFDD00"/>
</linearGradient>
</defs>
</svg>
