<?xml version="1.0" encoding="UTF-8"?><svg id="Layer_1" xmlns="http://www.w3.org/2000/svg" viewBox="0 0 36.77 35.74"><defs><style>.cls-1{stroke-width:0px;}</style></defs><path class="cls-1" d="m32.43,19.29c-.11-.64-.45-1.22-.95-1.63-.18-.14-.28-.35-.27-.57-.09-2.13-.68-4.21-1.72-6.07-.07-.13-.1-.29-.08-.44.1-.65.1-1.31-.02-1.95-.62-3.52-4.58-5.62-7.85-4.17-.16.07-.34.09-.52.04-2.83-.78-5.83-.62-8.55.45-1.16.45-2.24,1.06-3.22,1.82-.27.21-.33.45-.15.67s.4.25.69.03c.15-.11.3-.22.45-.32,2.03-1.41,4.43-2.19,6.9-2.26,1.06-.03,2.11.07,3.14.3-.3.3-.57.58-.85.84-.06.03-.14.05-.21.03-.47-.04-.93-.12-1.4-.13-2.32-.08-4.6.56-6.55,1.82-2.81,1.8-4.62,4.32-5.32,7.61-.12.56-.17,1.13-.25,1.69l-1.03.11v-.18c.11-1.96.67-3.88,1.65-5.58.4-.68.91-1.31,1.38-1.96.2-.27.21-.49,0-.67s-.44-.17-.68.1c-.07.08-.14.16-.21.25-1.87,2.27-2.93,5.1-3.03,8.03.01.27-.1.53-.31.7-.63.52-.99,1.3-.98,2.11,0,1.47-.03,2.93,0,4.4.02.44.13.87.33,1.25.56,1.08,1.56,1.5,2.72,1.58.15-.01.3.07.36.22.32.69,1.08,1.06,1.83.89.76-.14,1.32-.8,1.31-1.58,0-3.11,0-6.22,0-9.34,0-.48-.23-.93-.62-1.21-.46-.38-1.09-.48-1.65-.27.77-5.55,6.46-9.8,12-8.95-.02.05-.03.09-.05.13-1.09,2.15-.72,4.76.94,6.52.07.09.11.19.12.31.01.29,0,.59,0,.88,0,.49.29.67.74.49.25-.1.49-.23.75-.32.12-.04.26-.04.38,0,1.73.69,3.68.49,5.24-.53.27-.16.51-.37.8-.59.19.69.37,1.36.56,2.07l-.38-.08c-.89-.18-1.75.39-1.93,1.28-.02.09-.03.17-.03.26-.01,3.13-.01,6.25,0,9.37.01.82.65,1.5,1.47,1.57.31,0,.62-.03.93-.09v.98c-.04,1.18-.84,2.2-1.98,2.51-.47.08-.94.13-1.42.13-.17.03-.34-.08-.39-.25-.25-.62-.86-1.01-1.52-1-.79,0-1.58,0-2.37,0-.94,0-1.69.78-1.68,1.71,0,.76.52,1.42,1.26,1.62.04.02.09.04.13.06h2.99c.58-.15,1.06-.58,1.28-1.14.02-.06.16-.11.25-.11.47-.04.94-.02,1.4-.1,1.71-.32,2.96-1.81,2.98-3.56v-1.98c.43-.06.86-.15,1.27-.27,1-.32,1.73-1.17,1.9-2.21.01-.04.03-.07.05-.11v-5.04c-.01-.06-.02-.12-.03-.18Zm-26.73,6.97c-1.11.21-2.27-.74-2.31-1.94-.04-1.45-.04-2.91,0-4.36.03-1.13.97-2.01,2.1-1.98.07,0,.14,0,.21.02v8.27Zm1.68-9.57c.42-.02.78.3.8.73,0,0,0,0,0,.01v9.17c0,.52-.3.85-.76.85-.41.02-.77-.3-.78-.72,0-.04,0-.07,0-.11v-9.08c.01-.53.29-.85.75-.86h0Zm15.61,16.42h-2.28c-.45.01-.83-.34-.84-.8-.01-.45.34-.83.8-.84.03,0,.06,0,.08,0h2.23c.45-.03.84.31.87.76.03.45-.31.84-.76.87-.03,0-.06,0-.09,0Zm7.32-16.11l-1.02-.08c-.08-.51-.13-1.03-.25-1.54-.17-.7-.4-1.38-.62-2.07-.06-.13-.04-.28.04-.4.19-.28.36-.57.53-.87.64,1.01,1.35,3.67,1.32,4.94h0Zm-5.63-2.63c-.98.19-2,.07-2.91-.34-.17-.05-.36-.05-.53,0-.2.07-.4.15-.59.25.25-.76-.22-1.14-.6-1.6-2.25-2.68-.65-7.05,2.8-7.68,2.25-.42,5.09.76,5.64,3.83.42,2.37-.91,5-3.81,5.54h0Zm6.92,9.77c-.04,1.14-.99,2.02-2.13,1.98-.07,0-.15,0-.22-.02v-1.3c0-.36-.22-.54-.54-.49s-.36.27-.36.52v1.87c0,.37-.28.67-.65.72-.37.06-.73-.17-.84-.53-.04-.13-.05-.27-.05-.4v-8.99c-.04-.41.27-.78.68-.82.06,0,.12,0,.17,0,.42.03.69.33.69.82v4.77c0,.35.16.53.45.53s.45-.18.45-.53v-4.44c1.13-.16,2.17.62,2.33,1.75.01.07.02.14.02.21.03,1.44.03,2.89,0,4.33h0Z"/><path class="cls-1" d="m20.26,28.25c.38.02.74.28,1.11.43.46.19.74,0,.74-.51v-1.08c0-.13.06-.26.14-.36,1.43-1.45,2.07-3.5,1.74-5.51-.46-3.24-3.22-5.65-6.49-5.67-.38.04-.76.04-1.13.11-3.6.61-6.01,4.02-5.4,7.62,0,0,0,.01,0,.02.57,3.7,4.55,6.26,8.17,5.26.4-.1.77-.34,1.13-.32Zm-8.31-4.66c-.78-3.07,1.08-6.18,4.15-6.96.23-.06.46-.1.69-.13,3.09-.41,5.93,1.77,6.33,4.86,0,.02,0,.03,0,.05.28,1.75-.31,3.52-1.58,4.76-.24.21-.37.53-.34.85.02.19,0,.38,0,.62-.26-.11-.49-.18-.69-.29-.21-.11-.46-.11-.67,0-2.9,1.3-6.31,0-7.61-2.91-.12-.27-.22-.55-.3-.84h0Z"/><path class="cls-1" d="m23.55,6.33c-.91.13-1.6.9-1.63,1.82,0,.16.09.31.22.4.16.07.34.06.49-.03.12-.13.18-.29.19-.46.1-.54.61-.9,1.15-.8.54.1.9.61.8,1.15-.1.43-.47.75-.92.78-.39.06-.49.17-.49.55v1.35c-.02.25.16.47.41.49,0,0,0,0,.01,0,.26,0,.44-.2.45-.51s0-.68,0-1.04c.98-.26,1.59-1.23,1.41-2.23-.21-.96-1.12-1.59-2.09-1.47Z"/><path class="cls-1" d="m23.8,12.2c-.24,0-.44.2-.43.44,0,0,0,.01,0,.02.02.24.23.42.46.4.21-.02.38-.19.4-.4.01-.24-.18-.45-.42-.46,0,0,0,0-.01,0Z"/><path class="cls-1" d="m20.36,22.18c0-.28-.18-.44-.52-.44h-4.71c-.32,0-.49.17-.49.44s.19.43.51.43h4.71c.31,0,.5-.16.5-.43Z"/><path class="cls-1" d="m16.35,20.15h2.28c.23.03.43-.13.46-.36,0-.03,0-.06,0-.08,0-.27-.16-.43-.47-.43h-2.28c-.22-.03-.42.13-.45.35,0,.03,0,.05,0,.08-.02.23.14.43.37.45.03,0,.06,0,.09,0Z"/><path class="cls-1" d="m18.62,24.2h-2.25c-.31,0-.47.15-.47.43-.02.23.15.42.37.45.03,0,.06,0,.09,0h2.28c.23.03.43-.14.46-.36,0-.03,0-.06,0-.09,0-.27-.17-.42-.48-.43Z"/></svg>