<svg width="28" height="36" viewBox="0 0 28 36" fill="none" xmlns="http://www.w3.org/2000/svg">
<path id="Vector" d="M25.6398 0.172982L23.7223 1.48023L21.803 0.171295C21.6392 0.0596888 21.4455 0 21.2473 0C21.049 0 20.8554 0.0596888 20.6915 0.171295L18.7723 1.48023L16.853 0.171295C16.6892 0.0596888 16.4955 0 16.2973 0C16.099 0 15.9054 0.0596888 15.7415 0.171295L13.8223 1.48023L11.903 0.171295C11.7392 0.0596888 11.5455 0 11.3473 0C11.149 0 10.9554 0.0596888 10.7915 0.171295L8.87227 1.48023L6.95302 0.171295C6.78917 0.0596888 6.59551 0 6.39727 0C6.19902 0 6.00536 0.0596888 5.84152 0.171295L3.92227 1.48023L2.0047 0.172982C1.85653 0.0718865 1.68359 0.0131223 1.50451 0.003017C1.32542 -0.00708832 1.14696 0.031848 0.988361 0.115634C0.829759 0.199419 0.697015 0.32488 0.604422 0.478507C0.51183 0.632135 0.462896 0.808109 0.462891 0.987482V34.7307C0.462896 34.9101 0.51183 35.0861 0.604422 35.2397C0.697015 35.3933 0.829759 35.5188 0.988361 35.6026C1.14696 35.6864 1.32542 35.7253 1.50451 35.7152C1.68359 35.7051 1.85653 35.6463 2.0047 35.5452L3.92227 34.238L5.84152 35.5469C6.00536 35.6585 6.19902 35.7182 6.39727 35.7182C6.59551 35.7182 6.78917 35.6585 6.95302 35.5469L8.87227 34.238L10.7915 35.5469C10.9554 35.6585 11.149 35.7182 11.3473 35.7182C11.5455 35.7182 11.7392 35.6585 11.903 35.5469L13.8223 34.238L15.7415 35.5469C15.9054 35.6585 16.099 35.7182 16.2973 35.7182C16.4955 35.7182 16.6892 35.6585 16.853 35.5469L18.7723 34.238L20.6915 35.5469C20.8554 35.6585 21.049 35.7182 21.2473 35.7182C21.4455 35.7182 21.6392 35.6585 21.803 35.5469L23.7223 34.238L25.6398 35.5452C25.788 35.6463 25.9609 35.7051 26.14 35.7152C26.3191 35.7253 26.4976 35.6864 26.6562 35.6026C26.8148 35.5188 26.9475 35.3933 27.0401 35.2397C27.1327 35.0861 27.1816 34.9101 27.1816 34.7307V0.987482C27.1816 0.808109 27.1327 0.632135 27.0401 0.478507C26.9475 0.32488 26.8148 0.199419 26.6562 0.115634C26.4976 0.031848 26.3191 -0.00708832 26.14 0.003017C25.9609 0.0131223 25.788 0.0718865 25.6398 0.172982ZM7.63477 30.0935H5.38477C5.12369 30.0935 4.87331 29.9898 4.68871 29.8052C4.5041 29.6206 4.40039 29.3702 4.40039 29.1091C4.40039 28.848 4.5041 28.5977 4.68871 28.413C4.87331 28.2284 5.12369 28.1247 5.38477 28.1247H7.63477C7.89584 28.1247 8.14622 28.2284 8.33082 28.413C8.51543 28.5977 8.61914 28.848 8.61914 29.1091C8.61914 29.3702 8.51543 29.6206 8.33082 29.8052C8.14622 29.9898 7.89584 30.0935 7.63477 30.0935ZM7.63477 26.156H5.38477C5.12369 26.156 4.87331 26.0523 4.68871 25.8677C4.5041 25.6831 4.40039 25.4327 4.40039 25.1716C4.40039 24.9105 4.5041 24.6602 4.68871 24.4755C4.87331 24.2909 5.12369 24.1872 5.38477 24.1872H7.63477C7.89584 24.1872 8.14622 24.2909 8.33082 24.4755C8.51543 24.6602 8.61914 24.9105 8.61914 25.1716C8.61914 25.4327 8.51543 25.6831 8.33082 25.8677C8.14622 26.0523 7.89584 26.156 7.63477 26.156ZM13.8223 14.906C12.9015 14.9065 12.012 14.5721 11.3195 13.9653C10.627 13.3585 10.1787 12.5206 10.0583 11.6078C9.93783 10.6949 10.1534 9.76944 10.6648 9.00377C11.1762 8.2381 11.9485 7.68448 12.8379 7.44611V6.60911C12.8379 6.34803 12.9416 6.09765 13.1262 5.91305C13.3108 5.72844 13.5612 5.62473 13.8223 5.62473C14.0833 5.62473 14.3337 5.72844 14.5183 5.91305C14.7029 6.09765 14.8066 6.34803 14.8066 6.60911V7.44611C15.6126 7.66306 16.3248 8.13933 16.8331 8.80138C17.3415 9.46343 17.6177 10.2744 17.6191 11.1091C17.6191 11.3702 17.5154 11.6206 17.3308 11.8052C17.1462 11.9898 16.8958 12.0935 16.6348 12.0935C16.3737 12.0935 16.1233 11.9898 15.9387 11.8052C15.7541 11.6206 15.6504 11.3702 15.6504 11.1091C15.6504 10.7475 15.5432 10.3941 15.3423 10.0935C15.1414 9.79282 14.8559 9.55851 14.5219 9.42014C14.1878 9.28177 13.8202 9.24557 13.4656 9.31611C13.111 9.38665 12.7853 9.56076 12.5296 9.81643C12.2739 10.0721 12.0998 10.3978 12.0293 10.7525C11.9587 11.1071 11.9949 11.4747 12.1333 11.8087C12.2717 12.1427 12.506 12.4283 12.8066 12.6291C13.1072 12.83 13.4607 12.9372 13.8223 12.9372C14.743 12.9368 15.6325 13.2711 16.325 13.8779C17.0175 14.4847 17.4658 15.3226 17.5863 16.2354C17.7067 17.1483 17.4911 18.0738 16.9797 18.8394C16.4683 19.6051 15.696 20.1587 14.8066 20.3971V21.2341C14.8066 21.4952 14.7029 21.7456 14.5183 21.9302C14.3337 22.1148 14.0833 22.2185 13.8223 22.2185C13.5612 22.2185 13.3108 22.1148 13.1262 21.9302C12.9416 21.7456 12.8379 21.4952 12.8379 21.2341V20.3971C12.0319 20.1802 11.3197 19.7039 10.8114 19.0418C10.3031 18.3798 10.0268 17.5688 10.0254 16.7341C10.0254 16.473 10.1291 16.2227 10.3137 16.038C10.4983 15.8534 10.7487 15.7497 11.0098 15.7497C11.2708 15.7497 11.5212 15.8534 11.7058 16.038C11.8904 16.2227 11.9941 16.473 11.9941 16.7341C11.9941 17.0957 12.1014 17.4491 12.3022 17.7498C12.5031 18.0504 12.7886 18.2847 13.1227 18.4231C13.4567 18.5614 13.8243 18.5976 14.1789 18.5271C14.5335 18.4566 14.8593 18.2825 15.1149 18.0268C15.3706 17.7711 15.5447 17.4454 15.6153 17.0908C15.6858 16.7361 15.6496 16.3686 15.5112 16.0345C15.3729 15.7005 15.1386 15.415 14.8379 15.2141C14.5373 15.0132 14.1838 14.906 13.8223 14.906ZM22.2598 30.0935H11.5723C11.3112 30.0935 11.0608 29.9898 10.8762 29.8052C10.6916 29.6206 10.5879 29.3702 10.5879 29.1091C10.5879 28.848 10.6916 28.5977 10.8762 28.413C11.0608 28.2284 11.3112 28.1247 11.5723 28.1247H22.2598C22.5208 28.1247 22.7712 28.2284 22.9558 28.413C23.1404 28.5977 23.2441 28.848 23.2441 29.1091C23.2441 29.3702 23.1404 29.6206 22.9558 29.8052C22.7712 29.9898 22.5208 30.0935 22.2598 30.0935ZM22.2598 26.156H11.5723C11.3112 26.156 11.0608 26.0523 10.8762 25.8677C10.6916 25.6831 10.5879 25.4327 10.5879 25.1716C10.5879 24.9105 10.6916 24.6602 10.8762 24.4755C11.0608 24.2909 11.3112 24.1872 11.5723 24.1872H22.2598C22.5208 24.1872 22.7712 24.2909 22.9558 24.4755C23.1404 24.6602 23.2441 24.9105 23.2441 25.1716C23.2441 25.4327 23.1404 25.6831 22.9558 25.8677C22.7712 26.0523 22.5208 26.156 22.2598 26.156Z" fill="#DE0F7E"/>
</svg>
