<svg width="99" height="47" viewBox="0 0 99 47" fill="none" xmlns="http://www.w3.org/2000/svg">
<g id="Group 10710">
<g id="Group 10762">
<g id="Group">
<path id="Vector" d="M48.0048 46.5397C48.1799 46.5397 48.3241 46.5397 48.4734 46.5397C50.2242 46.5294 51.0121 45.7415 51.0121 43.9907C51.0121 41.3439 51.0172 38.6971 51.0069 36.0554C51.0069 35.7207 51.0687 35.5147 51.424 35.3963C52.0316 35.1903 52.6187 34.9174 53.2212 34.696C53.6537 34.5363 53.8288 34.2531 53.8237 33.7897C53.8082 32.5487 53.8236 31.3076 53.8185 30.0718C53.8185 29.356 53.5868 29.1294 52.871 29.1243C52.2634 29.1243 51.6609 29.1243 51.0172 29.1243C51.0172 28.5836 51.0378 28.1047 51.0121 27.6258C50.9915 27.2653 51.1099 27.1469 51.4755 27.116C53.1027 26.9667 54.7351 26.8328 56.352 26.5959C60.8475 25.9471 65.2606 24.9172 69.5758 23.4753C69.9723 23.3415 70.41 23.2642 70.8271 23.2591C73.1237 23.2385 75.4255 23.2488 77.7222 23.2488C78.4998 23.2488 78.716 23.0325 78.716 22.2446C78.716 18.1457 78.716 14.0416 78.716 9.94262C78.716 9.18051 78.5049 8.96423 77.7582 8.96423C75.3946 8.96423 73.0259 8.96423 70.6623 8.96423C70.4357 8.96423 70.1989 8.93848 69.9826 8.86639C64.9773 7.18767 59.8588 6.0136 54.6167 5.38537C50.667 4.91162 46.7123 4.7005 42.7472 5.20514C39.7966 5.58105 36.9489 6.31742 34.2661 7.61508C32.4226 8.51108 31.5008 10.0044 31.4957 12.0539C31.4905 14.7676 31.4854 17.4762 31.4957 20.19C31.506 22.2601 32.4586 23.7483 34.3279 24.634C36.1714 25.5042 38.0818 26.1685 40.085 26.5496C40.5021 26.6319 40.6926 26.7864 40.7338 27.2396C40.8007 28.012 40.9552 28.7741 41.0685 29.5414C41.5165 32.5126 41.9593 35.4787 42.4022 38.4499C42.7112 40.5045 43.0047 42.5643 43.3291 44.6189C43.5299 45.8857 44.3332 46.5448 45.6257 46.5551C45.9347 46.5551 46.2385 46.5551 46.5732 46.5551M51.043 30.5764H52.4282C52.4282 31.493 52.4333 32.3839 52.4179 33.2747C52.4179 33.3777 52.3252 33.527 52.2325 33.5734C51.8617 33.7433 51.4755 33.8824 51.043 34.0574V30.5816V30.5764ZM48.5867 45.1236C47.6134 45.1236 46.635 45.1236 45.6618 45.1236C44.9924 45.1236 44.8121 44.9794 44.7091 44.3151C44.3281 41.8022 43.9573 39.2893 43.5866 36.7763C43.1437 33.8257 42.7009 30.8699 42.258 27.9193C42.2117 27.6103 42.1653 27.3065 42.1293 27.0542C44.6062 27.1623 47.047 27.2705 49.5599 27.3786C49.5599 27.4404 49.5857 27.6103 49.5857 27.7854C49.5857 33.2232 49.5857 38.661 49.5857 44.0988C49.5857 44.9742 49.4415 45.1236 48.5867 45.1236ZM69.3955 21.5495V22.1262C67.4388 22.672 65.4923 23.2539 63.5303 23.7534C60.0751 24.6391 56.5632 25.2622 53.01 25.5969C48.3035 26.0449 43.602 26.1325 38.9933 24.8348C37.5875 24.4383 36.2177 23.8873 34.8686 23.3209C33.5555 22.7647 32.9066 21.6885 32.8963 20.2672C32.8809 17.4917 32.8757 14.711 32.8963 11.9355C32.9066 10.5348 33.5658 9.51007 34.8325 8.89729C37.4433 7.63568 40.2137 6.92505 43.0819 6.58004C46.8307 6.13204 50.5692 6.33287 54.3077 6.76542C59.2718 7.34216 64.1174 8.44929 68.8755 9.96837C69.2617 10.092 69.411 10.2567 69.4058 10.6841C69.3853 14.3042 69.3955 17.9242 69.3955 21.5443V21.5495ZM77.269 21.843H70.8116V10.4009H77.269V21.843Z" fill="#E01E89"/>
<path id="Vector_2" d="M45.832 8.8664C41.7691 8.85096 38.5404 12.0385 38.525 16.0808C38.5095 20.0819 41.7434 23.326 45.7548 23.3363C49.6992 23.3466 52.9949 20.051 52.9846 16.1117C52.9743 12.1517 49.7456 8.887 45.832 8.8664ZM49.9413 12.1157H41.5992C43.3603 9.90144 47.5313 9.46374 49.9413 12.1157ZM41.5683 20.0767H49.8589C48.2677 22.2395 43.9422 22.7544 41.5683 20.0767ZM49.4418 18.6658C46.6147 18.6658 43.7877 18.6606 40.9606 18.6761C40.6259 18.6761 40.4302 18.5885 40.3427 18.2693C40.214 17.8007 40.0801 17.3321 39.9308 16.8223H51.4706C51.4809 16.8635 51.5015 16.8944 51.5015 16.9201C51.299 18.0873 50.6124 18.6709 49.4418 18.6709V18.6658ZM51.0844 13.8305C51.2698 14.3197 51.4037 14.8295 51.5685 15.3753H39.9102C40.1007 14.7831 40.2603 14.2373 40.4611 13.7069C40.4972 13.6142 40.6877 13.5318 40.8113 13.5318C44.0966 13.5215 47.382 13.5215 50.6725 13.5369C50.8167 13.5369 51.0381 13.6966 51.0896 13.8305H51.0844Z" fill="#E01E89"/>
</g>
<path id="Vector_3" d="M78.072 17.2136C77.7167 17.6101 77.2738 17.9191 76.8876 18.2847C76.4499 18.7018 76.074 19.2167 75.9298 19.8089C75.8423 20.1642 75.9865 20.5968 76.3263 20.777C76.4602 20.8491 76.6096 20.8852 76.7589 20.8955C76.9597 20.9058 77.2326 20.7976 77.3665 20.6431C77.6601 20.3033 77.9536 19.9634 78.2471 19.6235C78.3964 19.4485 78.4994 19.2528 78.4994 19.0159C78.4994 18.8048 78.4067 18.5525 78.2471 18.4083C78.0875 18.2641 77.8712 18.1457 77.6395 18.156C77.4077 18.1663 77.1811 18.2383 77.0318 18.4083C76.7383 18.7481 76.4448 19.088 76.1513 19.4279L77.588 20.2621C77.6086 20.1694 77.6394 20.0818 77.6755 19.9943L77.588 20.2003C77.6652 20.0252 77.763 19.8656 77.8763 19.7162L77.7424 19.8913C78.1853 19.3249 78.8084 18.9541 79.2873 18.4237C79.4418 18.2538 79.5396 18.0478 79.5396 17.8161C79.5396 17.605 79.4469 17.3526 79.2873 17.2085C79.1276 17.0643 78.9114 16.9458 78.6796 16.9561C78.4479 16.9664 78.2265 17.0385 78.072 17.2085V17.2136Z" fill="white"/>
<g id="Group_2">
<path id="Vector_4" d="M24.8115 5.93123C25.3677 7.12589 25.965 8.30512 26.5881 9.46889C26.655 9.59247 26.9331 9.67487 27.0979 9.65427C27.2575 9.63367 27.4017 9.45859 27.5356 9.3556C27.5098 9.16507 27.5253 9.04149 27.4789 8.94365C26.9073 7.79017 26.346 6.63155 25.7333 5.49867C25.6509 5.34419 25.2389 5.2206 25.0844 5.29784C24.9197 5.38024 24.7446 5.77674 24.8115 5.92608V5.93123Z" fill="#E01E89"/>
<path id="Vector_5" d="M22.8955 3.12991C22.9264 3.202 22.9522 3.37708 23.05 3.48522C23.4002 3.87143 23.7503 4.26279 24.152 4.59235C24.3013 4.71594 24.6515 4.75713 24.8008 4.66444C24.945 4.57175 25.0634 4.21644 24.9965 4.05166C24.7442 3.41828 24.2653 2.95998 23.6628 2.65101C23.3332 2.48108 22.9779 2.68191 22.8955 3.12991Z" fill="#E01E89"/>
<path id="Vector_6" d="M8.88418 26.9821C8.96657 26.8328 8.88418 26.4311 8.75545 26.3539C7.91094 25.8492 7.03553 25.3961 6.07259 24.8811C5.89751 24.9944 5.61429 25.082 5.5525 25.2519C5.4907 25.427 5.57309 25.7977 5.71728 25.8801C6.55149 26.3693 7.41144 26.8225 8.28685 27.2293C8.43103 27.2962 8.80179 27.1366 8.88418 26.9821Z" fill="#E01E89"/>
<path id="Vector_7" d="M4.70312 24.8142C4.78551 24.6546 4.75461 24.3405 4.64133 24.1963C4.31691 23.7895 3.94615 23.4136 3.54965 23.0789C3.40546 22.9604 3.09135 22.9038 2.93686 22.981C2.78753 23.0583 2.62275 23.3775 2.66909 23.5269C2.90082 24.2581 3.44666 24.7215 4.19847 25.118C4.35296 25.0305 4.62073 24.9687 4.69797 24.8142H4.70312Z" fill="#E01E89"/>
<path id="Vector_8" d="M38.5145 41.4108C38.6638 41.5344 39.0501 41.5653 39.1942 41.4572C39.3333 41.3542 39.3384 41.0143 39.323 40.7826C39.3075 40.5354 39.2148 40.2882 39.1221 40.0565C39.0449 39.8608 38.9162 39.6857 38.8492 39.5622C38.3806 39.4901 38.1438 39.6291 38.0768 39.9741C37.9635 40.5251 38.0871 41.0452 38.5197 41.4108H38.5145Z" fill="#E01E89"/>
<path id="Vector_9" d="M30.4403 15.5813C30.5124 15.6431 30.5793 15.7048 30.6463 15.7718C30.6772 15.8078 30.7081 15.8387 30.739 15.8748C30.6772 15.7924 30.6772 15.7872 30.7338 15.8696C30.8213 16.0087 30.9089 16.1477 30.981 16.297C31.0016 16.3382 31.0222 16.3846 31.0428 16.4258C31.0016 16.3279 31.0016 16.3279 31.0428 16.4206C31.0788 16.5082 31.1097 16.6008 31.1406 16.6884C31.2024 16.8583 31.2539 17.0334 31.3054 17.2085C31.5577 18.0375 31.7482 18.882 31.8821 19.7369L33.5351 19.2786C33.2107 18.0015 32.7524 16.7605 32.1962 15.5658C32.0057 15.159 31.3878 15.02 31.0222 15.2568C30.6051 15.5298 30.5124 15.9932 30.7132 16.4309C30.7802 16.57 30.8419 16.7141 30.9089 16.8532C30.9398 16.9201 30.9655 16.9819 30.9913 17.0488C30.9295 16.9098 31.0325 17.1518 31.0376 17.157C31.1509 17.4299 31.2539 17.708 31.3569 17.986C31.5577 18.5576 31.7328 19.1395 31.8821 19.7317C31.9903 20.1694 32.5052 20.4732 32.9378 20.329C33.4218 20.1746 33.6123 19.7523 33.5351 19.2734C33.3909 18.362 33.1849 17.4608 32.9069 16.5802C32.6545 15.7718 32.325 14.9273 31.6556 14.366C31.3105 14.0776 30.775 14.0055 30.4403 14.366C30.1468 14.6853 30.0747 15.2723 30.4403 15.5813Z" fill="white"/>
<path id="Vector_10" d="M29.0595 15.7357L30.9803 20.02L32.4633 19.1549C31.176 17.2239 30.4653 15.0199 30.4087 12.7027L28.9463 13.3103C29.6105 14.093 30.1255 14.9736 30.5374 15.9108L32.0205 15.0457C31.4901 14.0416 30.9597 13.0374 30.4293 12.0333C29.8989 11.0291 28.5137 11.9148 28.9463 12.8984C30.3778 16.1734 31.8094 19.4485 33.2357 22.7235C33.6065 23.5783 34.7806 23.0428 34.8372 22.291C34.899 21.4722 34.6261 20.7204 34.2656 19.9995C33.9361 19.3403 33.452 18.6709 33.3645 17.9191L31.763 18.3516C32.9628 21.0139 34.0699 23.7173 35.0792 26.4568C35.4603 27.4867 37.1184 27.0387 36.7322 25.9985C35.6714 23.12 34.5025 20.2827 33.2409 17.4865C32.901 16.7296 31.5467 17.0849 31.6394 17.9191C31.7321 18.7533 32.0359 19.4742 32.4273 20.2106C32.7826 20.8749 33.1636 21.5082 33.107 22.2858L34.7085 21.8532C33.2769 18.5782 31.8454 15.3032 30.419 12.0281L28.936 12.8932C29.4664 13.8974 29.9967 14.9015 30.5271 15.9056C31.0575 16.9098 32.4376 16.0241 32.0102 15.0405C31.5416 13.9592 30.9082 12.9911 30.1512 12.0899C29.6672 11.5132 28.6682 11.9869 28.6888 12.6975C28.7506 15.3083 29.5333 17.8418 30.9803 20.02C31.6034 20.9521 32.9113 20.1488 32.4633 19.1549L30.5426 14.8706C30.0894 13.8665 28.6115 14.7367 29.0595 15.7357Z" fill="white"/>
<path id="Vector_11" d="M38.1076 36.5549C38.4423 37.7959 38.9985 38.9031 39.7966 39.9072C40.1674 40.3706 41.1818 41.1585 41.2591 41.7661C41.3929 42.8681 42.1087 43.8259 43.3188 43.8259C44.3281 43.8259 45.5125 42.8784 45.3786 41.7661C45.2087 40.3809 44.6937 39.3614 43.808 38.2851C43.0511 37.3685 42.3971 36.6373 42.0778 35.4581C41.3878 32.8988 37.4124 33.9854 38.1076 36.5549Z" fill="white"/>
<path id="Vector_12" d="M30.368 21.8636C31.3876 23.3363 31.4494 25.1798 32.5875 26.5805C33.0612 27.1624 33.916 27.2499 34.5906 27.1109C37.9995 26.4208 35.7338 22.1314 35.0489 20.2776C34.1477 17.8316 30.3011 18.7945 31.0787 21.3744C31.434 22.5588 32.0004 23.5114 32.5926 24.5825C33.1848 25.6536 33.4526 26.8071 33.8542 28.0069C34.2198 29.0934 34.8326 30.0358 35.2961 31.0759C35.8985 32.4251 36.1509 33.8978 36.5268 35.3139C37.1396 37.6106 38.0562 39.83 39.3332 41.8383C40.4197 43.5582 41.0531 45.7158 43.3704 45.8085C46.0223 45.9166 46.0172 41.7971 43.3704 41.6889L42.9687 41.6735L44.426 42.276C43.875 41.828 43.288 40.381 42.8915 39.7579C42.2529 38.7486 41.6814 37.6878 41.2488 36.5755C40.5433 34.7732 40.2756 32.8473 39.6628 31.0193C39.05 29.1912 38.0819 27.6207 37.5103 25.8081C36.8924 23.8513 35.6256 22.2086 35.0489 20.2776L31.0787 21.3744C31.5576 22.6721 32.227 24.0264 32.4587 25.3961L32.6647 23.8101L32.5154 24.0367L33.7461 23.0892L33.4989 23.1407L35.502 23.671C35.2549 23.3724 35.1416 22.3013 34.9768 21.8584C34.6987 21.1118 34.3795 20.4475 33.9263 19.7935C32.4227 17.6308 28.8541 19.6905 30.368 21.8739V21.8636Z" fill="white"/>
<path id="Vector_13" d="M39.5646 42.5798C42.2166 42.5798 42.2217 38.4602 39.5646 38.4602C36.9075 38.4602 36.9075 42.5798 39.5646 42.5798Z" fill="white"/>
<path id="Vector_14" d="M45.7597 45.3502C46.6351 43.5633 46.4085 41.8588 45.5382 40.1286C41.4393 32.0183 37.3712 23.8925 33.2877 15.7718C31.1301 11.4772 28.9931 7.16708 26.7891 2.89305C25.579 0.53976 22.7417 -0.438633 20.2802 0.53461C19.5387 0.828128 19.4769 0.951715 19.6932 1.71383C18.1329 3.22777 17.927 4.49968 18.9156 6.47191C19.5387 7.71292 20.1618 8.95394 20.7849 10.195C23.097 14.8037 25.4142 19.4073 27.7212 24.0212C28.2361 25.0511 29.0394 25.7205 30.1723 25.911C30.7285 26.0037 31.3052 25.9368 31.9128 25.9419C33.7666 29.6392 35.6513 33.388 37.5309 37.1265C37.1961 37.4561 36.882 37.765 36.5576 38.0894C32.9376 36.1687 29.3175 34.2531 25.7078 32.3427C26.0734 30.3447 25.5275 29.0007 23.9827 28.1768C18.0557 25.0305 12.1287 21.8945 6.18624 18.7842C5.73309 18.5473 5.18725 18.4186 4.67745 18.3826C3.50853 18.3002 2.57648 18.8203 1.84011 19.6854C1.16039 19.4176 0.985306 19.4897 0.696938 20.1179C0.629995 20.2673 0.552753 20.4114 0.480661 20.5556L0.212891 21.8172C0.228339 21.8636 0.259236 21.9099 0.259236 21.9563C0.207741 24.3147 1.27882 25.9728 3.3489 27.0542C6.89686 28.9132 10.4294 30.7978 13.967 32.6671C22.0259 36.9257 30.0796 41.1791 38.1385 45.4377C39.086 45.9372 40.0953 46.1638 41.1509 46.0196C41.7225 45.9423 42.0727 46.1895 42.5928 46.344C43.3755 46.5757 44.1015 46.5603 44.91 46.5242M28.6532 23.4856C27.7006 21.5958 26.7582 19.706 25.8107 17.8161C23.7973 13.7996 21.7839 9.783 19.7705 5.76644C19.168 4.56662 19.3019 3.58823 20.2442 2.69222C23.9466 10.0714 27.6336 17.4299 31.3515 24.8348C30.162 25.082 29.2197 24.6031 28.6584 23.4856H28.6532ZM40.2807 37.6414C41.7431 37.9556 42.6546 39.3871 42.3353 40.8598C42.016 42.3223 40.5948 43.2234 39.1117 42.9042C37.639 42.5849 36.7379 41.1688 37.0623 39.6909C37.3918 38.213 38.7925 37.3222 40.2807 37.6414ZM2.8391 20.2518C3.48278 19.433 4.59506 19.1756 5.53741 19.6648C8.07093 20.9727 10.589 22.3116 13.1071 23.6401C16.4903 25.4218 19.8683 27.2138 23.2463 29.0007C24.4873 29.6547 24.9765 30.5713 24.6727 31.802C17.3708 27.9399 10.105 24.0984 2.83395 20.2518H2.8391ZM38.7564 44.552C35.0952 42.6261 31.4339 40.7002 27.7778 38.764C19.719 34.5054 11.6601 30.2469 3.60637 25.978C1.67018 24.9532 0.846271 22.8317 1.58779 20.8028C2.46319 21.2611 3.3386 21.7194 4.20885 22.1777C14.6674 27.7082 25.1259 33.2438 35.5947 38.7692C35.9654 38.9649 36.1096 39.1142 36.0118 39.5776C35.4762 42.1833 37.7626 44.4696 40.3785 43.9907C40.5536 43.9598 40.7338 43.9135 40.9346 43.8723C41.0943 44.1967 41.2539 44.5159 41.4393 44.8919C40.4609 45.0978 39.5803 44.9897 38.7564 44.552ZM25.785 3.26896C26.2948 4.13922 26.717 5.05582 27.1702 5.95697C33.0303 17.6256 38.8903 29.2942 44.7504 40.9577C45.3735 42.2038 45.4352 43.45 44.8688 44.7271C44.6525 45.206 44.3436 45.5767 43.7668 45.5819C43.1849 45.5922 42.8142 45.2935 42.5825 44.7734C42.3713 44.31 42.1293 43.8568 41.8924 43.3831C43.4579 41.9927 43.8801 40.3398 43.1283 38.6868C42.361 37.0029 40.8419 36.3232 38.499 36.6322C32.6131 24.9326 26.7325 13.228 20.8518 1.51815C22.4791 0.750887 24.7809 1.55935 25.785 3.26896Z" fill="#E01E89"/>
</g>
<g id="Group_3">
<path id="Vector_15" d="M76.4817 21.0294L74.5506 22.9244L78.5672 25.2622L78.7938 24.5722H74.1593L73.9945 25.2982C72.8616 28.0326 76.9039 29.1088 78.387 27.152C82.0225 22.3528 86.4561 18.2384 90.8229 14.16L87.4242 10.7614C86.9196 11.333 86.4098 11.9046 85.9052 12.4762C83.8608 14.7831 87.2492 18.1972 89.3038 15.8748C89.8084 15.3032 90.3182 14.7316 90.8229 14.16C92.8672 11.8531 89.7003 8.63467 87.4242 10.7614C82.7383 15.1333 78.1347 19.5824 74.2365 24.7267L78.629 26.5805C79.0976 25.4527 79.0667 24.4692 78.7938 23.3003C78.2325 20.8697 74.8648 21.1684 74.1593 23.3003L73.9327 23.9903C73.1603 26.3333 76.3015 27.9502 77.9493 26.3281L79.8803 24.4331C82.0894 22.2601 78.6908 18.8615 76.4817 21.0345V21.0294Z" fill="white"/>
<path id="Vector_16" d="M93.3928 6.5749C92.78 7.48635 92.1673 8.3978 91.5493 9.3041C91.1322 9.91689 90.3135 11.6986 89.5719 11.884L91.1219 13.9026C92.0591 12.3114 93.3156 10.7253 93.5267 8.8561C93.676 7.52755 91.9922 7.24948 91.1837 7.88286C90.195 8.66042 89.4638 10.025 88.4082 10.6481L90.4731 11.8325L90.4628 11.4669L90.0611 12.4401C90.8387 11.4514 91.9458 10.6224 92.8727 9.7727C93.604 9.10328 93.2692 7.68203 92.2651 7.47605C90.7563 7.17224 89.9324 8.22272 88.9283 9.21141C87.852 10.2722 89.299 12.3062 90.5915 11.369C91.884 10.4318 93.0736 9.48433 94.2219 8.43385C95.1591 7.57389 96.3486 6.66759 96.6009 5.35449C96.7606 4.53058 96.2302 3.56248 95.2775 3.61398C94.4073 3.66032 94.0314 3.89205 93.5267 4.60782C92.9706 5.39568 93.5937 6.33803 94.3455 6.6264C94.6338 6.73454 94.8759 6.78088 95.1848 6.76028C96.3538 6.69334 94.9531 5.81279 94.572 6.02906L96.5906 7.57904C96.6833 6.91992 96.7966 6.43587 97.1107 5.83338L94.6029 5.50382C94.4794 5.10731 93.7481 6.64185 93.6451 6.82723C93.2847 7.49665 92.9294 8.16608 92.5689 8.83551C91.9613 9.96838 93.2486 11.5287 94.4485 10.7151C96.3744 9.40194 97.0077 5.72525 95.087 4.08772C93.7481 2.94455 91.7965 4.88074 93.1457 6.02906C93.604 6.42042 93.537 8.02189 93.0633 8.34631L94.9428 10.2259C95.5556 9.07753 96.1941 7.9395 96.7863 6.78603C97.1365 6.1063 97.4918 5.55531 97.2498 4.77775C96.915 3.70667 95.3084 3.35651 94.742 4.44819C94.3352 5.2309 94.0674 5.97757 93.9438 6.84782C93.7893 7.98585 94.8244 9.04148 95.9624 8.3978C97.1004 7.75412 98.2127 6.60065 97.6566 5.16396C97.466 4.66961 97.1159 4.23706 96.6318 4.00533C96.1066 3.75301 95.293 4.05168 95.0767 3.96929L95.8955 5.98787L96.1014 5.69435L94.9171 6.37408L95.2724 6.35348L93.949 4.61297C93.7842 5.45233 92.4505 6.33288 91.848 6.86327C90.9983 7.61509 90.1178 8.31541 89.2012 8.98484L90.8645 11.1425C91.2816 10.7305 91.7296 10.2156 92.2342 9.90659L91.1786 10.0456L91.5287 10.1177L90.9211 7.82107C89.7676 8.8767 87.6718 10.092 87.713 11.8273C87.7387 12.8572 88.8613 13.5524 89.7779 13.0117C91.0962 12.2341 91.8995 10.7717 93.1096 9.81905L90.7666 8.84581C90.6379 9.95808 89.299 11.5493 88.7377 12.5071C88.1198 13.5627 89.1394 14.8089 90.2877 14.5256C91.5699 14.2064 92.1827 13.2074 92.8933 12.1672C93.8511 10.7665 94.8038 9.36075 95.7513 7.95495C96.6988 6.54916 94.3609 5.10731 93.3825 6.56975L93.3928 6.5749Z" fill="white"/>
<path id="Vector_17" d="M84.7831 4.50998C83.4803 5.83853 82.4092 7.35761 81.3381 8.87155C80.1589 10.5348 78.9745 12.1929 77.8056 13.8665C75.5295 17.1364 73.4286 20.5093 71.5954 24.0418C71.0856 25.0202 72.5686 25.8904 73.0784 24.9069C74.8755 21.4465 76.925 18.1354 79.1496 14.9324C80.267 13.3258 81.405 11.7346 82.5328 10.1383C83.6605 8.54199 84.6852 7.0641 86.0035 5.72009C86.7759 4.93223 85.5658 3.71696 84.7882 4.50483L84.7831 4.50998Z" fill="white"/>
<path id="Vector_18" d="M66.5792 33.1718C66.471 33.1409 66.3526 33.1409 66.2445 33.1254C66.2239 33.0894 66.2033 33.0585 66.1878 33.0225C65.7707 33.2387 65.297 33.3881 64.9468 33.6867C64.298 34.2377 63.7109 34.866 63.1239 35.4839C62.5678 36.0709 62.4287 36.9824 62.7943 37.6621C63.1754 38.3676 63.7676 38.8825 64.4576 39.2584C65.0652 39.5931 65.7141 39.5262 66.2136 39.0782C67.0272 38.3521 67.7996 37.5694 68.536 36.7609C68.9119 36.3438 69.0406 35.7723 68.8037 35.2367C68.366 34.2377 67.6606 33.4911 66.5792 33.1615V33.1718ZM67.434 36.1945C66.8212 36.8279 66.1981 37.4561 65.5699 38.0741C65.333 38.3058 65.0395 38.3006 64.7975 38.0998C64.5143 37.8681 64.2465 37.6106 64.0045 37.3325C63.8963 37.2038 63.8654 37.0081 63.7779 36.7815C63.8757 36.6065 63.9478 36.4056 64.0817 36.2615C64.5915 35.7259 65.1167 35.2058 65.6471 34.6857C66.0539 34.2841 66.435 34.2841 66.8418 34.6703C67.0478 34.866 67.2537 35.0668 67.4391 35.2779C67.7069 35.5817 67.7069 35.9061 67.4288 36.1945H67.434Z" fill="#E01E89"/>
<path id="Vector_19" d="M65.4461 23.8203L63.7004 24.5979L64.5655 26.0809C66.3112 24.8296 68.2731 25.0768 70.2814 25.4321C71.3628 25.6226 71.7902 24.1499 70.7397 23.7791C69.9312 23.4908 69.1228 23.2024 68.3143 22.9192L68.0877 24.6031C68.4327 24.5876 68.7778 24.567 69.1279 24.5516C70.2247 24.4949 70.2402 22.8214 69.1279 22.8368C68.0156 22.8522 66.9343 23.0376 65.8992 23.4135C65.4976 23.5577 65.2195 23.913 65.2864 24.3559C65.3431 24.7369 65.6984 25.1489 66.1309 25.1026C68.6336 24.8245 71.1671 25.1849 73.4586 26.2354C74.3134 26.6268 75.2145 25.6278 74.4988 24.8863C73.4843 23.8358 74.8335 22.2961 75.5235 21.5031L74.0868 20.6689C73.4895 22.2858 73.129 23.9645 72.9694 25.6844C72.8819 26.6371 74.4833 26.8637 74.6533 25.911C74.8386 24.8863 75.1373 23.8924 75.5956 22.9552C76.0745 21.9665 74.5966 21.0963 74.1126 22.0901C73.5925 23.1664 73.2063 24.2838 72.9951 25.4579L74.679 25.6844C74.8232 24.1242 75.1888 22.5948 75.7346 21.1272C76.0282 20.329 74.8489 19.6647 74.2979 20.293C73.5719 21.122 72.7943 22.0232 72.542 23.1252C72.2897 24.2271 72.5059 25.3034 73.2732 26.1015L74.3134 24.7524C71.749 23.5732 68.9322 23.0685 66.1155 23.3826L66.3421 25.0665C67.2432 24.7421 68.1547 24.5619 69.1176 24.5516V22.8368C68.7726 22.8522 68.4276 22.8728 68.0774 22.8883C67.0939 22.9398 66.9343 24.2477 67.8509 24.5722C68.6593 24.8605 69.4678 25.1489 70.2762 25.4321L70.7345 23.7791C68.2989 23.3517 65.822 23.0737 63.6953 24.6031C62.789 25.2519 63.5511 26.5341 64.5604 26.0861L66.306 25.3085C66.7283 25.118 66.8313 24.5052 66.615 24.1345C66.3575 23.6968 65.8683 23.6401 65.4409 23.8255L65.4461 23.8203Z" fill="white"/>
<path id="Vector_20" d="M95.2666 2.9291C94.4633 3.17627 93.7681 3.62427 93.1605 4.19586C91.8422 5.43688 90.5445 6.69334 89.2417 7.94465C85.1582 11.8737 81.0799 15.8078 76.9964 19.7369C76.914 19.8193 76.8162 19.8862 76.7286 19.9634C76.7544 19.7884 76.8161 19.6442 76.9037 19.5257C77.5989 18.6297 78.3404 17.7595 78.9944 16.8377C81.2035 13.7275 83.3817 10.5966 85.5702 7.47605C86.1263 6.68819 86.6979 5.90547 87.2232 5.09701C87.4806 4.70051 87.6197 4.23706 87.4085 3.75816C87.2438 3.3771 86.9142 3.20717 86.5228 3.19687C85.5033 3.17112 84.6639 3.61913 83.9842 4.31945C83.5413 4.7726 83.2169 5.33904 82.8513 5.85913C79.3857 10.7459 75.9201 15.6276 72.4649 20.5247C71.9602 21.2405 71.5122 21.9975 71.0333 22.739C69.8181 22.0181 68.5307 21.7245 67.1661 21.9923C64.7201 22.4764 62.959 24.0521 61.3524 25.8132C60.5697 26.6732 59.8848 27.6206 59.1278 28.5064C58.6901 29.0213 58.6386 29.943 59.0815 30.3241C59.617 30.7824 60.8529 30.7412 61.2443 30.2778C61.7489 29.6804 62.2484 29.0728 62.7994 28.5167C63.9323 27.3683 65.2402 26.5135 66.8571 26.2303C67.5369 26.1119 68.2269 26.117 69.0045 26.4105C68.8139 26.565 68.6852 26.6526 68.5719 26.7607C67.0734 28.2025 65.5492 29.6186 64.0919 31.0965C62.0476 33.1769 60.029 35.2882 58.0413 37.42C57.0166 38.522 56.8724 39.8454 57.3667 41.2409C57.5006 41.622 57.686 41.9927 57.8353 42.3377C57.3719 42.76 56.9033 43.1565 56.4707 43.5891C55.8373 44.2224 55.7086 45.0566 56.1978 45.7158C56.445 46.0505 56.8569 46.2616 57.1916 46.5345H58.0465C58.9579 46.1947 59.339 45.2472 60.0908 44.7374C60.1268 44.7528 60.1577 44.758 60.1783 44.7734C61.5738 45.5973 62.475 45.5664 63.7263 44.5417C65.4771 43.1102 67.2382 41.6786 68.9221 40.1698C70.9818 38.3315 72.9644 36.4056 74.983 34.5209C75.9047 33.6609 76.1416 32.6053 75.9407 31.4055C75.915 31.2665 75.9716 31.0656 76.0643 30.9575C76.9706 29.8967 77.8615 28.8205 78.8193 27.8112C84.0511 22.2961 89.2984 16.7965 94.5405 11.2866C95.4932 10.2876 96.451 9.2938 97.3881 8.27422C98.0164 7.59449 98.4438 6.79633 98.5931 5.86428C98.8609 4.16497 97.5993 2.20303 95.2563 2.92395L95.2666 2.9291ZM58.8343 44.207C58.5665 44.5159 58.2833 44.8146 58.0001 45.1133C57.7838 45.345 57.5418 45.4017 57.2998 45.1699C57.0578 44.9382 57.1041 44.6859 57.3307 44.4696C57.619 44.1967 57.9074 43.9238 58.2061 43.6611C58.2988 43.5788 58.4172 43.5324 58.5871 43.4346C58.7416 43.5736 58.9219 43.692 59.0248 43.8517C59.0609 43.9083 58.927 44.104 58.8395 44.207H58.8343ZM74.1178 33.6867C72.9026 34.8453 71.7234 36.0503 70.4669 37.1574C68.0621 39.2738 65.6161 41.3387 63.1856 43.4243C63.0672 43.5273 62.9333 43.6148 62.8097 43.7023C61.9188 44.3254 61.5223 44.3306 60.6881 43.6199C59.9054 42.9557 59.1536 42.2605 58.7004 41.3078C58.1546 40.1647 58.134 39.0987 59.0609 38.1203C60.8838 36.1996 62.6655 34.2377 64.5244 32.3581C66.2752 30.5867 68.1136 28.8977 69.9005 27.1623C70.1322 26.9358 70.3227 26.9255 70.6111 27.0336C71.5586 27.3786 72.2177 28.0892 72.9026 28.7741C73.227 29.0934 73.5257 29.4384 73.8295 29.7783C74.4423 30.4631 74.7409 31.2716 74.7873 31.905C74.813 32.7958 74.5555 33.285 74.123 33.697L74.1178 33.6867ZM75.4721 29.7731C74.7203 28.9853 73.9737 28.2128 73.2373 27.4353C71.7543 25.8595 69.8438 25.1747 67.7686 24.979C66.3834 24.8503 65.1166 25.3755 63.9426 26.0964C62.6294 26.9049 61.5326 27.9502 60.5748 29.15C60.4512 29.3045 60.235 29.3921 60.0599 29.5053C60.0238 29.459 59.9878 29.4178 59.9517 29.3715C60.1371 29.1449 60.3225 28.9132 60.513 28.6866C61.6665 27.2962 62.753 25.8286 64.2361 24.7627C64.9776 24.2272 65.7809 23.7483 66.6203 23.3775C67.851 22.8368 69.0817 23.0788 70.23 23.6865C71.2805 24.2426 71.5277 24.2272 72.1611 23.2024C75.7296 17.466 79.844 12.1157 83.7473 6.6161C84.1078 6.1063 84.4631 5.58106 84.8905 5.12791C85.1737 4.82924 85.5856 4.64901 85.941 4.41214L86.0388 4.53058C85.7968 4.90648 85.565 5.29269 85.3076 5.66345C82.8925 9.14962 80.4825 12.6409 78.052 16.1117C77.6813 16.642 77.1457 17.0643 76.7801 17.5998C76.0952 18.604 75.4155 19.6287 74.8439 20.6998C74.2414 21.8172 74.3805 23.0171 74.7667 24.186C75.1889 25.463 75.8944 26.5702 76.7904 27.564C76.8831 27.667 76.9706 27.7751 77.0839 27.9039C76.5329 28.5424 75.9922 29.1603 75.4773 29.7525L75.4721 29.7731ZM77.9181 26.977C76.8213 25.808 75.9665 24.5722 75.7245 23.0016C75.6987 22.8523 75.7605 22.6257 75.8635 22.5227C80.4774 18.0633 85.1067 13.6142 89.7309 9.16507C89.7515 9.14447 89.7773 9.13417 89.8391 9.09813C90.4982 10.1641 91.3839 11.0086 92.5374 11.6316C87.6609 16.7502 82.8049 21.8481 77.9233 26.977H77.9181ZM96.5694 7.37306C95.6064 8.4184 94.6229 9.44314 93.6291 10.4627C93.5364 10.5554 93.2943 10.6069 93.1708 10.5554C92.1872 10.128 91.4714 9.39164 90.8947 8.50079C90.7557 8.28966 90.7608 8.14548 90.9617 7.95495C91.9658 7.0126 92.9493 6.04451 93.9535 5.09701C94.4839 4.59752 95.076 4.18556 95.8124 4.02593C96.7702 3.81995 97.4396 4.35549 97.4396 5.49352C97.4087 6.1269 97.0843 6.79633 96.5642 7.36791L96.5694 7.37306Z" fill="#E01E89"/>
</g>
</g>
</g>
</svg>
