<svg id="Layer_1" data-name="Layer 1" xmlns="http://www.w3.org/2000/svg" viewBox="0 0 1100.82 275.96"><defs><style>.cls-1{fill:#fff;}.cls-2{fill:#727272;}.cls-3{fill:#df1e88;}</style></defs><rect class="cls-1" y="1.65" width="1100.82" height="274.31"/><path class="cls-2" d="M987,1682.68q-7.63,0-11-3t-3.34-8.58a17.54,17.54,0,0,1,1-6.12l5.49-.9a15.32,15.32,0,0,0-1.32,6.44q0,4.25,2.16,6.16t7.51,1.91h5.31v-14.28H998v14.28h3.86v4Zm1.06,7.75a2.7,2.7,0,0,1-3.82,0,2.61,2.61,0,0,1-.78-1.92,2.64,2.64,0,0,1,.78-1.89,2.57,2.57,0,0,1,1.91-.8,2.66,2.66,0,0,1,2.69,2.69A2.65,2.65,0,0,1,988,1690.43Z" transform="translate(-109.98 -1463.99)"/><path class="cls-2" d="M1001.22,1682.68v-4h4.84v-23.44h5.14v23.44h3.94v4Z" transform="translate(-109.98 -1463.99)"/><path class="cls-2" d="M1014.52,1682.68v-4h4.76v-23.44h5.15v10.14a35.91,35.91,0,0,1-.43,5.77h0a12,12,0,0,1,4.12-5.32,10,10,0,0,1,5.91-1.93,7.17,7.17,0,0,1,5.93,2.47,10.93,10.93,0,0,1,2,7q0,3-.15,5.34h3.59v4Zm9.87-4h12.12c.13-1.74.2-3.33.2-4.76a9,9,0,0,0-.86-4.39,3,3,0,0,0-2.84-1.5c-2,0-3.81,1.06-5.43,3.18A17.24,17.24,0,0,0,1024.39,1678.63Z" transform="translate(-109.98 -1463.99)"/><path class="cls-2" d="M1044.82,1682.68v-4h4.84v-23.44h5.15v27.49Z" transform="translate(-109.98 -1463.99)"/><path class="cls-2" d="M1061.43,1682.68v-27.49h5.15v27.49Z" transform="translate(-109.98 -1463.99)"/><path class="cls-2" d="M1091.58,1692.63q-5.58,0-8.31-1.91a5.82,5.82,0,0,1-2.73-5,6,6,0,0,1,.57-2.58,7.69,7.69,0,0,1,1.29-2,10.08,10.08,0,0,1,2.14-1.65,26.13,26.13,0,0,1,2.32-1.31c.6-.29,1.47-.69,2.61-1.21-1.06-1-1.87-1.77-2.43-2.26a17.83,17.83,0,0,0-2.36-1.68,12.26,12.26,0,0,0-3-1.36l.43-3.67q6-4.33,11.27-4.33c2.73,0,4.79.61,6.17,1.81a5.86,5.86,0,0,1,2.06,4.59q0,4.2-4.44,7.25a10.22,10.22,0,0,0,4.79,1.25h2.58v4h-3.16a14,14,0,0,1-8.66-2.88,48,48,0,0,0-5.11,2.73,3.53,3.53,0,0,0-1.79,2.73q0,3.35,6.36,3.35c.88,0,1.81,0,2.78-.11a19.37,19.37,0,0,0,2.25-.28l.81-.11.32,3.9A37.76,37.76,0,0,1,1091.58,1692.63Zm-4.72-22.78a8.46,8.46,0,0,1,1.42.69,14.47,14.47,0,0,1,1.47,1c.52.4.93.74,1.25,1s.78.66,1.4,1.22l1.25,1.12c1.9-1.25,2.84-2.62,2.84-4.1a3.11,3.11,0,0,0-1-2.36,3.84,3.84,0,0,0-2.75-.92Q1090.38,1667.51,1086.86,1669.85Z" transform="translate(-109.98 -1463.99)"/><path class="cls-2" d="M1131.4,1673.29a72.29,72.29,0,0,1-.55,9.39h-26.91v-4h4.76v-14.28h5.15v1a34.8,34.8,0,0,1-.43,5.77h0a12.06,12.06,0,0,1,4.11-5.32,10,10,0,0,1,5.91-1.93,7.15,7.15,0,0,1,5.93,2.47A10.87,10.87,0,0,1,1131.4,1673.29Zm-5.26.58a9,9,0,0,0-.86-4.39,3,3,0,0,0-2.85-1.5q-3,0-5.42,3.18a17.25,17.25,0,0,0-3.2,7.47h12.13C1126.07,1676.89,1126.14,1675.3,1126.14,1673.87Zm-3.32-12.79a2.66,2.66,0,0,1-2.69-2.69,2.53,2.53,0,0,1,.8-1.91,2.68,2.68,0,0,1,3.78,0,2.68,2.68,0,0,1,0,3.82A2.61,2.61,0,0,1,1122.82,1661.08Z" transform="translate(-109.98 -1463.99)"/><path class="cls-2" d="M1141.66,1692.51c-.86,0-1.79,0-2.77-.11a22.85,22.85,0,0,1-2.34-.28l-.82-.11.31-4.22a28,28,0,0,0,6.08.67q6.75,0,6.75-5.19v-.59h-3q-10.45,0-10.45-9a9.77,9.77,0,0,1,2.63-7c1.75-1.88,4.32-2.81,7.7-2.81a25.7,25.7,0,0,1,4.08.33,20.33,20.33,0,0,1,3.06.68l1,.35v17.55a9,9,0,0,1-3,7Q1147.86,1692.52,1141.66,1692.51Zm7.21-13.88v-10a8.59,8.59,0,0,0-3.7-.71,4.23,4.23,0,0,0-3.4,1.47,5.65,5.65,0,0,0-1.25,3.8q0,5.46,5.86,5.46Z" transform="translate(-109.98 -1463.99)"/><path class="cls-2" d="M1186.47,1682.68q-9.6,0-10.42-7.56h-.78a2.19,2.19,0,0,0-2.2,1.11,7.29,7.29,0,0,0-.1,3.84l2,12.75h-5l-2-12.36q-.66-4.37,1.11-6.88t6.26-2.52h.86a9.13,9.13,0,0,1,3.31-5.22,10.35,10.35,0,0,1,6.59-2c3,0,5.18.78,6.63,2.36a9.33,9.33,0,0,1,2.19,6.61v5.81h3.27v4Zm3.51-4v-5.19q0-5.54-4.18-5.54a4.21,4.21,0,0,0-3.39,1.47,5.65,5.65,0,0,0-1.25,3.8,5.4,5.4,0,0,0,1.43,4.11,6.24,6.24,0,0,0,4.42,1.35Z" transform="translate(-109.98 -1463.99)"/><path class="cls-2" d="M1197.7,1682.68v-4h5.46v-14.28h5.15v18.33Zm5.91-22.07a2.51,2.51,0,0,1-1.86.78,2.46,2.46,0,0,1-1.83-.76,2.76,2.76,0,0,1,0-3.76,2.44,2.44,0,0,1,1.83-.78,2.53,2.53,0,0,1,1.86.76,2.57,2.57,0,0,1,.76,1.89A2.61,2.61,0,0,1,1203.61,1660.61Zm6.45,0a2.56,2.56,0,0,1-3.66,0,2.73,2.73,0,0,1,0-3.76,2.56,2.56,0,0,1,3.66,0,2.59,2.59,0,0,1,.74,1.89A2.63,2.63,0,0,1,1210.06,1660.61Z" transform="translate(-109.98 -1463.99)"/><circle class="cls-3" cx="983.08" cy="84.02" r="71.98"/><path class="cls-1" d="M1124.57,1526.3a7.89,7.89,0,0,0-6.76-7.75,57.37,57.37,0,0,0-5.87-.17c-.85,0-1.7,0-2.63,0,0-1.05,0-2,0-3a1.49,1.49,0,0,0-1.26-1.64,4.86,4.86,0,0,0-1.32-.14c-1.56,0-3.13,0-4.7,0a1,1,0,0,1-.73-.47c-1.62-3.62-4.53-5.21-8.36-5.24a8.47,8.47,0,0,0-8.26,5.24.77.77,0,0,1-.84.5c-1.67,0-3.35,0-5,0-1.48,0-2,.61-2,2.08v2.66c-2.5,0-4.88,0-7.25,0a8.07,8.07,0,0,0-8,8.14q0,27,0,54a7.05,7.05,0,0,0,4.55,6.85,21.11,21.11,0,0,0,2.37.76h49.21a5.69,5.69,0,0,1,.59-.16,7.42,7.42,0,0,0,6.31-7.13Q1124.59,1553.56,1124.57,1526.3Zm-43.85-8.86h4.64a2.13,2.13,0,0,0,2.38-1.81,5.48,5.48,0,0,1,4.82-4.17,5.36,5.36,0,0,1,5.5,4c.44,1.57,1,2,2.62,2h4.76V1525h-24.72Zm40.06,62.92a3.62,3.62,0,0,1-3.26,3.84,8.51,8.51,0,0,1-1.33.1h-46.3a5.25,5.25,0,0,1-3.05-.83,3.18,3.18,0,0,1-1.49-2.69c0-.21,0-.42,0-.63V1527c0-3,1.72-4.76,4.76-4.76,2.14,0,4.28,0,6.42,0a1.45,1.45,0,0,1,.28.09v4.14c0,1.71.73,2.44,2.43,2.44h27.57c1.76,0,2.5-.77,2.5-2.55l0-3.92s.05-.09.12-.21h2c1.6,0,3.19,0,4.78,0a4.29,4.29,0,0,1,4.49,4.56Z" transform="translate(-109.98 -1463.99)"/><path class="cls-1" d="M1112.85,1539.4h-19.8c-.68,0-1.36,0-2,0a1.85,1.85,0,0,0-1.74,1.86,1.83,1.83,0,0,0,1.69,1.91,6.12,6.12,0,0,0,.86,0h20.66a6.77,6.77,0,0,0,1-.07,1.88,1.88,0,0,0,1.47-2.36A2,2,0,0,0,1112.85,1539.4Z" transform="translate(-109.98 -1463.99)"/><path class="cls-1" d="M1113.76,1570.11a3.7,3.7,0,0,0-1.15-.14h-20.9a4.27,4.27,0,0,0-1,.09,1.81,1.81,0,0,0-1.43,1.89,1.83,1.83,0,0,0,1.54,1.8,5.86,5.86,0,0,0,.94.06h20.82a4.93,4.93,0,0,0,1-.09,1.88,1.88,0,0,0,.18-3.6Z" transform="translate(-109.98 -1463.99)"/><path class="cls-1" d="M1112.89,1554.7H1099c-2.55,0-5.11,0-7.67,0a1.84,1.84,0,0,0-2,2c0,1.13.87,1.81,2.2,1.81H1112c.41,0,.83,0,1.25,0a1.89,1.89,0,0,0,1.77-2.22A1.92,1.92,0,0,0,1112.89,1554.7Z" transform="translate(-109.98 -1463.99)"/><path class="cls-1" d="M1075.6,1560.33a1.8,1.8,0,0,0,2.55.08c.36-.3.69-.63,1-1q3.22-3.06,6.46-6.14a1.76,1.76,0,0,0,.41-2.27,1.85,1.85,0,0,0-2.1-1,3.11,3.11,0,0,0-1.24.75c-1.93,1.8-3.82,3.62-5.72,5.43-.49-.46-.92-.84-1.32-1.24s-.83-.87-1.26-1.29a1.9,1.9,0,0,0-2.73-.17,2,2,0,0,0,0,2.76Q1073.61,1558.36,1075.6,1560.33Z" transform="translate(-109.98 -1463.99)"/><path class="cls-1" d="M1075.6,1545a1.7,1.7,0,0,0,2.52.1q3.84-3.57,7.61-7.21a1.82,1.82,0,0,0-.48-3,1.9,1.9,0,0,0-2.42.44c-1.95,1.84-3.89,3.7-5.84,5.56-.11,0-.14,0-.16-.06-.78-.8-1.56-1.61-2.35-2.4a1.9,1.9,0,1,0-2.71,2.62C1073,1542.44,1074.3,1543.74,1075.6,1545Z" transform="translate(-109.98 -1463.99)"/><path class="cls-1" d="M1085.49,1565.68a1.89,1.89,0,0,0-2.62.25l-5.81,5.53c-.9-.83-1.74-1.58-2.54-2.36a1.91,1.91,0,1,0-2.74,2.61c1.24,1.3,2.51,2.58,3.78,3.86a1.74,1.74,0,0,0,2.58.12q3.84-3.57,7.61-7.22A1.78,1.78,0,0,0,1085.49,1565.68Z" transform="translate(-109.98 -1463.99)"/><path class="cls-3" d="M1093.06,1632a84,84,0,1,1,84-84A84.11,84.11,0,0,1,1093.06,1632Zm0-164a80,80,0,1,0,80,80A80.11,80.11,0,0,0,1093.06,1468Z" transform="translate(-109.98 -1463.99)"/><path class="cls-1" d="M828.78,1517.28a1.57,1.57,0,0,0-1.63-1c-1.59,0-3.18.11-4.75,0a6.68,6.68,0,0,0-4.66,1.48,150.56,150.56,0,0,0-27.1,25.5c-1.64,1.93-3.21,3.9-4.87,5.92l-1-.71-12.44-8.68a1.61,1.61,0,0,0-2.45.21c-1.3,1.28-2.62,2.52-3.86,3.86a2.84,2.84,0,0,0-.55,1.54c0,.3.28.66.49.95,6.46,9,13,17.91,18.8,27.34.78,1.28,2.11,1.16,2.92-.23q7.23-12.35,15.39-24.1c7.54-10.79,15.44-21.29,25.21-30.23A1.56,1.56,0,0,0,828.78,1517.28Z" transform="translate(-109.98 -1463.99)"/><path class="cls-1" d="M811.59,1546.12a1.54,1.54,0,0,0-1.36,1.66,5.59,5.59,0,0,0,.09.7,24,24,0,0,1-.12,9.66,24.91,24.91,0,1,1-16.51-28.8,1.59,1.59,0,0,0,2.28-1.21c.11-.81-.41-1.46-1.44-1.79A28.05,28.05,0,0,0,757.78,1553l-.19,0c.34,2.26.52,4.56,1.06,6.77a27.84,27.84,0,0,0,23.42,21,26.85,26.85,0,0,0,20.85-5.59,27.13,27.13,0,0,0,10.87-21,43.76,43.76,0,0,0-.54-6.83A1.46,1.46,0,0,0,811.59,1546.12Z" transform="translate(-109.98 -1463.99)"/><rect class="cls-3" x="766.26" y="81.31" width="132.8" height="6.68"/><path class="cls-2" d="M685.66,1684.34q-7.65,0-11-3t-3.33-8.58a17.62,17.62,0,0,1,1-6.12l5.5-.9a15.17,15.17,0,0,0-1.33,6.44c0,2.83.72,4.89,2.17,6.16s3.94,1.91,7.5,1.91h5.31V1666h5.15v14.27h3.86v4.06Zm1.05,7.74a2.69,2.69,0,1,1-3.82-3.78,2.55,2.55,0,0,1,1.91-.8,2.69,2.69,0,0,1,1.91,4.58Z" transform="translate(-109.98 -1463.99)"/><path class="cls-2" d="M699.89,1684.34v-4.06h4.84v-23.44h5.15v23.44h3.94v4.06Z" transform="translate(-109.98 -1463.99)"/><path class="cls-2" d="M713.19,1684.34v-4.06H718v-23.44h5.15V1667a34.92,34.92,0,0,1-.43,5.78h0a12,12,0,0,1,4.11-5.33,10,10,0,0,1,5.91-1.93,7.16,7.16,0,0,1,5.93,2.48q2,2.48,2,7c0,2,0,3.78-.16,5.34h3.59v4.06Zm9.87-4.06h12.13c.13-1.74.19-3.33.19-4.76a9,9,0,0,0-.85-4.38,3,3,0,0,0-2.85-1.5c-2,0-3.81,1-5.42,3.17A17.14,17.14,0,0,0,723.06,1680.28Z" transform="translate(-109.98 -1463.99)"/><path class="cls-2" d="M743.5,1684.34v-4.06h4.83v-23.44h5.15v27.5Z" transform="translate(-109.98 -1463.99)"/><path class="cls-2" d="M760.11,1684.34v-27.5h5.15v27.5Z" transform="translate(-109.98 -1463.99)"/><path class="cls-2" d="M779.72,1684.34v-4a21.93,21.93,0,0,1,3.59.23,2.64,2.64,0,0,1-1.36-2.65,6,6,0,0,1,2.08-4.62q2.09-1.89,6.38-1.89a19.88,19.88,0,0,1,3.51.27l-.62,4.06a14.34,14.34,0,0,0-3.12-.31,3.59,3.59,0,0,0-2.29.64,2,2,0,0,0-.79,1.66q0,2.61,4.44,2.61H795v4Z" transform="translate(-109.98 -1463.99)"/><path class="cls-2" d="M800.59,1684.34v-27.5h5.15v23.44h3.9v4.06Z" transform="translate(-109.98 -1463.99)"/><path class="cls-2" d="M809.05,1684.34v-4.06h1.37a29.4,29.4,0,0,0,9.08-1.21l-.89-.85c-.5-.47-.82-.77-1-.9l-.9-.8q-.66-.6-1-.84l-1-.68a9.31,9.31,0,0,0-1.12-.69c-.31-.15-.67-.32-1.09-.5a7.4,7.4,0,0,0-1.25-.43l.43-3.67q6-4.32,11.27-4.33,4.1,0,6.17,1.82a5.84,5.84,0,0,1,2.06,4.58c0,2.78-1.32,5.28-4,7.49a10,10,0,0,0,4.33,1h2.58v4.06H831a14.21,14.21,0,0,1-8-2.42,31.41,31.41,0,0,1-12.87,2.42Zm7.45-12.83a12.11,12.11,0,0,1,2,1.07,19.07,19.07,0,0,1,1.72,1.25c.45.38,1.06.9,1.83,1.58s1.33,1.17,1.7,1.48a5.57,5.57,0,0,0,2.41-4.45,3.11,3.11,0,0,0-1-2.36,3.84,3.84,0,0,0-2.75-.91Q820,1669.17,816.5,1671.51Zm5.89-9a2.66,2.66,0,0,1-2.69-2.69,2.57,2.57,0,0,1,.8-1.91,2.68,2.68,0,0,1,3.78,0,2.68,2.68,0,0,1,0,3.82A2.61,2.61,0,0,1,822.39,1662.5Z" transform="translate(-109.98 -1463.99)"/><path class="cls-2" d="M833.58,1684.34v-4.06h4.84v-23.44h5.15v27.5Z" transform="translate(-109.98 -1463.99)"/><path class="cls-2" d="M847.08,1694.79v-2.85a9.08,9.08,0,0,1,1.91.16,1.6,1.6,0,0,1-.51-1.29,3.56,3.56,0,0,1,1.37-2.86,6.13,6.13,0,0,1,4-1.15,9.6,9.6,0,0,1,2.3.19l-.47,2.81a16.27,16.27,0,0,0-1.87-.2c-1.14,0-1.71.38-1.71,1.13s.82,1.21,2.45,1.21h2.3v2.85Zm3.12-10.45v-27.5h5.14v27.5Z" transform="translate(-109.98 -1463.99)"/><path class="cls-2" d="M888.38,1684.34q-9.6,0-10.42-7.57h-.78a2.18,2.18,0,0,0-2.2,1.11,7.3,7.3,0,0,0-.1,3.84l2,12.76H872l-2-12.36c-.44-2.92-.07-5.21,1.11-6.89s3.27-2.51,6.26-2.51h.86a9.18,9.18,0,0,1,3.31-5.23,10.35,10.35,0,0,1,6.59-2q4.46,0,6.63,2.36a9.35,9.35,0,0,1,2.19,6.61v5.81h3.27v4.06Zm3.51-4.06v-5.19c0-3.69-1.4-5.53-4.18-5.53a4.2,4.2,0,0,0-3.39,1.46,5.65,5.65,0,0,0-1.25,3.8,5.42,5.42,0,0,0,1.43,4.12,6.27,6.27,0,0,0,4.42,1.34Z" transform="translate(-109.98 -1463.99)"/><path class="cls-2" d="M899.61,1684.34v-4.06h5.46V1666h5.15v18.33Zm5.91-22.08a2.51,2.51,0,0,1-1.86.78,2.45,2.45,0,0,1-1.83-.76,2.59,2.59,0,0,1-.74-1.89,2.63,2.63,0,0,1,.74-1.87,2.43,2.43,0,0,1,1.83-.78,2.53,2.53,0,0,1,1.86.76,2.71,2.71,0,0,1,0,3.76Zm6.45,0a2.41,2.41,0,0,1-1.83.78,2.47,2.47,0,0,1-1.84-.76,2.59,2.59,0,0,1-.74-1.89,2.63,2.63,0,0,1,.74-1.87,2.57,2.57,0,0,1,3.67,0,2.76,2.76,0,0,1,0,3.76Z" transform="translate(-109.98 -1463.99)"/><circle class="cls-3" cx="684.4" cy="85.67" r="71.98"/><path class="cls-3" d="M794.38,1633.68a84,84,0,1,1,84-84A84.12,84.12,0,0,1,794.38,1633.68Zm0-164a80,80,0,1,0,80,80A80.11,80.11,0,0,0,794.38,1469.64Z" transform="translate(-109.98 -1463.99)"/><path class="cls-1" d="M820.83,1571.5h0l.06-.27,0-1c-.06-.25-.11-.47-.17-.68a4.85,4.85,0,0,0-1.36-2.12l-8-8-7.78-7.75-2.82-2.22,2.39-2.58.39-.42,5.09-5.09,9.54-9.54a4.22,4.22,0,0,0,1.23-4.83,4.29,4.29,0,0,0-3.06-2.78,4.25,4.25,0,0,0-4,1c-1.65,1.54-3.28,3.2-4.87,4.8-.74.76-1.44,1.46-2.14,2.16q-4,4-8,8l-2.81,3.76-2.59-3.92-7.79-7.8-7.38-7.38a4.37,4.37,0,0,0-3.2-1.5h-.18a4.07,4.07,0,0,0-4,2.62,4.12,4.12,0,0,0,.74,4.72,3.4,3.4,0,0,0,.32.34l15.41,15.41.38.4,2.6,2.75-2.82,2-.33.21q-8.17,8.16-16.41,16.42a4.4,4.4,0,0,0-1,5.25,4.39,4.39,0,0,0,6.81,1.36c.3-.27.59-.55.87-.83L792.1,1558l0-.06.26-.35,2.45-3.15,2.35,3.22.25.36v0l15.75,15.75a4.38,4.38,0,0,0,5.58.8A4.17,4.17,0,0,0,820.83,1571.5Z" transform="translate(-109.98 -1463.99)"/></svg>