<svg width="29" height="29" viewBox="0 0 29 29" fill="none" xmlns="http://www.w3.org/2000/svg">
<g id="Group 10727">
<rect id="Rectangle 5722" x="14.6527" y="1.04666" width="10.8343" height="10.8343" rx="3.39169" stroke="#B8B8B8" stroke-width="1.3"/>
<rect id="Rectangle 5723" x="0.718164" y="1.04666" width="10.8343" height="10.8343" rx="3.39169" stroke="#B8B8B8" stroke-width="1.3"/>
<rect id="Rectangle 5725" x="0.718164" y="14.581" width="10.8343" height="10.8343" rx="3.39169" stroke="#B8B8B8" stroke-width="1.3"/>
<path id="Vector" d="M24.685 25.4307C24.0305 25.9719 23.2735 26.3765 22.459 26.6203C21.6295 26.8685 20.7579 26.9447 19.8978 26.8441C18.6961 26.7162 17.5554 26.2503 16.6086 25.5006C15.6617 24.7507 14.9477 23.7478 14.5499 22.6086C14.1522 21.4694 14.087 20.2408 14.362 19.0661C14.6369 17.8915 15.2406 16.819 16.1028 15.9736C17.2271 14.8565 18.7294 14.1993 20.3145 14.131C21.8997 14.0626 23.4533 14.588 24.6701 15.6043L24.685 25.4307ZM24.685 25.4307L24.6976 25.4495M24.685 25.4307L24.6976 25.4495M24.6976 25.4495C24.7195 25.4871 24.7456 25.5221 24.7753 25.5537L24.7753 25.5538L24.7786 25.5571C25.399 26.1775 25.6327 26.4405 25.8633 26.7L25.871 26.7085C26.1073 26.9745 26.3447 27.2407 26.9793 27.8724C26.9795 27.8727 26.9797 27.8729 26.9799 27.8731L27.1701 28.0671L27.17 28.0672L27.1739 28.0709L27.2633 28.1558L27.2633 28.1558L27.2655 28.1579C27.3754 28.258 27.5184 28.3143 27.6671 28.3159L27.669 28.3159C27.76 28.3158 27.85 28.2957 27.9324 28.257C28.0446 28.2127 28.1402 28.1342 28.2054 28.0326C28.2717 27.9292 28.3031 27.8072 28.295 27.6847L28.295 27.6847L28.2948 27.6822C28.2867 27.5842 28.2578 27.4891 28.21 27.4032C28.164 27.3203 28.1014 27.2478 28.0263 27.19L27.8088 26.9782L26.1689 25.2172L26.169 25.2171L26.1651 25.2132L25.7395 24.7886L25.7388 24.7879L25.5392 24.5916C26.6024 23.2856 27.1105 21.6152 26.9534 19.9388C26.795 18.25 25.9743 16.692 24.6701 15.6043L24.6976 25.4495ZM25.726 20.68H25.7315C25.6849 21.9862 25.1439 23.2286 24.2142 24.1547C23.2488 25.1165 21.9421 25.6596 20.5778 25.6662C20.5777 25.6662 20.5777 25.6662 20.5776 25.6662L20.5445 25.6662C19.5237 25.6645 18.5265 25.3602 17.6793 24.7922C16.8321 24.2241 16.1731 23.4177 15.786 22.4755C15.3989 21.5332 15.301 20.4975 15.5048 19.4997C15.7085 18.5018 16.2047 17.5868 16.9305 16.8707L16.9307 16.8706C17.6543 16.1542 18.5743 15.6677 19.5747 15.4724C20.5751 15.2772 21.6111 15.3819 22.5519 15.7733C23.4927 16.1648 24.2963 16.8255 24.8612 17.672C25.426 18.5186 25.727 19.513 25.7261 20.5299L25.726 20.68Z" fill="#B8B8B8" stroke="#B8B8B8" stroke-width="0.3"/>
</g>
</svg>
