<svg width="24" height="24" viewBox="0 0 24 24" fill="none" xmlns="http://www.w3.org/2000/svg">
<g id="Iconly/Bold/Chat">
<g id="Chat">
<path id="Vector" d="M11.6529 0.347412C18.1849 0.347412 23.1299 5.70295 23.1299 11.8301C23.1299 18.9363 17.3339 23.3474 11.6299 23.3474C9.74388 23.3474 7.65088 22.8407 5.97188 21.8502C5.38538 21.4931 4.89088 21.2282 4.25838 21.4355L1.93538 22.1266C1.34888 22.3109 0.819883 21.8502 0.992383 21.2282L1.76288 18.6484C1.88938 18.2913 1.86638 17.9113 1.68238 17.6118C0.693383 15.7921 0.129883 13.7996 0.129883 11.8647C0.129883 5.8066 4.97138 0.347412 11.6529 0.347412ZM16.9084 10.402C16.0919 10.402 15.4364 11.0585 15.4364 11.8762C15.4364 12.6824 16.0919 13.3504 16.9084 13.3504C17.7249 13.3504 18.3804 12.6824 18.3804 11.8762C18.3804 11.0585 17.7249 10.402 16.9084 10.402ZM11.6069 10.402C10.8019 10.3905 10.1349 11.0585 10.1349 11.8647C10.1349 12.6824 10.7904 13.3389 11.6069 13.3504C12.4234 13.3504 13.0789 12.6824 13.0789 11.8762C13.0789 11.0585 12.4234 10.402 11.6069 10.402ZM6.30538 10.402C5.48888 10.402 4.83338 11.0585 4.83338 11.8762C4.83338 12.6824 5.50038 13.3504 6.30538 13.3504C7.12188 13.3389 7.77738 12.6824 7.77738 11.8762C7.77738 11.0585 7.12188 10.402 6.30538 10.402Z" fill="#DE0F7E"/>
</g>
</g>
</svg>
