<svg width="29" height="29" viewBox="0 0 29 29" fill="none" xmlns="http://www.w3.org/2000/svg">
<g id="Isolation_Mode" clip-path="url(#clip0_1848_1069)">
<path id="Vector" d="M28.4673 14.2324C28.3799 12.3461 27.9043 10.4981 27.0702 8.80388C26.2361 7.10969 25.0616 5.60571 23.6199 4.38604C21.7058 2.68065 19.3416 1.56178 16.8093 1.1626C13.298 0.578397 9.69586 1.34965 6.73173 3.32049C3.76759 5.29133 1.66272 8.31463 0.842997 11.7785C0.691514 12.4208 0.630947 13.0873 0.527939 13.7417C0.527939 13.8205 0.491567 13.8992 0.473389 13.978V15.9472C0.5461 16.4441 0.606684 16.9349 0.691514 17.4257C1.19547 20.2082 2.5276 22.7739 4.5136 24.7869C6.4996 26.7999 9.047 28.1666 11.8225 28.7081C12.2951 28.799 12.7738 28.8353 13.2525 28.908C13.3323 28.9183 13.4113 28.9346 13.4888 28.9565H15.458C15.9489 28.8838 16.4457 28.8354 16.9365 28.7385C18.93 28.3918 20.8232 27.612 22.4826 26.4541C24.142 25.2962 25.5272 23.7883 26.5405 22.0368C27.9705 19.6956 28.6434 16.9701 28.4673 14.2324ZM14.4704 27.0841C12.072 27.0841 9.72756 26.3725 7.73389 25.0393C5.74022 23.7061 4.18697 21.8113 3.27082 19.5948C2.35467 17.3783 2.11682 14.9397 2.58737 12.588C3.05793 10.2362 4.21573 8.07693 5.91418 6.38357C7.61263 4.69021 9.77534 3.539 12.1285 3.07551C14.4817 2.61203 16.9195 2.85716 19.1332 3.77997C21.3469 4.70277 23.2371 6.26168 24.5643 8.25935C25.8915 10.257 26.5962 12.6036 26.589 15.0019C26.5793 18.2139 25.295 21.2907 23.0181 23.5563C20.7412 25.8218 17.6581 27.0906 14.4461 27.0841H14.4704Z" fill="#DE0F7E"/>
<path id="Vector_2" d="M19.6389 17.8981C18.2938 16.8256 16.9547 15.747 15.6035 14.6806C15.5314 14.6286 15.474 14.5589 15.4368 14.4782C15.3997 14.3975 15.384 14.3086 15.3914 14.22C15.3914 12.0387 15.3914 9.85141 15.3914 7.67007C15.3976 7.52369 15.3854 7.37713 15.355 7.23381C15.2934 7.02729 15.1631 6.84799 14.9857 6.72567C14.8083 6.60334 14.5944 6.54527 14.3795 6.56117C14.1501 6.58208 13.9365 6.68708 13.7799 6.856C13.6233 7.02491 13.5347 7.24581 13.5312 7.47613C13.5312 8.72434 13.5312 9.97251 13.5312 11.2207C13.5312 12.4326 13.5312 13.6444 13.5312 14.8563C13.5224 15.0242 13.556 15.1917 13.6291 15.3431C13.7022 15.4946 13.8123 15.6251 13.9493 15.7227L18.4695 19.3583C18.5642 19.451 18.6775 19.5226 18.8019 19.5684C18.9262 19.6141 19.0589 19.633 19.1911 19.6239C19.3233 19.6147 19.4521 19.5777 19.5689 19.5153C19.6858 19.4528 19.7881 19.3663 19.8692 19.2614C19.9463 19.1578 20.0016 19.0397 20.0318 18.9141C20.0621 18.7885 20.0665 18.658 20.045 18.5306C20.0235 18.4033 19.9764 18.2815 19.9067 18.1728C19.8369 18.0641 19.7458 17.9707 19.6389 17.8981Z" fill="#DE0F7E"/>
</g>
<defs>
<clipPath id="clip0_1848_1069">
<rect width="28" height="28" fill="white" transform="translate(0.467285 0.962402)"/>
</clipPath>
</defs>
</svg>
