<svg width="408" height="317" viewBox="0 0 408 317" fill="none" xmlns="http://www.w3.org/2000/svg">
<path d="M153.656 169.016C153.497 168.797 153.297 168.611 153.067 168.469C152.837 168.327 152.581 168.232 152.314 168.189C152.047 168.146 151.774 168.156 151.511 168.219C151.248 168.281 151 168.395 150.781 168.553C146.217 171.852 142.011 175.62 138.232 179.794C137.867 180.184 137.668 180.701 137.677 181.235C137.686 181.769 137.903 182.279 138.281 182.656C138.472 182.847 138.698 182.999 138.948 183.102C139.198 183.205 139.466 183.258 139.736 183.258C140.024 183.258 140.31 183.198 140.573 183.081C140.837 182.964 141.073 182.793 141.266 182.578C144.858 178.609 148.855 175.027 153.194 171.891C153.413 171.732 153.599 171.532 153.74 171.302C153.882 171.072 153.977 170.816 154.02 170.549C154.063 170.282 154.053 170.009 153.99 169.746C153.928 169.483 153.814 169.235 153.656 169.016ZM257.262 182.697C257.657 182.321 257.886 181.804 257.9 181.259C257.914 180.714 257.711 180.185 257.336 179.789C253.562 175.616 249.36 171.85 244.8 168.553C244.357 168.238 243.808 168.11 243.271 168.199C242.735 168.287 242.255 168.584 241.936 169.024C241.618 169.465 241.487 170.014 241.571 170.551C241.656 171.088 241.949 171.57 242.388 171.891C246.724 175.026 250.719 178.608 254.306 182.578C254.499 182.795 254.736 182.968 255.001 183.087C255.266 183.205 255.553 183.266 255.843 183.266C256.371 183.266 256.88 183.062 257.262 182.697ZM272.188 217.202C272.275 217.675 272.526 218.104 272.896 218.412C273.266 218.72 273.732 218.888 274.214 218.888C274.522 218.887 274.826 218.818 275.104 218.685C275.381 218.552 275.625 218.358 275.818 218.118C276.011 217.878 276.148 217.598 276.219 217.298C276.289 216.998 276.291 216.687 276.226 216.386C275.175 211.591 273.685 206.904 271.773 202.383C271.666 202.135 271.51 201.911 271.316 201.723C271.121 201.535 270.892 201.387 270.64 201.288C270.389 201.188 270.12 201.14 269.85 201.144C269.579 201.149 269.312 201.207 269.064 201.314C268.816 201.422 268.592 201.578 268.404 201.772C268.216 201.967 268.068 202.196 267.969 202.448C267.87 202.699 267.821 202.968 267.826 203.238C267.83 203.509 267.888 203.775 267.996 204.024C269.793 208.279 271.196 212.69 272.188 217.202ZM276.014 236.355C275.469 236.323 274.933 236.508 274.525 236.87C274.116 237.233 273.868 237.742 273.835 238.287C273.572 242.692 272.928 247.067 271.91 251.36C271.844 251.625 271.831 251.899 271.872 252.168C271.913 252.438 272.007 252.696 272.149 252.929C272.29 253.161 272.476 253.363 272.697 253.524C272.917 253.684 273.167 253.799 273.431 253.862C273.696 253.925 273.971 253.935 274.24 253.891C274.508 253.847 274.766 253.75 274.997 253.606C275.228 253.462 275.428 253.274 275.586 253.052C275.744 252.83 275.856 252.579 275.916 252.313C276.989 247.788 277.668 243.177 277.946 238.534C277.978 237.989 277.793 237.453 277.431 237.045C277.069 236.636 276.559 236.388 276.014 236.355ZM266.204 269.6C265.679 269.6 265.173 269.8 264.791 270.161C264.637 270.305 264.505 270.474 264.399 270.663C262.051 274.887 259.306 278.876 256.2 282.578C255.858 282.964 255.673 283.465 255.683 283.981C255.692 284.497 255.895 284.99 256.251 285.363C256.443 285.565 256.675 285.726 256.931 285.836C257.187 285.945 257.463 286.002 257.742 286.001C258.043 286.002 258.34 285.936 258.613 285.809C258.886 285.682 259.128 285.497 259.321 285.266C262.593 281.372 265.486 277.174 267.962 272.731C268.152 272.419 268.256 272.062 268.263 271.696C268.27 271.33 268.179 270.97 268 270.651C267.821 270.332 267.56 270.067 267.244 269.882C266.929 269.697 266.569 269.6 266.204 269.6ZM238.958 297.789C226.686 305.684 212.45 309.858 197.788 309.858C183.127 309.858 168.891 305.684 156.618 297.789C156.159 297.497 155.603 297.4 155.072 297.517C154.541 297.634 154.077 297.956 153.783 298.414C153.489 298.871 153.387 299.426 153.501 299.958C153.615 300.49 153.934 300.955 154.39 301.253C167.328 309.576 182.335 313.976 197.788 313.976C213.241 313.976 228.248 309.576 241.186 301.253C241.415 301.107 241.614 300.918 241.769 300.695C241.925 300.473 242.035 300.222 242.094 299.957C242.152 299.692 242.158 299.418 242.11 299.15C242.062 298.883 241.962 298.628 241.815 298.4C241.668 298.171 241.477 297.974 241.254 297.82C241.031 297.666 240.779 297.557 240.513 297.5C240.248 297.443 239.974 297.44 239.707 297.489C239.44 297.539 239.186 297.641 238.958 297.789ZM131.172 270.662C131.076 270.489 130.955 270.331 130.814 270.192C130.456 269.84 129.982 269.63 129.48 269.603C128.979 269.576 128.485 269.733 128.091 270.045C127.697 270.357 127.431 270.802 127.342 271.296C127.253 271.79 127.348 272.3 127.609 272.729C130.089 277.171 132.982 281.37 136.25 285.268C136.289 285.314 136.333 285.362 136.376 285.405C136.567 285.596 136.794 285.748 137.044 285.851C137.293 285.954 137.561 286.008 137.831 286.007C138.102 286.007 138.369 285.954 138.619 285.85C138.869 285.746 139.095 285.594 139.286 285.403C139.652 285.035 139.867 284.544 139.887 284.025C139.906 283.507 139.73 283 139.393 282.606C136.282 278.893 133.529 274.894 131.172 270.662ZM121.739 238.317C121.716 237.787 121.489 237.287 121.106 236.92C120.723 236.554 120.213 236.35 119.682 236.35C119.401 236.35 119.123 236.408 118.866 236.519C118.608 236.631 118.375 236.794 118.183 236.999C117.99 237.203 117.842 237.445 117.746 237.709C117.65 237.973 117.61 238.254 117.627 238.535C117.905 243.178 118.586 247.789 119.66 252.314C119.787 252.845 120.119 253.305 120.584 253.591C121.049 253.877 121.609 253.967 122.14 253.841C122.403 253.778 122.651 253.665 122.87 253.506C123.089 253.348 123.275 253.148 123.417 252.917C123.559 252.687 123.654 252.431 123.696 252.164C123.739 251.897 123.729 251.624 123.666 251.361C122.649 247.077 122.004 242.713 121.739 238.317ZM121.358 218.884C121.835 218.883 122.296 218.718 122.665 218.415C123.033 218.113 123.285 217.692 123.378 217.225C124.375 212.704 125.781 208.283 127.579 204.017C127.689 203.768 127.749 203.499 127.755 203.227C127.76 202.955 127.712 202.685 127.613 202.432C127.513 202.178 127.365 201.947 127.175 201.752C126.986 201.556 126.76 201.4 126.51 201.293C126.26 201.185 125.991 201.128 125.719 201.125C125.447 201.122 125.177 201.173 124.925 201.275C124.672 201.377 124.443 201.527 124.249 201.719C124.056 201.91 123.902 202.138 123.797 202.389C121.89 206.907 120.4 211.591 119.347 216.38C119.28 216.681 119.282 216.994 119.352 217.294C119.422 217.594 119.559 217.874 119.752 218.115C119.945 218.355 120.189 218.549 120.467 218.682C120.745 218.815 121.05 218.884 121.358 218.884Z" fill="#07CC66"/>
<path d="M274.214 216.826C279.065 210.986 285.886 207.099 292.99 205.649C295.173 212.395 294.045 220.331 289.156 227.394C285.778 232.287 281.096 236.031 275.89 238.411C273.575 239.473 271.154 240.264 268.699 240.767C266.512 234.029 267.657 226.081 272.534 219.03C273.059 218.269 273.619 217.534 274.214 216.826Z" fill="#FFD400"/>
<path d="M266.199 271.664C262.929 271.561 259.701 270.984 256.661 269.963C258.156 263.031 263.123 256.734 270.886 253.073C278.658 249.412 287.582 249.173 295.288 251.759C293.801 258.691 288.839 264.988 281.075 268.649C276.364 270.869 271.228 271.828 266.199 271.664Z" fill="#FFEC6C"/>
<path d="M287.364 184.246C289.07 184.246 290.453 182.863 290.453 181.157C290.453 179.451 289.07 178.068 287.364 178.068C285.658 178.068 284.275 179.451 284.275 181.157C284.275 182.863 285.658 184.246 287.364 184.246Z" fill="#5CBEFF"/>
<path d="M285.305 289.266C287.011 289.266 288.394 287.883 288.394 286.177C288.394 284.471 287.011 283.088 285.305 283.088C283.599 283.088 282.216 284.471 282.216 286.177C282.216 287.883 283.599 289.266 285.305 289.266Z" fill="#5CBEFF"/>
<path d="M131.643 122.476C138.467 122.476 143.999 116.944 143.999 110.12C143.999 103.297 138.467 97.7649 131.643 97.7649C124.82 97.7649 119.288 103.297 119.288 110.12C119.288 116.944 124.82 122.476 131.643 122.476Z" fill="#DE0F7E"/>
<path d="M255.833 181.198C257.13 176.223 259.568 171.614 262.822 167.825C268.679 171.824 272.649 178.801 273.11 187.371C273.407 192.915 272.2 198.363 269.877 203.186C268.616 205.809 267.018 208.257 265.124 210.468C259.268 206.473 255.302 199.504 254.84 190.934C254.664 187.618 255.022 184.336 255.833 181.198Z" fill="#FFEC6C"/>
<path d="M257.744 283.941C262.514 285.337 266.908 287.791 270.52 291C266.439 296.79 259.405 300.641 250.826 300.979C247.14 301.119 243.503 300.595 240.073 299.521C235.518 298.1 231.321 295.711 227.849 292.63C231.943 286.84 238.969 282.989 247.556 282.652C251.04 282.52 254.479 282.981 257.744 283.941Z" fill="#FFD400"/>
<path d="M258.535 313.976C260.241 313.976 261.624 312.594 261.624 310.888C261.624 309.182 260.241 307.799 258.535 307.799C256.829 307.799 255.446 309.182 255.446 310.888C255.446 312.594 256.829 313.976 258.535 313.976Z" fill="#5CBEFF"/>
<path d="M248.239 143.061C249.945 143.061 251.328 141.678 251.328 139.972C251.328 138.266 249.945 136.883 248.239 136.883C246.533 136.883 245.15 138.266 245.15 139.972C245.15 141.678 246.533 143.061 248.239 143.061Z" fill="#5CBEFF"/>
<path d="M233.079 148.168C239.421 153.95 243.046 162.105 243.593 170.222C236.624 171.487 228.898 169.304 222.552 163.513C216.21 157.735 212.586 149.576 212.042 141.459C219.007 140.195 226.732 142.382 233.079 148.168Z" fill="#FFD400"/>
<path d="M197.788 176.009C227.355 176.009 251.328 199.978 251.328 229.548C251.328 259.119 227.355 283.088 197.788 283.088C168.218 283.088 144.249 259.119 144.249 229.548C144.249 199.978 168.218 176.009 197.788 176.009Z" fill="#07CC66"/>
<path d="M183.547 141.455C182.991 149.576 179.37 157.731 173.024 163.509C166.677 169.3 158.964 171.487 151.987 170.222C152.531 162.101 156.163 153.946 162.51 148.168C168.856 142.377 176.57 140.191 183.547 141.455ZM137.828 283.945C141.098 282.981 144.541 282.52 148.03 282.652C156.608 282.989 163.642 286.84 167.724 292.631C164.252 295.711 160.059 298.1 155.504 299.521C152.073 300.595 148.437 301.119 144.751 300.979C136.173 300.641 129.138 296.79 125.053 291C128.664 287.796 133.059 285.341 137.828 283.945Z" fill="#FFD400"/>
<path d="M147.337 138.943C149.043 138.943 150.426 137.56 150.426 135.854C150.426 134.148 149.043 132.765 147.337 132.765C145.631 132.765 144.249 134.148 144.249 135.854C144.249 137.56 145.631 138.943 147.337 138.943Z" fill="#5CBEFF"/>
<path d="M143.219 313.976C144.925 313.976 146.308 312.594 146.308 310.888C146.308 309.182 144.925 307.799 143.219 307.799C141.513 307.799 140.13 309.182 140.13 310.888C140.13 312.594 141.513 313.976 143.219 313.976Z" fill="#5CBEFF"/>
<path d="M125.695 203.186C123.376 198.363 122.169 192.915 122.474 187.371C122.935 178.801 126.906 171.824 132.75 167.825C136.007 171.61 138.445 176.223 139.739 181.198C140.554 184.336 140.913 187.618 140.736 190.934C140.274 199.504 136.304 206.473 130.452 210.468C128.574 208.289 126.967 205.83 125.695 203.186ZM129.373 271.663C124.344 271.828 119.212 270.869 114.509 268.649C106.746 264.988 101.783 258.69 100.288 251.759C107.018 249.503 114.666 249.395 121.663 251.837C122.688 252.191 123.697 252.603 124.69 253.073C132.454 256.734 137.416 263.031 138.911 269.963C135.871 270.984 132.643 271.561 129.373 271.663Z" fill="#FFEC6C"/>
<path d="M121.358 216.822C121.952 217.532 122.512 218.269 123.038 219.03C127.927 226.081 129.059 234.029 126.873 240.767C124.394 240.257 121.982 239.467 119.682 238.411C114.481 236.027 109.802 232.282 106.421 227.394C101.54 220.331 100.399 212.395 102.586 205.649C109.699 207.099 116.515 210.986 121.358 216.822Z" fill="#FFD400"/>
<path d="M117.479 299.562C122.025 299.562 125.715 303.248 125.715 307.799C125.715 312.35 122.025 316.036 117.479 316.036C112.928 316.036 109.242 312.35 109.242 307.799C109.242 303.248 112.928 299.562 117.479 299.562Z" fill="#DE0F7E"/>
<path d="M278.525 111.765C283.072 111.765 286.762 115.451 286.762 120.002C286.762 124.553 283.072 128.239 278.525 128.239C273.974 128.239 270.288 124.553 270.288 120.002C270.288 115.451 273.974 111.765 278.525 111.765Z" fill="#DE0F7E"/>
<path d="M112.331 171.89C114.036 171.89 115.419 170.507 115.419 168.801C115.419 167.095 114.036 165.712 112.331 165.712C110.625 165.712 109.242 167.095 109.242 168.801C109.242 170.507 110.625 171.89 112.331 171.89Z" fill="#5CBEFF"/>
<g opacity="0.3">
<rect x="91.7598" y="27.6768" width="11.9768" height="28.7586" transform="rotate(24.5034 91.7598 27.6768)" fill="#FF5C00"/>
<rect x="24.2881" y="27.1836" width="11.9768" height="28.7586" transform="rotate(-11.6504 24.2881 27.1836)" fill="#FF5C00"/>
<rect x="414.525" y="8.90063" width="11.9768" height="28.7586" transform="rotate(35.4004 414.525 8.90063)" fill="#FF5C00"/>
<rect x="362.88" y="201.765" width="14.3439" height="18.3063" transform="rotate(24.5034 362.88 201.765)" fill="#0B40FF"/>
<rect x="13.8804" y="190.765" width="14.3439" height="18.3063" transform="rotate(24.5034 13.8804 190.765)" fill="#0B40FF"/>
<rect x="272.1" y="9.15283" width="18.3063" height="18.3063" transform="rotate(-18.4371 272.1 9.15283)" fill="#FF5C00"/>
<rect x="46.2881" y="240.964" width="10.1158" height="33.9265" transform="rotate(-18.4371 46.2881 240.964)" fill="#02DE25"/>
<rect x="45.8467" y="111.894" width="10.1158" height="26.2473" transform="rotate(60.8555 45.8467 111.894)" fill="#02DE25"/>
<rect x="376.374" y="107.835" width="10.1158" height="26.2473" transform="rotate(107.906 376.374 107.835)" fill="#02DE25"/>
<rect x="318.288" y="157.65" width="12.2847" height="26.6369" transform="rotate(-18.4371 318.288 157.65)" fill="#06C3FF"/>
<rect x="151.387" y="42.687" width="12.2847" height="26.6369" transform="rotate(-18.4371 151.387 42.687)" fill="#06C3FF"/>
<rect x="49.2881" y="166.554" width="18.3063" height="18.3063" transform="rotate(-18.4371 49.2881 166.554)" fill="#00FFF0"/>
<circle cx="344.331" cy="39.8075" r="8.04257" fill="#02DE25"/>
<circle cx="8.15781" cy="100.4" r="8.04257" fill="#06C3FF"/>
<circle cx="306.654" cy="79.1315" r="8.04257" transform="rotate(47.0509 306.654 79.1315)" fill="#06C3FF"/>
<circle cx="226.203" cy="8.80746" r="8.04257" fill="#0B40FF"/>
<circle cx="229.2" cy="85.6056" r="8.04257" fill="#0B40FF"/>
<circle cx="326.331" cy="249.807" r="8.04257" fill="#FF1F00"/>
<path d="M24.7088 168.606C26.5981 168.606 28.1296 167.075 28.1296 165.186C28.1296 163.296 26.5981 161.765 24.7088 161.765C22.8196 161.765 21.2881 163.296 21.2881 165.186C21.2881 167.075 22.8196 168.606 24.7088 168.606Z" fill="#5CBEFF"/>
</g>
<path d="M175.288 232.265L190.288 245.765L219.788 215.765" stroke="white" stroke-width="10"/>
</svg>
