<svg width="50" height="40" viewBox="0 0 50 40" fill="none" xmlns="http://www.w3.org/2000/svg">
<g id="Group 10708">
<path id="Vector" d="M48.5715 14.2742C45.9664 11.0631 43.5892 8.63414 41.0929 6.62465C35.7895 2.36744 30.512 0.347581 24.9497 0.456342C24.7321 0.456342 24.5198 0.451216 24.3075 0.446037C24.0951 0.440858 23.888 0.435669 23.686 0.435669C23.4063 0.435669 23.1836 0.445994 22.9713 0.466711C20.361 0.736023 17.7973 1.57508 15.1353 3.03558C9.99246 5.85301 5.48148 9.90301 1.33821 15.4239C0.530268 16.5012 0.613132 17.9876 1.53501 19.0389C2.03738 19.6138 2.58118 20.2198 3.14053 20.8102C6.9109 24.7566 10.7641 27.5015 14.9178 29.2003C15.9795 29.6353 17.1033 29.9771 18.191 30.3034L18.4085 30.3708C18.7192 30.464 19.0093 30.4433 19.2423 30.3138C19.4598 30.1895 19.6152 29.9616 19.6825 29.6768C19.8017 29.1589 19.4702 28.7134 18.8383 28.5529C16.6735 27.9884 14.5501 27.1183 12.5199 25.953C9.19488 24.0471 6.07707 21.4006 2.99033 17.8633C2.55529 17.3661 2.55529 16.8896 2.98516 16.3614L3.37876 15.8745C4.08312 15.0096 4.8082 14.1137 5.55916 13.2643C8.81163 9.58195 12.235 6.78004 16.0209 4.69805C19.8224 2.61088 23.8776 1.86508 28.0675 2.48657C31.2682 2.95786 34.3445 4.20082 37.4675 6.27763C40.7614 8.47357 43.8533 11.4153 47.1938 15.543C47.9293 16.4494 47.8412 17.682 46.9763 18.5417C46.1218 19.3911 45.2362 20.2301 44.3816 21.0432L44.0087 21.3954C43.6358 21.7528 43.2992 22.2914 43.8119 22.8507C43.988 23.0423 44.2003 23.146 44.4334 23.1511C44.7027 23.1615 44.9824 23.0424 45.2413 22.7989L45.5055 22.5504C46.4481 21.6699 47.4217 20.7584 48.3384 19.821C49.8611 18.2569 49.9647 15.9781 48.5818 14.2742H48.5715Z" fill="#E01E89"/>
<path id="Vector_2" d="M31.5273 21.7424C33.4022 19.9142 34.438 17.4748 34.4483 14.8749C34.4639 9.55599 30.1342 5.20039 24.7997 5.16931H24.7427C19.4704 5.16931 15.1562 9.48347 15.1252 14.792C15.0941 20.0436 19.2995 24.4096 24.4993 24.5236C27.1355 24.5805 29.6318 23.5913 31.5325 21.7424H31.5273ZM23.8468 20.9707C23.8468 21.2555 23.8468 21.5456 23.8468 21.8459V22.5659L23.5671 22.5244C22.3086 22.3483 21.1743 21.8667 20.1023 21.0691L19.8796 20.9034L20.066 20.7014C20.1748 20.5875 20.2784 20.4735 20.3819 20.3596C20.6305 20.0954 20.8584 19.8468 21.0915 19.6086C21.5369 19.1477 21.5783 18.609 21.1951 18.2102C20.817 17.8166 20.2576 17.8373 19.7967 18.2568C19.5999 18.4381 19.3979 18.6246 19.2011 18.811C19.0665 18.9405 18.9318 19.0648 18.7971 19.1943C18.7505 19.2357 18.7039 19.2564 18.647 19.2771C18.6159 19.2875 18.5744 19.3082 18.5175 19.3341L18.2844 19.4377L16.8395 15.7813H17.202C17.3988 15.7813 17.5801 15.7813 17.7458 15.7813C18.0824 15.7813 18.3673 15.7813 18.6573 15.7813C19.2736 15.7709 19.7035 15.3876 19.7035 14.8438C19.7035 14.3207 19.2892 13.9375 18.6987 13.9219C18.4035 13.9116 18.1083 13.9167 17.7976 13.9219C17.6474 13.9219 17.5024 13.9219 17.347 13.9219H17.0622L17.0984 13.6423C17.2538 12.5236 17.6319 11.5396 18.2896 10.54L18.4501 10.2966L18.9991 10.8145C19.2374 11.0372 19.4601 11.2495 19.688 11.4567C20.1437 11.8762 20.703 11.8866 21.0811 11.4826C21.4437 11.0993 21.4074 10.5452 20.9879 10.1153L19.7967 8.88268L20.0091 8.71179C21.0138 7.90385 22.1739 7.40149 23.5619 7.16325L23.8519 7.11659V7.41183C23.8519 7.56203 23.8519 7.70703 23.8519 7.85204C23.8519 8.16279 23.8519 8.45799 23.8519 8.7532C23.8623 9.35397 24.2197 9.7528 24.7686 9.75798C25.0276 9.75798 25.2503 9.68543 25.4108 9.52488C25.5973 9.34361 25.7009 9.07429 25.7061 8.74283C25.7112 8.45798 25.7061 8.17316 25.7061 7.8676C25.7061 7.71222 25.7061 7.56722 25.7061 7.4222V7.13733L25.9857 7.1788C27.265 7.36007 28.4147 7.84689 29.4868 8.66001L29.7095 8.8309L28.4665 10.0998C28.0211 10.5503 27.9797 11.0994 28.3629 11.4981C28.7462 11.8969 29.2952 11.8762 29.7613 11.4515C29.9995 11.234 30.2326 11.0113 30.4605 10.7886L30.476 10.7731C30.5796 10.6747 30.678 10.5762 30.7816 10.483L30.9525 10.3225L31.1234 10.483C31.7293 11.0579 32.3612 12.6116 32.4233 13.6785L32.4389 13.9427H32.1747C32.0349 13.9427 31.8899 13.9427 31.75 13.9427C31.46 13.9427 31.1337 13.9375 30.823 13.9478C30.2585 13.9686 29.8597 14.3415 29.8545 14.8594C29.8441 15.3928 30.2585 15.7916 30.8333 15.8071C31.1337 15.8123 31.4341 15.8123 31.7811 15.8071C31.9572 15.8071 32.1385 15.8071 32.3405 15.8071H32.703L31.2477 19.5723L30.5796 18.9405C30.3362 18.7074 30.129 18.5106 29.9166 18.3138C29.435 17.8736 28.8601 17.8374 28.4769 18.2361C28.0936 18.6349 28.1506 19.2098 28.6167 19.6656C28.8239 19.8676 29.0362 20.0695 29.2641 20.2819C29.3832 20.3958 29.492 20.4994 29.6111 20.6081L29.8182 20.8049L29.5955 20.981C28.5442 21.8149 27.3996 22.3173 25.9909 22.5659L25.7009 22.6176V21.8977C25.7009 21.5973 25.7009 21.3021 25.7009 21.0069C25.6905 20.3803 25.3228 19.9556 24.779 19.9504C24.2455 19.9504 23.8519 20.3906 23.8416 20.9914L23.8468 20.9707Z" fill="#E01E89"/>
<path id="Vector_3" d="M43.6931 27.2529C43.6931 26.9629 43.6879 26.6625 43.6983 26.3673C43.7397 25.3988 43.315 24.7255 42.4709 24.4303C41.6008 24.1247 40.8653 23.9745 40.2128 23.9745C40.1713 23.9745 40.1299 23.9745 40.0885 23.9745C38.6176 24.016 37.1778 24.1714 35.8157 24.4355C31.7346 25.2227 27.9849 26.5952 24.66 28.5062C23.4688 29.1951 22.2465 29.9927 21.4023 31.1787C21.0087 31.7328 20.4908 32.8204 21.4593 33.8562C21.537 33.9339 21.5836 34.022 21.6302 34.1049C21.6457 34.1308 21.6613 34.1566 21.6768 34.1773C23.9504 37.8234 27.7467 39.9054 31.8175 39.9054C32.7393 39.9054 33.6716 39.7967 34.609 39.5791C40.0988 38.2947 43.9158 33.2762 43.6931 27.6465C43.6931 27.5067 43.6931 27.3721 43.6931 27.2426V27.2529ZM41.6888 29.6146C41.5749 31.9089 39.5447 35.845 35.3962 37.4091C34.2724 37.8338 33.0915 38.0462 31.89 38.0462C29.2176 38.0462 26.5607 36.9585 24.9552 35.2131L24.6185 34.8454L25.1157 34.7989C30.9318 34.2758 36.3802 32.4579 41.3159 29.3919L41.7147 29.1433L41.6888 29.6146ZM41.4402 26.8852C41.2382 27.0406 41.0311 27.2011 40.8291 27.3565C39.0578 28.7445 37.0639 29.6508 35.5309 30.293C32.4493 31.5722 29.6371 32.3595 26.9388 32.6961C26.4934 32.7531 26.0065 32.779 25.4006 32.779C25.0795 32.779 24.7584 32.7738 24.4373 32.7634C24.1006 32.7583 23.7226 32.748 23.3548 32.748C23.2668 32.7428 23.2046 32.722 23.1321 32.6961C23.0907 32.6806 23.0441 32.665 22.9716 32.6392L22.578 32.5149L22.8784 32.2249C22.9871 32.1213 23.0855 32.0177 23.1839 31.9193C23.3911 31.7069 23.5879 31.5101 23.8054 31.3392C25.8097 29.7751 28.0678 28.7963 30.0203 28.0453C32.6461 27.0302 35.1062 26.3673 37.5507 26.0151C38.7833 25.8391 40.1144 25.7095 41.4713 25.984L41.5645 26.0048L41.9478 26.5019L41.4506 26.8852H41.4402Z" fill="#E01E89"/>
<path id="Vector_4" d="M26.1356 14.8387C26.1356 14.0722 25.5451 13.487 24.7786 13.487C24.0225 13.487 23.4114 14.0826 23.401 14.8335C23.3906 15.5949 24.038 16.2371 24.7942 16.2268C25.54 16.2164 26.1356 15.6001 26.1356 14.8439V14.8387Z" fill="#E01E89"/>
</g>
</svg>
