<svg id="Layer_1" data-name="Layer 1" xmlns="http://www.w3.org/2000/svg" viewBox="0 0 1100.82 275.96"><defs><style>.cls-1{fill:#fff;}.cls-2{fill:#727272;}.cls-3{fill:#df1e88;}</style></defs><rect class="cls-1" y="1.65" width="1100.82" height="274.31"/><path class="cls-2" d="M987,1682.68q-7.63,0-11-3t-3.34-8.58a17.54,17.54,0,0,1,1-6.12l5.49-.9a15.32,15.32,0,0,0-1.32,6.44q0,4.25,2.16,6.16t7.51,1.91h5.31v-14.28H998v14.28h3.86v4Zm1.06,7.75a2.7,2.7,0,0,1-3.82,0,2.61,2.61,0,0,1-.78-1.92,2.64,2.64,0,0,1,.78-1.89,2.57,2.57,0,0,1,1.91-.8,2.66,2.66,0,0,1,2.69,2.69A2.65,2.65,0,0,1,988,1690.43Z" transform="translate(-109.98 -1463.99)"/><path class="cls-2" d="M1001.22,1682.68v-4h4.84v-23.44h5.14v23.44h3.94v4Z" transform="translate(-109.98 -1463.99)"/><path class="cls-2" d="M1014.52,1682.68v-4h4.76v-23.44h5.15v10.14a35.91,35.91,0,0,1-.43,5.77h0a12,12,0,0,1,4.12-5.32,10,10,0,0,1,5.91-1.93,7.17,7.17,0,0,1,5.93,2.47,10.93,10.93,0,0,1,2,7q0,3-.15,5.34h3.59v4Zm9.87-4h12.13c.12-1.74.19-3.33.19-4.76a9,9,0,0,0-.86-4.39,3,3,0,0,0-2.84-1.5c-2,0-3.81,1.06-5.43,3.18A17.24,17.24,0,0,0,1024.39,1678.63Z" transform="translate(-109.98 -1463.99)"/><path class="cls-2" d="M1044.82,1682.68v-4h4.84v-23.44h5.15v27.49Z" transform="translate(-109.98 -1463.99)"/><path class="cls-2" d="M1061.43,1682.68v-27.49h5.15v27.49Z" transform="translate(-109.98 -1463.99)"/><path class="cls-2" d="M1091.58,1692.63q-5.58,0-8.31-1.91a5.82,5.82,0,0,1-2.73-5,6,6,0,0,1,.57-2.58,7.69,7.69,0,0,1,1.29-2,10.08,10.08,0,0,1,2.14-1.65,26.13,26.13,0,0,1,2.32-1.31c.6-.29,1.47-.69,2.61-1.21-1.06-1-1.87-1.77-2.43-2.26a17.83,17.83,0,0,0-2.36-1.68,12.26,12.26,0,0,0-3-1.36l.43-3.67q6-4.33,11.27-4.33c2.73,0,4.79.61,6.17,1.81a5.86,5.86,0,0,1,2.06,4.59q0,4.2-4.44,7.25a10.22,10.22,0,0,0,4.79,1.25h2.58v4h-3.16a14,14,0,0,1-8.66-2.88,48,48,0,0,0-5.11,2.73,3.53,3.53,0,0,0-1.79,2.73q0,3.35,6.36,3.35c.88,0,1.81,0,2.78-.11a19.37,19.37,0,0,0,2.25-.28l.82-.11.31,3.9A37.76,37.76,0,0,1,1091.58,1692.63Zm-4.72-22.78a8.46,8.46,0,0,1,1.42.69,14.47,14.47,0,0,1,1.47,1c.52.4.93.74,1.25,1s.78.66,1.4,1.22l1.25,1.12c1.9-1.25,2.84-2.62,2.84-4.1a3.11,3.11,0,0,0-1-2.36,3.84,3.84,0,0,0-2.75-.92Q1090.38,1667.51,1086.86,1669.85Z" transform="translate(-109.98 -1463.99)"/><path class="cls-2" d="M1131.4,1673.29a72.29,72.29,0,0,1-.55,9.39h-26.91v-4h4.76v-14.28h5.15v1a34.8,34.8,0,0,1-.43,5.77h0a12.06,12.06,0,0,1,4.11-5.32,10,10,0,0,1,5.91-1.93,7.15,7.15,0,0,1,5.93,2.47A10.87,10.87,0,0,1,1131.4,1673.29Zm-5.26.58a9,9,0,0,0-.86-4.39,3,3,0,0,0-2.85-1.5q-3,0-5.42,3.18a17.25,17.25,0,0,0-3.2,7.47h12.13C1126.07,1676.89,1126.14,1675.3,1126.14,1673.87Zm-3.32-12.79a2.66,2.66,0,0,1-2.69-2.69,2.53,2.53,0,0,1,.8-1.91,2.68,2.68,0,0,1,3.78,0,2.68,2.68,0,0,1,0,3.82A2.61,2.61,0,0,1,1122.82,1661.08Z" transform="translate(-109.98 -1463.99)"/><path class="cls-2" d="M1141.66,1692.51c-.86,0-1.79,0-2.77-.11a22.85,22.85,0,0,1-2.34-.28l-.82-.11.31-4.22a28,28,0,0,0,6.08.67q6.75,0,6.75-5.19v-.59h-3q-10.45,0-10.45-9a9.77,9.77,0,0,1,2.63-7c1.75-1.88,4.32-2.81,7.7-2.81a25.7,25.7,0,0,1,4.08.33,20.33,20.33,0,0,1,3.06.68l1,.35v17.55a9,9,0,0,1-3,7Q1147.86,1692.52,1141.66,1692.51Zm7.21-13.88v-10a8.59,8.59,0,0,0-3.7-.71,4.23,4.23,0,0,0-3.4,1.47,5.65,5.65,0,0,0-1.25,3.8q0,5.46,5.86,5.46Z" transform="translate(-109.98 -1463.99)"/><path class="cls-2" d="M1186.47,1682.68q-9.6,0-10.42-7.56h-.78a2.19,2.19,0,0,0-2.2,1.11,7.29,7.29,0,0,0-.1,3.84l2,12.75h-5l-2-12.36q-.66-4.37,1.11-6.88t6.26-2.52h.86a9.13,9.13,0,0,1,3.31-5.22,10.35,10.35,0,0,1,6.59-2c3,0,5.18.78,6.63,2.36a9.33,9.33,0,0,1,2.19,6.61v5.81h3.27v4Zm3.51-4v-5.19q0-5.54-4.18-5.54a4.21,4.21,0,0,0-3.39,1.47,5.65,5.65,0,0,0-1.25,3.8,5.4,5.4,0,0,0,1.43,4.11,6.24,6.24,0,0,0,4.42,1.35Z" transform="translate(-109.98 -1463.99)"/><path class="cls-2" d="M1197.7,1682.68v-4h5.46v-14.28h5.15v18.33Zm5.91-22.07a2.51,2.51,0,0,1-1.86.78,2.46,2.46,0,0,1-1.83-.76,2.76,2.76,0,0,1,0-3.76,2.44,2.44,0,0,1,1.83-.78,2.53,2.53,0,0,1,1.86.76,2.57,2.57,0,0,1,.76,1.89A2.61,2.61,0,0,1,1203.61,1660.61Zm6.45,0a2.56,2.56,0,0,1-3.66,0,2.73,2.73,0,0,1,0-3.76,2.56,2.56,0,0,1,3.66,0,2.55,2.55,0,0,1,.74,1.89A2.59,2.59,0,0,1,1210.06,1660.61Z" transform="translate(-109.98 -1463.99)"/><circle class="cls-3" cx="983.08" cy="84.02" r="71.98"/><path class="cls-1" d="M1124.57,1526.3a7.89,7.89,0,0,0-6.76-7.75,57.37,57.37,0,0,0-5.87-.17c-.85,0-1.7,0-2.63,0,0-1.05,0-2,0-3a1.49,1.49,0,0,0-1.26-1.64,4.86,4.86,0,0,0-1.32-.14c-1.56,0-3.13,0-4.7,0a1,1,0,0,1-.73-.47c-1.62-3.62-4.53-5.21-8.36-5.24a8.47,8.47,0,0,0-8.26,5.24.77.77,0,0,1-.84.5c-1.67,0-3.35,0-5,0-1.48,0-2,.61-2,2.08v2.66c-2.5,0-4.88,0-7.25,0a8.07,8.07,0,0,0-8,8.14q0,27,0,54a7.05,7.05,0,0,0,4.55,6.85,21.11,21.11,0,0,0,2.37.76h49.21a5.69,5.69,0,0,1,.59-.16,7.42,7.42,0,0,0,6.31-7.13Q1124.59,1553.56,1124.57,1526.3Zm-43.85-8.86h4.64a2.13,2.13,0,0,0,2.38-1.81,5.48,5.48,0,0,1,4.82-4.17,5.36,5.36,0,0,1,5.5,4c.44,1.57,1,2,2.62,2h4.76V1525h-24.72Zm40.06,62.92a3.62,3.62,0,0,1-3.26,3.84,8.51,8.51,0,0,1-1.33.1h-46.3a5.25,5.25,0,0,1-3.05-.83,3.18,3.18,0,0,1-1.49-2.69c0-.21,0-.42,0-.63V1527c0-3,1.72-4.76,4.76-4.76,2.14,0,4.28,0,6.42,0a1.45,1.45,0,0,1,.28.09v4.14c0,1.71.73,2.44,2.43,2.44h27.57c1.76,0,2.5-.77,2.5-2.55l0-3.92s.05-.09.12-.21h2c1.6,0,3.19,0,4.78,0a4.29,4.29,0,0,1,4.49,4.56Z" transform="translate(-109.98 -1463.99)"/><path class="cls-1" d="M1112.85,1539.4h-19.8c-.68,0-1.36,0-2,0a1.85,1.85,0,0,0-1.74,1.86,1.83,1.83,0,0,0,1.69,1.91,6.12,6.12,0,0,0,.86,0h20.66a6.77,6.77,0,0,0,1-.07,1.88,1.88,0,0,0,1.47-2.36A2,2,0,0,0,1112.85,1539.4Z" transform="translate(-109.98 -1463.99)"/><path class="cls-1" d="M1113.76,1570.11a3.7,3.7,0,0,0-1.15-.14h-20.9a4.27,4.27,0,0,0-1,.09,1.81,1.81,0,0,0-1.43,1.89,1.83,1.83,0,0,0,1.54,1.8,5.86,5.86,0,0,0,.94.06h20.82a4.93,4.93,0,0,0,1-.09,1.88,1.88,0,0,0,.18-3.6Z" transform="translate(-109.98 -1463.99)"/><path class="cls-1" d="M1112.89,1554.7H1099c-2.55,0-5.11,0-7.67,0a1.84,1.84,0,0,0-2,2c0,1.13.87,1.81,2.2,1.81H1112c.41,0,.83,0,1.25,0a1.89,1.89,0,0,0,1.77-2.22A1.92,1.92,0,0,0,1112.89,1554.7Z" transform="translate(-109.98 -1463.99)"/><path class="cls-1" d="M1075.6,1560.33a1.8,1.8,0,0,0,2.55.08c.36-.3.69-.63,1-1q3.22-3.06,6.46-6.14a1.76,1.76,0,0,0,.41-2.27,1.85,1.85,0,0,0-2.1-1,3.11,3.11,0,0,0-1.24.75c-1.93,1.8-3.82,3.62-5.72,5.43-.49-.46-.92-.84-1.32-1.24s-.83-.87-1.26-1.29a1.9,1.9,0,0,0-2.73-.17,2,2,0,0,0,0,2.76Q1073.61,1558.36,1075.6,1560.33Z" transform="translate(-109.98 -1463.99)"/><path class="cls-1" d="M1075.6,1545a1.7,1.7,0,0,0,2.52.1q3.84-3.57,7.61-7.21a1.82,1.82,0,0,0-.48-3,1.9,1.9,0,0,0-2.42.44c-1.95,1.84-3.89,3.7-5.84,5.56-.11,0-.14,0-.16-.06-.78-.8-1.56-1.61-2.35-2.4a1.9,1.9,0,1,0-2.71,2.62C1073,1542.44,1074.3,1543.74,1075.6,1545Z" transform="translate(-109.98 -1463.99)"/><path class="cls-1" d="M1085.49,1565.68a1.89,1.89,0,0,0-2.62.25l-5.81,5.53c-.9-.83-1.74-1.58-2.54-2.36a1.91,1.91,0,1,0-2.74,2.61c1.24,1.3,2.51,2.58,3.78,3.86a1.74,1.74,0,0,0,2.58.12q3.84-3.57,7.61-7.22A1.78,1.78,0,0,0,1085.49,1565.68Z" transform="translate(-109.98 -1463.99)"/><path class="cls-3" d="M1093.06,1632a84,84,0,1,1,84-84A84.11,84.11,0,0,1,1093.06,1632Zm0-164a80,80,0,1,0,80,80A80.11,80.11,0,0,0,1093.06,1468Z" transform="translate(-109.98 -1463.99)"/><rect class="cls-3" x="766.26" y="81.31" width="132.8" height="6.68"/><path class="cls-2" d="M706.14,1680.84v-24.92h5.15v23.44H715v4.05h-3.9q-1.25,9-10.26,9-10.05,0-10.06-11.07a25.83,25.83,0,0,1,.94-7l5.3-1a27.69,27.69,0,0,0-1.09,7.49q0,7.53,5.34,7.53Q706.14,1688.37,706.14,1680.84Z" transform="translate(-109.98 -1463.99)"/><path class="cls-2" d="M714.37,1683.41v-4.05h15.09a23.94,23.94,0,0,0,.19-3q0-3.83-1.77-5.65c-1.18-1.22-3.14-1.84-5.87-1.84a33,33,0,0,0-4.48.32v-4a40.09,40.09,0,0,1,5-.35q6.43,0,9.34,2.81c1.94,1.87,2.9,4.72,2.9,8.54a44.35,44.35,0,0,1-.66,7.21Zm11.15,7.74a2.55,2.55,0,0,1-1.91.8,2.7,2.7,0,1,1,1.91-.8Z" transform="translate(-109.98 -1463.99)"/><path class="cls-2" d="M744.67,1693.24c-.86,0-1.78,0-2.77-.12a23.33,23.33,0,0,1-2.34-.27l-.82-.12.31-4.21a28.67,28.67,0,0,0,6.09.66c4.5,0,6.75-1.72,6.75-5.18v-.59h-3q-10.44,0-10.45-9.05a9.85,9.85,0,0,1,2.63-7q2.64-2.81,7.71-2.8a25.48,25.48,0,0,1,4.07.33,19.76,19.76,0,0,1,3.06.68l1,.35v13.42h3.86v4.05h-3.86v.08a9,9,0,0,1-3,7Q750.87,1693.25,744.67,1693.24Zm-1.56-31.43v-2.93a10.8,10.8,0,0,1,2.18.16,1.52,1.52,0,0,1-.74-1.52,4,4,0,0,1,1.41-3.1,6.13,6.13,0,0,1,4.25-1.27,16.66,16.66,0,0,1,2.3.19l-.47,2.93a9.93,9.93,0,0,0-1.95-.2c-1.25,0-1.87.45-1.87,1.33s.9,1.48,2.69,1.48h2.22v2.93Zm8.78,17.55v-10a8.8,8.8,0,0,0-3.71-.7,4.23,4.23,0,0,0-3.39,1.46,5.69,5.69,0,0,0-1.25,3.81q0,5.46,5.85,5.46Z" transform="translate(-109.98 -1463.99)"/><path class="cls-2" d="M782.77,1683.41h-8.89q-6.2,0-8-3a5.23,5.23,0,0,1-5.15,3h-.59v-4.05h.78a2.48,2.48,0,0,0,2.21-1.06,6.71,6.71,0,0,0,.72-3.62,10.33,10.33,0,0,1,2.61-7.24,9.42,9.42,0,0,1,7.33-2.86q4.57,0,6.79,2.43a9.82,9.82,0,0,1,2.22,6.85Zm-5-4.05v-4.92q0-5.81-4.33-5.81a4,4,0,0,0-3.31,1.52,6.33,6.33,0,0,0-1.21,4.06,5.24,5.24,0,0,0,1.27,3.9c.84.83,2.25,1.25,4.23,1.25Z" transform="translate(-109.98 -1463.99)"/><path class="cls-2" d="M811.24,1683.41c-5.1,0-8.75-1-11-3s-3.33-4.84-3.33-8.58a17.78,17.78,0,0,1,1-6.12l5.5-.9a15.28,15.28,0,0,0-1.32,6.43c0,2.84.72,4.89,2.16,6.17s3.94,1.91,7.51,1.91h5.3v-14.28h5.15v14.28h3.86v4.05Zm1.06,7.74a2.57,2.57,0,0,1-1.92.8,2.69,2.69,0,1,1,1.92-4.6,2.73,2.73,0,0,1,0,3.8Z" transform="translate(-109.98 -1463.99)"/><path class="cls-2" d="M825.48,1683.41v-4.05h4.83v-23.44h5.15v23.44h3.94v4.05Z" transform="translate(-109.98 -1463.99)"/><path class="cls-2" d="M838.77,1683.41v-4.05h4.76v-23.44h5.15v10.14a34.88,34.88,0,0,1-.43,5.77h0a12,12,0,0,1,4.11-5.32,10,10,0,0,1,5.91-1.93,7.15,7.15,0,0,1,5.93,2.47q2,2.48,2,7c0,2-.05,3.79-.16,5.35h3.59v4.05Zm9.87-4.05h12.13c.13-1.75.2-3.33.2-4.76a9,9,0,0,0-.86-4.39,3,3,0,0,0-2.85-1.5q-3,0-5.42,3.18A17.25,17.25,0,0,0,848.64,1679.36Z" transform="translate(-109.98 -1463.99)"/><path class="cls-2" d="M869.08,1683.41v-4.05h4.83v-23.44h5.15v27.49Z" transform="translate(-109.98 -1463.99)"/><path class="cls-2" d="M885.69,1683.41v-27.49h5.15v27.49Z" transform="translate(-109.98 -1463.99)"/><path class="cls-3" d="M793.24,1631.73a83,83,0,1,1,83-83A83.09,83.09,0,0,1,793.24,1631.73Zm0-162a79,79,0,1,0,79,79A79.09,79.09,0,0,0,793.24,1469.73Z" transform="translate(-109.98 -1463.99)"/><circle class="cls-3" cx="683.26" cy="84.75" r="71.98"/><path class="cls-1" d="M838.24,1587.75l-.33,1a7,7,0,0,1-6.62,5q-16.2,0-32.42,0a7.06,7.06,0,0,1-7-8.7c0-.14.06-.28.12-.52h-.71a40.42,40.42,0,0,1-36.57-62.27,1.77,1.77,0,1,1,2.94,1.91,35,35,0,0,0-5.25,13.19c-2.17,12.8,1.28,23.9,10.4,33.12a35.63,35.63,0,0,0,20.36,10.22,33.69,33.69,0,0,0,10.32.07,1.08,1.08,0,0,0,.71-.38c1.11-1.85,2.18-3.73,3.35-5.76-1,.22-1.81.41-2.64.58a31.65,31.65,0,1,1,24.32-23,1,1,0,0,0,.33,1.12,11.4,11.4,0,0,1,1.55,1.89c.56.84,1,1.76,1.55,2.64,0,0,.1.06.19.11a33.52,33.52,0,0,0,2.32-8.49A36.94,36.94,0,0,0,768.87,1513a3.23,3.23,0,0,1-1.45.53,1.56,1.56,0,0,1-1.61-1.23,1.63,1.63,0,0,1,.83-2c2.26-1.23,4.49-2.52,6.84-3.55a36,36,0,0,1,12-2.87,3.16,3.16,0,0,0,.59-.14h5.09a7,7,0,0,0,.77.15,37.59,37.59,0,0,1,8.86,1.68,40.43,40.43,0,0,1,24.59,55.51,1.53,1.53,0,0,0,.1,1.6c3.54,6.1,7.09,12.19,10.58,18.31.84,1.49,1.47,3.1,2.2,4.65Zm-72.92-28a28,28,0,0,0,7.76,7.76c1.44-1.93,2.08-2.29,3.06-1.66.32.21.75.61.74.91a18.88,18.88,0,0,1-.44,2.68,27.21,27.21,0,0,0,10.48,2.74c0-1.07,0-2.09,0-3.1,0-1.28.68-2.08,1.75-2.09s1.75.8,1.76,2.08c0,1,0,2,0,3.11a26.22,26.22,0,0,0,9.23-2.19,2.44,2.44,0,0,0,1.07-.94c2.62-4.47,5.23-8.94,7.77-13.45a7.33,7.33,0,0,1,6.76-4.09.8.8,0,0,0,.62-.39c.35-1.7.64-3.41,1-5.22h-3.2c-1.3,0-2.1-.65-2.13-1.72s.8-1.79,2.13-1.79h3.07a27.43,27.43,0,0,0-2.86-10.68c-2.09,1-2.89,1-3.45,0-.19-.33-.38-.9-.23-1.14a20.34,20.34,0,0,1,1.74-2.16,27.79,27.79,0,0,0-7.66-7.58c-1.34,1.9-2,2.29-3,1.69-.35-.21-.81-.64-.8-1a18.5,18.5,0,0,1,.46-2.69,28.17,28.17,0,0,0-24.71.1c1,2.17,1,2.92,0,3.49-.34.19-.9.39-1.15.24a21.4,21.4,0,0,1-2.16-1.74,27.61,27.61,0,0,0-7.58,7.65c1.89,1.33,2.29,2,1.69,3-.2.35-.64.81-1,.8a17,17,0,0,1-2.66-.45,26.94,26.94,0,0,0-2.74,10.39,2.13,2.13,0,0,0,.21.09l2.9,0c1.27,0,2.07.69,2.07,1.76s-.81,1.74-2.09,1.75h-3.1a27,27,0,0,0,2.87,10.71c1.92-1,2.8-1,3.43,0S767.26,1558.32,765.32,1559.77ZM815,1590.2h16a3.55,3.55,0,0,0,3.06-1.42,3.62,3.62,0,0,0,0-4.27q-7.89-13.62-15.76-27.26c-1.72-3-4.92-3-6.64,0q-7.85,13.56-15.66,27.12c-1.74,3-.13,5.81,3.35,5.81Z" transform="translate(-109.98 -1463.99)"/><path class="cls-1" d="M763.07,1516.81a1.71,1.71,0,0,1-1.69,1.75,1.74,1.74,0,0,1-1.78-1.68,1.77,1.77,0,0,1,1.75-1.81A1.72,1.72,0,0,1,763.07,1516.81Z" transform="translate(-109.98 -1463.99)"/><path class="cls-1" d="M790.44,1529.6c0,2.66,0,5.33,0,8a.83.83,0,0,0,.58.91,6.12,6.12,0,0,1,3.78,6.39,6.19,6.19,0,0,1-5.35,5.38,6.11,6.11,0,0,1-6.41-3.75.86.86,0,0,0-1-.61q-3.82,0-7.65,0a1.76,1.76,0,0,1-1.89-1.76,1.78,1.78,0,0,1,1.91-1.74H775c2.35,0,4.69,0,7,0a.85.85,0,0,0,1-.62,5.59,5.59,0,0,1,3.25-3.26.92.92,0,0,0,.65-1q0-7.82,0-15.63a5.11,5.11,0,0,1,0-.88,1.75,1.75,0,0,1,3.47.45C790.45,1524.15,790.44,1526.88,790.44,1529.6Zm.87,14.59a2.63,2.63,0,1,0-2.64,2.6A2.66,2.66,0,0,0,791.31,1544.19Z" transform="translate(-109.98 -1463.99)"/><path class="cls-1" d="M816.75,1570.47c0,1.55,0,3.1,0,4.66a1.76,1.76,0,0,1-2.12,1.85,1.62,1.62,0,0,1-1.36-1.62c0-3.28,0-6.56,0-9.84a1.68,1.68,0,0,1,1.69-1.67,1.74,1.74,0,0,1,1.78,1.79c0,1.61,0,3.22,0,4.83Z" transform="translate(-109.98 -1463.99)"/><path class="cls-1" d="M813.25,1583.1a1.73,1.73,0,0,1,1.78-1.68,1.75,1.75,0,1,1-.14,3.5A1.73,1.73,0,0,1,813.25,1583.1Z" transform="translate(-109.98 -1463.99)"/></svg>