<svg width="20" height="25" viewBox="0 0 20 25" fill="none" xmlns="http://www.w3.org/2000/svg">
<g id="Group 48580">
<path id="Vector" d="M19.7292 4.81635C19.5734 4.41092 19.2949 4.065 18.9329 3.82754C18.5709 3.59008 18.1439 3.47311 17.7122 3.49315C16.8996 3.49315 16.087 3.49315 15.2937 3.49315H15.0325V2.89476C15.0422 2.60416 14.9937 2.31458 14.89 2.04318C14.7862 1.77179 14.6293 1.52412 14.4286 1.31492C14.2278 1.10572 13.9872 0.939246 13.7212 0.825384C13.4552 0.711521 13.1691 0.652587 12.88 0.6521C11.25 0.6521 9.61986 0.6521 7.98979 0.6521C7.68088 0.658998 7.37655 0.728482 7.09496 0.856412C6.71032 1.02733 6.38589 1.31101 6.16411 1.67034C5.94232 2.02966 5.8335 2.44792 5.85185 2.87044C5.85185 3.0699 5.85185 3.27422 5.85185 3.48341H3.36078C3.17697 3.48341 2.99803 3.48341 2.81422 3.51747C2.35091 3.56982 1.91873 3.77792 1.58767 4.10807C1.25661 4.43823 1.04604 4.87111 0.990072 5.33662C0.934105 5.80213 1.036 6.27301 1.27928 6.67301C1.52255 7.07302 1.89297 7.37874 2.33052 7.54065C2.39885 7.55476 2.45892 7.59528 2.49783 7.65351C2.53673 7.71175 2.55135 7.78302 2.53851 7.85198C2.53851 11.1827 2.53851 14.5135 2.53851 17.8443C2.53851 18.9875 2.53851 20.1356 2.53851 21.2788C2.5304 21.773 2.65566 22.2602 2.90096 22.6885C3.14626 23.1168 3.50243 23.4703 3.93157 23.7112C4.24253 23.8643 4.56623 23.9896 4.89897 24.0858H15.9564C16.3863 24.0069 16.796 23.8415 17.1608 23.5993C17.5523 23.3072 17.8664 22.9229 18.0756 22.4801C18.2848 22.0373 18.3825 21.5496 18.3603 21.0599C18.3603 16.6783 18.3603 12.3 18.3603 7.92496C18.3459 7.84578 18.3625 7.76404 18.4067 7.69692C18.4509 7.6298 18.5192 7.58252 18.5973 7.56497C18.8542 7.46324 19.0881 7.31053 19.285 7.11593C19.4819 6.92134 19.6378 6.68884 19.7434 6.43233C19.8491 6.17581 19.9023 5.90052 19.8998 5.62289C19.8974 5.34525 19.8393 5.07095 19.7292 4.81635ZM6.97888 2.53477C7.02906 2.30796 7.15568 2.10558 7.33728 1.96195C7.51889 1.81831 7.7443 1.74225 7.9753 1.74668C9.6102 1.74668 11.2499 1.74668 12.8848 1.74668C13.0182 1.74539 13.1504 1.77077 13.2739 1.82135C13.3974 1.87193 13.5097 1.94671 13.6042 2.04131C13.6988 2.13592 13.7736 2.24847 13.8245 2.37244C13.8754 2.49641 13.9013 2.62932 13.9006 2.76343C13.9006 2.99207 13.9006 3.22073 13.9006 3.46883H6.90631C6.90993 3.15655 6.93093 2.84469 6.96919 2.53477H6.97888ZM17.243 7.94928V20.9674C17.2634 21.3871 17.1645 21.804 16.9576 22.1691C16.8115 22.4232 16.599 22.6323 16.3433 22.7737C16.0875 22.9152 15.7982 22.9837 15.5065 22.9717C12.1109 22.9717 8.71375 22.9717 5.31495 22.9717C4.31369 22.9717 3.63651 22.2274 3.59297 21.1183V7.68172H17.2333L17.243 7.94928ZM18.7618 5.73581C18.7293 5.95499 18.6233 6.15643 18.4615 6.30682C18.2997 6.4572 18.0916 6.54752 17.8718 6.56283H17.5767H3.21567C3.05296 6.56996 2.89006 6.55356 2.73197 6.51416C2.52169 6.4457 2.34106 6.3069 2.22014 6.12083C2.09921 5.93475 2.04528 5.71263 2.06733 5.49144C2.08938 5.27025 2.18608 5.06333 2.34133 4.90511C2.49658 4.74688 2.70101 4.64689 2.92062 4.62178C3.03187 4.62178 3.14797 4.62178 3.25922 4.62178H17.5429C17.7051 4.61595 17.8674 4.62899 18.0266 4.66068C18.2598 4.71643 18.4641 4.85728 18.6 5.05591C18.7358 5.25455 18.7935 5.49684 18.7618 5.73581Z" fill="#DE0F7E"/>
<path id="Vector_2" d="M13.6055 20.5928C13.7276 20.6021 13.849 20.5677 13.9481 20.4955C14.0473 20.4234 14.1179 20.3182 14.1473 20.1987C14.1747 20.0808 14.1877 19.9599 14.1859 19.8387C14.1859 18.1847 14.1859 16.5307 14.1859 14.8767C14.1859 13.2129 14.1859 11.554 14.1859 9.89025C14.1877 9.76912 14.1747 9.64822 14.1473 9.53026C14.1165 9.41586 14.0491 9.31484 13.9556 9.24275C13.862 9.17066 13.7475 9.1315 13.6297 9.13135C13.5069 9.134 13.3886 9.17816 13.2938 9.25671C13.1991 9.33526 13.1334 9.44362 13.1073 9.56432C13.0977 9.67763 13.0977 9.79156 13.1073 9.90486V19.8436C13.0977 19.9504 13.0977 20.0579 13.1073 20.1647C13.1293 20.2825 13.1907 20.3892 13.2814 20.4671C13.372 20.5449 13.4864 20.5893 13.6055 20.5928Z" fill="#DE0F7E"/>
<path id="Vector_3" d="M9.8718 19.8436C9.86456 19.9424 9.86456 20.0415 9.8718 20.1403C9.88895 20.2604 9.94617 20.3711 10.0341 20.4541C10.1219 20.5372 10.2353 20.5878 10.3555 20.5976C10.4772 20.6101 10.5993 20.5788 10.7002 20.5094C10.8012 20.4399 10.8744 20.3368 10.9069 20.2182C10.9347 20.1069 10.9477 19.9924 10.9456 19.8776V9.86103C10.9485 9.73955 10.9338 9.6183 10.9021 9.50104C10.8755 9.42135 10.8307 9.34906 10.7712 9.29005C10.7116 9.23104 10.6391 9.18695 10.5595 9.16136C10.4799 9.13578 10.3954 9.12943 10.3129 9.14281C10.2304 9.15618 10.1522 9.18892 10.0846 9.23836C9.99817 9.30663 9.93086 9.39635 9.88931 9.4987C9.84775 9.60105 9.83339 9.71251 9.84762 9.82214C9.84762 11.5054 9.84762 13.1934 9.84762 14.8766L9.8718 19.8436Z" fill="#DE0F7E"/>
<path id="Vector_4" d="M6.69408 20.2377C6.72156 20.3334 6.77758 20.4183 6.85456 20.481C6.93155 20.5436 7.0258 20.581 7.12458 20.588C7.21862 20.6019 7.31465 20.5877 7.40068 20.547C7.4867 20.5063 7.55891 20.4411 7.60828 20.3594C7.67553 20.2182 7.71027 20.0635 7.70987 19.9069C7.70987 18.2189 7.70987 16.5356 7.70987 14.8524V9.89033C7.71719 9.79155 7.71719 9.69237 7.70987 9.59359C7.69988 9.52359 7.67604 9.4563 7.63981 9.39569C7.60358 9.33508 7.55566 9.28237 7.49887 9.24067C7.44208 9.19896 7.37759 9.16912 7.30915 9.15287C7.24072 9.13661 7.16974 9.13429 7.1004 9.14604C6.78599 9.19469 6.6167 9.4136 6.6167 9.81738C6.6167 13.1838 6.6167 16.5518 6.6167 19.9215C6.62465 20.0305 6.6508 20.1375 6.69408 20.2377Z" fill="#DE0F7E"/>
</g>
</svg>
