<svg width="44" height="28" viewBox="0 0 44 28" fill="none" xmlns="http://www.w3.org/2000/svg">
<g id="Group 10798">
<path id="Vector" d="M32.8117 8.75813H28.6774C28.2638 8.75813 27.9574 8.47652 27.9381 8.11603C27.9225 7.82984 28.3298 7.42899 28.6774 7.43449C30.1864 7.45926 31.6972 7.43449 33.2079 7.45008C33.6574 7.45008 33.9867 7.70142 34.1903 8.09218C34.2665 8.2655 34.3305 8.44388 34.382 8.62604L34.3243 8.68475H34.6462C36.19 8.68475 37.7347 8.66824 39.2785 8.69209C39.9316 8.70218 40.4224 9.05074 40.7196 9.63414C40.7921 9.79102 40.8288 9.96212 40.8269 10.135C40.8425 11.7375 40.8434 13.3409 40.8572 14.9443C40.8661 15.238 40.8906 15.531 40.9305 15.8221C40.936 15.8735 41.0012 15.9285 41.0525 15.9625C41.4442 16.2267 41.846 16.478 42.2331 16.7514C42.5737 16.9917 42.9048 17.2448 43.2265 17.5109C43.3149 17.589 43.3854 17.6854 43.4329 17.7934C43.4804 17.9014 43.5039 18.0185 43.5017 18.1364C43.5416 18.7224 43.4449 19.3096 43.2192 19.8518C43.0871 20.1627 43.0357 20.5085 42.944 20.8351C42.8146 21.28 42.6752 21.7203 42.5431 22.1642C42.4881 22.3477 42.4321 22.5367 42.3945 22.7275C42.2111 23.6631 41.7075 24.3355 40.8287 24.7336C40.5205 24.8739 40.2141 24.9748 39.8793 24.928C39.6041 24.8895 39.5858 25.139 39.506 25.2738C39.0529 26.0352 38.4053 26.5672 37.6375 26.9873C36.9651 27.3542 36.2524 27.3937 35.5112 27.4065C34.6187 27.423 33.9573 27.0204 33.418 26.3838C33.2628 26.2065 33.1453 25.9996 33.0726 25.7755C32.9999 25.5514 32.9735 25.3149 32.9951 25.0803C32.9933 25.0348 32.9865 24.9895 32.9749 24.9455C32.8832 24.9409 32.7988 24.9335 32.7153 24.9335C28.1589 24.9335 23.603 24.9311 19.0478 24.9262C18.9585 24.9169 18.8686 24.9373 18.792 24.9843C18.7154 25.0312 18.6564 25.102 18.624 25.1858C18.2571 25.9114 17.6884 26.4434 16.9857 26.8286C16.6381 27.0194 16.2758 27.2231 15.896 27.3029C15.4374 27.3992 14.9521 27.3726 14.4788 27.3946C13.7395 27.4304 13.1579 27.08 12.6708 26.5801C12.3525 26.2526 12.0874 25.871 12.0939 25.3674C12.0939 25.2372 12.015 25.106 11.9627 24.9455C11.9021 24.9455 11.8196 24.9344 11.737 24.9344H9.40713C8.85676 24.9344 8.50269 24.6189 8.27979 24.1236C8.13853 23.8108 8.30089 23.586 8.33299 23.3255C8.37341 23.081 8.43479 22.8404 8.51645 22.6064C8.57149 22.4229 8.65863 22.2523 8.72008 22.0716C8.77604 21.9056 8.81181 21.7331 8.86226 21.5653C9.04572 20.9537 9.22918 20.3444 9.41263 19.7371C9.49336 19.4702 9.54931 19.1867 9.67039 18.9427C9.81716 18.641 10.274 18.5612 10.6152 18.7529C10.7605 18.829 10.8709 18.9583 10.9232 19.1139C10.9755 19.2694 10.9657 19.4391 10.8959 19.5876C10.8197 19.7518 10.8042 19.9426 10.75 20.1187C10.5666 20.7351 10.3758 21.3488 10.1997 21.967C10.1162 22.2569 10.0612 22.5541 9.98043 22.8449C9.91256 23.0916 9.82633 23.3329 9.73552 23.6172H10.0153C10.706 23.6172 11.3976 23.6172 12.0884 23.6172C12.2828 23.6172 12.3764 23.5649 12.4828 23.3631C12.6736 23.0287 12.9139 22.725 13.1955 22.4624C13.6112 22.0447 14.1053 21.7133 14.6494 21.4873C15.2713 21.236 15.9134 21.0378 16.5867 21.1323C17.6095 21.2763 18.4497 21.7395 18.9001 22.721C19.0184 22.9779 19.0331 23.2824 19.1019 23.5952H28.494L32.8117 8.75813ZM42.0689 18.6547C42.1193 18.419 42.1074 18.2667 41.9047 18.1429C41.3919 17.8292 40.8783 17.5118 40.3976 17.1513C40.0775 16.91 39.7491 16.8513 39.3647 16.8559C38.0429 16.8715 36.7202 16.8688 35.3975 16.8559C35.1511 16.8637 34.9061 16.8154 34.6811 16.7147C33.7372 16.2239 33.4538 15.4561 33.8317 14.4948C33.9454 14.205 34.0151 13.8986 34.1142 13.6014C34.2243 13.2602 34.2931 12.8951 34.46 12.5832C34.9462 11.6751 35.7176 11.1917 36.7615 11.1834C37.5549 11.177 38.3484 11.1834 39.1464 11.1834H39.3968C39.3968 10.8725 39.384 10.5909 39.3968 10.312C39.4106 10.0836 39.3253 10.0212 39.1033 10.0231C37.9255 10.0322 36.7486 10.0231 35.5708 10.0231C35.0929 10.0231 34.615 10.0176 34.1371 10.0231C34.0546 10.0231 33.9234 10.0533 33.9005 10.1065C33.8339 10.2909 33.7782 10.4789 33.7335 10.6698C33.6721 10.8844 33.6051 11.0972 33.5427 11.3119C33.5005 11.4549 33.4574 11.598 33.4235 11.743C33.3483 12.0622 33.2905 12.3851 33.2033 12.7034C33.0988 13.084 32.9694 13.4574 32.8557 13.8353C32.808 13.9931 32.7841 14.1573 32.7309 14.3123C32.6291 14.6104 32.497 14.8994 32.409 15.2011C32.275 15.6653 32.1796 16.1414 32.042 16.6055C31.8476 17.2797 31.632 17.9493 31.4165 18.6501H34.8205C36.0836 18.6501 37.3467 18.6602 38.6089 18.6428C38.8841 18.6428 39.2969 18.9648 39.3528 19.2849C39.4023 19.572 38.9676 19.9618 38.619 19.9618H31.055C30.701 21.1782 30.3497 22.3807 29.991 23.6126H30.2662C31.1624 23.6126 32.0586 23.6025 32.9538 23.6172C33.1813 23.6218 33.3079 23.5704 33.4216 23.3567C33.8106 22.6229 34.4187 22.1046 35.1296 21.7001C35.637 21.4093 36.1947 21.2167 36.7734 21.1323C37.2864 21.0684 37.8072 21.1346 38.2878 21.3249C39.2244 21.6735 39.9912 22.4761 39.9912 23.6181C40.0562 23.6095 40.1206 23.5966 40.1839 23.5796C40.6572 23.4145 40.826 23.0091 40.9654 22.5816C41.125 22.0762 41.1993 21.5487 41.4103 21.0534C41.5525 20.7186 41.5937 20.3425 41.6855 19.9637C41.5103 19.9637 41.3488 19.9692 41.1883 19.9637C40.9186 19.9536 40.4847 19.539 40.5288 19.3216C40.6031 18.9547 40.9049 18.6483 41.2938 18.6529C41.5506 18.6565 41.801 18.6547 42.0689 18.6547ZM39.4253 12.5089C39.3556 12.5089 39.2803 12.4979 39.206 12.4979C38.3695 12.4979 37.5329 12.4878 36.6973 12.5071C36.5099 12.5269 36.3292 12.5876 36.168 12.685C35.6066 12.9767 35.6708 13.6023 35.4626 14.0775C35.325 14.3912 35.2957 14.7517 35.1874 15.0801C35.0691 15.4286 35.1287 15.5387 35.5066 15.5387H39.1923C39.284 15.5387 39.3693 15.5277 39.428 15.5231L39.4253 12.5089ZM14.8329 26.159L14.8531 26.0673C15.2897 26.1691 15.6722 25.9857 16.0318 25.8059C16.7298 25.4555 17.271 24.9528 17.5132 24.1639C17.815 23.1788 17.3233 22.5422 16.3968 22.467C15.84 22.422 15.3374 22.6293 14.8595 22.8834C14.2704 23.185 13.8186 23.7001 13.5964 24.3235C13.4881 24.6244 13.39 24.9455 13.5285 25.294C13.6202 25.5261 13.6899 25.7655 13.9266 25.8646C14.221 25.9893 14.5329 26.0636 14.8329 26.159ZM38.5126 23.7163C38.4924 23.5273 38.5126 23.3338 38.4475 23.1788C38.2383 22.6871 37.8054 22.5082 37.3082 22.4679C36.8404 22.4303 36.3982 22.5715 35.9937 22.7834C35.0471 23.2778 34.3701 23.964 34.4343 25.139C34.4392 25.2735 34.4736 25.4052 34.5352 25.5249C34.5967 25.6446 34.6837 25.7493 34.7902 25.8316C35.2388 26.1829 35.7901 26.1572 36.2882 26.0554C36.7355 25.9655 37.1541 25.7674 37.5072 25.4784C38.0778 25.0142 38.4841 24.4721 38.5153 23.7163H38.5126Z" fill="#DE0F7E"/>
<path id="Vector_2" d="M16.5473 0.026403C16.9921 0.026403 17.4462 0.00347124 17.8966 0.0346589C18.2404 0.0634162 18.5807 0.124846 18.9129 0.218116C19.4633 0.363047 20.0339 0.488715 20.5576 0.712533C21.1792 0.974475 21.7749 1.29385 22.3372 1.66651C22.9321 2.06537 23.4905 2.5163 24.0057 3.014C24.8301 3.81713 25.4932 4.77049 25.9595 5.82273C26.1106 6.19196 26.2333 6.57221 26.3264 6.96016C26.4392 7.37569 26.5356 7.79672 26.6236 8.21867C26.655 8.39392 26.6694 8.57177 26.6667 8.74978C26.6732 9.19283 26.6943 9.63771 26.6612 10.0789C26.6214 10.4534 26.5583 10.825 26.4723 11.1916C26.4263 11.4694 26.3569 11.7428 26.265 12.0089C26.0847 12.5256 25.8702 13.0297 25.6229 13.5178C24.7166 15.1836 23.4012 16.4458 21.7528 17.3823C20.9814 17.8208 20.1577 18.1217 19.3175 18.3776C18.8504 18.513 18.3699 18.597 17.8847 18.628C17.1013 18.6987 16.3146 18.726 15.5281 18.7097C15.0457 18.6931 14.5641 18.5455 14.0898 18.4262C13.5597 18.2923 13.0285 18.151 12.514 17.9676C11.8088 17.7133 11.1439 17.3586 10.54 16.9145C10.0703 16.5733 9.59332 16.2284 9.18696 15.8138C8.66925 15.3089 8.20056 14.756 7.78718 14.1627C7.40376 13.5903 7.12674 12.9436 6.8433 12.3116C6.71671 12.0291 6.71855 11.6924 6.61214 11.3943C6.27 10.4504 6.37915 9.47352 6.38557 8.50762C6.38557 8.13245 6.51308 7.75636 6.59747 7.38486C6.65903 7.10093 6.73558 6.82046 6.82679 6.54463C6.93052 6.20073 7.06181 5.86575 7.21938 5.54295C7.47507 5.03705 7.76787 4.55079 8.09539 4.08814C8.62026 3.36427 9.25144 2.72382 9.96757 2.18844C10.4905 1.79078 11.0438 1.4347 11.6224 1.12348C12.1984 0.829028 12.824 0.623556 13.4377 0.408911C14.4421 0.0566739 15.4832 -0.0387242 16.5473 0.026403ZM25.2789 9.35794C25.2505 8.78464 25.2385 8.22326 25.011 7.67931C24.8927 7.3977 24.8909 7.0684 24.7817 6.78221C24.6111 6.33365 24.4414 5.87318 24.1873 5.47049C23.7102 4.70252 23.1213 4.01 22.4399 3.41577C21.5143 2.61682 20.453 2.07929 19.3037 1.70228C19.0111 1.61055 18.6955 1.58579 18.3919 1.51883C18.0883 1.45186 17.8012 1.32344 17.5086 1.33537C16.7252 1.35922 15.9354 1.2097 15.1557 1.4271C14.8805 1.50323 14.5687 1.46837 14.2953 1.55276C13.6706 1.74631 13.0469 1.92977 12.4516 2.2288C11.7668 2.56572 11.1263 2.98597 10.5445 3.47998C9.82356 4.10007 9.19705 4.80546 8.76868 5.65761C8.53295 6.15031 8.33009 6.65807 8.16144 7.17756C8.02017 7.583 7.84405 8.00311 7.83763 8.42139C7.82754 9.1433 7.73307 9.86612 7.92019 10.5963C8.0587 11.1466 8.16969 11.6906 8.37883 12.2171C8.84367 13.3759 9.58236 14.4048 10.5317 15.2157C11.3297 15.9074 12.214 16.4678 13.2359 16.7751C13.8027 16.9466 14.3623 17.1585 14.9402 17.2649C15.4841 17.3649 16.0492 17.3567 16.605 17.3833C16.9029 17.4085 17.2025 17.4039 17.4994 17.3695C17.9516 17.2989 18.3983 17.1861 18.8441 17.0723C19.2422 16.9732 19.6624 16.909 20.0247 16.732C20.6948 16.4018 21.3459 16.0343 21.9748 15.6313C22.6114 15.2258 23.1306 14.6773 23.5865 14.0783C24.053 13.4472 24.4348 12.7576 24.7221 12.0272C24.8931 11.6085 25.0299 11.1766 25.1312 10.7357C25.2248 10.2853 25.2339 9.81842 25.2789 9.35794Z" fill="#DE0F7E"/>
<path id="Vector_3" d="M4.37587 18.0876H1.05071C0.601245 18.0876 0.316887 17.8895 0.337068 17.4455C0.357248 17.0016 0.592072 16.7612 1.05622 16.7612C3.26412 16.7612 5.47294 16.7686 7.68177 16.753C8.01474 16.753 8.37065 17.0419 8.47155 17.3034C8.59721 17.6336 8.21654 18.0775 7.80376 18.0794C6.82319 18.0849 5.84261 18.0794 4.86203 18.0794L4.37587 18.0876Z" fill="#DE0F7E"/>
<path id="Vector_4" d="M5.05741 20.5763C4.3667 20.5763 3.67598 20.5827 2.98527 20.5763C2.48626 20.5708 2.17806 20.1708 2.34317 19.703C2.41288 19.504 2.74677 19.2792 2.966 19.2728C4.34652 19.2343 5.72887 19.2499 7.1103 19.2563C7.38548 19.2563 7.7524 19.5856 7.8111 19.8406C7.88449 20.1708 7.5295 20.5744 7.15341 20.5744C6.45627 20.579 5.75638 20.5763 5.05741 20.5763Z" fill="#DE0F7E"/>
<path id="Vector_5" d="M5.71424 23.0878C5.49226 23.0878 5.26935 23.097 5.04829 23.0878C4.43096 23.0585 4.2475 22.6402 4.38509 22.1843C4.43921 22.0073 4.74375 21.8174 4.95289 21.7935C5.44914 21.7367 5.95732 21.7688 6.46091 21.778C6.72417 21.7825 7.0975 22.1054 7.14704 22.343C7.21308 22.6567 6.848 23.0768 6.50494 23.0878C6.24351 23.0933 5.97842 23.0878 5.71424 23.0878Z" fill="#DE0F7E"/>
<path id="Vector_6" d="M15.5668 24.9326C15.1293 24.9326 14.833 24.6666 14.7954 24.3098C14.7633 23.9823 15.2779 23.609 15.5384 23.6182C15.8429 23.6292 16.3016 23.919 16.2722 24.2997C16.2573 24.4752 16.176 24.6384 16.045 24.756C15.9139 24.8736 15.7429 24.9368 15.5668 24.9326Z" fill="#DE0F7E"/>
<path id="Vector_7" d="M36.4597 24.9333C36.0534 24.9333 35.7525 24.6581 35.758 24.3013C35.7635 23.9637 36.1185 23.6106 36.4625 23.6188C36.8065 23.6271 37.2009 23.9381 37.2147 24.2774C37.2284 24.6168 36.8477 24.9342 36.4597 24.9333Z" fill="#DE0F7E"/>
<path id="Vector_8" d="M18.4103 8.53148C18.8029 9.33319 18.6543 10.0367 18.0213 10.6412C17.3077 11.3255 16.4381 11.4209 15.6584 11.0797C15.2337 11.4705 14.8108 11.8676 14.3788 12.2538C13.9651 12.6207 13.5065 12.573 13.1918 12.1346C13.0708 11.964 13.079 11.6402 13.2313 11.4925C13.6404 11.0916 14.0651 10.7054 14.4678 10.3C14.5072 10.2562 14.536 10.2038 14.5519 10.147C14.5679 10.0902 14.5704 10.0305 14.5595 9.97254C14.2164 9.09011 14.6898 8.09027 15.5951 7.64447C16.0345 7.42799 16.4867 7.43808 16.9481 7.45367C17.0068 7.45367 17.0609 7.52981 17.1224 7.53898C17.2985 7.56466 17.4609 7.56375 17.6132 7.42157C18.6479 6.45475 19.6917 5.49527 20.7319 4.53395C20.9227 4.35784 21.3089 4.25877 21.5006 4.3505C21.884 4.54588 22.0042 4.73668 21.951 5.05497C21.9259 5.19891 21.8574 5.33174 21.7547 5.43565C21.008 6.14287 20.2494 6.83726 19.4945 7.53531L18.4103 8.53148ZM16.5262 8.75897C16.1648 8.75897 15.9373 8.99746 15.9024 9.33686C15.8694 9.66158 16.1978 9.92025 16.5198 9.92025C16.916 9.92025 17.1252 9.68818 17.1426 9.31851C17.1573 9.0048 16.8747 8.75989 16.5262 8.75897Z" fill="#DE0F7E"/>
<path id="Vector_9" d="M10.0427 10.0249C9.7244 10.0625 9.39326 10.0047 9.15844 9.67171C9.0913 9.56144 9.06026 9.43297 9.06963 9.30422C9.079 9.17547 9.12833 9.05285 9.21072 8.95347C9.29459 8.85273 9.40286 8.77514 9.52522 8.72809C9.64757 8.68105 9.77993 8.66611 9.90969 8.68471C10.2078 8.72048 10.5289 8.69021 10.7985 8.79478C10.971 8.86174 11.137 9.10391 11.1838 9.29745C11.259 9.60933 10.8517 10.0056 10.5032 10.0239C10.3674 10.0313 10.2317 10.0249 10.0427 10.0249Z" fill="#DE0F7E"/>
<path id="Vector_10" d="M22.9242 10.0752C22.7048 10.0383 22.4884 9.98552 22.2766 9.9174C21.9693 9.7954 21.8638 9.59727 21.8831 9.28172C21.8968 9.04873 22.1252 8.73135 22.3821 8.71117C22.7967 8.68365 23.2305 8.58 23.6305 8.78547C23.847 8.89646 23.9974 9.06799 23.9974 9.33584C24.0038 9.45492 23.973 9.57304 23.9092 9.6738C23.8454 9.77456 23.7519 9.85297 23.6415 9.89814C23.4149 9.99445 23.1618 10.0201 22.9242 10.0752Z" fill="#DE0F7E"/>
<path id="Vector_11" d="M17.2406 15.3469C17.291 15.6872 17.2002 16 16.8058 16.1862C16.3939 16.3807 15.8298 16.0633 15.8215 15.6111C15.8215 15.39 15.8215 15.168 15.8215 14.947C15.8267 14.7766 15.8955 14.6143 16.0144 14.4921C16.1332 14.3699 16.2935 14.2965 16.4636 14.2865C16.8627 14.2508 17.2323 14.5755 17.2442 14.913C17.2442 15.0405 17.2406 15.168 17.2406 15.3469Z" fill="#DE0F7E"/>
</g>
</svg>
