<svg width="22" height="21" viewBox="0 0 22 21" fill="none" xmlns="http://www.w3.org/2000/svg">
<g id="Isolation_Mode" clip-path="url(#clip0_952_2319)">
<path id="Vector" d="M21.2207 2.10124C21.2234 1.87748 21.1813 1.65542 21.097 1.44815C21.0126 1.24088 20.8876 1.05257 20.7294 0.894334C20.5712 0.736098 20.3829 0.611134 20.1756 0.526768C19.9683 0.442401 19.7463 0.400335 19.5225 0.40308H2.4901C2.11293 0.404509 1.74689 0.530723 1.44896 0.76203C1.15104 0.993338 0.937996 1.31673 0.84314 1.68179C0.84314 1.68179 0.84314 1.78411 0.84314 1.83526V19.3791C0.84314 19.5018 0.914742 19.6348 0.965891 19.7576C1.06455 20.0106 1.22314 20.2359 1.42805 20.414C1.63296 20.5922 1.87809 20.718 2.14233 20.7806L2.27532 20.8317H19.8294C20.0668 20.7507 20.2962 20.6479 20.5148 20.5248C20.75 20.3784 20.9427 20.1729 21.0737 19.9288C21.2047 19.6847 21.2695 19.4105 21.2616 19.1336L21.2207 2.10124ZM20.5455 18.9597C20.5725 19.1212 20.5604 19.2868 20.5102 19.4426C20.46 19.5984 20.373 19.7399 20.2568 19.8552C20.1405 19.9704 19.9983 20.0561 19.842 20.105C19.6857 20.1539 19.5201 20.1646 19.3589 20.1361H2.65381C2.49432 20.1623 2.33087 20.1502 2.17692 20.101C2.02296 20.0519 1.88286 19.9669 1.76808 19.8531C1.6533 19.7393 1.56712 19.6 1.51658 19.4465C1.46605 19.2929 1.45262 19.1297 1.47737 18.9699V2.24441C1.45262 2.08469 1.46605 1.92141 1.51658 1.76789C1.56712 1.61437 1.6533 1.47502 1.76808 1.36124C1.88286 1.24745 2.02296 1.16249 2.17692 1.1133C2.33087 1.06411 2.49432 1.05212 2.65381 1.07827H19.3793C19.537 1.05433 19.6982 1.06758 19.8499 1.11705C20.0016 1.16651 20.1396 1.25079 20.253 1.36311C20.3663 1.47543 20.4517 1.6127 20.5025 1.76395C20.5533 1.91521 20.568 2.07628 20.5455 2.23423V18.9597Z" fill="#DE0F7E"/>
<path id="Vector_2" d="M19.8191 20.9543H2.14225H2.07063C1.78512 20.8848 1.52026 20.7484 1.29791 20.5563C1.07556 20.3642 0.902105 20.1219 0.791924 19.8495C0.755165 19.7631 0.724376 19.6742 0.699829 19.5835V19.4199V1.79411V1.73273V1.65094C0.79489 1.25162 1.02283 0.896428 1.34624 0.643647C1.66965 0.390867 2.06939 0.255459 2.47984 0.259661H19.5122C19.7548 0.256919 19.9955 0.302709 20.2201 0.394275C20.4447 0.48584 20.6488 0.621339 20.8204 0.792872C20.9919 0.964405 21.1274 1.1685 21.219 1.39314C21.3105 1.61778 21.3563 1.85848 21.3535 2.10105V19.0823C21.3582 19.3836 21.2854 19.681 21.1421 19.9461C20.9988 20.2112 20.7898 20.4351 20.5352 20.5962C20.3807 20.6899 20.2159 20.7654 20.0442 20.8213L19.8293 20.9032L19.8191 20.9543ZM2.265 20.6781H19.7577L19.9521 20.5962C20.107 20.5523 20.2551 20.4868 20.3919 20.4019C20.6082 20.2675 20.7854 20.0787 20.9057 19.8542C21.026 19.6298 21.0852 19.3777 21.0774 19.1232V2.10105C21.0801 1.89609 21.0418 1.69261 20.9646 1.50272C20.8874 1.31282 20.773 1.14036 20.6281 0.995417C20.4831 0.850479 20.3106 0.736049 20.1207 0.658882C19.9308 0.581715 19.7274 0.54337 19.5224 0.546121H2.49002C2.14379 0.545309 1.80737 0.660828 1.53467 0.874164C1.26197 1.0875 1.06883 1.38631 0.98629 1.72256V1.82483V19.3585V19.4608C0.98629 19.5426 0.986307 19.6244 1.06814 19.696C1.1631 19.9283 1.31179 20.1348 1.50208 20.2984C1.69237 20.462 1.91882 20.5781 2.16273 20.6372H2.265V20.6781ZM19.369 20.2791H2.65373C2.47664 20.2983 2.2975 20.2777 2.12938 20.2188C1.96127 20.1599 1.8084 20.0643 1.68196 19.9388C1.55552 19.8134 1.45868 19.6612 1.3985 19.4936C1.33831 19.3259 1.31635 19.147 1.33413 18.9698V2.24422C1.31438 2.06657 1.33501 1.88674 1.3945 1.71819C1.45399 1.54963 1.55077 1.39673 1.67765 1.27083C1.80454 1.14493 1.95825 1.04935 2.12726 0.991171C2.29627 0.932993 2.47624 0.913728 2.65373 0.934853H19.3792C19.5545 0.917568 19.7316 0.939199 19.8976 0.998227C20.0636 1.05725 20.2145 1.15222 20.3396 1.27632C20.4647 1.40042 20.5609 1.55058 20.6212 1.71613C20.6815 1.88168 20.7045 2.05856 20.6886 2.23404V18.9595C20.7083 19.1385 20.6874 19.3196 20.6274 19.4894C20.5674 19.6592 20.4698 19.8132 20.342 19.9401C20.2142 20.0669 20.0594 20.1633 19.8891 20.222C19.7189 20.2807 19.5376 20.3002 19.3588 20.2791H19.369ZM2.66397 1.22125C2.52526 1.20272 2.38413 1.21642 2.25157 1.26127C2.11902 1.30613 1.99857 1.38097 1.89962 1.47993C1.80066 1.57888 1.72588 1.69933 1.68102 1.83188C1.63617 1.96444 1.62247 2.10551 1.641 2.24422V18.9698C1.62247 19.1085 1.63617 19.2495 1.68102 19.3821C1.72588 19.5146 1.80066 19.6351 1.89962 19.734C1.99857 19.833 2.11902 19.9078 2.25157 19.9527C2.38413 19.9976 2.52526 20.0112 2.66397 19.9927H19.369C19.5077 20.0112 19.6488 19.9976 19.7814 19.9527C19.9139 19.9078 20.0344 19.833 20.1333 19.734C20.2323 19.6351 20.307 19.5146 20.3519 19.3821C20.3968 19.2495 20.4105 19.1085 20.3919 18.9698V2.23404C20.4105 2.09533 20.3968 1.9542 20.3519 1.82164C20.307 1.68909 20.2323 1.56864 20.1333 1.46969C20.0344 1.37073 19.9139 1.29595 19.7814 1.2511C19.6488 1.20624 19.5077 1.19255 19.369 1.21107L2.66397 1.22125Z" fill="#DE0F7E"/>
<path id="Vector_3" d="M7.20602 4.82213C7.27412 4.82723 7.34252 4.82723 7.41063 4.82213H18.6633C18.9804 4.82213 19.144 4.7096 19.1543 4.49478C19.1645 4.27995 18.9906 4.147 18.653 4.147H7.19578C7.11527 4.15221 7.03973 4.18786 6.98462 4.24678C6.9295 4.30569 6.89897 4.38344 6.89914 4.46412C6.89345 4.55205 6.92235 4.63867 6.97969 4.70556C7.03703 4.77246 7.11826 4.81431 7.20602 4.82213Z" fill="#DE0F7E"/>
<path id="Vector_4" d="M7.30826 4.96537H7.1855C7.068 4.94764 6.96156 4.88609 6.88756 4.79311C6.81355 4.70013 6.77745 4.58262 6.78653 4.46413C6.79109 4.34967 6.83724 4.24074 6.91634 4.15788C6.99544 4.07501 7.10209 4.02389 7.21622 4.01402H18.6836C18.7771 4.00465 18.8716 4.0143 18.9612 4.04243C19.0509 4.07056 19.134 4.11656 19.2054 4.17767C19.2466 4.22129 19.2787 4.27274 19.2998 4.32896C19.3209 4.38517 19.3305 4.44503 19.3281 4.50503C19.3281 4.67893 19.2258 4.97561 18.6939 4.97561H7.30826V4.96537ZM7.2264 4.67891H18.6939C19.0315 4.67891 19.0417 4.54593 19.0417 4.48455C19.0502 4.46519 19.0545 4.4443 19.0545 4.42317C19.0545 4.40205 19.0502 4.38116 19.0417 4.3618C18.9492 4.29743 18.8367 4.26843 18.7246 4.28H7.23664C7.19043 4.28484 7.14748 4.30604 7.11558 4.33982C7.08367 4.3736 7.06495 4.41772 7.06275 4.46413C7.05929 4.51371 7.07397 4.56283 7.10409 4.60237C7.13421 4.6419 7.17768 4.6691 7.2264 4.67891Z" fill="#DE0F7E"/>
<path id="Vector_5" d="M18.8165 16.392H7.21613C7.13309 16.4068 7.05823 16.4512 7.00553 16.5171C6.95284 16.583 6.92588 16.6657 6.92967 16.75C6.9295 16.8307 6.9601 16.9084 7.01521 16.9673C7.07033 17.0263 7.1458 17.062 7.22631 17.0672H18.8268C18.8728 17.07 18.9189 17.0633 18.9623 17.0476C19.0056 17.0319 19.0453 17.0075 19.0788 16.9758C19.1124 16.9442 19.1391 16.906 19.1573 16.8636C19.1755 16.8213 19.1849 16.7757 19.1848 16.7296C19.1795 16.6364 19.1381 16.549 19.0693 16.4859C19.0005 16.4229 18.9098 16.3892 18.8165 16.392Z" fill="#DE0F7E"/>
<path id="Vector_6" d="M18.3256 17.2103H7.20594C7.09177 17.1935 6.98742 17.1362 6.91199 17.0489C6.83656 16.9616 6.79504 16.8501 6.79504 16.7347C6.79504 16.6193 6.83656 16.5077 6.91199 16.4203C6.98742 16.333 7.09177 16.2757 7.20594 16.259H18.8268C18.9573 16.2587 19.083 16.3084 19.1781 16.3977C19.2732 16.4871 19.3305 16.6095 19.3383 16.7398C19.3382 16.862 19.2905 16.9794 19.2053 17.0671C19.1581 17.1171 19.1009 17.1565 19.0375 17.1829C18.974 17.2093 18.9058 17.2222 18.8371 17.2205L18.3256 17.2103ZM7.4412 16.9341H18.8166C18.8803 16.9371 18.9427 16.915 18.9905 16.8728C19.0061 16.8298 19.0061 16.7827 18.9905 16.7398C18.9905 16.6273 18.8984 16.5454 18.7552 16.5454H7.2366C7.18781 16.5528 7.14337 16.5776 7.11141 16.6152C7.07945 16.6527 7.06215 16.7006 7.06271 16.75C7.0649 16.7964 7.08363 16.8405 7.11553 16.8743C7.14744 16.908 7.19039 16.9293 7.2366 16.9341H7.4412Z" fill="#DE0F7E"/>
<path id="Vector_7" d="M7.22632 8.90402H18.8063C18.8528 8.90821 18.8997 8.90298 18.9442 8.88866C18.9886 8.87434 19.0297 8.85121 19.065 8.82066C19.1004 8.79011 19.1292 8.75282 19.1498 8.7109C19.1703 8.66898 19.1822 8.62329 19.1848 8.57666C19.1849 8.52787 19.175 8.47957 19.1558 8.43474C19.1365 8.38991 19.1083 8.34952 19.0728 8.31599C19.0374 8.28246 18.9954 8.25655 18.9496 8.23981C18.9038 8.22307 18.855 8.21586 18.8063 8.21865H7.22632C7.14313 8.22643 7.06607 8.26571 7.01091 8.32847C6.95576 8.39124 6.92671 8.47274 6.92968 8.55624C6.9265 8.64086 6.95521 8.72359 7.01016 8.78801C7.06511 8.85243 7.14226 8.89381 7.22632 8.90402Z" fill="#DE0F7E"/>
<path id="Vector_8" d="M18.7143 9.04687H7.21621C7.09863 9.03661 6.98916 8.98256 6.90958 8.8954C6.83 8.80824 6.78607 8.69431 6.78652 8.57628C6.78555 8.45872 6.82774 8.34489 6.90502 8.2563C6.9823 8.1677 7.08936 8.11052 7.20597 8.09552H18.8166C18.9505 8.09549 19.0791 8.14796 19.1747 8.24168C19.2704 8.33541 19.3254 8.46289 19.3281 8.59676C19.3255 8.66126 19.3102 8.72463 19.283 8.7832C19.2559 8.84177 19.2174 8.8944 19.1699 8.93811C19.1224 8.98181 19.0668 9.01571 19.0062 9.03788C18.9455 9.06005 18.8811 9.07009 18.8166 9.06735L18.7143 9.04687ZM7.46171 8.77065H18.8268C18.9087 8.77065 19.0621 8.77064 19.0621 8.56604C19.0621 8.36145 18.9701 8.3615 18.8166 8.3615H7.24686C7.19622 8.36659 7.14929 8.39035 7.11525 8.42818C7.0812 8.46602 7.06248 8.51515 7.06274 8.56604C7.06267 8.61587 7.08173 8.66386 7.11599 8.70003C7.15026 8.7362 7.19711 8.75779 7.24686 8.76041H7.44123L7.46171 8.77065Z" fill="#DE0F7E"/>
<path id="Vector_9" d="M18.878 12.3104H7.25708C7.21322 12.3104 7.1698 12.3192 7.1294 12.3363C7.089 12.3534 7.05242 12.3784 7.02188 12.4099C6.99135 12.4414 6.96748 12.4787 6.95164 12.5196C6.9358 12.5605 6.92835 12.6042 6.92973 12.648C6.92836 12.6924 6.93574 12.7365 6.95145 12.778C6.96717 12.8195 6.99092 12.8574 7.02132 12.8897C7.05172 12.922 7.0882 12.9481 7.12865 12.9663C7.1691 12.9845 7.21274 12.9945 7.25708 12.9958H18.878C18.9675 12.9958 19.0534 12.9603 19.1167 12.897C19.18 12.8337 19.2156 12.7477 19.2156 12.6582C19.2156 12.5687 19.18 12.4828 19.1167 12.4195C19.0534 12.3562 18.9675 12.3207 18.878 12.3207V12.3104Z" fill="#DE0F7E"/>
<path id="Vector_10" d="M7.37989 13.1389H7.27761C7.15099 13.131 7.03233 13.0743 6.94651 12.9809C6.8607 12.8874 6.81438 12.7644 6.81727 12.6376C6.81715 12.5163 6.86389 12.3996 6.94776 12.3119C7.03163 12.2242 7.14615 12.1723 7.26737 12.167H18.919C19.0375 12.1771 19.1481 12.2308 19.2293 12.3177C19.3106 12.4047 19.3567 12.5186 19.3588 12.6376C19.3556 12.754 19.312 12.8656 19.2355 12.9534C19.1589 13.0411 19.0543 13.0994 18.9394 13.1184H7.37989V13.1389ZM7.47198 12.8524H18.8883C18.938 12.8452 18.9837 12.8208 19.0174 12.7835C19.051 12.7461 19.0705 12.6981 19.0724 12.6478C19.0724 12.598 19.0534 12.55 19.0191 12.5139C18.9849 12.4777 18.938 12.4561 18.8883 12.4535H7.26737C7.21484 12.4534 7.16429 12.4736 7.1262 12.5097C7.08812 12.5459 7.06539 12.5954 7.06277 12.6478C7.06273 12.6756 7.06834 12.7031 7.07925 12.7286C7.09017 12.7541 7.10617 12.7771 7.12627 12.7963C7.14636 12.8154 7.17012 12.8302 7.19613 12.8399C7.22215 12.8496 7.2499 12.8538 7.27761 12.8524H7.44126H7.47198Z" fill="#DE0F7E"/>
<path id="Vector_11" d="M4.18816 15.369C3.91705 15.371 3.65265 15.4534 3.42836 15.6057C3.20408 15.758 3.02999 15.9734 2.92812 16.2246C2.82624 16.4759 2.80113 16.7517 2.856 17.0172C2.91088 17.2827 3.04324 17.526 3.23637 17.7162C3.4295 17.9065 3.67474 18.0352 3.94103 18.0861C4.20732 18.137 4.48273 18.1078 4.73242 18.0022C4.98211 17.8966 5.19486 17.7193 5.3438 17.4928C5.49274 17.2662 5.57115 17.0007 5.56914 16.7296C5.56916 16.5491 5.53333 16.3705 5.46368 16.2041C5.39403 16.0377 5.292 15.8868 5.16348 15.7602C5.03497 15.6335 4.88256 15.5338 4.71512 15.4666C4.54769 15.3995 4.36854 15.3663 4.18816 15.369ZM4.18816 17.4149C4.00814 17.4149 3.83533 17.3441 3.70708 17.2178C3.57884 17.0915 3.50547 16.9198 3.50279 16.7398C3.50547 16.5625 3.57776 16.3934 3.70408 16.269C3.83041 16.1445 4.00061 16.0748 4.17792 16.0748C4.2656 16.0721 4.35297 16.087 4.43478 16.1187C4.51659 16.1503 4.59114 16.1981 4.65412 16.2592C4.7171 16.3203 4.76718 16.3934 4.80135 16.4742C4.83552 16.555 4.85315 16.6418 4.85311 16.7296C4.85588 16.9042 4.78982 17.0729 4.66923 17.1992C4.54864 17.3255 4.3832 17.3993 4.20864 17.4047L4.18816 17.4149Z" fill="#DE0F7E"/>
<path id="Vector_12" d="M4.19842 18.2433C3.81178 18.2324 3.44471 18.0709 3.17545 17.7932C2.89594 17.5252 2.73407 17.1573 2.72534 16.7702C2.72798 16.374 2.88585 15.9946 3.16508 15.7134C3.44432 15.4323 3.82262 15.2718 4.21883 15.2665C4.60234 15.273 4.96863 15.4269 5.2418 15.6961C5.38774 15.8343 5.50391 16.0008 5.58308 16.1856C5.66225 16.3703 5.70274 16.5693 5.70215 16.7702C5.68978 17.1545 5.53267 17.5199 5.26228 17.7932C4.99178 18.0691 4.62546 18.2303 4.23931 18.2433H4.19842ZM4.19842 15.5018C3.87724 15.5097 3.57172 15.6422 3.34646 15.8713C3.12121 16.1004 2.99388 16.4081 2.99132 16.7293C2.99131 17.0531 3.11921 17.3638 3.34721 17.5937C3.57522 17.8236 3.88486 17.9542 4.20866 17.9569C4.44002 17.9447 4.6632 17.8674 4.85244 17.7337C5.04168 17.6 5.18921 17.4155 5.27801 17.2015C5.36682 16.9875 5.3933 16.7528 5.35431 16.5244C5.31532 16.296 5.21245 16.0834 5.05767 15.911C4.9516 15.7884 4.82159 15.6888 4.67556 15.6185C4.52953 15.5481 4.37062 15.5084 4.20866 15.5018H4.19842ZM4.19842 17.5477C4.08396 17.5605 3.96805 17.5491 3.85832 17.5141C3.74859 17.4791 3.64749 17.4213 3.56162 17.3446C3.47575 17.2678 3.40705 17.1737 3.36001 17.0686C3.31298 16.9635 3.28865 16.8496 3.28865 16.7344C3.28865 16.6193 3.31298 16.5054 3.36001 16.4002C3.40705 16.2951 3.47575 16.2011 3.56162 16.1243C3.64749 16.0476 3.74859 15.9898 3.85832 15.9548C3.96805 15.9198 4.08396 15.9083 4.19842 15.9211C4.30454 15.9198 4.40991 15.9394 4.50848 15.9788C4.60704 16.0181 4.69684 16.0765 4.77284 16.1506C4.84883 16.2247 4.90949 16.3131 4.95134 16.4106C4.99319 16.5081 5.01544 16.613 5.01678 16.7191C5.0185 16.9399 4.93412 17.1528 4.78151 17.3124C4.70619 17.3874 4.61677 17.4468 4.51847 17.4871C4.42017 17.5275 4.31492 17.5481 4.20866 17.5477H4.19842ZM4.19842 16.2076C4.12905 16.2062 4.0601 16.2187 3.99562 16.2443C3.93114 16.2699 3.87239 16.3082 3.82286 16.3568C3.77332 16.4053 3.73396 16.4633 3.7071 16.5273C3.68024 16.5913 3.66644 16.6599 3.66645 16.7293C3.66506 16.7996 3.67786 16.8693 3.7041 16.9345C3.73034 16.9997 3.7695 17.0589 3.81917 17.1086C3.86885 17.1582 3.92802 17.1973 3.99319 17.2236C4.05835 17.2498 4.12818 17.2626 4.19842 17.2612C4.26712 17.2628 4.3354 17.2501 4.39884 17.2236C4.46228 17.1972 4.51944 17.1577 4.56667 17.1078C4.61716 17.0567 4.6568 16.9959 4.68318 16.9291C4.70955 16.8623 4.72213 16.7909 4.72014 16.7191C4.72159 16.6507 4.70901 16.5826 4.68318 16.5192C4.65734 16.4558 4.6188 16.3984 4.56992 16.3505C4.52103 16.3026 4.46285 16.2651 4.39896 16.2406C4.33507 16.216 4.26681 16.2048 4.19842 16.2076Z" fill="#DE0F7E"/>
<path id="Vector_13" d="M4.18813 5.84501C4.46051 5.84907 4.72791 5.77189 4.95623 5.6233C5.18455 5.47471 5.36343 5.26148 5.47002 5.01079C5.57661 4.7601 5.60608 4.4833 5.55468 4.21578C5.50329 3.94826 5.3734 3.7021 5.1815 3.50875C4.9896 3.3154 4.7444 3.1836 4.47727 3.13019C4.21015 3.07678 3.93319 3.10423 3.6817 3.20892C3.43021 3.31362 3.21563 3.49084 3.06533 3.71803C2.91502 3.94523 2.8358 4.21204 2.83781 4.48445C2.84044 4.84271 2.98321 5.18569 3.23559 5.43998C3.48797 5.69427 3.8299 5.83967 4.18813 5.84501ZM4.18813 3.79908C4.36448 3.79908 4.53358 3.86912 4.65828 3.99382C4.78298 4.11852 4.85308 4.28768 4.85308 4.46403C4.85592 4.55346 4.84036 4.6425 4.80744 4.7257C4.77452 4.8089 4.72492 4.88446 4.66165 4.94773C4.59838 5.011 4.52276 5.06066 4.43956 5.09358C4.35636 5.12651 4.26732 5.142 4.17789 5.13916C4.00058 5.13918 3.83038 5.06946 3.70406 4.94504C3.57773 4.82063 3.50544 4.65149 3.50276 4.47421C3.50541 4.38419 3.52572 4.29562 3.56264 4.21347C3.59955 4.13133 3.6523 4.05726 3.71785 3.9955C3.78341 3.93375 3.86049 3.88553 3.94469 3.85359C4.02889 3.82164 4.11859 3.80659 4.20861 3.80932L4.18813 3.79908Z" fill="#DE0F7E"/>
<path id="Vector_14" d="M4.20864 5.98845C3.81243 5.9831 3.43406 5.82261 3.15483 5.54146C2.8756 5.26032 2.71773 4.8809 2.71509 4.48466C2.72382 4.09753 2.88568 3.72967 3.1652 3.46169C3.43446 3.18402 3.80153 3.0225 4.18816 3.01158C4.57652 3.02411 4.9442 3.18957 5.21113 3.47193C5.48414 3.74347 5.64172 4.10995 5.651 4.49489C5.63018 4.88128 5.46603 5.24603 5.19065 5.51786C4.93419 5.79272 4.58355 5.96077 4.20864 5.98845ZM4.20864 5.71223C4.36552 5.71316 4.52089 5.68185 4.66518 5.62026C4.80947 5.55867 4.93956 5.46814 5.04742 5.35421C5.16739 5.24348 5.26303 5.10894 5.3282 4.95924C5.39336 4.80954 5.42668 4.64792 5.42597 4.48466C5.42805 4.32549 5.39834 4.16755 5.33862 4.02C5.2789 3.87245 5.19034 3.7383 5.07814 3.6254C4.84835 3.39256 4.53576 3.26018 4.20864 3.25715C3.88485 3.25984 3.5752 3.39036 3.3472 3.62028C3.11919 3.8502 2.9913 4.16085 2.99131 4.48466C2.99387 4.80591 3.12119 5.11359 3.34645 5.34266C3.5717 5.57174 3.87723 5.70427 4.1984 5.71223H4.20864ZM4.20864 5.29284C3.99509 5.2929 3.78993 5.20946 3.63703 5.06039C3.48413 4.91131 3.39556 4.70838 3.39022 4.49489C3.3928 4.2777 3.47959 4.06996 3.63222 3.91542C3.78486 3.76087 3.99149 3.67158 4.20864 3.66629C4.3231 3.65344 4.43894 3.66488 4.54867 3.69989C4.6584 3.73489 4.7595 3.7927 4.84537 3.86946C4.93124 3.94623 4.99995 4.04024 5.04698 4.14537C5.09402 4.25051 5.11835 4.36436 5.11835 4.47954C5.11835 4.59471 5.09402 4.70862 5.04698 4.81376C4.99995 4.9189 4.93124 5.01291 4.84537 5.08967C4.7595 5.16643 4.6584 5.22424 4.54867 5.25925C4.43894 5.29425 4.3231 5.3057 4.20864 5.29284ZM4.20864 3.95276C4.1384 3.95136 4.06858 3.96416 4.00341 3.9904C3.93824 4.01664 3.87907 4.05574 3.8294 4.10541C3.77972 4.15509 3.74057 4.21432 3.71433 4.27949C3.68809 4.34465 3.67529 4.41442 3.67668 4.48466C3.67667 4.55404 3.69047 4.62273 3.71732 4.6867C3.74418 4.75067 3.78355 4.80863 3.83308 4.85722C3.88262 4.9058 3.94136 4.94406 4.00585 4.96966C4.07033 4.99527 4.13927 5.00774 4.20864 5.00638C4.28007 5.01263 4.35199 5.00318 4.41937 4.97866C4.48674 4.95413 4.54792 4.91516 4.59862 4.86446C4.64932 4.81376 4.6883 4.75258 4.71282 4.6852C4.73734 4.61783 4.74679 4.54584 4.74054 4.47442C4.74054 4.33605 4.6856 4.20338 4.58776 4.10554C4.48992 4.0077 4.35718 3.95276 4.21882 3.95276H4.20864Z" fill="#DE0F7E"/>
<path id="Vector_15" d="M4.19845 9.92691C4.46711 9.92691 4.72974 9.84738 4.95325 9.69833C5.17677 9.54928 5.35116 9.3374 5.45443 9.08939C5.5577 8.84137 5.58521 8.56832 5.53354 8.30468C5.48187 8.04104 5.35329 7.79862 5.16404 7.60795C4.97479 7.41727 4.7333 7.28691 4.47005 7.23326C4.20681 7.17962 3.93363 7.20509 3.68485 7.3065C3.43607 7.40791 3.22288 7.58067 3.07215 7.80306C2.92143 8.02545 2.83991 8.28753 2.83789 8.55617C2.83788 8.91796 2.98088 9.26505 3.23574 9.52182C3.4906 9.7786 3.83668 9.92421 4.19845 9.92691ZM4.19845 7.88098C4.37752 7.88098 4.54923 7.9521 4.67585 8.07872C4.80246 8.20534 4.87358 8.37711 4.87358 8.55617C4.87358 8.73524 4.80246 8.90695 4.67585 9.03357C4.54923 9.16018 4.37752 9.23131 4.19845 9.23131C4.01939 9.23131 3.84768 9.16018 3.72106 9.03357C3.59444 8.90695 3.52326 8.73524 3.52326 8.55617C3.52326 8.37711 3.59444 8.20534 3.72106 8.07872C3.84768 7.9521 4.01939 7.88098 4.19845 7.88098Z" fill="#DE0F7E"/>
<path id="Vector_16" d="M4.19837 10.07C3.79955 10.07 3.41702 9.91154 3.13501 9.62953C2.853 9.34752 2.69458 8.96499 2.69458 8.56617C2.69458 8.16735 2.853 7.78488 3.13501 7.50287C3.41702 7.22086 3.79955 7.06244 4.19837 7.06244C4.58378 7.06957 4.95104 7.22748 5.22134 7.50231C5.42958 7.71013 5.5723 7.97448 5.6318 8.2626C5.6913 8.55072 5.66495 8.84998 5.55606 9.12329C5.44718 9.3966 5.2605 9.63196 5.01917 9.80023C4.77784 9.96851 4.49247 10.0623 4.19837 10.07ZM4.19837 7.3489C3.96418 7.35508 3.73673 7.4287 3.54335 7.56094C3.34996 7.69317 3.19882 7.8784 3.1081 8.0944C3.01738 8.31039 2.99096 8.54798 3.03193 8.77864C3.07289 9.00931 3.17951 9.22328 3.33905 9.39483C3.45039 9.50983 3.58403 9.60087 3.73178 9.66244C3.87953 9.724 4.03832 9.75476 4.19837 9.75284C4.35981 9.7538 4.51981 9.72266 4.66908 9.66119C4.81836 9.59972 4.95392 9.50919 5.06787 9.39483C5.18239 9.28313 5.27313 9.1494 5.33466 9.00173C5.39619 8.85406 5.42727 8.69548 5.42594 8.53551C5.42786 8.37546 5.3971 8.21667 5.33554 8.06892C5.27397 7.92117 5.18287 7.78753 5.06787 7.67619C4.83584 7.45798 4.52701 7.34037 4.20861 7.3489H4.19837ZM4.19837 9.39483C3.98215 9.39218 3.77555 9.30511 3.62264 9.1522C3.46974 8.9993 3.38267 8.79263 3.38001 8.57641C3.3792 8.46915 3.40057 8.36294 3.44282 8.26435C3.48508 8.16576 3.54729 8.07694 3.62551 8.00355C3.70155 7.92598 3.79226 7.86432 3.89237 7.82217C3.99248 7.78002 4.09999 7.75823 4.20861 7.75805C4.42295 7.75805 4.62848 7.84319 4.78004 7.99475C4.93159 8.1463 5.01673 8.35184 5.01673 8.56617C5.01572 8.78846 4.92758 9.0015 4.77123 9.15951C4.62058 9.30559 4.41845 9.38648 4.20861 9.38459L4.19837 9.39483ZM4.19837 8.04451C4.12658 8.04252 4.05508 8.05504 3.98827 8.08141C3.92146 8.10778 3.86072 8.14742 3.80964 8.19792C3.75992 8.24744 3.72069 8.30652 3.69432 8.37155C3.66795 8.43659 3.65498 8.50624 3.65617 8.57641C3.65869 8.71766 3.71526 8.85262 3.8142 8.95347C3.91314 9.05431 4.04695 9.1134 4.18813 9.11861C4.32835 9.11332 4.46103 9.05382 4.55832 8.95272C4.65561 8.85161 4.70996 8.71673 4.70986 8.57641C4.71266 8.50667 4.70117 8.43712 4.67608 8.37199C4.65099 8.30686 4.61281 8.24756 4.56394 8.19773C4.51507 8.1479 4.4565 8.10857 4.39186 8.08222C4.32723 8.05587 4.25791 8.04306 4.18813 8.04451H4.19837Z" fill="#DE0F7E"/>
<path id="Vector_17" d="M4.20869 13.9674C4.47734 13.9654 4.73935 13.8839 4.96174 13.7332C5.18413 13.5825 5.3569 13.3693 5.4583 13.1205C5.55971 12.8717 5.58525 12.5985 5.53161 12.3353C5.47796 12.072 5.34754 11.8305 5.15686 11.6413C4.96618 11.452 4.72376 11.3235 4.46013 11.2718C4.19649 11.2201 3.92343 11.2476 3.67542 11.3509C3.42741 11.4542 3.21552 11.6286 3.06647 11.8521C2.91742 12.0756 2.8379 12.3382 2.83789 12.6069C2.83789 12.7864 2.8734 12.9642 2.94241 13.1299C3.01142 13.2957 3.11256 13.4461 3.23998 13.5726C3.36741 13.6991 3.5186 13.7991 3.68485 13.8669C3.8511 13.9346 4.02916 13.9688 4.20869 13.9674ZM4.20869 11.9215C4.38776 11.9215 4.55947 11.9926 4.68609 12.1193C4.8127 12.2459 4.88382 12.4176 4.88382 12.5966C4.88382 12.7757 4.8127 12.9475 4.68609 13.0741C4.55947 13.2007 4.38776 13.2718 4.20869 13.2718C4.02963 13.2718 3.85785 13.2007 3.73124 13.0741C3.60462 12.9475 3.5335 12.7757 3.5335 12.5966C3.5335 12.4176 3.60462 12.2459 3.73124 12.1193C3.85785 11.9926 4.02963 11.9215 4.20869 11.9215Z" fill="#DE0F7E"/>
<path id="Vector_18" d="M4.19837 14.1516C3.79955 14.1516 3.41702 13.9931 3.13501 13.7111C2.853 13.4291 2.69458 13.0467 2.69458 12.6478C2.69458 12.249 2.853 11.8665 3.13501 11.5845C3.41702 11.3025 3.79955 11.144 4.19837 11.144C4.59559 11.1466 4.97608 11.3042 5.25886 11.5832C5.54165 11.8621 5.70435 12.2405 5.71234 12.6376C5.7097 13.0366 5.55075 13.4186 5.2696 13.7016C4.98845 13.9847 4.60754 14.1462 4.20861 14.1516H4.19837ZM4.19837 13.8652C4.35981 13.8661 4.51981 13.8349 4.66908 13.7734C4.81836 13.712 4.95392 13.6214 5.06787 13.5071C5.18007 13.3942 5.26863 13.26 5.32836 13.1125C5.38808 12.9649 5.41778 12.807 5.4157 12.6478C5.41571 12.4871 5.38386 12.3279 5.32205 12.1796C5.26023 12.0312 5.16963 11.8966 5.05551 11.7834C4.94138 11.6702 4.80597 11.5808 4.6571 11.5202C4.50822 11.4597 4.34885 11.4292 4.18813 11.4305C4.02875 11.4305 3.87091 11.462 3.72379 11.5233C3.57667 11.5846 3.44316 11.6745 3.33094 11.7876C3.21871 11.9008 3.13001 12.0351 3.06995 12.1827C3.00989 12.3304 2.97969 12.4885 2.98104 12.6478C2.98371 12.9699 3.11284 13.2779 3.34055 13.5057C3.56827 13.7334 3.87634 13.8625 4.19837 13.8652ZM4.19837 13.4662C3.97986 13.4615 3.77134 13.3737 3.61527 13.2207C3.53909 13.1442 3.47899 13.0531 3.43858 12.953C3.39817 12.8528 3.37828 12.7456 3.38001 12.6376C3.38529 12.4232 3.47351 12.2191 3.62614 12.0684C3.77876 11.9177 3.98389 11.832 4.19837 11.8294C4.3048 11.8279 4.41041 11.848 4.50887 11.8884C4.60733 11.9289 4.6966 11.9888 4.77123 12.0647C4.88626 12.178 4.96522 12.3227 4.99819 12.4808C5.03116 12.6388 5.01668 12.803 4.95654 12.9528C4.8964 13.1026 4.7933 13.2312 4.66022 13.3226C4.52713 13.4139 4.37002 13.4639 4.20861 13.4662H4.19837ZM4.19837 12.1056C4.05719 12.1108 3.92338 12.1699 3.82444 12.2708C3.7255 12.3716 3.66893 12.5066 3.66641 12.6478C3.66627 12.7892 3.72135 12.925 3.81988 13.0263C3.86941 13.076 3.92842 13.1152 3.99345 13.1416C4.05849 13.168 4.12821 13.1809 4.19837 13.1797C4.33674 13.1797 4.46941 13.1248 4.56725 13.027C4.66509 12.9291 4.7201 12.7964 4.7201 12.658C4.72145 12.5868 4.70876 12.5161 4.68276 12.4498C4.65676 12.3835 4.61796 12.323 4.56856 12.2717C4.51916 12.2204 4.46013 12.1793 4.39486 12.1508C4.32959 12.1223 4.25934 12.107 4.18813 12.1056H4.19837Z" fill="#DE0F7E"/>
</g>
<defs>
<clipPath id="clip0_952_2319">
<rect width="20.7048" height="20.7048" fill="white" transform="translate(0.658936 0.259766)"/>
</clipPath>
</defs>
</svg>
