<svg width="29" height="29" viewBox="0 0 29 29" fill="none" xmlns="http://www.w3.org/2000/svg">
<g id="dis_selected">
<g id="Group 10859">
<path id="Vector" d="M1.26237 17.3197L1.26234 17.3197C1.08019 17.1291 0.984184 16.8815 0.990185 16.6179C0.996186 16.3543 1.10334 16.1114 1.29403 15.9292L0.924129 15.5421L1.29403 15.9292L15.8023 2.06663C16.3925 1.50278 17.1642 1.20353 17.9802 1.22211L25.0769 1.38366C25.9928 1.40451 26.7871 1.91219 27.2164 2.65692L27.5212 3.51083C27.5457 3.66168 27.5569 3.81689 27.5533 3.97549L27.3917 11.0721C27.3731 11.8882 27.0391 12.6454 26.449 13.2093C26.449 13.2093 26.449 13.2093 26.449 13.2093L11.9406 27.0718C11.745 27.2587 11.492 27.349 11.2388 27.3432C10.9856 27.3375 10.7371 27.2358 10.5501 27.0401C10.5501 27.0401 10.5501 27.0401 10.55 27.0401L1.26237 17.3197Z" fill="#DE0F7E" stroke="#DE0F7E" stroke-width="1.07088"/>
<path id="Vector_2" d="M15.1021 7.91408C14.9736 7.91115 14.8491 7.95941 14.7562 8.04823C14.6632 8.13705 14.6093 8.25916 14.6064 8.38769L14.3734 18.6228C14.3705 18.7513 14.4187 18.8758 14.5076 18.9687C14.5964 19.0617 14.7185 19.1155 14.847 19.1185C14.9756 19.1214 15.1 19.0731 15.193 18.9843C15.2859 18.8955 15.3398 18.7734 15.3427 18.6449L15.5757 8.40976C15.5786 8.28122 15.5304 8.15679 15.4416 8.06383C15.3527 7.97087 15.2306 7.917 15.1021 7.91408ZM12.7911 12.0266C12.0156 11.2147 10.7242 11.1854 9.91259 11.961C9.10086 12.7366 9.07146 14.0279 9.84706 14.8397C10.2349 15.2456 10.7516 15.4558 11.2728 15.4676C11.794 15.4795 12.3199 15.2929 12.7257 14.9052C13.1189 14.5294 13.3423 14.0231 13.3547 13.4794C13.3671 12.9357 13.1669 12.4197 12.7911 12.0266ZM12.0559 14.2041C11.6307 14.6104 10.9543 14.595 10.5481 14.1698C10.1418 13.7446 10.1572 13.0682 10.5824 12.6619C10.795 12.4588 11.0704 12.3611 11.3434 12.3673C11.6165 12.3735 11.8871 12.4836 12.0903 12.6963C12.1873 12.7973 12.2634 12.9166 12.3141 13.0472C12.3647 13.1779 12.389 13.3172 12.3854 13.4573C12.3826 13.5974 12.352 13.7355 12.2954 13.8637C12.2389 13.9919 12.1574 14.1076 12.0559 14.2041ZM20.102 12.1929C19.3264 11.3812 18.035 11.3518 17.2234 12.1274C16.4117 12.903 16.3823 14.1944 17.1579 15.0061C17.5457 15.412 18.0624 15.6222 18.5837 15.634C19.1049 15.6459 19.6307 15.4594 20.0365 15.0716C20.8482 14.296 20.8776 13.0047 20.102 12.1929ZM19.3667 14.3706C18.9414 14.7769 18.2651 14.7614 17.8589 14.3362C17.4526 13.911 17.468 13.2347 17.8932 12.8284C18.1058 12.6252 18.3812 12.5275 18.6542 12.5338C18.9272 12.54 19.1979 12.6501 19.4011 12.8627C19.8073 13.2879 19.7919 13.9643 19.3667 14.3706Z" fill="white"/>
</g>
</g>
</svg>
