<svg width="29" height="29" viewBox="0 0 29 29" fill="none" xmlns="http://www.w3.org/2000/svg">
<g id="Group">
<path id="Vector" d="M1.83757 17.3197L1.83753 17.3197C1.65539 17.1291 1.55938 16.8815 1.56538 16.6179C1.57138 16.3543 1.67853 16.1114 1.86922 15.9292L1.49932 15.5421L1.86923 15.9292L16.3775 2.06663C16.9677 1.50278 17.7394 1.20353 18.5554 1.22211L25.6521 1.38366C26.568 1.40451 27.3623 1.91219 27.7916 2.65692L28.0964 3.51083C28.1209 3.66168 28.1321 3.81689 28.1285 3.97549L27.9669 11.0721C27.9483 11.8882 27.6143 12.6454 27.0242 13.2093C27.0242 13.2093 27.0242 13.2093 27.0242 13.2093L12.5158 27.0718C12.3202 27.2587 12.0672 27.349 11.814 27.3432C11.5608 27.3375 11.3123 27.2358 11.1253 27.0401C11.1253 27.0401 11.1253 27.0401 11.1252 27.0401L1.83757 17.3197Z" stroke="#B8B8B8" stroke-width="1.07088"/>
<path id="Vector_2" d="M15.6763 7.91408C15.5478 7.91115 15.4233 7.95941 15.3304 8.04823C15.2374 8.13705 15.1836 8.25916 15.1806 8.38769L14.9476 18.6228C14.9447 18.7513 14.993 18.8758 15.0818 18.9687C15.1706 19.0617 15.2927 19.1155 15.4212 19.1185C15.5498 19.1214 15.6742 19.0731 15.7672 18.9843C15.8601 18.8955 15.914 18.7734 15.9169 18.6449L16.1499 8.40976C16.1529 8.28122 16.1046 8.15679 16.0158 8.06383C15.927 7.97087 15.8048 7.917 15.6763 7.91408ZM13.3654 12.0266C12.5898 11.2147 11.2984 11.1854 10.4868 11.961C9.67508 12.7366 9.64568 14.0279 10.4213 14.8397C10.8091 15.2456 11.3258 15.4558 11.8471 15.4676C12.3682 15.4795 12.8941 15.2929 13.2999 14.9052C13.6932 14.5294 13.9165 14.0231 13.9289 13.4794C13.9413 12.9357 13.7411 12.4197 13.3654 12.0266ZM12.6301 14.2041C12.2049 14.6104 11.5285 14.595 11.1223 14.1698C10.716 13.7446 10.7314 13.0682 11.1566 12.6619C11.3692 12.4588 11.6446 12.3611 11.9176 12.3673C12.1907 12.3735 12.4613 12.4836 12.6645 12.6963C12.7616 12.7973 12.8376 12.9166 12.8883 13.0472C12.9389 13.1779 12.9632 13.3172 12.9596 13.4573C12.9568 13.5974 12.9262 13.7355 12.8696 13.8637C12.8131 13.9919 12.7317 14.1076 12.6301 14.2041ZM20.6762 12.1929C19.9006 11.3812 18.6092 11.3518 17.7977 12.1274C16.9859 12.903 16.9565 14.1944 17.7321 15.0061C18.1199 15.412 18.6366 15.6222 19.1579 15.634C19.6791 15.6459 20.2049 15.4594 20.6107 15.0716C21.4224 14.296 21.4518 13.0047 20.6762 12.1929ZM19.9409 14.3706C19.5157 14.7769 18.8393 14.7614 18.4331 14.3362C18.0268 13.911 18.0422 13.2347 18.4674 12.8284C18.68 12.6252 18.9554 12.5275 19.2284 12.5338C19.5015 12.54 19.7721 12.6501 19.9753 12.8627C20.3815 13.2879 20.3661 13.9643 19.9409 14.3706Z" fill="#B8B8B8"/>
</g>
</svg>
