<svg width="28" height="28" viewBox="0 0 28 28" fill="none" xmlns="http://www.w3.org/2000/svg">
<g id="Iconly/Bold/Discount">
<g id="Discount">
<path id="Vector" d="M10.9656 1.52791C12.5452 -0.0632628 15.1239 -0.0632627 16.717 1.51576L17.7026 2.49962C18.0806 2.87751 18.5936 3.09479 19.1337 3.09479H20.5243C22.7654 3.09479 24.588 4.91539 24.588 7.15572V8.54716C24.588 9.08564 24.804 9.59849 25.182 9.97638L26.1541 10.9481C26.9237 11.7039 27.3422 12.7296 27.3422 13.8092C27.3557 14.8889 26.9372 15.9159 26.1811 16.6839L25.182 17.6826C24.804 18.0605 24.588 18.5733 24.588 19.1145V20.5032C24.588 22.7435 22.7654 24.5669 20.5243 24.5669H19.1337C18.5936 24.5669 18.0806 24.7814 17.7026 25.1593L16.7305 26.131C15.934 26.9286 14.8944 27.3187 13.8548 27.3187C12.8153 27.3187 11.7757 26.9286 10.9791 26.1459L9.99359 25.1593C9.61556 24.7814 9.10253 24.5669 8.5625 24.5669H7.17191C4.93077 24.5669 3.10816 22.7435 3.10816 20.5032V19.1145C3.10816 18.5733 2.89214 18.0605 2.51412 17.6691L1.54206 16.7109C-0.0375418 15.1332 -0.0510427 12.5541 1.52856 10.9629L2.51412 9.97638C2.89214 9.59849 3.10816 9.08564 3.10816 8.53231V7.15572C3.10816 4.91539 4.93077 3.09479 7.17191 3.09479H8.5625C9.10253 3.09479 9.61556 2.87751 9.99359 2.49962L10.9656 1.52791ZM17.3245 16.117C16.663 16.117 16.1365 16.6447 16.1365 17.2912C16.1365 17.9525 16.663 18.4788 17.3245 18.4788C17.9726 18.4788 18.4991 17.9525 18.4991 17.2912C18.4991 16.6447 17.9726 16.117 17.3245 16.117ZM18.1481 9.51751C17.6891 9.06 16.9465 9.06 16.4875 9.51751L9.54806 16.4544C9.08903 16.9133 9.08903 17.6691 9.54806 18.1279C9.76407 18.3574 10.0611 18.4788 10.3716 18.4788C10.6956 18.4788 10.9927 18.3574 11.2087 18.1279L18.1481 11.1924C18.6071 10.7335 18.6071 9.97638 18.1481 9.51751ZM10.3851 9.18012C9.73707 9.18012 9.19704 9.70646 9.19704 10.3543C9.19704 11.0169 9.73707 11.5419 10.3851 11.5419C11.0332 11.5419 11.5597 11.0169 11.5597 10.3543C11.5597 9.70646 11.0332 9.18012 10.3851 9.18012Z" fill="#DE0F7E"/>
</g>
</g>
</svg>
