<svg width="30" height="30" viewBox="0 0 30 30" fill="none" xmlns="http://www.w3.org/2000/svg">
<g id="Group">
<path id="Vector" d="M18.2156 29.561C17.5384 29.561 16.9333 29.066 16.3456 28.5854C15.9864 28.2914 15.4941 27.8889 15.2565 27.8889C15.0192 27.8889 14.5269 28.2914 14.1678 28.5854C13.5239 29.1118 12.7937 29.7102 11.9896 29.526C11.1599 29.3374 10.7537 28.4649 10.3952 27.6956C10.2163 27.3108 9.94533 26.729 9.75275 26.6359C9.54849 26.5361 8.91434 26.69 8.4948 26.7908C7.67808 26.9874 6.7529 27.209 6.09872 26.6873C5.44221 26.163 5.45389 25.2081 5.46491 24.366C5.47025 23.9365 5.47826 23.2876 5.34008 23.1141C5.20357 22.9432 4.57176 22.808 4.15356 22.7186C3.32649 22.5417 2.38996 22.3411 2.02282 21.5801C1.66102 20.8308 2.08323 19.981 2.45504 19.2314C2.64829 18.8429 2.94 18.2552 2.88893 18.0299C2.84287 17.8279 2.34023 17.4378 2.0078 17.1794C1.3346 16.6574 0.571289 16.0647 0.571289 15.2076C0.571289 14.3505 1.3346 13.758 2.00813 13.2354C2.34056 12.9774 2.84321 12.5872 2.88927 12.3849C2.94033 12.1597 2.64862 11.5719 2.45571 11.1831C2.08356 10.4334 1.66169 9.58401 2.02382 8.83405C2.39096 8.07341 3.3275 7.87282 4.15422 7.69592C4.57243 7.60647 5.20424 7.4713 5.34042 7.30075C5.47926 7.12686 5.47125 6.47769 5.46591 6.04814C5.45523 5.20606 5.44355 4.2515 6.09972 3.72716C6.75356 3.20515 7.67942 3.42744 8.4958 3.62369C8.91601 3.72449 9.54949 3.87702 9.75342 3.77889C9.94633 3.68577 10.217 3.10436 10.3962 2.7192C10.7544 1.94954 11.1602 1.07742 11.99 0.888845C12.793 0.706611 13.5246 1.30271 14.1681 1.82939C14.5275 2.12343 15.0198 2.52595 15.2572 2.52595C15.4945 2.52595 15.9868 2.12343 16.3459 1.82972C16.99 1.30271 17.72 0.705276 18.5243 0.888845C19.3537 1.07742 19.7599 1.94987 20.1184 2.71953C20.2976 3.10436 20.5683 3.6861 20.7612 3.77922C20.9658 3.87768 21.599 3.72482 22.0185 3.62402C22.8352 3.42777 23.7607 3.20549 24.4149 3.72749C25.0714 4.25183 25.0597 5.20639 25.0487 6.04881C25.0434 6.47836 25.0354 7.12753 25.1736 7.30075C25.3101 7.4713 25.9419 7.60681 26.3601 7.69626C27.1871 7.87315 28.1237 8.07341 28.4908 8.83438C28.8526 9.58401 28.4304 10.4338 28.0586 11.1834C27.8653 11.5722 27.5736 12.1597 27.6247 12.3849C27.6708 12.5872 28.1734 12.9774 28.5058 13.2354C29.179 13.758 29.9423 14.3505 29.9423 15.2076C29.9423 16.0647 29.179 16.6571 28.5055 17.1798C28.1731 17.4378 27.6704 17.8276 27.6244 18.0305C27.5733 18.2558 27.865 18.8432 28.0579 19.2321C28.4301 19.9817 28.8519 20.8311 28.4898 21.5811C28.1227 22.3417 27.1861 22.5423 26.3594 22.7189C25.9412 22.8087 25.3094 22.9438 25.1729 23.1144C25.0344 23.2883 25.0424 23.9375 25.0477 24.367C25.0584 25.2088 25.0701 26.1633 24.4139 26.6877C23.7601 27.2097 22.8342 26.987 22.0178 26.7911C21.5976 26.6903 20.9641 26.5371 20.7602 26.6363C20.5673 26.729 20.2966 27.3108 20.1174 27.6956C19.7593 28.4656 19.3534 29.3377 18.5237 29.5263C18.4195 29.55 18.3167 29.561 18.2156 29.561ZM9.54615 25.2705C9.82284 25.2705 10.0882 25.3152 10.3328 25.433C10.9546 25.7328 11.2857 26.444 11.6058 27.1319C11.7643 27.4723 12.0941 28.1806 12.2853 28.224C12.4632 28.2553 13.044 27.7791 13.3223 27.5514C13.9224 27.0608 14.5426 26.5535 15.2565 26.5535C15.9704 26.5535 16.5909 27.0611 17.1906 27.5514C17.469 27.7791 18.0324 28.246 18.2283 28.224C18.4189 28.1802 18.749 27.4723 18.9072 27.1319C19.2269 26.444 19.558 25.7334 20.1801 25.433C20.813 25.1276 21.5833 25.3136 22.3292 25.4928C22.688 25.5789 23.436 25.7588 23.5802 25.644C23.7267 25.5272 23.717 24.7545 23.7123 24.3834C23.7027 23.6184 23.6927 22.8277 24.1292 22.281C24.5631 21.7376 25.3338 21.5727 26.0794 21.4132C26.4445 21.3351 27.2038 21.1726 27.2869 21.0007C27.3644 20.8395 27.0246 20.1546 26.8614 19.8255C26.5193 19.1363 26.1652 18.4234 26.322 17.7345C26.4739 17.0663 27.0904 16.5877 27.6861 16.1251C28.0085 15.8754 28.6073 15.4108 28.6073 15.2076C28.6073 15.0043 28.0085 14.5397 27.6868 14.2897C27.0907 13.8271 26.4742 13.3489 26.3224 12.6803C26.1658 11.9914 26.52 11.2785 26.8621 10.5893C27.0253 10.2602 27.3654 9.57567 27.2876 9.41413C27.2045 9.24191 26.4452 9.0797 26.0804 9.0016C25.3348 8.84206 24.5638 8.67718 24.1299 8.13415C23.6937 7.58778 23.7037 6.79677 23.7133 6.03212C23.718 5.66098 23.7277 4.88798 23.5812 4.77117C23.4377 4.65635 22.6894 4.83625 22.3299 4.92236C21.5843 5.10159 20.814 5.28716 20.1808 4.98177C19.559 4.68172 19.2279 3.9708 18.9078 3.28325C18.7493 2.94282 18.4199 2.23457 18.2283 2.19118C18.0447 2.15948 17.4693 2.63609 17.191 2.86338C16.5912 3.35435 15.9711 3.86166 15.2572 3.86166C14.5432 3.86166 13.9231 3.35401 13.323 2.86338C13.0446 2.63576 12.4639 2.16148 12.2853 2.19085C12.0944 2.23424 11.7643 2.94248 11.6061 3.28292C11.2861 3.97047 10.9553 4.68138 10.3335 4.98144C9.70068 5.28649 8.93036 5.10159 8.18407 4.92203C7.82527 4.83558 7.07665 4.65602 6.93313 4.7705C6.78661 4.88765 6.79629 5.66031 6.80096 6.03145C6.81064 6.79643 6.82065 7.58745 6.38409 8.13348C5.9502 8.67685 5.17954 8.84173 4.43392 9.00127C4.06878 9.07937 3.30947 9.24191 3.22637 9.4138C3.14893 9.575 3.4887 10.2599 3.65191 10.589C3.99402 11.2782 4.34814 11.9911 4.19127 12.68C4.03941 13.3482 3.42295 13.8268 2.82719 14.2894C2.50511 14.5397 1.90634 15.0043 1.90634 15.2076C1.90634 15.4108 2.50511 15.8758 2.82685 16.1254C3.42295 16.588 4.03941 17.066 4.19127 17.7345C4.34781 18.4234 3.99369 19.136 3.65158 19.8255C3.48837 20.1546 3.14827 20.8391 3.22603 21.0007C3.30914 21.1732 4.06845 21.3354 4.43358 21.4135C5.17887 21.5731 5.94986 21.738 6.38376 22.2813C6.81998 22.8277 6.80997 23.6184 6.80029 24.3834C6.79562 24.7545 6.78594 25.5275 6.93246 25.6443C7.07598 25.7575 7.82427 25.5792 8.18373 25.4928C8.64065 25.3826 9.10759 25.2705 9.54615 25.2705ZM11.0561 20.3522L20.4014 11.0068C20.4652 10.9453 20.516 10.8716 20.551 10.7902C20.586 10.7087 20.6044 10.6211 20.6052 10.5325C20.606 10.4439 20.5891 10.356 20.5555 10.2739C20.5219 10.1919 20.4724 10.1174 20.4097 10.0547C20.347 9.99201 20.2725 9.94245 20.1905 9.90888C20.1084 9.87532 20.0205 9.85843 19.9319 9.8592C19.8433 9.85997 19.7557 9.87839 19.6742 9.91337C19.5928 9.94835 19.5191 9.99921 19.4575 10.063L10.1122 19.4083C10.0485 19.4699 9.9976 19.5435 9.96262 19.625C9.92763 19.7064 9.90922 19.794 9.90845 19.8826C9.90768 19.9713 9.92457 20.0592 9.95813 20.1412C9.9917 20.2232 10.0413 20.2978 10.1039 20.3605C10.1666 20.4231 10.2411 20.4727 10.3232 20.5063C10.4052 20.5398 10.4931 20.5567 10.5817 20.5559C10.6704 20.5552 10.758 20.5368 10.8394 20.5018C10.9209 20.4668 10.9945 20.4159 11.0561 20.3522ZM11.9192 14.2063C10.6312 14.2063 9.58286 13.1583 9.58286 11.87C9.58286 10.5816 10.6312 9.53362 11.9192 9.53362C13.2072 9.53362 14.2555 10.5816 14.2555 11.87C14.2555 13.1583 13.2072 14.2063 11.9192 14.2063ZM11.9192 10.8687C11.3672 10.8687 10.9179 11.3179 10.9179 11.87C10.9179 12.422 11.3672 12.8712 11.9192 12.8712C12.4712 12.8712 12.9205 12.422 12.9205 11.87C12.9205 11.3179 12.4712 10.8687 11.9192 10.8687ZM18.5944 20.8815C17.3065 20.8815 16.2581 19.8332 16.2581 18.5452C16.2581 17.2572 17.3065 16.2089 18.5944 16.2089C19.8824 16.2089 20.9308 17.2572 20.9308 18.5452C20.9308 19.8332 19.8824 20.8815 18.5944 20.8815ZM18.5944 17.5439C18.0424 17.5439 17.5932 17.9931 17.5932 18.5452C17.5932 19.0972 18.0424 19.5465 18.5944 19.5465C19.1465 19.5465 19.5957 19.0972 19.5957 18.5452C19.5957 17.9931 19.1465 17.5439 18.5944 17.5439Z" fill="#B8B8B8"/>
</g>
</svg>
