<svg width="31" height="29" viewBox="0 0 31 29" fill="none" xmlns="http://www.w3.org/2000/svg">
<g id="Discounts_selected">
<g id="Group 10774">
<g id="Group 10773">
<path id="Vector 194" d="M10.4674 3.61008L11.705 2.08133L12.2874 0.84375L15.4177 2.59086L18.6936 0.84375L20.5864 3.61008H24.2991L24.7358 6.88596L28.3029 8.19631L27.1382 11.7634L29.5405 14.6025L27.1382 17.4416L28.3029 20.7175L24.2991 22.2463V25.6678L20.5864 25.231L18.6936 28.2885L15.4177 26.3957L12.2874 28.2885L10.0307 25.231L6.46357 25.6678V22.2463L2.75091 20.7175L3.84284 17.4416L1.29492 14.6025L3.84284 12.4186V11.3266L2.75091 8.99709L3.26047 8.19631L6.46357 6.88596V3.61008H7.77387H10.4674Z" fill="#DE0F7E"/>
<path id="Vector" d="M18.4314 28.8234C17.7542 28.8234 17.1491 28.3284 16.5614 27.8478C16.2022 27.5537 15.7099 27.1512 15.4723 27.1512C15.235 27.1512 14.7427 27.5537 14.3836 27.8478C13.7397 28.3741 13.0095 28.9726 12.2054 28.7883C11.3757 28.5997 10.9695 27.7273 10.6111 26.958C10.4322 26.5731 10.1612 25.9914 9.96857 25.8983C9.76431 25.7985 9.13016 25.9523 8.71062 26.0531C7.8939 26.2497 6.96872 26.4713 6.31454 25.9497C5.65803 25.4253 5.66971 24.4704 5.68073 23.6284C5.68607 23.1988 5.69408 22.55 5.5559 22.3764C5.41939 22.2055 4.78758 22.0704 4.36938 21.9809C3.54232 21.804 2.60578 21.6034 2.23864 20.8424C1.87684 20.0932 2.29905 19.2434 2.67086 18.4938C2.86411 18.1053 3.15582 17.5175 3.10475 17.2922C3.05869 17.0903 2.55605 16.7001 2.22362 16.4418C1.55042 15.9198 0.787109 15.327 0.787109 14.4699C0.787109 13.6128 1.55042 13.0204 2.22396 12.4977C2.55638 12.2397 3.05903 11.8496 3.10509 11.6473C3.15615 11.422 2.86444 10.8343 2.67153 10.4454C2.29939 9.6958 1.87751 8.84637 2.23964 8.09641C2.60678 7.33577 3.54332 7.13518 4.37004 6.95828C4.78825 6.86883 5.42006 6.73366 5.55624 6.56311C5.69508 6.38922 5.68707 5.74005 5.68173 5.3105C5.67105 4.46842 5.65937 3.51386 6.31554 2.98952C6.96938 2.46751 7.89524 2.6898 8.71162 2.88605C9.13183 2.98685 9.76531 3.13938 9.96924 3.04125C10.1622 2.94813 10.4328 2.36672 10.6121 1.98156C10.9702 1.2119 11.376 0.33978 12.2058 0.151204C13.0088 -0.0310297 13.7404 0.565069 14.3839 1.09175C14.7434 1.38579 15.2357 1.78831 15.473 1.78831C15.7103 1.78831 16.2026 1.38579 16.5617 1.09208C17.2059 0.565069 17.9358 -0.0323648 18.7402 0.151204C19.5696 0.33978 19.9758 1.21223 20.3342 1.98189C20.5134 2.36672 20.7841 2.94846 20.977 3.04158C21.1816 3.14004 21.8148 2.98718 22.2343 2.88638C23.051 2.69013 23.9766 2.46785 24.6307 2.98985C25.2872 3.51419 25.2756 4.46875 25.2645 5.31117C25.2592 5.74072 25.2512 6.38988 25.3894 6.56311C25.5259 6.73366 26.1577 6.86917 26.5759 6.95862C27.403 7.13551 28.3395 7.33577 28.7066 8.09674C29.0684 8.84637 28.6462 9.69613 28.2744 10.4458C28.0812 10.8346 27.7895 11.422 27.8405 11.6473C27.8866 11.8496 28.3892 12.2397 28.7217 12.4977C29.3949 13.0204 30.1582 13.6128 30.1582 14.4699C30.1582 15.327 29.3949 15.9195 28.7213 16.4421C28.3889 16.7001 27.8863 17.09 27.8402 17.2929C27.7891 17.5182 28.0808 18.1056 28.2737 18.4944C28.6459 19.2441 29.0678 20.0935 28.7056 20.8435C28.3385 21.6041 27.402 21.8047 26.5752 21.9812C26.157 22.071 25.5252 22.2062 25.3887 22.3768C25.2502 22.5506 25.2582 23.1998 25.2635 23.6294C25.2742 24.4711 25.2859 25.4257 24.6297 25.95C23.9759 26.472 23.05 26.2494 22.2337 26.0535C21.8135 25.9527 21.18 25.7995 20.976 25.8986C20.7831 25.9914 20.5124 26.5731 20.3332 26.958C19.9751 27.728 19.5692 28.6001 18.7395 28.7887C18.6354 28.8124 18.5326 28.8234 18.4314 28.8234ZM9.76197 24.5329C10.0387 24.5329 10.304 24.5776 10.5486 24.6954C11.1704 24.9951 11.5015 25.7064 11.8216 26.3942C11.9802 26.7347 12.3099 27.4429 12.5012 27.4863C12.6791 27.5177 13.2598 27.0414 13.5382 26.8138C14.1383 26.3232 14.7584 25.8158 15.4723 25.8158C16.1862 25.8158 16.8067 26.3235 17.4065 26.8138C17.6848 27.0414 18.2482 27.5083 18.4441 27.4863C18.6347 27.4426 18.9648 26.7347 19.123 26.3942C19.4427 25.7064 19.7738 24.9958 20.396 24.6954C21.0288 24.39 21.7991 24.5759 22.5451 24.7551C22.9039 24.8413 23.6518 25.0212 23.796 24.9063C23.9425 24.7895 23.9328 24.0169 23.9282 23.6457C23.9185 22.8807 23.9085 22.0901 24.345 21.5434C24.7789 21 25.5496 20.8351 26.2952 20.6756C26.6603 20.5975 27.4197 20.4349 27.5028 20.263C27.5802 20.1018 27.2404 19.417 27.0772 19.0879C26.7351 18.3986 26.381 17.6857 26.5379 16.9968C26.6897 16.3287 27.3062 15.85 27.9019 15.3874C28.2244 15.1378 28.8231 14.6732 28.8231 14.4699C28.8231 14.2667 28.2244 13.8021 27.9026 13.5521C27.3065 13.0895 26.69 12.6112 26.5382 11.9427C26.3817 11.2538 26.7358 10.5409 27.0779 9.85166C27.2411 9.52257 27.5812 8.83803 27.5034 8.67649C27.4203 8.50427 26.661 8.34206 26.2962 8.26396C25.5506 8.10442 24.7796 7.93954 24.3457 7.39651C23.9095 6.85014 23.9195 6.05913 23.9292 5.29448C23.9338 4.92333 23.9435 4.15034 23.797 4.03352C23.6535 3.91871 22.9052 4.09861 22.5457 4.18472C21.8001 4.36395 21.0298 4.54952 20.3966 4.24413C19.7748 3.94408 19.4437 3.23316 19.1237 2.54561C18.9651 2.20518 18.6357 1.49693 18.4441 1.45354C18.2606 1.42184 17.6851 1.89845 17.4068 2.12574C16.807 2.6167 16.1869 3.12402 15.473 3.12402C14.7591 3.12402 14.1389 2.61637 13.5388 2.12574C13.2605 1.89812 12.6797 1.42384 12.5012 1.45321C12.3102 1.4966 11.9802 2.20484 11.8219 2.54528C11.5019 3.23283 11.1711 3.94374 10.5493 4.24379C9.9165 4.54885 9.14618 4.36395 8.39989 4.18439C8.04109 4.09794 7.29247 3.91838 7.14895 4.03286C7.00243 4.15001 7.01211 4.92267 7.01678 5.29381C7.02646 6.05879 7.03647 6.84981 6.59991 7.39584C6.16602 7.93921 5.39536 8.10409 4.64974 8.26363C4.2846 8.34173 3.52529 8.50427 3.44219 8.67616C3.36475 8.83736 3.70452 9.52224 3.86773 9.85133C4.20984 10.5406 4.56396 11.2535 4.40709 11.9423C4.25523 12.6105 3.63877 13.0892 3.04301 13.5518C2.72093 13.8021 2.12216 14.2667 2.12216 14.4699C2.12216 14.6732 2.72093 15.1381 3.04267 15.3878C3.63877 15.8504 4.25523 16.3283 4.40709 16.9968C4.56363 17.6857 4.20951 18.3983 3.8674 19.0879C3.70419 19.417 3.36409 20.1015 3.44185 20.263C3.52496 20.4356 4.28427 20.5978 4.6494 20.6759C5.39469 20.8354 6.16569 21.0003 6.59958 21.5437C7.0358 22.0901 7.02579 22.8807 7.01611 23.6457C7.01144 24.0169 7.00176 24.7899 7.14828 24.9067C7.2918 25.0198 8.04009 24.8416 8.39955 24.7551C8.85647 24.645 9.32341 24.5329 9.76197 24.5329ZM11.2719 19.6145L20.6172 10.2692C20.681 10.2076 20.7319 10.134 20.7668 10.0525C20.8018 9.97109 20.8202 9.88349 20.821 9.79486C20.8218 9.70623 20.8049 9.61833 20.7713 9.53629C20.7378 9.45426 20.6882 9.37972 20.6255 9.31705C20.5628 9.25437 20.4883 9.20481 20.4063 9.17124C20.3242 9.13768 20.2363 9.12079 20.1477 9.12156C20.0591 9.12233 19.9715 9.14075 19.89 9.17573C19.8086 9.21071 19.7349 9.26157 19.6734 9.32532L10.328 18.6707C10.2643 18.7322 10.2134 18.8059 10.1784 18.8873C10.1435 18.9688 10.125 19.0564 10.1243 19.145C10.1235 19.2336 10.1404 19.3215 10.174 19.4036C10.2075 19.4856 10.2571 19.5601 10.3198 19.6228C10.3824 19.6855 10.457 19.7351 10.539 19.7686C10.621 19.8022 10.7089 19.8191 10.7976 19.8183C10.8862 19.8175 10.9738 19.7991 11.0552 19.7641C11.1367 19.7291 11.2103 19.6783 11.2719 19.6145ZM12.135 13.4686C10.847 13.4686 9.79869 12.4206 9.79869 11.1323C9.79869 9.84399 10.847 8.79597 12.135 8.79597C13.423 8.79597 14.4714 9.84399 14.4714 11.1323C14.4714 12.4206 13.423 13.4686 12.135 13.4686ZM12.135 10.131C11.583 10.131 11.1337 10.5803 11.1337 11.1323C11.1337 11.6844 11.583 12.1336 12.135 12.1336C12.6871 12.1336 13.1363 11.6844 13.1363 11.1323C13.1363 10.5803 12.6871 10.131 12.135 10.131ZM18.8103 20.1439C17.5223 20.1439 16.4739 19.0955 16.4739 17.8076C16.4739 16.5196 17.5223 15.4712 18.8103 15.4712C20.0982 15.4712 21.1466 16.5196 21.1466 17.8076C21.1466 19.0955 20.0982 20.1439 18.8103 20.1439ZM18.8103 16.8063C18.2582 16.8063 17.809 17.2555 17.809 17.8076C17.809 18.3596 18.2582 18.8088 18.8103 18.8088C19.3623 18.8088 19.8115 18.3596 19.8115 17.8076C19.8115 17.2555 19.3623 16.8063 18.8103 16.8063Z" fill="#DE0F7E"/>
</g>
<path id="%" d="M11.9422 14.4114C11.4159 14.4114 10.9361 14.2979 10.5028 14.0709C10.0797 13.8335 9.74955 13.5085 9.51223 13.0958C9.27491 12.6727 9.15625 12.1981 9.15625 11.6719C9.15625 11.1457 9.27491 10.6762 9.51223 10.2634C9.74955 9.85072 10.0797 9.53085 10.5028 9.30385C10.9361 9.06654 11.4159 8.94788 11.9422 8.94788C12.4684 8.94788 12.943 9.06654 13.3661 9.30385C13.7891 9.53085 14.1193 9.85072 14.3566 10.2634C14.5939 10.6762 14.7126 11.1457 14.7126 11.6719C14.7126 12.1981 14.5939 12.6727 14.3566 13.0958C14.1193 13.5085 13.7891 13.8335 13.3661 14.0709C12.943 14.2979 12.4684 14.4114 11.9422 14.4114ZM19.9284 9.14908L12.4529 19.9832H10.9207L18.3962 9.14908H19.9284ZM11.9422 13.2041C12.3755 13.2041 12.7263 13.0648 12.9946 12.7862C13.2629 12.4973 13.397 12.1259 13.397 11.6719C13.397 11.2179 13.2629 10.8516 12.9946 10.573C12.7263 10.2944 12.3755 10.1551 11.9422 10.1551C11.5088 10.1551 11.158 10.2944 10.8897 10.573C10.6214 10.8516 10.4873 11.2179 10.4873 11.6719C10.4873 12.1259 10.6214 12.4973 10.8897 12.7862C11.158 13.0648 11.5088 13.2041 11.9422 13.2041ZM18.9069 20.1844C18.3807 20.1844 17.9009 20.0709 17.4676 19.8439C17.0445 19.6066 16.7143 19.2815 16.477 18.8688C16.2397 18.4458 16.121 17.9711 16.121 17.4449C16.121 16.9187 16.2397 16.4492 16.477 16.0365C16.7143 15.6237 17.0445 15.3039 17.4676 15.0769C17.9009 14.8396 18.3807 14.7209 18.9069 14.7209C19.4332 14.7209 19.9078 14.8396 20.3308 15.0769C20.7539 15.3039 21.0841 15.6237 21.3214 16.0365C21.5587 16.4492 21.6774 16.9187 21.6774 17.4449C21.6774 17.9711 21.5587 18.4458 21.3214 18.8688C21.0841 19.2815 20.7539 19.6066 20.3308 19.8439C19.9078 20.0709 19.4332 20.1844 18.9069 20.1844ZM18.9069 18.9772C19.3403 18.9772 19.6911 18.8379 19.9594 18.5593C20.2277 18.2704 20.3618 17.8989 20.3618 17.4449C20.3618 16.9909 20.2277 16.6246 19.9594 16.346C19.6911 16.0674 19.3403 15.9281 18.9069 15.9281C18.4736 15.9281 18.1176 16.0726 17.839 16.3615C17.5707 16.6401 17.4366 17.0012 17.4366 17.4449C17.4366 17.8989 17.5707 18.2704 17.839 18.5593C18.1176 18.8379 18.4736 18.9772 18.9069 18.9772Z" fill="white"/>
</g>
</g>
</svg>
