<svg width="15" id="Isolation_Mode" data-name="Isolation Mode" xmlns="http://www.w3.org/2000/svg" viewBox="0 0 29.87 30.7"><defs></defs><path class="reaction" d="M556.15,1315.84c.6.08,1.21.13,1.81.25a6.11,6.11,0,0,1,3.72,1.93,3.81,3.81,0,0,1,.87,2.81.57.57,0,0,0,.14.38,4,4,0,0,1,1.27,2.73,7.19,7.19,0,0,1-.18,1.45.64.64,0,0,0,.08.52,3.59,3.59,0,0,1,0,4.36.5.5,0,0,0,0,.34,3.48,3.48,0,0,1-2.43,4.63,9.11,9.11,0,0,1-3.88.34c-1.26-.13-2.51-.36-3.76-.54h-.21c.12.64.19,1.26.34,1.86.21.84.48,1.67.72,2.5A8.89,8.89,0,0,1,555,1343a3.9,3.9,0,0,1-4.18,3.59,1.69,1.69,0,0,1-1.49-1.33,5.44,5.44,0,0,1-.17-1.93,1.34,1.34,0,0,0-.08-.63,39.48,39.48,0,0,0-3.42-7.08,11.22,11.22,0,0,0-1.7-2.07,11.1,11.1,0,0,1-1.18-1.61,3.22,3.22,0,0,1-.19-.33,3.66,3.66,0,0,1-1.9.31c-1.13,0-2.26,0-3.39,0a2.63,2.63,0,0,1-2.56-2.71c0-1.88,0-3.77,0-5.66v-4.65a2.65,2.65,0,0,1,2-2.65,3,3,0,0,1,.8-.09h3.65a3.71,3.71,0,0,1,1.53.38,1.77,1.77,0,0,0,.86,0,69.91,69.91,0,0,1,8.91-.58c.45,0,.91-.05,1.36-.07ZM544,1318.19c0,.32,0,.59,0,.85v9.87c0,.3-.07.61-.09.92a.77.77,0,0,0,0,.26,4.78,4.78,0,0,0,1.24,2.16,12.18,12.18,0,0,1,2.12,2.63,45,45,0,0,1,3.48,7.24,2.85,2.85,0,0,1,.15,1.29,8.4,8.4,0,0,0,.07,1.22.31.31,0,0,0,.24.17,2.06,2.06,0,0,0,1.89-1.42,4.81,4.81,0,0,0,0-2.71c-.22-.92-.52-1.82-.77-2.74a9.35,9.35,0,0,1-.46-3.06,1.52,1.52,0,0,1,2-1.59,17.84,17.84,0,0,0,4.77.61,6.89,6.89,0,0,0,2.46-.39,1.68,1.68,0,0,0,1-2.45,1.2,1.2,0,0,1,.23-1.63,1,1,0,0,0,.12-.16,1.82,1.82,0,0,0,.22-1.9,4.06,4.06,0,0,0-.58-.86,1,1,0,0,1-.16-1.14,3,3,0,0,0,.27-.88,2.42,2.42,0,0,0-1.05-2.28,1,1,0,0,1-.41-1.18,2.08,2.08,0,0,0-.8-2.26,4.22,4.22,0,0,0-.9-.52,8.86,8.86,0,0,0-3.56-.65c-.83,0-1.66.09-2.49.09a61.13,61.13,0,0,0-6.49.26Zm-1.72,5.8c0-1.69,0-3.39,0-5.09a1,1,0,0,0-1.07-1.07h-3.66a1,1,0,0,0-1,1.07v10.19a.94.94,0,0,0,1,1h3.71a1.4,1.4,0,0,0,.41-.06.91.91,0,0,0,.62-1Z" transform="translate(-534.74 -1315.84)"></path></svg>