<svg width="29" height="19" viewBox="0 0 29 19" fill="none" xmlns="http://www.w3.org/2000/svg">
<g id="Isolation_Mode" clip-path="url(#clip0_1848_1054)">
<g id="Group 10888">
<path id="Vector" d="M28.0007 4.59987C23.6332 7.00703 19.2711 9.41595 14.9145 11.8267C14.7534 11.9315 14.5649 11.9873 14.3722 11.9873C14.1794 11.9873 13.9909 11.9315 13.8299 11.8267C10.0336 9.71998 6.23737 7.61864 2.44112 5.52266C1.7578 5.1471 1.06907 4.78231 0.385742 4.41748V17.1328C0.385742 17.1328 0.423681 17.1757 0.429104 17.1972C0.537269 17.7146 0.829227 18.1766 1.25205 18.4994C1.67488 18.8223 2.20059 18.9846 2.73397 18.957H26.0537C26.3648 18.9732 26.6758 18.9245 26.9666 18.814C27.2573 18.7035 27.5213 18.5337 27.7413 18.3155C27.9613 18.0974 28.1323 17.8359 28.2434 17.548C28.3544 17.2601 28.4029 16.9522 28.3857 16.6446V4.40137L28.0007 4.59987Z" fill="#DE0F7E"/>
<path id="Vector_2" d="M0.613681 2.87229C5.1294 5.35455 9.64874 7.84393 14.1717 10.3405C14.2345 10.3839 14.3093 10.4072 14.3859 10.4072C14.4625 10.4072 14.5373 10.3839 14.6001 10.3405C19.105 7.83678 23.6243 5.34919 28.1581 2.87766C28.1954 2.86515 28.2296 2.84474 28.2581 2.81786C28.2866 2.79099 28.3089 2.75824 28.3233 2.72198C28.3378 2.68573 28.3441 2.6468 28.3418 2.6079C28.3395 2.56899 28.3286 2.53103 28.31 2.49669C28.1592 2.03881 27.8628 1.64145 27.465 1.36394C27.0672 1.08642 26.5893 0.943641 26.1027 0.956901H2.63653C2.15469 0.947838 1.68287 1.09355 1.29178 1.37212C0.900685 1.6507 0.611381 2.04712 0.467244 2.50206C0.44636 2.53477 0.433556 2.57187 0.42984 2.61038C0.426124 2.6489 0.43161 2.68779 0.445861 2.72382C0.460112 2.75985 0.482712 2.79201 0.511863 2.8178C0.541015 2.84359 0.575902 2.86229 0.613681 2.87229Z" fill="#DE0F7E"/>
</g>
</g>
<defs>
<clipPath id="clip0_1848_1054">
<rect width="28" height="18" fill="white" transform="translate(0.375 0.962402)"/>
</clipPath>
</defs>
</svg>
