<svg width="56" height="45" viewBox="0 0 56 45" fill="none" xmlns="http://www.w3.org/2000/svg">
<path d="M55.4467 0.103662C54.9443 -0.0568898 54.5559 0.191684 54.3332 0.792458C54.1053 1.40877 53.893 2.03027 53.6133 2.62069C52.3548 5.27756 50.4799 7.48381 48.4497 9.5658C44.9746 13.1238 41.0954 16.2054 37.1024 19.1419C33.6583 21.6745 30.1727 24.1449 26.6769 26.605C25.2681 27.5942 24.4757 28.8735 24.3204 30.5878C24.253 31.2973 24.1028 32.0068 23.9268 32.706C23.4917 34.4254 22.9686 34.7518 21.1922 34.4721C21.1715 34.4721 21.1508 34.4617 21.1301 34.4617C19.799 34.2131 18.4628 34.0007 17.1422 33.7107C15.3295 33.3119 13.6877 33.5916 12.1961 34.7414C11.6782 35.1402 11.1085 35.4768 10.5388 35.8083C10.2229 35.9895 9.87072 36.2019 9.52372 36.2278C8.30145 36.3158 7.06365 36.4401 5.84656 36.3469C4.38606 36.233 3.12753 35.6115 2.37656 34.2028C3.31398 33.9852 4.21514 33.8143 5.09559 33.5657C9.53406 32.3279 13.3718 29.9041 16.8573 27.0349C20.4568 24.0725 23.8076 20.8096 27.2051 17.6089C31.7057 13.3621 36.1391 9.03755 40.9297 5.1118C41.0229 5.03411 41.1213 4.95644 41.2042 4.86321C41.5253 4.51103 41.5771 4.13295 41.2663 3.75488C40.9452 3.36645 40.5464 3.29915 40.1218 3.58918C39.9353 3.71865 39.7644 3.86365 39.5935 4.01902C35.1757 8.02245 30.758 12.0207 26.3454 16.0345C21.7464 20.2192 17.5306 24.8338 12.2427 28.2468C8.95402 30.3702 5.57725 32.1208 1.62042 32.5092C0.662291 32.6024 0.367083 33.0737 0.600141 34.0318C0.973036 35.57 1.86902 36.7509 3.32435 37.3206C6.3334 38.5014 9.3269 38.5428 12.1858 36.7975C12.6933 36.4867 13.206 36.176 13.6773 35.8134C14.4801 35.2075 15.3709 35.1194 16.3135 35.2696C16.8418 35.3525 17.3597 35.4768 17.8879 35.5649C19.3433 35.7979 20.7934 36.119 22.2591 36.2071C23.9009 36.3106 24.8642 35.6063 25.3614 34.0422C25.7135 32.9338 25.9673 31.7789 26.1072 30.624C26.247 29.4587 26.7856 28.656 27.7179 28.0034C30.9185 25.766 34.0985 23.5028 37.2888 21.2499C37.4235 21.1515 37.5737 21.0738 37.7912 20.9443C37.7497 21.1411 37.7342 21.2395 37.7083 21.3327C36.6311 25.1808 35.4813 28.9874 33.6324 32.5817C31.9388 35.8808 30.007 38.9261 27.0238 41.1997C26.4645 41.6244 26.4283 42.1578 26.9151 42.6809C28.1477 43.9964 29.7066 44.5402 31.4468 44.1725C34.8494 43.4578 37.4442 41.6088 38.713 38.2787C39.376 36.5437 40.5257 35.5027 42.2659 35.021C42.442 34.9744 42.6233 34.9278 42.7942 34.8553C44.1097 34.2908 45.4821 33.8195 46.7303 33.1306C48.1234 32.3641 48.5585 31.2092 48.1286 29.6711C47.7972 28.4747 47.3414 27.299 46.8339 26.1596C46.4402 25.2636 46.4403 24.4505 46.808 23.5545C48.6362 19.0953 50.4489 14.6258 52.246 10.1562C53.2197 7.72205 53.9499 5.18948 55.2758 2.90032C55.5606 2.40831 55.716 1.8438 55.9076 1.3C56.1148 0.709582 55.918 0.253855 55.4312 0.103662H55.4467ZM49.6824 12.3833C48.2581 15.8999 46.8494 19.4216 45.3941 22.9227C44.8347 24.2641 44.871 25.5381 45.4303 26.8588C45.855 27.8583 46.259 28.8683 46.5801 29.9041C46.896 30.9244 46.7251 31.4112 45.7773 31.8929C44.5758 32.504 43.3069 32.9804 42.0639 33.5139C41.7635 33.6434 41.458 33.7625 41.1472 33.8661C39.3035 34.4721 38.0657 35.6892 37.4235 37.5174C36.4343 40.3089 34.3108 41.8056 31.5866 42.5825C30.6803 42.8414 29.7584 42.7741 28.9401 42.2925C30.0743 41.0081 31.2086 39.7961 32.2496 38.5065C32.8918 37.7141 33.4356 36.8285 33.9483 35.9429C36.4343 31.6702 38.1123 27.0867 39.2517 22.2909C39.4899 21.2965 39.5676 20.1778 40.0907 19.3543C40.6034 18.5464 41.5874 18.0388 42.3643 17.3966C45.1765 15.0815 47.937 12.7199 50.4074 10.0267C50.4489 9.98532 50.5058 9.95424 50.6716 9.83512C50.3142 10.7622 50.0138 11.5805 49.6875 12.3833H49.6824Z" fill="#E01E89"/>
</svg>
