<svg width="22" height="21" viewBox="0 0 22 21" fill="none" xmlns="http://www.w3.org/2000/svg">
<g id="Frame" clip-path="url(#clip0_380_702)">
<g id="Group">
<path id="Vector" d="M1.08788 16.3743H3.41802C3.79688 15.1735 4.9554 14.291 6.33788 14.291C7.72035 14.291 8.87802 15.1735 9.25774 16.3743H20.3379C20.8209 16.3743 21.2129 16.7477 21.2129 17.2077C21.2129 17.6677 20.8209 18.041 20.3379 18.041H9.25778C8.87892 19.2418 7.72039 20.1243 6.33792 20.1243C4.95545 20.1243 3.79778 19.2418 3.41806 18.041H1.08792C0.604057 18.041 0.212933 17.6677 0.212933 17.2077C0.212933 16.7477 0.604015 16.3743 1.08788 16.3743ZM6.33788 18.4577C7.06152 18.4577 7.65038 17.8969 7.65038 17.2077C7.65038 16.5185 7.06152 15.9577 6.33788 15.9577C5.61424 15.9577 5.02538 16.5185 5.02538 17.2077C5.02538 17.8969 5.61428 18.4577 6.33788 18.4577ZM1.08788 3.04102H3.41802C3.79778 1.8402 4.9554 0.957703 6.33788 0.957703C7.72035 0.957703 8.87802 1.8402 9.25778 3.04102H20.3379C20.8209 3.04102 21.2129 3.41434 21.2129 3.87434C21.2129 4.33434 20.8209 4.70766 20.3379 4.70766H9.25778C8.87802 5.90852 7.72039 6.79102 6.33788 6.79102C4.95536 6.79102 3.79774 5.90852 3.41802 4.7077H1.08788C0.604015 4.7077 0.212891 4.33438 0.212891 3.87438C0.212891 3.41438 0.604015 3.04102 1.08788 3.04102ZM6.33788 5.12434C7.06152 5.12434 7.65038 4.56352 7.65038 3.87434C7.65038 3.18516 7.06152 2.62434 6.33788 2.62434C5.61424 2.62434 5.02538 3.18516 5.02538 3.87434C5.02538 4.56352 5.61428 5.12434 6.33788 5.12434ZM1.08788 9.7077H12.168C12.5478 8.50688 13.7054 7.62438 15.0879 7.62438C16.4703 7.62438 17.628 8.50688 18.0077 9.7077H20.3379C20.8209 9.7077 21.2129 10.081 21.2129 10.541C21.2129 11.001 20.8209 11.3743 20.3379 11.3743H18.0078C17.628 12.5752 16.4704 13.4577 15.0879 13.4577C13.7054 13.4577 12.5478 12.5752 12.168 11.3743H1.08792C0.604057 11.3743 0.212933 11.001 0.212933 10.541C0.212891 10.081 0.604015 9.7077 1.08788 9.7077ZM15.0879 11.791C15.8115 11.791 16.4004 11.2302 16.4004 10.541C16.4004 9.85184 15.8115 9.29102 15.0879 9.29102C14.3643 9.29102 13.7754 9.85184 13.7754 10.541C13.7754 11.2302 14.3643 11.791 15.0879 11.791Z" fill="#DE0F7E"/>
</g>
</g>
<defs>
<clipPath id="clip0_380_702">
<rect width="21" height="20" fill="white" transform="matrix(-1 0 0 1 21.2129 0.541016)"/>
</clipPath>
</defs>
</svg>
