<svg width="46" height="47" viewBox="0 0 46 47" fill="none" xmlns="http://www.w3.org/2000/svg">
<g id="Group">
<path id="Vector" d="M45.663 14.9274C45.663 13.9961 45.5157 13.0385 45.2842 12.1335C44.8475 10.4287 44.0004 8.96066 42.4008 8.06091C42.1325 7.90833 42.0798 7.75048 42.0746 7.46634C42.0535 5.95098 42.0272 4.43561 41.9588 2.92024C41.9167 1.95209 41.4274 1.28912 40.5539 1.11022C38.8228 0.762946 37.076 0.468291 35.3343 0.194683C34.5819 0.0789254 33.8137 0.0631403 33.0508 0H29.6201C29.3991 0.0263085 29.1782 0.068402 28.9519 0.0789254C26.6473 0.157851 24.3795 0.499861 22.1538 1.08917C21.2961 1.31542 20.7542 1.89947 20.7068 2.77291C20.6279 4.33037 20.5911 5.8931 20.5648 7.45582C20.5648 7.71891 20.4911 7.84519 20.2491 7.96094C19.9123 8.12406 19.5914 8.324 19.302 8.56078C17.8655 9.76044 17.1447 11.3758 16.9237 13.17C16.7342 14.7275 16.7237 16.3113 16.7132 17.8845C16.6922 23.3988 16.7027 28.9183 16.7027 34.4325V34.9271C15.3767 34.8745 14.5191 35.5375 13.9087 36.453C13.2984 36.4109 12.7301 36.2531 12.2092 36.353C10.0256 36.7582 8.06299 37.7106 6.27927 39.026C6.05302 39.1944 5.90569 39.1944 5.65313 39.1102C4.94806 38.8734 4.23247 38.6051 3.5011 38.5103C2.45928 38.3788 1.52795 38.7155 0.891286 39.6048C0.270406 40.4782 0.349342 41.4148 0.770277 42.3461C1.15964 43.209 1.84891 43.8089 2.68026 44.1824C4.08513 44.8139 5.52684 45.3821 6.95802 45.9504C7.25794 46.0714 7.59994 46.0977 7.92617 46.124C9.68884 46.2608 11.0779 44.9559 10.7675 43.3721C10.7464 43.2774 10.7991 43.1143 10.8727 43.067C11.2831 42.8039 11.7146 42.5671 12.1987 42.283C12.1987 42.5513 12.1934 42.7407 12.1987 42.9302C12.2829 44.877 13.9719 46.3345 15.8398 45.5242C15.9397 45.4821 16.1134 45.5031 16.1976 45.561C17.3551 46.3871 18.5285 46.2608 19.7176 45.6399C19.9018 45.5452 20.1438 45.4663 20.3438 45.4926C23.7007 45.9188 27.0682 46.1503 30.4515 46.1872C34.4083 46.2345 38.3493 45.9819 42.2798 45.5505C44.4739 45.3084 45.6999 43.4405 45.6894 41.7673C45.6315 32.8277 45.6736 23.8828 45.6473 14.9379L45.663 14.9274ZM22.0801 3.85682C22.0801 3.81473 22.0959 3.76737 22.1012 3.72528C22.1854 2.33093 22.0223 2.61506 23.4219 2.27831C25.7949 1.70479 28.21 1.45749 30.6514 1.51537C32.4194 1.55746 34.1978 1.56272 35.9552 1.7311C37.3496 1.8679 38.7229 2.22044 40.1014 2.50457C40.2435 2.53614 40.4487 2.73608 40.4592 2.86762C40.5592 4.41982 40.6276 5.97202 40.7065 7.59789C34.4135 7.0875 28.2416 7.07698 22.0749 7.5821C22.0749 6.30877 22.0749 5.0828 22.0749 3.85682H22.0801ZM4.29035 43.3143C3.72209 43.0144 3.16434 42.6934 2.6066 42.3829C2.5803 42.3672 2.56451 42.3409 2.5382 42.3198C1.98572 41.7936 1.76473 41.036 2.0173 40.5361C2.25933 40.052 2.98544 39.7731 3.73786 39.9889C4.52186 40.2099 5.27955 40.5361 6.06354 40.8255C5.76889 41.8515 5.21114 42.5987 4.55869 43.288C4.51133 43.3406 4.35875 43.3511 4.29035 43.3195V43.3143ZM9.25212 44.1298C9.02587 44.5666 8.58388 44.7244 8.1419 44.6455C7.4 44.5139 6.6739 44.2877 5.932 44.0983C6.46343 43.2406 6.93697 42.4724 7.48419 41.5832C8.0051 42.0409 8.55757 42.4671 9.04691 42.9617C9.34683 43.2669 9.47311 43.7036 9.25738 44.1246L9.25212 44.1298ZM10.1571 41.7515C10.1098 41.7831 9.98877 41.7515 9.93089 41.7042C9.13637 41.1201 8.35237 40.5308 7.52102 39.9152C7.59995 39.8573 7.69991 39.7679 7.81041 39.6995C8.26292 39.4417 8.72069 39.1891 9.26264 38.8839C9.47837 39.3101 9.70989 39.689 9.85722 40.0994C10.0256 40.5624 10.1203 41.0465 10.2308 41.5253C10.2466 41.5937 10.2098 41.7147 10.1571 41.7515ZM12.5144 40.2467C12.3986 40.5256 11.9829 40.6834 11.7041 40.8992C11.3515 39.9889 11.0306 39.1628 10.6938 38.2946C11.4726 37.9526 12.2829 37.5948 13.2352 37.8684C12.9985 38.6892 12.8195 39.489 12.5144 40.2414V40.2467ZM16.7921 41.4937C16.6395 42.0567 16.4659 42.6092 16.287 43.1617C16.2449 43.288 16.166 43.4037 16.0871 43.5089C15.6924 44.0614 15.0242 44.3771 14.5559 44.2403C14.0403 44.0877 13.6193 43.4984 13.6614 42.7723C13.7088 41.9304 13.8666 41.0938 13.9771 40.2257C15.0452 40.3098 15.8976 40.6834 16.7027 41.1885C16.7711 41.2306 16.8184 41.4043 16.7974 41.4937H16.7921ZM14.5401 38.7208C14.7664 38.021 14.9663 37.2686 15.5767 36.7266C16.2291 36.1478 17.0236 36.311 17.2131 37.1528C17.3551 37.7737 17.2446 38.4525 17.2236 39.1049C17.2236 39.2891 17.1499 39.4785 17.1131 39.6363C16.2502 39.3312 15.4136 39.0312 14.5349 38.7155L14.5401 38.7208ZM19.986 43.5195C19.4125 44.1456 18.7863 44.7139 17.8445 44.6613C17.6445 44.6507 17.4498 44.5823 17.1815 44.5245C17.9392 43.4353 18.1654 42.2461 18.3654 41.0517C18.3864 40.9202 18.5022 40.7992 18.5969 40.6255C19.2599 41.0623 19.7334 41.6095 20.1123 42.2356C20.6384 43.1091 20.6332 42.8144 19.986 43.5142V43.5195ZM19.8071 39.5837C20.3227 39.1365 20.8384 38.6051 21.6013 38.4156C22.017 38.3104 22.4169 38.2841 22.7273 38.6261C23.043 38.9734 23.0588 39.4311 22.8589 39.81C22.4958 40.4887 22.0486 41.1149 21.6382 41.7621C20.9857 40.9886 20.4122 40.3046 19.8071 39.589V39.5837ZM44.1845 42.3935C44.0266 43.3932 43.2006 43.9615 41.9746 44.1088C37.1601 44.677 32.3352 44.898 27.4944 44.6455C25.6055 44.5455 23.7218 44.3508 21.8381 44.1982C21.7276 44.1877 21.6171 44.1456 21.4487 44.1035C21.9223 43.5458 22.3695 43.0459 22.7852 42.5197C23.1851 42.0146 23.5481 41.4779 23.948 40.9781C24.0375 40.8676 24.2374 40.7729 24.3795 40.7781C25.5371 40.8255 26.6894 40.9097 27.8417 40.9676C31.8406 41.1622 35.8342 41.0412 39.8173 40.6624C41.1906 40.5308 42.5586 40.3256 43.9267 40.1572C44.0161 40.1467 44.1056 40.1572 44.2056 40.1572C44.2056 40.9044 44.3003 41.6674 44.1845 42.3935ZM43.6636 38.7419C39.0438 39.389 34.3978 39.6942 29.7359 39.5785C28.0679 39.5364 26.4052 39.4206 24.7426 39.3206C24.6215 39.3154 24.4163 39.1365 24.4111 39.0312C24.3164 37.6106 22.9851 36.453 21.1278 37.0476C20.4753 37.2581 19.9071 37.7263 19.3125 38.0841C19.1546 38.1789 19.0178 38.3157 18.8916 38.4209C18.8021 37.8211 18.86 37.1633 18.5969 36.7003C18.097 35.8216 18.1654 34.9219 18.1654 34.0063C18.1654 28.3237 18.1602 22.6463 18.1602 16.9637C18.1602 16.8585 18.1602 16.7585 18.1602 16.5638C26.8841 17.9003 35.5606 17.9319 44.2687 16.648C44.2687 17.1373 44.2687 17.5688 44.2687 18.0003C44.2687 24.6721 44.2687 31.3439 44.2792 38.021C44.2792 38.4788 44.2161 38.6735 43.6741 38.7471L43.6636 38.7419ZM18.1497 15.0853C18.318 13.0753 18.5969 11.1495 20.1912 9.71309C20.6121 9.33424 21.1014 9.11852 21.6908 9.07642C25.8422 8.75546 30.0042 8.56078 34.1662 8.72915C36.313 8.8186 38.4598 8.96066 40.6013 9.05538C41.58 9.09747 42.264 9.60785 42.827 10.3287C43.6215 11.3547 43.9688 12.5597 44.1424 13.8277C44.2003 14.2539 44.2266 14.6854 44.2687 15.1642C35.5395 16.4849 26.8683 16.4375 18.1497 15.0853Z" fill="#E01E89"/>
<path id="Vector_2" d="M2.0387 10.013C2.51751 10.0235 3.00158 10.034 3.4804 10.013C3.8645 9.99722 4.03288 10.1182 4.01183 10.5286C3.98553 11.0075 4.00131 11.4915 4.01183 11.9704C4.02762 12.9438 4.73268 13.7541 5.70083 13.8119C6.64268 13.8646 7.59504 13.8646 8.53688 13.8119C9.50503 13.7541 10.2101 12.9438 10.2259 11.9756C10.2364 11.481 10.2417 10.9812 10.2259 10.4866C10.2101 10.1235 10.368 10.0077 10.71 10.0183C11.1888 10.034 11.6728 10.0288 12.1517 10.0183C13.2145 10.0025 14.0038 9.23953 14.0301 8.18193C14.0511 7.34006 14.0511 6.49819 14.0301 5.65632C14.0038 4.60924 13.204 3.83051 12.1517 3.8042C11.6886 3.79368 11.2203 3.7779 10.7573 3.8042C10.3259 3.83577 10.1891 3.6674 10.2311 3.26225C10.2575 2.97812 10.2154 2.68873 10.2417 2.40459C10.3469 1.24702 9.8944 0.431459 8.79996 0H5.46405C4.36436 0.431459 3.91712 1.24702 4.02235 2.40459C4.04866 2.71503 4.01182 3.036 4.03287 3.3517C4.05392 3.67792 3.93817 3.81999 3.59616 3.8042C3.10156 3.78316 2.60695 3.78842 2.10709 3.8042C1.05475 3.83051 0.254984 4.60924 0.228676 5.65632C0.207629 6.51398 0.207629 7.36637 0.228676 8.22403C0.260246 9.22901 1.05475 9.99722 2.05973 10.013H2.0387ZM2.19654 5.26169C2.69114 5.25643 3.191 5.26169 3.6856 5.26169C4.78529 5.24065 5.43774 4.57767 5.44827 3.47798C5.44827 3.00969 5.44827 2.54666 5.44827 2.07837C5.45353 1.61008 5.61138 1.45223 6.06914 1.44697C6.77421 1.4417 7.48454 1.44697 8.1896 1.44697C8.57897 1.44697 8.77366 1.64165 8.77366 2.02575C8.77366 2.56771 8.7684 3.10966 8.77893 3.64635C8.79998 4.50927 9.4419 5.18803 10.3048 5.24065C10.8415 5.27222 11.3887 5.25117 11.9254 5.26169C12.4411 5.27222 12.5673 5.3985 12.5726 5.89836C12.5726 6.58764 12.5673 7.28218 12.5726 7.97147C12.5779 8.38714 12.3937 8.58182 11.978 8.5713C11.4834 8.56078 10.9836 8.56604 10.489 8.5713C9.484 8.58182 8.78944 9.2711 8.76839 10.2656C8.75787 10.7759 8.76839 11.2863 8.76839 11.7967C8.76839 12.1808 8.60002 12.386 8.19487 12.3702C7.83708 12.3597 7.47402 12.3702 7.11096 12.3702C6.77948 12.3702 6.448 12.3702 6.11651 12.3702C5.55877 12.3702 5.44301 12.2492 5.43775 11.6757C5.43775 11.1969 5.44301 10.7128 5.43775 10.234C5.4167 9.29215 4.72216 8.59761 3.77505 8.57656C3.24888 8.56604 2.72271 8.57656 2.19654 8.57656C1.82823 8.57656 1.63881 8.40819 1.63881 8.02934C1.63881 7.29271 1.64407 6.55607 1.63881 5.81943C1.63881 5.43533 1.82823 5.26696 2.18603 5.26169H2.19654Z" fill="#E01E89"/>
<path id="Vector_3" d="M12.5412 24.3511C13.4147 24.3406 13.9987 23.7671 14.025 22.8831C14.0355 22.4306 14.0355 21.9833 14.025 21.5308C14.0145 20.5522 13.4357 19.9734 12.4518 19.9523C12.2045 19.9471 11.9572 19.9523 11.6783 19.9523C11.6783 19.6366 11.6783 19.3999 11.6783 19.1631C11.6625 18.2107 11.0837 17.6319 10.1261 17.6109C9.68938 17.6004 9.25266 17.6004 8.8212 17.6109C7.92145 17.6372 7.33741 18.2107 7.30058 19.1105C7.29005 19.3788 7.30058 19.6419 7.30058 19.9576C6.97961 19.9576 6.71127 19.9471 6.44292 19.9576C5.58 19.9997 5.00122 20.5522 4.96438 21.3993C4.93808 21.936 4.93807 22.4832 4.9749 23.0199C5.03278 23.8092 5.62209 24.3353 6.40608 24.3458C6.68495 24.3458 6.96909 24.3458 7.31636 24.3458C7.31636 24.7142 7.29005 25.0457 7.31636 25.3719C7.38476 26.1559 7.96881 26.682 8.75806 26.6926C9.25266 26.6978 9.74725 26.6978 10.2471 26.6926C11.0469 26.682 11.6415 26.1085 11.6783 25.314C11.6941 25.0141 11.6783 24.7194 11.6783 24.3458C12.0098 24.3458 12.2781 24.3458 12.5465 24.3458L12.5412 24.3511ZM10.6049 23.2988C10.0682 23.8565 10.284 24.5668 10.2103 25.2351H8.78963C8.71071 24.5668 8.92117 23.8512 8.37922 23.2988C7.832 22.7358 7.11115 22.9831 6.44292 22.8884V21.4677C7.10063 21.3677 7.81622 21.5887 8.36343 21.0362C8.90013 20.4943 8.72123 19.805 8.77911 19.1262H10.1945C10.2997 19.7471 10.0524 20.468 10.5997 21.0205C11.1469 21.5782 11.8572 21.3783 12.5412 21.4519V22.8726C11.8993 22.9936 11.1574 22.7095 10.5997 23.2935L10.6049 23.2988Z" fill="#E01E89"/>
<path id="Vector_4" d="M39.8595 20.3891C39.6543 20.3207 39.3281 20.4206 39.1334 20.5574C38.8072 20.789 38.5546 21.1257 38.2389 21.3783C37.0551 22.3254 35.6291 22.7674 34.2348 23.2777C32.8562 23.7829 31.4724 24.2775 30.1307 24.8615C29.0783 25.3193 28.2101 26.077 27.4367 26.9609C26.8474 26.4821 26.2896 26.0296 25.7266 25.5824C25.2794 25.2246 24.8637 25.2246 24.5743 25.5718C24.2744 25.9296 24.3428 26.3243 24.79 26.6978C25.311 27.1293 25.8424 27.545 26.3633 27.9817C26.4475 28.0554 26.5474 28.2237 26.5159 28.2921C26.2791 28.8446 26.0108 29.3866 25.7319 29.9654C24.2376 28.029 23.3326 25.8981 23.0011 23.3882C24.4165 24.4195 25.9739 24.8194 27.4367 25.4245C27.8576 25.5981 28.268 25.4298 28.4259 25.0667C28.5995 24.6721 28.4259 24.2827 27.9839 24.0775C27.7945 23.9881 27.5998 23.9039 27.3998 23.8355C25.674 23.2462 24.006 22.5516 22.6433 21.2678C22.4907 21.1204 22.0908 21.0731 21.9014 21.1678C21.6962 21.273 21.4962 21.5887 21.4752 21.8255C21.4331 22.3464 21.4699 22.8778 21.5278 23.3988C21.8856 26.5032 23.1168 29.2234 25.1689 31.5754C25.2794 31.707 25.3636 31.9174 25.353 32.0858C25.2531 33.9327 26.1581 35.2902 27.8471 35.9953C29.0994 36.5162 30.3569 36.4846 31.6513 36.3478C35.587 35.9374 38.6125 33.4433 39.749 29.6602C40.6067 26.7978 40.5225 23.8723 40.3278 20.9468C40.312 20.7416 40.0542 20.4522 39.849 20.3838L39.8595 20.3891ZM37.9232 30.3863C36.6709 33.1539 34.4032 34.5325 31.4566 34.9113C30.4569 35.0376 29.4677 35.0902 28.489 34.6798C27.1841 34.1326 26.6264 33.2013 26.8474 31.8017C27.3367 28.7289 29.0783 26.6926 31.9617 25.6139C33.335 25.0983 34.7452 24.6773 36.1132 24.1407C37.0814 23.7618 38.0074 23.2567 38.9966 22.7831C39.065 25.3614 39.0282 27.9554 37.9285 30.3863H37.9232Z" fill="#E01E89"/>
<path id="Vector_5" d="M24.4846 5.82468C26.8629 5.34587 29.2622 5.1354 31.6826 5.14592C31.9825 5.14592 32.2824 5.14592 32.5823 5.14592C32.7928 5.14592 33.0033 5.17223 33.2138 5.18801C33.7925 5.22485 34.1556 4.96176 34.1819 4.49347C34.203 4.05675 33.8715 3.74105 33.319 3.72C30.2514 3.60425 27.1996 3.76736 24.1847 4.39876C23.6269 4.51452 23.3428 4.85127 23.4323 5.26694C23.527 5.72997 23.9216 5.94044 24.4899 5.82468H24.4846Z" fill="#E01E89"/>
<path id="Vector_6" d="M36.9238 5.5616C37.4342 5.67209 37.9499 5.7668 38.4655 5.8352C38.8812 5.88782 39.2653 5.50898 39.2548 4.92493C39.1337 4.81443 38.9549 4.51452 38.7023 4.43559C38.1972 4.27248 37.6552 4.20408 37.1238 4.1462C36.6976 4.09884 36.3871 4.37771 36.3398 4.77234C36.2977 5.13014 36.5345 5.48267 36.9238 5.5616Z" fill="#E01E89"/>
<path id="Vector_7" d="M36.7239 24.8457C36.4713 24.8562 36.1609 25.0561 35.9978 25.2614C35.3821 26.0401 34.635 26.6347 33.7405 27.1661C33.7615 27.024 33.7668 26.9346 33.7826 26.8504C33.872 26.3874 33.6931 26.0243 33.3143 25.9085C32.9144 25.7823 32.5408 25.998 32.383 26.4663C32.262 26.8188 32.1199 27.1766 32.0673 27.5449C31.9673 28.2447 31.5095 28.5867 30.8939 28.8393C30.8887 28.7604 30.8781 28.6867 30.8729 28.6183C30.8255 28.1185 30.5466 27.8448 30.1099 27.8606C29.6942 27.8764 29.4417 28.1553 29.4259 28.6446C29.4154 28.9761 29.4049 29.3076 29.4259 29.6338C29.447 29.9706 29.3522 30.2284 29.126 30.4862C28.5788 31.1176 28.1736 31.8332 28 32.6593C27.8948 33.1486 28.1105 33.4906 28.5419 33.5959C28.9261 33.6853 29.2733 33.4538 29.4154 33.0066C29.4996 32.7487 29.5995 32.5014 29.6837 32.2489C29.7679 32.0016 29.9205 31.9069 30.1889 31.9227C30.8939 31.9648 31.599 31.9911 32.3041 32.0068C32.8197 32.0174 33.1722 31.7438 33.2038 31.3228C33.2354 30.9019 32.9197 30.5915 32.3988 30.5494C32.0357 30.5178 31.6726 30.502 31.3096 30.481C31.841 30.0284 32.4146 29.7022 32.9512 29.3286C33.8457 28.7078 34.7665 28.3447 35.8715 28.7025C36.2451 28.8235 36.566 28.6288 36.6976 28.2605C36.8344 27.8764 36.7081 27.5555 36.3345 27.3502C36.2766 27.3187 36.224 27.2713 36.1924 27.2503C36.5555 26.8136 36.9291 26.4189 37.2395 25.9769C37.5763 25.4981 37.2711 24.8299 36.7134 24.8509L36.7239 24.8457Z" fill="#E01E89"/>
</g>
</svg>
