<svg width="44" height="29" viewBox="0 0 44 29" fill="none" xmlns="http://www.w3.org/2000/svg">
<g id="Group 10797">
<path id="Vector" d="M17.5837 0.643311H30.431C31.24 0.643311 31.7484 0.979624 31.9103 1.67782C31.977 1.96454 31.9452 2.27451 31.9522 2.57363C31.9576 2.7968 31.9661 3.02075 31.9522 3.24316C31.9382 3.46556 32.0297 3.53452 32.2497 3.53375C33.829 3.52523 35.4083 3.526 36.9876 3.52755C38.4545 3.52755 39.5634 4.40243 39.8455 5.83758C39.9315 6.27695 39.9028 6.74578 39.8687 7.196C39.8571 7.35099 39.6967 7.52767 39.5587 7.62996C39.4208 7.73225 39.3712 7.79346 39.4123 7.95697C39.7533 9.30016 40.0891 10.6465 40.4197 11.9958C40.4662 12.1849 40.5514 12.2872 40.7498 12.3275C42.3151 12.6468 43.5395 14.1292 43.5101 15.8572C43.4698 18.2083 43.5 20.5602 43.5 22.909C43.5 23.4514 43.2838 23.67 42.7375 23.6715C42.1539 23.6715 41.5704 23.6715 40.9869 23.6715C40.6305 23.6715 40.625 23.6715 40.6064 24.0194C40.5491 25.0323 40.1616 25.9002 39.496 26.648C37.6951 28.6627 34.3327 28.4124 32.8495 26.1559C32.4135 25.5135 32.1658 24.7619 32.1343 23.9861C32.125 23.7459 32.0397 23.6684 31.7949 23.6692C26.8943 23.6754 21.9937 23.6754 17.0931 23.6692C16.8382 23.6692 16.7661 23.7629 16.7607 23.9962C16.7158 25.8304 15.307 27.6817 13.1449 27.9816C12.5937 28.0647 12.0315 28.0378 11.4908 27.9026C10.95 27.7673 10.4414 27.5263 9.99421 27.1935C9.54705 26.8607 9.17021 26.4426 8.88544 25.9634C8.60067 25.4842 8.41361 24.9533 8.33503 24.4015C8.31387 24.3009 8.29834 24.1992 8.28853 24.0969C8.27846 23.6033 8.24282 23.6762 7.82979 23.6754C6.76583 23.6754 5.70109 23.6754 4.63713 23.6754C3.83431 23.6754 3.2508 23.1213 3.2229 22.3185C3.2074 21.89 3.2105 21.4599 3.2229 21.0314C3.22833 20.8384 3.16324 20.7756 2.97261 20.778C2.3457 20.7865 1.71956 20.7834 1.09266 20.778C0.844684 20.778 0.612214 20.7276 0.458781 20.5052C0.390502 20.4114 0.348972 20.3008 0.338618 20.1853C0.328263 20.0697 0.349467 19.9535 0.399981 19.849C0.450495 19.7446 0.528421 19.6558 0.625437 19.5922C0.722454 19.5286 0.834924 19.4924 0.950851 19.4877C1.10583 19.4746 1.26082 19.4823 1.4158 19.4823C3.39855 19.4823 5.38105 19.4823 7.36329 19.4823C7.63993 19.4823 7.87706 19.5536 8.02197 19.8023C8.28311 20.2518 7.97702 20.7718 7.43923 20.778C6.57209 20.7873 5.70497 20.7888 4.83861 20.778C4.58986 20.778 4.47982 20.8299 4.4992 21.1034C4.51635 21.439 4.51635 21.7752 4.4992 22.1108C4.493 22.3053 4.55809 22.3929 4.7619 22.3921C5.93822 22.3885 7.11402 22.3885 8.28931 22.3921C8.47529 22.3921 8.53573 22.2929 8.59927 22.1465C9.17891 20.7787 10.1933 19.8992 11.6431 19.5892C13.6975 19.1576 15.603 20.1704 16.4476 22.1015C16.5499 22.334 16.6801 22.3906 16.9126 22.3906C21.2723 22.3854 25.6322 22.3839 29.9924 22.3859C30.6728 22.3859 30.6736 22.3859 30.6736 21.7164C30.6736 20.2998 30.6736 18.8836 30.6736 17.4675C30.6691 17.3309 30.6832 17.1943 30.7154 17.0615C30.8107 16.7174 31.0649 16.5562 31.4128 16.5965C31.5635 16.6155 31.7019 16.6891 31.8019 16.8034C31.9019 16.9176 31.9565 17.0646 31.9553 17.2164C31.9646 17.6706 31.9599 18.1262 31.9599 18.5811C31.9599 19.7481 31.9599 20.9151 31.9599 22.0822C31.9599 22.1992 31.9057 22.3549 32.1079 22.3813C32.2807 22.403 32.3667 22.3309 32.4303 22.1651C33.0324 20.5811 34.621 19.497 36.3467 19.4839C37.193 19.4819 38.0206 19.7323 38.7237 20.2032C39.4269 20.674 39.9737 21.3439 40.2941 22.1271C40.3716 22.3193 40.4685 22.3937 40.6708 22.389C41.1001 22.3774 41.5294 22.3782 41.9587 22.389C42.1601 22.3937 42.2245 22.3177 42.2229 22.1178C42.2141 21.2675 42.2141 20.4179 42.2229 19.5691C42.2229 19.3901 42.164 19.3413 41.9858 19.3289C41.5526 19.2994 41.1001 19.3072 40.6948 19.1739C39.8594 18.9042 39.3456 18.1185 39.3387 17.2428C39.3387 16.7709 39.3387 16.299 39.3387 15.827C39.3433 15.39 39.5913 15.142 40.0252 15.1389C40.6258 15.135 41.2264 15.1389 41.8277 15.1389C42.1113 15.1389 42.1446 15.094 42.0214 14.846C41.6014 14.0021 40.9179 13.5356 39.9757 13.5286C37.8392 13.5077 35.702 13.5139 33.5648 13.5108C33.1099 13.5108 32.655 13.5232 32.2009 13.5108C31.9994 13.5061 31.9452 13.5883 31.9529 13.7704C31.9607 13.9525 31.9576 14.1478 31.9491 14.3369C31.9464 14.4966 31.8832 14.6494 31.7723 14.7644C31.6615 14.8794 31.5111 14.9482 31.3516 14.9568C31.1923 14.9687 31.0345 14.9194 30.9103 14.8188C30.7862 14.7183 30.7051 14.5742 30.6836 14.4159C30.6705 14.3131 30.6656 14.2095 30.6689 14.1059V2.31403C30.6689 1.9134 30.6689 1.91417 30.2752 1.91417H5.01684C4.41783 1.91417 4.50462 1.92192 4.50462 2.43337C4.50462 6.35548 4.50462 10.2776 4.50462 14.1997C4.50462 14.6197 4.34963 14.8623 4.03967 14.9359C3.64291 15.032 3.31202 14.8235 3.23608 14.4244C3.22144 14.3312 3.21573 14.2367 3.21903 14.1424C3.21903 10.1779 3.2211 6.21289 3.22523 2.24739C3.21979 1.94056 3.27756 1.6359 3.39494 1.35236C3.47998 1.14257 3.62672 0.963562 3.81574 0.839021C4.00477 0.714481 4.22715 0.650285 4.45347 0.654934C7.59395 0.650284 10.735 0.650284 13.8765 0.654934H17.5837V0.643311ZM35.5331 12.2461C36.6314 12.2461 37.7297 12.2461 38.828 12.2461C39.1217 12.2461 39.1558 12.1973 39.083 11.9083C38.7536 10.5963 38.4188 9.28518 38.0988 7.97015C38.0531 7.78184 37.9779 7.71675 37.7888 7.71752C35.9352 7.72217 34.0816 7.72217 32.228 7.71752C32.0111 7.71752 31.9483 7.79502 31.9498 8.00269C31.956 9.3154 31.9584 10.6289 31.9498 11.9416C31.9498 12.1818 32.0312 12.2516 32.2637 12.2516C33.3532 12.2399 34.4435 12.2461 35.5331 12.2461ZM12.5506 20.7818C10.9232 20.7749 9.56637 22.0992 9.55785 23.7165C9.5501 25.3717 10.8752 26.7386 12.5242 26.7386C12.9161 26.7412 13.3045 26.6659 13.667 26.517C14.0295 26.3681 14.3588 26.1487 14.6358 25.8715C14.9127 25.5943 15.1318 25.2647 15.2803 24.9021C15.4287 24.5395 15.5037 24.1509 15.5007 23.7591C15.4984 21.9566 14.0175 20.7563 12.5506 20.7818ZM36.3746 20.7818C35.5893 20.7838 34.8363 21.095 34.2787 21.648C33.7211 22.201 33.4036 22.9513 33.3951 23.7366C33.3881 25.3639 34.7419 26.7355 36.3638 26.7386C37.9857 26.7417 39.3332 25.3941 39.3348 23.7482C39.3342 22.9628 39.0223 22.2097 38.4674 21.6538C37.9126 21.0979 37.16 20.7847 36.3746 20.7826V20.7818ZM35.2479 6.42651C36.277 6.42651 37.3061 6.42186 38.3352 6.42651C38.5545 6.42651 38.6165 6.34902 38.5994 6.13824C38.5483 5.49506 37.9074 4.84103 37.2464 4.83406C35.5571 4.81701 33.8678 4.82631 32.1784 4.82088C32.0126 4.82088 31.946 4.88443 31.9514 5.04949C31.9576 5.40052 31.9677 5.75311 31.9514 6.10337C31.939 6.34825 32.0149 6.43194 32.266 6.42884C33.2587 6.41954 34.2537 6.42651 35.2479 6.42651ZM42.2221 17.2521C42.2221 17.0545 42.2152 16.8569 42.2221 16.6601C42.2299 16.4826 42.1563 16.4136 41.9804 16.4167C41.6115 16.4245 41.2424 16.4245 40.873 16.4167C40.701 16.4167 40.6181 16.4679 40.6297 16.6531C40.6421 16.8584 40.6297 17.0653 40.6374 17.273C40.6469 17.4722 40.7306 17.6605 40.872 17.8011C41.0134 17.9416 41.2023 18.0241 41.4015 18.0324C41.6069 18.0425 41.813 18.0286 42.0214 18.0363C42.1826 18.0425 42.2314 17.9658 42.226 17.8178C42.2136 17.6295 42.2183 17.4381 42.219 17.2521H42.2221Z" fill="#DE0F7E"/>
<path id="Vector_2" d="M12.6114 9.97398C12.6114 9.07353 12.6114 8.17308 12.6114 7.27262C12.6114 6.63177 12.8199 6.42021 13.4638 6.42874C14.1489 6.43726 14.8424 6.40007 15.5158 6.49616C16.5093 6.63874 17.1431 7.27727 17.4113 8.23119C17.6918 9.24324 17.3934 10.1142 16.5945 10.7923C16.4077 10.9473 16.4108 11.0457 16.5395 11.2278C16.8262 11.6331 17.0997 12.0484 17.3632 12.4677C17.605 12.8551 17.5422 13.1976 17.2137 13.4107C16.9037 13.6122 16.5201 13.513 16.2838 13.1604C15.9296 12.6343 15.577 12.1066 15.2345 11.5726C15.1353 11.4177 15.0245 11.3402 14.837 11.3541C14.6047 11.3658 14.3719 11.3658 14.1396 11.3541C13.9528 11.3464 13.8769 11.4161 13.8807 11.6075C13.89 12.0019 13.8854 12.3964 13.8807 12.7908C13.8807 13.2387 13.6638 13.4882 13.2802 13.5022C12.8679 13.5146 12.6393 13.2968 12.6199 12.8257C12.6006 12.3545 12.6099 11.8656 12.6083 11.3859C12.6068 10.9062 12.6114 10.4459 12.6114 9.97398ZM13.8846 8.88135C13.8846 9.19829 13.8846 9.51601 13.8846 9.83372C13.8846 9.97708 13.9365 10.0608 14.0946 10.0584C14.4464 10.053 14.799 10.0693 15.1493 10.0468C15.7692 10.0058 16.2194 9.47958 16.2086 8.84028C16.199 8.55018 16.0803 8.27438 15.8764 8.06785C15.6725 7.86132 15.3982 7.73924 15.1082 7.72595C14.7827 7.712 14.4565 7.72595 14.1303 7.71897C13.9358 7.71277 13.8745 7.79647 13.8807 7.98012C13.8916 8.28001 13.8846 8.58068 13.8846 8.88135Z" fill="#DE0F7E"/>
<path id="Vector_3" d="M18.3963 9.96483C18.3963 9.0295 18.3963 8.09418 18.3963 7.15885C18.3963 6.67298 18.6358 6.43043 19.1224 6.42811C20.0229 6.42501 20.9236 6.42501 21.8246 6.42811C22.2779 6.42811 22.5669 6.68693 22.5654 7.07516C22.5638 7.46339 22.2779 7.71757 21.8238 7.71912C21.1977 7.71912 20.5708 7.72687 19.9446 7.71912C19.7424 7.71912 19.6726 7.78576 19.6804 7.98801C19.6935 8.34757 19.6928 8.70869 19.6804 9.0729C19.6734 9.2798 19.7579 9.34102 19.9531 9.33637C20.3732 9.32629 20.7939 9.32474 21.2139 9.33637C21.3574 9.33501 21.4967 9.3842 21.6075 9.47531C21.7183 9.56642 21.7935 9.69363 21.8199 9.83464C21.8557 9.97771 21.8394 10.1289 21.7737 10.261C21.7081 10.393 21.5976 10.4974 21.4619 10.5553C21.3671 10.5933 21.2657 10.6117 21.1636 10.6096C20.7521 10.6158 20.3398 10.6173 19.9284 10.6096C19.7524 10.6096 19.6796 10.6715 19.6827 10.8498C19.6897 11.1838 19.6827 11.5185 19.6827 11.8572C19.6827 12.2446 19.6827 12.2493 20.0849 12.2501C20.7048 12.2501 21.3247 12.2431 21.9385 12.257C22.4507 12.2687 22.725 12.7731 22.4678 13.2125C22.4193 13.3043 22.3462 13.3807 22.2566 13.4331C22.1671 13.4855 22.0647 13.5119 21.961 13.5093C20.9822 13.5093 20.0043 13.5201 19.0263 13.5093C18.6195 13.5054 18.3979 13.252 18.3963 12.825C18.3932 11.8696 18.3956 10.9172 18.3963 9.96483Z" fill="#DE0F7E"/>
<path id="Vector_4" d="M23.4541 9.95848C23.4541 9.03271 23.4541 8.10668 23.4541 7.1804C23.4541 6.66121 23.6865 6.42796 24.2081 6.42718C25.1173 6.42718 26.0263 6.42718 26.935 6.42718C27.0603 6.42151 27.1846 6.45204 27.293 6.51511C27.4014 6.57818 27.4894 6.67114 27.5464 6.78287C27.6038 6.88491 27.6298 7.00165 27.6211 7.11842C27.6124 7.23519 27.5695 7.34679 27.4976 7.43922C27.4344 7.53166 27.3484 7.60615 27.2479 7.65545C27.1474 7.70475 27.0359 7.72717 26.9241 7.72052C26.2895 7.72052 25.6548 7.72672 25.0202 7.71509C24.7962 7.71044 24.7102 7.78251 24.7241 8.00956C24.7396 8.35207 24.7404 8.69614 24.7241 9.03865C24.7133 9.27113 24.8071 9.34397 25.0256 9.32847C25.1967 9.31684 25.3685 9.3184 25.5394 9.33312C25.9268 9.36334 26.1911 9.65006 26.1725 10.0073C26.1539 10.3645 25.8904 10.6017 25.5022 10.611C25.3224 10.6156 25.1418 10.611 24.9597 10.611C24.7985 10.6063 24.7272 10.6737 24.7272 10.8396C24.7272 11.227 24.7272 11.6145 24.7272 11.9965C24.7226 12.1918 24.8179 12.246 24.9954 12.246C25.6471 12.246 26.2988 12.246 26.9505 12.246C27.1907 12.246 27.3868 12.3235 27.5177 12.5327C27.7758 12.9442 27.5177 13.4905 27.0334 13.4998C26.0307 13.5192 25.0271 13.5107 24.0244 13.4998C23.6765 13.4952 23.4572 13.2263 23.4556 12.8381C23.4517 11.8795 23.4541 10.9194 23.4541 9.95848Z" fill="#DE0F7E"/>
<path id="Vector_5" d="M7.56225 9.96454C7.56225 9.04626 7.56225 8.12876 7.56225 7.21126C7.56225 6.65565 7.79473 6.42704 8.33717 6.42627C9.2384 6.42627 10.1389 6.42627 11.0393 6.42627C11.3989 6.42627 11.6507 6.63627 11.7034 6.95166C11.7357 7.10027 11.7123 7.25556 11.6376 7.38801C11.5628 7.52047 11.442 7.62083 11.2981 7.67001C11.1925 7.70338 11.0819 7.71858 10.9711 7.71496C10.3512 7.71883 9.7359 7.72426 9.11907 7.71496C8.89434 7.71031 8.8091 7.78625 8.82149 8.01175C8.83544 8.35426 8.83622 8.69833 8.82149 9.04006C8.81142 9.27254 8.90984 9.33763 9.12527 9.33221C9.53675 9.32213 9.94901 9.32136 10.3605 9.33221C10.5034 9.33182 10.6422 9.37953 10.7547 9.46767C10.8671 9.55581 10.9467 9.67924 10.9804 9.81808C11.0174 9.96086 11.0031 10.1121 10.9399 10.2454C10.8767 10.3787 10.7687 10.4855 10.6348 10.5473C10.5322 10.5889 10.4224 10.61 10.3117 10.6093C9.90871 10.6162 9.50575 10.6209 9.10279 10.6093C8.88736 10.6031 8.81763 10.6868 8.81995 10.8983C8.82693 11.55 8.82848 12.2017 8.81995 12.8534C8.81298 13.2796 8.55182 13.5284 8.16437 13.5106C7.8389 13.4958 7.59248 13.2781 7.57466 12.948C7.55296 12.5458 7.56071 12.1421 7.55994 11.7391C7.56071 11.1478 7.56225 10.5558 7.56225 9.96454Z" fill="#DE0F7E"/>
<path id="Vector_6" d="M23.4056 19.4839C25.0619 19.4839 26.7176 19.4839 28.3728 19.4839C28.6928 19.4839 28.9153 19.6388 29.0168 19.9023C29.1183 20.1658 29.0733 20.4494 28.8463 20.5997C28.6657 20.7084 28.4596 20.7672 28.2488 20.7702C27.2197 20.788 26.1899 20.7787 25.1608 20.7787C22.9383 20.7787 20.7159 20.7826 18.4965 20.771C18.2855 20.7701 18.0789 20.7105 17.8998 20.599C17.6774 20.4494 17.6309 20.1898 17.71 19.9271C17.789 19.6644 18.0006 19.535 18.2601 19.4862C18.3373 19.4768 18.4151 19.4744 18.4926 19.4792H23.4095L23.4056 19.4839Z" fill="#DE0F7E"/>
<path id="Vector_7" d="M6.74624 16.5855C8.16124 16.5855 9.57623 16.5855 10.9912 16.5855C11.412 16.5855 11.6592 16.7769 11.7096 17.1319C11.7385 17.2901 11.704 17.4533 11.6135 17.5863C11.523 17.7193 11.3838 17.8113 11.226 17.8425C11.0999 17.8661 10.9715 17.8763 10.8432 17.8727C8.10518 17.8727 5.36921 17.8727 2.6353 17.8727C2.5238 17.876 2.41222 17.8687 2.30208 17.851C2.14805 17.8255 2.00907 17.7435 1.91233 17.6209C1.81559 17.4984 1.76805 17.3442 1.77902 17.1884C1.78043 17.1084 1.79759 17.0295 1.82951 16.9562C1.86143 16.8828 1.9075 16.8164 1.96506 16.7609C2.02263 16.7053 2.09058 16.6617 2.16503 16.6324C2.23948 16.6031 2.31896 16.5888 2.39895 16.5902C3.20486 16.5817 4.01156 16.5863 4.81747 16.5855H6.74779H6.74624Z" fill="#DE0F7E"/>
<path id="Vector_8" d="M36.3432 25.1222C36.5218 25.1283 36.6999 25.0985 36.8667 25.0345C37.0336 24.9704 37.1859 24.8735 37.3145 24.7495C37.4432 24.6254 37.5456 24.4768 37.6157 24.3124C37.6858 24.148 37.7222 23.9712 37.7226 23.7924C37.7365 23.0175 37.1553 22.3976 36.3951 22.3844C36.2144 22.3801 36.0347 22.4123 35.8667 22.4788C35.6986 22.5454 35.5457 22.6451 35.4169 22.772C35.2882 22.8988 35.1862 23.0503 35.1172 23.2174C35.0482 23.3844 35.0134 23.5636 35.015 23.7444C35.0096 23.9226 35.04 24.1001 35.1042 24.2665C35.1684 24.4328 35.2652 24.5846 35.389 24.713C35.5127 24.8414 35.6609 24.9437 35.8248 25.014C35.9886 25.0842 36.1649 25.121 36.3432 25.1222Z" fill="#DE0F7E"/>
<path id="Vector_9" d="M13.8842 23.7713C13.887 23.9514 13.8532 24.1303 13.7848 24.2969C13.7164 24.4636 13.6148 24.6146 13.4862 24.7408C13.3576 24.8669 13.2047 24.9657 13.0368 25.0309C12.8689 25.0962 12.6895 25.1267 12.5095 25.1204C12.3292 25.1202 12.1508 25.0838 11.9848 25.0133C11.8189 24.9428 11.6688 24.8397 11.5435 24.7101C11.4182 24.5806 11.3202 24.4271 11.2553 24.2589C11.1904 24.0907 11.1599 23.9112 11.1657 23.731C11.172 23.3715 11.3195 23.0289 11.5763 22.7772C11.8331 22.5255 12.1786 22.3849 12.5381 22.3858C12.7185 22.3849 12.8971 22.4205 13.0634 22.4903C13.2297 22.5602 13.3802 22.6628 13.5059 22.7922C13.6315 22.9216 13.7298 23.075 13.7948 23.2432C13.8598 23.4114 13.8902 23.5911 13.8842 23.7713Z" fill="#DE0F7E"/>
<path id="Vector_10" d="M36.3432 25.1222C36.1649 25.121 35.9886 25.0842 35.8248 25.014C35.6609 24.9437 35.5127 24.8414 35.389 24.713C35.2652 24.5846 35.1684 24.4328 35.1042 24.2665C35.04 24.1001 35.0096 23.9226 35.015 23.7444C35.0134 23.5636 35.0482 23.3844 35.1172 23.2174C35.1862 23.0503 35.2882 22.8988 35.4169 22.772C35.5457 22.6451 35.6986 22.5454 35.8667 22.4788C36.0347 22.4123 36.2144 22.3801 36.3951 22.3844C37.1553 22.3976 37.7365 23.0175 37.7226 23.7924C37.7222 23.9712 37.6858 24.148 37.6157 24.3124C37.5456 24.4768 37.4432 24.6254 37.3145 24.7495C37.1859 24.8735 37.0336 24.9704 36.8667 25.0345C36.6999 25.0985 36.5218 25.1283 36.3432 25.1222Z" fill="#DE0F7E"/>
</g>
</svg>
