<svg width="32" height="32" viewBox="0 0 32 32" fill="none" xmlns="http://www.w3.org/2000/svg">
<g id="Group">
<path id="Vector" d="M31.0696 8.51028H21.3914C22.2495 8.07434 23.0787 7.53808 23.747 6.86974C25.2569 5.35986 25.2569 2.90386 23.747 1.39391C22.2838 -0.0692644 19.7344 -0.0706234 18.2712 1.39391C17.193 2.47199 16.4326 3.95445 15.943 5.33231C15.4535 3.95445 14.693 2.47199 13.6149 1.39391C12.1504 -0.0706234 9.59947 -0.0692644 8.13908 1.39391C6.6292 2.90379 6.6292 5.3598 8.13908 6.86974C8.80741 7.53808 9.6366 8.07434 10.4947 8.51028H0.816451C0.436911 8.51028 0.128906 8.81828 0.128906 9.19782V14.6984C0.128906 15.0779 0.436911 15.3859 0.816451 15.3859H1.50399V31.2C1.50399 31.5796 1.812 31.8876 2.19154 31.8876H29.6944C30.0739 31.8876 30.3819 31.5796 30.3819 31.2V15.3859H31.0695C31.449 15.3859 31.757 15.0779 31.757 14.6984V9.19782C31.7572 8.81828 31.4492 8.51028 31.0696 8.51028ZM12.5052 30.5126H2.87921V15.386H12.5052V30.5126ZM12.5052 14.0108H1.50406V9.88543H12.5052V14.0108ZM9.11134 5.89748C8.13772 4.92386 8.13772 3.33973 9.11134 2.36611C9.58298 1.89305 10.21 1.63452 10.877 1.63452C11.544 1.63452 12.1696 1.89305 12.6427 2.36611C14.4098 4.13316 15.2404 7.41286 15.2596 8.48822C15.2596 8.49508 15.2582 8.50472 15.2582 8.51021H15.1826C14.0646 8.47179 10.8564 7.64118 9.11134 5.89748ZM18.0057 30.5126H13.8803V15.386H18.0057V30.5126ZM18.0057 14.0108H13.8803V9.88543H18.0057V14.0108ZM16.7035 8.51028H16.6279C16.6279 8.50478 16.6265 8.49514 16.6265 8.48828C16.6458 7.41292 17.4763 4.13322 19.2434 2.36617C19.7164 1.89311 20.3421 1.63459 21.0091 1.63459C21.676 1.63459 22.3031 1.89311 22.7748 2.36617C23.7484 3.33979 23.7484 4.92393 22.7748 5.89755C21.0297 7.64118 17.8215 8.47179 16.7035 8.51028ZM29.0069 30.5126H19.3809V15.386H29.0069V30.5126ZM30.382 14.0108H19.3809V9.88543H30.382V14.0108Z" fill="#B8B8B8"/>
</g>
</svg>
