<svg width="44" height="29" viewBox="0 0 44 29" fill="none" xmlns="http://www.w3.org/2000/svg">
<g id="Group 10799">
<path id="Vector" d="M39.2429 10.648H43.2778C43.6332 10.648 43.6913 10.7063 43.6913 11.0579C43.6913 12.8795 43.6913 14.701 43.6913 16.5226C43.6913 16.8907 43.6495 16.9325 43.2876 16.9325H42.8201C42.4517 16.9325 42.4517 16.9325 42.4517 17.3121V27.77C42.4517 28.2857 42.4353 28.3037 41.9236 28.3037H24.0986C23.9242 28.3037 23.749 28.3127 23.5738 28.3037C23.2463 28.2914 23.1824 28.2258 23.1824 27.8938C23.1824 24.4786 23.1824 21.0628 23.1824 17.6465C23.1824 17.4719 23.1767 17.2965 23.1824 17.121C23.1882 16.9735 23.1251 16.9177 22.9802 16.9218C22.7346 16.9284 22.4889 16.9145 22.2433 16.9268C21.9976 16.9391 21.9158 16.8284 21.9158 16.5988C21.9207 16.0119 21.9158 15.4249 21.9158 14.8388C21.9158 13.5779 21.9158 12.3168 21.9158 11.0555C21.9158 10.6956 21.9657 10.6456 22.3203 10.6456H26.3004C26.1964 10.3177 26.0834 10.0168 26.008 9.70858C25.7821 8.78304 26.225 7.63699 26.9955 7.0779C27.8765 6.43847 28.7804 6.38846 29.7523 6.88115C30.8569 7.44024 31.8419 8.14525 32.668 9.06997C32.6912 9.09629 32.7166 9.12044 32.7442 9.14211C32.7528 9.14841 32.763 9.15211 32.7737 9.15277C33.2174 8.74288 33.6407 8.33298 34.0927 7.95096C34.7077 7.43372 35.3998 7.01604 36.1438 6.71309C37.6331 6.10892 39.1217 6.93361 39.5646 8.45267C39.6617 8.76289 39.6962 9.08935 39.6662 9.41304C39.6361 9.73674 39.542 10.0512 39.3894 10.3382C39.3444 10.421 39.3092 10.5087 39.2429 10.648ZM35.7557 27.0101H36.1339C37.6995 27.0101 39.265 27.0043 40.8297 27.0166C41.0802 27.0166 41.1342 26.9347 41.1334 26.7035C41.1269 23.5533 41.1269 20.4032 41.1334 17.253C41.1334 17.0071 41.0728 16.9251 40.8141 16.9251C39.2404 16.9374 37.6659 16.9317 36.0922 16.9325C35.7573 16.9325 35.7565 16.9325 35.7565 17.2817C35.7565 20.4231 35.7565 23.5656 35.7565 26.7092L35.7557 27.0101ZM24.508 26.9797C24.5654 26.9932 24.6237 27.0025 24.6824 27.0076C26.3446 27.0076 28.0067 27.0076 29.6688 27.0125C29.8604 27.0125 29.8768 26.9183 29.8768 26.7666C29.8768 23.5968 29.8782 20.427 29.8809 17.2571C29.8809 16.985 29.799 16.9218 29.537 16.9235C27.9715 16.936 26.4057 16.936 24.8396 16.9235C24.5719 16.9235 24.5015 16.9923 24.5023 17.2596C24.5113 20.333 24.508 23.408 24.508 26.4789V26.9797ZM34.4153 12.0007C34.2982 11.9941 34.2213 11.9868 34.1435 11.9859C33.2518 11.9859 32.3593 11.9925 31.4677 11.981C31.2491 11.981 31.1828 12.0433 31.186 12.2614C31.1975 13.023 31.1909 13.7845 31.1909 14.5453C31.1909 18.5972 31.1896 22.6497 31.1869 26.7027C31.1869 26.9388 31.2474 27.0191 31.4947 27.015C32.3782 27.0011 33.2616 27.0035 34.1443 27.015C34.3645 27.015 34.421 26.9453 34.421 26.7289C34.4145 21.9414 34.4126 17.1538 34.4153 12.3663V12.0007ZM29.8621 12.0007C29.7712 11.9933 29.7114 11.9835 29.6508 11.9835C27.5867 11.9835 25.5225 11.9835 23.4584 11.9786C23.2594 11.9786 23.2045 12.0425 23.2062 12.2351C23.2144 13.2681 23.2062 14.301 23.2111 15.3339C23.2111 15.4266 23.2225 15.52 23.2283 15.6135H29.8604L29.8621 12.0007ZM35.7679 11.9827V15.6151C35.8053 15.6245 35.8434 15.6311 35.8818 15.6348C37.9819 15.6348 40.0821 15.6348 42.1815 15.6397C42.4001 15.6397 42.3894 15.5151 42.3894 15.3675C42.3894 14.3436 42.3796 13.3181 42.3952 12.2942C42.3952 12.0327 42.3133 11.9761 42.0677 11.9777C40.0641 11.9868 38.0605 11.9827 36.0562 11.9827H35.7679ZM35.4683 10.5825C35.9841 10.5825 36.4999 10.5751 37.0158 10.5825C37.5316 10.5898 37.8845 10.3595 38.1342 9.93812C38.447 9.40854 38.3733 8.65598 37.9787 8.2215C37.584 7.78701 37.0182 7.68044 36.3992 8.01655C35.8724 8.28937 35.3722 8.61075 34.9049 8.97651C34.4431 9.35361 34.0436 9.81269 33.6465 10.2619C33.4557 10.4784 33.522 10.5759 33.816 10.5775C34.3703 10.5915 34.9205 10.589 35.4715 10.589L35.4683 10.5825ZM30.1233 10.5825C30.6833 10.5825 31.2425 10.5825 31.8026 10.5825C32.0744 10.5825 32.1301 10.507 31.9598 10.298C31.6862 9.94933 31.3883 9.62058 31.0681 9.31426C30.4718 8.74671 29.7849 8.28289 29.0359 7.94195C28.8476 7.84653 28.6362 7.80644 28.4261 7.82631C28.216 7.84619 28.0158 7.92522 27.8487 8.05426C27.3762 8.39447 27.1781 8.99619 27.3271 9.59135C27.4819 10.2119 28.0517 10.6284 28.629 10.5915C29.1284 10.5661 29.6287 10.5907 30.129 10.5907L30.1233 10.5825Z" fill="#DE0F7E"/>
<path id="Vector_2" d="M17.3987 25.2002C17.3544 25.2002 17.311 25.1937 17.2676 25.1904C16.7878 25.1478 16.7854 25.1478 16.715 25.6396C16.6126 26.3496 16.5193 27.062 16.4145 27.7711C16.3523 28.1867 16.1607 28.3302 15.7423 28.2736C14.3733 28.0878 13.0045 27.8965 11.6361 27.6998C11.1923 27.6366 11.0441 27.4415 11.1022 26.998C11.2037 26.217 11.3129 25.4369 11.4297 24.6575C11.4641 24.428 11.3986 24.3296 11.1644 24.337C11.0944 24.3356 11.0247 24.3268 10.9565 24.3108C10.5946 24.2493 10.4365 24.0648 10.4652 23.6943C10.5935 22.1061 10.7269 20.5187 10.8656 18.9322C10.9475 17.9378 11.0408 16.9442 11.126 15.9498C11.3339 13.4987 11.5354 11.0475 11.7491 8.59719C11.9215 6.6084 12.1022 4.6207 12.2911 2.63409C12.3435 2.08566 12.4368 1.54132 12.5171 0.994529C12.5703 0.628087 12.7979 0.460852 13.1574 0.510858L21.6268 1.69954C22.0477 1.75857 22.2049 1.95613 22.1345 2.38406C21.8799 3.93017 21.6432 5.47874 21.3509 7.01829C20.8236 9.83998 20.2652 12.6568 19.7207 15.476C19.1852 18.243 18.6506 21.0098 18.1167 23.7763C18.0504 24.1206 17.9898 24.4657 17.9096 24.8059C17.8474 25.0871 17.6754 25.2043 17.3987 25.2002ZM11.5321 23.1164C11.4879 23.3041 11.5796 23.3729 11.7638 23.3984C13.4281 23.6252 15.0916 23.8566 16.7543 24.0927C16.9475 24.1198 17.031 24.0771 17.0711 23.8689C17.7333 20.3963 18.4011 16.9243 19.0747 13.4528C19.6156 10.6507 20.1585 7.84928 20.7033 5.04835C20.7377 4.87374 20.7106 4.80242 20.5158 4.77373C18.1686 4.45182 15.8214 4.12391 13.4742 3.78999C13.2532 3.75884 13.1893 3.81868 13.1713 4.04002C13.0706 5.3402 12.9535 6.63955 12.8438 7.93891C12.68 9.8572 12.5149 11.7758 12.3484 13.6946C12.2002 15.4301 12.0577 17.1664 11.9087 18.9019C11.7884 20.3029 11.6574 21.7063 11.5321 23.1164ZM20.7843 3.77687C20.8195 3.73178 20.9088 3.6662 20.9284 3.58422C20.9792 3.3637 20.9907 3.13416 21.0373 2.912C21.084 2.68984 20.998 2.63246 20.7999 2.60786C20.167 2.52588 19.5365 2.43489 18.9044 2.34799C17.1735 2.10861 15.4426 1.87334 13.7125 1.62658C13.5094 1.59707 13.4464 1.65609 13.4325 1.84628C13.4186 2.04707 13.3898 2.24655 13.3465 2.44309C13.2966 2.66689 13.3653 2.75132 13.5971 2.78247C15.1732 2.99234 16.7477 3.21696 18.3222 3.4383L20.7843 3.77687ZM12.5965 24.5411C12.5621 24.5838 12.4655 24.6485 12.4524 24.728C12.3566 25.3314 12.2796 25.938 12.1904 26.543C12.1699 26.684 12.2084 26.7562 12.3541 26.7767C13.3228 26.9095 14.2906 27.0497 15.2608 27.1743C15.3051 27.1707 15.3477 27.1559 15.3847 27.1312C15.4217 27.1065 15.4517 27.0728 15.4721 27.0333C15.573 26.4119 15.6593 25.7888 15.7308 25.1642C15.7234 25.1207 15.7049 25.0799 15.6773 25.0456C15.6496 25.0113 15.6136 24.9847 15.5728 24.9682C14.6123 24.8207 13.6437 24.6879 12.6006 24.5411H12.5965Z" fill="#DE0F7E"/>
<path id="Vector_3" d="M9.00446 28.3324H1.20964C0.602108 28.3324 0.452271 28.1799 0.452271 27.5725C0.452271 25.1213 0.452271 22.6702 0.452271 20.2182C0.452271 19.9165 0.534152 19.6968 0.813357 19.5533C0.850747 19.5238 0.881356 19.4865 0.903111 19.4441C0.924866 19.4017 0.937257 19.3551 0.939447 19.3074C0.953367 19.0287 0.932897 18.7475 0.939447 18.468C0.950092 18.0581 1.10893 17.8941 1.52078 17.8941C1.74758 17.8941 1.80326 17.8121 1.79999 17.6006C1.79098 16.9702 1.79262 16.3398 1.79999 15.7094C1.79999 15.5233 1.7525 15.4454 1.55026 15.4454C1.27679 15.4454 1.14087 15.3118 1.14087 15.1068C1.14087 14.9019 1.27761 14.797 1.55026 14.7634C1.63214 14.7527 1.71402 14.6814 1.7959 14.6396C1.71343 14.5866 1.62526 14.5432 1.53306 14.51C1.44218 14.4879 1.33983 14.5174 1.24649 14.501C1.05571 14.4658 0.918979 14.3576 0.925529 14.1485C0.93208 13.9395 1.05981 13.8321 1.26041 13.814C1.36504 13.8178 1.46981 13.8145 1.574 13.8042C1.65421 13.771 1.72901 13.726 1.7959 13.6706C1.72451 13.6166 1.64488 13.5745 1.56009 13.546C1.42066 13.5342 1.28057 13.5323 1.14087 13.5402C0.927986 13.5402 0.784697 13.446 0.765046 13.223C0.746214 13.0197 0.887047 12.882 1.13104 12.8656C1.2948 12.8549 1.4651 12.8754 1.62886 12.8549C1.68945 12.8475 1.74103 12.7623 1.79262 12.7131C1.73612 12.6754 1.6829 12.6139 1.62231 12.6049C1.50195 12.5877 1.37668 12.6049 1.2555 12.5967C1.05326 12.5795 0.927983 12.4614 0.922251 12.2597C0.91652 12.0581 1.05326 11.9392 1.24976 11.9122C1.37013 11.8949 1.4954 11.9236 1.61576 11.9023C1.68127 11.89 1.73531 11.8203 1.79508 11.772C1.74319 11.7265 1.6885 11.6843 1.63132 11.6457C1.60512 11.6301 1.56336 11.6408 1.52815 11.6408C1.30053 11.6408 1.14742 11.5408 1.14578 11.3055C1.14414 11.0702 1.30953 10.9579 1.52569 10.9661C1.72138 10.9735 1.80245 10.9128 1.8221 10.7087C1.82601 10.6688 1.83795 10.63 1.85721 10.5948C1.87647 10.5596 1.90265 10.5287 1.93417 10.5039C1.96568 10.479 2.00188 10.4609 2.0406 10.4504C2.07931 10.44 2.11974 10.4375 2.15944 10.4431C2.33711 10.4529 2.46893 10.5571 2.47221 10.7366C2.47221 10.9366 2.5721 10.9612 2.73586 10.9645C2.99869 10.9702 3.14525 11.1055 3.14525 11.308C3.14525 11.5105 3.00605 11.6138 2.72931 11.6465C2.64743 11.6564 2.56555 11.7285 2.48367 11.7728C2.56587 11.825 2.65344 11.8681 2.74486 11.9015C2.8403 11.9117 2.93633 11.9152 3.03226 11.9122C3.07637 11.9127 3.11993 11.922 3.1604 11.9396C3.20086 11.9572 3.23742 11.9827 3.26792 12.0146C3.29842 12.0465 3.32225 12.0842 3.33803 12.1254C3.3538 12.1667 3.36119 12.2107 3.35977 12.2548C3.36714 12.4532 3.23859 12.5639 3.05764 12.5926C2.9209 12.6139 2.7768 12.586 2.64006 12.6057C2.58275 12.6139 2.53444 12.6877 2.48204 12.7319C2.53608 12.7754 2.58684 12.8492 2.64579 12.8549C2.81856 12.8729 2.99541 12.8549 3.16981 12.8672C3.38188 12.8803 3.52598 12.991 3.51943 13.2123C3.51288 13.4337 3.37369 13.5402 3.15425 13.5402C2.97946 13.5359 2.80455 13.5405 2.63024 13.5542C2.5762 13.5607 2.53034 13.6362 2.48122 13.6862C2.52707 13.7272 2.568 13.7911 2.62123 13.8042C2.70773 13.8167 2.7954 13.8189 2.88242 13.8108C3.19765 13.8108 3.36878 13.937 3.36468 14.1649C3.36059 14.3928 3.18701 14.5076 2.87341 14.5084C2.79517 14.5006 2.71627 14.5022 2.63842 14.5133C2.58201 14.5392 2.53071 14.575 2.48695 14.6191C2.53444 14.6674 2.57456 14.7338 2.63269 14.7593C2.70062 14.7745 2.77037 14.78 2.83984 14.7757C2.88195 14.7763 2.92348 14.7856 2.96183 14.803C3.00018 14.8204 3.03453 14.8456 3.06273 14.8769C3.09093 14.9082 3.11238 14.945 3.12573 14.985C3.13909 15.025 3.14406 15.0673 3.14034 15.1093C3.14034 15.2929 3.02898 15.4536 2.83493 15.4372C2.47958 15.4061 2.46893 15.5963 2.47548 15.866C2.49104 16.4521 2.48859 17.0391 2.47548 17.6252C2.47139 17.8351 2.54345 17.899 2.74814 17.8957C3.17555 17.89 3.3352 18.0548 3.34339 18.477C3.34749 18.6696 3.34912 18.8623 3.34339 19.0508C3.33439 19.3074 3.32702 19.5353 3.62833 19.6788C3.74378 19.7337 3.80682 19.9665 3.83057 20.1272C3.85325 20.3624 3.85626 20.599 3.83958 20.8347C3.83466 20.9986 3.92719 21.0191 4.05819 21.0134C4.1892 21.0076 4.30383 21.0183 4.29564 20.8265C4.28663 20.31 4.29564 19.7935 4.29564 19.2771C4.29564 18.918 4.43156 18.6598 4.7779 18.5114C4.85405 18.4786 4.91955 18.3253 4.91955 18.2278C4.92938 16.9161 4.88844 15.5995 4.93757 14.2887C4.98915 12.8951 5.64335 11.7876 6.78719 10.9833C6.9187 10.897 7.06372 10.8332 7.21623 10.7948C7.85816 10.612 8.383 11.0096 8.38382 11.6769C8.38382 13.787 8.38382 15.8971 8.38382 18.0072C8.38382 18.2802 8.38382 18.5048 8.72444 18.6057C8.92258 18.6647 9.03639 18.8672 9.03639 19.1066C9.03312 22.1092 9.03312 25.112 9.03639 28.1152C9.02329 28.1766 9.01183 28.2357 9.00446 28.3324ZM4.98424 19.1844C4.98424 19.7173 4.99324 20.2215 4.98424 20.7256C4.97932 20.9371 5.03009 21.0273 5.25935 21.0117C5.54763 20.9966 5.83651 20.9966 6.1248 21.0117C6.59888 21.0314 6.84041 21.288 6.8486 21.7627C6.8486 21.8504 6.8486 21.9373 6.8486 22.025C6.8486 23.8015 6.84451 25.5771 6.83305 27.3536C6.83305 27.5815 6.89364 27.6667 7.12781 27.6536C7.45041 27.6364 7.77465 27.6421 8.09807 27.6536C8.29539 27.661 8.37563 27.6061 8.37563 27.3896C8.3669 24.7385 8.36444 22.0878 8.36826 19.4378C8.36826 19.2435 8.3044 19.1803 8.10953 19.1828C7.29648 19.1918 6.48343 19.1828 5.67038 19.1828L4.98424 19.1844ZM2.79235 23.9564C2.79235 24.6221 2.80054 25.2877 2.78744 25.9526C2.78744 26.1641 2.85049 26.2182 3.05518 26.2157C4.00934 26.2059 4.96295 26.2059 5.91601 26.2157C6.10924 26.2157 6.17065 26.16 6.16901 25.9632C6.16083 24.6412 6.16083 23.3194 6.16901 21.9979C6.16901 21.7676 6.10515 21.6971 5.87343 21.6995C4.93729 21.7121 4.00142 21.7121 3.06582 21.6995C2.8382 21.6995 2.7858 21.7815 2.78908 21.9881C2.79645 22.6439 2.78989 23.3006 2.78989 23.9564H2.79235ZM1.12449 23.9384V27.0076C1.12449 27.6479 1.12449 27.6479 1.75414 27.6462C2.11113 27.6462 2.11113 27.6462 2.11195 27.2872C2.11195 25.4498 2.11195 23.6132 2.11195 21.7774C2.11195 21.3364 2.31828 21.0847 2.71621 21.024C3.16081 20.956 3.16081 20.956 3.15589 20.4961C3.15467 20.4786 3.15467 20.4611 3.15589 20.4436C3.17964 20.2559 3.08712 20.1977 2.91026 20.2043C2.41244 20.2116 1.9138 20.2174 1.41598 20.2043C1.18508 20.1977 1.11712 20.2731 1.11958 20.5035C1.12859 21.6471 1.12285 22.7923 1.12203 23.9384H1.12449ZM7.70259 14.028C7.52492 14.2387 7.39064 14.4158 7.23752 14.5756C6.82813 14.9995 6.39172 15.3618 5.7588 15.3782C5.70968 15.3782 5.6237 15.4971 5.62125 15.5626C5.60897 15.9643 5.62125 16.3677 5.61142 16.7694C5.60569 16.9596 5.68184 17.0087 5.85706 17.0063C6.3819 16.9981 6.90674 16.9899 7.42994 17.0063C7.68376 17.0161 7.73862 16.9243 7.73535 16.6898C7.72552 15.8856 7.73535 15.0806 7.73535 14.2756C7.72791 14.1925 7.71616 14.1099 7.70014 14.028H7.70259ZM5.58277 14.2313C5.63107 14.3494 5.65728 14.5543 5.77109 14.6412C5.85296 14.7002 6.0814 14.6338 6.1944 14.5535C6.6278 14.2573 6.98992 13.8682 7.25447 13.4145C7.51901 12.9607 7.67936 12.4537 7.72388 11.9302C7.73862 11.7843 7.68213 11.5367 7.58797 11.4957C7.46597 11.4424 7.24408 11.5047 7.11798 11.5933C6.2206 12.2196 5.76699 13.1131 5.58031 14.2313H5.58277ZM4.45612 27.6462C4.93593 27.6462 5.41655 27.638 5.89636 27.6462C6.10105 27.652 6.19276 27.588 6.16656 27.3782C6.15878 27.3175 6.15878 27.256 6.16656 27.1954C6.19604 26.9699 6.11497 26.892 5.87671 26.8961C5.01289 26.9101 4.14826 26.8961 3.28444 26.9027C2.74978 26.9076 2.80218 26.7863 2.79317 27.4118C2.79317 27.6036 2.87505 27.6479 3.04535 27.6454C3.51042 27.6413 3.98204 27.6462 4.45366 27.6462H4.45612ZM6.66683 18.4884H7.21787C7.73453 18.4884 7.72061 18.4884 7.73535 17.9794C7.74271 17.7375 7.65347 17.6793 7.43239 17.6859C7.01318 17.6974 6.59314 17.6859 6.17311 17.6908C5.51808 17.699 5.62616 17.5785 5.60978 18.2884C5.60978 18.4524 5.67283 18.4975 5.8284 18.4917C6.10761 18.4802 6.38435 18.4876 6.66683 18.4884ZM2.12668 19.5238C2.65234 19.5238 2.65234 19.5238 2.64989 18.9975C2.64989 18.9156 2.67281 18.8295 2.64333 18.7655C2.61386 18.7016 2.5328 18.5934 2.46402 18.5835C2.28471 18.5573 2.09884 18.5835 1.91707 18.5704C1.68618 18.5491 1.58956 18.6376 1.62559 18.8664C1.62887 18.9185 1.62887 18.9708 1.62559 19.0229C1.63541 19.5919 1.55353 19.5156 2.12668 19.5238Z" fill="#DE0F7E"/>
<path id="Vector_4" d="M0.501343 4.17833C0.604509 4.14636 0.705216 4.10619 0.810021 4.08406C1.14327 4.01192 1.47979 3.95454 1.81058 3.87502C2.25108 3.76926 2.50081 3.47496 2.54748 3.03228C2.6007 2.55435 2.64901 2.07559 2.71124 1.59848C2.72024 1.52716 2.78738 1.46322 2.82832 1.396C2.87008 1.46158 2.93967 1.52388 2.94868 1.59438C3.00709 2.03597 3.05676 2.47865 3.0977 2.92243C3.14928 3.47414 3.41457 3.78976 3.95251 3.90617C4.26856 3.97257 4.5887 4.02258 4.90311 4.09554C4.99072 4.11603 5.06687 4.19227 5.14875 4.2431C5.07655 4.29573 4.99748 4.33821 4.91376 4.36934C4.59034 4.44394 4.26365 4.50215 3.93859 4.57019C3.42685 4.67758 3.15665 4.98746 3.10425 5.50802C3.0584 5.96874 3.00627 6.42891 2.94787 6.88854C2.92518 6.95589 2.8902 7.01843 2.8447 7.07299C2.79967 7.00986 2.72434 6.95002 2.71533 6.88198C2.65228 6.40568 2.60234 5.92693 2.55157 5.449C2.50163 4.985 2.2347 4.68004 1.77455 4.58003C1.43394 4.50543 1.09004 4.44313 0.748612 4.36934C0.664497 4.34377 0.582393 4.31199 0.502977 4.27425L0.501343 4.17833ZM4.3398 4.23162C3.4506 4.12095 2.89383 3.70204 2.82996 2.75601C2.77756 3.16591 2.71042 3.56104 2.38454 3.78566C2.08241 3.99389 1.7156 4.10865 1.33896 4.28245C2.2257 4.33409 2.75873 4.77432 2.8447 5.70969C2.89137 4.74071 3.46615 4.35951 4.33734 4.23162H4.3398Z" fill="#DE0F7E"/>
<path id="Vector_5" d="M7.79022 2.56171C7.70595 2.60528 7.61833 2.64201 7.52821 2.67156C7.32515 2.72075 7.11882 2.74944 6.9133 2.79945C6.79179 2.82237 6.68136 2.88519 6.59951 2.97798C6.51765 3.07078 6.46903 3.18825 6.46133 3.31181C6.42613 3.61513 6.39419 3.91927 6.35325 4.22259C6.33499 4.30652 6.30979 4.38878 6.27793 4.46853H6.19605C6.1611 4.38931 6.13368 4.30696 6.11417 4.22259C6.07323 3.92009 6.05112 3.61431 6.00691 3.31263C5.96106 2.99702 5.81777 2.85438 5.50991 2.78633C5.28802 2.73715 5.06531 2.69616 4.84588 2.63877C4.79184 2.62402 4.75171 2.55679 4.70422 2.5158C4.75008 2.47973 4.78611 2.42481 4.84096 2.41251C5.03502 2.36251 5.23234 2.32562 5.42885 2.28463C5.83824 2.20265 5.96433 2.07066 6.02001 1.66405C6.05849 1.37877 6.07487 1.0902 6.11662 0.80574C6.12645 0.734419 6.19851 0.672115 6.23781 0.605713C6.28685 0.667563 6.3248 0.737459 6.34998 0.812297C6.39338 1.09758 6.42122 1.38614 6.45315 1.67061C6.49327 2.03459 6.63737 2.19937 6.99272 2.27643C7.18022 2.31742 7.37018 2.34693 7.55687 2.3912C7.63501 2.41576 7.7109 2.44703 7.78367 2.48465L7.79022 2.56171ZM6.23453 1.97885L5.59588 2.5281L6.23535 3.0749C6.44332 2.90028 6.6865 2.69452 6.87646 2.53384L6.23453 1.97885Z" fill="#DE0F7E"/>
<path id="Vector_6" d="M4.42908 6.2706C4.61494 6.22305 4.79999 6.17059 4.98749 6.1296C5.42472 6.03532 5.49759 5.95334 5.53771 5.50001C5.55245 5.32621 5.56718 5.15078 5.59912 4.97944C5.62653 4.91235 5.66531 4.85051 5.71375 4.79663C5.75223 4.85566 5.81528 4.91058 5.82592 4.97452C5.86195 5.19013 5.88242 5.40819 5.90289 5.62543C5.92909 5.90743 6.07319 6.07221 6.35731 6.1173C6.52279 6.14327 6.68678 6.17802 6.84858 6.22141C6.89934 6.23453 6.94029 6.28618 6.98532 6.31979C6.93865 6.36324 6.90344 6.42963 6.84531 6.44439C6.66845 6.49194 6.48668 6.52637 6.30655 6.55671C6.20547 6.56895 6.11177 6.61593 6.04144 6.68964C5.97111 6.76335 5.92851 6.85921 5.9209 6.96086C5.88897 7.1863 5.87341 7.4142 5.83247 7.63718C5.80261 7.71744 5.75973 7.79222 5.70556 7.85851C5.65954 7.79283 5.62341 7.72074 5.5983 7.64455C5.56473 7.43715 5.55081 7.22728 5.5287 7.01824C5.50168 6.76165 5.37231 6.60343 5.10867 6.55506C4.88268 6.51326 4.65998 6.45259 4.43563 6.40094L4.42908 6.2706ZM6.16244 6.33946C6.00278 6.19354 5.85212 6.05746 5.71047 5.92957L5.26833 6.33044L5.72849 6.74607C5.78678 6.66859 5.84967 6.59468 5.9168 6.52473C5.99521 6.45849 6.07721 6.39664 6.16244 6.33946Z" fill="#DE0F7E"/>
<path id="Vector_7" d="M14.4902 10.9514C14.5278 10.6702 14.5655 10.3882 14.6048 10.107C14.6326 9.90697 14.7055 9.84959 14.9053 9.87992C15.12 9.90192 15.333 9.93779 15.5431 9.98731C15.6831 10.0246 15.8081 10.1045 15.9008 10.2159C15.9935 10.3274 16.0493 10.4649 16.0606 10.6095C16.086 10.759 16.0649 10.9127 16 11.0497C15.9351 11.1867 15.8296 11.3004 15.6979 11.3752C15.6324 11.417 15.6291 11.4465 15.6618 11.5088C15.7339 11.6482 15.8021 11.7892 15.8665 11.9318C15.9255 12.063 15.8911 12.1671 15.7797 12.2204C15.7538 12.2319 15.7257 12.238 15.6973 12.2382C15.669 12.2385 15.6408 12.2329 15.6147 12.2218C15.5885 12.2108 15.5649 12.1945 15.5452 12.1739C15.5256 12.1534 15.5104 12.129 15.5005 12.1023C15.4121 11.9228 15.3245 11.7433 15.2402 11.5621C15.2314 11.5386 15.2158 11.5182 15.1954 11.5036C15.1749 11.489 15.1506 11.4808 15.1255 11.4801C15.0528 11.4743 14.9804 11.4647 14.9086 11.4514C14.8504 11.4408 14.8267 11.4596 14.8169 11.5195C14.8029 11.6433 14.7849 11.7654 14.7677 11.8892C14.7481 12.0294 14.6703 12.0982 14.5499 12.0859C14.4296 12.0737 14.3592 11.995 14.3731 11.8466C14.387 11.6982 14.4099 11.5465 14.4304 11.3965C14.4509 11.2465 14.4713 11.0981 14.4902 10.9514ZM14.9331 10.6636C14.92 10.7628 14.9069 10.862 14.893 10.9612C14.8865 11.0063 14.8996 11.0342 14.9487 11.0432C15.0584 11.0571 15.1681 11.0768 15.2762 11.0842C15.3698 11.0897 15.4618 11.0585 15.5328 10.9973C15.6039 10.9362 15.6484 10.8497 15.6569 10.7563C15.6665 10.6652 15.6413 10.5739 15.5865 10.5007C15.5317 10.4274 15.4513 10.3776 15.3614 10.3611C15.2606 10.3431 15.1575 10.3349 15.0568 10.3177C14.9962 10.307 14.9749 10.3308 14.9675 10.3882C14.9626 10.4759 14.9479 10.5661 14.9348 10.6636H14.9331Z" fill="#DE0F7E"/>
<path id="Vector_8" d="M16.2965 11.1933C16.3369 10.9015 16.3767 10.6094 16.416 10.317C16.4158 10.2855 16.4228 10.2544 16.4366 10.2262C16.4504 10.1979 16.4705 10.1732 16.4955 10.1541C16.5204 10.1349 16.5494 10.1218 16.5802 10.1158C16.611 10.1098 16.6429 10.111 16.6731 10.1194C16.9548 10.1566 17.2359 10.1948 17.5165 10.2342C17.6581 10.2538 17.7367 10.3465 17.7204 10.4678C17.704 10.5891 17.6033 10.6564 17.4616 10.6375C17.2659 10.6113 17.0702 10.5867 16.8754 10.5555C16.8123 10.5457 16.7878 10.5654 16.7812 10.6285C16.7706 10.7416 16.755 10.8539 16.7354 10.9662C16.7247 11.0302 16.7476 11.0531 16.8091 11.0597C16.9409 11.0744 17.0719 11.0917 17.2029 11.1146C17.2469 11.1212 17.2873 11.1428 17.3171 11.1759C17.347 11.2089 17.3645 11.2513 17.3666 11.2958C17.372 11.3421 17.3605 11.3887 17.3344 11.4272C17.3082 11.4657 17.2691 11.4936 17.2242 11.5056C17.1931 11.5135 17.1609 11.5151 17.1292 11.5106C17.0006 11.495 16.8713 11.4778 16.7436 11.4581C16.6887 11.4499 16.6617 11.4671 16.6568 11.5229C16.6445 11.6278 16.6289 11.7319 16.6142 11.836C16.5978 11.9582 16.597 11.959 16.7231 11.9762C16.9163 12.0024 17.1095 12.0262 17.3011 12.0582C17.3363 12.0622 17.3698 12.0758 17.3979 12.0975C17.4259 12.1191 17.4476 12.148 17.4605 12.1811C17.4733 12.2141 17.477 12.2501 17.471 12.285C17.465 12.32 17.4496 12.3527 17.4264 12.3795C17.4071 12.406 17.381 12.4266 17.3508 12.4392C17.3206 12.4518 17.2876 12.4558 17.2553 12.4509C16.9499 12.4099 16.6445 12.3689 16.3399 12.3262C16.3123 12.3236 16.2857 12.3149 16.2618 12.3008C16.238 12.2866 16.2175 12.2674 16.2019 12.2445C16.1862 12.2216 16.1758 12.1955 16.1714 12.1682C16.1669 12.1408 16.1686 12.1127 16.1761 12.086C16.2154 11.7885 16.2564 11.4909 16.2965 11.1933Z" fill="#DE0F7E"/>
<path id="Vector_9" d="M17.875 11.4056L17.9929 10.5382C18.015 10.3743 18.0969 10.3128 18.2598 10.3349C18.5442 10.3726 18.8278 10.4112 19.1105 10.4505C19.1499 10.454 19.1875 10.4687 19.2187 10.493C19.2499 10.5173 19.2735 10.5501 19.2866 10.5874C19.3001 10.6218 19.3033 10.6593 19.2958 10.6955C19.2882 10.7316 19.2702 10.7647 19.244 10.7907C19.2202 10.8168 19.19 10.8364 19.1565 10.8474C19.1229 10.8585 19.0871 10.8607 19.0524 10.8538C18.8551 10.826 18.6561 10.8022 18.4588 10.7719C18.3892 10.7604 18.3605 10.7801 18.354 10.8538C18.3442 10.9612 18.3302 11.0686 18.3106 11.1752C18.2975 11.2473 18.3237 11.2736 18.3925 11.2785C18.4476 11.2818 18.5023 11.2895 18.5562 11.3014C18.5831 11.3056 18.6088 11.3151 18.632 11.3294C18.6551 11.3437 18.6752 11.3624 18.691 11.3846C18.7068 11.4067 18.718 11.4318 18.7239 11.4584C18.7299 11.4849 18.7305 11.5124 18.7257 11.5392C18.721 11.5652 18.7111 11.5901 18.6967 11.6123C18.6823 11.6345 18.6636 11.6536 18.6417 11.6685C18.6199 11.6834 18.5952 11.6938 18.5693 11.699C18.5434 11.7042 18.5166 11.7043 18.4907 11.699C18.4342 11.6933 18.3785 11.6851 18.322 11.6761C18.2655 11.6671 18.2459 11.6859 18.2402 11.7376C18.2254 11.8583 18.2091 11.9789 18.191 12.0991C18.1812 12.1598 18.2082 12.1811 18.2639 12.1884C18.4678 12.2155 18.6733 12.2442 18.8739 12.2704C18.909 12.2724 18.9428 12.284 18.9717 12.3039C19.0006 12.3239 19.0234 12.3514 19.0377 12.3836C19.053 12.4147 19.0598 12.4493 19.0574 12.4839C19.055 12.5185 19.0435 12.5518 19.024 12.5805C19.0045 12.6092 18.9778 12.6322 18.9465 12.6471C18.9153 12.662 18.8806 12.6684 18.8461 12.6656C18.5325 12.6287 18.2197 12.5836 17.9069 12.5377C17.8814 12.5334 17.8571 12.5238 17.8355 12.5096C17.8138 12.4954 17.7954 12.4768 17.7814 12.455C17.7674 12.4333 17.758 12.4088 17.754 12.3833C17.75 12.3577 17.7513 12.3315 17.7579 12.3065C17.7931 12.0056 17.8349 11.7056 17.875 11.4056Z" fill="#DE0F7E"/>
<path id="Vector_10" d="M12.9166 10.7341C12.9559 10.4472 12.9936 10.1603 13.0337 9.87416C13.0574 9.70037 13.1385 9.63888 13.3096 9.66184C13.5905 9.69955 13.8713 9.73726 14.1522 9.77661C14.2014 9.78004 14.2475 9.80166 14.2817 9.83725C14.3159 9.87285 14.3357 9.91989 14.3372 9.96926C14.3409 10.017 14.3271 10.0644 14.2983 10.1027C14.2695 10.1409 14.2277 10.1672 14.1808 10.1767C14.1464 10.1824 14.1113 10.1824 14.0768 10.1767C13.8836 10.1521 13.6912 10.1275 13.4988 10.0947C13.4284 10.084 13.3997 10.1045 13.3931 10.1767C13.3833 10.2841 13.3686 10.3914 13.3498 10.498C13.3367 10.5702 13.3645 10.5948 13.4316 10.6021C13.5602 10.6161 13.6887 10.6341 13.8165 10.6546C13.8612 10.6603 13.9027 10.681 13.9342 10.7133C13.9657 10.7455 13.9854 10.7876 13.99 10.8325C13.9957 10.8786 13.985 10.9253 13.9596 10.9643C13.9343 11.0033 13.8961 11.0321 13.8517 11.0456C13.818 11.0545 13.7829 11.0565 13.7485 11.0514C13.6224 11.0366 13.4963 11.021 13.371 11.0005C13.3039 10.9891 13.2785 11.0137 13.2703 11.0825C13.2449 11.2866 13.2179 11.4924 13.1884 11.6933C13.1874 11.7212 13.1801 11.7486 13.1672 11.7734C13.1544 11.7983 13.1362 11.82 13.114 11.837C13.0918 11.8539 13.0661 11.8658 13.0388 11.8717C13.0114 11.8776 12.9832 11.8774 12.9559 11.8712C12.9076 11.8662 12.8633 11.8423 12.8326 11.8046C12.8019 11.767 12.7874 11.7187 12.7922 11.6703C12.802 11.5432 12.8216 11.4178 12.838 11.2916C12.8659 11.1038 12.8912 10.9186 12.9166 10.7341Z" fill="#DE0F7E"/>
</g>
</svg>
