<svg width="25" height="26" viewBox="0 0 25 26" fill="none" xmlns="http://www.w3.org/2000/svg">
<path d="M23.4321 10.8857L13.5856 10.8853C13.1508 10.8853 12.7983 11.2376 12.7983 11.6724V14.818C12.7983 15.2527 13.1508 15.6052 13.5855 15.6052H19.1305C18.5233 17.1809 17.3901 18.5006 15.9442 19.3391L18.3086 23.432C22.1013 21.2385 24.3436 17.3898 24.3436 13.0814C24.3436 12.468 24.2984 12.0295 24.2079 11.5357C24.1392 11.1605 23.8135 10.8857 23.4321 10.8857Z" fill="#167EE6"/>
<path d="M12.2738 20.3314C9.5602 20.3314 7.19126 18.8488 5.91896 16.6548L1.82617 19.0138C3.90896 22.6236 7.8107 25.0545 12.2738 25.0545C14.4632 25.0545 16.5291 24.465 18.3088 23.4376V23.432L15.9445 19.3391C14.863 19.9663 13.6114 20.3314 12.2738 20.3314Z" fill="#12B347"/>
<path d="M18.3085 23.4376V23.432L15.9441 19.339C14.8626 19.9662 13.6112 20.3313 12.2734 20.3313V25.0544C14.4629 25.0544 16.5289 24.4649 18.3085 23.4376Z" fill="#0F993E"/>
<path d="M4.92668 12.9844C4.92668 11.6468 5.29171 10.3954 5.91883 9.31399L1.82605 6.95496C0.793066 8.72902 0.203613 10.7893 0.203613 12.9844C0.203613 15.1794 0.793066 17.2397 1.82605 19.0138L5.91883 16.6548C5.29171 15.5733 4.92668 14.3219 4.92668 12.9844Z" fill="#FFD500"/>
<path d="M12.2738 5.63738C14.0433 5.63738 15.6687 6.26615 16.9383 7.31205C17.2515 7.57005 17.7067 7.55142 17.9936 7.26452L20.2223 5.03581C20.5479 4.71029 20.5247 4.17746 20.1769 3.87581C18.0498 2.03046 15.2822 0.914307 12.2738 0.914307C7.8107 0.914307 3.90896 3.34515 1.82617 6.95494L5.91896 9.31398C7.19126 7.12001 9.5602 5.63738 12.2738 5.63738Z" fill="#FF4B26"/>
<path d="M16.9379 7.31205C17.2512 7.57005 17.7064 7.55142 17.9933 7.26452L20.222 5.03581C20.5475 4.71029 20.5243 4.17746 20.1766 3.87581C18.0495 2.03041 15.2819 0.914307 12.2734 0.914307V5.63738C14.0429 5.63738 15.6684 6.26615 16.9379 7.31205Z" fill="#D93F21"/>
</svg>
