<svg width="46" height="47" viewBox="0 0 46 47" fill="none" xmlns="http://www.w3.org/2000/svg">
<g id="Group 10709">
<path id="Vector" d="M2.3697 10.9165C3.42624 10.3054 4.48795 9.6994 5.54449 9.08827L5.64289 9.0313C6.36796 8.6118 7.09304 8.19233 7.81811 7.77282C7.9217 7.71585 8.01491 7.66921 8.11849 7.61742C8.17029 7.59153 8.2169 7.5708 8.26351 7.54491L8.65712 7.3481L8.90054 7.71586C10.0607 9.46121 11.4953 10.9579 13.2872 12.2838L13.6342 12.5427L13.3131 13.1176C13.2458 13.2419 13.1836 13.3559 13.1163 13.4646L12.2877 14.8993C11.5781 16.1267 10.8427 17.3956 10.1332 18.6489C10.0451 18.7991 9.926 19.027 9.90529 19.229C9.85867 19.6226 10.1694 20.011 10.6511 20.156C11.0965 20.2906 11.4176 20.156 11.6714 19.7261C12.3446 18.5712 13.0127 17.4059 13.6808 16.2458C14.0226 15.6502 14.3697 15.0546 14.7115 14.4538C14.784 14.3295 14.8617 14.2052 14.9445 14.0757C14.9808 14.0136 15.0222 13.9514 15.0637 13.8893L15.3019 13.5112L15.7007 13.708C17.5911 14.6403 19.6057 15.1945 21.869 15.4172L22.3144 15.4586V18.219C22.3144 19.6381 22.3144 21.0623 22.3144 22.4814C22.3144 23.0304 22.4956 23.3049 22.9255 23.4396C23.2829 23.5483 23.6091 23.512 23.8474 23.3359C24.0753 23.165 24.2047 22.875 24.2047 22.5177C24.2151 21.0934 24.2099 19.6536 24.2047 18.2605V18.0999C24.2047 17.5613 24.2047 17.0175 24.2047 16.4788V15.4482L24.6605 15.412C26.7839 15.2359 28.8038 14.6817 30.834 13.7184L31.2328 13.5268L31.5798 14.0861C31.6574 14.2052 31.7248 14.3192 31.7921 14.4331C32.1598 15.0701 32.5275 15.7071 32.8952 16.3442C33.5323 17.4473 34.1693 18.5505 34.8115 19.6536C35.1482 20.2285 35.5729 20.358 36.1167 20.0472C36.6553 19.7365 36.7589 19.2911 36.4378 18.7214C36.1374 18.1932 35.8318 17.6649 35.521 17.1366C35.3294 16.8051 35.1378 16.4788 34.9513 16.1577C34.5526 15.4637 34.1538 14.7697 33.7446 14.0654L32.8642 12.5376L33.2267 12.2786C34.9721 11.0149 36.417 9.51816 37.6393 7.69512L37.8983 7.31187L39.9958 8.52376C41.4045 9.33688 42.7873 10.1345 44.1701 10.9321C44.4809 11.1081 44.7657 11.1703 44.9988 11.1081C45.2111 11.0512 45.3924 10.8906 45.5374 10.6265C45.843 10.0827 45.7135 9.66836 45.1231 9.32136C44.3876 8.8915 43.647 8.46682 42.9064 8.03696L42.7459 7.94371C42.4092 7.75208 42.0778 7.56046 41.7411 7.36365C41.13 7.01148 40.524 6.65929 39.9388 6.31747L38.9082 5.72186L39.0221 5.34898C39.1257 4.9968 39.2345 4.6498 39.338 4.30798V4.28731C39.5918 3.4949 39.8197 2.74908 40.0113 1.98776C40.2029 1.22125 39.7575 0.47031 38.9548 0.200998C38.5249 0.0559832 38.1158 0.0818812 37.7739 0.268328C37.3544 0.496208 37.0333 0.972656 36.8676 1.59933C35.1896 8.0939 29.8292 12.2579 23.3295 12.2579C22.941 12.2579 22.5474 12.2423 22.1486 12.2113C17.2596 11.8384 13.5358 9.46636 11.0861 5.15736C10.5786 4.26655 10.2471 3.28255 9.93118 2.33478C9.81206 1.97742 9.69293 1.62004 9.56863 1.27823C9.25271 0.413318 8.46549 -0.0424448 7.66273 0.175077C6.77711 0.413315 6.31099 1.19019 6.52851 2.06027C6.71496 2.81124 6.94284 3.54148 7.18108 4.31316C7.28466 4.65498 7.39342 4.9968 7.497 5.3438L7.60577 5.70637L7.16554 5.97563C7.06196 6.03778 6.94802 6.1103 6.82372 6.18281L4.57082 7.48276C3.51946 8.08872 2.46811 8.69468 1.41675 9.30581C0.800442 9.66317 0.665788 10.0826 0.981713 10.6368C1.29764 11.1858 1.73786 11.279 2.35935 10.9217L2.3697 10.9165Z" fill="#E01E89"/>
<path id="Vector_2" d="M45.2317 32.1247C44.1907 31.524 43.1497 30.9231 42.1087 30.3224L38.9184 28.4735L39.0323 28.1006C39.1411 27.7432 39.2447 27.391 39.3535 27.044C39.5969 26.2464 39.8299 25.5007 40.0267 24.7342C40.1925 24.0764 39.8403 23.3617 39.1929 23.0406C38.7423 22.8179 38.2762 22.7972 37.8774 22.9785C37.4009 23.2012 37.0488 23.688 36.883 24.3457C36.0492 27.7277 34.0345 30.659 31.2016 32.6012C28.4204 34.5071 25.054 35.3357 21.7187 34.9421C17.0005 34.3828 13.4218 32.016 11.086 27.9141C10.4956 26.8783 10.1227 25.7234 9.76532 24.6047L9.66692 24.3043C9.33028 23.2581 8.62593 22.735 7.78174 22.9059C7.30526 23.0043 6.91683 23.2529 6.69413 23.6051C6.4766 23.9469 6.41963 24.3664 6.53358 24.817C6.72002 25.5628 6.94273 26.2931 7.18614 27.0596C7.29491 27.4066 7.39848 27.7484 7.50206 28.0954L7.61082 28.4631L7.14989 28.7376C7.04113 28.8049 6.92719 28.8723 6.81325 28.9344L4.98503 29.9909C3.77831 30.6901 2.57157 31.3841 1.36484 32.0833C0.888364 32.3578 0.743348 32.6685 0.878004 33.1139C0.986765 33.4661 1.18358 33.7147 1.43735 33.8131C1.69113 33.9115 2.00705 33.87 2.32816 33.6836C3.47792 33.0258 4.62249 32.3629 5.76706 31.7L5.79814 31.6793C6.44552 31.3064 7.08774 30.9335 7.73513 30.5606C7.85425 30.4933 7.97855 30.426 8.07695 30.3742L8.53269 30.1307L8.79165 30.4364C9.01953 30.7108 9.24224 30.9801 9.45976 31.2494C9.94141 31.845 10.3972 32.4044 10.8944 32.9223C11.3967 33.4402 11.9354 33.9167 12.5102 34.419C12.764 34.6417 13.023 34.8697 13.2767 35.0975L13.5616 35.3565L13.313 35.8226C13.256 35.9313 13.1939 36.0556 13.1266 36.1748L12.2202 37.744C11.5159 38.9611 10.8115 40.1834 10.1123 41.4056C10.0295 41.5506 9.92069 41.763 9.8948 41.9443C9.84301 42.3223 10.1382 42.7211 10.5784 42.8765C11.0394 43.037 11.3967 42.9075 11.6401 42.488C12.3445 41.2865 13.0489 40.0591 13.7325 38.873C14.0691 38.293 14.4006 37.7129 14.7372 37.1329C14.8046 37.0189 14.8719 36.905 14.9496 36.791L15.2862 36.2525L15.6902 36.4493C17.6065 37.3919 19.6263 37.9512 21.8533 38.1583L22.3039 38.1998V41.0172C22.3039 42.4311 22.3039 43.8398 22.3039 45.2537C22.3039 45.5748 22.3919 45.8286 22.5525 45.9891C22.7079 46.1445 22.9461 46.2222 23.262 46.2274C23.8887 46.2274 24.1943 45.8959 24.1943 45.233C24.1994 43.3944 24.2046 41.2296 24.1943 39.0906C24.1943 38.4691 24.4895 38.1428 25.111 38.091C25.6444 38.0444 26.2607 37.9822 26.8097 37.8269C27.7782 37.5524 28.726 37.252 29.7307 36.9309C30.145 36.8014 30.5542 36.6719 30.9685 36.5373L31.3414 36.4233L31.6055 36.8687C31.6677 36.9723 31.735 37.0863 31.8023 37.2054L32.5222 38.4484C33.2887 39.7742 34.0552 41.1052 34.8217 42.4363C35.0134 42.7729 35.205 42.9179 35.4795 42.9386C35.9197 42.9697 36.2408 42.8092 36.4946 42.4311C36.6759 42.1566 36.6707 41.8821 36.4687 41.5299C35.4329 39.7431 34.4022 37.9564 33.3716 36.1696C33.3043 36.0505 33.2421 35.9314 33.18 35.8071C33.1541 35.7501 33.123 35.6931 33.0919 35.6361L32.8951 35.2581L33.2421 35.0095C34.9564 33.7768 36.391 32.2904 37.634 30.4518L37.8878 30.079L38.473 30.3949C38.5921 30.4622 38.7009 30.514 38.7993 30.5761C39.2602 30.8403 39.716 31.1044 40.1769 31.3737L40.2339 31.41C41.5287 32.161 42.8701 32.943 44.2063 33.6785C44.4393 33.8079 44.7915 33.8649 45.0297 33.8079C45.4907 33.7044 45.6253 33.2331 45.6668 32.9586C45.7237 32.5857 45.5891 32.3319 45.2162 32.1196L45.2317 32.1247Z" fill="#E01E89"/>
</g>
</svg>
