<svg width="30" height="30" viewBox="0 0 30 30" fill="none" xmlns="http://www.w3.org/2000/svg">
<path id="Vector" d="M28.676 13.2472C28.6751 13.2466 28.6744 13.2457 28.6737 13.245L16.8639 1.43568C16.3604 0.931972 15.6912 0.654785 14.9793 0.654785C14.2674 0.654785 13.5981 0.931972 13.0945 1.43563L1.29077 13.239C1.28681 13.243 1.28263 13.2472 1.2789 13.2512C0.245128 14.2909 0.246937 15.9777 1.28399 17.0148C1.75773 17.4888 2.38324 17.7632 3.05234 17.7921C3.07971 17.7947 3.10714 17.796 3.13473 17.796H3.60519V26.4869C3.60519 28.2069 5.0047 29.6062 6.72471 29.6062H11.3451C11.8136 29.6062 12.1933 29.2262 12.1933 28.758V21.9443C12.1933 21.1595 12.8319 20.5211 13.6167 20.5211H16.3419C17.1268 20.5211 17.765 21.1595 17.765 21.9443V28.758C17.765 29.2263 18.1447 29.6062 18.6132 29.6062H23.2336C24.9539 29.6062 26.3532 28.2069 26.3532 26.4869V17.7961H26.7896C27.5013 17.7961 28.1706 17.5188 28.6744 17.015C29.7126 15.9764 29.713 14.2864 28.6759 13.2472L28.676 13.2472ZM27.4748 15.8157C27.385 15.906 27.2783 15.9776 27.1607 16.0263C27.0431 16.0751 26.9169 16.1 26.7896 16.0997H25.5049C25.0364 16.0997 24.6567 16.4794 24.6567 16.9479V26.4869C24.6567 27.2715 24.0184 27.9098 23.2336 27.9098H19.4614V21.9443C19.4614 20.2243 18.0621 18.8247 16.3418 18.8247H13.6167C11.8965 18.8247 10.497 20.2243 10.497 21.9443V27.9098H6.72482C5.94019 27.9098 5.30162 27.2714 5.30162 26.4869V16.9479C5.30162 16.4793 4.92192 16.0997 4.45343 16.0997H3.19082C3.17759 16.0988 3.16434 16.0982 3.15107 16.0979C2.89837 16.0935 2.66139 15.9932 2.48383 15.8154C2.10611 15.4377 2.10611 14.823 2.48383 14.4451C2.484 14.4451 2.484 14.4448 2.48423 14.4446L2.48491 14.4439L14.2943 2.63502C14.384 2.54472 14.4908 2.47312 14.6083 2.4244C14.7259 2.37567 14.852 2.35077 14.9793 2.35116C15.238 2.35116 15.4812 2.45187 15.6643 2.63502L27.471 14.4415L27.4765 14.4469C27.8523 14.8253 27.8516 15.4387 27.4748 15.8157Z" fill="#B8B8B8"/>
</svg>
