<svg width="25" height="32" viewBox="0 0 25 32" fill="none" xmlns="http://www.w3.org/2000/svg">
<path d="M12.339 0.800049C5.64365 0.800049 0.196777 6.24692 0.196777 12.9423C0.196777 24.6817 10.9191 31.2147 11.3962 31.6261C11.526 31.7383 11.6918 31.8 11.8633 31.8C12.0349 31.8 12.2007 31.7383 12.3305 31.6261C12.8062 31.2133 24.4813 24.6803 24.4813 12.9423C24.4813 6.24692 19.0344 0.800049 12.339 0.800049ZM18.713 13.2151C18.659 13.3458 18.5675 13.4574 18.45 13.536C18.3325 13.6146 18.1944 13.6565 18.053 13.6566H17.3388V18.6563C17.3388 18.8457 17.2635 19.0274 17.1296 19.1614C16.9956 19.2953 16.814 19.3706 16.6245 19.3706H13.7675C13.5781 19.3706 13.3964 19.2953 13.2625 19.1614C13.1285 19.0274 13.0533 18.8457 13.0533 18.6563V15.0851H11.6248V18.6563C11.6248 18.8457 11.5495 19.0274 11.4156 19.1614C11.2816 19.2953 11.1 19.3706 10.9105 19.3706H8.05353C7.8641 19.3706 7.68243 19.2953 7.54848 19.1614C7.41453 19.0274 7.33928 18.8457 7.33928 18.6563V13.6566H6.62503C6.48358 13.6568 6.34524 13.6151 6.22755 13.5366C6.10985 13.4581 6.01811 13.3465 5.96394 13.2158C5.90978 13.0851 5.89563 12.9413 5.9233 12.8026C5.95096 12.6639 6.01919 12.5365 6.11934 12.4366L11.8333 6.72261C11.9673 6.58871 12.1489 6.51349 12.3383 6.51349C12.5277 6.51349 12.7094 6.58871 12.8433 6.72261L18.5573 12.4366C18.6577 12.5362 18.7261 12.6635 18.7539 12.8021C18.7816 12.9408 18.7674 13.0846 18.713 13.2151Z" fill="#DE0F7E"/>
</svg>
