<svg width="30" height="30" viewBox="0 0 30 30" fill="none" xmlns="http://www.w3.org/2000/svg">
<g id="Home_Selected">
<path id="Vector 189" d="M1.35866 13.976C5.32069 10.2335 12.2869 3.58387 13.636 2.03597C13.787 1.86264 13.9671 1.71444 14.1806 1.62904L14.7643 1.39554C15.1328 1.24811 15.5536 1.33259 15.8367 1.61082L27.0971 12.6787C27.1847 12.7648 27.2556 12.8663 27.3065 12.9781L28.0131 14.5328C28.1562 14.8475 28.1266 15.2137 27.9348 15.5013L27.4199 16.2737C27.2966 16.4587 27.1151 16.5973 26.9041 16.6677L26.0889 16.9394C25.6806 17.0755 25.4052 17.4576 25.4052 17.8881V26.8683C25.4052 27.0847 25.335 27.2952 25.2052 27.4683L24.4889 28.4234C24.3 28.6752 24.0036 28.8234 23.6889 28.8234H19.3102C18.7579 28.8234 18.3102 28.3756 18.3102 27.8234V21.6143C18.3102 21.3619 18.2147 21.1188 18.043 20.9338L17.2893 20.1221C17.1 19.9184 16.8345 19.8026 16.5565 19.8026H12.7662C12.4881 19.8026 12.2226 19.9184 12.0334 20.1221L11.2797 20.9338C11.1079 21.1188 11.0125 21.3619 11.0125 21.6143V27.8234C11.0125 28.3756 10.5647 28.8234 10.0125 28.8234H6.20822C5.97251 28.8234 5.74438 28.7401 5.56409 28.5883L4.27333 27.5013C4.0477 27.3113 3.91747 27.0314 3.91747 26.7364V17.5592C3.91747 17.0069 3.46975 16.5592 2.91747 16.5592H2.81644C2.67369 16.5592 2.53259 16.5286 2.40263 16.4695L1.86204 16.2238C1.62056 16.114 1.43259 15.9128 1.33948 15.6645L1.1103 15.0531C0.968929 14.676 1.06589 14.2526 1.35866 13.976Z" fill="#DE0F7E"/>
<path id="Vector" d="M28.4524 13.1048C28.4515 13.1042 28.4508 13.1033 28.4501 13.1026L16.6402 1.29329C16.1368 0.789577 15.4675 0.51239 14.7557 0.51239C14.0438 0.51239 13.3745 0.789577 12.8709 1.29323L1.06714 13.0966C1.06318 13.1006 1.059 13.1048 1.05526 13.1088C0.0214951 14.1485 0.0233045 15.8353 1.06035 16.8724C1.53409 17.3464 2.1596 17.6208 2.82871 17.6497C2.85608 17.6523 2.8835 17.6536 2.9111 17.6536H3.38156V26.3445C3.38156 28.0645 4.78106 29.4638 6.50107 29.4638H11.1215C11.59 29.4638 11.9697 29.0838 11.9697 28.6156V21.8019C11.9697 21.0171 12.6082 20.3787 13.393 20.3787H16.1183C16.9031 20.3787 17.5414 21.0171 17.5414 21.8019V28.6156C17.5414 29.0839 17.9211 29.4638 18.3896 29.4638H23.01C24.7302 29.4638 26.1295 28.0645 26.1295 26.3445V17.6537H26.566C27.2777 17.6537 27.947 17.3764 28.4508 16.8726C29.489 15.834 29.4894 14.144 28.4523 13.1048L28.4524 13.1048ZM27.2512 15.6733C27.1614 15.7636 27.0546 15.8352 26.937 15.8839C26.8194 15.9327 26.6933 15.9576 26.566 15.9574H25.2813C24.8128 15.9574 24.4331 16.337 24.4331 16.8055V26.3445C24.4331 27.1291 23.7947 27.7674 23.0099 27.7674H19.2378V21.8019C19.2378 20.0819 17.8384 18.6824 16.1182 18.6824H13.3931C11.6729 18.6824 10.2734 20.0819 10.2734 21.8019V27.7674H6.50119C5.71656 27.7674 5.07799 27.129 5.07799 26.3445V16.8055C5.07799 16.3369 4.69828 15.9573 4.2298 15.9573H2.96719C2.95396 15.9564 2.9407 15.9558 2.92744 15.9555C2.67474 15.9511 2.43775 15.8508 2.2602 15.673C1.88247 15.2953 1.88247 14.6806 2.2602 14.3027C2.26037 14.3027 2.26037 14.3024 2.26059 14.3022L2.26127 14.3015L14.0707 2.49262C14.1604 2.40232 14.2671 2.33073 14.3847 2.282C14.5023 2.23327 14.6284 2.20838 14.7557 2.20876C15.0143 2.20876 15.2575 2.30947 15.4406 2.49262L27.2474 14.2992L27.2529 14.3045C27.6287 14.6829 27.628 15.2963 27.2512 15.6733Z" fill="#DE0F7E"/>
</g>
</svg>
