<svg width="23" height="23" viewBox="0 0 23 23" fill="none" xmlns="http://www.w3.org/2000/svg">
<g id="Iconly/Bold/Info-Circle">
<g id="Info-Circle">
<path id="Vector" d="M11.1299 0.347412C17.2129 0.347412 22.1299 5.27651 22.1299 11.3474C22.1299 17.4205 17.2129 22.3474 11.1299 22.3474C5.05788 22.3474 0.129883 17.4205 0.129883 11.3474C0.129883 5.27651 5.05788 0.347412 11.1299 0.347412ZM11.1299 14.5715C10.6019 14.5715 10.1729 15.0005 10.1729 15.5285C10.1729 16.0565 10.6019 16.4965 11.1409 16.4965C11.6689 16.4965 12.0979 16.0565 12.0979 15.5285C12.0979 15.0005 11.6689 14.5715 11.1299 14.5715ZM11.1299 6.21041C10.6019 6.21041 10.1619 6.65151 10.1619 7.17841V12.0404C10.1619 12.5695 10.6019 12.9974 11.1299 12.9974C11.6579 12.9974 12.0869 12.5695 12.0869 12.0404V7.17841C12.0869 6.65151 11.6579 6.21041 11.1299 6.21041Z" fill="#DE0F7E"/>
</g>
</g>
</svg>
