<svg width="21" height="22" viewBox="0 0 21 22" fill="none" xmlns="http://www.w3.org/2000/svg">
<path d="M20.3258 6.75037C20.2781 5.66901 20.1032 4.92565 19.8527 4.28144C19.5943 3.59768 19.1967 2.98552 18.6759 2.4766C18.1669 1.95977 17.5507 1.55816 16.8749 1.3038C16.227 1.05333 15.4875 0.878407 14.4061 0.830779C13.3167 0.779017 12.9709 0.76709 10.2078 0.76709C7.44477 0.76709 7.09894 0.779017 6.01356 0.826724C4.93223 0.874431 4.18883 1.04944 3.54483 1.29974C2.86086 1.55816 2.2487 1.95572 1.73978 2.4766C1.22295 2.98548 0.821538 3.60169 0.56698 4.27755C0.316517 4.92565 0.14163 5.66503 0.0939626 6.74632C0.04224 7.83575 0.0302734 8.18159 0.0302734 10.9446C0.0302734 13.7077 0.04224 14.0536 0.0899075 15.1389C0.137615 16.2203 0.312621 16.9636 0.563124 17.6078C0.821538 18.2916 1.22295 18.9038 1.73978 19.4127C2.2487 19.9295 2.86492 20.3311 3.54077 20.5855C4.18879 20.8359 4.92818 21.0109 6.0097 21.0585C7.09488 21.1064 7.44092 21.1181 10.204 21.1181C12.967 21.1181 13.3128 21.1064 14.3982 21.0585C15.4795 21.0108 16.2229 20.836 16.867 20.5855C17.5433 20.324 18.1576 19.924 18.6704 19.4112C19.1832 18.8985 19.5832 18.2842 19.8448 17.6078C20.0951 16.9598 20.2701 16.2202 20.3178 15.1389C20.3655 14.0536 20.3774 13.7077 20.3774 10.9446C20.3774 8.18159 20.3734 7.83571 20.3258 6.75037ZM18.4931 15.0594C18.4493 16.0533 18.2823 16.59 18.1432 16.9478C17.8012 17.8344 17.0976 18.538 16.211 18.88C15.8532 19.0192 15.3126 19.1861 14.3226 19.2297C13.2492 19.2776 12.9272 19.2893 10.2119 19.2893C7.4965 19.2893 7.17054 19.2776 6.10098 19.2297C5.10708 19.1861 4.57037 19.0192 4.21257 18.88C3.7714 18.7169 3.36982 18.4585 3.04382 18.1206C2.70589 17.7906 2.44748 17.3931 2.2844 16.9518C2.14525 16.594 1.97832 16.0533 1.93471 15.0634C1.88684 13.99 1.87507 13.6679 1.87507 10.9525C1.87507 8.23717 1.88684 7.91121 1.93471 6.84185C1.97832 5.84795 2.14525 5.31124 2.2844 4.95344C2.44748 4.51207 2.70589 4.11057 3.04788 3.78449C3.37769 3.44657 3.77525 3.18815 4.21662 3.02527C4.57443 2.88613 5.11519 2.71915 6.10503 2.67538C7.17845 2.62767 7.50055 2.61575 10.2157 2.61575C12.9352 2.61575 13.2571 2.62767 14.3266 2.67538C15.3205 2.71919 15.8572 2.88609 16.215 3.02523C16.6562 3.18815 17.0578 3.44657 17.3838 3.78449C17.7217 4.11451 17.9801 4.51207 18.1432 4.95344C18.2823 5.31124 18.4493 5.85181 18.4931 6.84185C18.5408 7.91526 18.5527 8.23717 18.5527 10.9525C18.5527 13.6679 18.5408 13.986 18.4931 15.0594Z" fill="white"/>
<path d="M10.2079 5.71671C7.32169 5.71671 4.97998 8.05826 4.97998 10.9446C4.97998 13.831 7.32169 16.1725 10.2079 16.1725C13.0942 16.1725 15.4358 13.831 15.4358 10.9446C15.4358 8.05826 13.0942 5.71671 10.2079 5.71671ZM10.2079 14.3358C8.33547 14.3358 6.81663 12.8172 6.81663 10.9446C6.81663 9.07204 8.33547 7.55344 10.2079 7.55344C12.0804 7.55344 13.5991 9.07204 13.5991 10.9446C13.5991 12.8172 12.0804 14.3358 10.2079 14.3358ZM16.8631 5.50998C16.8631 6.18401 16.3166 6.73049 15.6425 6.73049C14.9685 6.73049 14.422 6.18401 14.422 5.50998C14.422 4.83588 14.9685 4.28955 15.6425 4.28955C16.3166 4.28955 16.8631 4.83584 16.8631 5.50998Z" fill="white"/>
</svg>
