<svg width="28" height="28" viewBox="0 0 28 28" fill="none" xmlns="http://www.w3.org/2000/svg">
<g id="Isolation_Mode" clip-path="url(#clip0_1848_1048)">
<path id="Vector" d="M26.6272 18.9058C27.6245 16.0294 27.6245 12.901 26.6272 10.0246C26.6163 9.98209 26.6007 9.94092 26.5805 9.90191C25.642 7.28399 23.9178 5.0199 21.6436 3.41924C19.3693 1.81857 16.6562 0.959473 13.8752 0.959473C11.0941 0.959473 8.38094 1.81857 6.10672 3.41924C3.8325 5.0199 2.10827 7.28399 1.16979 9.90191C1.15166 9.94117 1.13794 9.98233 1.12889 10.0246C0.122402 12.8995 0.122402 16.031 1.12889 18.9058C1.13987 18.9476 1.15354 18.9885 1.16979 19.0285C2.11089 21.6438 3.8361 23.905 6.11 25.5034C8.3839 27.1018 11.0957 27.9595 13.8752 27.9595C16.6546 27.9595 19.3664 27.1018 21.6403 25.5034C23.9142 23.905 25.6394 21.6438 26.5805 19.0285C26.5986 18.9886 26.6142 18.9477 26.6272 18.9058ZM13.8781 26.0458C13.3639 26.0458 12.5342 25.1168 11.8389 23.0367C11.48 21.9233 11.2142 20.7819 11.0443 19.6245H16.7119C16.5373 20.7816 16.2696 21.9227 15.9114 23.0367C15.2219 25.1168 14.3923 26.0458 13.8781 26.0458ZM10.8106 17.6905C10.7171 16.6621 10.6645 15.5812 10.6645 14.4827C10.6645 13.3843 10.7171 12.3034 10.8106 11.2692H16.9456C17.0391 12.3034 17.0858 13.3784 17.0858 14.4827C17.0858 15.5871 17.0391 16.6621 16.9456 17.6905H10.8106ZM2.30913 14.4827C2.3077 13.3953 2.46118 12.3133 2.76489 11.2692H8.86487C8.77723 12.3267 8.73049 13.4018 8.73049 14.4827C8.73049 15.5637 8.77723 16.6388 8.86487 17.6905H2.76489C2.46118 16.6484 2.3077 15.5682 2.30913 14.4827ZM13.8781 2.9138C14.3923 2.9138 15.2219 3.84867 15.9114 5.9229C16.2696 7.03693 16.5373 8.17806 16.7119 9.33516H11.0443C11.2142 8.17771 11.48 7.03636 11.8389 5.9229C12.5342 3.84867 13.3639 2.9138 13.8781 2.9138ZM18.8854 11.2692H24.9854C25.594 13.3683 25.594 15.5972 24.9854 17.6963H18.8854C18.9789 16.6446 19.0198 15.5637 19.0198 14.4886C19.0198 13.4135 18.9789 12.3325 18.8854 11.275V11.2692ZM24.2317 9.33516H18.6634C18.4247 7.2442 17.832 5.20907 16.9105 3.31696C18.4872 3.74832 19.9551 4.50726 21.2186 5.54424C22.4821 6.58122 23.5128 7.87297 24.2434 9.33516H24.2317ZM10.8514 3.31696C9.93001 5.20907 9.33726 7.2442 9.09856 9.33516H3.53031C4.2615 7.8734 5.29236 6.582 6.55578 5.54509C7.8192 4.50819 9.28682 3.74899 10.8631 3.31696H10.8514ZM3.51861 19.6186H9.0869C9.32481 21.7098 9.9176 23.745 10.8398 25.6368C9.26513 25.2043 7.79929 24.4449 6.53784 23.4079C5.27639 22.371 4.24763 21.0798 3.51861 19.6186ZM16.8988 25.6368C17.821 23.745 18.4138 21.7098 18.6517 19.6186H24.22C23.4903 21.0815 22.4599 22.3738 21.1963 23.4108C19.9326 24.4479 18.4642 25.2065 16.8871 25.6368H16.8988Z" fill="#DE0F7E"/>
</g>
<defs>
<clipPath id="clip0_1848_1048">
<rect width="27" height="27" fill="white" transform="translate(0.375 0.962402)"/>
</clipPath>
</defs>
</svg>
