<svg width="44" height="40" viewBox="0 0 44 40" fill="none" xmlns="http://www.w3.org/2000/svg">
<g id="Group 10706">
<path id="Vector" d="M43.3598 15.0028C43.3598 13.5022 42.18 12.3362 40.6829 12.3224C40.3897 12.3224 40.093 12.3224 39.7687 12.3224C39.7687 11.6394 39.7687 11.015 39.7687 10.3872C39.7687 9.76279 39.6652 9.61791 39.0512 9.39713C39.0512 8.84174 39.1099 8.30704 39.0409 7.79305C38.8856 6.64777 39.1961 5.73707 40.1482 5.03335C40.3448 4.88847 40.4621 4.52626 40.4725 4.25718C40.5139 3.42238 40.4897 2.58068 40.4863 1.74242C40.4863 1.05249 40.2586 0.821374 39.5825 0.821374C37.4851 0.821374 35.3912 0.793762 33.2938 0.828259C30.2167 0.880003 27.4708 1.89766 25.0388 3.77425C24.5214 4.17441 24.5386 4.69185 25.0733 5.06786C25.4769 5.35073 25.8909 5.62325 26.3049 5.89232C27.6157 6.74783 27.2432 6.74093 28.7713 6.15105C30.0167 5.67155 31.2068 5.06786 32.628 5.09546C33.4766 5.11271 34.0872 5.34038 34.5667 5.99236C34.6495 6.10274 34.7323 6.24763 34.7323 6.37871C34.7461 7.38255 34.7392 8.38294 34.7392 9.37644C34.0941 9.64206 34.0217 9.75589 34.0217 10.4527C34.0217 11.0633 34.0217 11.6704 34.0217 12.319C33.7077 12.319 33.4421 12.319 33.1765 12.319C31.5897 12.3259 30.4341 13.4815 30.4306 15.0683C30.4272 17.0449 30.4306 19.0216 30.4306 20.9982V21.495C30.0339 21.3328 29.6889 21.1431 29.3198 21.0603C29.0197 20.9913 28.9818 20.8533 28.9852 20.5981C28.9956 19.5356 28.9956 18.4731 28.9852 17.4106C28.9818 16.9001 28.7196 16.6413 28.2091 16.6344C27.7641 16.6275 27.319 16.6344 26.8327 16.6344C26.8327 15.979 26.812 15.3684 26.8396 14.7613C26.8671 14.2128 26.7016 13.8264 26.1358 13.7264V12.3431C26.2117 12.3328 26.2669 12.3259 26.3256 12.3155C27.5364 12.1637 28.3332 11.2116 28.2711 9.98703C28.2125 8.8728 27.257 8.01383 26.0634 8.01038C24.7008 8.01038 23.3382 8.00693 21.9756 8.01038C21.7997 8.01038 21.6065 8.02418 21.4547 8.09662C20.0334 8.79344 18.6156 9.50062 17.2048 10.2181C16.7494 10.4493 16.639 10.8805 16.9184 11.3151C17.3703 12.0188 17.8395 12.7122 18.3121 13.4056C18.5467 13.7471 18.8675 13.8368 19.2538 13.685C19.4884 13.5919 19.7264 13.4987 19.961 13.4056C20.5647 13.1676 21.1684 12.933 21.81 12.6812V13.7161C21.2098 13.9161 21.0925 14.0748 21.0925 14.6647C21.0925 15.3167 21.0925 15.9652 21.0925 16.6034C20.989 16.6172 20.9579 16.6241 20.9303 16.6241C20.5578 16.6241 20.1818 16.6241 19.8092 16.6241C19.1814 16.6275 18.9434 16.8656 18.9399 17.49C18.9399 18.5386 18.9468 19.5873 18.9296 20.6326C18.9296 20.7636 18.8019 20.9741 18.6915 21.0086C16.9115 21.5915 16.0664 22.7368 16.0664 24.61C16.0664 25.5207 16.0664 26.4279 16.0664 27.2282C15.3144 27.3973 14.6382 27.5594 13.9552 27.7043C13.2411 27.8561 12.5271 28.0389 11.8061 28.1148C10.3711 28.2631 8.9843 28.0113 7.61825 27.556C5.99348 27.0144 4.26522 27.5629 3.23723 28.891C2.19889 30.2329 2.1299 32.0612 3.05785 33.51C3.12339 33.6135 3.18549 33.7204 3.27518 33.8688C2.99576 33.8688 2.78533 33.8688 2.57835 33.8688C1.92982 33.8722 1.6987 34.1068 1.69525 34.7657C1.69525 35.3797 1.73664 35.9972 1.68835 36.6078C1.54691 38.3947 2.98196 39.6572 4.68262 39.6365C9.67768 39.5744 14.6727 39.6158 19.6643 39.6158C22.4206 39.6158 25.1734 39.6055 27.9296 39.6227C28.8024 39.6262 29.6613 39.6158 30.4306 39.0915C30.6272 39.4882 30.9136 39.6262 31.3172 39.6227C35.0462 39.6124 38.7718 39.6193 42.5008 39.6158C43.1287 39.6158 43.3736 39.3744 43.3736 38.7534C43.3736 30.8331 43.3736 22.9128 43.3736 14.9924L43.3598 15.0028ZM26.1462 18.0867H27.5329V20.9085H26.1462V18.0867ZM19.209 12.1396C18.9917 11.8153 18.7916 11.5186 18.557 11.1633C18.8847 11.0012 19.2124 10.8736 19.5022 10.6838C21.1097 9.62825 22.8621 9.2212 24.7732 9.43507C25.1734 9.47992 25.5804 9.43508 25.984 9.44198C26.5015 9.45233 26.8396 9.74554 26.8327 10.1698C26.8258 10.5907 26.4877 10.877 25.9633 10.8805C24.9181 10.8874 23.8694 10.8701 22.8242 10.8908C22.5344 10.8977 22.2309 10.9529 21.9583 11.0564C21.0511 11.3945 20.1542 11.767 19.209 12.143V12.1396ZM22.5551 16.6103V15.2097H25.3735V16.6103H22.5551ZM24.6594 18.0902V20.912H23.2657V18.0902H24.6594ZM23.2623 13.7299V12.35H24.6628V13.7299H23.2623ZM20.3922 18.0867H21.7721V20.9258H20.3922V18.0867ZM5.47603 28.9737C6.05902 28.753 6.65236 28.753 7.23189 28.9565C9.75012 29.8465 12.2614 29.8396 14.7866 28.9703C15.8422 28.6081 16.8115 28.8185 17.5635 29.6706C18.2569 30.4571 18.4087 31.3816 17.9809 32.344C17.529 33.3617 16.6942 33.855 15.5938 33.8688C14.0828 33.886 12.5719 33.8722 11.0575 33.8722C9.50174 33.8722 7.94596 33.886 6.38673 33.8653C5.06208 33.8481 4.07549 32.9581 3.85816 31.6403C3.67878 30.5571 4.3894 29.3773 5.47259 28.9668L5.47603 28.9737ZM18.833 37.3046C18.7398 37.8634 18.2224 38.1704 17.5808 38.1842C16.9529 38.1946 16.3251 38.1842 15.6938 38.1842C12.0407 38.1842 8.39097 38.1842 4.73781 38.1842C3.56494 38.1842 3.11649 37.7323 3.11649 36.556C3.11649 36.1559 3.11649 35.7557 3.11649 35.3176H18.9572C18.9192 35.9868 18.9399 36.6561 18.8295 37.3046H18.833ZM18.7536 33.886C19.3228 33.0822 19.654 32.2854 19.6471 31.3712C19.6367 29.9086 19.0089 28.7806 17.7981 27.9837C17.567 27.8319 17.4738 27.687 17.4842 27.4145C17.5049 26.9523 17.4911 26.49 17.4911 25.9726C19.5229 25.9726 21.4961 25.9553 23.4693 25.9829C24.173 25.9933 24.6663 26.5245 24.6732 27.2455C24.6904 29.267 24.6904 31.2884 24.6732 33.3065C24.6663 34.0585 24.1419 34.569 23.3865 34.5863C22.3999 34.607 21.4133 34.5932 20.6026 34.5932C20.2646 34.2931 20.0645 34.0033 19.7954 33.9102C19.5091 33.8067 19.1572 33.886 18.7536 33.886ZM30.4237 36.4111C30.372 37.3943 29.6579 38.167 28.6782 38.1739C25.8357 38.198 22.9932 38.1842 20.1921 38.1842C20.2715 37.4564 20.3508 36.7664 20.4302 36.0282C21.3547 36.0282 22.3067 36.0282 23.2588 36.0282C24.9906 36.0282 26.1082 34.9002 26.1082 33.1581C26.1082 31.2126 26.1082 29.267 26.1082 27.3214C26.1082 25.6759 24.963 24.5341 23.314 24.5341C21.5478 24.5341 19.7816 24.5341 18.0154 24.5341C17.8533 24.5341 17.6912 24.5341 17.5359 24.5341C17.3496 23.6268 18.1396 22.3677 19.5781 22.3712C22.3481 22.3815 25.1147 22.3712 27.8848 22.3712C28.0193 22.3712 28.1539 22.3712 28.2884 22.3712C29.5854 22.3815 30.4203 23.2094 30.4237 24.5099C30.4272 28.2666 30.4237 32.0232 30.4237 35.7798C30.4237 35.9903 30.4306 36.2007 30.4203 36.4077L30.4237 36.4111ZM34.6598 4.05367C34.5012 3.84669 34.1286 3.71906 33.8492 3.70871C32.9695 3.68111 32.0657 3.60867 31.2137 3.77425C30.2581 3.96053 29.3474 4.37103 28.4264 4.71254C27.5122 5.05405 27.4605 5.0575 26.7119 4.35033C28.2021 3.35339 29.8166 2.59103 31.5897 2.45649C34.0286 2.27366 36.4812 2.3116 38.9305 2.25641C38.9546 2.25641 38.9822 2.27711 39.0512 2.30816C39.0512 2.8532 39.103 3.42583 39.0271 3.97777C38.996 4.21234 38.6925 4.40552 38.5269 4.6263C38.2233 5.02645 37.83 5.0989 37.3368 5.15065C36.2087 5.27483 35.3532 4.95057 34.6633 4.05022L34.6598 4.05367ZM38.3061 10.9081V12.3086H37.6472V10.9081H38.3061ZM37.5817 6.58225V9.41092H36.1984V6.58225H37.5817ZM36.1432 10.8943V12.2948H35.4809V10.8943H36.1432ZM31.8932 18.0798H37.5886V30.9607H31.8932V18.0798ZM41.9248 34.9243V35.3107C41.4315 35.3107 40.9865 35.3038 40.5415 35.3107C40.0723 35.3176 39.7825 35.5867 39.7722 36.0041C39.7618 36.4422 40.0585 36.732 40.5449 36.7423C40.9899 36.7492 41.4349 36.7423 41.9041 36.7423V38.1497H31.8932V36.7423H32.3796C34.07 36.7423 35.7637 36.7423 37.454 36.7423C38.0232 36.7423 38.3337 36.4801 38.3302 36.0179C38.3268 35.5556 38.0232 35.3107 37.4368 35.3107C35.7603 35.3107 34.0838 35.3107 32.4072 35.3107H31.8932V32.4337H32.3831C34.1045 32.4337 35.8258 32.4337 37.5472 32.4337C38.4475 32.4337 39.0478 31.8438 39.0478 30.9504C39.0478 26.6694 39.0478 22.3884 39.0478 18.1074C39.0478 17.2209 38.4441 16.631 37.5437 16.631C35.674 16.6276 33.8043 16.631 31.9208 16.631C31.9208 15.979 31.8588 15.3374 31.9381 14.713C32.0105 14.13 32.5073 13.7644 33.1317 13.7609C35.6464 13.7471 38.1612 13.7437 40.676 13.7609C41.3866 13.7678 41.8627 14.2784 41.9213 14.989C41.9282 15.0787 41.9248 15.1683 41.9248 15.258C41.9248 21.8158 41.9248 28.3735 41.9248 34.9278V34.9243Z" fill="#E01E89"/>
<path id="Vector_2" d="M4.90679 20.222C7.1111 20.2254 8.86695 18.473 8.86695 16.2687C8.86695 14.0644 7.11454 12.3189 4.90334 12.3189C2.72662 12.3189 0.963867 14.0748 0.963867 16.248C0.963867 18.4592 2.70938 20.2185 4.90679 20.222ZM4.91023 13.7574C6.26594 13.7505 7.43536 14.9165 7.42846 16.2653C7.42156 17.6417 6.29698 18.7697 4.91714 18.787C3.57178 18.8042 2.39891 17.6313 2.39891 16.2756C2.39891 14.9096 3.54073 13.7608 4.91023 13.7539V13.7574Z" fill="#E01E89"/>
<path id="Vector_3" d="M10.2982 10.8804C11.9023 10.8804 13.1787 9.61438 13.1787 8.01721C13.1787 6.40968 11.9161 5.13678 10.3155 5.13678C8.70797 5.13678 7.43506 6.39934 7.43506 7.99996C7.43506 9.60404 8.70107 10.8804 10.2982 10.8838V10.8804ZM10.3189 6.57181C11.0917 6.58561 11.7505 7.25484 11.7436 8.01721C11.7367 8.78302 11.0606 9.4488 10.2982 9.43845C9.52898 9.43155 8.8701 8.76232 8.87355 7.99306C8.877 7.23414 9.56348 6.55801 10.3189 6.56836V6.57181Z" fill="#E01E89"/>
<path id="Vector_4" d="M11.0299 19.5079C9.42233 19.5079 8.15286 20.7704 8.14941 22.3745C8.14941 23.982 9.41198 25.2515 11.0126 25.255C12.6167 25.255 13.893 23.9889 13.893 22.3883C13.893 20.7842 12.627 19.5113 11.0264 19.5079H11.0299ZM11.0092 23.8165C10.2399 23.8027 9.57756 23.13 9.58791 22.3676C9.59826 21.6018 10.2778 20.936 11.0367 20.9464C11.806 20.9602 12.4649 21.6294 12.458 22.3952C12.4511 23.1576 11.7646 23.8302 11.0092 23.8165Z" fill="#E01E89"/>
<path id="Vector_5" d="M8.7494 31.7126C9.50142 31.8886 10.2603 32.0162 11.0193 32.1645C11.0262 32.1438 11.0331 32.1231 11.04 32.099C11.4539 32.0576 11.8748 32.0369 12.2853 31.9679C12.6371 31.9093 12.9855 31.8161 13.3271 31.7126C13.7928 31.5677 13.9997 31.2055 13.8859 30.7916C13.7755 30.3983 13.3753 30.1879 12.9096 30.3293C11.6436 30.7157 10.388 30.7122 9.12541 30.3224C8.67006 30.181 8.26301 30.4121 8.16642 30.8123C8.06293 31.2331 8.27335 31.5988 8.75285 31.7126H8.7494Z" fill="#E01E89"/>
</g>
</svg>
