<svg width="29" height="47" viewBox="0 0 29 47" fill="none" xmlns="http://www.w3.org/2000/svg">
<g id="Group 10705">
<path id="Vector" d="M15.667 0.316191C15.3805 0.0648486 15.0839 -0.106059 14.6968 0.0698803C14.3047 0.24582 14.2545 0.582638 14.2545 0.969706C14.2595 3.73447 14.2545 6.49924 14.2545 9.264C14.2545 9.46508 14.2394 9.67115 14.1941 9.8672C12.9626 15.5325 11.726 21.1927 10.4944 26.8529C10.2682 27.8784 10.0369 28.9039 9.81073 29.9294C9.78057 29.9294 9.74538 29.9193 9.71522 29.9193C9.70014 29.8791 9.675 29.8338 9.66495 29.7936C8.38813 23.9675 7.10628 18.1364 5.83951 12.3052C5.60828 11.2446 5.3117 10.1688 5.28154 9.09308C5.20111 6.34339 5.25137 3.59372 5.25639 0.844034C5.25639 0.497182 5.15084 0.230749 4.82912 0.0799439C4.51243 -0.0708616 4.2259 -0.000501666 3.96451 0.22068C0.983585 2.75421 -0.328428 5.98647 0.0938271 9.8672C0.234579 11.1792 0.581431 12.4661 0.862934 13.763C2.43634 20.9464 4.00472 28.1298 5.59823 35.3081C6.19643 38.0075 6.75942 40.7019 6.76445 43.4868C6.76445 45.1909 8.08148 46.4978 9.7504 46.4978C11.4294 46.4978 12.7263 45.1959 12.7615 43.5019C12.7816 42.6423 12.7766 41.7777 12.9073 40.9331C13.1888 39.1335 13.4954 37.3339 13.8825 35.5544C15.6318 27.4863 17.4264 19.4233 19.1808 11.3552C20.1258 7.01196 19.035 3.29711 15.667 0.316191ZM17.6074 11.4959C15.8731 19.2624 14.174 27.0389 12.485 34.8205C12.0778 36.7056 11.7209 38.6057 11.4243 40.5159C11.2735 41.4811 11.3037 42.4764 11.2585 43.4566C11.2233 44.2056 10.8111 44.7435 10.1174 44.9345C9.50409 45.1004 8.83048 44.849 8.50877 44.281C8.37304 44.0448 8.26748 43.7532 8.2725 43.4918C8.31774 40.4506 7.63913 37.5199 6.99066 34.5792C5.34186 27.1093 3.7031 19.6394 2.07441 12.1645C1.87836 11.2697 1.66724 10.3649 1.57675 9.45503C1.32541 6.96674 2.00905 4.73479 3.56235 2.7693C3.60256 2.72405 3.63274 2.66876 3.66792 2.6185L3.76845 2.66375C3.76845 4.22207 3.81872 5.78542 3.75337 7.34374C3.67797 9.15844 3.96952 10.9078 4.36162 12.6621C5.90486 19.5942 7.40789 26.5362 8.926 33.4783C8.95114 33.599 8.98632 33.7196 9.01145 33.8402C9.09691 34.2374 9.32815 34.4887 9.74538 34.4938C10.1877 34.4988 10.424 34.2474 10.5145 33.8252C11.2635 30.4019 12.0125 26.9786 12.7615 23.5553C13.7367 19.0965 14.7119 14.6377 15.6821 10.1789C15.7273 9.96774 15.7525 9.74657 15.7525 9.53041C15.7575 7.38897 15.7525 5.24753 15.7525 3.11112V2.54811C16.5567 3.45295 17.0745 4.39801 17.4515 5.42349C18.1855 7.43422 18.0698 9.44495 17.6074 11.5009V11.4959Z" fill="#E01E89"/>
<path id="Vector_2" d="M27.8923 19.0665C27.641 17.4479 27.3243 15.8342 27.2137 14.2055C27.0578 11.9032 27.0478 9.58589 27.0126 7.27856C27.0026 6.72561 27.0377 6.13244 27.2187 5.61468C27.7465 4.09154 27.7867 2.52817 27.7566 0.944718C27.7415 0.240959 27.5103 0.00469971 26.7914 0.00469971C25.8715 0.00469971 24.9466 0.00469971 24.0267 0.00469971C23.0716 0.00469971 22.1215 0.00469971 21.1664 0.00469971C20.5129 0.00469971 20.2716 0.256062 20.2565 0.904525C20.2213 2.49804 20.3621 4.05633 20.7642 5.62471C21.0608 6.79597 21.0256 8.07278 20.9904 9.29934C20.9201 11.5614 20.8447 13.8285 20.5833 16.0705C20.2615 18.8101 19.6935 21.5146 19.5628 24.2844C19.402 27.7127 19.5729 31.1159 20.1158 34.504C20.3621 36.0422 20.6737 37.5754 20.8245 39.1236C20.9703 40.6116 20.9603 42.1146 21.0005 43.6126C21.0407 45.1558 22.3427 46.4679 23.8859 46.493C25.6503 46.5232 26.9523 45.2212 27.0076 43.4618C27.0679 41.5466 27.083 39.6112 27.3444 37.7211C27.7314 34.9413 28.2944 32.1916 28.4352 29.3766C28.6061 25.9181 28.4201 22.4848 27.8873 19.0615L27.8923 19.0665ZM26.2234 1.52785C26.3139 2.42263 26.2385 3.30735 26.0424 4.19207C25.8112 5.26279 25.585 6.33855 25.3437 7.47462H22.6694C22.403 6.23299 22.1215 5.05668 21.9154 3.86531C21.7847 3.10626 21.7696 2.32712 21.6992 1.52785H26.2284H26.2234ZM25.5247 12.0339C25.5548 12.5014 25.59 12.974 25.6202 13.4767H22.3829C22.413 12.984 22.4382 12.5215 22.4683 12.0339H25.5196H25.5247ZM22.5387 10.5008V9.03796H25.4744V10.5008H22.5387ZM26.9925 27.5568C26.9372 30.6534 26.5451 33.7097 25.9519 36.7459C25.5247 38.9175 25.4744 41.1143 25.5046 43.316C25.5146 44.0902 25.1577 44.6532 24.5545 44.8894C23.5441 45.2866 22.5287 44.5577 22.5035 43.4115C22.4784 42.195 22.5236 40.9685 22.403 39.762C22.2371 38.1082 21.9707 36.4594 21.7042 34.8156C21.1664 31.5281 20.9251 28.2254 21.0558 24.8876C21.1664 22.0424 21.6489 19.2475 22.0813 16.4475C22.1516 15.9901 22.1969 15.5226 22.2622 15.0199H25.7458C25.8765 15.9297 25.9821 16.8396 26.1379 17.7394C26.716 20.9868 27.0578 24.2542 26.9975 27.5568H26.9925Z" fill="#E01E89"/>
</g>
</svg>
