<svg width="35" height="43" viewBox="0 0 35 43" fill="none" xmlns="http://www.w3.org/2000/svg">
<g id="Group 10703">
<path id="Vector" d="M23.7999 34.184C23.7742 31.5967 21.8819 29.7345 19.2946 29.7302C17.2994 29.7302 15.2999 29.7302 13.3047 29.7302C13.1589 29.7302 13.0173 29.7174 12.8456 29.7088V29.2196C12.8456 26.937 12.8456 24.65 12.8456 22.3673C12.8456 20.4536 12.8585 18.54 12.8285 16.622C12.8156 15.6781 12.335 14.9401 11.4554 14.6225C10.9105 14.4252 10.7818 14.1463 10.8547 13.6485C10.8676 13.5541 10.859 13.4555 10.8547 13.3611C10.8247 12.8848 10.5201 12.5115 10.0567 12.3828C9.91506 12.3442 9.77347 12.3227 9.61042 12.2884V11.8207C9.61042 10.4648 9.61471 9.11322 9.61042 7.75735C9.60613 6.82626 9.09552 6.30278 8.16443 6.28991C7.12607 6.27275 6.08343 6.27275 5.04507 6.28991C4.12685 6.30707 3.642 6.82197 3.63771 7.7359C3.63771 9.11752 3.63771 10.4991 3.63771 11.8807C3.63771 12.0223 3.63771 12.1682 3.63771 12.3012C2.68516 12.4214 2.38052 12.7732 2.38052 13.6872C2.38052 13.8116 2.37194 13.936 2.38052 14.0562C2.40198 14.2921 2.32903 14.4037 2.07159 14.4809C1.2306 14.7384 0.677098 15.3133 0.449689 16.1758C0.325258 16.6478 0.488299 16.9867 0.84443 17.0768C1.22631 17.1712 1.49234 16.991 1.65539 16.5233C1.8785 15.884 2.19173 15.6137 2.85251 15.6094C5.38404 15.5965 7.91129 15.5965 10.4428 15.6094C11.1637 15.6094 11.6013 16.0943 11.6099 16.8151C11.6142 17.5145 11.6099 18.2096 11.6099 18.909C11.6099 19.574 11.6099 20.2391 11.6099 20.9171H1.61677C1.61677 20.7197 1.61677 20.5438 1.61677 20.3678C1.61248 19.8358 1.61676 19.2994 1.59531 18.7674C1.58244 18.437 1.38077 18.2396 1.0461 18.2139C0.689964 18.1838 0.479722 18.3726 0.393907 18.7073C0.368163 18.8103 0.368164 18.9219 0.368164 19.0334C0.368164 26.023 0.368164 33.0084 0.368164 39.998C0.368164 40.7102 0.556957 41.371 1.10617 41.8387C1.43656 42.1219 1.86134 42.2935 2.24322 42.5166H3.23008C3.43604 42.3021 3.66774 42.1004 3.56476 41.7486C3.46178 41.4053 3.2215 41.2938 2.88253 41.2852C2.04155 41.2595 1.62106 40.8433 1.61677 40.0066C1.60819 36.5611 1.61677 33.1156 1.61677 29.6702C1.61677 29.5886 1.62964 29.5114 1.63822 29.4127C1.76265 29.4041 1.86564 29.387 1.96862 29.387C5.05795 29.387 8.15157 29.387 11.2409 29.387C11.434 29.387 11.6914 29.3226 11.567 29.7217C10.5973 29.7217 9.61472 29.7302 8.63214 29.7217C7.10463 29.7002 5.87319 30.2795 4.9421 31.4937C4.34568 32.2704 4.07537 33.1585 4.07108 34.1282C4.06249 36.0848 4.0582 38.0371 4.07108 39.9937C4.07966 41.2251 4.65461 42.0103 5.8174 42.4351C5.8603 42.4523 5.89893 42.4909 5.93755 42.5209H21.8605C23.3494 42.0618 23.8557 40.9977 23.8171 39.5131C23.7699 37.7368 23.8171 35.9561 23.8042 34.1797L23.7999 34.184ZM4.88631 7.57713H8.31033V12.3141H4.88631V7.57713ZM9.58896 14.3522H3.642V13.6185H9.58896V14.3522ZM11.5842 28.1212H1.63822V22.2172H11.5842V28.1212ZM22.5341 39.9336C22.5341 40.869 22.1136 41.2938 21.1911 41.2938C16.3512 41.2938 11.5112 41.2938 6.67555 41.2938C5.7702 41.2938 5.33685 40.869 5.33255 39.9722C5.32826 38.5391 5.33255 37.106 5.33255 35.63H22.517C22.5255 35.7759 22.5384 35.9089 22.5384 36.0376C22.5384 37.3377 22.5384 38.6335 22.5384 39.9336H22.5341ZM5.3583 34.3256C5.2639 33.3216 5.59858 32.4892 6.31942 31.7984C6.95874 31.1891 7.74823 30.966 8.60638 30.9617C12.1634 30.9574 15.7161 30.9531 19.2732 30.9617C20.9122 30.966 22.0879 31.8627 22.4569 33.3731C22.5298 33.6691 22.5213 33.9866 22.5556 34.3213H5.36258L5.3583 34.3256Z" fill="#E01E89"/>
<path id="Vector_2" d="M33.5314 3.11049C32.8234 2.69857 32.1154 2.28666 31.3989 1.88333C29.7469 0.947946 27.9706 0.493131 26.0698 0.506003C23.7313 0.518875 21.3928 0.506003 19.0544 0.506003C18.3807 0.506003 18.0718 0.797773 18.059 1.47142C18.0461 2.30382 18.0461 3.14051 18.059 3.97292C18.0675 4.64656 18.3722 4.93405 19.0501 4.94263C19.4835 4.94692 19.9168 4.94263 20.3459 4.94263V7.90323C20.0155 7.90323 19.7152 7.90323 19.4148 7.90323C18.4837 7.90323 18.0632 8.32373 18.0547 9.24624C18.0547 9.6796 18.0547 10.113 18.0547 10.5463C17.7071 10.5849 17.4196 10.5935 17.1407 10.6579C15.094 11.1342 13.8369 12.7303 13.8369 14.8671C13.8326 19.1493 13.8369 23.4271 13.8369 27.7093C13.8369 27.8723 13.8154 28.0783 13.9012 28.1856C14.0471 28.3701 14.2702 28.6061 14.4633 28.6104C14.6564 28.6104 14.8967 28.3829 15.0297 28.1984C15.1241 28.0654 15.0983 27.8294 15.0983 27.6406C15.0983 23.4271 15.0983 19.2179 15.1026 15.0044C15.1026 14.6783 15.1026 14.3393 15.1799 14.0304C15.5231 12.6488 16.5958 11.8293 18.0547 11.8293C21.4315 11.825 24.8126 11.855 28.1894 11.8164C29.8928 11.7992 31.2487 13.0607 31.2444 14.88C31.2144 23.0581 31.2186 31.2363 31.2444 39.4144C31.2444 40.6502 30.412 41.3324 29.3307 41.3066C27.8547 41.2723 26.3744 41.3024 24.8984 41.2981C24.5937 41.2981 24.3535 41.3967 24.2462 41.6885C24.1346 41.9889 24.2205 42.2506 24.4908 42.4394C24.5208 42.4609 24.538 42.4995 24.5637 42.5295H30.146C30.176 42.5038 30.206 42.4651 30.2404 42.4609C31.5791 42.1562 32.5059 40.9934 32.5059 39.3544C32.493 31.202 32.5059 23.0538 32.4973 14.9014C32.4973 14.5496 32.4801 14.1849 32.4029 13.8416C31.9867 11.9837 30.4506 10.6836 28.6142 10.6064C28.3353 10.5935 28.2666 10.482 28.2795 10.2288C28.2967 9.87269 28.2881 9.51655 28.2795 9.16042C28.2666 8.35805 27.829 7.92468 27.0309 7.91181C26.6833 7.90752 26.3315 7.91181 25.9925 7.91181V4.9512H26.4774C28.6657 4.9512 30.8539 4.9512 33.0422 4.9512C33.6472 4.9512 33.969 4.72808 34.1063 4.25181C34.235 3.80128 34.0462 3.41941 33.5228 3.11477L33.5314 3.11049ZM27.0094 9.19903V10.5549H19.3247V9.19903H27.0094ZM21.6331 7.88179V4.96837H24.7182V7.88179H21.6331ZM19.3204 3.68972V1.76319C19.4406 1.75461 19.5435 1.73744 19.6465 1.73744C21.779 1.73744 23.9115 1.73315 26.044 1.73744C28.2108 1.73744 30.1503 2.4497 31.9824 3.68972H19.3204Z" fill="#E01E89"/>
<path id="Vector_3" d="M26.6148 23.8175C26.7606 25.2549 26.6877 26.7095 26.7049 28.1597C26.7049 28.5159 26.7178 28.8763 26.6663 29.2238C26.5075 30.3266 25.924 31.1676 25.0015 31.7854C24.6282 32.0343 24.5681 32.3947 24.7955 32.6994C24.9972 32.974 25.3705 33.0169 25.7137 32.7937C26.8679 32.0386 27.6531 31.0002 27.8419 29.6315C27.9792 28.6231 27.9492 27.5891 27.9921 26.5722C27.9492 25.5295 28.0007 24.4783 27.8419 23.4571C27.5072 21.2517 25.4863 19.6126 23.2036 19.5826C20.951 19.5525 18.8142 21.2173 18.531 23.4442C18.3336 24.9803 18.4323 26.5507 18.4409 28.1083C18.4409 28.2799 18.6941 28.5288 18.8871 28.6103C19.2819 28.7733 19.638 28.4215 19.6423 27.9066C19.6509 26.7567 19.6423 25.611 19.6466 24.4611C19.6552 23.5429 19.9169 22.7105 20.5562 22.0283C21.5259 20.9856 22.7274 20.6037 24.0918 20.977C25.5206 21.3675 26.4732 22.3329 26.6234 23.8175H26.6148Z" fill="#E01E89"/>
<path id="Vector_4" d="M6.62834 8.63711C6.28508 8.62853 6.01477 8.89027 6.0019 9.2464C5.98903 9.61969 6.26363 9.92434 6.61547 9.92005C6.93728 9.92005 7.23334 9.6154 7.23764 9.28072C7.23764 8.93317 6.97161 8.64569 6.63264 8.63711H6.62834Z" fill="#E01E89"/>
</g>
</svg>
