<svg width="15" id="Isolation_Mode" data-name="Isolation Mode" xmlns="http://www.w3.org/2000/svg" viewBox="0 0 29.87 30.64"><defs></defs><path class="reaction" d="M652.22,1528.16a9.65,9.65,0,0,1,1.19.37,3.84,3.84,0,0,1,2.29,3.27,11.9,11.9,0,0,1-.74,4.72c-.25.84-.42,1.7-.61,2.56a2.88,2.88,0,0,0,0,.6c.76-.13,1.47-.29,2.19-.39a13.46,13.46,0,0,1,5.06,0,4,4,0,0,1,2.69,1.74,3.37,3.37,0,0,1,.3,2.93.54.54,0,0,0,.06.52,3.54,3.54,0,0,1,0,4.2.72.72,0,0,0-.11.68,3.91,3.91,0,0,1-.92,3.87,1.24,1.24,0,0,0-.35.93,3.87,3.87,0,0,1-2.08,3.53,7.65,7.65,0,0,1-3.8,1.07c-2.53,0-5.07,0-7.6-.11-2-.09-4-.35-6-.52a.66.66,0,0,0-.39.09,2.87,2.87,0,0,1-1.4.37c-1.27,0-2.54,0-3.81,0a2.69,2.69,0,0,1-2.75-2.75c0-3.42,0-6.84,0-10.26a2.67,2.67,0,0,1,2.63-2.76c1.35,0,2.7,0,4.05,0a8.25,8.25,0,0,1,1.21.23,5.06,5.06,0,0,1,.39-.69c.36-.47.76-.92,1.14-1.38a18.39,18.39,0,0,0,1.37-1.69,38.47,38.47,0,0,0,3.61-7.41,1.22,1.22,0,0,0,0-.47,5,5,0,0,1,.15-1.93,2,2,0,0,1,1.31-1.35Zm-7.51,28.38c1.5.14,3,.33,4.52.39,2.61.09,5.23.12,7.84.13a6.82,6.82,0,0,0,2.73-.6,2.31,2.31,0,0,0,1.65-2.65,1.32,1.32,0,0,1,.53-1.42,2.32,2.32,0,0,0,.68-3,1.12,1.12,0,0,1,.23-1.33,2,2,0,0,0,0-2.95,1.07,1.07,0,0,1-.17-1.36,1.72,1.72,0,0,0-1-2.62,7.3,7.3,0,0,0-2.41-.36,20.69,20.69,0,0,0-4.89.64,1.41,1.41,0,0,1-1.77-1.17,5.37,5.37,0,0,1-.07-1.13,14.61,14.61,0,0,1,.75-3.38,10,10,0,0,0,.64-3.63,2.2,2.2,0,0,0-1.93-2.23c-.27-.06-.4,0-.41.3s0,.76,0,1.13a2.81,2.81,0,0,1-.05.92,44.74,44.74,0,0,1-3.11,6.79,12.68,12.68,0,0,1-2.39,3.2,5,5,0,0,0-1.41,2.29.85.85,0,0,0,0,.32c0,.33.09.65.1,1Zm-1.76-5.82c0-1.7,0-3.39,0-5.09a.92.92,0,0,0-1.05-1.05h-3.65a1,1,0,0,0-1.08,1.06v10.16a1,1,0,0,0,1.07,1.08h3.54c.85,0,1.17-.33,1.17-1.18Z" transform="translate(-635.43 -1528.16)"></path></svg>