<svg width="43" height="45" viewBox="0 0 43 45" fill="none" xmlns="http://www.w3.org/2000/svg">
<g id="Group 10855">
<g id="Group">
<path id="Vector" d="M11.9441 43.1671V44.2015C11.9441 44.4474 12.1476 44.6509 12.3935 44.6509H19.3374C19.5832 44.6509 19.7867 44.4474 19.7867 44.2015V43.1671C19.7867 42.9213 19.5832 42.7178 19.3374 42.7178H12.3935C12.1391 42.7178 11.9441 42.9213 11.9441 43.1671ZM23.0848 43.1671V44.2015C23.0848 44.4474 23.2883 44.6509 23.5342 44.6509H30.4781C30.7239 44.6509 30.9274 44.4474 30.9274 44.2015V43.1671C30.9274 42.9213 30.7239 42.7178 30.4781 42.7178H23.5342C23.2883 42.7178 23.0848 42.9213 23.0848 43.1671ZM41.6188 42.7178H34.6749C34.429 42.7178 34.2256 42.9213 34.2256 43.1671V44.2015C34.2256 44.4474 34.429 44.6509 34.6749 44.6509H41.6188C41.8647 44.6509 42.0681 44.4474 42.0681 44.2015V43.1671C42.0681 42.9213 41.8647 42.7178 41.6188 42.7178ZM1.24428 44.6509H8.18815C8.43403 44.6509 8.63751 44.4474 8.63751 44.2015V43.1671C8.63751 42.9213 8.43403 42.7178 8.18815 42.7178H1.24428C0.998405 42.7178 0.794922 42.9213 0.794922 43.1671V44.2015C0.794922 44.4474 0.998405 44.6509 1.24428 44.6509Z" fill="#FE8CC9"/>
<path id="Vector_2" d="M35.5053 38.1418C35.1384 38.353 34.6604 38.2307 34.4491 37.8638C34.2268 37.4969 34.3602 37.0189 34.7271 36.8076L36.6727 35.6736L34.7271 34.5395C34.3602 34.3283 34.2379 33.8502 34.4491 33.4833C34.6604 33.1164 35.1384 32.9941 35.5053 33.2054L37.4399 34.3283V32.0936C37.4399 31.6711 37.7845 31.3264 38.207 31.3264C38.6295 31.3264 38.9742 31.6711 38.9742 32.0936V34.3283L40.9087 33.2054C41.2756 32.9941 41.7537 33.1164 41.9649 33.4833C42.1762 33.8502 42.0539 34.3283 41.687 34.5395L39.7413 35.6736L41.687 36.8076C42.0539 37.0189 42.1762 37.4969 41.9649 37.8638C41.7537 38.2307 41.2756 38.353 40.9087 38.1418L38.9742 37.0189V39.2536C38.9742 39.6761 38.6295 40.0207 38.207 40.0207C37.7845 40.0207 37.4399 39.6761 37.4399 39.2536V37.0189L35.5053 38.1418Z" fill="#FE8CC9"/>
<path id="Vector_3" d="M24.4253 38.1418C24.0584 38.353 23.5803 38.2307 23.369 37.8638C23.1467 37.4969 23.2801 37.0189 23.647 36.8076L25.5927 35.6736L23.647 34.5395C23.2801 34.3283 23.1578 33.8502 23.369 33.4833C23.5803 33.1164 24.0584 32.9941 24.4253 33.2054L26.3598 34.3283V32.0936C26.3598 31.6711 26.7045 31.3264 27.1269 31.3264C27.5494 31.3264 27.8941 31.6711 27.8941 32.0936V34.3283L29.8286 33.2054C30.1955 32.9941 30.6736 33.1164 30.8849 33.4833C31.0961 33.8502 30.9738 34.3283 30.6069 34.5395L28.6612 35.6736L30.6069 36.8076C30.9738 37.0189 31.0961 37.4969 30.8849 37.8638C30.6736 38.2307 30.1955 38.353 29.8286 38.1418L27.8941 37.0189V39.2536C27.8941 39.6761 27.5494 40.0207 27.1269 40.0207C26.7045 40.0207 26.3598 39.6761 26.3598 39.2536V37.0189L24.4253 38.1418Z" fill="#FE8CC9"/>
<path id="Vector_4" d="M13.3447 38.1418C12.9778 38.353 12.4997 38.2307 12.2885 37.8638C12.0661 37.4969 12.1995 37.0189 12.5664 36.8076L14.5121 35.6736L12.5664 34.5395C12.1995 34.3283 12.0772 33.8502 12.2885 33.4833C12.4997 33.1164 12.9778 32.9941 13.3447 33.2054L15.2792 34.3283V32.0936C15.2792 31.6711 15.6239 31.3264 16.0464 31.3264C16.4689 31.3264 16.8135 31.6711 16.8135 32.0936V34.3283L18.7481 33.2054C19.115 32.9941 19.593 33.1164 19.8043 33.4833C20.0155 33.8502 19.8932 34.3283 19.5263 34.5395L17.5807 35.6736L19.5263 36.8076C19.8932 37.0189 20.0155 37.4969 19.8043 37.8638C19.593 38.2307 19.115 38.353 18.7481 38.1418L16.8135 37.0189V39.2536C16.8135 39.6761 16.4689 40.0207 16.0464 40.0207C15.6239 40.0207 15.2792 39.6761 15.2792 39.2536V37.0189L13.3447 38.1418Z" fill="#FE8CC9"/>
<path id="Vector_5" d="M2.26462 38.1418C1.89772 38.353 1.41964 38.2307 1.2084 37.8638C0.986038 37.4969 1.11946 37.0189 1.48635 36.8076L3.43201 35.6736L1.48635 34.5395C1.11946 34.3283 0.997156 33.8502 1.2084 33.4833C1.41964 33.1164 1.89772 32.9941 2.26462 33.2054L4.19916 34.3283V32.0936C4.19916 31.6711 4.54382 31.3264 4.9663 31.3264C5.38879 31.3264 5.73345 31.6711 5.73345 32.0936V34.3283L7.668 33.2054C8.03489 32.9941 8.51296 33.1164 8.72421 33.4833C8.93545 33.8502 8.81315 34.3283 8.44626 34.5395L6.5006 35.6736L8.44626 36.8076C8.81315 37.0189 8.93545 37.4969 8.72421 37.8638C8.51296 38.2307 8.03489 38.353 7.668 38.1418L5.73345 37.0189V39.2536C5.73345 39.6761 5.38879 40.0207 4.9663 40.0207C4.54382 40.0207 4.19916 39.6761 4.19916 39.2536V37.0189L2.26462 38.1418Z" fill="#FE8CC9"/>
</g>
<path id="Subtract" fill-rule="evenodd" clip-rule="evenodd" d="M28.8672 10.4229H28.8163V8.11673C28.8163 4.10641 25.5352 0.69806 21.5333 0.765888C17.6417 0.833716 14.4877 4.02162 14.4877 7.9302V8.15064C14.4877 8.4813 14.759 8.75261 15.0897 8.75261H17.0143C17.3449 8.75261 17.6163 8.4813 17.6163 8.15064V8.08281C17.6163 5.92928 19.2356 4.03858 21.3892 3.90293C23.7292 3.75879 25.6793 5.61558 25.6793 7.92172V10.4144H19.7444V10.4229H14.2588C13.2414 10.4568 12.4189 11.2792 12.4189 12.3051V22.7336C12.4189 23.7765 13.2668 24.6243 14.3096 24.6243H28.8587C29.9016 24.6243 30.7494 23.7765 30.7494 22.7336V12.3136C30.7579 11.2707 29.91 10.4229 28.8672 10.4229ZM21.4314 14.642C20.5938 14.642 19.9148 15.321 19.9148 16.1586V19.2626C19.9148 20.1002 20.5938 20.7792 21.4314 20.7792C22.269 20.7792 22.948 20.1002 22.948 19.2626V16.1586C22.948 15.321 22.269 14.642 21.4314 14.642Z" fill="#DE0F7E"/>
</g>
</svg>
