<svg width="167" height="57" viewBox="0 0 167 57" fill="none" xmlns="http://www.w3.org/2000/svg">
<g id="Group 10488">
<path id="Vector" d="M137.698 1.62767C138.205 0.813323 139.591 0.516326 140.429 1.12469C140.716 1.28756 140.81 1.57977 140.91 1.84802C140.832 2.0588 140.821 2.28873 140.7 2.48513C140.236 3.25636 138.984 3.60126 138.123 3.12703C137.538 2.83482 137.339 2.11628 137.703 1.62288L137.698 1.62767Z" fill="#010101"/>
<path id="Vector_2" d="M123.691 2.54479C124.207 2.43604 124.785 2.49362 125.2 2.89025C125.682 3.29968 125.772 4.11854 125.519 4.71349C125.065 5.75626 123.798 6.22326 122.906 5.61552C122.446 5.31484 122.177 4.67511 122.295 4.08015C122.435 3.29968 123.035 2.73032 123.686 2.54479H123.691Z" fill="#010101"/>
<path id="Vector_3" d="M138.914 4.19638L139.059 4.21201C139.171 6.09396 139.433 7.96026 139.578 9.84221C139.733 11.2445 139.861 12.6469 140.001 14.0544C140.049 14.3151 140.07 14.5809 140.059 14.8468C139.209 14.9719 138.385 15.217 137.539 15.389C133.66 16.3274 129.781 17.3596 126.11 18.9287C123.617 19.9713 121.177 21.1391 118.774 22.3694C118.448 22.5206 118.154 22.7499 117.795 22.8334C115.628 19.8775 113.435 16.9373 111.251 13.9971C112.621 14.8885 114.103 15.6444 115.703 16.0667C116.848 16.4003 118.058 16.442 119.24 16.3534C119.138 16.3378 119.031 16.3169 118.93 16.3013C119.374 16.343 119.807 16.2074 120.225 16.0771C121.642 15.6132 122.884 14.6227 123.579 13.3298C124.168 12.2976 124.398 11.109 124.484 9.94126C124.51 8.82043 124.441 7.68918 124.147 6.60485C124.141 6.54229 124.125 6.41196 124.12 6.34419C124.922 7.84557 126.019 9.21142 127.394 10.254C128.7 11.2393 130.364 11.7971 132.017 11.6355C131.75 11.6042 131.477 11.5834 131.209 11.5625C132.028 11.6668 132.857 11.5365 133.612 11.2289C135.244 10.5981 136.501 9.2844 137.384 7.83515C138.069 6.7039 138.615 5.47359 138.914 4.19116V4.19638Z" fill="#010101"/>
<path id="Vector_4" d="M110.229 11.0038C110.992 10.8513 111.968 11.2231 112.086 11.9331C112.265 13.0625 110.571 13.8679 109.455 13.3532C108.849 13.134 108.552 12.4907 108.793 11.976C109.034 11.4756 109.595 11.0991 110.224 11.0086L110.229 11.0038Z" fill="#010101"/>
<path id="Vector_5" d="M142.256 15.1497C146.076 14.4363 149.993 14.152 153.861 14.5221C156.021 14.742 158.186 15.1819 160.15 16.1474C161.206 16.6623 162.182 17.3543 163.005 18.2072C164.368 19.5803 165.483 21.2539 165.992 23.1474C166.486 24.9014 166.38 26.7627 166.056 28.5381C165.515 31.3864 164.294 34.0576 162.813 36.5197C160.972 39.6147 158.621 42.4093 155.841 44.6782C157.836 46.2982 159.598 48.1809 161.285 50.1173C159.974 52.0751 158.674 54.0383 157.358 55.9908C154.376 54.0759 151.266 52.3701 148.114 50.761C145.302 52.2253 142.34 53.4 139.305 54.3065C137.262 54.918 135.182 55.374 133.096 55.7977C130.899 56.2268 128.681 56.613 126.442 56.7149C124.457 56.8061 122.483 56.4199 120.605 55.8084C119.039 55.2935 117.479 54.6981 116.089 53.797C114.9 53.0353 113.828 52.0537 113.053 50.8575C112.002 49.302 111.329 47.4621 111.26 45.5687C111.185 43.4499 111.626 41.3204 112.469 39.3787C113.701 36.5411 115.701 34.1113 117.941 32.0301C120.599 29.5573 123.661 27.5512 126.919 25.9849C130.146 24.4293 133.553 23.2814 137.023 22.4339C136.737 23.4585 136.461 24.4883 136.185 25.5129C132.475 26.7466 128.888 28.4094 125.635 30.5979C125.274 30.8446 124.914 31.0967 124.553 31.3596C119.517 35.0231 119.357 42.6507 124.346 46.3786C124.372 46.4001 124.399 46.4215 124.431 46.443C127.227 48.5349 130.666 49.6506 134.121 49.8652C137.278 50.0958 140.425 49.5326 143.465 48.7334C139.475 47.2529 135.368 45.9924 131.133 45.4828C133.802 43.1763 136.551 40.9503 139.47 38.971C139.852 38.7457 140.202 38.44 140.621 38.2791C141.943 38.2576 143.269 38.4292 144.564 38.7028C146.437 39.0997 148.194 39.8829 149.892 40.7518C150.948 41.3043 151.983 41.8997 152.975 42.5595C154.413 39.1212 155.045 35.3342 154.747 31.6063C154.578 29.4017 154.073 27.181 152.97 25.25C151.542 22.7236 149.037 20.9159 146.278 20.165C144.166 19.5642 141.937 19.5374 139.761 19.7091C135.527 20.0684 131.414 21.3451 127.519 23.0293C126.076 23.6623 124.648 24.3328 123.258 25.0784C121.761 24.6224 120.244 24.2255 118.758 23.732C122.234 21.9726 125.773 20.342 129.403 18.9313C133.574 17.3114 137.862 15.9704 142.256 15.1497Z" fill="#E01E89"/>
<path id="Vector_6" d="M5.4997 22.8438C7.85792 22.8438 9.03969 23.7499 9.03969 25.5569C9.03969 26.5948 8.53398 27.3692 7.52788 27.8697C8.21458 28.0646 8.72562 28.407 9.06099 28.897C9.39635 29.3869 9.5667 29.977 9.5667 30.6618C9.5667 31.157 9.47088 31.5996 9.28456 31.9947C9.09825 32.3898 8.83208 32.727 8.49139 32.9956C8.1507 33.2696 7.73549 33.4803 7.25107 33.6278C6.76665 33.7753 6.22899 33.8491 5.63811 33.8491H0.245605V22.8333H5.4997V22.8438ZM6.67083 25.9889C6.67083 25.146 6.1172 24.7245 5.0206 24.7245H2.69965V27.3007H5.19627C6.18108 27.3007 6.67615 26.8634 6.67615 25.9889H6.67083ZM7.12331 30.5248C7.12331 29.4765 6.54307 28.9497 5.37726 28.9497H2.69432V31.9736H5.32936C6.5271 31.9736 7.12331 31.4889 7.12331 30.5248Z" fill="#E01E89"/>
<path id="Vector_7" d="M14.7491 33.8491C13.9583 33.8491 13.2405 33.6898 12.5788 33.3766C11.9226 33.058 11.3955 32.5696 11.0029 31.9059C10.6103 31.2529 10.4141 30.4883 10.4141 29.6176C10.4141 29.2141 10.4645 28.8212 10.5711 28.4443C10.6776 28.0673 10.8234 27.7116 11.0141 27.3877C11.2048 27.0638 11.4403 26.7665 11.7095 26.5117C11.9843 26.2515 12.2871 26.0391 12.6124 25.8746C13.2798 25.5454 13.992 25.3755 14.7491 25.3755C15.5454 25.3755 16.2632 25.5507 16.8913 25.8958C17.5194 26.2409 18.0129 26.7559 18.3606 27.4249C18.7083 28.0779 18.8878 28.8531 18.8878 29.7397V29.9043C18.8878 29.9733 18.8822 30.053 18.871 30.1432H12.747C12.7694 30.7963 12.9489 31.3007 13.2798 31.6511C13.6162 32.0015 14.1266 32.182 14.8164 32.182C15.2426 32.182 15.6351 32.0811 15.9884 31.8794C16.3417 31.6776 16.5717 31.4334 16.6726 31.1414H18.7252C18.1139 32.9572 16.7848 33.8597 14.7491 33.8491ZM15.938 27.4408C15.6463 27.17 15.2257 27.0373 14.6649 27.0373C14.1041 27.0373 13.6443 27.1913 13.319 27.4939C12.9938 27.7965 12.7975 28.216 12.747 28.7469H16.538C16.4259 28.1469 16.2296 27.7116 15.938 27.4408Z" fill="#E01E89"/>
<path id="Vector_8" d="M22.3963 33.8492C21.5799 33.8492 20.9289 33.6367 20.4536 33.2117C19.973 32.7867 19.7354 32.197 19.7354 31.4373C19.7354 31.0654 19.787 30.736 19.8955 30.4491C20.004 30.1622 20.1797 29.9178 20.4226 29.7106C20.6706 29.5034 21.0012 29.3334 21.4146 29.2059C21.8279 29.0784 22.3395 28.9828 22.944 28.919C23.378 28.8765 23.7345 28.8234 24.0084 28.765C24.2874 28.7012 24.4786 28.6375 24.5922 28.5631C24.8248 28.4197 24.9384 28.2071 24.9384 27.9256C24.9384 27.5643 24.8299 27.2934 24.6181 27.118C24.4062 26.9427 24.0549 26.8524 23.5589 26.8524C23.1042 26.8524 22.7632 26.948 22.5306 27.134C22.2981 27.3199 22.1638 27.6334 22.1225 28.069H19.973C20.0247 27.1871 20.376 26.5177 21.0322 26.0608C21.6884 25.6039 22.5668 25.3755 23.6674 25.3755C25.946 25.3861 27.0879 26.1458 27.0879 27.6653V31.926C27.0879 32.7017 27.1809 33.2754 27.3617 33.6367H25.1813C25.1399 33.5145 25.1089 33.387 25.0831 33.2542C25.0573 33.1267 25.0418 32.9939 25.0314 32.8557C24.3959 33.5198 23.5175 33.8492 22.3963 33.8492ZM21.8796 31.3416C21.8796 31.5701 21.9571 31.7666 22.107 31.926C22.2568 32.0854 22.448 32.2076 22.6753 32.282C22.9027 32.3563 23.1455 32.3882 23.409 32.367C23.6725 32.3457 23.9154 32.266 24.1427 32.1332C24.3701 32.0004 24.5612 31.8038 24.7111 31.5435C24.8609 31.2832 24.9384 30.9538 24.9384 30.55V29.6947C24.7576 29.8806 24.3236 30.0135 23.6364 30.0825C23.0318 30.1569 22.5875 30.2844 22.3033 30.465C22.0191 30.6457 21.8796 30.9379 21.8796 31.3416Z" fill="#E01E89"/>
<path id="Vector_9" d="M32.0079 33.8492C30.9507 33.8492 30.1939 33.5767 29.7377 33.0264C29.2816 32.476 29.0562 31.6368 29.0562 30.4979V25.3755H31.2888V30.051C31.2888 30.6886 31.3907 31.1845 31.5893 31.5332C31.7879 31.882 32.1636 32.0618 32.7217 32.0618C33.3497 32.0618 33.7951 31.8765 34.0581 31.5114C34.3211 31.1463 34.4499 30.5469 34.4499 29.7186V25.3755H36.6825V33.6258H34.5626V32.476H34.5143C33.9561 33.3915 33.1243 33.8492 32.0133 33.8492H32.0079Z" fill="#E01E89"/>
<path id="Vector_10" d="M41.3234 33.8491C40.4873 33.8491 39.8655 33.7108 39.4579 33.4291C39.0504 33.1473 38.8466 32.6658 38.8466 31.9742V27.4304H37.5298V26.0063H38.8466V23.6807H41.0203V26.0063H42.614V27.4304H41.0203V31.2724C41.0203 31.631 41.083 31.8718 41.2032 31.9947C41.3234 32.1126 41.569 32.174 41.94 32.174C42.2273 32.174 42.452 32.1535 42.614 32.1126V33.7774C42.4625 33.7979 42.2796 33.8133 42.0654 33.8286C41.8511 33.844 41.6055 33.8491 41.3286 33.8491H41.3234Z" fill="#E01E89"/>
<path id="Vector_11" d="M44.8307 36.3913C44.6619 36.3913 44.4604 36.3859 44.2262 36.3698C43.9921 36.3537 43.7198 36.3375 43.4148 36.316V34.4701C43.6163 34.4917 43.8178 34.5078 44.0138 34.524C44.2099 34.5401 44.4114 34.5455 44.6129 34.5455C44.9342 34.5455 45.1792 34.4486 45.3535 34.2549C45.5278 34.0612 45.6149 33.8136 45.6149 33.523C45.6149 33.3562 45.5822 33.1894 45.5169 33.0172L42.6143 25.3755H45.0377L46.9056 30.9561H46.9383L48.7408 25.3755H51.088L47.6408 34.5455C47.3957 35.1859 47.0581 35.6541 46.6278 35.95C46.1976 36.246 45.5986 36.3913 44.8362 36.3913H44.8307Z" fill="#E01E89"/>
<path id="Vector_12" d="M61.6803 33.8969C60.8552 33.8969 60.0997 33.7501 59.4193 33.4564C58.7388 33.1627 58.1601 32.7548 57.6779 32.2326C57.1957 31.7051 56.826 31.085 56.5635 30.3617C56.301 29.6383 56.1724 28.8497 56.1724 27.9903C56.1724 27.131 56.301 26.3043 56.5635 25.57C56.826 24.8358 57.1957 24.2049 57.6779 23.6719C58.1601 23.1389 58.7388 22.7255 59.4193 22.4318C60.0997 22.1327 60.8498 21.9858 61.6803 21.9858C62.5108 21.9858 63.2716 22.1327 63.9467 22.4318C64.6218 22.731 65.2004 23.1443 65.6826 23.6719C66.1648 24.2049 66.5345 24.8358 66.7971 25.57C67.0596 26.3043 67.1882 27.1092 67.1882 27.9903C67.1882 29.6492 66.7006 31.0415 65.7309 32.1782L67.1293 33.4672L65.9827 34.6964L64.3967 33.2334C63.6306 33.6794 62.7304 33.9024 61.6803 33.9024V33.8969ZM61.6964 31.7921C62.2429 31.7921 62.5643 31.7377 62.6715 31.6344L61.6213 30.6608L62.7679 29.4207L64.0378 30.601C64.4985 29.9864 64.7289 29.1162 64.7289 27.9903C64.7289 26.7775 64.4557 25.8257 63.9145 25.1295C63.368 24.4333 62.6233 24.0852 61.6696 24.0852C60.7159 24.0852 59.9872 24.4279 59.4514 25.1186C58.9103 25.8094 58.6424 26.7666 58.6424 27.9849C58.6424 28.556 58.712 29.0835 58.846 29.5513C58.9799 30.0245 59.1781 30.4269 59.4407 30.7533C59.7032 31.085 60.0247 31.3352 60.4051 31.5201C60.7855 31.6996 61.2195 31.7921 61.7017 31.7921H61.6964Z" fill="#E01E89"/>
<path id="Vector_13" d="M70.9869 33.8492C69.9297 33.8492 69.1729 33.5767 68.7168 33.0264C68.2606 32.476 68.0352 31.6368 68.0352 30.4979V25.3755H70.2678V30.051C70.2678 30.6886 70.3698 31.1845 70.5683 31.5332C70.7669 31.882 71.1426 32.0618 71.7007 32.0618C72.3287 32.0618 72.7741 31.8765 73.0371 31.5114C73.3001 31.1463 73.4289 30.5469 73.4289 29.7186V25.3755H75.6615V33.6258H73.5416V32.476H73.4933C72.9351 33.3915 72.1033 33.8492 70.9923 33.8492H70.9869Z" fill="#E01E89"/>
<path id="Vector_14" d="M81.2579 33.8491C80.5463 33.8491 79.9002 33.6898 79.3047 33.3766C78.7141 33.058 78.2397 32.5696 77.8864 31.9059C77.5331 31.2529 77.3564 30.4883 77.3564 29.6176C77.3564 29.2141 77.4019 28.8212 77.4978 28.4443C77.5937 28.0673 77.7249 27.7116 77.8965 27.3877C78.0681 27.0638 78.2801 26.7665 78.5224 26.5117C78.7646 26.2568 79.0422 26.0391 79.335 25.8746C79.9356 25.5454 80.5766 25.3755 81.2579 25.3755C81.9746 25.3755 82.6207 25.5507 83.186 25.8958C83.7513 26.2409 84.1954 26.7559 84.5084 27.4249C84.8213 28.0779 84.9828 28.8531 84.9828 29.7397V29.9043C84.9828 29.9733 84.9828 30.053 84.9677 30.1432H79.4561C79.4763 30.7963 79.6378 31.3007 79.9356 31.6511C80.2384 32.0015 80.6977 32.182 81.3185 32.182C81.7021 32.182 82.0554 32.0811 82.3734 31.8794C82.6914 31.6776 82.8983 31.4334 82.9891 31.1414H84.8364C84.2863 32.9572 83.0901 33.8597 81.2579 33.8491ZM82.328 27.4408C82.0655 27.17 81.687 27.0373 81.1822 27.0373C80.6775 27.0373 80.2636 27.1913 79.9709 27.4939C79.6782 27.7965 79.5015 28.216 79.4561 28.7469H82.868C82.7721 28.1469 82.5904 27.7116 82.328 27.4408Z" fill="#E01E89"/>
<path id="Vector_15" d="M90.1622 33.8491C89.372 33.8491 88.6547 33.6898 87.9933 33.3766C87.3376 33.058 86.8108 32.5696 86.4185 31.9059C86.0262 31.2529 85.8301 30.4883 85.8301 29.6176C85.8301 29.2141 85.8805 28.8212 85.987 28.4443C86.0935 28.0673 86.2392 27.7116 86.4297 27.3877C86.6203 27.0638 86.8557 26.7665 87.1303 26.5117C87.4049 26.2515 87.7019 26.0391 88.0326 25.8746C88.6995 25.5454 89.4112 25.3755 90.1678 25.3755C90.9636 25.3755 91.681 25.5507 92.3087 25.8958C92.9363 26.2409 93.4295 26.7559 93.777 27.4249C94.1245 28.0779 94.3038 28.8531 94.3038 29.7397V29.9043C94.3038 29.9733 94.3038 30.053 94.287 30.1432H88.1671C88.1895 30.7963 88.3688 31.3007 88.6995 31.6511C89.0357 32.0015 89.5457 32.182 90.2351 32.182C90.661 32.182 91.0533 32.0811 91.4064 31.8794C91.7594 31.6776 91.9892 31.4334 92.0901 31.1414H94.1413C93.5304 32.9572 92.2022 33.8597 90.1678 33.8491H90.1622ZM91.3503 27.4408C91.0589 27.17 90.6386 27.0373 90.0782 27.0373C89.5177 27.0373 89.0582 27.1913 88.7331 27.4939C88.4081 27.7965 88.2119 28.216 88.1615 28.7469H91.9556C91.8435 28.1469 91.6474 27.7116 91.3559 27.4408H91.3503Z" fill="#E01E89"/>
<path id="Vector_16" d="M97.2767 25.5989V26.7487H97.325C97.8778 25.8332 98.715 25.3755 99.8259 25.3755C100.862 25.3755 101.613 25.6425 102.08 26.1711C102.547 26.7051 102.778 27.5498 102.778 28.7105V33.8492H100.545V29.1737C100.545 28.4925 100.438 27.9857 100.228 27.6588C100.019 27.3318 99.6488 27.1629 99.1121 27.1629C98.5057 27.1629 98.0656 27.3481 97.7919 27.7133C97.5182 28.0784 97.384 28.6941 97.384 29.5551V33.8492H95.1514V25.5989H97.2713H97.2767Z" fill="#E01E89"/>
<path id="Vector_17" d="M3.03887 42.9244C3.11372 42.9992 3.2046 43.0634 3.30618 43.1062C3.40776 43.1489 3.52003 43.1703 3.63764 43.1703C3.75526 43.1703 3.86753 43.1489 3.96911 43.1062C4.07068 43.0634 4.16157 43.0046 4.23642 42.9244C4.31126 42.8496 4.37542 42.7587 4.41819 42.6571C4.46096 42.5555 4.48234 42.4432 4.48234 42.3256C4.48234 42.208 4.46096 42.0957 4.41819 41.9942C4.37542 41.8926 4.31661 41.8017 4.23642 41.7269C4.16157 41.652 4.07068 41.5879 3.96911 41.5451C3.86753 41.497 3.75526 41.4756 3.63764 41.4756C3.52003 41.4756 3.40776 41.497 3.30618 41.5451C3.2046 41.5932 3.11372 41.652 3.03887 41.7269C2.96402 41.8017 2.89987 41.8926 2.8571 41.9942C2.80898 42.0957 2.7876 42.208 2.7876 42.3256C2.7876 42.4432 2.80898 42.5555 2.8571 42.6571C2.90521 42.7587 2.96402 42.8496 3.03887 42.9244Z" fill="#231F20"/>
<path id="Vector_18" d="M11.8575 51.0433C11.7827 50.9683 11.6918 50.9039 11.5902 50.861C11.4886 50.8181 11.3764 50.7966 11.2588 50.7966C11.1411 50.7966 11.0289 50.8181 10.9273 50.861C10.8257 50.9039 10.7348 50.9629 10.66 51.0433C10.5851 51.1184 10.521 51.2096 10.4782 51.3115C10.4354 51.4134 10.4141 51.526 10.4141 51.644C10.4141 51.762 10.4354 51.8746 10.4782 51.9765C10.521 52.0784 10.5798 52.1696 10.66 52.2447C10.7348 52.3198 10.8257 52.3841 10.9273 52.427C11.0289 52.4699 11.1411 52.4914 11.2588 52.4914C11.3764 52.4914 11.4886 52.4699 11.5902 52.427C11.6918 52.3841 11.7827 52.3251 11.8575 52.2447C11.9324 52.1696 11.9965 52.0784 12.0393 51.9765C12.0874 51.8746 12.1088 51.762 12.1088 51.644C12.1088 51.526 12.0874 51.4134 12.0393 51.3115C11.9912 51.2096 11.9324 51.1184 11.8575 51.0433Z" fill="#231F20"/>
<path id="Vector_19" d="M14.4041 51.0433C14.329 50.9683 14.2378 50.9039 14.1359 50.861C14.034 50.8181 13.9214 50.7966 13.8034 50.7966C13.6854 50.7966 13.5728 50.8181 13.4709 50.861C13.369 50.9039 13.2778 50.9629 13.2028 51.0433C13.1277 51.1184 13.0633 51.2096 13.0204 51.3115C12.9775 51.4134 12.9561 51.526 12.9561 51.644C12.9561 51.762 12.9775 51.8746 13.0204 51.9765C13.0633 52.0784 13.1223 52.1696 13.2028 52.2447C13.2778 52.3198 13.369 52.3841 13.4709 52.427C13.5728 52.4699 13.6854 52.4914 13.8034 52.4914C13.9214 52.4914 14.034 52.4699 14.1359 52.427C14.2378 52.3841 14.329 52.3251 14.4041 52.2447C14.4792 52.1696 14.5435 52.0784 14.5864 51.9765C14.6293 51.8746 14.6508 51.762 14.6508 51.644C14.6508 51.526 14.6293 51.4134 14.5864 51.3115C14.5435 51.2096 14.4845 51.1184 14.4041 51.0433Z" fill="#231F20"/>
<path id="Vector_20" d="M12.898 47.7353C12.898 47.8812 12.8475 48.0104 12.7407 48.1115C12.634 48.2125 12.516 48.2687 12.3699 48.2687H8.54946L7.2741 48.2631V43.1702H5.50434V49.3356C5.50434 49.5658 5.45377 49.7679 5.35264 49.942C5.25151 50.1161 5.11667 50.2621 4.95374 50.38C4.79081 50.4979 4.60541 50.5821 4.39191 50.6439C4.18404 50.7 3.97054 50.7281 3.75143 50.7281C3.53231 50.7281 3.3132 50.7 3.10532 50.6439C2.89744 50.5877 2.70642 50.4979 2.54349 50.38C2.38056 50.2621 2.24572 50.1161 2.14459 49.942C2.04346 49.7679 1.99852 49.5658 1.99852 49.3356V44.3325H0.245605V49.3356C0.245605 49.8578 0.346735 50.3182 0.543375 50.7169C0.745634 51.1099 1.00969 51.4412 1.33556 51.7051C1.66704 51.9691 2.03784 52.1656 2.45922 52.2947C2.88059 52.4239 3.3132 52.4913 3.75143 52.4913C4.13909 52.4913 4.52113 52.4407 4.89194 52.3397C5.26837 52.2386 5.61108 52.087 5.92571 51.8848C6.24033 51.6827 6.50439 51.4244 6.72913 51.1212C6.95386 50.8123 7.10555 50.453 7.18983 50.0375H12.3643C12.6789 50.0375 12.9711 49.9757 13.2464 49.8578C13.5217 49.7399 13.7632 49.577 13.9711 49.3693C14.179 49.1615 14.3419 48.92 14.4655 48.6393C14.5891 48.3585 14.6509 48.0609 14.6509 47.7465V43.1758H12.8924V47.7465L12.898 47.7353Z" fill="#231F20"/>
<path id="Vector_21" d="M50 43.9254C49.6746 43.6859 49.3012 43.5132 48.8852 43.413C48.4691 43.3127 48.0424 43.257 47.6049 43.2514L49.1039 41.8535L47.8983 40.6282L44.2551 44.1537L44.9965 45.5628C45.1032 45.5127 45.2472 45.457 45.4339 45.3902C45.6206 45.3233 45.8287 45.2621 46.0527 45.2064C46.2821 45.1507 46.5168 45.1005 46.7675 45.0616C47.0182 45.0226 47.2582 45.0003 47.4876 45.0003C47.717 45.0003 47.957 45.0226 48.1864 45.0671C48.4157 45.1117 48.6238 45.1897 48.8051 45.2955C48.9865 45.4069 49.1359 45.5517 49.2479 45.7355C49.3599 45.9193 49.4132 46.1532 49.4132 46.4373V47.8074C49.4132 47.9466 49.3652 48.0691 49.2639 48.1694C49.1625 48.2696 49.0398 48.3142 48.8958 48.3142H21.4248V46.3927C21.4248 45.975 21.3448 45.5795 21.1901 45.2008C21.0354 44.8221 20.822 44.4879 20.5553 44.2038C20.2886 43.9142 19.9739 43.6859 19.6112 43.5132C19.2485 43.3406 18.8644 43.257 18.4537 43.257C18.0429 43.257 17.6642 43.3406 17.3068 43.5076C16.9494 43.6747 16.6347 43.9031 16.368 44.1871C16.1013 44.4768 15.8879 44.8109 15.7332 45.1952C15.5785 45.5795 15.4985 45.9917 15.4985 46.4261V47.8074C15.4985 48.1193 15.5572 48.4089 15.6692 48.6818C15.7812 48.9547 15.9359 49.1942 16.1333 49.3947C16.3307 49.5952 16.5547 49.7567 16.8161 49.8793C17.0775 49.9962 17.3602 50.0575 17.6535 50.0575H19.5898C19.4832 50.2803 19.3338 50.4529 19.1364 50.5699C18.9391 50.6868 18.715 50.7481 18.4697 50.7481H16.3733V52.4914H18.4697C18.8164 52.4914 19.1524 52.4301 19.4672 52.302C19.7819 52.1739 20.0699 52.0068 20.326 51.7841C20.582 51.5613 20.8007 51.3051 20.9821 51.0099C21.1634 50.7147 21.2915 50.3917 21.3661 50.0519H48.8958C49.1999 50.0519 49.4826 49.9906 49.7493 49.8737C50.016 49.7567 50.2507 49.5952 50.4481 49.3891C50.6454 49.1831 50.8055 48.9491 50.9175 48.6762C51.0295 48.4033 51.0882 48.1081 51.0882 47.8018V46.4317C51.0882 45.8135 50.9868 45.3066 50.7895 44.9C50.5921 44.4935 50.3254 44.1704 50 43.9254ZM19.7552 48.3086H17.6589C17.5255 48.3086 17.4082 48.2585 17.3122 48.1638C17.2161 48.0636 17.1735 47.9466 17.1735 47.8018V46.4205C17.1735 46.2256 17.2055 46.0418 17.2748 45.8636C17.3442 45.6909 17.4348 45.5405 17.5522 45.4124C17.6695 45.2843 17.8029 45.1841 17.9576 45.1117C18.1123 45.0393 18.2776 45.0003 18.459 45.0003C18.6404 45.0003 18.8057 45.0393 18.9657 45.1117C19.1258 45.1841 19.2645 45.2899 19.3818 45.4124C19.4992 45.535 19.5898 45.6854 19.6592 45.8524C19.7232 46.0195 19.7552 46.1978 19.7552 46.3816V48.3031V48.3086Z" fill="#231F20"/>
<path id="Vector_22" d="M60.1624 52.7379C60.0873 52.6628 59.9961 52.5985 59.8942 52.5556C59.7923 52.5127 59.6797 52.4912 59.5617 52.4912C59.4437 52.4912 59.3311 52.5127 59.2292 52.5556C59.1273 52.5985 59.0361 52.6575 58.9611 52.7379C58.886 52.813 58.8216 52.9042 58.7787 53.0061C58.7358 53.108 58.7144 53.2206 58.7144 53.3386C58.7144 53.4566 58.7358 53.5692 58.7787 53.6711C58.8216 53.773 58.8806 53.8642 58.9611 53.9393C59.0361 54.0143 59.1273 54.0787 59.2292 54.1216C59.3311 54.1645 59.4437 54.186 59.5617 54.186C59.6797 54.186 59.7923 54.1645 59.8942 54.1216C59.9961 54.0787 60.0873 54.0197 60.1624 53.9393C60.2375 53.8642 60.3018 53.773 60.3447 53.6711C60.3876 53.5692 60.4091 53.4566 60.4091 53.3386C60.4091 53.2206 60.3876 53.108 60.3447 53.0061C60.3018 52.9042 60.2428 52.813 60.1624 52.7379Z" fill="#231F20"/>
<path id="Vector_23" d="M58.463 52.7379C58.3882 52.6628 58.2973 52.5985 58.1957 52.5556C58.0941 52.5127 57.9818 52.4912 57.8642 52.4912C57.7466 52.4912 57.6343 52.5127 57.5328 52.5556C57.4312 52.5985 57.3403 52.6575 57.2655 52.7379C57.1906 52.813 57.1265 52.9042 57.0837 53.0061C57.0409 53.108 57.0195 53.2206 57.0195 53.3386C57.0195 53.4566 57.0409 53.5692 57.0837 53.6711C57.1265 53.773 57.1853 53.8642 57.2655 53.9393C57.3403 54.0143 57.4312 54.0787 57.5328 54.1216C57.6343 54.1645 57.7466 54.186 57.8642 54.186C57.9818 54.186 58.0941 54.1645 58.1957 54.1216C58.2973 54.0787 58.3882 54.0197 58.463 53.9393C58.5379 53.8642 58.602 53.773 58.6448 53.6711C58.6929 53.5692 58.7143 53.4566 58.7143 53.3386C58.7143 53.2206 58.6929 53.108 58.6448 53.0061C58.5967 52.9042 58.5379 52.813 58.463 52.7379Z" fill="#231F20"/>
<path id="Vector_24" d="M66.4184 47.7296C66.4184 47.8756 66.3715 48.0048 66.2724 48.1059C66.1733 48.2069 66.0638 48.2631 65.9282 48.2631H58.1151V50.0206H60.024C59.951 50.1329 59.8623 50.2284 59.7528 50.3182C59.6485 50.4081 59.5285 50.481 59.4034 50.5372C59.2782 50.599 59.1426 50.6439 59.007 50.6776C58.8661 50.7113 58.7253 50.7281 58.5845 50.7281C58.3863 50.7281 58.1881 50.7 57.9899 50.6383C57.7969 50.5765 57.6248 50.4923 57.4683 50.3744C57.3171 50.2564 57.1919 50.1104 57.098 49.9364C57.0042 49.7623 56.9572 49.5546 56.9572 49.3243V44.3269H55.3247V49.3243C55.3247 49.8522 55.4186 50.3182 55.6011 50.7113C55.7889 51.1043 56.034 51.4356 56.3365 51.6995C56.6391 51.9634 56.9885 52.16 57.3797 52.2947C57.7709 52.4239 58.1672 52.4913 58.5741 52.4913C58.934 52.4913 59.2886 52.4407 59.6328 52.3453C59.9771 52.2498 60.3005 52.0926 60.5925 51.8904C60.8846 51.6883 61.135 51.43 61.3436 51.1212C61.5522 50.8123 61.6983 50.4474 61.7713 50.0318H65.9125C66.2046 50.0318 66.4758 49.9701 66.7366 49.8522C66.9974 49.7342 67.2216 49.5714 67.4146 49.3636C67.6076 49.1559 67.7589 48.9144 67.8684 48.6337C67.9779 48.3529 68.0353 48.0553 68.0353 47.7409V43.1702H66.4028V47.7409L66.4184 47.7296Z" fill="#231F20"/>
<path id="Vector_25" d="M64.8919 42.9244C64.9668 42.9992 65.0577 43.0634 65.1592 43.1062C65.2608 43.1489 65.3731 43.1703 65.4907 43.1703C65.6083 43.1703 65.7206 43.1489 65.8222 43.1062C65.9237 43.0634 66.0146 43.0046 66.0895 42.9244C66.1643 42.8496 66.2285 42.7587 66.2712 42.6571C66.3194 42.5555 66.3407 42.4432 66.3407 42.3256C66.3407 42.208 66.3194 42.0957 66.2712 41.9942C66.2231 41.8926 66.1643 41.8017 66.0895 41.7269C66.0146 41.652 65.9237 41.5879 65.8222 41.5451C65.7206 41.497 65.6083 41.4756 65.4907 41.4756C65.3731 41.4756 65.2608 41.497 65.1592 41.5451C65.0577 41.5932 64.9668 41.652 64.8919 41.7269C64.8171 41.8017 64.7529 41.8926 64.7102 41.9942C64.6674 42.0957 64.646 42.208 64.646 42.3256C64.646 42.4432 64.6674 42.5555 64.7102 42.6571C64.7529 42.7587 64.8117 42.8496 64.8919 42.9244Z" fill="#231F20"/>
<path id="Vector_26" d="M67.7896 41.7269C67.7148 41.652 67.6239 41.5879 67.5223 41.5451C67.4208 41.497 67.3085 41.4756 67.1909 41.4756C67.0733 41.4756 66.961 41.497 66.8594 41.5451C66.7578 41.5932 66.6669 41.652 66.5921 41.7269C66.5172 41.8017 66.4531 41.8926 66.4103 41.9942C66.3676 42.0957 66.3408 42.208 66.3408 42.3256C66.3408 42.4432 66.3622 42.5555 66.4103 42.6571C66.4584 42.7587 66.5172 42.8496 66.5921 42.9244C66.6669 42.9993 66.7578 43.0634 66.8594 43.1062C66.961 43.1489 67.0733 43.1703 67.1909 43.1703C67.3085 43.1703 67.4208 43.1489 67.5223 43.1062C67.6239 43.0634 67.7148 43.0046 67.7896 42.9244C67.8645 42.8496 67.9286 42.7587 67.9714 42.6571C68.0142 42.5555 68.0356 42.4432 68.0356 42.3256C68.0356 42.208 68.0142 42.0957 67.9714 41.9942C67.9286 41.8926 67.8698 41.8017 67.7896 41.7269Z" fill="#231F20"/>
<path id="Vector_27" d="M98.2942 51.0433C98.2192 50.9683 98.128 50.9039 98.0261 50.861C97.9242 50.8181 97.8116 50.7966 97.6936 50.7966C97.5756 50.7966 97.463 50.8181 97.3611 50.861C97.2592 50.9039 97.168 50.9629 97.0929 51.0433C97.0178 51.1184 96.9535 51.2096 96.9106 51.3115C96.8676 51.4134 96.8462 51.526 96.8462 51.644C96.8462 51.762 96.8676 51.8746 96.9106 51.9765C96.9535 52.0784 97.0125 52.1696 97.0929 52.2447C97.168 52.3198 97.2592 52.3841 97.3611 52.427C97.463 52.4699 97.5756 52.4914 97.6936 52.4914C97.8116 52.4914 97.9242 52.4699 98.0261 52.427C98.128 52.3841 98.2192 52.3251 98.2942 52.2447C98.3693 52.1696 98.4337 52.0784 98.4766 51.9765C98.5195 51.8746 98.5409 51.762 98.5409 51.644C98.5409 51.526 98.5195 51.4134 98.4766 51.3115C98.4337 51.2096 98.3747 51.1184 98.2942 51.0433Z" fill="#231F20"/>
<path id="Vector_28" d="M95.7472 51.0433C95.6723 50.9683 95.5815 50.9039 95.4799 50.861C95.3783 50.8181 95.266 50.7966 95.1484 50.7966C95.0308 50.7966 94.9185 50.8181 94.8169 50.861C94.7154 50.9039 94.6245 50.9629 94.5496 51.0433C94.4748 51.1184 94.4106 51.2096 94.3679 51.3115C94.3251 51.4134 94.3037 51.526 94.3037 51.644C94.3037 51.762 94.3251 51.8746 94.3679 51.9765C94.4106 52.0784 94.4694 52.1696 94.5496 52.2447C94.6245 52.3198 94.7154 52.3841 94.8169 52.427C94.9185 52.4699 95.0308 52.4914 95.1484 52.4914C95.266 52.4914 95.3783 52.4699 95.4799 52.427C95.5815 52.3841 95.6723 52.3251 95.7472 52.2447C95.822 52.1696 95.8862 52.0784 95.929 51.9765C95.9771 51.8746 95.9985 51.762 95.9985 51.644C95.9985 51.526 95.9771 51.4134 95.929 51.3115C95.8808 51.2096 95.822 51.1184 95.7472 51.0433Z" fill="#231F20"/>
<path id="Vector_29" d="M101.107 43.1758V47.7465C101.107 47.8925 101.059 48.0216 100.958 48.1227C100.857 48.2238 100.745 48.2799 100.607 48.2799H98.4144V43.1814H96.749V48.2799H75.6414V46.3427C75.6414 45.9216 75.5616 45.5229 75.4073 45.1411C75.253 44.7592 75.0401 44.4223 74.7741 44.136C74.5081 43.844 74.1941 43.6138 73.8323 43.4397C73.4705 43.2656 73.0874 43.1814 72.6777 43.1814C72.268 43.1814 71.8902 43.2656 71.5337 43.4341C71.1772 43.6025 70.8633 43.8328 70.5973 44.1191C70.3312 44.4111 70.1184 44.748 69.9641 45.1355C69.8098 45.5229 69.73 45.9384 69.73 46.3764V47.7689C69.73 48.0834 69.7885 48.3754 69.9003 48.6505C70.012 48.9257 70.1663 49.1671 70.3632 49.3693C70.56 49.5714 70.7835 49.7342 71.0442 49.8578C71.3049 49.9757 71.5869 50.0375 71.8796 50.0375H73.811C73.7046 50.2621 73.5556 50.4361 73.3588 50.554C73.1619 50.672 72.9384 50.7337 72.6937 50.7337H70.6026V52.4913H72.6937C73.0395 52.4913 73.3747 52.4295 73.6887 52.3003C74.0026 52.1712 74.2899 52.0027 74.5453 51.7781C74.8007 51.5535 75.0189 51.2952 75.1998 50.9976C75.3807 50.7 75.5084 50.3744 75.5829 50.0318H100.612C100.91 50.0318 101.187 49.9701 101.453 49.8522C101.719 49.7342 101.947 49.5714 102.144 49.3636C102.341 49.1559 102.495 48.9144 102.607 48.6337C102.719 48.3529 102.777 48.0553 102.777 47.7409V43.1702H101.112L101.107 43.1758ZM73.976 48.2743H71.8849C71.7519 48.2743 71.6348 48.2238 71.5391 48.1283C71.4433 48.0272 71.4007 47.9093 71.4007 47.7633V46.3708C71.4007 46.1743 71.4326 45.989 71.5018 45.8093C71.571 45.6352 71.6614 45.4836 71.7785 45.3544C71.8956 45.2253 72.0286 45.1242 72.1829 45.0512C72.3372 44.9782 72.5021 44.9389 72.683 44.9389C72.8639 44.9389 73.0289 44.9782 73.1885 45.0512C73.3481 45.1242 73.4865 45.2309 73.6035 45.3544C73.7206 45.478 73.811 45.6296 73.8802 45.798C73.9441 45.9665 73.976 46.1462 73.976 46.3315V48.2687V48.2743Z" fill="#231F20"/>
<path id="Vector_30" d="M102.531 51.0433C102.456 50.9683 102.365 50.9039 102.263 50.861C102.161 50.8181 102.048 50.7966 101.93 50.7966C101.812 50.7966 101.7 50.8181 101.598 50.861C101.496 50.9039 101.405 50.9629 101.33 51.0433C101.255 51.1238 101.19 51.2096 101.147 51.3115C101.104 51.4134 101.083 51.5207 101.083 51.6386C101.083 51.7566 101.104 51.8693 101.147 51.9712C101.19 52.0731 101.249 52.1642 101.33 52.2393C101.41 52.3144 101.496 52.3788 101.598 52.4217C101.7 52.4699 101.812 52.4914 101.93 52.4914C102.048 52.4914 102.161 52.4699 102.263 52.4217C102.365 52.3734 102.456 52.3144 102.531 52.2393C102.606 52.1642 102.67 52.0731 102.713 51.9712C102.756 51.8693 102.778 51.7566 102.778 51.6386C102.778 51.5207 102.756 51.408 102.713 51.3115C102.67 51.215 102.611 51.1238 102.531 51.0433Z" fill="#231F20"/>
</g>
</svg>
