<svg width="35" height="31" viewBox="0 0 35 31" fill="none" xmlns="http://www.w3.org/2000/svg">
<g id="Group">
<path id="Vector" d="M31.5931 3.56912C29.6475 1.62345 27.0606 0.552002 24.309 0.552002C21.8755 0.552002 19.5708 1.39021 17.7245 2.92984C15.8784 1.39021 13.5735 0.552002 11.1401 0.552002C8.38854 0.552002 5.80167 1.62351 3.856 3.56912C-0.160334 7.58552 -0.160334 14.1208 3.856 18.1373L15.1515 29.4328C15.8367 30.1179 16.7505 30.4952 17.7246 30.4952C18.6987 30.4952 19.6124 30.1179 20.2976 29.4327L31.5931 18.1373C35.6094 14.1208 35.6094 7.58546 31.5931 3.56912ZM30.1939 16.7381L18.8984 28.0335C18.587 28.3449 18.1701 28.5164 17.7246 28.5164C17.279 28.5164 16.8622 28.3449 16.5507 28.0335L5.25527 16.7382C2.01046 13.4931 2.01046 8.21319 5.2552 4.96832C6.82715 3.39637 8.91714 2.53072 11.1401 2.53072C13.3631 2.53072 15.4531 3.39637 17.0249 4.96825C17.4112 5.35464 18.0377 5.35464 18.4241 4.96825C19.9961 3.39631 22.0861 2.53065 24.3091 2.53065C26.5321 2.53065 28.6221 3.39631 30.1939 4.96819C33.4387 8.21319 33.4387 13.4931 30.1939 16.7381Z" fill="#DE0F7E"/>
</g>
</svg>
