<svg width="30" height="28" viewBox="0 0 30 28" fill="none" xmlns="http://www.w3.org/2000/svg">
<g id="Isolation_Mode" clip-path="url(#clip0_1848_1059)">
<path id="Vector" d="M29.3223 2.96795C29.201 2.39356 28.882 1.87909 28.4201 1.51305C27.9582 1.14701 27.3822 0.952226 26.7914 0.962285H2.95342C2.61485 0.956653 2.27858 1.01857 1.96453 1.14434C1.65048 1.27011 1.36502 1.45722 1.12509 1.69453C0.885155 1.93184 0.695621 2.21454 0.567694 2.52592C0.439766 2.8373 0.376049 3.171 0.380329 3.50727C0.380329 9.12093 0.380329 14.7346 0.380329 20.3483C0.37679 20.6846 0.440955 21.0182 0.569078 21.3295C0.6972 21.6409 0.886696 21.9237 1.12641 22.1613C1.36612 22.3988 1.65123 22.5864 1.96498 22.713C2.27873 22.8396 2.61479 22.9027 2.95342 22.8985C3.62833 22.8985 4.30851 22.8985 4.98869 22.8985H5.51596V23.2389C5.51596 24.5218 5.51596 25.81 5.51596 27.093C5.50862 27.2151 5.52916 27.3373 5.57604 27.4504C5.62293 27.5635 5.69497 27.6647 5.78674 27.7463C5.87852 27.8278 5.98765 27.8877 6.10602 27.9215C6.22439 27.9553 6.34894 27.9621 6.47032 27.9413C6.70554 27.8825 6.91933 27.7591 7.08722 27.5852C8.61104 26.0928 10.1243 24.5847 11.6323 23.0765C11.6893 23.0157 11.7589 22.9678 11.8362 22.9361C11.9136 22.9045 11.9969 22.8899 12.0805 22.8932H26.7387C27.1577 22.917 27.5758 22.8331 27.9526 22.6497C28.3294 22.4662 28.6523 22.1894 28.89 21.8459C29.0888 21.4893 29.2513 21.1139 29.3751 20.7253V3.17736C29.3751 3.09358 29.3382 3.03079 29.3223 2.96795ZM26.6279 21.2123C21.6646 21.2123 16.7012 21.2123 11.7378 21.2123C11.5411 21.2032 11.3448 21.2368 11.1626 21.311C10.9805 21.3852 10.8168 21.4981 10.6832 21.6417C9.56013 22.778 8.41595 23.8987 7.22432 25.0822V22.1182C7.23365 21.9985 7.21694 21.8781 7.17534 21.7654C7.13374 21.6526 7.06822 21.55 6.98321 21.4646C6.8982 21.3792 6.79572 21.3129 6.68266 21.2703C6.5696 21.2277 6.44862 21.2097 6.32795 21.2176H3.1274C2.39449 21.2176 2.07285 20.9034 2.07285 20.1702V3.72199C2.07285 2.9941 2.38922 2.67467 3.1274 2.67467H26.6279C27.3609 2.67467 27.6825 2.98887 27.6825 3.72199V20.1964C27.6772 20.8928 27.3609 21.2123 26.6279 21.2123Z" fill="#DE0F7E"/>
<path id="Vector_2" d="M15.9243 6.65486C15.5424 6.93819 15.1795 7.24607 14.8381 7.57651L14.701 7.41421C14.1696 6.75934 13.4239 6.31007 12.5935 6.14456C11.7632 5.97905 10.9007 6.10773 10.156 6.50822C9.3145 6.98638 8.66817 7.74207 8.32914 8.6441C7.99011 9.54613 7.97981 10.5376 8.29998 11.4464C8.65179 12.4212 9.24681 13.2914 10.0294 13.9756C11.4267 15.2377 12.8662 16.4474 14.2951 17.6675C14.3761 17.7448 14.4718 17.8053 14.5765 17.8456C14.6813 17.8859 14.7931 17.9052 14.9054 17.9023C15.0177 17.8994 15.1283 17.8743 15.2308 17.8286C15.3333 17.7829 15.4257 17.7174 15.5025 17.636C16.1774 17.081 16.8488 16.5207 17.5167 15.9551C18.6162 15.1012 19.6266 14.1399 20.5327 13.0854C21.0604 12.4932 21.422 11.7736 21.5811 10.9988C21.7403 10.224 21.6915 9.42113 21.4396 8.67095C21.273 8.13061 20.9828 7.6359 20.5917 7.22538C20.2007 6.81486 19.7194 6.49969 19.1854 6.3045C18.6514 6.1093 18.0792 6.03935 17.5135 6.10013C16.9478 6.16092 16.4039 6.35076 15.9243 6.65486ZM19.2672 11.9334C18.4988 12.8608 17.6287 13.7003 16.673 14.4365L14.8381 15.9761C13.5463 14.8188 12.244 13.7034 11.0101 12.5252C10.5838 12.1012 10.2405 11.6022 9.99778 11.0536C9.77233 10.5594 9.72151 10.0039 9.85357 9.47741C9.98564 8.95087 10.2929 8.48402 10.7254 8.15253C10.9496 7.99067 11.2056 7.87767 11.4768 7.82095C11.748 7.76424 12.0281 7.7651 12.299 7.82345C12.5698 7.88179 12.8251 7.99635 13.0483 8.15956C13.2714 8.32276 13.4573 8.53093 13.5938 8.77048C13.81 9.10562 13.9471 9.4931 14.1211 9.84919C14.1871 9.99121 14.2951 10.1099 14.4307 10.1895C14.5664 10.269 14.7232 10.3056 14.8803 10.2943C15.0327 10.2982 15.1829 10.2582 15.3129 10.1792C15.443 10.1003 15.5473 9.98562 15.6133 9.84919C15.6765 9.72351 15.7187 9.5926 15.7714 9.46168C15.9555 9.00781 16.2361 8.5988 16.594 8.26254C16.8232 8.0673 17.0945 7.92678 17.3869 7.85183C17.6794 7.77688 17.9852 7.76949 18.281 7.83016C18.5767 7.89083 18.8546 8.01793 19.0932 8.20181C19.3318 8.38569 19.5248 8.62143 19.6574 8.89091C19.9076 9.37828 20.0042 9.92918 19.9346 10.4719C19.865 11.0146 19.6325 11.5239 19.2672 11.9334Z" fill="#DE0F7E"/>
</g>
<defs>
<clipPath id="clip0_1848_1059">
<rect width="29" height="27" fill="white" transform="translate(0.375 0.962402)"/>
</clipPath>
</defs>
</svg>
