<svg width="37" height="27" viewBox="0 0 37 27" fill="none" xmlns="http://www.w3.org/2000/svg">
<g id="Layer_1" clip-path="url(#clip0_1615_1504)">
<path id="Vector" d="M34.5905 12.3352C29.1744 12.3517 23.7583 12.3517 18.3421 12.3517H7.07266C5.20899 12.3517 3.34532 12.3517 1.47618 12.3517C1.11547 12.3517 0.793019 12.4782 0.574406 12.7038C0.361259 12.9184 0.251953 13.2099 0.251953 13.54C0.251953 14.1947 0.771158 14.6843 1.44886 14.6843H2.88077C6.01786 14.6843 9.14948 14.6843 12.2866 14.6843C19.8833 14.6843 27.4747 14.6843 35.066 14.6678C35.2955 14.6678 35.5961 14.5578 35.8257 14.3928C35.9295 14.3212 36.0169 14.1837 36.1317 13.9801L35.8858 13.8261L36.1317 13.9746L36.241 13.7931V13.1934L36.2082 13.1329C35.9295 12.5663 35.465 12.3352 34.585 12.3352H34.5905Z" fill="#E01E89"/>
<path id="Vector_2" d="M34.6941 24.169H34.6887C26.0644 24.1855 17.4456 24.1855 8.82137 24.18H1.67821H1.56891C1.49239 24.18 1.41041 24.18 1.3339 24.18C0.787367 24.2075 0.311885 24.6421 0.257232 25.1647C0.191648 25.7534 0.525032 26.2815 1.04424 26.4301C1.26831 26.4906 1.53065 26.5016 1.75473 26.5016H12.6526C20.0034 26.5016 27.3488 26.5016 34.7051 26.5126C35.5139 26.5126 35.9676 26.2595 36.2244 25.6654L36.2463 25.6103V25.0272L36.219 24.9722C35.9566 24.3945 35.5139 24.158 34.6941 24.158V24.169Z" fill="#E01E89"/>
<path id="Vector_3" d="M36.2191 1.35428C35.9623 0.771126 35.5086 0.52356 34.6943 0.52356H34.6888C26.3652 0.534563 18.0415 0.534563 9.71784 0.534563H1.78767C1.59092 0.534563 1.41603 0.534563 1.25753 0.556568C0.7274 0.611583 0.28471 1.0627 0.251918 1.57984C0.213661 2.18501 0.557975 2.69114 1.08811 2.81768C1.25207 2.85619 1.44882 2.86169 1.63464 2.86169H11.0295C18.916 2.86169 26.8024 2.86169 34.6943 2.87819C35.5196 2.87819 35.9623 2.63613 36.2191 2.04747L36.2465 1.99246V1.4093L36.2191 1.35428Z" fill="#E01E89"/>
</g>
<defs>
<clipPath id="clip0_1615_1504">
<rect width="36" height="26" fill="white" transform="translate(0.246094 0.52356)"/>
</clipPath>
</defs>
</svg>
