<svg width="55" height="67" viewBox="0 0 55 67" fill="none" xmlns="http://www.w3.org/2000/svg">
<g id="Group">
<g id="Group 10591">
<path id="Vector" fill-rule="evenodd" clip-rule="evenodd" d="M27.6299 24.0515L49.608 32.5973V57.9753L27.6299 66.521L5.65186 57.9753V32.5973L27.6299 24.0515Z" fill="#DE0F7E"/>
<path id="Vector_2" fill-rule="evenodd" clip-rule="evenodd" d="M27.6299 24.0515L49.608 32.5973V57.9753L27.6299 66.521V24.0515Z" fill="#DE0F7E"/>
<path id="Vector_3" fill-rule="evenodd" clip-rule="evenodd" d="M27.6299 41.1158L22.6312 49.774L0.629883 41.2192L5.62859 32.561L27.6299 41.1158ZM27.6299 41.1158L32.6286 49.774L54.6299 41.2192L49.6312 32.561L27.6299 41.1158Z" fill="#F4C6DD"/>
<path id="Vector_4" fill-rule="evenodd" clip-rule="evenodd" d="M49.5734 32.5838L27.6297 24.0515L5.68604 32.5838L27.6297 41.1163L49.5734 32.5838Z" fill="#B94B82"/>
</g>
<path id="Vector_5" fill-rule="evenodd" clip-rule="evenodd" d="M50.6299 32.9108L27.6299 24.4109V41.4109L50.6299 32.9108Z" fill="#A20358"/>
<g id="Group 10595">
<path id="Vector_6" fill-rule="evenodd" clip-rule="evenodd" d="M28.6315 34.8258C35.078 34.8258 40.3358 29.568 40.3358 23.1214C40.3358 16.675 35.078 11.4172 28.6315 11.4172C22.185 11.4172 16.9272 16.675 16.9272 23.1214C16.9272 29.568 22.185 34.8258 28.6315 34.8258Z" fill="#33B505"/>
<path id="Vector_7" fill-rule="evenodd" clip-rule="evenodd" d="M31.5393 19.7516C32.0184 19.2973 32.795 19.2973 33.274 19.7516C33.7531 20.2057 33.7531 20.9423 33.274 21.3965L27.2907 27.0703C26.7483 27.5847 25.852 27.5038 25.4166 26.9126L22.8994 23.9086C22.4785 23.4066 22.5665 22.6762 23.0958 22.2772C23.6252 21.8781 24.3953 21.9615 24.8162 22.4635L26.5268 24.5048L31.5393 19.7516Z" fill="#EFF4F7"/>
<path id="Vector_8" fill-rule="evenodd" clip-rule="evenodd" d="M50.0007 22.3389C50.1411 22.3373 50.2804 22.3636 50.4105 22.4162C50.5407 22.4689 50.6591 22.5468 50.759 22.6456C50.8588 22.7443 50.9381 22.8618 50.9922 22.9914C51.0463 23.121 51.0741 23.26 51.0741 23.4004C51.0741 23.5408 51.0463 23.6798 50.9922 23.8094C50.9381 23.939 50.8588 24.0565 50.759 24.1553C50.6591 24.254 50.5407 24.3319 50.4105 24.3846C50.2804 24.4372 50.1411 24.4635 50.0007 24.462H45.0285C44.8881 24.4635 44.7487 24.4372 44.6186 24.3846C44.4884 24.3319 44.37 24.254 44.2701 24.1553C44.1703 24.0565 44.091 23.939 44.0369 23.8094C43.9828 23.6798 43.955 23.5408 43.955 23.4004C43.955 23.26 43.9828 23.121 44.0369 22.9914C44.091 22.8618 44.1703 22.7443 44.2701 22.6456C44.37 22.5468 44.4884 22.4689 44.6186 22.4162C44.7487 22.3636 44.8881 22.3373 45.0285 22.3389H50.0007ZM27.5696 1.4725C27.5696 1.19094 27.6814 0.920918 27.8805 0.721827C28.0796 0.522737 28.3497 0.410889 28.6312 0.410889C28.9128 0.410889 29.1828 0.522737 29.3819 0.721827C29.581 0.920918 29.6928 1.19094 29.6928 1.4725V6.44469C29.6928 6.72625 29.581 6.99627 29.3819 7.19536C29.1828 7.39445 28.9128 7.5063 28.6312 7.5063C28.3497 7.5063 28.0796 7.39445 27.8805 7.19536C27.6814 6.99627 27.5696 6.72625 27.5696 6.44469V1.4725ZM16.8533 4.76005C16.7841 4.63969 16.7394 4.50689 16.7215 4.36923C16.7037 4.23157 16.7131 4.09174 16.7493 3.95773C16.7855 3.82372 16.8478 3.69815 16.9325 3.5882C17.0172 3.47825 17.1228 3.38607 17.2432 3.31692C17.3635 3.24775 17.4963 3.20297 17.634 3.18513C17.7717 3.16729 17.9115 3.17675 18.0455 3.21295C18.1795 3.24915 18.3051 3.3114 18.415 3.39613C18.525 3.48087 18.6172 3.58643 18.6863 3.70679L21.1723 8.01269C21.312 8.25576 21.3494 8.54436 21.2763 8.815C21.2032 9.08564 21.0255 9.31615 20.7825 9.45582C20.5394 9.59549 20.2508 9.63288 19.9801 9.55976C19.7095 9.48664 19.479 9.30901 19.3393 9.06594L16.8533 4.76005ZM9.21275 12.9713C9.09239 12.9016 8.98694 12.8089 8.90242 12.6985C8.8179 12.588 8.75597 12.462 8.72016 12.3276C8.68435 12.1932 8.67536 12.0531 8.69371 11.9152C8.71207 11.7773 8.7574 11.6444 8.82712 11.5241C8.89681 11.4038 8.98953 11.2983 9.09997 11.2138C9.21042 11.1293 9.33643 11.0674 9.4708 11.0316C9.60518 10.9958 9.74529 10.9868 9.88315 11.0051C10.021 11.0235 10.1539 11.0688 10.2742 11.1385L14.5801 13.6245C14.7016 13.6936 14.8081 13.7861 14.8937 13.8966C14.9792 14.0071 15.042 14.1335 15.0785 14.2684C15.115 14.4033 15.1244 14.5441 15.1062 14.6826C15.0881 14.8212 15.0426 14.9548 14.9726 15.0757C14.9026 15.1966 14.8093 15.3025 14.6981 15.3872C14.587 15.4719 14.4602 15.5338 14.325 15.5693C14.1898 15.6048 14.049 15.6131 13.9106 15.5939C13.7722 15.5747 13.6389 15.5283 13.5185 15.4574L9.21275 12.9713ZM6.70336 23.9033C6.56296 23.9049 6.42364 23.8786 6.29347 23.8259C6.1633 23.7733 6.04487 23.6953 5.94503 23.5966C5.84519 23.4979 5.76593 23.3803 5.71183 23.2507C5.65774 23.1212 5.62988 22.9822 5.62988 22.8417C5.62988 22.7013 5.65774 22.5623 5.71183 22.4327C5.76593 22.3032 5.84519 22.1856 5.94503 22.0869C6.04487 21.9882 6.1633 21.9102 6.29347 21.8576C6.42364 21.8049 6.56296 21.7786 6.70336 21.7802H11.6756C11.816 21.7786 11.9553 21.8049 12.0854 21.8576C12.2156 21.9102 12.334 21.9882 12.4339 22.0869C12.5337 22.1856 12.613 22.3032 12.6671 22.4327C12.7212 22.5623 12.749 22.7013 12.749 22.8417C12.749 22.9822 12.7212 23.1212 12.6671 23.2507C12.613 23.3803 12.5337 23.4979 12.4339 23.5966C12.334 23.6953 12.2156 23.7733 12.0854 23.8259C11.9553 23.8786 11.816 23.9049 11.6756 23.9033H6.70336ZM38.5017 3.986C38.5708 3.86564 38.663 3.76009 38.773 3.67536C38.883 3.59063 39.0085 3.52839 39.1425 3.4922C39.2766 3.456 39.4164 3.44655 39.5541 3.4644C39.6917 3.48224 39.8245 3.52702 39.9449 3.59619C40.0652 3.66535 40.1708 3.75755 40.2555 3.86751C40.3402 3.97747 40.4025 4.10304 40.4387 4.23705C40.4749 4.37106 40.4843 4.5109 40.4665 4.64856C40.4486 4.78622 40.4039 4.91902 40.3347 5.03938L37.8487 9.34528C37.7089 9.58831 37.4784 9.7659 37.2078 9.83902C36.9372 9.91213 36.6486 9.87477 36.4055 9.73515C36.1625 9.5954 35.9849 9.36486 35.9118 9.09423C35.8387 8.8236 35.8761 8.53501 36.0156 8.29189L38.5017 3.986ZM46.709 11.6223C46.9521 11.4815 47.2411 11.4431 47.5125 11.5154C47.784 11.5877 48.0156 11.7649 48.1564 12.0079C48.2971 12.251 48.3355 12.54 48.2632 12.8114C48.1908 13.0828 48.0137 13.3144 47.7706 13.4552L43.4647 15.9412C43.2218 16.0795 42.9341 16.1162 42.6642 16.0432C42.3944 15.9702 42.1644 15.7935 42.0243 15.5516C41.8842 15.3098 41.8454 15.0223 41.9163 14.7519C41.9873 14.4816 42.1623 14.2502 42.4031 14.1083L46.709 11.6223Z" fill="#FAD808"/>
</g>
</g>
</svg>
