<svg width="49" height="49" viewBox="0 0 49 49" fill="none" xmlns="http://www.w3.org/2000/svg">
<g id="Layer_1" clip-path="url(#clip0_1452_367)">
<path id="Vector" d="M24.1282 48.1269C37.227 48.1269 47.8457 37.5082 47.8457 24.4094C47.8457 11.3106 37.227 0.691895 24.1282 0.691895C11.0293 0.691895 0.410645 11.3106 0.410645 24.4094C0.410645 37.5082 11.0293 48.1269 24.1282 48.1269Z" fill="white"/>
<path id="Vector_2" d="M24.1284 48.4109C10.8975 48.4109 0.129883 37.6432 0.129883 24.4094C0.129883 11.1755 10.8975 0.410889 24.1284 0.410889C37.3592 0.410889 48.1269 11.1785 48.1269 24.4094C48.1269 37.6403 37.3592 48.4079 24.1284 48.4079V48.4109ZM24.1284 0.975876C11.2054 0.975876 0.69487 11.4864 0.69487 24.4094C0.69487 37.3324 11.2084 47.8459 24.1314 47.8459C37.0543 47.8459 47.5679 37.3324 47.5679 24.4094C47.5679 11.4864 37.0513 0.975876 24.1284 0.975876Z" fill="#231F20"/>
<path id="Vector_3" d="M24.1286 46.1928C36.1592 46.1928 45.912 36.44 45.912 24.4094C45.912 12.3787 36.1592 2.62598 24.1286 2.62598C12.098 2.62598 2.34521 12.3787 2.34521 24.4094C2.34521 36.44 12.098 46.1928 24.1286 46.1928Z" fill="#E01E89"/>
<path id="Vector_4" d="M24.188 9.40577C24.4331 8.95138 25.1027 8.78697 25.5063 9.12776C25.6468 9.21744 25.6916 9.38185 25.7365 9.53132C25.6976 9.6479 25.6946 9.77645 25.6348 9.88406C25.4106 10.3115 24.8068 10.5058 24.3912 10.2428C24.1073 10.0814 24.0116 9.68079 24.188 9.40577Z" fill="white"/>
<path id="Vector_5" d="M17.0256 10.192C17.2708 10.1472 17.5458 10.1711 17.7431 10.3355C17.9733 10.5089 18.0151 10.8467 17.8955 11.0948C17.6773 11.5313 17.0764 11.7226 16.6549 11.4685C16.4367 11.3429 16.3082 11.0769 16.365 10.8288C16.4307 10.5059 16.7147 10.2668 17.0286 10.1891L17.0256 10.192Z" fill="white"/>
<path id="Vector_6" d="M24.8875 10.6973L24.9593 10.7062C25.0161 11.6688 25.1446 12.6224 25.2164 13.585C25.2941 14.3024 25.3598 15.0199 25.4256 15.7373C25.4495 15.8718 25.4615 16.0064 25.4555 16.1439C25.031 16.2066 24.6185 16.3352 24.2 16.4219C22.2659 16.9002 20.3318 17.4293 18.5023 18.2334C17.2587 18.7685 16.045 19.3634 14.8463 19.9941C14.6819 20.0719 14.5384 20.1885 14.359 20.2303C13.2799 18.7177 12.1858 17.214 11.0977 15.7104C11.7792 16.1648 12.5176 16.5534 13.3158 16.7686C13.8867 16.939 14.4876 16.9629 15.0795 16.9151C15.0287 16.9061 14.9778 16.8972 14.924 16.8882C15.1452 16.9091 15.3605 16.8404 15.5697 16.7716C16.2752 16.5355 16.894 16.0273 17.2408 15.3666C17.5337 14.8375 17.6473 14.2307 17.6922 13.6358C17.7071 13.0648 17.6682 12.4849 17.5248 11.9289C17.5218 11.896 17.5158 11.8302 17.5128 11.7973C17.9134 12.5656 18.4574 13.2651 19.145 13.7972C19.7937 14.2994 20.6247 14.5864 21.4498 14.5027C21.3153 14.4878 21.1807 14.4758 21.0462 14.4668C21.4528 14.5206 21.8653 14.4549 22.2449 14.2964C23.058 13.9736 23.6828 13.301 24.1223 12.5626C24.463 11.9827 24.7351 11.3549 24.8845 10.7003L24.8875 10.6973Z" fill="white"/>
<path id="Vector_7" d="M10.4162 14.3114C10.7779 14.2247 11.2443 14.434 11.3011 14.8315C11.3877 15.4623 10.5806 15.9137 10.0515 15.6267C9.76453 15.5041 9.62403 15.1424 9.73763 14.8555C9.85421 14.5745 10.1203 14.3652 10.4192 14.3144L10.4162 14.3114Z" fill="white"/>
<path id="Vector_8" d="M26.3494 16.3771C28.2686 16.0214 30.2356 15.8809 32.1816 16.0662C33.2668 16.1768 34.3549 16.395 35.3414 16.8733C35.8735 17.1274 36.3637 17.4712 36.7763 17.8957C37.4608 18.5772 38.0228 19.4113 38.2769 20.3529C38.525 21.2258 38.4712 22.1495 38.3098 23.0314C38.0378 24.4483 37.425 25.7756 36.6806 27.0012C35.7539 28.5407 34.5761 29.9278 33.1771 31.0578C34.1785 31.8619 35.0664 32.8006 35.9123 33.7631C35.2547 34.7377 34.6 35.7122 33.9394 36.6837C32.4417 35.7301 30.8783 34.8842 29.2939 34.083C27.88 34.8124 26.3943 35.3953 24.8667 35.8437C23.8413 36.1486 22.7951 36.3758 21.7458 36.5851C20.6398 36.7973 19.5277 36.9916 18.4007 37.0395C17.4053 37.0843 16.4128 36.893 15.4682 36.5881C14.682 36.331 13.8988 36.0351 13.1993 35.5896C12.6014 35.21 12.0633 34.7227 11.6747 34.1278C11.1456 33.3536 10.8078 32.4419 10.7719 31.5002C10.733 30.445 10.9573 29.3897 11.3787 28.4242C11.9975 27.0132 13.002 25.8055 14.129 24.7712C15.4652 23.5426 17.0047 22.5441 18.6399 21.7669C20.2601 20.9926 21.973 20.4247 23.7158 20.0032C23.5723 20.5114 23.4348 21.0225 23.2943 21.5337C21.4289 22.1465 19.6294 22.9716 17.9942 24.0627C16.4846 25.0821 15.0258 26.3017 14.1529 27.9339C14.9211 29.4794 15.9853 30.9113 17.3873 31.9396C18.7923 32.9799 20.5202 33.536 22.257 33.6406C23.8413 33.7542 25.4227 33.4762 26.9533 33.0756C24.9474 32.3402 22.8848 31.7154 20.7563 31.4613C22.0986 30.3134 23.4767 29.2104 24.9444 28.2239C25.1357 28.1103 25.3121 27.9578 25.5214 27.8801C26.188 27.8681 26.8516 27.9548 27.5033 28.0894C28.445 28.2867 29.3268 28.6783 30.1818 29.1087C30.7109 29.3837 31.231 29.6797 31.7332 30.0055C32.4567 28.2956 32.7735 26.4123 32.6241 24.5589C32.5374 23.4618 32.2833 22.3588 31.7302 21.3992C31.0128 20.1437 29.7543 19.2439 28.3702 18.8702C27.309 18.5713 26.191 18.5563 25.0969 18.643C22.9685 18.8224 20.9028 19.4561 18.9448 20.2931C18.2184 20.607 17.5009 20.9418 16.8014 21.3125C16.0481 21.0853 15.2858 20.891 14.5415 20.6429C16.2873 19.767 18.0659 18.9569 19.8894 18.2574C21.985 17.4532 24.1403 16.7836 26.3494 16.3771Z" fill="white"/>
</g>
<defs>
<clipPath id="clip0_1452_367">
<rect width="48" height="48" fill="white" transform="translate(0.129883 0.410889)"/>
</clipPath>
</defs>
</svg>
