<svg width="51" height="51" viewBox="0 0 51 51" fill="none" xmlns="http://www.w3.org/2000/svg">
<g id="Group 10710">
<path id="Vector" d="M39.2718 27.5307C38.7124 27.5721 38.1427 27.686 37.6196 27.8828C36.8065 28.1884 36.0348 28.5975 35.2321 28.9704C35.2321 28.8357 35.2114 28.7011 35.2321 28.582C35.3926 27.743 35.3098 26.9195 34.9938 26.1478C34.8022 25.6869 34.8954 25.3917 35.1751 25.0188C35.8639 24.1176 36.5061 23.1698 36.7962 22.046C37.2623 20.2644 36.0918 18.98 34.3102 19.4046C33.4246 19.6118 32.5493 19.9692 31.731 20.3783C29.6801 21.4141 27.8622 22.8228 26.0651 24.2367C25.9097 24.361 25.7492 24.475 25.5783 24.5993C25.5109 24.0762 25.5213 23.6049 25.3763 23.1854C25.195 22.652 25.3348 22.2894 25.6611 21.8699C26.3551 20.9894 26.987 20.0572 27.2511 18.9385C27.5877 17.4987 26.8109 16.2609 25.2209 16.4059C24.8376 16.4422 24.4492 16.5147 24.0815 16.639C22.1704 17.2968 20.482 18.3792 18.9128 19.6118C13.2624 24.071 7.65343 28.5768 2.03412 33.0723C0.910254 33.9682 0.226614 35.1387 0.216256 36.5837C0.180002 40.1573 0.20072 43.736 0.205899 47.3096C0.205899 47.988 0.397522 48.6354 0.894715 49.0757C1.37637 49.5055 1.9875 49.7903 2.54167 50.1373H4.98102C5.03281 50.0804 5.10532 50.0286 5.12603 49.9613C5.2089 49.6868 5.38499 49.3657 5.3073 49.1326C5.23997 48.9306 4.88779 48.7338 4.6392 48.6976C4.16272 48.6303 3.66553 48.6872 3.17869 48.6717C2.27235 48.6458 1.70265 48.0657 1.66122 47.1645C1.59907 45.7558 1.59907 45.7506 2.65561 44.8961C8.96373 39.8309 15.2719 34.7658 21.5852 29.7007C21.7198 29.5919 21.8648 29.4883 22.0306 29.3588C22.0772 29.4572 22.1186 29.5246 22.1393 29.6023C22.621 31.6895 24.4751 32.5025 26.2722 32.342C27.8933 32.1918 29.1104 31.2959 30.2394 30.2445C31.2597 29.2915 32.2386 28.292 33.2278 27.3079C33.3624 27.1733 33.4505 26.9972 33.6007 26.7848C34.1134 28.1469 33.6473 29.7525 32.482 30.7313C31.0111 31.9639 29.504 33.1448 28.0072 34.3463C22.1652 39.0334 16.3232 43.7205 10.476 48.3972C10.2792 48.5525 9.99437 48.6406 9.7406 48.6665C9.29002 48.7079 8.82908 48.6872 8.3785 48.6769C7.96935 48.6665 7.59128 48.6976 7.41519 49.1534C7.23392 49.6143 7.51359 49.8784 7.81398 50.1425H24.2938C25.9874 49.8836 27.2977 48.9151 28.5614 47.8534C29.4574 47.1024 30.3793 46.3825 31.2908 45.6523C31.6689 45.3467 32.0625 45.0567 32.4302 44.7356C32.772 44.4352 32.8083 44.0001 32.5597 43.6894C32.3111 43.3735 31.8916 43.3321 31.5135 43.5858C31.4203 43.648 31.3322 43.7256 31.2442 43.7981C29.6853 45.0463 28.1212 46.2945 26.5726 47.553C25.6404 48.3091 24.5787 48.6872 23.3823 48.6872C19.9227 48.6872 16.4579 48.6872 12.9982 48.6872C12.8843 48.6872 12.7652 48.6613 12.5736 48.6406C17.2555 44.8806 21.87 41.1775 26.4846 37.4745C26.5364 37.5366 26.5519 37.547 26.5571 37.5626C26.5882 37.6713 26.6192 37.7801 26.6503 37.8888C26.9818 38.9557 27.6136 39.7585 28.7064 40.121C30.3689 40.6803 31.9382 40.4162 33.3106 39.3752C34.3931 38.5518 35.3667 37.5884 36.387 36.6821C36.5165 36.5681 36.6356 36.4491 36.8221 36.273C37.138 37.8267 36.8013 39.1007 35.7396 40.1417C35.2787 40.5923 34.7401 40.9703 34.248 41.395C33.8803 41.7161 33.8337 42.1564 34.0978 42.4723C34.3672 42.7934 34.7815 42.8245 35.1855 42.5241C35.548 42.2496 35.9002 41.9596 36.2523 41.6695C38.2411 40.0588 38.8833 37.8215 38.0857 35.3925C38.0288 35.2216 38.0857 34.9523 38.1997 34.8072C38.7487 34.0822 39.3546 33.3985 39.8932 32.6683C40.494 31.8552 40.9809 30.9747 41.2036 29.9752C41.447 28.872 40.8151 27.4167 39.2718 27.5255V27.5307ZM14.6659 25.0188C14.6659 24.91 14.7591 24.7805 14.8472 24.708C17.3487 22.7141 19.7466 20.5803 22.5485 19.0058C23.3461 18.5553 24.2161 18.2186 25.0811 17.9182C25.7284 17.6955 26.0444 18.0322 25.8165 18.6847C25.6249 19.2285 25.3711 19.7723 25.0344 20.2385C23.3202 22.6519 21.2692 24.7443 18.9542 26.588C18.3327 27.08 17.6076 27.2769 16.9188 27.3079C15.4221 27.2976 14.5986 26.4326 14.6659 25.0136V25.0188ZM22.8644 26.7797C21.9529 27.5617 20.9999 28.2971 20.0625 29.0481C14.0807 33.8388 8.09883 38.6294 2.11698 43.4201C1.99786 43.5185 1.86838 43.6013 1.67158 43.7464V43.3424C1.67158 41.2448 1.67158 39.1525 1.67158 37.055C1.67158 35.9052 2.08591 34.9419 2.99743 34.2065C6.36901 31.503 9.73542 28.7995 13.1018 26.096C13.1381 26.065 13.1847 26.0494 13.252 26.0183C13.2935 26.1271 13.3452 26.2307 13.3763 26.3343C13.8062 27.8103 14.8834 28.6545 16.4216 28.7736C17.8303 28.8824 19.063 28.4577 20.104 27.5462C21.3107 26.4896 22.4604 25.3658 23.6361 24.2678C23.7397 24.1746 23.8174 24.0503 23.9883 23.8432C24.1385 25.1379 23.7138 26.0546 22.8696 26.7745L22.8644 26.7797ZM28.1264 30.0891C27.4686 30.6277 26.6814 30.8867 25.9563 30.8712C23.9468 30.8712 23.5066 29.7628 23.4963 28.3645C23.4963 28.2609 23.5895 28.1262 23.6827 28.0537C26.3292 25.9354 28.8825 23.6774 31.8501 22.0046C32.6891 21.5333 33.6058 21.1707 34.5174 20.8652C35.2839 20.6062 35.6257 20.9791 35.3667 21.7508C35.1855 22.2946 34.9265 22.8436 34.6002 23.3097C32.7875 25.8941 30.5709 28.1055 28.1315 30.0891H28.1264ZM39.7068 29.8716C39.5152 30.462 39.2355 31.0524 38.873 31.5548C37.0914 34.0563 34.942 36.2108 32.5493 38.1271C31.8605 38.676 31.0577 38.9039 30.1928 38.9143C28.7945 38.9298 28.1264 38.2617 27.9762 36.7184C27.8467 36.4232 28.0124 36.2315 28.2714 36.0347C30.5761 34.2997 32.8497 32.5181 35.1855 30.8246C36.299 30.0166 37.516 29.3537 38.8833 29.0429C39.655 28.872 39.945 29.1206 39.7016 29.8716H39.7068Z" fill="#E01E89"/>
<path id="Vector_2" d="M49.1323 4.09521C49.5622 4.27129 49.8678 4.01747 50.1371 3.72226V1.67655C49.6502 0.516433 48.7543 0.159083 47.5372 0.195337C45.5432 0.262665 43.5389 0.210831 41.545 0.21601C40.2295 0.21601 39.4215 1.024 39.4164 2.33949C39.4164 3.78445 39.4164 5.2346 39.4164 6.67956C39.4164 7.88111 40.0016 8.65279 41.1721 8.99979C41.6227 9.13444 42.0681 9.26393 42.5445 9.40377V9.95272C42.5445 11.7084 42.5445 13.4642 42.5445 15.2199C42.5445 15.5099 42.5342 15.8414 42.6688 16.0744C42.9278 16.5406 42.9019 16.9911 42.8397 17.4831C42.5083 20.0468 41.6744 22.3618 39.7012 24.1538C38.9295 24.8582 38.971 25.7956 39.7582 26.4792C40.2088 26.8728 40.6749 27.2612 41.1462 27.6289C42.2649 28.5042 43.5959 28.152 44.2018 26.8573C45.4966 24.0813 46.0715 21.1395 46.2372 18.1046C46.2735 17.4624 46.2631 16.8254 46.6153 16.2298C46.7758 15.9605 46.7966 15.5772 46.8017 15.2405C46.8225 13.894 46.8121 12.5423 46.8121 11.1957V10.6312C47.0711 10.6934 47.273 10.7399 47.475 10.7917C48.2364 11.0093 48.9407 10.9005 49.5 10.3256C49.7642 10.0563 49.9299 9.69896 50.1423 9.38303V6.55527C49.8937 6.3015 49.6606 6.02698 49.2359 6.1461C48.8527 6.25486 48.6818 6.5138 48.6818 6.90223C48.6818 7.48747 48.6869 8.07271 48.6818 8.65795C48.6714 9.2898 48.3762 9.51765 47.7702 9.34674C45.7141 8.76669 43.658 8.16596 41.6019 7.5859C41.1047 7.44607 40.882 7.14046 40.882 6.63291C40.8872 5.21902 40.882 3.80516 40.882 2.39126C40.882 1.86818 41.0737 1.68173 41.5864 1.68173C43.715 1.68173 45.8436 1.68173 47.9722 1.68173C48.4901 1.68173 48.6662 1.86818 48.6766 2.39126C48.6818 2.63468 48.6869 2.87812 48.6766 3.12153C48.6559 3.53068 48.6921 3.92424 49.1323 4.10033V4.09521ZM44.5696 20.1814C44.2847 22.2427 43.7979 24.247 42.9123 26.1426C42.6429 26.7226 42.4565 26.7796 41.9697 26.3911C41.5398 26.0493 41.1203 25.6919 40.6904 25.3398C41.229 24.7027 41.7832 24.1279 42.239 23.4909C43.425 21.8336 43.9895 19.9328 44.2744 17.9389C44.3261 17.5815 44.3261 17.5815 44.813 17.5919C44.7301 18.462 44.6835 19.3269 44.5644 20.1866L44.5696 20.1814ZM44.0258 10.077C44.0258 10.0149 44.0465 9.95273 44.0724 9.82843C44.4453 9.93719 44.8026 10.0201 45.1444 10.1547C45.2377 10.191 45.3205 10.3671 45.3205 10.481C45.3309 12.0865 45.3361 13.6972 45.3205 15.3027C45.3205 15.7895 45.0616 16.0744 44.6887 16.0847C44.2951 16.0951 44.0258 15.7999 44.0258 15.2924C44.0154 13.5522 44.0258 11.8172 44.0258 10.077Z" fill="#E01E89"/>
</g>
</svg>
