<svg width="35" height="20" viewBox="0 0 35 20" fill="none" xmlns="http://www.w3.org/2000/svg">
<g id="Group">
<path id="Vector" d="M28.1891 2.82091C27.5556 2.0067 26.745 1.34736 25.8189 0.892844C24.8927 0.438323 23.8753 0.20054 22.8436 0.19751H7.22606C3.48653 0.19751 0.443359 3.24068 0.443359 6.98022V13.0093C0.443359 16.7488 3.48653 19.792 7.22606 19.792H22.8436C23.9117 19.7903 24.9643 19.5372 25.9164 19.0531C26.8685 18.5691 27.6933 17.8677 28.324 17.0058L31.8171 12.215C32.2095 11.6779 32.4518 11.046 32.5191 10.3843C32.5864 9.72257 32.4762 9.05486 32.2 8.4498C34.2393 6.20397 34.8302 3.53159 33.5188 2.22026C32.3914 1.09207 30.23 1.37167 28.1891 2.82091ZM30.5993 11.3264L27.1062 16.1173C26.6156 16.7877 25.9741 17.3332 25.2336 17.7098C24.4931 18.0863 23.6744 18.2833 22.8436 18.2847H7.22606C4.31704 18.2847 1.95063 15.9183 1.95063 13.0093V6.98022C1.95063 4.07119 4.31704 1.70478 7.22606 1.70478H22.8436C23.6744 1.706 24.4932 1.90287 25.2338 2.27942C25.9743 2.65598 26.6158 3.20164 27.1062 3.87223L30.2707 8.21241C29.8219 8.59753 29.3291 8.92816 28.8026 9.19741C28.4499 7.92376 27.2931 6.98022 25.9086 6.98022C25.6991 6.98022 25.4942 7.00207 25.2967 7.04352C25.2899 7.04503 25.2839 7.0488 25.2764 7.04955C24.6027 7.19477 23.9991 7.56613 23.5657 8.10191C23.1323 8.63769 22.8953 9.30564 22.8941 9.99475C22.8941 11.6573 24.2461 13.0093 25.9086 13.0093C27.2765 13.0093 28.4213 12.0876 28.7883 10.8366C29.5842 10.5355 30.3276 10.1108 30.9912 9.57799C31.0491 9.88072 31.0443 10.1921 30.9769 10.4929C30.9095 10.7937 30.7809 11.0774 30.5993 11.3264ZM26.3322 9.39787C26.1069 9.17555 26.0571 8.82812 26.0729 8.50406C26.712 8.57415 27.2305 9.03914 27.3737 9.6526C26.9155 9.69556 26.547 9.61266 26.3322 9.39787ZM26.8612 11.1531C26.5942 11.3771 26.2572 11.5005 25.9086 11.502C25.0774 11.502 24.4014 10.826 24.4014 9.99475C24.4014 9.71063 24.485 9.44837 24.6222 9.22077C24.7194 9.71364 24.9365 10.1379 25.2703 10.4673C25.6788 10.8757 26.2259 11.0996 26.8612 11.1531ZM31.3454 7.12868L29.083 4.02597C30.5465 2.99651 31.952 2.78549 32.4525 3.2859C33.0335 3.8662 32.662 5.51967 31.3454 7.12868Z" fill="#DE0F7E"/>
<path id="Vector_2" d="M8.23582 6.60057C8.03595 6.60057 7.84426 6.67997 7.70292 6.8213C7.56159 6.96264 7.48219 7.15433 7.48219 7.3542V10.108L5.2341 6.92011C5.14184 6.7894 5.01038 6.69144 4.85874 6.64041C4.7071 6.58938 4.54316 6.58794 4.39064 6.63628C4.23813 6.68463 4.10496 6.78026 4.01041 6.90933C3.91587 7.0384 3.86485 7.19421 3.86475 7.3542V12.4849C3.86475 12.6848 3.94415 12.8765 4.08548 13.0178C4.22681 13.1592 4.4185 13.2386 4.61838 13.2386C4.81826 13.2386 5.00995 13.1592 5.15128 13.0178C5.29261 12.8765 5.37201 12.6848 5.37201 12.4849V9.73117L7.6201 12.919C7.71236 13.0498 7.84383 13.1477 7.99547 13.1987C8.1471 13.2498 8.31105 13.2512 8.46356 13.2029C8.61607 13.1545 8.74924 13.0589 8.84379 12.9298C8.93834 12.8007 8.98936 12.6449 8.98946 12.4849V7.3542C8.98946 7.15433 8.91006 6.96264 8.76872 6.8213C8.62739 6.67997 8.4357 6.60057 8.23582 6.60057ZM12.9483 11.7306H11.1818V10.6725H12.7041C12.904 10.6725 13.0957 10.5931 13.237 10.4517C13.3784 10.3104 13.4578 10.1187 13.4578 9.91882C13.4578 9.71894 13.3784 9.52725 13.237 9.38592C13.0957 9.24459 12.904 9.16519 12.7041 9.16519H11.1825V8.10784H12.8292C13.0291 8.10784 13.2208 8.02844 13.3621 7.8871C13.5035 7.74577 13.5829 7.55408 13.5829 7.3542C13.5829 7.15433 13.5035 6.96264 13.3621 6.8213C13.2208 6.67997 13.0291 6.60057 12.8292 6.60057H10.4274C10.2275 6.60057 10.0358 6.67997 9.89449 6.8213C9.75316 6.96264 9.67376 7.15433 9.67376 7.3542L9.67526 7.36325L9.67376 12.4842C9.67376 12.6841 9.75316 12.8758 9.89449 13.0171C10.0358 13.1584 10.2275 13.2378 10.4274 13.2378H12.9475C13.0465 13.2379 13.1445 13.2184 13.236 13.1806C13.3274 13.1428 13.4105 13.0873 13.4806 13.0174C13.5506 12.9474 13.6061 12.8644 13.644 12.7729C13.682 12.6815 13.7015 12.5835 13.7016 12.4846C13.7016 12.3856 13.6822 12.2876 13.6443 12.1961C13.6065 12.1047 13.551 12.0216 13.4811 11.9516C13.4111 11.8815 13.3281 11.826 13.2367 11.7881C13.1453 11.7501 13.0473 11.7306 12.9483 11.7306ZM21.3174 6.6586C21.2216 6.6339 21.1218 6.62831 21.0238 6.64218C20.9258 6.65604 20.8314 6.68907 20.7462 6.73939C20.661 6.78971 20.5865 6.85633 20.527 6.93544C20.4675 7.01455 20.4242 7.10461 20.3995 7.20046L19.6888 9.96253L18.633 7.0844C18.486 6.82214 18.2441 6.5968 17.9245 6.5968C17.605 6.5968 17.3601 6.81988 17.2169 7.08365L16.161 9.96178L15.4504 7.19971C15.4005 7.00613 15.2758 6.84029 15.1036 6.73867C14.9315 6.63705 14.726 6.60798 14.5324 6.65785C14.3389 6.70772 14.173 6.83244 14.0714 7.00459C13.9698 7.17673 13.9407 7.38219 13.9906 7.57577L15.3049 12.6816C15.3444 12.8377 15.4329 12.977 15.5574 13.0791C15.6819 13.1811 15.8359 13.2405 15.9967 13.2485C16.1574 13.2565 16.3166 13.2127 16.4506 13.1236C16.5846 13.0344 16.6866 12.9046 16.7413 12.7532L17.9238 9.53145L19.1062 12.7532C19.1594 12.8979 19.2557 13.0229 19.3821 13.1111C19.5085 13.1994 19.659 13.2468 19.8131 13.2469L19.8508 13.2461C20.0114 13.2385 20.1653 13.1795 20.2898 13.0779C20.4144 12.9763 20.503 12.8374 20.5427 12.6816L21.857 7.57577C21.882 7.48012 21.8879 7.38045 21.8744 7.28251C21.8608 7.18456 21.828 7.09027 21.7778 7.00504C21.7277 6.91982 21.6612 6.84534 21.5822 6.78588C21.5032 6.72643 21.4132 6.68317 21.3174 6.6586Z" fill="#DE0F7E"/>
</g>
</svg>
