<svg width="24" height="28" viewBox="0 0 24 28" fill="none" xmlns="http://www.w3.org/2000/svg">
<path d="M22.5283 19.5422C21.6711 18.819 20.9823 17.9173 20.5101 16.9C20.0379 15.8828 19.7937 14.7746 19.7947 13.6531V10.4495C19.7947 6.40582 16.7909 3.05853 12.9001 2.49777V1.25675C12.9001 0.951998 12.7791 0.659722 12.5636 0.444226C12.3481 0.22873 12.0558 0.107666 11.751 0.107666C11.4463 0.107666 11.154 0.22873 10.9385 0.444226C10.723 0.659722 10.6019 0.951998 10.6019 1.25675V2.49777C6.70998 3.05853 3.70741 6.40582 3.70741 10.4495V13.6531C3.70786 14.7769 3.46246 15.8872 2.98844 16.9061C2.51442 17.925 1.82325 18.8279 0.963389 19.5514C0.652629 19.8193 0.431135 20.1757 0.328569 20.573C0.226004 20.9702 0.247263 21.3893 0.3895 21.7742C0.531737 22.159 0.788161 22.4912 1.12443 22.7263C1.4607 22.9613 1.86077 23.0881 2.27105 23.0894H21.231C22.3399 23.0894 23.2419 22.1874 23.2419 21.0785C23.2419 20.4902 22.9857 19.934 22.5283 19.5422ZM11.751 27.6858C12.7439 27.6844 13.7059 27.3408 14.4749 26.7129C15.2439 26.0849 15.773 25.211 15.9728 24.2385H7.52928C7.72912 25.211 8.25813 26.0849 9.02716 26.7129C9.79619 27.3408 10.7582 27.6844 11.751 27.6858Z" fill="#DE0F7E"/>
</svg>
