<svg width="45" id="Layer_1" data-name="Layer 1" xmlns="http://www.w3.org/2000/svg" viewBox="0 0 120 120.38"><defs></defs><path class="orderReport1" d="M1149.52,1974.43l-9.71-9.73c-1.72-1.71-2.62-1.71-4.35,0l-12.09,12c-.29.29-.6.55-1.09,1v-1.54c0-6.22,0-12.45,0-18.68a4,4,0,0,0-1.26-3.13c-6.61-6.58-13.17-13.21-19.76-19.81-.52-.52-1.14-.93-1.71-1.4h-67.25a3.31,3.31,0,0,0-1.41,3.13q0,57,0,114.11c0,2.51.62,3.13,3.1,3.13h85.1a9.26,9.26,0,0,0,1.18,0,1.92,1.92,0,0,0,1.85-1.67,11.36,11.36,0,0,0,.13-1.75q0-21.39,0-42.78a2.62,2.62,0,0,1,.86-2q13.2-13.14,26.35-26.33C1151.37,1977,1151.37,1976.28,1149.52,1974.43ZM1101.41,1941l13.29,13.26h-13.29ZM1118,2049.24H1035.2v-111.8h62v1.21q0,8.58,0,17.16c0,2.16.57,2.73,2.7,2.73H1118c0,.47.06.85.06,1.23,0,7,0,14.11,0,21.16a2.91,2.91,0,0,1-.77,1.8c-6.42,6.49-12.9,12.92-19.33,19.41a6.84,6.84,0,0,0-1.44,2.35c-.85,2.27-1.61,4.58-2.31,6.9a1.26,1.26,0,0,1-1.47,1q-21.52,0-43,0a6.85,6.85,0,0,0-1.51.13,1.92,1.92,0,0,0-1.6,2.13,2,2,0,0,0,1.77,1.89,6.93,6.93,0,0,0,1.29,0h42.61c0,2.14-2.19,4-.36,6.31h-42.25a7.23,7.23,0,0,0-1.4.06,1.88,1.88,0,0,0-1.65,1.86,1.86,1.86,0,0,0,1.47,2.1,5.51,5.51,0,0,0,1.51.16h53.85a6.58,6.58,0,0,0,1.17-.08,2,2,0,0,0-.22-4.08c-2,0-3.91,0-5.87,0a24.19,24.19,0,0,1-3.58-.18c.37-.15.73-.32,1.11-.44,4.57-1.52,9.14-3,13.69-4.56a7.31,7.31,0,0,0,2.44-1.52c2-1.8,3.84-3.69,5.8-5.6Zm-18.41-40.62,6.12,6.13-9.2,3.09C1097.6,2014.54,1098.63,2011.48,1099.58,2008.62Zm10.42,3.54-7.89-8,26.05-26.22,8.1,8.09Zm29.38-29.36-7.85-7.86c2.08-2,4.19-4.11,6.22-6.09l7.83,7.81Z" transform="translate(-1030.9 -1933.15)"></path><path class="orderReport1" d="M1104.93,2033.51a6.74,6.74,0,0,0-1.62-.15h-53.59a6.31,6.31,0,0,0-1.63.16,1.87,1.87,0,0,0-1.48,2.1c.07,1.26,1,1.92,2.59,1.93h54.18a6.51,6.51,0,0,0,1.4-.07,1.9,1.9,0,0,0,1.64-1.87A1.87,1.87,0,0,0,1104.93,2033.51Z" transform="translate(-1030.9 -1933.15)"></path><path class="orderReport1" d="M1048.68,2006.14c.31,0,.63,0,.94,0h27.6a6.38,6.38,0,0,0,1.51-.13,1.87,1.87,0,0,0,1.54-2,1.92,1.92,0,0,0-1.62-2,5.53,5.53,0,0,0-1.29-.08h-13.85c-4.9,0-9.79,0-14.68,0a2.07,2.07,0,1,0-.15,4.14Z" transform="translate(-1030.9 -1933.15)"></path></svg>