<svg width="25" height="28" viewBox="0 0 25 28" fill="none" xmlns="http://www.w3.org/2000/svg">
<g id="Group">
<path id="Vector" d="M24.1628 12.2407C24.1628 10.9278 23.5182 9.76611 22.5288 9.05269C22.9099 7.89395 22.7486 6.57518 21.9769 5.51299C21.2051 4.4508 20.0007 3.88992 18.781 3.89427C18.4082 2.73286 17.5026 1.76072 16.2539 1.355C15.0052 0.949287 13.7012 1.2034 12.7169 1.92395C11.7327 1.20345 10.4286 0.949287 9.17995 1.355C7.93127 1.76072 7.02565 2.73281 6.65288 3.89427C5.43312 3.88987 4.22876 4.4508 3.45698 5.51299C2.68526 6.57518 2.52397 7.89395 2.90507 9.05269C1.91569 9.76605 1.271 10.9278 1.271 12.2407C1.271 13.5537 1.91569 14.7154 2.90507 15.4288C2.52397 16.5875 2.68526 17.9063 3.45698 18.9685C4.22871 20.0307 5.43312 20.5916 6.65288 20.5872C7.02565 21.7486 7.93127 22.7207 9.17995 23.1265C10.4286 23.5322 11.7327 23.2781 12.7169 22.5575C13.7012 23.278 15.0052 23.5322 16.2539 23.1265C17.5026 22.7207 18.4082 21.7486 18.781 20.5872C20.0007 20.5916 21.2051 20.0307 21.9769 18.9685C22.7486 17.9063 22.9099 16.5875 22.5288 15.4288C23.5182 14.7154 24.1628 13.5537 24.1628 12.2407Z" stroke="#DE0F7E" stroke-width="1.57152" stroke-miterlimit="10"/>
<path id="Vector_2" d="M12.717 19.3649C16.6516 19.3649 19.8412 16.1753 19.8412 12.2407C19.8412 8.30608 16.6516 5.11646 12.717 5.11646C8.7824 5.11646 5.59277 8.30608 5.59277 12.2407C5.59277 16.1753 8.7824 19.3649 12.717 19.3649Z" stroke="#DE0F7E" stroke-width="1.57152" stroke-miterlimit="10"/>
<path id="Vector_3" d="M9.26761 12.3565L11.4901 14.5789L15.935 10.134M18.7811 20.5872L21.599 26.411H16.3207L14.8218 23.3132M6.65296 20.5872L3.83496 26.411H9.11329L10.6122 23.3132" stroke="#DE0F7E" stroke-width="1.57152" stroke-miterlimit="10"/>
</g>
</svg>
