<svg width="42" height="42" viewBox="0 0 42 42" fill="none" xmlns="http://www.w3.org/2000/svg">
<path id="Vector" d="M36.4302 41.5031C35.4286 41.2527 34.7171 40.5731 34.0136 39.8735C32.2688 38.1406 30.5001 36.4236 28.7433 34.7026C28.6399 34.5992 28.5326 34.4959 28.4452 34.3767C28.2504 34.1143 28.2743 33.8401 28.4929 33.6135C28.7115 33.383 28.9818 33.3472 29.256 33.534C29.3753 33.6175 29.4826 33.7209 29.5859 33.8242C31.5454 35.7439 33.5009 37.6676 35.4644 39.5834C36.2752 40.3743 37.1456 40.5055 37.9604 39.9808C39.0017 39.3091 39.2283 37.9538 38.3698 37.0794C36.7879 35.4657 35.1583 33.8957 33.5367 32.3218C33.4452 32.2343 33.2425 32.2065 33.1074 32.2304C29.2242 32.9855 25.3013 33.0849 21.3664 32.8584C19.0016 32.7232 16.6645 32.4053 14.3831 31.7335C12.7614 31.2566 11.6366 30.2391 10.9927 28.685C10.5277 27.5642 10.1144 26.4195 9.60958 25.3185C8.81863 23.6015 9.49034 22.3932 10.6787 21.4473C11.2392 20.9982 11.8751 20.6524 12.5706 20.1993C12.4713 20.1357 12.3441 20.08 12.2527 19.9926C10.9768 18.7525 9.71291 17.5005 8.43309 16.2684C8.25821 16.0975 8.03564 15.9464 7.80909 15.8709C5.60319 15.1078 3.67948 13.8677 1.94258 12.3375C0.706476 11.2524 0.64288 9.53541 1.80346 8.31124C3.25022 6.78897 4.72082 5.29055 6.21527 3.812C7.4474 2.59179 9.1684 2.67526 10.329 3.96303C10.5516 4.20945 10.7741 4.46383 10.9848 4.72218C11.2392 5.03617 11.2312 5.38991 10.9848 5.62044C10.7105 5.87481 10.3727 5.84301 10.0706 5.5171C9.84408 5.27067 9.63739 5.00835 9.41482 4.75795C8.75106 4.01072 7.79319 3.95906 7.08571 4.67051C5.60318 6.16098 4.13258 7.65941 2.6739 9.16975C2.01412 9.85338 2.03797 10.7954 2.74147 11.4114C4.27964 12.7588 5.96089 13.8797 7.88857 14.611C8.21846 14.7382 8.45297 14.7461 8.67953 14.4401C8.78684 14.297 8.96967 14.2095 8.92595 14.138C7.78524 12.9337 6.64452 11.7294 5.50381 10.5251C5.39252 10.4098 5.27328 10.2985 5.18982 10.1634C5.03083 9.90505 5.0666 9.64273 5.27726 9.43208C5.49189 9.22142 5.75025 9.18168 6.00859 9.35656C6.13976 9.444 6.25898 9.55927 6.37027 9.67055C7.54675 10.8192 8.71927 11.9718 9.84408 13.0768C10.3012 12.6515 10.7344 12.2461 11.2471 11.7691C11.0603 11.6181 10.8735 11.4909 10.7105 11.3319C9.68509 10.3343 8.66362 9.33271 7.64215 8.33111C7.54676 8.2397 7.45137 8.14431 7.37188 8.03699C7.1652 7.75877 7.18507 7.48055 7.42752 7.24207C7.65804 7.01552 7.9323 7.01155 8.19462 7.1904C8.31386 7.27387 8.4172 7.38118 8.52451 7.48055C9.69702 8.63318 10.8735 9.78184 12.046 10.9345C12.0977 10.9027 12.1374 10.8868 12.1613 10.859C12.8091 10.2349 12.821 10.227 12.4594 9.39631C12.2408 8.89551 11.9784 8.41458 11.736 7.92571C11.5174 7.4885 11.5889 7.11489 11.9228 6.95193C12.2487 6.79294 12.5905 6.92411 12.8051 7.34144C13.1509 8.01712 13.5047 8.69678 13.7829 9.40028C13.9538 9.83749 14.1883 10.1873 14.5301 10.5052C17.0301 12.8105 19.3871 15.2549 21.5373 17.894C21.74 18.1444 21.9467 18.2756 22.2806 18.2398C22.7416 18.1881 23.2107 18.1762 23.7512 18.1444C23.6041 17.9457 23.4849 17.7867 23.3696 17.6317C21.4579 15.0601 19.7806 12.3534 18.6796 9.32079C18.2225 8.06084 17.8847 6.77307 17.9006 5.41773C17.9165 4.2333 18.2941 3.22773 19.2996 2.50833C19.864 2.10292 20.4125 1.66969 20.9372 1.21658C21.8712 0.409738 22.9324 0.270628 24.093 0.540901C25.7941 0.938361 27.2528 1.82072 28.636 2.84219C32.0939 5.40183 34.888 8.58946 37.2966 12.1269C38.7672 14.2851 40.0312 16.5585 40.8738 19.0427C41.2593 20.1714 41.5415 21.3241 41.5415 22.5244C41.5415 23.7685 41.1599 24.8376 40.0828 25.561C39.741 25.7915 39.5144 26.0896 39.3674 26.4871C39.0812 27.2621 38.7354 28.0173 38.4373 28.7884C37.869 30.2629 36.8475 31.2288 35.3173 31.6501C35.1623 31.6938 35.0152 31.7534 34.7251 31.9482C34.8562 32.0118 35.0112 32.0475 35.1106 32.1429C36.4143 33.4108 37.7179 34.6827 39.0097 35.9585C39.9477 36.8807 40.373 37.9657 39.9517 39.2694C39.6257 40.271 38.9302 40.9387 37.9564 41.3243C37.7974 41.3878 37.6345 41.4435 37.4755 41.5031H36.4302ZM40.3491 22.433C40.2816 21.9441 40.2458 21.491 40.1544 21.0459C39.7847 19.2652 39.0693 17.6158 38.2187 16.022C36.462 12.7191 34.2282 9.76197 31.6249 7.07911C29.9436 5.34619 28.1272 3.77225 26.0008 2.59577C25.1781 2.14266 24.3196 1.78098 23.3855 1.63392C22.3482 1.47493 21.6963 1.91214 21.4817 2.92963C21.4181 3.23965 21.3982 3.56557 21.4062 3.88354C21.4459 5.43363 21.9587 6.86846 22.5628 8.26752C23.9142 11.3955 25.8061 14.1897 27.9762 16.801C29.9357 19.1539 32.0899 21.3002 34.6575 22.9974C35.7068 23.6929 36.8078 24.2931 38.0637 24.5395C39.1567 24.7581 39.9358 24.4084 40.1782 23.5419C40.2816 23.1723 40.2975 22.7828 40.3451 22.429L40.3491 22.433ZM26.4142 21.2804C25.8856 20.6842 25.4444 20.1555 24.9674 19.6587C24.8402 19.5276 24.6057 19.4282 24.4269 19.4322C23.3736 19.464 22.3164 19.5077 21.2631 19.5872C18.9936 19.7541 16.7519 20.088 14.5818 20.7955C13.3576 21.1969 12.1811 21.6977 11.2074 22.58C10.2415 23.4505 10.2455 24.4243 11.2074 25.2867C11.9466 25.9505 12.8131 26.3837 13.7233 26.7454C15.953 27.6238 18.2821 28.0451 20.655 28.2876C24.2679 28.6612 27.8609 28.5459 31.4381 27.9299C32.388 27.7669 33.3181 27.5165 34.3395 27.286C33.5406 26.8527 32.8451 26.4672 32.1376 26.1055C31.9746 26.0221 31.756 25.9783 31.5812 26.0101C29.566 26.3798 27.535 26.6143 25.4881 26.6023C23.779 26.5904 22.0699 26.4672 20.3648 26.3917C20.3529 26.3917 20.337 26.3917 20.3251 26.3877C19.8998 26.3162 19.6454 26.0419 19.6852 25.7041C19.7289 25.3424 20.0548 25.1357 20.492 25.1635C21.6526 25.243 22.8092 25.3543 23.9698 25.3702C25.2536 25.3901 26.5374 25.3503 27.8172 25.2828C28.6718 25.2351 29.5263 25.096 30.4285 24.9887C29.5064 24.1778 28.6519 23.4147 27.7854 22.6635C27.7059 22.592 27.5708 22.5641 27.4555 22.5562C23.8466 22.3177 20.2734 22.4966 16.748 23.367C16.2034 23.5022 15.6748 23.689 15.1382 23.8559C15.1422 23.8996 15.1462 23.9394 15.1502 23.9831C15.2813 24.0347 15.4085 24.0904 15.5437 24.1301C16.2352 24.3289 16.9308 24.5117 17.6224 24.7224C18 24.8376 18.155 25.1278 18.0635 25.4577C17.9682 25.7955 17.6939 25.9624 17.3203 25.867C16.5095 25.6564 15.6907 25.4577 14.8958 25.1874C14.6017 25.088 14.2996 24.8495 14.1327 24.5912C13.6438 23.84 14.0492 22.9497 14.9713 22.6397C17.6144 21.7494 20.345 21.3797 23.1192 21.2883C24.1805 21.2525 25.2456 21.2843 26.4102 21.2843L26.4142 21.2804ZM11.6644 27.1071C11.8632 27.588 12.0102 27.9537 12.1652 28.3194C12.666 29.4919 13.5444 30.2192 14.7607 30.573C17.4356 31.348 20.178 31.666 22.9483 31.7017C24.9913 31.7296 27.0382 31.658 29.0772 31.5467C31.132 31.4355 33.1511 31.0618 35.1225 30.4418C36.617 29.9688 37.2132 28.7923 37.6504 27.3814C37.1655 27.5364 36.7362 27.6715 36.3109 27.8106C35.6154 28.0372 34.9278 28.2995 34.2203 28.4903C31.8196 29.154 29.3673 29.4998 26.8792 29.6389C23.7711 29.8098 20.6828 29.6469 17.6184 29.0865C15.5794 28.7129 13.5921 28.1644 11.6565 27.1031L11.6644 27.1071ZM20.2774 18.2756C18.2027 15.7994 15.9292 13.4583 13.6319 11.324C12.1732 12.6952 10.7463 14.0426 9.26378 15.4417C10.7821 16.8844 12.2169 18.2597 13.6676 19.6229C13.7551 19.7024 13.9578 19.7104 14.0929 19.6786C16.1478 19.2215 18.1987 18.7485 20.2774 18.2756ZM37.8252 25.7558C37.4755 25.6524 37.1694 25.5769 36.8713 25.4736C35.0232 24.8336 33.4333 23.7526 31.9548 22.5085C27.7099 18.9473 24.3474 14.6825 21.8871 9.71427C21.116 8.15623 20.504 6.5346 20.2615 4.7977C20.1979 4.35651 20.19 3.90341 20.1502 3.42646C20.0707 3.47018 20.023 3.49403 19.9833 3.52185C19.1526 4.09022 18.9896 4.9527 19.1248 5.83109C19.2877 6.90423 19.5182 7.9893 19.876 9.01077C20.7981 11.6539 22.2488 14.0267 23.8863 16.2803C26.0565 19.2732 28.5167 21.9918 31.5056 24.1977C32.7139 25.088 33.9818 25.879 35.4524 26.2725C36.307 26.499 37.1178 26.507 37.8252 25.7518V25.7558Z" fill="#E01E89"/>
</svg>
