<svg width="23" height="27" viewBox="0 0 23 27" fill="none" xmlns="http://www.w3.org/2000/svg">
<path id="Vector" d="M11.1102 0.876709C15.0815 0.876709 18.2769 4.00173 18.2769 7.85977V9.8441C20.5059 10.5398 22.1299 12.5576 22.1299 14.9676V21.3565C22.1299 24.3401 19.6564 26.7591 16.6069 26.7591H5.65421C2.6034 26.7591 0.129883 24.3401 0.129883 21.3565V14.9676C0.129883 12.5576 1.75523 10.5398 3.98284 9.8441V7.85977C3.99599 4.00173 7.19145 0.876709 11.1102 0.876709ZM11.1233 15.6093C10.4921 15.6093 9.97926 16.1109 9.97926 16.7281V19.5831C9.97926 20.2132 10.4921 20.7148 11.1233 20.7148C11.7677 20.7148 12.2805 20.2132 12.2805 19.5831V16.7281C12.2805 16.1109 11.7677 15.6093 11.1233 15.6093ZM11.1365 3.12724C8.467 3.12724 6.29725 5.2363 6.2841 7.83405V9.56503H15.9757V7.85977C15.9757 5.24916 13.8059 3.12724 11.1365 3.12724Z" fill="#DE0F7E"/>
</svg>
