<svg width="49" height="56" viewBox="0 0 49 56" fill="none" xmlns="http://www.w3.org/2000/svg">
<g id="payment">
<g id="Group">
<g id="Group 10576">
<path id="Vector" fill-rule="evenodd" clip-rule="evenodd" d="M28.4097 15.6694C27.3531 13.8391 30.6568 9.95568 35.7884 6.99224C40.9175 4.03119 45.9341 3.11122 46.9906 4.94152C47.5752 5.95489 48.1596 6.96827 48.7466 7.98403C49.8031 9.81194 46.4994 13.6954 41.3679 16.6588C36.2364 19.6198 31.2221 20.5398 30.1657 18.7119C29.5812 17.6961 28.9942 16.6828 28.4097 15.6694Z" fill="#FE9923"/>
<path id="Vector_2" fill-rule="evenodd" clip-rule="evenodd" d="M35.7884 6.99224C40.9175 4.03119 45.9341 3.11122 46.9906 4.94152C48.0471 6.76943 44.7434 10.6528 39.6119 13.6163C34.4804 16.5797 29.4662 17.4973 28.4097 15.6694C27.3531 13.8391 30.6568 9.95568 35.7884 6.99224Z" fill="#FECD3D"/>
<path id="Vector_3" fill-rule="evenodd" clip-rule="evenodd" d="M36.6817 8.53977C40.7639 6.18478 44.5276 5.06367 45.0906 6.03627C45.6536 7.01135 42.8003 9.71129 38.718 12.0686C34.6358 14.426 30.8697 15.5472 30.3091 14.5721C29.7462 13.5971 32.5994 10.8971 36.6817 8.53977Z" fill="#FEA832"/>
<path id="Vector_4" d="M46.6075 10.0782L47.5418 11.6976C47.7646 11.4245 47.9659 11.1562 48.1383 10.8926L47.4005 9.61816L46.6075 10.0782ZM45.8073 13.4896C45.5758 13.6964 45.3402 13.8984 45.1006 14.0958L44.2094 12.5506L45.0023 12.0954L45.8073 13.4896ZM43.1625 15.5356C42.9099 15.7077 42.6543 15.8754 42.3959 16.0387L41.5454 14.5654L42.3384 14.1102L43.1625 15.5356ZM40.3188 17.2365C40.0433 17.3826 39.7702 17.5192 39.4995 17.6533L38.6729 16.2255L39.4683 15.7655L40.3188 17.2365ZM37.2835 18.6092C36.9928 18.7189 36.6996 18.8219 36.4043 18.9183L35.5969 17.524L36.3922 17.0665L37.2835 18.6092ZM33.9846 19.5243C33.6373 19.5818 33.3042 19.6202 32.9903 19.6393L32.2549 18.3648L33.0502 17.9049L33.9846 19.5243Z" fill="#C85929"/>
</g>
<path id="Vector_5" fill-rule="evenodd" clip-rule="evenodd" d="M25.4211 23.1207C26.5122 21.1883 23.1001 17.0806 17.8 13.9504C12.5024 10.8176 7.32096 9.84763 6.22981 11.78C5.62604 12.8512 5.02236 13.925 4.41612 14.9963C3.32488 16.9286 6.7371 21.0364 12.0372 24.1666C17.3373 27.2993 22.5162 28.2693 23.6074 26.337C24.2135 25.2658 24.8172 24.1919 25.4211 23.1207Z" fill="#FE9923"/>
<path id="Vector_6" fill-rule="evenodd" clip-rule="evenodd" d="M17.8525 13.7897C12.5905 10.816 7.44402 9.89526 6.36021 11.7295C5.27885 13.5661 8.66801 17.463 13.93 20.4343C19.1943 23.4079 24.3409 24.3287 25.4222 22.4945C26.5061 20.6602 23.1169 16.761 17.8525 13.7897Z" fill="#FECD3D"/>
<path id="Vector_7" fill-rule="evenodd" clip-rule="evenodd" d="M16.851 15.1357C12.598 12.7318 8.72091 11.667 8.19421 12.758C7.6674 13.8464 10.6905 16.6804 14.9458 19.0815C19.2012 21.4853 23.0783 22.55 23.605 21.4591C24.1294 20.3709 21.1064 17.5395 16.851 15.1357Z" fill="#FEA832"/>
<path id="Vector_8" d="M6.68521 17.1168L5.76909 18.8469C5.55061 18.5551 5.35565 18.2685 5.18652 17.9895L5.90768 16.6254L6.68521 17.1168ZM7.46977 20.7613C7.69674 20.9822 7.92778 21.1981 8.16273 21.4088L9.03654 19.7606L8.25901 19.2718L7.46977 20.7613ZM10.0631 22.9495C10.3118 23.1322 10.5632 23.3106 10.8172 23.4845L11.6511 21.9105L10.8712 21.4242L10.0631 22.9495ZM12.8515 24.7666C13.118 24.9188 13.3866 25.0664 13.6573 25.2094L14.4654 23.684L13.6855 23.1927L12.8515 24.7666ZM15.8301 26.2306C16.1149 26.3485 16.4024 26.4586 16.6922 26.5608L17.4815 25.0713L16.7017 24.585L15.8301 26.2306ZM19.0624 27.2108C19.4055 27.2696 19.7296 27.3106 20.0373 27.3311L20.7584 25.9695L19.9809 25.4782L19.0624 27.2108Z" fill="#C85929"/>
<path id="Vector_9" fill-rule="evenodd" clip-rule="evenodd" d="M25.5131 31.1141C24.7416 29.7762 27.1579 26.9338 30.9138 24.7648C34.6697 22.5975 38.3398 21.9242 39.113 23.2621C39.5417 24.0042 39.9702 24.7465 40.3983 25.489C41.1716 26.8286 38.7535 29.671 34.9994 31.84C31.2435 34.0073 27.5717 34.6806 26.7984 33.341C26.3703 32.5985 25.9419 31.8562 25.5131 31.1141Z" fill="#FE9923"/>
<path id="Vector_10" fill-rule="evenodd" clip-rule="evenodd" d="M30.9138 24.7648C34.6697 22.5975 38.3398 21.9242 39.113 23.2621C39.8863 24.6017 37.4683 27.4441 33.7124 29.6131C29.9582 31.7804 26.2865 32.4537 25.5131 31.1141C24.7416 29.7763 27.1579 26.9339 30.9138 24.7648Z" fill="#FECD3D"/>
<path id="Vector_11" fill-rule="evenodd" clip-rule="evenodd" d="M31.5672 25.8975C34.5551 24.1721 37.3115 23.3532 37.7219 24.0651C38.1339 24.7788 36.0456 26.7549 33.0576 28.4803C30.0697 30.204 27.315 31.0246 26.9029 30.3127C26.4909 29.599 28.5793 27.6229 31.5672 25.8975Z" fill="#FEA832"/>
<path id="Vector_12" d="M38.8319 27.0232L39.5175 28.2085C39.6722 28.0195 39.8174 27.8229 39.9524 27.6193L39.4141 26.6865L38.8319 27.0232ZM38.248 29.5183C38.0784 29.6702 37.9054 29.8181 37.729 29.962L37.0767 28.8328L37.6588 28.4996L38.248 29.5183ZM36.3122 31.0176C36.1264 31.1431 35.9388 31.2659 35.7493 31.3858L35.1269 30.3074L35.709 29.9725L36.3122 31.0176ZM34.2291 32.2625C34.0308 32.3667 33.8308 32.4679 33.6294 32.5659L33.0261 31.5208L33.6065 31.1841L34.2291 32.2625ZM32.0074 33.2673C31.7942 33.3462 31.5796 33.4216 31.3639 33.4935L30.7747 32.4712L31.3551 32.138L32.0074 33.2673ZM29.5946 33.9371C29.3386 33.9792 29.0949 34.0055 28.8669 34.0195L28.3286 33.0867L28.909 32.75L29.5946 33.9371Z" fill="#C85929"/>
<g id="Vector_13">
<path d="M21.1572 0V1.90378H23.1616V3.55656H21.1572V5.46357H19.4171V3.55656H17.4091V1.90378H19.4171V0H21.1572ZM14.9574 30.5364V32.4402H16.9652V34.0929H14.9574V36H13.2172V34.0929H11.2129V32.4402H13.2172V30.5364H14.9574Z" fill="#FEA832"/>
<path d="M46.2051 20.4662V18.5625H44.4648V20.4662H42.4604V22.1191H44.4648V24.0261H46.2051V22.1191H48.2129V20.4662H46.2051Z" fill="#FEA832"/>
</g>
</g>
<g id="Group_2">
<path id="Vector_14" d="M4.07764 51.3311L14.6765 55.2761C15.5766 55.6112 16.5294 55.7828 17.4899 55.7828H28.4128C29.9414 55.7828 31.4385 55.3484 32.7297 54.5302L46.4062 45.864C47.3085 45.0628 47.4758 43.7163 46.797 42.7187C46.0542 41.6271 44.8255 41.4374 43.4735 42.0767L30.158 47.9395L30.1738 45.7792C29.9974 44.006 28.6321 42.5829 26.8678 42.3333L18.7591 41.3997C16.8886 41.135 15.9539 40.5081 14.3232 39.5543C12.0969 38.2519 9.56418 37.5656 6.98498 37.5656H4.07764V51.3311Z" fill="#FFDDCE"/>
<path id="Vector_15" d="M14.0328 53.1741C14.9791 53.5263 15.9807 53.7067 16.9904 53.7067H28.4733C29.6913 53.7065 30.8949 53.4439 32.0022 52.9367L40.0316 47.8487C40.7776 47.376 41.2512 46.5532 41.2269 45.6703C41.2138 45.1882 41.0624 44.72 40.7906 44.3215C40.7906 44.3215 40.5461 43.9026 40.2949 43.4762L30.158 47.9395L30.1738 45.7792C29.9974 44.006 28.6321 42.5829 26.8678 42.3333L18.7591 41.3997C16.8886 41.135 15.9539 40.5081 14.3232 39.5543C12.0969 38.2519 9.56418 37.5656 6.98498 37.5656H4.07764V49.4687L14.0328 53.1741Z" fill="#F9CDB9"/>
<path id="Vector_16" d="M46.7969 42.7185C46.0541 41.6269 44.8254 41.4372 43.4734 42.0765L39.8108 43.6891C39.9882 43.9699 40.1293 44.194 40.1293 44.194C40.8081 45.1916 40.6409 46.5381 39.7385 47.3393L31.7694 52.389C30.7161 52.8714 29.5712 53.1213 28.4126 53.1215H17.4899C16.5294 53.1215 15.5766 52.9499 14.6765 52.6149L4.07764 48.6698V51.3309L14.6765 55.2759C15.5766 55.611 16.5294 55.7826 17.4899 55.7826H28.4129C29.9415 55.7826 31.4386 55.3482 32.7298 54.53L46.4063 45.8638C47.3084 45.0626 47.4758 43.716 46.7969 42.7185Z" fill="#F7A894"/>
<path id="Vector_17" d="M29.1796 43.5533L29.1792 43.6055L29.2136 43.5903C29.2024 43.5778 29.1909 43.5658 29.1796 43.5533Z" fill="#F5DBCC"/>
<path id="Vector_18" d="M30.1581 47.938H21.8786C21.4742 47.938 21.1465 47.6104 21.1465 47.2059C21.1465 46.8015 21.4741 46.4739 21.8786 46.4739H30.1688L30.1581 47.938Z" fill="#EE9680"/>
<path id="Vector_19" d="M6.35826 53.4421C6.35826 54.2111 5.73488 54.8345 4.96585 54.8345H1.6053C0.836278 54.8345 0.212891 54.2111 0.212891 53.4421V36.3924C0.212891 35.6234 0.836278 35 1.6053 35H4.96585C5.73488 35 6.35826 35.6234 6.35826 36.3924V53.4421Z" fill="#DE0F7E"/>
</g>
</g>
</svg>
