<svg id="Layer_1" data-name="Layer 1" xmlns="http://www.w3.org/2000/svg" viewBox="0 0 1104.2 275.96"><defs><style>.cls-1{fill:#727272;}.cls-2{fill:#df1e88;}.cls-3,.cls-5{fill:#fff;}.cls-4{opacity:0.4;}.cls-5{stroke:#fff;stroke-miterlimit:10;stroke-width:0.5px;}</style></defs><path class="cls-1" d="M987,1682.68q-7.63,0-11-3t-3.34-8.58a17.54,17.54,0,0,1,1-6.12l5.5-.9a15.17,15.17,0,0,0-1.33,6.44q0,4.25,2.16,6.16t7.51,1.91h5.31v-14.28H998v14.28h3.86v4Zm1.06,7.75a2.7,2.7,0,0,1-3.82,0,2.61,2.61,0,0,1-.78-1.92,2.64,2.64,0,0,1,.78-1.89,2.57,2.57,0,0,1,1.91-.8,2.66,2.66,0,0,1,2.69,2.69A2.65,2.65,0,0,1,988,1690.43Z" transform="translate(-106.6 -1463.99)"/><path class="cls-1" d="M1001.22,1682.68v-4h4.84v-23.44h5.14v23.44h3.94v4Z" transform="translate(-106.6 -1463.99)"/><path class="cls-1" d="M1014.52,1682.68v-4h4.76v-23.44h5.15v10.14a35.91,35.91,0,0,1-.43,5.77h0a12,12,0,0,1,4.12-5.32,10,10,0,0,1,5.91-1.93,7.17,7.17,0,0,1,5.93,2.47,10.93,10.93,0,0,1,2,7c0,2-.06,3.78-.16,5.34h3.59v4Zm9.87-4h12.13c.13-1.74.19-3.33.19-4.76a9,9,0,0,0-.86-4.39,3,3,0,0,0-2.84-1.5c-2,0-3.81,1.06-5.43,3.18A17.24,17.24,0,0,0,1024.39,1678.63Z" transform="translate(-106.6 -1463.99)"/><path class="cls-1" d="M1044.82,1682.68v-4h4.84v-23.44h5.15v27.49Z" transform="translate(-106.6 -1463.99)"/><path class="cls-1" d="M1061.44,1682.68v-27.49h5.14v27.49Z" transform="translate(-106.6 -1463.99)"/><path class="cls-1" d="M1091.58,1692.63q-5.58,0-8.31-1.91a5.82,5.82,0,0,1-2.73-5,6,6,0,0,1,.57-2.58,7.69,7.69,0,0,1,1.29-2,10.08,10.08,0,0,1,2.14-1.65,26.13,26.13,0,0,1,2.32-1.31c.6-.29,1.47-.69,2.61-1.21-1.06-1-1.87-1.77-2.43-2.26a17.83,17.83,0,0,0-2.36-1.68,12.26,12.26,0,0,0-3-1.36l.43-3.67q6-4.33,11.27-4.33c2.73,0,4.79.61,6.17,1.81a5.86,5.86,0,0,1,2.06,4.59q0,4.2-4.44,7.25a10.22,10.22,0,0,0,4.79,1.25h2.58v4h-3.16a14,14,0,0,1-8.66-2.88,48,48,0,0,0-5.11,2.73,3.53,3.53,0,0,0-1.79,2.73q0,3.35,6.36,3.35c.88,0,1.81,0,2.78-.11a19.37,19.37,0,0,0,2.25-.28l.82-.11.31,3.9A37.76,37.76,0,0,1,1091.58,1692.63Zm-4.72-22.78a8.46,8.46,0,0,1,1.42.69,14.47,14.47,0,0,1,1.47,1c.52.4.93.74,1.25,1s.78.66,1.4,1.22l1.25,1.12c1.9-1.25,2.84-2.62,2.84-4.1a3.11,3.11,0,0,0-1-2.36,3.84,3.84,0,0,0-2.75-.92Q1090.38,1667.51,1086.86,1669.85Z" transform="translate(-106.6 -1463.99)"/><path class="cls-1" d="M1131.4,1673.29a72.29,72.29,0,0,1-.55,9.39h-26.91v-4h4.76v-14.28h5.15v1a34.8,34.8,0,0,1-.43,5.77h0a12.06,12.06,0,0,1,4.11-5.32,10,10,0,0,1,5.91-1.93,7.15,7.15,0,0,1,5.93,2.47A10.87,10.87,0,0,1,1131.4,1673.29Zm-5.26.58a9,9,0,0,0-.86-4.39,3,3,0,0,0-2.85-1.5q-3,0-5.42,3.18a17.25,17.25,0,0,0-3.2,7.47h12.13C1126.07,1676.89,1126.14,1675.3,1126.14,1673.87Zm-3.32-12.79a2.66,2.66,0,0,1-2.69-2.69,2.57,2.57,0,0,1,.8-1.91,2.68,2.68,0,0,1,3.78,0,2.68,2.68,0,0,1,0,3.82A2.61,2.61,0,0,1,1122.82,1661.08Z" transform="translate(-106.6 -1463.99)"/><path class="cls-1" d="M1141.66,1692.51c-.86,0-1.79,0-2.77-.11a22.85,22.85,0,0,1-2.34-.28l-.82-.11.31-4.22a28,28,0,0,0,6.08.67q6.75,0,6.75-5.19v-.59h-3q-10.45,0-10.45-9a9.77,9.77,0,0,1,2.63-7c1.75-1.88,4.32-2.81,7.7-2.81a25.7,25.7,0,0,1,4.08.33,20.33,20.33,0,0,1,3.06.68l1,.35v17.55a9,9,0,0,1-3,7Q1147.86,1692.52,1141.66,1692.51Zm7.21-13.88v-10a8.59,8.59,0,0,0-3.7-.71,4.23,4.23,0,0,0-3.4,1.47,5.65,5.65,0,0,0-1.25,3.8c0,3.64,2,5.46,5.86,5.46Z" transform="translate(-106.6 -1463.99)"/><path class="cls-1" d="M1186.47,1682.68q-9.6,0-10.42-7.56h-.78a2.19,2.19,0,0,0-2.2,1.11,7.29,7.29,0,0,0-.1,3.84l2,12.75h-5l-2-12.36q-.66-4.37,1.11-6.88t6.26-2.52h.86a9.13,9.13,0,0,1,3.31-5.22,10.35,10.35,0,0,1,6.59-2c3,0,5.18.78,6.63,2.36a9.33,9.33,0,0,1,2.19,6.61v5.81h3.27v4Zm3.51-4v-5.19q0-5.54-4.18-5.54a4.21,4.21,0,0,0-3.39,1.47,5.65,5.65,0,0,0-1.25,3.8,5.4,5.4,0,0,0,1.43,4.11,6.24,6.24,0,0,0,4.42,1.35Z" transform="translate(-106.6 -1463.99)"/><path class="cls-1" d="M1197.7,1682.68v-4h5.46v-14.28h5.15v18.33Zm5.91-22.07a2.51,2.51,0,0,1-1.86.78,2.46,2.46,0,0,1-1.83-.76,2.76,2.76,0,0,1,0-3.76,2.44,2.44,0,0,1,1.83-.78,2.53,2.53,0,0,1,1.86.76,2.57,2.57,0,0,1,.76,1.89A2.61,2.61,0,0,1,1203.61,1660.61Zm6.45,0a2.56,2.56,0,0,1-3.66,0,2.73,2.73,0,0,1,0-3.76,2.56,2.56,0,0,1,3.66,0,2.55,2.55,0,0,1,.74,1.89A2.59,2.59,0,0,1,1210.06,1660.61Z" transform="translate(-106.6 -1463.99)"/><circle class="cls-2" cx="986.46" cy="84.02" r="71.98"/><path class="cls-3" d="M1124.57,1526.3a7.89,7.89,0,0,0-6.76-7.75,57.37,57.37,0,0,0-5.87-.17c-.85,0-1.7,0-2.63,0,0-1.05,0-2,0-3a1.49,1.49,0,0,0-1.26-1.64,4.86,4.86,0,0,0-1.32-.14c-1.56,0-3.13,0-4.7,0a1,1,0,0,1-.73-.47c-1.62-3.62-4.53-5.21-8.36-5.24a8.47,8.47,0,0,0-8.26,5.24.77.77,0,0,1-.84.5c-1.67,0-3.35,0-5,0-1.48,0-2,.61-2,2.08v2.66c-2.5,0-4.88,0-7.25,0a8.07,8.07,0,0,0-8,8.14q0,27,0,54a7.05,7.05,0,0,0,4.55,6.85,21.11,21.11,0,0,0,2.37.76h49.21a5.69,5.69,0,0,1,.59-.16,7.42,7.42,0,0,0,6.31-7.13Q1124.59,1553.56,1124.57,1526.3Zm-43.85-8.86h4.64a2.13,2.13,0,0,0,2.38-1.81,5.48,5.48,0,0,1,4.82-4.17,5.36,5.36,0,0,1,5.5,4c.44,1.57,1,2,2.62,2h4.76V1525h-24.72Zm40.06,62.92a3.62,3.62,0,0,1-3.26,3.84,8.51,8.51,0,0,1-1.33.1h-46.3a5.25,5.25,0,0,1-3.05-.83,3.18,3.18,0,0,1-1.49-2.69c0-.21,0-.42,0-.63V1527c0-3,1.72-4.76,4.76-4.76,2.14,0,4.28,0,6.42,0a1.45,1.45,0,0,1,.28.09v4.14c0,1.71.73,2.44,2.43,2.44h27.57c1.76,0,2.5-.77,2.5-2.55l0-3.92s.05-.09.12-.21h2c1.6,0,3.19,0,4.78,0a4.29,4.29,0,0,1,4.49,4.56Z" transform="translate(-106.6 -1463.99)"/><path class="cls-3" d="M1112.85,1539.4h-19.8c-.68,0-1.36,0-2,0a1.85,1.85,0,0,0-1.74,1.86,1.83,1.83,0,0,0,1.69,1.91,6.12,6.12,0,0,0,.86,0h20.66a6.77,6.77,0,0,0,1-.07,1.88,1.88,0,0,0,1.47-2.36A2,2,0,0,0,1112.85,1539.4Z" transform="translate(-106.6 -1463.99)"/><path class="cls-3" d="M1113.76,1570.11a3.7,3.7,0,0,0-1.15-.14h-20.9a4.27,4.27,0,0,0-1,.09,1.81,1.81,0,0,0-1.43,1.89,1.83,1.83,0,0,0,1.54,1.8,5.86,5.86,0,0,0,.94.06h20.82a4.93,4.93,0,0,0,1-.09,1.88,1.88,0,0,0,.18-3.6Z" transform="translate(-106.6 -1463.99)"/><path class="cls-3" d="M1112.89,1554.7H1099c-2.55,0-5.11,0-7.67,0a1.84,1.84,0,0,0-2,2c0,1.13.87,1.81,2.2,1.81H1112c.41,0,.83,0,1.25,0a1.89,1.89,0,0,0,1.77-2.22A1.92,1.92,0,0,0,1112.89,1554.7Z" transform="translate(-106.6 -1463.99)"/><path class="cls-3" d="M1075.6,1560.33a1.8,1.8,0,0,0,2.55.08c.36-.3.69-.63,1-1q3.22-3.06,6.46-6.14a1.76,1.76,0,0,0,.41-2.27,1.85,1.85,0,0,0-2.1-1,3.11,3.11,0,0,0-1.24.75c-1.93,1.8-3.82,3.62-5.72,5.43-.49-.46-.92-.84-1.32-1.24s-.83-.87-1.26-1.29a1.9,1.9,0,0,0-2.73-.17,2,2,0,0,0,0,2.76Q1073.61,1558.36,1075.6,1560.33Z" transform="translate(-106.6 -1463.99)"/><path class="cls-3" d="M1075.6,1545a1.7,1.7,0,0,0,2.52.1q3.84-3.57,7.61-7.21a1.82,1.82,0,0,0-.48-3,1.9,1.9,0,0,0-2.42.44c-1.95,1.84-3.89,3.7-5.84,5.56-.11,0-.14,0-.16-.06-.78-.8-1.56-1.61-2.35-2.4a1.9,1.9,0,1,0-2.71,2.62C1073,1542.44,1074.3,1543.74,1075.6,1545Z" transform="translate(-106.6 -1463.99)"/><path class="cls-3" d="M1085.49,1565.68a1.89,1.89,0,0,0-2.62.25l-5.81,5.53c-.9-.83-1.74-1.58-2.54-2.36a1.91,1.91,0,1,0-2.74,2.61c1.24,1.3,2.51,2.58,3.78,3.86a1.74,1.74,0,0,0,2.58.12q3.84-3.57,7.61-7.22A1.78,1.78,0,0,0,1085.49,1565.68Z" transform="translate(-106.6 -1463.99)"/><path class="cls-2" d="M1093.06,1632a84,84,0,1,1,84-84A84.11,84.11,0,0,1,1093.06,1632Zm0-164a80,80,0,1,0,80,80A80.11,80.11,0,0,0,1093.06,1468Z" transform="translate(-106.6 -1463.99)"/><path class="cls-1" d="M423.35,1683.32h-11q-7.65,0-11-3c-2.22-2-3.34-4.83-3.34-8.58a17.62,17.62,0,0,1,1-6.12l5.5-.9a15.17,15.17,0,0,0-1.33,6.44c0,2.83.72,4.89,2.17,6.16s3.94,1.91,7.5,1.91h5.31V1665h5.14Zm-9.94,7.74a2.69,2.69,0,1,1-3.82-3.78,2.53,2.53,0,0,1,1.91-.8,2.66,2.66,0,0,1,2.69,2.69A2.64,2.64,0,0,1,413.41,1691.06Z" transform="translate(-106.6 -1463.99)"/><path class="cls-1" d="M434,1693.14c-.86,0-1.78,0-2.77-.11s-1.77-.17-2.34-.27l-.82-.12.32-4.21a28.51,28.51,0,0,0,6.08.66q6.75,0,6.75-5.19v-.58h-3.05q-10.44,0-10.45-9a9.83,9.83,0,0,1,2.63-7q2.64-2.8,7.71-2.81a25.48,25.48,0,0,1,4.07.33,19.76,19.76,0,0,1,3.06.68l1,.35v17.55a9,9,0,0,1-3,7C441.2,1692.24,438.14,1693.14,434,1693.14Zm7.22-13.88v-10a8.65,8.65,0,0,0-3.71-.7,4.2,4.2,0,0,0-3.39,1.46,5.65,5.65,0,0,0-1.25,3.8q0,5.46,5.85,5.46Z" transform="translate(-106.6 -1463.99)"/><path class="cls-1" d="M450.89,1683.32v-4.06h11.58a11.55,11.55,0,0,0-2.42-7.06,12.53,12.53,0,0,0-6.78-3.86l1.25-4.29q6.19,1.64,9.4,5.25t3.54,10H470v4.06Z" transform="translate(-106.6 -1463.99)"/><path class="cls-1" d="M469.41,1683.32v-4.06h5.46V1665H480v14.27h3.82v4.06Zm8-21.61a2.66,2.66,0,0,1-2.69-2.69,2.55,2.55,0,0,1,.8-1.91,2.69,2.69,0,1,1,1.89,4.6Z" transform="translate(-106.6 -1463.99)"/><path class="cls-1" d="M505.92,1683.32H497q-6.19,0-8-3a5.21,5.21,0,0,1-5.15,3h-.58v-4.06H484a2.48,2.48,0,0,0,2.2-1,6.72,6.72,0,0,0,.72-3.63,10.29,10.29,0,0,1,2.62-7.23,9.38,9.38,0,0,1,7.33-2.87q4.56,0,6.78,2.44a9.73,9.73,0,0,1,2.23,6.84Zm-5-4.06v-4.91c0-3.88-1.45-5.81-4.33-5.81a4,4,0,0,0-3.32,1.52,6.34,6.34,0,0,0-1.21,4,5.29,5.29,0,0,0,1.27,3.9c.85.83,2.26,1.25,4.23,1.25Z" transform="translate(-106.6 -1463.99)"/><path class="cls-1" d="M542.54,1683.32h-8.15q-7.65,0-11-3c-2.22-2-3.34-4.83-3.34-8.58a17.62,17.62,0,0,1,1-6.12l5.5-.9a15.17,15.17,0,0,0-1.33,6.44c0,2.83.72,4.89,2.17,6.16s3.94,1.91,7.5,1.91h2.65v-14a39.54,39.54,0,0,1,7.84-.74q4.92,0,7,2.18c1.36,1.46,2,3.6,2,6.44V1678h-5v-4.37a6.22,6.22,0,0,0-1-4,4.16,4.16,0,0,0-3.37-1.15l-2.57.23Z" transform="translate(-106.6 -1463.99)"/><path class="cls-1" d="M558.92,1683.32v-4.06H570.5a11.61,11.61,0,0,0-2.42-7.06,12.53,12.53,0,0,0-6.78-3.86l1.24-4.29q6.21,1.64,9.4,5.25t3.55,10H578v4.06Z" transform="translate(-106.6 -1463.99)"/><path class="cls-1" d="M577.44,1683.32v-4.06h4.84v-23.44h5.15v27.5Z" transform="translate(-106.6 -1463.99)"/><path class="cls-1" d="M444.18,1727.54v-24.92h5.15v23.44H453v4.06h-3.9q-1.25,9-10.25,9-10.06,0-10.07-11.08a26.29,26.29,0,0,1,.94-7l5.31-1a27.72,27.72,0,0,0-1.1,7.49q0,7.53,5.35,7.53Q444.19,1735.07,444.18,1727.54Z" transform="translate(-106.6 -1463.99)"/><path class="cls-1" d="M452.41,1730.12v-4.06h7.33v-14.27h5.15v14.27h3.86v4.06Zm5.93,5.85a2.62,2.62,0,0,1-.76,1.87,2.6,2.6,0,0,1-3.69,0,2.63,2.63,0,0,1-.74-1.89,2.65,2.65,0,0,1,.74-1.88,2.45,2.45,0,0,1,1.84-.78,2.53,2.53,0,0,1,1.85.77A2.57,2.57,0,0,1,458.34,1736Zm6.43,0a2.65,2.65,0,0,1-.74,1.87,2.41,2.41,0,0,1-1.83.78,2.47,2.47,0,0,1-1.83-.76,2.74,2.74,0,0,1,0-3.77,2.41,2.41,0,0,1,1.83-.78,2.44,2.44,0,0,1,1.83.77A2.59,2.59,0,0,1,464.77,1736Z" transform="translate(-106.6 -1463.99)"/><path class="cls-1" d="M495.58,1720.72a74.38,74.38,0,0,1-.54,9.4H468.13v-4.06h4.75v-14.27H478v1a34.8,34.8,0,0,1-.43,5.77h0a12,12,0,0,1,4.12-5.32,9.92,9.92,0,0,1,5.91-1.93,7.11,7.11,0,0,1,5.92,2.48Q495.59,1716.24,495.58,1720.72Zm-5.26.58a9,9,0,0,0-.86-4.38,3,3,0,0,0-2.85-1.51q-3,0-5.42,3.18a17.25,17.25,0,0,0-3.2,7.47h12.13C490.25,1724.32,490.32,1722.73,490.32,1721.3Z" transform="translate(-106.6 -1463.99)"/><path class="cls-1" d="M505.84,1739.94c-.86,0-1.78,0-2.77-.11a22.85,22.85,0,0,1-2.34-.28l-.82-.11.31-4.21a28.67,28.67,0,0,0,6.09.66c4.5,0,6.74-1.73,6.74-5.19v-.58h-3q-10.45,0-10.45-9a9.83,9.83,0,0,1,2.63-7q2.64-2.8,7.71-2.81a25.48,25.48,0,0,1,4.07.33,19.76,19.76,0,0,1,3.06.68l1,.35v13.42h3.86v4.06h-3.86v.07a9,9,0,0,1-3,7Q512,1739.95,505.84,1739.94Zm7.21-13.88v-10a8.57,8.57,0,0,0-3.7-.7,4.2,4.2,0,0,0-3.39,1.46,5.6,5.6,0,0,0-1.25,3.8q0,5.46,5.85,5.46Z" transform="translate(-106.6 -1463.99)"/><path class="cls-1" d="M521.28,1730.12v-4.06h5.46v-14.27h5.15v14.27h3.47v4.06Zm5.91-22.08a2.49,2.49,0,0,1-1.85.78,2.43,2.43,0,0,1-1.83-.76,2.76,2.76,0,0,1,0-3.76,2.41,2.41,0,0,1,1.83-.78,2.51,2.51,0,0,1,1.85.76,2.71,2.71,0,0,1,0,3.76Zm6.46,0a2.57,2.57,0,0,1-3.67,0,2.76,2.76,0,0,1,0-3.76,2.41,2.41,0,0,1,1.83-.78,2.47,2.47,0,0,1,1.84.76,2.76,2.76,0,0,1,0,3.76Z" transform="translate(-106.6 -1463.99)"/><path class="cls-1" d="M534.78,1730.12v-4.06h4.83v-23.44h5.15v27.5Z" transform="translate(-106.6 -1463.99)"/><path class="cls-1" d="M551.39,1730.12v-27.5h5.15v27.5Z" transform="translate(-106.6 -1463.99)"/><g class="cls-4"><circle class="cls-1" cx="386.82" cy="84.65" r="71.98"/></g><path class="cls-5" d="M537.81,1552.81c-.19-.11-.35-.26-.53-.37q-7-4.31-14-8.58c-1.26-.77-2.9-1.2-3.75-2.27s-1-2.76-1.33-4.19a1.84,1.84,0,0,1,.25-1.22c.9-1.44,1.85-2.84,2.8-4.24a10.13,10.13,0,0,1,1-1.17,29.81,29.81,0,0,0,2.86-3,4.65,4.65,0,0,0,.31-5.17,2,2,0,0,1-.17-1,68.27,68.27,0,0,0,0-7,12.06,12.06,0,0,0-5-9,14.68,14.68,0,0,0-7.66-2.44,13.09,13.09,0,0,0-12.26,5.47,29.61,29.61,0,0,0-4,7.49,1.93,1.93,0,0,1-.92,1,7.57,7.57,0,0,0-4.1,4.77,1.18,1.18,0,0,0,.74,1.58,1.25,1.25,0,0,0,1.67-.57c.37-.57.65-1.2,1-1.76a6.87,6.87,0,0,1,.79-.82c.28,2.57.43,5.07.84,7.53a17.91,17.91,0,0,0,3.93,9.15c.64.74,1.76,1.38,1.88,2.18s-.69,1.93-1,2.94a2.08,2.08,0,0,1-1.59,1.57,33.35,33.35,0,0,0-8.85,4.12c-1,.67-2,1.27-3.06,1.9-.94-2.35-1.89-3.09-4-3.09-11.28,0-22.55,0-33.83,0a5.25,5.25,0,0,0-2.27.62,3.81,3.81,0,0,0-1.7,2.53v29.11c1,2.76,1.81,3.31,4.79,3.31h8.81c3.09,0,6.18,0,9.27,0,.3,0,.78.16.87.38a7.67,7.67,0,0,0,5,4.1,24.58,24.58,0,0,0,8.7,1,26.48,26.48,0,0,1,4.7-.11c7.42,1.23,14.52,3.66,21.65,6,3.55,1.15,6.75.75,9.56-1.83q5.22-4.8,10.44-9.6a1.17,1.17,0,0,1,1.31-.27c1.12.32,2.28.53,3.42.75a2,2,0,0,0,2.28-1.22,12.74,12.74,0,0,0,1.29-3.25q1.16-5.9,2.06-11.85c.34-2.25.44-4.54.69-6.82C541.12,1556.65,540.33,1554.35,537.81,1552.81Zm-76.38,26.65H450c-1.07,0-1.39-.31-1.39-1.38q0-13.71,0-27.41c0-1,.34-1.41,1.28-1.41H461a2.53,2.53,0,0,1,.41.06Zm7.93,0h-5V1549.3h5Zm49-34.36c.36-.41.64-.54,1.16-.22,1,.64,2.14,1.21,3.31,1.86l-4.6,7.28-5.37-2.76,2.1-2.37C516.07,1547.59,517.22,1546.34,518.33,1545.06ZM506.6,1556c-.16.33-.37.64-.56,1,0,0-.09.07-.24.19-.6-2.21-1.28-4.35-1.74-6.54-.39-1.84-.53-3.72-.77-5.59a1.57,1.57,0,0,1,0-.72c.5-1.36,1-2.71,1.58-4.12,3.75.75,7.37.63,10.79-1.47.37,1.25.74,2.42,1,3.61a1.22,1.22,0,0,1-.35.87c-.8.94-1.61,1.88-2.48,2.75A38.15,38.15,0,0,0,506.6,1556Zm-1.91-48c2.68-2.35,5.88-2.45,9.1-2,5.54.82,8.59,4.27,8.94,9.88.1,1.75,0,3.5,0,5.24-1.8,0-3.39,0-5,0-.24,0-.51-.39-.7-.65a14.18,14.18,0,0,0-9.55-6.12,16.24,16.24,0,0,0-7,.54l-.89.24A20,20,0,0,1,504.69,1507.94Zm9.34,13.12c-2.35,0-4.53,0-6.7,0a1,1,0,0,1-.5-.2l-4.95-3.47A11.18,11.18,0,0,1,514,1521.06Zm-13.39,11.43c-2-4.1-2.3-8.52-2.21-13.1a13.2,13.2,0,0,1,6.65,3.54,3.31,3.31,0,0,0,2.41.9c4.9,0,9.81.06,14.72.11,1,0,1.34.3,1,1.21a5.14,5.14,0,0,1-1.61,2.58,12.77,12.77,0,0,0-3.69,4.54c-1.47,2.54-3.44,4.74-6.47,5.28C506.68,1538.42,503.16,1537.7,500.64,1532.49Zm.07,13.74c.15,1.25.3,2.4.42,3.56a.7.7,0,0,1-.23.47c-.94.84-1.9,1.66-3,2.61-.36-1.8-.7-3.47-1.06-5.21Zm-28.42,3h11.33c1,0,1.38.36,1.38,1.32q0,11.94,0,23.89a2,2,0,0,1-.05.35,31.11,31.11,0,0,1-3.49,0,3.91,3.91,0,0,0-4.53,4.59h-4.64Zm54.86,31.6c-3.28,3-6.58,6-9.82,9a6.1,6.1,0,0,1-6.67,1.29c-7.18-2.35-14.36-4.72-21.83-6a19.66,19.66,0,0,0-4.06,0,25.83,25.83,0,0,1-9.26-.86,5.2,5.2,0,0,1-3-2c.42,0,.71,0,1,0h11.59a3.64,3.64,0,0,0,.74,0,1.37,1.37,0,0,0,1.23-1.4,1.34,1.34,0,0,0-1.36-1.35c-1.54,0-3.09,0-4.63,0-.72,0-1.42,0-1.48-1-.05-.71.52-1,1.53-1a96.56,96.56,0,0,1,15.7,1.88l13.69,2.3a4,4,0,0,0,3.88-1.29c1.11-1.26,2-2.69,3-4.06a10.36,10.36,0,0,0,.62-1.14l9.35,5.37C527.37,1580.6,527.27,1580.74,527.15,1580.85Zm10.78-22.12c-.67,6.54-1.08,13.12-3,19.47-.54,1.83-.61,1.84-2.44,1.29a43.51,43.51,0,0,1-9-4.28c-1.18-.68-2.31-1.43-3.49-2.09-.6-.34-.71-.65-.45-1.32,1.15-3,2.23-6,3.33-8.92a1.32,1.32,0,0,0-.58-1.76,1.21,1.21,0,0,0-1.6.26,2.87,2.87,0,0,0-.45.89c-1.1,3-2.11,5.93-3.33,8.83a59.34,59.34,0,0,1-3,5.82,5.48,5.48,0,0,1-1.48,1.63,2,2,0,0,1-1.43.38c-7.59-1.23-15.16-2.51-22.74-3.78a4.27,4.27,0,0,1-.54-.18c0-.23,0-.45,0-.66q0-10.24,0-20.49c0-.3.07-.77.27-.9,2-1.34,4.08-2.62,6.25-4,.42,2.23.79,4.28,1.19,6.33.32,1.63,1.48,2,2.75,1s2.37-2,3.65-3.16c.68,2.51,1.33,4.88,2,7.25.06.21.06.47.19.62.39.42.78,1,1.27,1.13s1-.43,1.26-.85c1.42-2.38,2.77-4.81,4.15-7.22.1-.19.22-.36.39-.62,1.75.9,3.48,1.77,5.2,2.66,2.73,1.41,2.73,1.41,4.38-1.16l3.92-6.07c.16-.25.34-.5.56-.81.6.35,1.17.65,1.71,1l9.26,6A3.68,3.68,0,0,1,537.93,1558.73Z" transform="translate(-106.6 -1463.99)"/><path class="cls-5" d="M504.59,1563.48a1.4,1.4,0,0,0-1.48,1.43c0,.21,0,.43,0,.86a1.1,1.1,0,0,0,0,.24,1.37,1.37,0,1,0,2.72.19,8,8,0,0,0,0-1.2A1.36,1.36,0,0,0,504.59,1563.48Z" transform="translate(-106.6 -1463.99)"/><path class="cls-5" d="M503.9,1569.18c-.95,0-1.37.59-1.42,2.06,0,.22-.07.48,0,.64.25.45.48,1,.89,1.23a1.12,1.12,0,0,0,1.55-.6,3,3,0,0,0,.27-1.15C505.33,1569.86,504.92,1569.2,503.9,1569.18Z" transform="translate(-106.6 -1463.99)"/><g class="cls-4"><path class="cls-1" d="M493.42,1631.64a83,83,0,1,1,83-83A83.09,83.09,0,0,1,493.42,1631.64Zm0-162a79,79,0,1,0,79,79A79.09,79.09,0,0,0,493.42,1469.64Z" transform="translate(-106.6 -1463.99)"/></g><path class="cls-1" d="M684.33,1683.32q-7.64,0-11-3t-3.34-8.58a17.62,17.62,0,0,1,1-6.12l5.49-.9a15.32,15.32,0,0,0-1.32,6.44c0,2.83.72,4.89,2.16,6.16s4,1.91,7.51,1.91h5.31V1665h5.14v14.27h3.86v4.06Zm1.06,7.74a2.69,2.69,0,1,1-3.82-3.78,2.53,2.53,0,0,1,1.91-.8,2.66,2.66,0,0,1,2.69,2.69A2.64,2.64,0,0,1,685.39,1691.06Z" transform="translate(-106.6 -1463.99)"/><path class="cls-1" d="M698.57,1683.32v-4.06h4.84v-23.44h5.14v23.44h3.94v4.06Z" transform="translate(-106.6 -1463.99)"/><path class="cls-1" d="M711.87,1683.32v-4.06h4.76v-23.44h5.14V1666a36,36,0,0,1-.42,5.77h0a12,12,0,0,1,4.12-5.32,10,10,0,0,1,5.91-1.93,7.14,7.14,0,0,1,5.93,2.48,10.88,10.88,0,0,1,2,7q0,3-.15,5.34h3.59v4.06Zm9.87-4.06h12.12c.13-1.74.2-3.33.2-4.76a9,9,0,0,0-.86-4.38,3,3,0,0,0-2.85-1.51c-2,0-3.8,1.06-5.42,3.18A17.24,17.24,0,0,0,721.74,1679.26Z" transform="translate(-106.6 -1463.99)"/><path class="cls-1" d="M742.17,1683.32v-4.06H747v-23.44h5.15v27.5Z" transform="translate(-106.6 -1463.99)"/><path class="cls-1" d="M758.78,1683.32v-27.5h5.15v27.5Z" transform="translate(-106.6 -1463.99)"/><path class="cls-1" d="M778.56,1683.32v-4.06h11.58a11.61,11.61,0,0,0-2.42-7.06,12.53,12.53,0,0,0-6.78-3.86l1.24-4.29q6.21,1.64,9.4,5.25t3.55,10h2.54v4.06Z" transform="translate(-106.6 -1463.99)"/><path class="cls-1" d="M797.08,1683.32v-4.06h7.33V1665h5.15v14.27h3.86v4.06Zm5.93,5.85a2.58,2.58,0,0,1-.76,1.87,2.6,2.6,0,0,1-3.69,0,2.63,2.63,0,0,1-.74-1.89,2.65,2.65,0,0,1,.74-1.88,2.45,2.45,0,0,1,1.84-.78,2.61,2.61,0,0,1,2.61,2.66Zm6.43,0a2.6,2.6,0,0,1-.74,1.87,2.41,2.41,0,0,1-1.83.78,2.47,2.47,0,0,1-1.83-.76,2.77,2.77,0,0,1,0-3.77,2.41,2.41,0,0,1,1.83-.78,2.44,2.44,0,0,1,1.83.77A2.55,2.55,0,0,1,809.44,1689.17Z" transform="translate(-106.6 -1463.99)"/><path class="cls-1" d="M812.8,1683.32v-4.06h11.58a11.13,11.13,0,0,0-2.51-7.21,13,13,0,0,0-7-3.79v-3.78l15.44-9.67v5.11l-9.52,5.73a14.23,14.23,0,0,1,6.42,5.44q2.24,3.57,2.24,9.61v2.62Z" transform="translate(-106.6 -1463.99)"/><path class="cls-1" d="M832.53,1654.07v-2.69a12,12,0,0,1,2.3.15,1.58,1.58,0,0,1-.7-1.52,3.78,3.78,0,0,1,1.31-3,6.25,6.25,0,0,1,4.19-1.15,9.6,9.6,0,0,1,2.3.19l-.47,2.69a9.66,9.66,0,0,0-1.91-.19c-1.27,0-1.91.44-1.91,1.32s.91,1.49,2.73,1.49h2.22v2.69Zm2.73,29.25v-26.84h5.15v22.78h3.9v4.06Z" transform="translate(-106.6 -1463.99)"/><path class="cls-1" d="M843.73,1683.32v-4.06h5.46V1665h5.14v18.33Zm5.9-22.08a2.47,2.47,0,0,1-1.85.78,2.43,2.43,0,0,1-1.83-.76,2.55,2.55,0,0,1-.74-1.89,2.59,2.59,0,0,1,.74-1.87,2.41,2.41,0,0,1,1.83-.78,2.49,2.49,0,0,1,1.85.76,2.71,2.71,0,0,1,0,3.76Zm6.46,0a2.44,2.44,0,0,1-1.83.78,2.47,2.47,0,0,1-1.84-.76,2.59,2.59,0,0,1-.74-1.89,2.63,2.63,0,0,1,.74-1.87,2.57,2.57,0,0,1,3.67,0,2.76,2.76,0,0,1,0,3.76Z" transform="translate(-106.6 -1463.99)"/><path class="cls-1" d="M886.94,1683.32q-9.6,0-10.42-7.57h-.78a2.18,2.18,0,0,0-2.2,1.11,7.29,7.29,0,0,0-.1,3.84l2,12.76h-5l-2-12.37q-.66-4.36,1.11-6.88t6.26-2.52h.86a9.16,9.16,0,0,1,3.31-5.22,10.35,10.35,0,0,1,6.59-2q4.46,0,6.63,2.36a9.35,9.35,0,0,1,2.19,6.61v5.81h3.27v4.06Zm3.51-4.06v-5.19c0-3.69-1.4-5.53-4.18-5.53a4.2,4.2,0,0,0-3.39,1.46,5.65,5.65,0,0,0-1.25,3.8,5.42,5.42,0,0,0,1.43,4.12,6.27,6.27,0,0,0,4.42,1.34Z" transform="translate(-106.6 -1463.99)"/><path class="cls-1" d="M898.17,1683.32v-4.06h5.46V1665h5.15v18.33Zm5.91-22.08a2.51,2.51,0,0,1-1.86.78,2.45,2.45,0,0,1-1.83-.76,2.59,2.59,0,0,1-.74-1.89,2.63,2.63,0,0,1,.74-1.87,2.43,2.43,0,0,1,1.83-.78,2.53,2.53,0,0,1,1.86.76,2.71,2.71,0,0,1,0,3.76Zm6.45,0a2.41,2.41,0,0,1-1.83.78,2.47,2.47,0,0,1-1.84-.76,2.59,2.59,0,0,1-.74-1.89,2.63,2.63,0,0,1,.74-1.87,2.57,2.57,0,0,1,3.67,0,2.76,2.76,0,0,1,0,3.76Z" transform="translate(-106.6 -1463.99)"/><g class="cls-4"><circle class="cls-1" cx="686.64" cy="84.65" r="71.98"/></g><path class="cls-3" d="M828.78,1517.28a1.57,1.57,0,0,0-1.63-1c-1.59,0-3.18.11-4.75,0a6.68,6.68,0,0,0-4.66,1.48,150.56,150.56,0,0,0-27.1,25.5c-1.64,1.93-3.21,3.9-4.87,5.92l-1-.71-12.44-8.68a1.61,1.61,0,0,0-2.45.21c-1.3,1.28-2.62,2.52-3.86,3.86a2.84,2.84,0,0,0-.55,1.54c0,.3.28.66.49.95,6.46,9,13,17.91,18.8,27.34.78,1.28,2.11,1.16,2.92-.23q7.23-12.35,15.39-24.1c7.54-10.79,15.44-21.29,25.21-30.23A1.56,1.56,0,0,0,828.78,1517.28Z" transform="translate(-106.6 -1463.99)"/><path class="cls-3" d="M811.59,1546.12a1.54,1.54,0,0,0-1.36,1.66,5.59,5.59,0,0,0,.09.7,24,24,0,0,1-.12,9.66,24.91,24.91,0,1,1-16.51-28.8,1.59,1.59,0,0,0,2.28-1.21c.11-.81-.41-1.46-1.44-1.79A28.05,28.05,0,0,0,757.78,1553l-.19,0c.34,2.26.52,4.56,1.06,6.77a27.84,27.84,0,0,0,23.42,21,26.85,26.85,0,0,0,20.85-5.59,27.13,27.13,0,0,0,10.87-21,43.76,43.76,0,0,0-.54-6.83A1.46,1.46,0,0,0,811.59,1546.12Z" transform="translate(-106.6 -1463.99)"/><g class="cls-4"><path class="cls-1" d="M793.24,1631.64a83,83,0,1,1,83-83A83.09,83.09,0,0,1,793.24,1631.64Zm0-162a79,79,0,1,0,79,79A79.09,79.09,0,0,0,793.24,1469.64Z" transform="translate(-106.6 -1463.99)"/></g><path class="cls-1" d="M122,1680.74v-24.92h5.15v23.44h3.71v4.06h-3.9q-1.26,9-10.26,9-10.06,0-10.06-11.08a26.28,26.28,0,0,1,.93-7l5.31-1a27.57,27.57,0,0,0-1.09,7.48q0,7.53,5.34,7.53Q122,1688.27,122,1680.74Z" transform="translate(-106.6 -1463.99)"/><path class="cls-1" d="M130.19,1683.32v-4.06h7.34V1665h5.14v14.27h3.86v4.06Zm5.93,5.85a2.58,2.58,0,0,1-.76,1.87,2.58,2.58,0,0,1-3.68,0,2.74,2.74,0,0,1,0-3.77,2.41,2.41,0,0,1,1.83-.78,2.61,2.61,0,0,1,2.61,2.66Zm6.44,0a2.65,2.65,0,0,1-.74,1.87,2.57,2.57,0,0,1-3.67,0,2.63,2.63,0,0,1-.74-1.89,2.65,2.65,0,0,1,.74-1.88,2.41,2.41,0,0,1,1.83-.78,2.48,2.48,0,0,1,1.84.77A2.59,2.59,0,0,1,142.56,1689.17Z" transform="translate(-106.6 -1463.99)"/><path class="cls-1" d="M173.37,1673.92a74.27,74.27,0,0,1-.55,9.4H145.91v-4.06h4.76V1665h5.15v1a35.91,35.91,0,0,1-.43,5.77h0a11.92,11.92,0,0,1,4.11-5.32,10,10,0,0,1,5.91-1.93,7.13,7.13,0,0,1,5.93,2.48A10.88,10.88,0,0,1,173.37,1673.92Zm-5.27.58a9,9,0,0,0-.86-4.38,3,3,0,0,0-2.84-1.51c-2,0-3.81,1.06-5.42,3.18a17.14,17.14,0,0,0-3.2,7.47h12.13C168,1677.52,168.1,1675.93,168.1,1674.5Z" transform="translate(-106.6 -1463.99)"/><path class="cls-1" d="M183.62,1693.14c-.85,0-1.78,0-2.77-.11s-1.76-.17-2.34-.27l-.81-.12.31-4.21a28.58,28.58,0,0,0,6.08.66q6.75,0,6.75-5.19v-.58h-3q-10.45,0-10.46-9a9.8,9.8,0,0,1,2.64-7q2.63-2.8,7.7-2.81a25.48,25.48,0,0,1,4.07.33,20.23,20.23,0,0,1,3.07.68l1,.35v13.42h3.86v4.06h-3.86v.07a9,9,0,0,1-3,7Q189.83,1693.15,183.62,1693.14Zm7.22-13.88v-10a8.62,8.62,0,0,0-3.71-.7,4.2,4.2,0,0,0-3.39,1.46,5.65,5.65,0,0,0-1.25,3.8q0,5.46,5.85,5.46Z" transform="translate(-106.6 -1463.99)"/><path class="cls-1" d="M199.07,1683.32v-4.06h5.46V1665h5.14v14.27h3.48v4.06Zm5.9-22.08a2.47,2.47,0,0,1-1.85.78,2.43,2.43,0,0,1-1.83-.76,2.55,2.55,0,0,1-.74-1.89,2.59,2.59,0,0,1,.74-1.87,2.41,2.41,0,0,1,1.83-.78,2.49,2.49,0,0,1,1.85.76,2.68,2.68,0,0,1,0,3.76Zm6.46,0a2.43,2.43,0,0,1-1.83.78,2.47,2.47,0,0,1-1.84-.76,2.59,2.59,0,0,1-.74-1.89,2.63,2.63,0,0,1,.74-1.87,2.57,2.57,0,0,1,3.67,0,2.76,2.76,0,0,1,0,3.76Z" transform="translate(-106.6 -1463.99)"/><path class="cls-1" d="M212.56,1683.32v-4.06h4.84v-23.44h5.14v27.5Z" transform="translate(-106.6 -1463.99)"/><path class="cls-1" d="M229.17,1683.32v-27.5h5.15v27.5Z" transform="translate(-106.6 -1463.99)"/><path class="cls-1" d="M267.35,1683.32q-9.59,0-10.41-7.57h-.78a2.18,2.18,0,0,0-2.2,1.11,7.18,7.18,0,0,0-.1,3.84l2,12.76h-5l-2-12.37q-.67-4.36,1.11-6.88t6.26-2.52h.85a9.17,9.17,0,0,1,3.32-5.22,10.35,10.35,0,0,1,6.59-2q4.44,0,6.63,2.36a9.35,9.35,0,0,1,2.18,6.61v5.81h3.28v4.06Zm3.51-4.06v-5.19q0-5.53-4.17-5.53a4.2,4.2,0,0,0-3.39,1.46,5.6,5.6,0,0,0-1.25,3.8,5.42,5.42,0,0,0,1.42,4.12,6.31,6.31,0,0,0,4.43,1.34Z" transform="translate(-106.6 -1463.99)"/><path class="cls-1" d="M278.59,1683.32v-4.06h5.46V1665h5.14v18.33Zm5.9-22.08a2.47,2.47,0,0,1-1.85.78,2.43,2.43,0,0,1-1.83-.76,2.55,2.55,0,0,1-.74-1.89,2.59,2.59,0,0,1,.74-1.87,2.41,2.41,0,0,1,1.83-.78,2.49,2.49,0,0,1,1.85.76,2.71,2.71,0,0,1,0,3.76Zm6.46,0a2.43,2.43,0,0,1-1.83.78,2.47,2.47,0,0,1-1.84-.76,2.59,2.59,0,0,1-.74-1.89,2.63,2.63,0,0,1,.74-1.87,2.57,2.57,0,0,1,3.67,0,2.76,2.76,0,0,1,0,3.76Z" transform="translate(-106.6 -1463.99)"/><g class="cls-4"><circle class="cls-1" cx="83.89" cy="84.65" r="71.98"/></g><path class="cls-3" d="M224.9,1552.41a2,2,0,0,1-.37-1.15c0-4.79,0-9.59,0-14.39a4.08,4.08,0,0,0-.53-1.93q-6.37-10.73-12.83-21.42a7.33,7.33,0,0,0-6.69-3.76H171.69a7.38,7.38,0,0,0-6.73,3.82c-4.25,7.09-8.52,14.17-12.74,21.29a4.39,4.39,0,0,0-.59,2.15c0,6.35,0,12.7,0,19.06s0,12.49,0,18.74a10.13,10.13,0,0,0,.21,2.2,7.24,7.24,0,0,0,7.34,5.63c11.29,0,22.57,0,33.86,0a2.53,2.53,0,0,1,1.35.45,21.49,21.49,0,0,0,16.26,4.14A21.85,21.85,0,0,0,224.9,1552.41Zm-34.39-37.72c.21,0,.41-.06.6-.06,4.46,0,8.91,0,13.37,0A2.67,2.67,0,0,1,207,1516q5.23,8.74,10.48,17.48c.09.16.17.32.29.55H190.51Zm-31.33,18c3.28-5.46,6.57-10.91,9.82-16.39a3,3,0,0,1,2.89-1.66c4.29.05,8.59,0,12.88,0h.81V1534H158.37C158.68,1533.51,158.92,1533.08,159.18,1532.66Zm29.15,45.13H159.46c-2.11,0-3-.87-3-3V1539h63.11v8.26c-10.41-5.52-20.25-4.94-28.35,4-7.26,8-7.28,17.18-2.07,26.56Zm19.16,4.86a17,17,0,1,1,17-17A17,17,0,0,1,207.49,1582.65Z" transform="translate(-106.6 -1463.99)"/><path class="cls-3" d="M175.79,1546.24c-1.58,0-3.16,0-4.74,0h-4.66a2.42,2.42,0,1,0,0,4.82h9.4a2.41,2.41,0,1,0,0-4.81Z" transform="translate(-106.6 -1463.99)"/><path class="cls-3" d="M215.42,1559.17q-3.53,3.49-7,7l-3.32,3.33c-1.86-1.87-3.62-3.67-5.42-5.45a2.41,2.41,0,0,0-3.58-.13,2.45,2.45,0,0,0,.12,3.53q3.52,3.57,7.1,7.09a2.38,2.38,0,0,0,3.58,0q6-6,12-12a2.42,2.42,0,1,0-3.45-3.4Z" transform="translate(-106.6 -1463.99)"/><g class="cls-4"><path class="cls-1" d="M190.48,1631.64a83,83,0,1,1,83-83A83.1,83.1,0,0,1,190.48,1631.64Zm0-162a79,79,0,1,0,79,79A79.09,79.09,0,0,0,190.48,1469.64Z" transform="translate(-106.6 -1463.99)"/></g><g class="cls-4"><rect class="cls-1" x="769.64" y="81.31" width="132.8" height="6.68"/></g><g class="cls-4"><rect class="cls-1" x="469.82" y="81.31" width="133.82" height="6.68"/></g><g class="cls-4"><rect class="cls-1" x="166.89" y="81.31" width="136.93" height="6.68"/></g></svg>