<svg width="29" height="28" viewBox="0 0 29 28" fill="none" xmlns="http://www.w3.org/2000/svg">
<g id="Isolation_Mode" clip-path="url(#clip0_1848_1037)">
<path id="Vector" d="M2.27328 20.1121C2.96977 19.758 6.37027 18.0305 6.95555 17.7924C7.54084 17.5543 8.05001 17.4383 8.50653 18.1525C8.96306 18.8668 10.2975 20.4722 10.6897 20.9362C11.0818 21.4001 11.4915 21.4734 12.188 21.1132C14.2242 20.2747 16.1025 19.0678 17.7365 17.5482C19.2402 16.1161 20.5303 14.4577 21.5642 12.628C21.9564 11.9138 21.5994 11.5292 21.2599 11.169C20.9204 10.8089 20.5751 10.3327 20.2181 9.94815L19.9723 9.6063C19.809 9.33127 19.6624 9.04584 19.5333 8.75168C19.4445 8.55954 19.4028 8.3474 19.412 8.13431C19.4212 7.92121 19.4809 7.71383 19.586 7.53079C19.7615 7.17063 21.1428 3.66057 21.7223 2.23213C22.3017 0.803688 22.8636 1.05398 23.2733 1.05398C23.683 1.05398 24.1278 0.986816 24.5843 0.986816C24.9338 0.99539 25.2779 1.07896 25.5951 1.23229C25.9123 1.38563 26.1958 1.60544 26.4279 1.87806C27.2029 2.63272 27.819 3.54716 28.2372 4.56335C28.6553 5.57954 28.8663 6.6753 28.8569 7.78108C28.8474 8.60792 28.7293 9.42951 28.5057 10.2229C27.9655 12.0057 27.1317 13.6769 26.0417 15.1614C25.7022 15.6314 21.2833 23.0666 14.2833 25.9296C7.28329 28.7926 7.25987 27.8281 6.01322 27.6999C4.76656 27.5717 1.91626 25.9846 1.36609 24.312C0.815927 22.6393 0.780809 21.2231 0.962247 20.924C1.14369 20.6249 1.59435 20.4722 2.27328 20.1121Z" fill="#DE0F7E"/>
</g>
<defs>
<clipPath id="clip0_1848_1037">
<rect width="28" height="27" fill="white" transform="translate(0.862793 0.962402)"/>
</clipPath>
</defs>
</svg>
