<svg width="18" height="34" viewBox="0 0 18 34" fill="none" xmlns="http://www.w3.org/2000/svg">
<g id="Isolation_Mode" clip-path="url(#clip0_1848_1076)">
<path id="Vector" d="M9.62281 0.100098C10.0422 0.18036 10.4615 0.242196 10.8747 0.353328C14.2671 1.26708 16.4266 3.44029 17.1651 6.79894C17.6058 8.80847 17.2732 10.9078 16.2321 12.689C15.191 14.4701 13.5157 15.8059 11.5319 16.4366C10.8684 16.6527 10.1673 16.7575 9.44127 16.9242V17.2577C9.44127 22.2545 9.44127 27.2492 9.44127 32.2419C9.44698 32.4019 9.43015 32.5619 9.39123 32.7174C9.35623 32.8279 9.28631 32.9246 9.19173 32.9932C9.09715 33.0618 8.98284 33.0987 8.86544 33.0987C8.74803 33.0987 8.63369 33.0618 8.5391 32.9932C8.44452 32.9246 8.37464 32.8279 8.33965 32.7174C8.30072 32.5619 8.28389 32.4019 8.2896 32.2419C8.2896 27.2451 8.2896 22.2504 8.2896 17.2577V16.8626C7.26234 16.7878 6.25725 16.5305 5.32274 16.1032C4.00374 15.5401 2.85945 14.6426 2.00629 13.5017C1.15313 12.3609 0.621551 11.0174 0.465593 9.60814C0.00867119 5.90374 1.5234 3.09462 4.73438 1.16834C5.6665 0.629217 6.7027 0.288444 7.77634 0.168078C7.88189 0.151343 7.98638 0.128601 8.0893 0.100098H9.62281ZM8.25827 6.24334C8.22783 5.67332 7.97684 5.13642 7.55702 4.74356C7.13719 4.35069 6.58054 4.13173 6.00184 4.13173C5.42315 4.13173 4.86653 4.35069 4.44671 4.74356C4.02688 5.13642 3.77586 5.67332 3.74541 6.24334C3.72927 6.54549 3.77565 6.84772 3.88176 7.13161C3.98787 7.41549 4.15147 7.67511 4.36258 7.89461C4.5737 8.11412 4.82794 8.28885 5.10976 8.40831C5.39158 8.52777 5.6951 8.58934 6.00184 8.58934C6.30858 8.58934 6.61214 8.52777 6.89396 8.40831C7.17579 8.28885 7.42998 8.11412 7.6411 7.89461C7.85222 7.67511 8.01582 7.41549 8.12193 7.13161C8.22803 6.84772 8.27441 6.54549 8.25827 6.24334Z" fill="#DE0F7E"/>
</g>
<defs>
<clipPath id="clip0_1848_1076">
<rect width="17" height="33" fill="white" transform="translate(0.353027 0.100098)"/>
</clipPath>
</defs>
</svg>
