<svg width="846" height="717" viewBox="0 0 846 717" fill="none" xmlns="http://www.w3.org/2000/svg">
<g filter="url(#filter0_d_2213_378)">
<path d="M586.405 509.619C703.921 509.619 799.187 414.354 799.187 296.838C799.187 179.322 703.921 84.0564 586.405 84.0564C468.889 84.0564 373.624 179.322 373.624 296.838C373.624 414.354 468.889 509.619 586.405 509.619Z" fill="white"/>
<path d="M507.435 497.144C396.973 453.608 342.521 328.331 386.056 217.868C429.592 107.405 554.869 52.9537 665.332 96.489C775.795 140.024 830.247 265.302 786.711 375.765C743.176 486.228 617.898 540.679 507.435 497.144ZM663.47 101.211C555.606 58.7151 433.274 111.867 390.778 219.731C348.282 327.594 401.435 449.926 509.298 492.422C617.162 534.918 739.494 481.766 781.99 373.902C824.485 266.038 771.333 143.706 663.47 101.211Z" fill="#231F20"/>
<path d="M586.405 492.249C694.328 492.249 781.816 404.76 781.816 296.838C781.816 188.916 694.328 101.427 586.405 101.427C478.483 101.427 390.995 188.916 390.995 296.838C390.995 404.76 478.483 492.249 586.405 492.249Z" fill="#E01E89"/>
<path d="M636.265 171.82C639.817 168.831 645.925 169.654 648.178 173.813C649.044 175.026 648.871 176.542 648.784 177.928C648.091 178.795 647.615 179.834 646.748 180.527C643.456 183.386 637.782 182.997 635.182 179.444C633.363 177.149 633.883 173.51 636.222 171.777L636.265 171.82Z" fill="white"/>
<path d="M573.886 154.796C576.096 155.229 578.305 156.312 579.388 158.348C580.731 160.557 579.994 163.503 578.132 165.192C574.883 168.094 569.208 167.748 566.522 164.239C565.093 162.463 564.919 159.821 566.219 157.958C567.822 155.489 570.984 154.406 573.843 154.796H573.886Z" fill="white"/>
<path d="M637.825 184.903L638.388 185.206C635.702 193.436 633.623 201.84 631.067 210.071C629.378 216.309 627.515 222.503 625.739 228.741C625.479 229.954 625.132 231.124 624.656 232.207C620.887 231.34 617.075 231.037 613.263 230.387C595.546 228.005 577.655 226.055 559.764 226.748C547.635 227.138 535.549 228.091 523.463 229.434C521.861 229.521 520.258 230.041 518.612 229.824C514.583 213.666 510.381 197.508 506.266 181.35C510.468 187.415 515.363 193.046 521.297 197.465C525.499 200.757 530.438 202.923 535.549 204.483C535.159 204.223 534.77 204.006 534.336 203.746C536.112 204.656 538.148 204.786 540.098 204.916C546.769 205.262 553.613 203.053 558.682 198.678C562.883 195.212 565.829 190.534 568.125 185.682C570.118 180.96 571.72 175.979 572.327 170.867C572.414 170.564 572.587 170.001 572.673 169.741C573.496 177.452 575.749 185.119 579.691 191.79C583.46 198.115 589.438 203.226 596.585 205.262C595.502 204.699 594.419 204.179 593.336 203.616C596.542 205.392 600.224 206.215 603.906 206.129C611.747 206.129 619.198 202.577 625.306 197.811C630.071 194.086 634.403 189.754 637.825 184.773V184.903Z" fill="white"/>
<path d="M505.14 167.445C508.432 167.922 511.637 171.214 510.814 174.679C509.471 180.224 501.241 181.35 497.775 177.192C495.783 175.199 495.783 171.734 497.689 169.698C499.595 167.748 502.497 166.882 505.14 167.402V167.445Z" fill="white"/>
<path d="M631.37 237.101C648.568 240.437 665.462 245.765 681.1 253.692C689.807 258.197 698.168 263.612 704.839 270.847C708.434 274.745 711.38 279.207 713.459 284.102C716.925 292.073 718.874 300.866 717.921 309.53C717.098 317.631 713.633 325.168 709.387 332.013C702.456 342.929 692.97 351.983 682.703 359.78C669.924 369.57 655.499 377.281 640.121 382.132C645.839 392.139 650.171 402.882 654.069 413.712C645.362 419.69 636.699 425.668 627.991 431.602C618.635 418.737 608.368 406.521 597.755 394.608C583.546 396.038 569.208 396.038 554.999 394.738C545.426 393.915 535.939 392.356 526.496 390.666C516.576 388.803 506.656 386.767 497.082 383.475C488.635 380.573 480.968 375.721 474.08 370.046C468.362 365.325 462.774 360.3 458.399 354.235C454.673 349.08 451.771 343.275 450.471 337.038C448.609 328.85 448.782 320.1 451.598 312.129C454.76 303.206 460.088 295.105 466.803 288.434C476.593 278.687 488.938 271.93 501.761 266.991C516.966 261.1 533.08 257.851 549.281 256.768C565.353 255.642 581.51 256.508 597.452 258.761C594.593 262.529 591.734 266.341 588.918 270.153C571.331 269.114 553.613 270.11 536.372 273.792C520.388 277.344 504.23 282.716 491.581 293.459C492.924 308.88 497.082 324.345 505.399 337.514C513.717 350.813 526.279 361.123 540.444 367.707C553.31 373.858 567.432 376.761 581.51 378.45C567.215 365.715 552.01 353.715 535.116 344.575C550.104 339.42 565.223 334.742 580.731 331.363C582.723 331.06 584.673 330.366 586.665 330.41C592.253 332.489 597.538 335.435 602.52 338.684C609.711 343.405 615.819 349.6 621.537 356.011C625.046 360.04 628.425 364.242 631.544 368.617C643.196 356.704 652.033 342.063 656.885 326.078C659.787 316.634 661.304 306.584 659.831 296.751C657.968 283.929 650.431 272.276 640.077 264.565C632.193 258.587 622.923 254.775 613.48 251.916C595.113 246.415 575.792 244.899 556.732 245.462C549.628 245.678 542.567 246.112 535.506 246.935C529.961 242.559 524.243 238.401 518.828 233.896C536.286 232.336 553.786 231.427 571.331 231.556C591.474 231.73 611.66 233.246 631.414 237.101H631.37Z" fill="white"/>
</g>
<g filter="url(#filter1_d_2213_378)">
<path d="M250.772 452.916C368.288 452.916 463.554 357.65 463.554 240.134C463.554 122.618 368.288 27.3529 250.772 27.3529C133.256 27.3529 37.9905 122.618 37.9905 240.134C37.9905 357.65 133.256 452.916 250.772 452.916Z" fill="white"/>
<path d="M250.772 455.471C132.035 455.471 35.478 358.871 35.478 240.177C35.478 121.484 132.079 24.8401 250.772 24.8401C369.465 24.8401 466.066 121.441 466.066 240.134C466.066 358.827 369.465 455.428 250.772 455.428V455.471ZM250.772 29.9084C134.851 29.9084 40.5463 124.213 40.5463 240.134C40.5463 356.055 134.851 450.403 250.815 450.403C366.78 450.403 461.084 356.098 461.084 240.134C461.084 124.17 366.736 29.9084 250.772 29.9084Z" fill="#231F20"/>
<path d="M250.772 435.545C358.694 435.545 446.183 348.057 446.183 240.134C446.183 132.212 358.694 44.7238 250.772 44.7238C142.85 44.7238 55.3613 132.212 55.3613 240.134C55.3613 348.057 142.85 435.545 250.772 435.545Z" fill="#E01E89"/>
<path d="M251.335 105.543C253.544 101.471 259.522 99.9979 263.161 103.03C264.417 103.853 264.807 105.326 265.241 106.669C264.894 107.709 264.851 108.878 264.331 109.831C262.338 113.687 256.88 115.419 253.155 113.037C250.599 111.607 249.776 107.969 251.335 105.543Z" fill="white"/>
<path d="M187.05 112.604C189.259 112.214 191.729 112.431 193.505 113.904C195.584 115.463 195.931 118.496 194.848 120.748C192.898 124.647 187.483 126.38 183.715 124.127C181.765 123.001 180.596 120.618 181.116 118.409C181.722 115.507 184.278 113.341 187.05 112.647V112.604Z" fill="white"/>
<path d="M257.573 117.109L258.223 117.196C258.743 125.816 259.912 134.393 260.519 143.014C261.212 149.425 261.775 155.879 262.381 162.334C262.598 163.547 262.685 164.76 262.641 165.973C258.829 166.536 255.147 167.662 251.378 168.485C234.008 172.774 216.68 177.539 200.262 184.73C189.129 189.538 178.213 194.866 167.47 200.541C165.997 201.234 164.698 202.274 163.095 202.664C153.392 189.105 143.602 175.633 133.855 162.117C139.963 166.189 146.591 169.698 153.738 171.604C158.85 173.164 164.265 173.337 169.549 172.904C169.073 172.817 168.64 172.73 168.163 172.687C170.156 172.86 172.105 172.254 173.968 171.647C180.292 169.525 185.837 164.976 188.956 159.042C191.599 154.277 192.595 148.862 192.985 143.49C193.115 138.335 192.768 133.18 191.469 128.199C191.469 127.895 191.382 127.289 191.339 127.029C194.934 133.917 199.829 140.198 205.98 144.963C211.829 149.468 219.236 152.024 226.644 151.288C225.431 151.158 224.218 151.071 223.005 150.984C226.644 151.461 230.369 150.854 233.748 149.468C241.069 146.566 246.657 140.545 250.599 133.917C253.674 128.719 256.1 123.087 257.443 117.196L257.573 117.109Z" fill="white"/>
<path d="M127.747 149.554C130.996 148.775 135.154 150.681 135.674 154.233C136.454 159.908 129.22 163.936 124.455 161.38C121.856 160.297 120.599 157.049 121.639 154.449C122.679 151.937 125.061 150.074 127.747 149.598V149.554Z" fill="white"/>
<path d="M270.699 168.095C287.94 164.933 305.57 163.633 323.028 165.323C332.774 166.319 342.521 168.268 351.401 172.557C356.167 174.853 360.585 177.928 364.267 181.741C370.418 187.848 375.443 195.343 377.739 203.79C379.948 211.587 379.472 219.904 378.042 227.832C375.617 240.524 370.115 252.437 363.401 263.44C355.084 277.258 344.514 289.691 331.951 299.827C340.962 307.062 348.889 315.465 356.513 324.086C350.622 332.836 344.73 341.587 338.796 350.294C325.367 341.76 311.332 334.136 297.123 326.945C284.431 333.486 271.089 338.728 257.4 342.756C248.216 345.485 238.816 347.521 229.416 349.384C219.496 351.29 209.489 353.023 199.396 353.456C190.472 353.846 181.549 352.113 173.058 349.427C165.997 347.131 158.98 344.489 152.698 340.46C147.327 337.038 142.519 332.706 139.01 327.335C134.288 320.404 131.256 312.216 130.909 303.769C130.563 294.326 132.555 284.839 136.367 276.175C141.912 263.526 150.922 252.697 161.016 243.383C172.972 232.337 186.79 223.413 201.475 216.439C216.03 209.508 231.365 204.396 247.003 200.627C245.704 205.219 244.491 209.768 243.235 214.36C226.514 219.861 210.356 227.268 195.671 237.015C182.112 246.155 169.03 257.115 161.232 271.757C168.12 285.619 177.65 298.484 190.256 307.668C202.862 316.982 218.37 321.963 233.964 322.916C248.173 323.956 262.381 321.443 276.114 317.848C258.136 311.22 239.596 305.632 220.536 303.379C232.578 293.113 244.967 283.193 258.093 274.356C259.826 273.36 261.385 271.973 263.291 271.28C269.269 271.194 275.247 271.973 281.052 273.186C289.499 274.962 297.426 278.471 305.094 282.327C309.859 284.796 314.537 287.438 318.999 290.384C325.497 275.049 328.313 258.155 326.97 241.52C326.19 231.687 323.937 221.767 318.956 213.19C312.545 201.927 301.238 193.87 288.806 190.491C279.276 187.805 269.226 187.675 259.436 188.455C240.332 190.058 221.792 195.776 204.248 203.27C197.75 206.086 191.295 209.075 185.014 212.41C178.257 210.374 171.412 208.598 164.741 206.432C180.422 198.591 196.364 191.314 212.738 185.033C231.539 177.799 250.859 171.821 270.699 168.138V168.095Z" fill="white"/>
</g>
<g filter="url(#filter2_d_2213_378)">
<path d="M250.772 681.119C368.288 681.119 463.554 585.853 463.554 468.337C463.554 350.821 368.288 255.556 250.772 255.556C133.256 255.556 37.9905 350.821 37.9905 468.337C37.9905 585.853 133.256 681.119 250.772 681.119Z" fill="white"/>
<path d="M250.772 683.674C132.035 683.674 35.478 587.074 35.478 468.38C35.478 349.687 132.079 253.086 250.772 253.086C369.465 253.086 466.066 349.687 466.066 468.38C466.066 587.074 369.465 683.674 250.772 683.674ZM250.772 258.111C134.851 258.111 40.503 352.416 40.503 468.38C40.503 584.344 134.808 678.649 250.772 678.649C366.736 678.649 461.041 584.344 461.041 468.38C461.041 352.416 366.736 258.111 250.772 258.111Z" fill="#231F20"/>
<path d="M250.772 663.748C358.694 663.748 446.183 576.26 446.183 468.337C446.183 360.415 358.694 272.927 250.772 272.927C142.85 272.927 55.3613 360.415 55.3613 468.337C55.3613 576.26 142.85 663.748 250.772 663.748Z" fill="#E01E89"/>
<path d="M251.335 333.745C253.544 329.673 259.522 328.201 263.161 331.233C264.417 332.056 264.807 333.529 265.241 334.872C264.894 335.911 264.851 337.081 264.331 338.034C262.338 341.889 256.88 343.622 253.155 341.239C250.599 339.81 249.776 336.171 251.335 333.745Z" fill="white"/>
<path d="M187.05 340.807C189.259 340.417 191.729 340.634 193.505 342.106C195.584 343.666 195.931 346.698 194.848 348.951C192.898 352.849 187.483 354.582 183.715 352.33C181.765 351.203 180.596 348.821 181.116 346.612C181.722 343.709 184.278 341.543 187.05 340.85V340.807Z" fill="white"/>
<path d="M257.573 345.312L258.223 345.398C258.743 354.019 259.912 362.596 260.519 371.216C261.212 377.628 261.775 384.082 262.381 390.537C262.598 391.749 262.685 392.962 262.641 394.175C258.829 394.738 255.147 395.865 251.378 396.688C234.008 400.976 216.68 405.741 200.262 412.932C189.129 417.741 178.213 423.069 167.47 428.744C165.997 429.437 164.698 430.476 163.095 430.866C153.392 417.307 143.602 403.835 133.855 390.32C139.963 394.392 146.591 397.901 153.738 399.807C158.85 401.366 164.265 401.539 169.549 401.106C169.073 401.02 168.64 400.933 168.163 400.89C170.156 401.063 172.105 400.457 173.968 399.85C180.292 397.727 185.837 393.179 188.956 387.244C191.599 382.479 192.595 377.064 192.985 371.693C193.115 366.538 192.768 361.383 191.469 356.401C191.469 356.098 191.382 355.492 191.339 355.232C194.934 362.119 199.829 368.401 205.98 373.166C211.829 377.671 219.236 380.227 226.644 379.49C225.431 379.36 224.218 379.274 223.005 379.187C226.644 379.664 230.369 379.057 233.748 377.671C241.069 374.768 246.657 368.747 250.599 362.119C253.674 356.921 256.1 351.29 257.443 345.398L257.573 345.312Z" fill="white"/>
<path d="M127.747 377.757C130.996 376.977 135.154 378.883 135.674 382.435C136.454 388.11 129.22 392.139 124.455 389.583C121.856 388.5 120.599 385.251 121.639 382.652C122.679 380.14 125.061 378.277 127.747 377.8V377.757Z" fill="white"/>
<path d="M270.699 396.298C287.94 393.136 305.57 391.836 323.028 393.526C332.774 394.522 342.521 396.471 351.401 400.76C356.167 403.056 360.585 406.131 364.267 409.943C370.418 416.051 375.443 423.545 377.739 431.993C379.948 439.79 379.472 448.107 378.042 456.035C375.617 468.727 370.115 480.64 363.401 491.643C355.084 505.461 344.514 517.894 331.951 528.03C340.962 535.264 348.889 543.668 356.513 552.289C350.622 561.039 344.73 569.789 338.796 578.497C325.367 569.963 311.332 562.339 297.123 555.148C284.431 561.689 271.089 566.93 257.4 570.959C248.216 573.688 238.816 575.724 229.416 577.587C219.496 579.493 209.489 581.226 199.396 581.659C190.472 582.049 181.549 580.316 173.058 577.63C165.997 575.334 158.98 572.692 152.698 568.663C147.327 565.241 142.519 560.909 139.01 555.538C134.288 548.607 131.256 540.419 130.909 531.972C130.563 522.529 132.555 513.042 136.367 504.378C141.912 491.729 150.922 480.899 161.016 471.586C172.972 460.54 186.79 451.616 201.475 444.642C216.03 437.711 231.365 432.599 247.003 428.83C245.704 433.422 244.491 437.971 243.235 442.562C226.514 448.064 210.356 455.471 195.671 465.218C182.112 474.358 169.03 485.318 161.232 499.96C168.12 513.822 177.65 526.687 190.256 535.871C202.862 545.184 218.37 550.166 233.964 551.119C248.173 552.159 262.381 549.646 276.114 546.051C258.136 539.423 239.596 533.835 220.536 531.582C232.578 521.316 244.967 511.396 258.093 502.559C259.826 501.562 261.385 500.176 263.291 499.483C269.269 499.397 275.247 500.176 281.052 501.389C289.499 503.165 297.426 506.674 305.094 510.529C309.859 512.999 314.537 515.641 318.999 518.587C325.497 503.252 328.313 486.358 326.97 469.723C326.19 459.89 323.937 449.97 318.956 441.393C312.545 430.13 301.238 422.073 288.806 418.694C279.276 416.008 269.226 415.878 259.436 416.658C240.332 418.261 221.792 423.979 204.248 431.473C197.75 434.289 191.295 437.277 185.014 440.613C178.257 438.577 171.412 436.801 164.741 434.635C180.422 426.794 196.364 419.517 212.738 413.236C231.539 406.001 250.859 400.023 270.699 396.341V396.298Z" fill="white"/>
</g>
<g filter="url(#filter3_d_2213_378)">
<path d="M414.69 648.326C532.206 648.326 627.472 553.061 627.472 435.545C627.472 318.029 532.206 222.763 414.69 222.763C297.174 222.763 201.909 318.029 201.909 435.545C201.909 553.061 297.174 648.326 414.69 648.326Z" fill="white"/>
<path d="M414.69 650.882C295.954 650.882 199.396 554.281 199.396 435.588C199.396 316.894 295.997 220.294 414.69 220.294C533.383 220.294 629.984 316.894 629.984 435.588C629.984 554.281 533.383 650.882 414.69 650.882ZM414.69 225.319C298.769 225.319 204.421 319.623 204.421 435.588C204.421 551.552 298.726 645.857 414.69 645.857C530.654 645.857 624.959 551.552 624.959 435.588C624.959 319.623 530.654 225.319 414.69 225.319Z" fill="#231F20"/>
<path d="M414.69 630.955C522.612 630.955 610.101 543.467 610.101 435.544C610.101 327.622 522.612 240.134 414.69 240.134C306.768 240.134 219.279 327.622 219.279 435.544C219.279 543.467 306.768 630.955 414.69 630.955Z" fill="#E01E89"/>
<path d="M415.253 300.953C417.462 296.881 423.44 295.408 427.079 298.44C428.335 299.263 428.725 300.736 429.159 302.079C428.812 303.119 428.769 304.288 428.249 305.241C426.256 309.097 420.798 310.83 417.073 308.447C414.517 307.017 413.694 303.379 415.253 300.953Z" fill="white"/>
<path d="M350.968 308.014C353.177 307.624 355.647 307.841 357.423 309.314C359.502 310.873 359.849 313.906 358.766 316.158C356.816 320.057 351.401 321.79 347.633 319.537C345.683 318.411 344.514 316.028 345.034 313.819C345.64 310.917 348.196 308.751 350.968 308.058V308.014Z" fill="white"/>
<path d="M421.534 312.563L422.184 312.649C422.704 321.27 423.874 329.847 424.48 338.467C425.173 344.879 425.736 351.333 426.343 357.787C426.559 359 426.646 360.213 426.603 361.426C422.791 361.989 419.109 363.116 415.34 363.939C397.969 368.227 380.642 372.992 364.224 380.183C353.091 384.992 342.175 390.32 331.432 395.995C329.959 396.688 328.659 397.727 327.056 398.117C317.353 384.558 307.563 371.086 297.816 357.571C303.924 361.643 310.552 365.152 317.699 367.058C322.811 368.617 328.226 368.79 333.511 368.357C333.034 368.271 332.601 368.184 332.125 368.141C334.117 368.314 336.067 367.707 337.929 367.101C344.254 364.978 349.799 360.43 352.918 354.495C355.56 349.73 356.556 344.315 356.946 338.944C357.076 333.789 356.73 328.634 355.43 323.652C355.43 323.349 355.343 322.743 355.3 322.483C358.896 329.37 363.791 335.652 369.942 340.417C375.79 344.922 383.197 347.478 390.605 346.741C389.392 346.611 388.179 346.525 386.966 346.438C390.605 346.914 394.33 346.308 397.709 344.922C405.03 342.019 410.618 335.998 414.56 329.37C417.636 324.172 420.062 318.541 421.404 312.649L421.534 312.563Z" fill="white"/>
<path d="M291.665 344.965C294.914 344.185 299.072 346.091 299.592 349.643C300.372 355.318 293.138 359.346 288.373 356.791C285.774 355.708 284.517 352.459 285.557 349.86C286.597 347.347 288.979 345.484 291.665 345.008V344.965Z" fill="white"/>
<path d="M434.617 363.505C451.858 360.343 469.488 359.043 486.946 360.733C496.692 361.729 506.439 363.679 515.319 367.967C520.085 370.263 524.503 373.339 528.185 377.151C534.336 383.259 539.361 390.753 541.657 399.2C543.867 406.997 543.39 415.314 541.96 423.242C539.535 435.934 534.033 447.847 527.319 458.85C519.002 472.668 508.432 485.101 495.869 495.237C504.88 502.472 512.807 510.876 520.431 519.496C514.54 528.246 508.648 536.997 502.714 545.704C489.285 537.17 475.25 529.546 461.041 522.355C448.349 528.896 435.007 534.138 421.318 538.166C412.134 540.895 402.734 542.931 393.334 544.794C383.414 546.7 373.407 548.433 363.314 548.866C354.39 549.256 345.467 547.523 336.976 544.837C329.915 542.542 322.898 539.899 316.616 535.87C311.245 532.448 306.437 528.116 302.928 522.745C298.206 515.814 295.174 507.627 294.827 499.18C294.481 489.736 296.473 480.249 300.285 471.585C305.83 458.936 314.84 448.107 324.934 438.793C336.89 427.747 350.708 418.823 365.393 411.849C379.948 404.918 395.283 399.806 410.921 396.038C409.622 400.629 408.409 405.178 407.153 409.77C390.432 415.271 374.274 422.679 359.589 432.425C346.03 441.566 332.948 452.525 325.15 467.167C332.038 481.029 341.568 493.895 354.174 503.078C366.78 512.392 382.288 517.373 397.882 518.326C412.091 519.366 426.3 516.854 440.032 513.258C422.054 506.63 403.514 501.042 384.454 498.79C396.496 488.523 408.885 478.603 422.011 469.766C423.744 468.77 425.303 467.384 427.209 466.69C433.187 466.604 439.165 467.384 444.97 468.596C453.417 470.373 461.344 473.881 469.012 477.737C473.777 480.206 478.455 482.848 482.917 485.794C489.415 470.459 492.231 453.565 490.888 436.93C490.108 427.097 487.855 417.177 482.874 408.6C476.463 397.337 465.156 389.28 452.724 385.901C443.194 383.215 433.144 383.085 423.354 383.865C404.25 385.468 385.71 391.186 368.166 398.68C361.668 401.496 355.213 404.485 348.932 407.82C342.175 405.784 335.33 404.008 328.659 401.842C344.34 394.002 360.282 386.724 376.656 380.443C395.457 373.209 414.777 367.231 434.617 363.549V363.505Z" fill="white"/>
</g>
<defs>
<filter id="filter0_d_2213_378" x="342.289" y="52.7218" width="488.189" height="488.189" filterUnits="userSpaceOnUse" color-interpolation-filters="sRGB">
<feFlood flood-opacity="0" result="BackgroundImageFix"/>
<feColorMatrix in="SourceAlpha" type="matrix" values="0 0 0 0 0 0 0 0 0 0 0 0 0 0 0 0 0 0 127 0" result="hardAlpha"/>
<feOffset/>
<feGaussianBlur stdDeviation="14.3818"/>
<feColorMatrix type="matrix" values="0 0 0 0 0 0 0 0 0 0 0 0 0 0 0 0 0 0 0.3 0"/>
<feBlend mode="normal" in2="BackgroundImageFix" result="effect1_dropShadow_2213_378"/>
<feBlend mode="normal" in="SourceGraphic" in2="effect1_dropShadow_2213_378" result="shape"/>
</filter>
<filter id="filter1_d_2213_378" x="26.8143" y="16.1763" width="488.115" height="488.159" filterUnits="userSpaceOnUse" color-interpolation-filters="sRGB">
<feFlood flood-opacity="0" result="BackgroundImageFix"/>
<feColorMatrix in="SourceAlpha" type="matrix" values="0 0 0 0 0 0 0 0 0 0 0 0 0 0 0 0 0 0 127 0" result="hardAlpha"/>
<feOffset dx="20.0999" dy="20.0999"/>
<feGaussianBlur stdDeviation="14.3818"/>
<feColorMatrix type="matrix" values="0 0 0 0 0 0 0 0 0 0 0 0 0 0 0 0 0 0 0.6 0"/>
<feBlend mode="normal" in2="BackgroundImageFix" result="effect1_dropShadow_2213_378"/>
<feBlend mode="normal" in="SourceGraphic" in2="effect1_dropShadow_2213_378" result="shape"/>
</filter>
<filter id="filter2_d_2213_378" x="15.3348" y="212.843" width="488.115" height="488.115" filterUnits="userSpaceOnUse" color-interpolation-filters="sRGB">
<feFlood flood-opacity="0" result="BackgroundImageFix"/>
<feColorMatrix in="SourceAlpha" type="matrix" values="0 0 0 0 0 0 0 0 0 0 0 0 0 0 0 0 0 0 127 0" result="hardAlpha"/>
<feOffset dx="8.62043" dy="-11.4795"/>
<feGaussianBlur stdDeviation="14.3818"/>
<feColorMatrix type="matrix" values="0 0 0 0 0 0 0 0 0 0 0 0 0 0 0 0 0 0 0.6 0"/>
<feBlend mode="normal" in2="BackgroundImageFix" result="effect1_dropShadow_2213_378"/>
<feBlend mode="normal" in="SourceGraphic" in2="effect1_dropShadow_2213_378" result="shape"/>
</filter>
<filter id="filter3_d_2213_378" x="162.012" y="191.53" width="488.115" height="488.115" filterUnits="userSpaceOnUse" color-interpolation-filters="sRGB">
<feFlood flood-opacity="0" result="BackgroundImageFix"/>
<feColorMatrix in="SourceAlpha" type="matrix" values="0 0 0 0 0 0 0 0 0 0 0 0 0 0 0 0 0 0 127 0" result="hardAlpha"/>
<feOffset dx="-8.62043"/>
<feGaussianBlur stdDeviation="14.3818"/>
<feColorMatrix type="matrix" values="0 0 0 0 0 0 0 0 0 0 0 0 0 0 0 0 0 0 0.6 0"/>
<feBlend mode="normal" in2="BackgroundImageFix" result="effect1_dropShadow_2213_378"/>
<feBlend mode="normal" in="SourceGraphic" in2="effect1_dropShadow_2213_378" result="shape"/>
</filter>
</defs>
</svg>
