<svg width="130" height="52" viewBox="0 0 130 52" fill="none" xmlns="http://www.w3.org/2000/svg">
<mask id="mask0_2062_312" style="mask-type:alpha" maskUnits="userSpaceOnUse" x="0" y="0" width="130" height="52">
<rect x="0.256348" y="0.925781" width="129.083" height="50.4536" rx="8" fill="#F4C6DD"/>
</mask>
<g mask="url(#mask0_2062_312)">
<g opacity="0.5">
<path d="M54.5856 3.5468C55.5012 1.84645 58.019 1.22516 59.5341 2.50043C60.0572 2.83832 60.2207 3.4487 60.406 4.01549C60.2643 4.45148 60.2534 4.93106 60.0245 5.34525C59.1853 6.94751 56.9181 7.67779 55.3595 6.68591C54.3022 6.07553 53.9425 4.57137 54.5965 3.5468H54.5856Z" fill="white"/>
<path d="M27.7286 6.48975C28.6441 6.31536 29.6796 6.41345 30.4208 7.03474C31.2819 7.67782 31.4454 8.95308 30.9876 9.89046C30.1701 11.5254 27.9139 12.2448 26.3334 11.2965C25.5159 10.8278 25.0363 9.83596 25.2434 8.89858C25.4941 7.67782 26.5623 6.78404 27.7286 6.50065V6.48975Z" fill="white"/>
<path d="M57.2129 8.38684L57.4854 8.41954C57.7034 12.0273 58.183 15.6133 58.4555 19.2102C58.7497 21.9025 58.9895 24.5947 59.2402 27.2869C59.3274 27.7883 59.371 28.3006 59.3492 28.8129C57.7579 29.0527 56.221 29.5214 54.6406 29.8592C47.3923 31.6577 40.144 33.6414 33.2772 36.6498C28.623 38.6553 24.056 40.8897 19.5762 43.255C18.9658 43.5493 18.4209 43.9853 17.7451 44.1488C13.7013 38.4809 9.60301 32.8458 5.51562 27.1997C8.07705 28.911 10.8456 30.3606 13.8321 31.1672C15.9684 31.8103 18.2247 31.8866 20.4373 31.7122C20.2411 31.6795 20.0558 31.6468 19.8596 31.6141C20.688 31.6904 21.4946 31.4288 22.2794 31.1781C24.928 30.2952 27.2496 28.3878 28.5467 25.9027C29.6475 23.9189 30.0726 21.6518 30.2361 19.4064C30.2906 17.2592 30.1489 15.0902 29.604 13.0083C29.5931 12.8884 29.5713 12.6377 29.5604 12.5069C31.0645 15.3844 33.1028 18.0113 35.6751 20.0059C38.1166 21.8916 41.223 22.9597 44.3185 22.6545C43.8172 22.5891 43.3158 22.5564 42.8035 22.5237C44.3294 22.7199 45.8772 22.4802 47.2942 21.8807C50.3461 20.6708 52.6895 18.153 54.3354 15.3735C55.6106 13.2045 56.6352 10.8502 57.202 8.38684H57.2129Z" fill="white"/>
<path d="M2.95455 21.9347C4.31701 21.6077 6.06097 22.4033 6.26807 23.8857C6.58416 26.2509 3.56494 27.9404 1.58119 26.8613C0.502122 26.4035 -0.0210656 25.052 0.404023 23.9729C0.840011 22.9156 1.83188 22.1308 2.95455 21.9347Z" fill="white"/>
<path d="M62.6948 29.6844C69.8886 28.3546 77.2677 27.8205 84.5596 28.5181C88.6252 28.9323 92.7126 29.7498 96.4076 31.5482C98.4022 32.5074 100.244 33.7936 101.781 35.3849C104.353 37.9463 106.457 41.0637 107.405 44.5952C108.332 47.8651 108.136 51.3312 107.525 54.6447C106.501 59.9528 104.201 64.9231 101.411 69.5228C97.9445 75.2887 93.5192 80.4988 88.2764 84.7388C92.0368 87.758 95.3612 91.2677 98.533 94.8755C96.0697 98.5269 93.6064 102.178 91.1321 105.819C85.5188 102.244 79.6548 99.0719 73.7144 96.0744C68.4172 98.8103 62.8365 101.001 57.1142 102.68C53.2666 103.813 49.3427 104.674 45.4079 105.459C41.266 106.255 37.0914 106.985 32.8732 107.17C29.1346 107.345 25.4179 106.614 21.8755 105.481C18.9325 104.522 15.9896 103.41 13.3628 101.731C11.1175 100.304 9.10101 98.4833 7.64045 96.2488C5.6567 93.3495 4.39233 89.927 4.26154 86.3955C4.11984 82.4389 4.95913 78.4823 6.53959 74.8636C8.86122 69.5773 12.6216 65.043 16.8507 61.1627C21.8537 56.5521 27.6305 52.8135 33.767 49.8924C39.8382 46.9931 46.2581 44.8568 52.7979 43.2763C52.2638 45.1837 51.7406 47.1021 51.2284 49.0204C44.2416 51.3203 37.4838 54.4158 31.3582 58.4923C25.6903 62.3181 20.2296 66.885 16.9597 73.0107C19.8481 78.8093 23.8265 84.1829 29.091 88.0305C34.3665 91.9326 40.8409 94.0144 47.348 94.4068C53.2884 94.8319 59.2178 93.7855 64.9511 92.2923C57.4303 89.5346 49.7024 87.1912 41.7238 86.232C46.7486 81.9375 51.9259 77.7847 57.4303 74.1007C58.1496 73.6756 58.8145 73.1088 59.5993 72.8145C62.0953 72.7709 64.5914 73.0979 67.0329 73.5993C70.5535 74.3404 73.8779 75.801 77.0715 77.4142C79.0553 78.4496 81.0063 79.5505 82.8811 80.7822C85.5951 74.3731 86.7832 67.3101 86.2164 60.367C85.9003 56.2578 84.9411 52.116 82.8702 48.5191C80.1779 43.8104 75.4584 40.4424 70.2701 39.0363C66.2917 37.9136 62.0953 37.8592 57.9971 38.1861C50.0185 38.851 42.2688 41.2381 34.9333 44.3772C32.2084 45.5543 29.5161 46.8078 26.9002 48.203C24.0772 47.3528 21.2215 46.6225 18.4202 45.696C24.9601 42.4152 31.6416 39.3742 38.4757 36.7474C46.3344 33.7282 54.4111 31.2212 62.6948 29.6953V29.6844Z" fill="white"/>
</g>
</g>
<path d="M86.8844 27.3748C84.6843 23.1571 80.3962 20.443 75.6565 20.2689L75.099 20.2501L75.6281 19.9375C79.6803 17.535 82.1743 13.1692 82.1923 8.44582L82.3233 8.67823C84.5364 12.6327 88.5921 15.1984 93.1024 15.5127L93.9789 15.5751L93.3356 15.9602C89.5509 18.2178 87.1437 22.2237 86.9211 26.6348L86.8809 27.3805L86.8844 27.3748Z" fill="white" fill-opacity="0.58"/>
<path d="M101.208 28.9165C100.069 26.7345 97.8508 25.3303 95.3987 25.2403L95.1102 25.2305L95.384 25.0688C97.4804 23.8258 98.7707 21.5671 98.78 19.1234L98.8478 19.2437C99.9928 21.2896 102.091 22.617 104.424 22.7796L104.878 22.8119L104.545 23.0111C102.587 24.1791 101.342 26.2516 101.227 28.5337L101.206 28.9195L101.208 28.9165Z" fill="white" fill-opacity="0.58"/>
<path d="M106.778 16.3164C105.722 14.2916 103.663 12.9887 101.388 12.9051L101.12 12.8961L101.374 12.746C103.32 11.5927 104.517 9.49678 104.526 7.22927L104.589 7.34084C105.651 9.23925 107.598 10.471 109.763 10.6219L110.184 10.6518L109.875 10.8367C108.058 11.9205 106.903 13.8436 106.796 15.9612L106.777 16.3192L106.778 16.3164Z" fill="white" fill-opacity="0.58"/>
</svg>
