<svg width="22" height="20" viewBox="0 0 22 20" fill="none" xmlns="http://www.w3.org/2000/svg">
<g id="Isolation_Mode" clip-path="url(#clip0_952_2315)">
<path id="Vector" d="M4.84235 19.6916C4.66741 19.6932 4.49731 19.6352 4.361 19.5272C4.2109 19.4202 4.10463 19.2639 4.06139 19.0865C4.01815 18.9091 4.0408 18.7223 4.12524 18.56L6.30606 12.6211C6.37855 12.4825 6.39241 12.3213 6.34456 12.1727C6.2967 12.0241 6.191 11.9001 6.05064 11.828L1.29603 8.43298C1.12504 8.342 0.989732 8.1975 0.911456 8.02233C0.833179 7.84717 0.816395 7.65134 0.863788 7.46575C0.943264 7.29544 1.07529 7.15418 1.24111 7.06212C1.40693 6.97007 1.59807 6.93195 1.78721 6.95315H7.6814C8.14311 6.95315 8.27081 6.85638 8.41817 6.4308L10.2159 0.956282C10.2159 0.878903 10.2159 0.840181 10.2748 0.801492C10.3267 0.64414 10.4278 0.507034 10.5637 0.409733C10.6996 0.312433 10.8632 0.259936 11.0312 0.259843C11.2012 0.257464 11.3673 0.310128 11.504 0.409733C11.6407 0.509339 11.7403 0.65038 11.7877 0.811173L12.0824 1.70101L13.6541 6.45985C13.6649 6.53643 13.6911 6.6101 13.7312 6.67657C13.7713 6.74303 13.8245 6.80093 13.8877 6.84688C13.9508 6.89283 14.0227 6.92593 14.099 6.94417C14.1753 6.96241 14.2544 6.96547 14.332 6.95315H20.2261C20.3935 6.94259 20.5608 6.97437 20.7121 7.04548C20.8634 7.11659 20.9937 7.22464 21.0906 7.35937C21.1487 7.43437 21.1798 7.52625 21.1791 7.62054V7.88165C21.178 7.9457 21.1635 8.00888 21.1364 8.06714C21.1094 8.1254 21.0704 8.17752 21.0219 8.22022L20.9138 8.30724C20.8254 8.37494 20.7468 8.45235 20.6486 8.52006L16.7192 11.3444L15.9922 11.8667C15.916 11.9033 15.8482 11.9549 15.7932 12.0184C15.7381 12.0818 15.6968 12.1558 15.6719 12.2356C15.647 12.3154 15.6391 12.3994 15.6486 12.4823C15.6581 12.5653 15.6847 12.6454 15.727 12.7178L17.8587 18.5212C17.8874 18.5902 17.9104 18.6614 17.9274 18.7341C17.9693 18.881 17.9654 19.037 17.9163 19.1818C17.8673 19.3266 17.7754 19.4536 17.6523 19.5465C17.5209 19.6446 17.3605 19.6976 17.1956 19.6976C17.0307 19.6976 16.8702 19.6446 16.7388 19.5465C16.6111 19.4691 16.4932 19.3821 16.3753 19.295L11.4635 15.6872C11.4087 15.6331 11.3437 15.5902 11.272 15.5609C11.2004 15.5316 11.1236 15.5166 11.046 15.5166C10.9684 15.5166 10.8916 15.5316 10.8199 15.5609C10.7483 15.5902 10.6832 15.6331 10.6285 15.6872L5.43174 19.4885C5.26883 19.6278 5.05796 19.7005 4.84235 19.6916ZM10.9821 14.6426C11.34 14.6466 11.6861 14.7693 11.9645 14.9909L16.8763 18.5986L14.8134 12.9887C14.6599 12.6608 14.6352 12.2886 14.7441 11.9439C14.8529 11.5991 15.0876 11.3063 15.4028 11.1219L16.1199 10.5996L20.0493 7.81394H14.3025C13.957 7.83983 13.6134 7.74423 13.3327 7.54409C13.0521 7.34395 12.8528 7.05226 12.77 6.72096L11.1982 1.9525L11.0018 1.35282L9.24332 6.68229C9.1656 7.03048 8.96041 7.33831 8.66688 7.54704C8.37335 7.75577 8.01204 7.85077 7.6519 7.81394H1.9542L6.60076 11.1412C6.90001 11.3255 7.12216 11.6095 7.22673 11.9415C7.33129 12.2734 7.31134 12.6313 7.17055 12.95L5.08794 18.618L9.99976 14.9909C10.2792 14.7713 10.6246 14.6488 10.9821 14.6426Z" fill="#DE0F7E"/>
</g>
<defs>
<clipPath id="clip0_952_2315">
<rect width="20.3251" height="19.4414" fill="white" transform="translate(0.814697 0.259766)"/>
</clipPath>
</defs>
</svg>
