<svg width="19" height="19" viewBox="0 0 19 19" fill="none" xmlns="http://www.w3.org/2000/svg">
<g id="Isolation_Mode" clip-path="url(#clip0_1615_1513)">
<path id="Vector" d="M18.0172 17.7471L15.5262 15.2616L13.9719 13.7106L13.4737 13.2135L13.1249 12.8705L13.1997 12.781C14.434 11.2828 15.025 9.35858 14.844 7.42753C14.663 5.49647 13.7246 3.715 12.2331 2.47116C10.8421 1.30941 9.066 0.708622 7.25369 0.786804C5.44137 0.864986 3.72384 1.61649 2.43849 2.8937C1.45266 3.86026 0.762362 5.08643 0.448 6.42935C0.133639 7.77227 0.208169 9.17666 0.662892 10.479C1.11761 11.7812 1.93381 12.9278 3.01642 13.7851C4.09904 14.6424 5.40349 15.1751 6.77783 15.3212C7.76133 15.4363 8.75803 15.3492 9.70653 15.0654C10.655 14.7816 11.5352 14.307 12.2929 13.6708L12.3975 13.5814L12.4773 13.6957L12.5271 13.7703C12.5465 13.8044 12.5699 13.8361 12.5968 13.8647C14.0715 15.3394 15.5495 16.8142 17.0308 18.2889L17.255 18.5176L17.3596 18.617C17.4564 18.7052 17.5823 18.7547 17.7134 18.7562C17.7962 18.756 17.8779 18.7374 17.9525 18.7015C18.0519 18.6635 18.1365 18.5947 18.1939 18.5053C18.2512 18.4158 18.2784 18.3104 18.2713 18.2044C18.2639 18.1146 18.2374 18.0273 18.1936 17.9485C18.1497 17.8696 18.0896 17.801 18.0172 17.7471ZM13.7676 8.10332C13.7571 9.74321 13.0989 11.3128 11.9358 12.4715C10.7727 13.6302 9.19856 14.2844 7.55503 14.2922H7.51516C6.28533 14.2902 5.08381 13.9237 4.06306 13.2392C3.04231 12.5547 2.24833 11.5832 1.78184 10.4477C1.31535 9.31231 1.19739 8.06423 1.44291 6.86181C1.68844 5.65939 2.28638 4.55685 3.16089 3.69404C4.03268 2.83097 5.1411 2.24484 6.34635 2.00958C7.5516 1.77431 8.79967 1.90044 9.93316 2.37208C11.0666 2.84372 12.0348 3.63975 12.7154 4.65972C13.396 5.67969 13.7587 6.87794 13.7576 8.10332H13.7676Z" fill="black"/>
</g>
<defs>
<clipPath id="clip0_1615_1513">
<rect width="18" height="18" fill="white" transform="translate(0.246094 0.771118)"/>
</clipPath>
</defs>
</svg>
