<svg width="43" height="44" viewBox="0 0 43 44" fill="none" xmlns="http://www.w3.org/2000/svg">
<g id="Group 10704">
<path id="Vector" d="M39.532 42.3137C39.2974 42.2453 39.0385 42.2356 38.7893 42.2356C34.5042 42.2356 30.2143 42.2356 25.9243 42.2356H25.1865C25.6311 40.4277 25.2207 39.5531 23.623 38.7665C22.7728 38.3463 21.9128 37.9456 21.0773 37.4961C20.8917 37.3935 20.6474 37.0563 20.6962 36.9195C20.8281 36.5433 21.1457 36.685 21.4242 36.8218C22.3624 37.286 23.2956 37.7551 24.2386 38.2095C25.592 38.8642 27.0041 38.4293 27.6149 37.1834C28.2159 35.9472 27.7077 34.5987 26.3836 33.9293C25.4504 33.4602 24.4976 33.0205 23.579 32.5221C23.3835 32.4146 23.2907 32.1166 23.149 31.9016C23.4031 31.882 23.7011 31.7648 23.9064 31.8576C24.8787 32.2925 25.8168 32.7908 26.7794 33.2501C28.0693 33.8657 29.4569 33.4211 30.0579 32.224C30.6735 30.9976 30.18 29.6149 28.8706 28.9504C27.9178 28.4716 26.9504 28.022 26.0122 27.5188C25.8266 27.4211 25.592 27.0839 25.6409 26.9373C25.7679 26.5367 26.1002 26.7126 26.3592 26.8396C27.3315 27.3136 28.2891 27.8364 29.281 28.2615C29.7256 28.452 30.2631 28.5644 30.7322 28.5058C31.7924 28.3787 32.584 27.553 32.7306 26.5953C32.9016 25.4764 32.4276 24.5285 31.3967 23.9959C30.4341 23.5024 29.4569 23.0285 28.4797 22.5497C28.2012 22.4128 27.8983 22.2467 28.1132 21.9145C28.1914 21.7923 28.6067 21.7728 28.7973 21.8558C29.7647 22.2956 30.7077 22.7988 31.6703 23.2435C32.0123 23.3998 32.4032 23.5269 32.7745 23.5513C33.8446 23.6148 34.8414 22.8673 35.1345 21.8412C35.4472 20.7565 34.9928 19.6131 33.9667 19.0659C32.9602 18.5284 31.9146 18.0594 30.9081 17.5219C30.7273 17.4242 30.5123 17.087 30.5563 16.9307C30.6638 16.574 30.9765 16.7108 31.2306 16.8379C32.2029 17.3167 33.1508 17.859 34.1573 18.2548C34.685 18.4649 35.3348 18.5578 35.887 18.46C36.913 18.2841 37.5678 17.4242 37.6948 16.3688C37.8023 15.4698 37.2746 14.4974 36.3609 14.0382C34.4944 13.0952 32.6231 12.1717 30.7419 11.258C28.8168 10.3199 27.2826 10.8573 26.3298 12.7922C24.1604 17.1848 21.991 21.5724 19.8216 25.965C19.7337 26.1458 19.6311 26.3168 19.5333 26.4927C19.4991 26.4829 19.4649 26.4732 19.4307 26.4634V25.8428C19.4307 20.9177 19.4356 15.9877 19.4307 11.0625C19.4307 8.60486 17.9356 6.841 15.5707 6.51852C15.004 6.44034 14.4176 6.50875 13.7776 6.50875V5.79538C13.7776 4.26116 13.7776 2.73183 13.7776 1.19761C13.7776 0.381643 13.5528 0.14222 12.7466 0.137334C10.8264 0.127562 8.90617 0.127562 6.98595 0.137334C6.16998 0.137334 5.94522 0.376743 5.94034 1.18294C5.93545 2.73671 5.94034 4.2856 5.94034 5.83936V6.48431C5.59343 6.48431 5.34424 6.48431 5.09017 6.48431C2.05593 6.48431 0.282287 8.25795 0.282287 11.2922C0.282287 20.9519 0.30672 30.6116 0.262746 40.2714C0.252974 42.3773 1.66504 43.887 3.86865 43.8773C15.5072 43.8235 27.1507 43.8528 38.7893 43.8528C38.9847 43.8528 39.2241 43.9164 39.3609 43.8284C39.6248 43.6574 39.9375 43.4326 40.0352 43.159C40.172 42.7779 39.9277 42.4359 39.5173 42.3186L39.532 42.3137ZM7.60648 1.78393H12.1456V6.45012H7.60648V1.78393ZM1.924 10.6423C2.06081 9.12767 3.18949 8.09672 4.71882 8.09672C8.12929 8.08695 11.5398 8.09183 14.9502 8.09672C16.6506 8.09672 17.7939 9.2254 17.8379 10.9209C17.8476 11.2678 17.8379 11.6147 17.8379 12.0153H1.91912C1.91912 11.5365 1.88491 11.0919 1.924 10.6521V10.6423ZM17.7939 13.6912V19.9454H1.94843V13.6912H17.7939ZM16.2353 42.2307C11.9893 42.2307 7.7384 42.2307 3.49242 42.2258C2.60805 42.2258 2.04127 41.6932 1.924 40.8235C1.90446 40.6916 1.90446 40.5548 1.90446 40.418C1.90446 34.3104 1.90446 28.2028 1.90446 22.0904V21.6262H17.833V22.2223C17.833 24.6653 17.8379 27.1084 17.8232 29.5514C17.8232 29.8445 17.745 30.167 17.618 30.4309C16.6897 32.3462 15.7418 34.2518 14.8036 36.1622C13.9046 37.9945 14.4372 39.5433 16.2743 40.4619C16.7581 40.7013 17.2369 40.9456 17.7255 41.1899C17.4421 41.8838 16.9584 42.2258 16.2353 42.2258V42.2307ZM23.706 41.4342C23.491 41.8935 23.0464 42.0108 22.465 41.7323C20.6571 40.8479 18.8542 39.9538 17.0463 39.0596C15.9323 38.5075 15.7271 37.9163 16.2743 36.812C19.3428 30.597 22.4112 24.3868 25.4797 18.1718C26.2663 16.574 27.053 14.9763 27.8494 13.3834C28.338 12.4013 28.9683 12.1766 29.9358 12.6505C31.7778 13.5544 33.6198 14.4632 35.457 15.3769C36.0482 15.6701 36.2388 16.0805 36.014 16.5252C35.7844 16.9796 35.3544 17.0724 34.7583 16.7841C33.7469 16.2955 32.755 15.7678 31.7338 15.3036C30.3706 14.6831 28.9048 15.6115 28.895 17.3656C28.9048 17.9421 29.3152 18.5431 30.0774 18.9193C31.0498 19.3982 32.0221 19.877 32.9895 20.3607C33.5514 20.6441 33.7566 21.0838 33.5465 21.5187C33.3364 21.9536 32.8723 22.0464 32.2908 21.763C31.3332 21.2939 30.3853 20.8151 29.4276 20.3509C28.2891 19.8037 27.1067 20.175 26.6083 21.2206C26.1149 22.2516 26.5497 23.3607 27.6735 23.9275C28.5872 24.3917 29.5107 24.8412 30.4292 25.2956C31.0937 25.6279 31.3087 26.0334 31.0791 26.5074C30.8592 26.9569 30.3902 27.0253 29.7208 26.6979C28.8168 26.2533 27.9178 25.7989 27.0139 25.3591C25.8608 24.7972 24.693 25.1295 24.1702 26.1653C23.6376 27.2256 24.0774 28.3543 25.2696 28.9504C26.1881 29.4097 27.1116 29.8592 28.0253 30.3185C28.6556 30.6312 28.8559 31.0416 28.6116 31.5009C28.3918 31.926 27.9373 32.0188 27.3559 31.7354C26.4178 31.2762 25.4846 30.8022 24.5415 30.3478C23.3835 29.7859 22.2207 30.123 21.7027 31.1638C21.1751 32.2192 21.6001 33.3381 22.7581 33.9146C23.7109 34.3935 24.6686 34.8527 25.6214 35.3316C26.1881 35.615 26.3738 36.001 26.1784 36.4358C25.9732 36.8902 25.509 37.0124 24.9373 36.7388C23.9796 36.2746 23.0269 35.7957 22.0692 35.3316C20.9112 34.7697 19.7532 35.1117 19.2402 36.1622C18.7223 37.2176 19.1473 38.3316 20.3005 38.913C21.2532 39.3919 22.2109 39.8512 23.1637 40.33C23.7305 40.6134 23.9064 40.9994 23.706 41.4342Z" fill="#E01E89"/>
<path id="Vector_2" d="M27.0093 8.09177C28.5386 8.07711 29.7552 6.84094 29.7503 5.29695C29.7503 3.75784 28.519 2.52167 26.9897 2.51678C25.4506 2.50701 24.1607 3.78716 24.1705 5.31649C24.1802 6.8556 25.4555 8.10154 27.0093 8.09177ZM26.9653 4.13406C27.6249 4.13406 28.1379 4.65199 28.1331 5.31649C28.1282 5.99077 27.6151 6.48914 26.9457 6.47449C26.3252 6.46471 25.7975 5.9419 25.7877 5.32626C25.7731 4.69107 26.3252 4.13406 26.9653 4.13406Z" fill="#E01E89"/>
<path id="Vector_3" d="M36.5176 33.9291C36.2293 33.9291 35.9361 33.9144 35.6479 33.9291C35.1837 33.9535 34.9345 34.2418 34.9101 34.6717C34.8856 35.0773 35.1006 35.4291 35.5208 35.4633C36.1707 35.517 36.8352 35.517 37.485 35.4633C37.9003 35.4242 38.1153 35.0773 38.086 34.6669C38.0567 34.2271 37.7928 33.9584 37.3384 33.934C37.0697 33.9193 36.7961 33.934 36.5274 33.934L36.5176 33.9291Z" fill="#E01E89"/>
<path id="Vector_4" d="M42.0972 33.9291C41.8285 33.9144 41.5549 33.9291 41.2861 33.9291C40.9979 33.9291 40.7047 33.9144 40.4164 33.9291C39.9523 33.9535 39.7031 34.2515 39.6786 34.6766C39.6542 35.0822 39.8692 35.4291 40.2943 35.4682C40.9246 35.5219 41.5695 35.5317 42.1998 35.4779C42.6396 35.4437 42.8888 35.1017 42.8546 34.662C42.8252 34.2271 42.5565 33.9535 42.1021 33.9291H42.0972Z" fill="#E01E89"/>
<path id="Vector_5" d="M38.1008 37.97C38.1301 38.4 38.4086 38.6443 38.8141 38.6834C39.2245 38.7224 39.5861 38.5124 39.6252 38.1019C39.6887 37.4325 39.6838 36.7534 39.6252 36.084C39.5861 35.6687 39.2148 35.4683 38.8092 35.5074C38.4135 35.5514 38.1301 35.7908 38.1056 36.2257C38.091 36.514 38.1056 36.8071 38.1056 37.0954C38.1056 37.3837 38.091 37.6768 38.1056 37.9651L38.1008 37.97Z" fill="#E01E89"/>
<path id="Vector_6" d="M38.101 33.2012C38.1303 33.6312 38.4088 33.8755 38.8094 33.9146C39.2199 33.9537 39.5814 33.7484 39.6205 33.3331C39.6841 32.6637 39.6792 31.9846 39.6205 31.3152C39.5814 30.8999 39.215 30.6995 38.8046 30.7435C38.4039 30.7826 38.1254 31.022 38.0961 31.4618C38.0765 31.75 38.0961 32.0432 38.0961 32.3315C38.0961 32.6198 38.0814 32.9129 38.0961 33.2012H38.101Z" fill="#E01E89"/>
<path id="Vector_7" d="M10.5677 24.4601C10.211 23.9324 9.56607 23.9324 9.2045 24.4601C7.92924 26.3315 6.67841 28.2273 5.95039 30.3918C5.04158 33.0938 7.0302 35.8006 9.88366 35.7957C12.6345 35.8642 14.8088 33.0058 13.812 30.3331C13.0205 28.2077 11.8283 26.3168 10.5677 24.4552V24.4601ZM11.3837 33.7192C10.5091 34.3544 9.26313 34.3641 8.39341 33.7338C7.46995 33.0693 7.03021 31.97 7.48461 30.9195C8.154 29.3657 8.96508 27.8706 9.71753 26.3461C9.82503 26.3461 9.93252 26.3461 10.0449 26.3412C10.7974 27.8608 11.6036 29.3559 12.2827 30.9048C12.7371 31.9504 12.312 33.0449 11.3935 33.7143L11.3837 33.7192Z" fill="#E01E89"/>
</g>
</svg>
