<svg width="56" height="46" viewBox="0 0 56 46" fill="none" xmlns="http://www.w3.org/2000/svg">
<g id="Group 10707">
<path id="Vector" d="M55.4467 1.10366C54.9443 0.94311 54.5559 1.19168 54.3332 1.79246C54.1053 2.40877 53.893 3.03027 53.6133 3.62069C52.3548 6.27756 50.4799 8.48381 48.4497 10.5658C44.9746 14.1238 41.0954 17.2054 37.1024 20.1419C33.6583 22.6745 30.1727 25.1449 26.6769 27.605C25.2681 28.5942 24.4757 29.8735 24.3204 31.5878C24.253 32.2973 24.1028 33.0068 23.9268 33.706C23.4917 35.4254 22.9686 35.7518 21.1922 35.4721C21.1715 35.4721 21.1508 35.4617 21.1301 35.4617C19.799 35.2131 18.4628 35.0007 17.1422 34.7107C15.3295 34.3119 13.6877 34.5916 12.1961 35.7414C11.6782 36.1402 11.1085 36.4768 10.5388 36.8083C10.2229 36.9895 9.87072 37.2019 9.52372 37.2278C8.30145 37.3158 7.06365 37.4401 5.84656 37.3469C4.38606 37.233 3.12753 36.6115 2.37656 35.2028C3.31398 34.9852 4.21514 34.8143 5.09559 34.5657C9.53406 33.3279 13.3718 30.9041 16.8573 28.0349C20.4568 25.0725 23.8076 21.8096 27.2051 18.6089C31.7057 14.3621 36.1391 10.0375 40.9297 6.1118C41.0229 6.03411 41.1213 5.95644 41.2042 5.86321C41.5253 5.51103 41.5771 5.13295 41.2663 4.75488C40.9452 4.36645 40.5464 4.29915 40.1218 4.58918C39.9353 4.71865 39.7644 4.86365 39.5935 5.01902C35.1757 9.02245 30.758 13.0207 26.3454 17.0345C21.7464 21.2192 17.5306 25.8338 12.2427 29.2468C8.95402 31.3702 5.57725 33.1208 1.62042 33.5092C0.662291 33.6024 0.367083 34.0737 0.600141 35.0318C0.973036 36.57 1.86902 37.7509 3.32435 38.3206C6.3334 39.5014 9.3269 39.5428 12.1858 37.7975C12.6933 37.4867 13.206 37.176 13.6773 36.8134C14.4801 36.2075 15.3709 36.1194 16.3135 36.2696C16.8418 36.3525 17.3597 36.4768 17.8879 36.5649C19.3433 36.7979 20.7934 37.119 22.2591 37.2071C23.9009 37.3106 24.8642 36.6063 25.3614 35.0422C25.7135 33.9338 25.9673 32.7789 26.1072 31.624C26.247 30.4587 26.7856 29.656 27.7179 29.0034C30.9185 26.766 34.0985 24.5028 37.2888 22.2499C37.4235 22.1515 37.5737 22.0738 37.7912 21.9443C37.7497 22.1411 37.7342 22.2395 37.7083 22.3327C36.6311 26.1808 35.4813 29.9874 33.6324 33.5817C31.9388 36.8808 30.007 39.9261 27.0238 42.1997C26.4645 42.6244 26.4283 43.1578 26.9151 43.6809C28.1477 44.9964 29.7066 45.5402 31.4468 45.1725C34.8494 44.4578 37.4442 42.6088 38.713 39.2787C39.376 37.5437 40.5257 36.5027 42.2659 36.021C42.442 35.9744 42.6233 35.9278 42.7942 35.8553C44.1097 35.2908 45.4821 34.8195 46.7303 34.1306C48.1234 33.3641 48.5585 32.2092 48.1286 30.6711C47.7972 29.4747 47.3414 28.299 46.8339 27.1596C46.4402 26.2636 46.4403 25.4505 46.808 24.5545C48.6362 20.0953 50.4489 15.6258 52.246 11.1562C53.2197 8.72205 53.9499 6.18948 55.2758 3.90032C55.5606 3.40831 55.716 2.8438 55.9076 2.3C56.1148 1.70958 55.918 1.25386 55.4312 1.10366H55.4467ZM49.6824 13.3833C48.2581 16.8999 46.8494 20.4216 45.3941 23.9227C44.8347 25.2641 44.871 26.5381 45.4303 27.8588C45.855 28.8583 46.259 29.8683 46.5801 30.9041C46.896 31.9244 46.7251 32.4112 45.7773 32.8929C44.5758 33.504 43.3069 33.9804 42.0639 34.5139C41.7635 34.6434 41.458 34.7625 41.1472 34.8661C39.3035 35.4721 38.0657 36.6892 37.4235 38.5174C36.4343 41.3089 34.3108 42.8056 31.5866 43.5825C30.6803 43.8414 29.7584 43.7741 28.9401 43.2925C30.0743 42.0081 31.2086 40.7961 32.2496 39.5065C32.8918 38.7141 33.4356 37.8285 33.9483 36.9429C36.4343 32.6702 38.1123 28.0867 39.2517 23.2909C39.4899 22.2965 39.5676 21.1778 40.0907 20.3543C40.6034 19.5464 41.5874 19.0388 42.3643 18.3966C45.1765 16.0815 47.937 13.7199 50.4074 11.0267C50.4489 10.9853 50.5058 10.9542 50.6716 10.8351C50.3142 11.7622 50.0138 12.5805 49.6875 13.3833H49.6824Z" fill="#E01E89"/>
<path id="Vector_2" d="M19.3223 19.5722C24.4444 19.5877 28.6291 15.4237 28.6343 10.3016C28.6395 5.17432 24.4859 0.999987 19.3637 0.989629C14.3297 0.98445 10.1709 5.15366 10.1553 10.2292C10.1398 15.3565 14.2623 19.5567 19.3223 19.5722ZM19.4 2.70394C23.2584 2.74537 26.516 5.64048 26.8786 9.44194C26.5109 9.44194 26.1535 9.44194 25.791 9.44194C24.0663 9.44194 22.3365 9.44194 20.6119 9.44194C19.5036 9.44194 19.2032 9.88212 19.6072 10.8972C19.9127 11.6637 19.7677 12.4303 19.2135 12.9378C18.6956 13.4143 17.9498 13.5127 17.3284 13.1916C16.7069 12.8705 16.3443 12.2127 16.4376 11.5084C16.4686 11.2701 16.5774 11.037 16.681 10.8195C17.059 10.0478 16.7379 9.46266 15.873 9.44712C14.6818 9.42122 13.4906 9.44193 12.2995 9.43675C12.1803 9.43675 12.056 9.416 11.9007 9.40565C12.3512 5.55758 15.6141 2.6625 19.3948 2.70394H19.4ZM14.7284 11.1821C14.63 12.4251 14.9719 13.4764 15.9145 14.2844C16.567 14.8437 17.3335 15.1233 18.1829 15.0923C19.98 15.0198 21.5959 13.6215 21.4872 11.2028H26.7387C27.1065 14.1394 23.595 17.599 19.8868 17.8268C15.3655 18.1065 12.2684 14.5019 12.0094 11.1769H14.7284V11.1821Z" fill="#E01E89"/>
<path id="Vector_3" d="M18.0487 12.7981C18.5511 12.8291 18.8618 12.5236 18.9292 11.9125C18.9654 11.6069 18.9809 11.2961 19.0224 10.9958C19.2451 9.44721 20.0271 7.57753 22.1661 7.47913C22.6736 7.45324 22.9015 7.06998 22.8704 6.56761C22.8394 6.08077 22.4147 5.75451 21.8657 5.8063C20.6797 5.92024 19.6387 6.35526 18.8463 7.27196C17.738 8.55637 17.334 10.1049 17.2356 11.8348C17.2252 12.3527 17.5515 12.7722 18.0487 12.8032V12.7981Z" fill="#E01E89"/>
</g>
</svg>
