<svg width="26" height="35" viewBox="0 0 26 35" fill="none" xmlns="http://www.w3.org/2000/svg">
<path d="M9.78426 1.58731C10.7706 0.953685 11.9077 0.593822 13.079 0.544638C14.2503 0.495454 15.4136 0.758717 16.4496 1.30742C17.4856 1.85612 18.357 2.67051 18.9745 3.66708C19.5919 4.66364 19.9331 5.8065 19.9632 6.97845C19.9632 7.67678 19.9632 8.37512 19.9632 9.07345H24.5945C24.7395 9.06424 24.8843 9.09474 25.0133 9.16168C25.1422 9.22862 25.2505 9.32946 25.3264 9.45335C25.4261 9.68356 25.4627 9.93615 25.4325 10.1852V30.219C25.4318 30.7242 25.331 31.2241 25.1358 31.69C24.9407 32.156 24.6551 32.5785 24.2956 32.9334C23.9361 33.2882 23.5098 33.5683 23.0413 33.7573C22.5729 33.9463 22.0717 34.0406 21.5666 34.0347H4.70038C3.95278 34.031 3.22264 33.8084 2.60014 33.3944C1.97763 32.9804 1.49002 32.3931 1.19754 31.7051C0.959517 31.0996 0.856559 30.4494 0.895856 29.8V9.84442C0.896557 9.741 0.917908 9.63877 0.958654 9.54372C0.999401 9.44867 1.05872 9.36271 1.13314 9.2909C1.20756 9.21908 1.29557 9.16285 1.39201 9.12551C1.48845 9.08817 1.59138 9.07047 1.69475 9.07345H6.72276C6.75628 7.91142 6.6222 6.72146 6.91271 5.58178C7.32021 3.93038 8.34872 2.49967 9.78426 1.58731ZM10.1362 3.19627C9.3466 3.8294 8.76319 4.68313 8.46022 5.64882C8.10826 6.76616 8.27586 7.92819 8.23675 9.06228C11.626 9.06228 15.0171 9.06228 18.4101 9.06228C18.4399 8.15494 18.4194 7.24664 18.3486 6.34157C18.209 5.45853 17.8389 4.62794 17.2758 3.93357C16.7126 3.23921 15.9763 2.70562 15.1412 2.38662C14.306 2.06763 13.4015 1.97451 12.5189 2.11666C11.6362 2.25881 10.8067 2.6312 10.1139 3.19627H10.1362ZM2.40984 10.5986C2.40984 17.135 2.40984 23.6752 2.40984 30.219C2.40957 30.5694 2.48948 30.9152 2.64344 31.2299C2.79741 31.5446 3.02135 31.8199 3.29813 32.0347C3.71785 32.3554 4.2337 32.5247 4.76184 32.5152H21.5945C22.0505 32.5153 22.4964 32.3807 22.8761 32.1283C23.2558 31.8758 23.5524 31.5167 23.7286 31.0961C23.8558 30.7728 23.9148 30.4266 23.9018 30.0794V10.5986H19.9632C19.9632 11.6266 19.9632 12.6545 19.9632 13.6825C19.9646 13.8715 19.8966 14.0545 19.7719 14.1966C19.6473 14.3387 19.4748 14.4301 19.2872 14.4534C19.1856 14.4642 19.0829 14.4543 18.9852 14.4245C18.8874 14.3946 18.7968 14.3453 18.7185 14.2796C18.6403 14.2139 18.5761 14.1331 18.5299 14.042C18.4836 13.9509 18.4561 13.8514 18.4492 13.7495C18.4492 12.6992 18.4492 11.6489 18.4492 10.593H8.2591C8.2591 11.6266 8.2591 12.6545 8.2591 13.6825C8.2591 13.884 8.17905 14.0772 8.03656 14.2197C7.89407 14.3622 7.70082 14.4422 7.49931 14.4422C7.2978 14.4422 7.10454 14.3622 6.96206 14.2197C6.81957 14.0772 6.73952 13.884 6.73952 13.6825C6.73952 12.6545 6.73952 11.6266 6.73952 10.6042L2.40984 10.5986Z" fill="black"/>
</svg>
