<svg width="21" height="20" viewBox="0 0 21 20" fill="none" xmlns="http://www.w3.org/2000/svg">
<path d="M18.2195 16.3881C18.9844 16.2681 20.5669 15.9914 20.8697 15.2944C21.0223 14.9355 20.8043 14.6436 20.5258 14.5992C17.8354 14.1564 16.6227 11.3997 16.5732 11.2823C15.8276 9.94543 17.8513 10.1702 18.6472 9.35501C19.4238 8.55576 18.1784 7.69026 17.3993 8.0576C17.0798 8.20772 16.6009 8.38216 16.2822 8.23623C16.3577 6.97069 16.5665 4.87235 16.0541 3.72673C14.3306 -0.133639 9.24833 -0.272857 6.88665 1.96805C5.02565 3.7326 5.25377 5.54664 5.42821 8.23623C4.84953 8.48867 4.27756 7.98715 3.86075 7.98715C3.42296 7.98715 2.91389 8.27146 2.83171 8.70001C2.72771 9.26276 3.3391 9.62506 3.86829 9.83389C4.76986 10.1878 5.62697 10.2926 5.15145 11.2588C5.14741 11.266 5.14404 11.2736 5.14139 11.2814C4.46794 12.8195 2.99776 14.2981 1.18792 14.5967C0.896068 14.6445 0.696466 14.9523 0.842394 15.2919V15.2936C1.1418 15.9914 2.73945 16.2706 3.49341 16.3881C3.72656 16.8242 3.54792 17.6855 4.27002 17.6855C4.55097 17.6855 5.09442 17.5018 5.788 17.5018C6.79859 17.5018 7.14328 17.7224 7.95343 18.2943C8.78538 18.8822 9.69953 19.4567 10.8359 19.3737C12.0193 19.4475 12.8982 18.9032 13.7603 18.296L13.7612 18.2943C14.6015 17.7031 15.202 17.2661 16.9817 17.6159C18.2984 17.8708 17.9142 16.9793 18.2195 16.3881Z" fill="white"/>
</svg>
