<svg width="20" height="19" viewBox="0 0 20 19" fill="none" xmlns="http://www.w3.org/2000/svg">
<g id="Group 157">
<g id="Group 10742">
<path id="Vector" d="M19.6066 12.4623C19.4388 12.296 19.2113 12.2026 18.9741 12.2026C18.7369 12.2026 18.5094 12.296 18.3416 12.4623L15.3955 15.3841V1.55517C15.3955 1.31986 15.3013 1.09418 15.1335 0.927782C14.9657 0.761387 14.7382 0.667908 14.5009 0.667908C14.2636 0.667908 14.0361 0.761387 13.8683 0.927782C13.7005 1.09418 13.6063 1.31986 13.6063 1.55517V15.3841L10.6602 12.4623C10.4915 12.3007 10.2655 12.2113 10.0309 12.2133C9.79634 12.2153 9.57195 12.3086 9.40608 12.4732C9.2402 12.6377 9.14612 12.8602 9.14408 13.0928C9.14204 13.3255 9.23221 13.5496 9.39518 13.7169L13.8684 18.1533C13.9515 18.2359 14.0502 18.3015 14.1589 18.3462C14.2676 18.3909 14.3841 18.4139 14.5018 18.4139C14.6195 18.4139 14.736 18.3909 14.8447 18.3462C14.9534 18.3015 15.0521 18.2359 15.1352 18.1533L19.6084 13.7169C19.7759 13.5503 19.8698 13.3245 19.8694 13.0893C19.8691 12.854 19.7746 12.6285 19.6066 12.4623Z" fill="#DE0F7E"/>
<path id="Vector_2" d="M10.6595 5.36401L6.18631 0.927672C6.10299 0.844873 6.00384 0.779413 5.89466 0.735135C5.67581 0.645417 5.43001 0.645417 5.21116 0.735135C5.10198 0.779413 5.00283 0.844873 4.9195 0.927672L0.446303 5.36401C0.278551 5.53061 0.184403 5.75648 0.184571 5.99193C0.184738 6.22738 0.279208 6.45312 0.447198 6.61949C0.615187 6.78586 0.842936 6.87923 1.08034 6.87906C1.31775 6.8789 1.54536 6.78521 1.71311 6.6186L4.65916 3.69683V17.5258C4.65916 17.7611 4.75342 17.9868 4.9212 18.1532C5.08898 18.3196 5.31653 18.413 5.5538 18.413C5.79108 18.413 6.01863 18.3196 6.18641 18.1532C6.35419 17.9868 6.44844 17.7611 6.44844 17.5258V3.69683L9.3945 6.6186C9.56323 6.78022 9.78921 6.86966 10.0238 6.86763C10.2584 6.86561 10.4827 6.7723 10.6486 6.60779C10.8145 6.44329 10.9086 6.22075 10.9106 5.98811C10.9127 5.75547 10.8225 5.53135 10.6595 5.36401Z" fill="#DE0F7E"/>
</g>
</g>
</svg>
