<svg width="58" height="48" viewBox="0 0 58 48" fill="none" xmlns="http://www.w3.org/2000/svg">
<g id="Group 10592">
<g id="Group">
<path id="Vector" d="M45.1177 4.4136C39.9664 -0.672646 31.5977 -0.672646 26.4545 4.40548L24.9839 5.85985L23.5133 4.40548C18.3702 -0.672646 10.0014 -0.672646 4.85017 4.4136C0.430165 8.84985 -0.29296 15.7561 2.86767 23.3692C6.62954 32.4449 16.1602 42.2274 24.9839 42.2274C33.8077 42.2274 43.3302 32.4367 47.092 23.3692C50.2608 15.7561 49.5377 8.84985 45.1177 4.4136Z" fill="#DE0F7E"/>
<path id="Vector_2" fill-rule="evenodd" clip-rule="evenodd" d="M45.63 47.8194C52.0765 47.8194 57.3343 42.5617 57.3343 36.115C57.3343 29.6687 52.0765 24.4109 45.63 24.4109C39.1835 24.4109 33.9258 29.6687 33.9258 36.115C33.9258 42.5617 39.1835 47.8194 45.63 47.8194Z" fill="#F4C6DD"/>
<path id="Vector_3" fill-rule="evenodd" clip-rule="evenodd" d="M49.8318 32.7516C50.3109 32.2973 51.0875 32.2973 51.5665 32.7516C52.0455 33.2057 52.0455 33.9423 51.5665 34.3965L45.5832 40.0703C45.0408 40.5847 44.1445 40.5038 43.7091 39.9126L41.1919 36.9086C40.771 36.4066 40.8589 35.6762 41.3883 35.2772C41.9177 34.8781 42.6878 34.9615 43.1087 35.4635L44.8193 37.5048L49.8318 32.7516Z" fill="#DE0F7E"/>
</g>
<g id="Group 10590">
<path id="Vector_4" d="M25.3902 31.3583C21.4725 31.3583 18.2852 28.171 18.2852 24.2532C18.2852 24.0099 18.3818 23.7766 18.5538 23.6046C18.7258 23.4326 18.9591 23.3359 19.2024 23.3359C19.4457 23.3359 19.679 23.4326 19.851 23.6046C20.023 23.7766 20.1196 24.0099 20.1196 24.2532C20.1196 27.1594 22.4839 29.5238 25.3902 29.5238C28.2965 29.5238 30.6607 27.1594 30.6607 24.2532C30.6607 24.0099 30.7574 23.7766 30.9294 23.6046C31.1014 23.4326 31.3347 23.3359 31.578 23.3359C31.8212 23.3359 32.0546 23.4326 32.2266 23.6046C32.3986 23.7766 32.4952 24.0099 32.4952 24.2532C32.4954 28.1708 29.308 31.3583 25.3902 31.3583Z" fill="white"/>
<path id="Vector_5" d="M19.109 20.2236C20.3517 20.2236 21.3591 19.2162 21.3591 17.9735C21.3591 16.7308 20.3517 15.7234 19.109 15.7234C17.8663 15.7234 16.8589 16.7308 16.8589 17.9735C16.8589 19.2162 17.8663 20.2236 19.109 20.2236Z" fill="white"/>
<path id="Vector_6" d="M31.6715 20.2236C32.9142 20.2236 33.9216 19.2162 33.9216 17.9735C33.9216 16.7308 32.9142 15.7234 31.6715 15.7234C30.4288 15.7234 29.4214 16.7308 29.4214 17.9735C29.4214 19.2162 30.4288 20.2236 31.6715 20.2236Z" fill="white"/>
</g>
</g>
</svg>
