<svg width="40" height="28" viewBox="0 0 40 28" fill="none" xmlns="http://www.w3.org/2000/svg">
<path id="Subtract" fill-rule="evenodd" clip-rule="evenodd" d="M4.80566 0.309326C2.59652 0.309326 0.805664 2.10019 0.805664 4.30933V20.5027H39.1716V4.30933C39.1716 2.10019 37.3807 0.309326 35.1716 0.309326H4.80566ZM39.1716 22.7009H0.805664V23.0642C0.805664 25.2733 2.59652 27.0642 4.80566 27.0642H35.1716C37.3807 27.0642 39.1716 25.2733 39.1716 23.0642V22.7009ZM12.2197 13.6151L13.223 12.8302L11.9953 11.1464L13.9094 10.5756L13.5266 9.29138L11.6653 10.0334L11.7445 7.8787H10.5037L10.5697 10.0191L8.72167 9.27711L8.33887 10.5614L10.2397 11.1322L9.01208 12.816L10.0153 13.6008L11.1241 11.8314L12.2197 13.6151ZM19.8991 12.8302L18.8959 13.6151L17.8003 11.8314L16.6915 13.6008L15.6883 12.816L16.9159 11.1322L15.015 10.5614L15.3979 9.27711L17.2459 10.0191L17.1799 7.8787H18.4207L18.3415 10.0334L20.2027 9.29138L20.5855 10.5756L18.6715 11.1464L19.8991 12.8302ZM26.0352 12.8302L25.032 13.6151L23.9363 11.8314L22.8275 13.6008L21.8243 12.816L23.0519 11.1322L21.1511 10.5614L21.5339 9.27711L23.3819 10.0191L23.3159 7.8787H24.5567L24.4775 10.0334L26.3388 9.29138L26.7216 10.5756L24.8076 11.1464L26.0352 12.8302ZM32.9372 15.6539H30.7967V8.25894L28.0237 8.24141V5.83979H32.9372V15.6539Z" fill="#DE0F7E"/>
</svg>
