<svg width="402" height="415" viewBox="0 0 402 415" fill="none" xmlns="http://www.w3.org/2000/svg">
<mask id="mask0_2248_338" style="mask-type:alpha" maskUnits="userSpaceOnUse" x="0" y="0" width="402" height="415">
<rect x="0.823242" y="1.37793" width="400.481" height="412.264" fill="#D9D9D9" stroke="black"/>
</mask>
<g mask="url(#mask0_2248_338)">
<mask id="path-2-inside-1_2248_338" fill="white">
<path fill-rule="evenodd" clip-rule="evenodd" d="M13.5216 -95.3284C6.93105 -95.3284 1.58838 -89.9857 1.58838 -83.3952V-11.9285C7.66351 -11.9285 12.5884 -7.0036 12.5884 -0.928467C12.5884 5.14667 7.66351 10.0715 1.58838 10.0715V404.222C1.58838 406.093 2.01937 407.865 2.78753 409.441C3.38206 409.365 3.96513 409.147 4.48437 408.782L19.097 398.514C20.525 397.511 22.4531 397.61 23.7704 398.755L34.9745 408.491C36.4029 409.732 38.5271 409.732 39.9555 408.491L50.9116 398.97C52.34 397.729 54.4642 397.729 55.8926 398.97L66.8488 408.491C68.2771 409.732 70.4014 409.732 71.8297 408.491L82.7859 398.97C84.2143 397.729 86.3385 397.729 87.7669 398.97L98.723 408.491C100.151 409.732 102.276 409.732 103.704 408.491L114.66 398.97C116.089 397.729 118.213 397.729 119.641 398.97L130.597 408.491C132.026 409.732 134.15 409.732 135.578 408.491L146.534 398.97C147.963 397.729 150.087 397.729 151.515 398.97L162.472 408.491C163.9 409.732 166.024 409.732 167.453 408.491L178.409 398.97C179.837 397.729 181.961 397.729 183.39 398.97L194.346 408.491C195.774 409.732 197.898 409.732 199.327 408.491L210.283 398.97C211.711 397.729 213.836 397.729 215.264 398.97L226.22 408.491C227.648 409.732 229.773 409.732 231.201 408.491L242.157 398.97C243.586 397.729 245.71 397.729 247.138 398.97L258.094 408.491C259.523 409.732 261.647 409.732 263.075 408.491L274.032 398.97C275.46 397.729 277.584 397.729 279.013 398.97L289.969 408.491C291.397 409.732 293.521 409.732 294.95 408.491L305.906 398.97C307.334 397.729 309.458 397.729 310.887 398.97L321.843 408.491C323.271 409.732 325.396 409.732 326.824 408.491L337.78 398.97C339.208 397.729 341.333 397.729 342.761 398.97L353.717 408.491C355.146 409.732 357.27 409.732 358.698 408.491L369.654 398.97C371.083 397.729 373.207 397.729 374.635 398.97L385.634 408.528C387.044 409.753 389.135 409.771 390.566 408.57L399.588 400.995V10.0715C393.513 10.0715 388.588 5.14667 388.588 -0.928467C388.588 -7.0036 393.513 -11.9285 399.588 -11.9285V-83.3952C399.588 -89.9857 394.246 -95.3284 387.655 -95.3284H13.5216Z"/>
</mask>
<path fill-rule="evenodd" clip-rule="evenodd" d="M13.5216 -95.3284C6.93105 -95.3284 1.58838 -89.9857 1.58838 -83.3952V-11.9285C7.66351 -11.9285 12.5884 -7.0036 12.5884 -0.928467C12.5884 5.14667 7.66351 10.0715 1.58838 10.0715V404.222C1.58838 406.093 2.01937 407.865 2.78753 409.441C3.38206 409.365 3.96513 409.147 4.48437 408.782L19.097 398.514C20.525 397.511 22.4531 397.61 23.7704 398.755L34.9745 408.491C36.4029 409.732 38.5271 409.732 39.9555 408.491L50.9116 398.97C52.34 397.729 54.4642 397.729 55.8926 398.97L66.8488 408.491C68.2771 409.732 70.4014 409.732 71.8297 408.491L82.7859 398.97C84.2143 397.729 86.3385 397.729 87.7669 398.97L98.723 408.491C100.151 409.732 102.276 409.732 103.704 408.491L114.66 398.97C116.089 397.729 118.213 397.729 119.641 398.97L130.597 408.491C132.026 409.732 134.15 409.732 135.578 408.491L146.534 398.97C147.963 397.729 150.087 397.729 151.515 398.97L162.472 408.491C163.9 409.732 166.024 409.732 167.453 408.491L178.409 398.97C179.837 397.729 181.961 397.729 183.39 398.97L194.346 408.491C195.774 409.732 197.898 409.732 199.327 408.491L210.283 398.97C211.711 397.729 213.836 397.729 215.264 398.97L226.22 408.491C227.648 409.732 229.773 409.732 231.201 408.491L242.157 398.97C243.586 397.729 245.71 397.729 247.138 398.97L258.094 408.491C259.523 409.732 261.647 409.732 263.075 408.491L274.032 398.97C275.46 397.729 277.584 397.729 279.013 398.97L289.969 408.491C291.397 409.732 293.521 409.732 294.95 408.491L305.906 398.97C307.334 397.729 309.458 397.729 310.887 398.97L321.843 408.491C323.271 409.732 325.396 409.732 326.824 408.491L337.78 398.97C339.208 397.729 341.333 397.729 342.761 398.97L353.717 408.491C355.146 409.732 357.27 409.732 358.698 408.491L369.654 398.97C371.083 397.729 373.207 397.729 374.635 398.97L385.634 408.528C387.044 409.753 389.135 409.771 390.566 408.57L399.588 400.995V10.0715C393.513 10.0715 388.588 5.14667 388.588 -0.928467C388.588 -7.0036 393.513 -11.9285 399.588 -11.9285V-83.3952C399.588 -89.9857 394.246 -95.3284 387.655 -95.3284H13.5216Z" fill="white"/>
<path d="M1.58838 -11.9285H-0.038873V-10.3012H1.58838V-11.9285ZM1.58838 10.0715V8.44428H-0.038873V10.0715H1.58838ZM2.78753 409.441L1.32465 410.154L1.83627 411.204L2.99489 411.055L2.78753 409.441ZM4.48437 408.782L5.4199 410.113L5.41991 410.113L4.48437 408.782ZM19.097 398.514L18.1615 397.183L18.1615 397.183L19.097 398.514ZM23.7704 398.755L22.7031 399.983L22.7031 399.983L23.7704 398.755ZM34.9745 408.491L33.9072 409.719L33.9072 409.719L34.9745 408.491ZM39.9555 408.491L41.0228 409.719L41.0228 409.719L39.9555 408.491ZM50.9116 398.97L49.8443 397.742L49.8443 397.742L50.9116 398.97ZM55.8926 398.97L56.9599 397.742L56.9599 397.742L55.8926 398.97ZM66.8488 408.491L65.7814 409.719L65.7814 409.719L66.8488 408.491ZM71.8297 408.491L72.8971 409.719L72.8971 409.719L71.8297 408.491ZM82.7859 398.97L81.7186 397.742L81.7186 397.742L82.7859 398.97ZM87.7669 398.97L88.8342 397.742L88.8342 397.742L87.7669 398.97ZM98.723 408.491L97.6557 409.719L97.6557 409.719L98.723 408.491ZM103.704 408.491L104.771 409.719L104.771 409.719L103.704 408.491ZM114.66 398.97L113.593 397.742L113.593 397.742L114.66 398.97ZM119.641 398.97L120.708 397.742L120.708 397.742L119.641 398.97ZM130.597 408.491L129.53 409.719L129.53 409.719L130.597 408.491ZM135.578 408.491L136.646 409.719L136.646 409.719L135.578 408.491ZM146.534 398.97L147.602 400.199L146.534 398.97ZM151.515 398.97L152.583 397.742L152.583 397.742L151.515 398.97ZM162.472 408.491L161.404 409.719L161.404 409.719L162.472 408.491ZM167.453 408.491L166.385 407.263L167.453 408.491ZM178.409 398.97L179.476 400.199L178.409 398.97ZM183.39 398.97L182.322 400.199L182.322 400.199L183.39 398.97ZM194.346 408.491L195.413 407.263L195.413 407.263L194.346 408.491ZM199.327 408.491L200.394 409.719L200.394 409.719L199.327 408.491ZM210.283 398.97L209.216 397.742L209.216 397.742L210.283 398.97ZM215.264 398.97L216.331 397.742L216.331 397.742L215.264 398.97ZM226.22 408.491L225.153 409.719L225.153 409.719L226.22 408.491ZM231.201 408.491L232.268 409.719L232.268 409.719L231.201 408.491ZM242.157 398.97L243.225 400.199L242.157 398.97ZM247.138 398.97L248.206 397.742L248.206 397.742L247.138 398.97ZM258.094 408.491L257.027 409.719L257.027 409.719L258.094 408.491ZM263.075 408.491L264.143 409.719L264.143 409.719L263.075 408.491ZM274.032 398.97L272.964 397.742L272.964 397.742L274.032 398.97ZM279.013 398.97L280.08 397.742L280.08 397.742L279.013 398.97ZM289.969 408.491L291.036 407.263L291.036 407.263L289.969 408.491ZM294.95 408.491L293.882 407.263L293.882 407.263L294.95 408.491ZM305.906 398.97L306.973 400.199L306.973 400.199L305.906 398.97ZM310.887 398.97L311.954 397.742L311.954 397.742L310.887 398.97ZM321.843 408.491L322.91 407.263L322.91 407.263L321.843 408.491ZM326.824 408.491L325.757 407.263L325.757 407.263L326.824 408.491ZM337.78 398.97L336.713 397.742L336.713 397.742L337.78 398.97ZM342.761 398.97L341.694 400.199L341.694 400.199L342.761 398.97ZM353.717 408.491L354.785 407.263L354.785 407.263L353.717 408.491ZM358.698 408.491L359.765 409.719L359.765 409.719L358.698 408.491ZM369.654 398.97L368.587 397.742L368.587 397.742L369.654 398.97ZM374.635 398.97L375.703 397.742L375.703 397.742L374.635 398.97ZM385.634 408.528L384.566 409.756L384.567 409.756L385.634 408.528ZM390.566 408.57L391.612 409.816L391.612 409.816L390.566 408.57ZM399.588 400.995L400.635 402.241L401.216 401.753V400.995H399.588ZM399.588 10.0715H401.216V8.44428H399.588V10.0715ZM399.588 -11.9285V-10.3012H401.216V-11.9285H399.588ZM3.21563 -83.3952C3.21563 -89.087 7.82975 -93.7011 13.5216 -93.7011V-96.9556C6.03234 -96.9556 -0.038873 -90.8844 -0.038873 -83.3952H3.21563ZM3.21563 -11.9285V-83.3952H-0.038873V-11.9285H3.21563ZM14.2156 -0.928467C14.2156 -7.90231 8.56222 -13.5557 1.58838 -13.5557V-10.3012C6.76481 -10.3012 10.9611 -6.10489 10.9611 -0.928467H14.2156ZM1.58838 11.6988C8.56222 11.6988 14.2156 6.04537 14.2156 -0.928467H10.9611C10.9611 4.24796 6.76481 8.44428 1.58838 8.44428V11.6988ZM3.21563 404.222V10.0715H-0.038873V404.222H3.21563ZM4.25041 408.729C3.58805 407.369 3.21563 405.841 3.21563 404.222H-0.038873C-0.038873 406.346 0.450692 408.36 1.32465 410.154L4.25041 408.729ZM3.54883 407.451C3.2508 407.66 2.91878 407.784 2.58017 407.827L2.99489 411.055C3.84535 410.946 4.67947 410.634 5.4199 410.113L3.54883 407.451ZM18.1615 397.183L3.54882 407.451L5.41991 410.113L20.0325 399.846L18.1615 397.183ZM24.8378 397.527C22.9558 395.891 20.2014 395.75 18.1615 397.183L20.0325 399.846C20.8485 399.272 21.9503 399.329 22.7031 399.983L24.8378 397.527ZM36.0419 407.263L24.8378 397.527L22.7031 399.983L33.9072 409.719L36.0419 407.263ZM38.8881 407.263C38.0719 407.972 36.8581 407.972 36.0419 407.263L33.9072 409.719C35.9477 411.492 38.9823 411.492 41.0228 409.719L38.8881 407.263ZM49.8443 397.742L38.8881 407.263L41.0228 409.719L51.979 400.199L49.8443 397.742ZM56.9599 397.742C54.9194 395.969 51.8848 395.969 49.8443 397.742L51.979 400.199C52.7952 399.489 54.0091 399.489 54.8253 400.199L56.9599 397.742ZM67.9161 407.263L56.9599 397.742L54.8253 400.199L65.7814 409.719L67.9161 407.263ZM70.7624 407.263C69.9462 407.972 68.7323 407.972 67.9161 407.263L65.7814 409.719C67.8219 411.492 70.8566 411.492 72.8971 409.719L70.7624 407.263ZM81.7186 397.742L70.7624 407.263L72.8971 409.719L83.8533 400.199L81.7186 397.742ZM88.8342 397.742C86.7937 395.969 83.7591 395.969 81.7186 397.742L83.8533 400.199C84.6695 399.489 85.8833 399.489 86.6995 400.199L88.8342 397.742ZM99.7904 407.263L88.8342 397.742L86.6995 400.199L97.6557 409.719L99.7904 407.263ZM102.637 407.263C101.82 407.972 100.607 407.972 99.7904 407.263L97.6557 409.719C99.6962 411.492 102.731 411.492 104.771 409.719L102.637 407.263ZM113.593 397.742L102.637 407.263L104.771 409.719L115.728 400.199L113.593 397.742ZM120.708 397.742C118.668 395.969 115.633 395.969 113.593 397.742L115.728 400.199C116.544 399.489 117.758 399.489 118.574 400.199L120.708 397.742ZM131.665 407.263L120.708 397.742L118.574 400.199L129.53 409.719L131.665 407.263ZM134.511 407.263C133.695 407.972 132.481 407.972 131.665 407.263L129.53 409.719C131.57 411.492 134.605 411.492 136.646 409.719L134.511 407.263ZM145.467 397.742L134.511 407.263L136.646 409.719L147.602 400.199L145.467 397.742ZM152.583 397.742C150.542 395.969 147.508 395.969 145.467 397.742L147.602 400.199C148.418 399.489 149.632 399.489 150.448 400.199L152.583 397.742ZM163.539 407.263L152.583 397.742L150.448 400.199L161.404 409.719L163.539 407.263ZM166.385 407.263C165.569 407.972 164.355 407.972 163.539 407.263L161.404 409.719C163.445 411.492 166.479 411.492 168.52 409.719L166.385 407.263ZM177.341 397.742L166.385 407.263L168.52 409.719L179.476 400.199L177.341 397.742ZM184.457 397.742C182.417 395.969 179.382 395.969 177.341 397.742L179.476 400.199C180.292 399.489 181.506 399.489 182.322 400.199L184.457 397.742ZM195.413 407.263L184.457 397.742L182.322 400.199L193.279 409.719L195.413 407.263ZM198.259 407.263C197.443 407.972 196.229 407.972 195.413 407.263L193.279 409.719C195.319 411.492 198.354 411.492 200.394 409.719L198.259 407.263ZM209.216 397.742L198.259 407.263L200.394 409.719L211.35 400.199L209.216 397.742ZM216.331 397.742C214.291 395.969 211.256 395.969 209.216 397.742L211.35 400.199C212.167 399.489 213.38 399.489 214.197 400.199L216.331 397.742ZM227.287 407.263L216.331 397.742L214.197 400.199L225.153 409.719L227.287 407.263ZM230.134 407.263C229.318 407.972 228.104 407.972 227.287 407.263L225.153 409.719C227.193 411.492 230.228 411.492 232.268 409.719L230.134 407.263ZM241.09 397.742L230.134 407.263L232.268 409.719L243.225 400.199L241.09 397.742ZM248.206 397.742C246.165 395.969 243.13 395.969 241.09 397.742L243.225 400.199C244.041 399.489 245.255 399.489 246.071 400.199L248.206 397.742ZM259.162 407.263L248.206 397.742L246.071 400.199L257.027 409.719L259.162 407.263ZM262.008 407.263C261.192 407.972 259.978 407.972 259.162 407.263L257.027 409.719C259.068 411.492 262.102 411.492 264.143 409.719L262.008 407.263ZM272.964 397.742L262.008 407.263L264.143 409.719L275.099 400.199L272.964 397.742ZM280.08 397.742C278.039 395.969 275.005 395.969 272.964 397.742L275.099 400.199C275.915 399.489 277.129 399.489 277.945 400.199L280.08 397.742ZM291.036 407.263L280.08 397.742L277.945 400.199L288.901 409.719L291.036 407.263ZM293.882 407.263C293.066 407.972 291.852 407.972 291.036 407.263L288.901 409.719C290.942 411.492 293.976 411.492 296.017 409.719L293.882 407.263ZM304.838 397.742L293.882 407.263L296.017 409.719L306.973 400.199L304.838 397.742ZM311.954 397.742C309.914 395.969 306.879 395.969 304.838 397.742L306.973 400.199C307.789 399.489 309.003 399.489 309.819 400.199L311.954 397.742ZM322.91 407.263L311.954 397.742L309.819 400.199L320.776 409.719L322.91 407.263ZM325.757 407.263C324.94 407.972 323.726 407.972 322.91 407.263L320.776 409.719C322.816 411.492 325.851 411.492 327.891 409.719L325.757 407.263ZM336.713 397.742L325.757 407.263L327.891 409.719L338.847 400.199L336.713 397.742ZM343.828 397.742C341.788 395.969 338.753 395.969 336.713 397.742L338.847 400.199C339.664 399.489 340.877 399.489 341.694 400.199L343.828 397.742ZM354.785 407.263L343.828 397.742L341.694 400.199L352.65 409.719L354.785 407.263ZM357.631 407.263C356.815 407.972 355.601 407.972 354.785 407.263L352.65 409.719C354.69 411.492 357.725 411.492 359.765 409.719L357.631 407.263ZM368.587 397.742L357.631 407.263L359.765 409.719L370.722 400.199L368.587 397.742ZM375.703 397.742C373.662 395.969 370.627 395.969 368.587 397.742L370.722 400.199C371.538 399.489 372.752 399.489 373.568 400.199L375.703 397.742ZM386.701 407.3L375.703 397.742L373.568 400.199L384.566 409.756L386.701 407.3ZM389.519 407.324C388.702 408.01 387.507 408 386.701 407.3L384.567 409.756C386.581 411.506 389.568 411.532 391.612 409.816L389.519 407.324ZM398.542 399.749L389.519 407.324L391.612 409.816L400.635 402.241L398.542 399.749ZM397.961 10.0715V400.995H401.216V10.0715H397.961ZM386.961 -0.928467C386.961 6.04537 392.615 11.6988 399.588 11.6988V8.44428C394.412 8.44428 390.216 4.24796 390.216 -0.928467H386.961ZM399.588 -13.5557C392.615 -13.5557 386.961 -7.90231 386.961 -0.928467H390.216C390.216 -6.10489 394.412 -10.3012 399.588 -10.3012V-13.5557ZM397.961 -83.3952V-11.9285H401.216V-83.3952H397.961ZM387.655 -93.7011C393.347 -93.7011 397.961 -89.087 397.961 -83.3952H401.216C401.216 -90.8844 395.144 -96.9556 387.655 -96.9556V-93.7011ZM13.5216 -93.7011H387.655V-96.9556H13.5216V-93.7011Z" fill="#DADADA" mask="url(#path-2-inside-1_2248_338)"/>
</g>
</svg>
