<svg width="402" height="99" viewBox="0 0 402 99" fill="none" xmlns="http://www.w3.org/2000/svg">
<mask id="mask0_2248_327" style="mask-type:alpha" maskUnits="userSpaceOnUse" x="0" y="0" width="402" height="99">
<rect x="0.323242" y="0.91333" width="401.481" height="97.686" fill="#D9D9D9"/>
</mask>
<g mask="url(#mask0_2248_327)">
<mask id="path-2-inside-1_2248_327" fill="white">
<path fill-rule="evenodd" clip-rule="evenodd" d="M13.5216 2.36597C6.93105 2.36597 1.58838 7.70862 1.58838 14.2991V85.7659C7.66351 85.7659 12.5884 90.6907 12.5884 96.7659C12.5884 102.841 7.66351 107.766 1.58838 107.766V501.916C1.58838 503.788 2.01937 505.559 2.78753 507.136C3.38206 507.059 3.96513 506.841 4.48437 506.476L19.097 496.209C20.525 495.205 22.4531 495.305 23.7704 496.449L34.9745 506.185C36.4029 507.426 38.5271 507.426 39.9555 506.185L50.9116 496.665C52.34 495.424 54.4642 495.424 55.8926 496.665L66.8488 506.185C68.2771 507.426 70.4014 507.426 71.8297 506.185L82.7859 496.665C84.2143 495.424 86.3385 495.424 87.7669 496.665L98.723 506.185C100.151 507.426 102.276 507.426 103.704 506.185L114.66 496.665C116.089 495.424 118.213 495.424 119.641 496.665L130.597 506.185C132.026 507.426 134.15 507.426 135.578 506.185L146.534 496.665C147.963 495.424 150.087 495.424 151.515 496.665L162.472 506.185C163.9 507.426 166.024 507.426 167.453 506.185L178.409 496.665C179.837 495.424 181.961 495.424 183.39 496.665L194.346 506.185C195.774 507.426 197.898 507.426 199.327 506.185L210.283 496.665C211.711 495.424 213.836 495.424 215.264 496.665L226.22 506.185C227.648 507.426 229.773 507.426 231.201 506.185L242.157 496.665C243.586 495.424 245.71 495.424 247.138 496.665L258.094 506.185C259.523 507.426 261.647 507.426 263.075 506.185L274.032 496.665C275.46 495.424 277.584 495.424 279.013 496.665L289.969 506.185C291.397 507.426 293.521 507.426 294.95 506.185L305.906 496.665C307.334 495.424 309.458 495.424 310.887 496.665L321.843 506.185C323.271 507.426 325.396 507.426 326.824 506.185L337.78 496.665C339.208 495.424 341.333 495.424 342.761 496.665L353.717 506.185C355.146 507.426 357.27 507.426 358.698 506.185L369.654 496.665C371.083 495.424 373.207 495.424 374.635 496.665L385.634 506.222C387.044 507.447 389.135 507.465 390.566 506.264L399.588 498.689V107.766C393.513 107.766 388.588 102.841 388.588 96.7659C388.588 90.6907 393.513 85.7659 399.588 85.7659V14.2991C399.588 7.70863 394.246 2.36597 387.655 2.36597H13.5216Z"/>
</mask>
<path fill-rule="evenodd" clip-rule="evenodd" d="M13.5216 2.36597C6.93105 2.36597 1.58838 7.70862 1.58838 14.2991V85.7659C7.66351 85.7659 12.5884 90.6907 12.5884 96.7659C12.5884 102.841 7.66351 107.766 1.58838 107.766V501.916C1.58838 503.788 2.01937 505.559 2.78753 507.136C3.38206 507.059 3.96513 506.841 4.48437 506.476L19.097 496.209C20.525 495.205 22.4531 495.305 23.7704 496.449L34.9745 506.185C36.4029 507.426 38.5271 507.426 39.9555 506.185L50.9116 496.665C52.34 495.424 54.4642 495.424 55.8926 496.665L66.8488 506.185C68.2771 507.426 70.4014 507.426 71.8297 506.185L82.7859 496.665C84.2143 495.424 86.3385 495.424 87.7669 496.665L98.723 506.185C100.151 507.426 102.276 507.426 103.704 506.185L114.66 496.665C116.089 495.424 118.213 495.424 119.641 496.665L130.597 506.185C132.026 507.426 134.15 507.426 135.578 506.185L146.534 496.665C147.963 495.424 150.087 495.424 151.515 496.665L162.472 506.185C163.9 507.426 166.024 507.426 167.453 506.185L178.409 496.665C179.837 495.424 181.961 495.424 183.39 496.665L194.346 506.185C195.774 507.426 197.898 507.426 199.327 506.185L210.283 496.665C211.711 495.424 213.836 495.424 215.264 496.665L226.22 506.185C227.648 507.426 229.773 507.426 231.201 506.185L242.157 496.665C243.586 495.424 245.71 495.424 247.138 496.665L258.094 506.185C259.523 507.426 261.647 507.426 263.075 506.185L274.032 496.665C275.46 495.424 277.584 495.424 279.013 496.665L289.969 506.185C291.397 507.426 293.521 507.426 294.95 506.185L305.906 496.665C307.334 495.424 309.458 495.424 310.887 496.665L321.843 506.185C323.271 507.426 325.396 507.426 326.824 506.185L337.78 496.665C339.208 495.424 341.333 495.424 342.761 496.665L353.717 506.185C355.146 507.426 357.27 507.426 358.698 506.185L369.654 496.665C371.083 495.424 373.207 495.424 374.635 496.665L385.634 506.222C387.044 507.447 389.135 507.465 390.566 506.264L399.588 498.689V107.766C393.513 107.766 388.588 102.841 388.588 96.7659C388.588 90.6907 393.513 85.7659 399.588 85.7659V14.2991C399.588 7.70863 394.246 2.36597 387.655 2.36597H13.5216Z" fill="white"/>
<path d="M1.58838 85.7659H-0.038873V87.3931H1.58838V85.7659ZM1.58838 107.766V106.139H-0.038873V107.766H1.58838ZM2.78753 507.136L1.32465 507.848L1.83627 508.899L2.99489 508.75L2.78753 507.136ZM4.48437 506.476L5.4199 507.808L5.41991 507.808L4.48437 506.476ZM19.097 496.209L18.1615 494.877L18.1615 494.877L19.097 496.209ZM23.7704 496.449L22.7031 497.678L23.7704 496.449ZM34.9745 506.185L33.9072 507.414H33.9072L34.9745 506.185ZM39.9555 506.185L41.0228 507.414H41.0228L39.9555 506.185ZM50.9116 496.665L49.8443 495.436H49.8443L50.9116 496.665ZM55.8926 496.665L56.9599 495.436H56.9599L55.8926 496.665ZM66.8488 506.185L65.7814 507.414L66.8488 506.185ZM71.8297 506.185L72.8971 507.414L71.8297 506.185ZM82.7859 496.665L81.7186 495.436L82.7859 496.665ZM87.7669 496.665L88.8342 495.436L87.7669 496.665ZM98.723 506.185L97.6557 507.414L98.723 506.185ZM103.704 506.185L104.771 507.414L103.704 506.185ZM114.66 496.665L113.593 495.436L114.66 496.665ZM119.641 496.665L120.708 495.436L119.641 496.665ZM130.597 506.185L129.53 507.414L130.597 506.185ZM135.578 506.185L136.646 507.414H136.646L135.578 506.185ZM146.534 496.665L147.602 497.893L146.534 496.665ZM151.515 496.665L152.583 495.436H152.583L151.515 496.665ZM162.472 506.185L161.404 507.414L162.472 506.185ZM167.453 506.185L166.385 504.957L167.453 506.185ZM178.409 496.665L179.476 497.893L178.409 496.665ZM183.39 496.665L182.322 497.893L183.39 496.665ZM194.346 506.185L195.413 504.957L194.346 506.185ZM199.327 506.185L200.394 507.414L199.327 506.185ZM210.283 496.665L209.216 495.436H209.216L210.283 496.665ZM215.264 496.665L216.331 495.436L215.264 496.665ZM226.22 506.185L225.153 507.414H225.153L226.22 506.185ZM231.201 506.185L232.268 507.414H232.268L231.201 506.185ZM242.157 496.665L243.225 497.893L242.157 496.665ZM247.138 496.665L248.206 495.436L247.138 496.665ZM258.094 506.185L257.027 507.414H257.027L258.094 506.185ZM263.075 506.185L264.143 507.414L263.075 506.185ZM274.032 496.665L272.964 495.436L274.032 496.665ZM279.013 496.665L280.08 495.436L279.013 496.665ZM289.969 506.185L291.036 504.957V504.957L289.969 506.185ZM294.95 506.185L293.882 504.957V504.957L294.95 506.185ZM305.906 496.665L306.973 497.893L305.906 496.665ZM310.887 496.665L311.954 495.436H311.954L310.887 496.665ZM321.843 506.185L322.91 504.957V504.957L321.843 506.185ZM326.824 506.185L325.757 504.957V504.957L326.824 506.185ZM337.78 496.665L336.713 495.436H336.713L337.78 496.665ZM342.761 496.665L341.694 497.893L342.761 496.665ZM353.717 506.185L354.785 504.957L353.717 506.185ZM358.698 506.185L359.765 507.414H359.765L358.698 506.185ZM369.654 496.665L368.587 495.436L369.654 496.665ZM374.635 496.665L375.703 495.436L374.635 496.665ZM385.634 506.222L384.566 507.451L385.634 506.222ZM390.566 506.264L391.612 507.51L390.566 506.264ZM399.588 498.689L400.635 499.936L401.216 499.448V498.689H399.588ZM399.588 107.766H401.216V106.139H399.588V107.766ZM399.588 85.7659V87.3931H401.216V85.7659H399.588ZM3.21563 14.2991C3.21563 8.60733 7.82975 3.99322 13.5216 3.99322V0.738715C6.03234 0.738715 -0.038873 6.80991 -0.038873 14.2991H3.21563ZM3.21563 85.7659V14.2991H-0.038873V85.7659H3.21563ZM14.2156 96.7659C14.2156 89.792 8.56222 84.1386 1.58838 84.1386V87.3931C6.7648 87.3931 10.9611 91.5894 10.9611 96.7659H14.2156ZM1.58838 109.393C8.56222 109.393 14.2156 103.74 14.2156 96.7659H10.9611C10.9611 101.942 6.7648 106.139 1.58838 106.139V109.393ZM3.21563 501.916V107.766H-0.038873V501.916H3.21563ZM4.25041 506.423C3.58805 505.063 3.21563 503.535 3.21563 501.916H-0.038873C-0.038873 504.04 0.450692 506.055 1.32465 507.848L4.25041 506.423ZM3.54883 505.145C3.2508 505.354 2.91878 505.478 2.58017 505.522L2.99489 508.75C3.84535 508.64 4.67947 508.328 5.4199 507.808L3.54883 505.145ZM18.1615 494.877L3.54882 505.145L5.41991 507.808L20.0325 497.54L18.1615 494.877ZM24.8378 495.221C22.9558 493.586 20.2014 493.444 18.1615 494.877L20.0325 497.54C20.8485 496.967 21.9503 497.023 22.7031 497.678L24.8378 495.221ZM36.0419 504.957L24.8378 495.221L22.7031 497.678L33.9072 507.414L36.0419 504.957ZM38.8881 504.957C38.0719 505.666 36.8581 505.666 36.0419 504.957L33.9072 507.414C35.9477 509.187 38.9823 509.187 41.0228 507.414L38.8881 504.957ZM49.8443 495.436L38.8881 504.957L41.0228 507.414L51.979 497.893L49.8443 495.436ZM56.9599 495.436C54.9194 493.663 51.8848 493.663 49.8443 495.436L51.979 497.893C52.7952 497.184 54.0091 497.184 54.8253 497.893L56.9599 495.436ZM67.9161 504.957L56.9599 495.436L54.8253 497.893L65.7814 507.414L67.9161 504.957ZM70.7624 504.957C69.9462 505.666 68.7323 505.666 67.9161 504.957L65.7814 507.414C67.8219 509.187 70.8566 509.187 72.8971 507.414L70.7624 504.957ZM81.7186 495.436L70.7624 504.957L72.8971 507.414L83.8533 497.893L81.7186 495.436ZM88.8342 495.436C86.7937 493.663 83.7591 493.663 81.7186 495.436L83.8533 497.893C84.6695 497.184 85.8833 497.184 86.6995 497.893L88.8342 495.436ZM99.7904 504.957L88.8342 495.436L86.6995 497.893L97.6557 507.414L99.7904 504.957ZM102.637 504.957C101.82 505.666 100.607 505.666 99.7904 504.957L97.6557 507.414C99.6962 509.187 102.731 509.187 104.771 507.414L102.637 504.957ZM113.593 495.436L102.637 504.957L104.771 507.414L115.728 497.893L113.593 495.436ZM120.708 495.436C118.668 493.663 115.633 493.663 113.593 495.436L115.728 497.893C116.544 497.184 117.758 497.184 118.574 497.893L120.708 495.436ZM131.665 504.957L120.708 495.436L118.574 497.893L129.53 507.414L131.665 504.957ZM134.511 504.957C133.695 505.666 132.481 505.666 131.665 504.957L129.53 507.414C131.57 509.187 134.605 509.187 136.646 507.414L134.511 504.957ZM145.467 495.436L134.511 504.957L136.646 507.414L147.602 497.893L145.467 495.436ZM152.583 495.436C150.542 493.663 147.508 493.663 145.467 495.436L147.602 497.893C148.418 497.184 149.632 497.184 150.448 497.893L152.583 495.436ZM163.539 504.957L152.583 495.436L150.448 497.893L161.404 507.414L163.539 504.957ZM166.385 504.957C165.569 505.666 164.355 505.666 163.539 504.957L161.404 507.414C163.445 509.187 166.479 509.187 168.52 507.414L166.385 504.957ZM177.341 495.436L166.385 504.957L168.52 507.414L179.476 497.893L177.341 495.436ZM184.457 495.436C182.417 493.663 179.382 493.663 177.341 495.436L179.476 497.893C180.292 497.184 181.506 497.184 182.322 497.893L184.457 495.436ZM195.413 504.957L184.457 495.436L182.322 497.893L193.279 507.414L195.413 504.957ZM198.259 504.957C197.443 505.666 196.229 505.666 195.413 504.957L193.279 507.414C195.319 509.187 198.354 509.187 200.394 507.414L198.259 504.957ZM209.216 495.436L198.259 504.957L200.394 507.414L211.35 497.893L209.216 495.436ZM216.331 495.436C214.291 493.663 211.256 493.663 209.216 495.436L211.35 497.893C212.167 497.184 213.38 497.184 214.197 497.893L216.331 495.436ZM227.287 504.957L216.331 495.436L214.197 497.893L225.153 507.414L227.287 504.957ZM230.134 504.957C229.318 505.666 228.104 505.666 227.287 504.957L225.153 507.414C227.193 509.187 230.228 509.187 232.268 507.414L230.134 504.957ZM241.09 495.436L230.134 504.957L232.268 507.414L243.225 497.893L241.09 495.436ZM248.206 495.436C246.165 493.663 243.13 493.663 241.09 495.436L243.225 497.893C244.041 497.184 245.255 497.184 246.071 497.893L248.206 495.436ZM259.162 504.957L248.206 495.436L246.071 497.893L257.027 507.414L259.162 504.957ZM262.008 504.957C261.192 505.666 259.978 505.666 259.162 504.957L257.027 507.414C259.068 509.187 262.102 509.187 264.143 507.414L262.008 504.957ZM272.964 495.436L262.008 504.957L264.143 507.414L275.099 497.893L272.964 495.436ZM280.08 495.436C278.039 493.663 275.005 493.663 272.964 495.436L275.099 497.893C275.915 497.184 277.129 497.184 277.945 497.893L280.08 495.436ZM291.036 504.957L280.08 495.436L277.945 497.893L288.901 507.414L291.036 504.957ZM293.882 504.957C293.066 505.666 291.852 505.666 291.036 504.957L288.901 507.414C290.942 509.187 293.976 509.187 296.017 507.414L293.882 504.957ZM304.838 495.436L293.882 504.957L296.017 507.414L306.973 497.893L304.838 495.436ZM311.954 495.436C309.914 493.663 306.879 493.663 304.838 495.436L306.973 497.893C307.789 497.184 309.003 497.184 309.819 497.893L311.954 495.436ZM322.91 504.957L311.954 495.436L309.819 497.893L320.776 507.414L322.91 504.957ZM325.757 504.957C324.94 505.666 323.726 505.666 322.91 504.957L320.776 507.414C322.816 509.187 325.851 509.187 327.891 507.414L325.757 504.957ZM336.713 495.436L325.757 504.957L327.891 507.414L338.847 497.893L336.713 495.436ZM343.828 495.436C341.788 493.663 338.753 493.663 336.713 495.436L338.847 497.893C339.664 497.184 340.877 497.184 341.694 497.893L343.828 495.436ZM354.785 504.957L343.828 495.436L341.694 497.893L352.65 507.414L354.785 504.957ZM357.631 504.957C356.815 505.666 355.601 505.666 354.785 504.957L352.65 507.414C354.69 509.187 357.725 509.187 359.765 507.414L357.631 504.957ZM368.587 495.436L357.631 504.957L359.765 507.414L370.722 497.893L368.587 495.436ZM375.703 495.436C373.662 493.663 370.627 493.663 368.587 495.436L370.722 497.893C371.538 497.184 372.752 497.184 373.568 497.893L375.703 495.436ZM386.701 504.994L375.703 495.436L373.568 497.893L384.566 507.451L386.701 504.994ZM389.519 505.018C388.702 505.704 387.507 505.694 386.701 504.994L384.566 507.451C386.581 509.201 389.568 509.226 391.612 507.51L389.519 505.018ZM398.542 497.443L389.519 505.018L391.612 507.51L400.635 499.936L398.542 497.443ZM397.961 107.766V498.689H401.216V107.766H397.961ZM386.961 96.7659C386.961 103.74 392.615 109.393 399.588 109.393V106.139C394.412 106.139 390.216 101.942 390.216 96.7659H386.961ZM399.588 84.1386C392.615 84.1386 386.961 89.792 386.961 96.7659H390.216C390.216 91.5894 394.412 87.3931 399.588 87.3931V84.1386ZM397.961 14.2991V85.7659H401.216V14.2991H397.961ZM387.655 3.99322C393.347 3.99322 397.961 8.60734 397.961 14.2991H401.216C401.216 6.80993 395.144 0.738715 387.655 0.738715V3.99322ZM13.5216 3.99322H387.655V0.738715H13.5216V3.99322Z" fill="#DADADA" mask="url(#path-2-inside-1_2248_327)"/>
<path d="M385.588 98.5159C386.003 98.5159 386.338 98.1801 386.338 97.7659C386.338 97.3517 386.003 97.0159 385.588 97.0159L385.588 98.5159ZM13.5884 98.5159L18.4831 98.5159L18.4831 97.0159L13.5884 97.0159L13.5884 98.5159ZM28.2726 98.5159L38.0621 98.5159L38.0621 97.0159L28.2726 97.0159L28.2726 98.5159ZM47.8515 98.5159L57.641 98.5159L57.641 97.0159L47.8515 97.0159L47.8515 98.5159ZM67.4305 98.5159L77.22 98.5159L77.22 97.0159L67.4305 97.0159L67.4305 98.5159ZM87.0094 98.5159L96.7989 98.5159L96.7989 97.0159L87.0094 97.0159L87.0094 98.5159ZM106.588 98.5159L116.378 98.5159L116.378 97.0159L106.588 97.0159L106.588 98.5159ZM126.167 98.5159L135.957 98.5159L135.957 97.0159L126.167 97.0159L126.167 98.5159ZM145.746 98.5159L155.536 98.5159L155.536 97.0159L145.746 97.0159L145.746 98.5159ZM165.325 98.5159L175.115 98.5159L175.115 97.0159L165.325 97.0159L165.325 98.5159ZM184.904 98.5159L194.694 98.5159L194.694 97.0159L184.904 97.0159L184.904 98.5159ZM204.483 98.5159L214.273 98.5159L214.273 97.0159L204.483 97.0159L204.483 98.5159ZM224.062 98.5159L233.852 98.5159L233.852 97.0159L224.062 97.0159L224.062 98.5159ZM243.641 98.5159L253.43 98.5159L253.43 97.0159L243.641 97.0159L243.641 98.5159ZM263.22 98.5159L273.009 98.5159L273.009 97.0159L263.22 97.0159L263.22 98.5159ZM282.799 98.5159L292.588 98.5159L292.588 97.0159L282.799 97.0159L282.799 98.5159ZM302.378 98.5159L312.167 98.5159L312.167 97.0159L302.378 97.0159L302.378 98.5159ZM321.957 98.5159L331.746 98.5159L331.746 97.0159L321.957 97.0159L321.957 98.5159ZM341.536 98.5159L351.325 98.5159L351.325 97.0159L341.536 97.0159L341.536 98.5159ZM361.115 98.5159L370.904 98.5159L370.904 97.0159L361.115 97.0159L361.115 98.5159ZM380.693 98.5159L385.588 98.5159L385.588 97.0159L380.693 97.0159L380.693 98.5159Z" fill="#DFDFDF"/>
</g>
</svg>
