<svg width="18" height="20" viewBox="0 0 18 20" fill="none" xmlns="http://www.w3.org/2000/svg">
<path d="M17.8652 5.10028C16.7565 5.10028 15.7334 4.73296 14.9119 4.1133C13.9697 3.40294 13.2927 2.36094 13.0537 1.15994C12.9937 0.857964 12.9622 0.551027 12.9596 0.243164H9.79219V8.89793L9.78839 13.6385C9.78839 14.9059 8.96306 15.9806 7.81899 16.3585C7.47629 16.4718 7.11536 16.5197 6.75497 16.4997C6.27837 16.4735 5.83174 16.3297 5.44355 16.0975C4.61747 15.6034 4.05738 14.7071 4.0422 13.6818C4.0183 12.0793 5.31378 10.7729 6.91511 10.7729C7.2312 10.7729 7.53477 10.8245 7.81899 10.9182V7.70225C7.51921 7.65785 7.21412 7.6347 6.90562 7.6347C5.15289 7.6347 3.51361 8.36327 2.34183 9.67583C1.45617 10.6677 0.924923 11.9332 0.842959 13.2602C0.735572 15.0035 1.37345 16.6606 2.61049 17.8832C2.79225 18.0627 2.98312 18.2293 3.18272 18.383C4.24332 19.1992 5.53994 19.6416 6.90562 19.6416C7.21412 19.6416 7.51921 19.6189 7.81899 19.5745C9.09474 19.3855 10.2718 18.8015 11.2008 17.8832C12.3422 16.7551 12.9728 15.2573 12.9797 13.6632L12.9634 6.58397C13.5092 7.00497 14.1071 7.35367 14.7423 7.62142C15.7361 8.04073 16.7898 8.25322 17.8743 8.25284V5.09952C17.8751 5.10028 17.866 5.10028 17.8652 5.10028Z" fill="white"/>
</svg>
