<svg width="36" height="33" viewBox="0 0 36 33" fill="none" xmlns="http://www.w3.org/2000/svg">
<g id="Group">
<path id="Vector" d="M29.6398 3.68445H3.60146C1.733 3.68445 0.212891 5.20455 0.212891 7.07309V7.53274C0.212891 9.4012 1.733 10.9213 3.60146 10.9213H29.64C29.7075 10.9213 29.7743 10.908 29.8367 10.8822C29.8991 10.8564 29.9557 10.8185 30.0035 10.7708C30.0512 10.723 30.0891 10.6664 30.1149 10.604C30.1407 10.5416 30.154 10.4748 30.154 10.4072V4.19851C30.154 4.13099 30.1407 4.06413 30.1149 4.00176C30.089 3.93938 30.0511 3.8827 30.0034 3.83497C29.9557 3.78723 29.899 3.74937 29.8366 3.72354C29.7742 3.69771 29.7073 3.68443 29.6398 3.68445Z" fill="#7C3D1E"/>
<path id="Vector_2" d="M0.353232 6.10938C0.260128 6.42203 0.212855 6.74654 0.212891 7.07276V7.53241C0.212891 9.40088 1.733 10.921 3.60146 10.921H29.64C29.7075 10.921 29.7743 10.9077 29.8367 10.8819C29.8991 10.856 29.9557 10.8182 30.0035 10.7704C30.0512 10.7227 30.0891 10.666 30.1149 10.6037C30.1407 10.5413 30.154 10.4744 30.154 10.4069V8.53271H3.60146C2.06543 8.53265 0.768926 7.5104 0.353232 6.10938Z" fill="#68321A"/>
<path id="Vector_3" d="M16.5984 2.10341L14.6454 0.150519C14.549 0.0541401 14.4182 0 14.2819 0C14.1456 0 14.0148 0.0541401 13.9184 0.150519L4.02554 10.0433C3.95364 10.1152 3.90468 10.2069 3.88486 10.3066C3.86504 10.4063 3.87524 10.5097 3.91418 10.6036C3.95308 10.6976 4.01897 10.7779 4.10352 10.8344C4.18806 10.8909 4.28746 10.921 4.38914 10.921H8.29499C8.43133 10.921 8.56209 10.8669 8.65853 10.7705L16.5985 2.83055C16.6949 2.73411 16.749 2.60333 16.749 2.46696C16.749 2.3306 16.6948 2.19983 16.5984 2.10341Z" fill="#78AA17"/>
<path id="Vector_4" d="M5.5127 8.55603L4.02554 10.0432C3.95364 10.1151 3.90468 10.2067 3.88486 10.3064C3.86504 10.4062 3.87524 10.5095 3.91418 10.6035C3.95308 10.6974 4.01897 10.7777 4.10352 10.8342C4.18806 10.8907 4.28746 10.9209 4.38914 10.9209H8.29499C8.43133 10.9208 8.56209 10.8667 8.65853 10.7703L10.8728 8.5561L5.5127 8.55603Z" fill="#6D8915"/>
<path id="Vector_5" d="M28.444 10.0434L18.5512 0.150524C18.4548 0.0541418 18.324 0 18.1876 0C18.0513 0 17.9205 0.0541418 17.8241 0.150524L7.9313 10.0434C7.8594 10.1153 7.81045 10.2069 7.79062 10.3066C7.7708 10.4063 7.781 10.5097 7.81994 10.6036C7.85884 10.6976 7.92473 10.7779 8.00928 10.8344C8.09382 10.8909 8.19322 10.921 8.2949 10.921H28.0806C28.1822 10.921 28.2816 10.8909 28.3662 10.8344C28.4507 10.7779 28.5166 10.6976 28.5555 10.6036C28.5944 10.5097 28.6046 10.4063 28.5847 10.3066C28.5649 10.2068 28.5159 10.1152 28.444 10.0434Z" fill="#8ACC19"/>
<path id="Vector_6" d="M7.9313 10.0432C7.8594 10.1151 7.81045 10.2067 7.79062 10.3064C7.7708 10.4062 7.781 10.5095 7.81994 10.6035C7.85884 10.6974 7.92473 10.7777 8.00928 10.8342C8.09382 10.8907 8.19322 10.9209 8.2949 10.9209H28.0806C28.1823 10.9209 28.2817 10.8908 28.3663 10.8343C28.4508 10.7778 28.5168 10.6975 28.5557 10.6035C28.5946 10.5096 28.6048 10.4062 28.5849 10.3064C28.5651 10.2067 28.5161 10.1151 28.4442 10.0432L26.957 8.55603H9.41846L7.9313 10.0432Z" fill="#78A017"/>
<path id="Vector_7" d="M25.5206 10.0434L20.0282 4.5509C19.9317 4.45454 19.801 4.40041 19.6646 4.40041C19.5283 4.40041 19.3975 4.45454 19.3011 4.5509C19.1562 4.69661 18.9839 4.81213 18.7941 4.89077C18.6042 4.96942 18.4007 5.00962 18.1952 5.00905C17.9898 5.00962 17.7862 4.96943 17.5964 4.8908C17.4066 4.81217 17.2343 4.69666 17.0894 4.55097C16.993 4.45457 16.8622 4.4004 16.7259 4.40039C16.5895 4.40038 16.4587 4.45452 16.3623 4.5509L10.8698 10.0434C10.7979 10.1153 10.7489 10.207 10.7291 10.3067C10.7093 10.4064 10.7195 10.5098 10.7584 10.6037C10.7973 10.6977 10.8632 10.778 10.9478 10.8345C11.0323 10.891 11.1317 10.9211 11.2334 10.9211H25.1572C25.2588 10.9211 25.3583 10.891 25.4428 10.8345C25.5274 10.778 25.5933 10.6977 25.6322 10.6037C25.6711 10.5098 25.6813 10.4064 25.6614 10.3067C25.6415 10.2069 25.5925 10.1153 25.5206 10.0434Z" fill="#78A017"/>
<path id="Vector_8" d="M10.8698 10.0432C10.7979 10.1151 10.7489 10.2067 10.7291 10.3064C10.7093 10.4062 10.7195 10.5095 10.7584 10.6035C10.7973 10.6974 10.8632 10.7777 10.9478 10.8342C11.0323 10.8907 11.1317 10.9209 11.2334 10.9209H25.1572C25.2588 10.9208 25.3582 10.8907 25.4427 10.8342C25.5273 10.7777 25.5932 10.6974 25.6321 10.6035C25.671 10.5095 25.6812 10.4062 25.6614 10.3064C25.6416 10.2067 25.5926 10.1151 25.5208 10.0432L24.0336 8.55603H12.3569L10.8698 10.0432Z" fill="#6D8915"/>
<path id="Vector_9" d="M32.8342 9.89294H2.99293C1.51664 9.89294 0.309141 8.74457 0.213437 7.29248C0.213369 7.2959 0.212891 7.29932 0.212891 7.30294V28.9271C0.212891 30.9223 1.83608 32.5455 3.83129 32.5455H32.8343C32.9018 32.5455 32.9687 32.5322 33.0311 32.5064C33.0934 32.4806 33.1501 32.4427 33.1978 32.395C33.2456 32.3472 33.2834 32.2906 33.3093 32.2282C33.3351 32.1658 33.3484 32.099 33.3484 32.0315V10.407C33.3484 10.3395 33.3351 10.2726 33.3092 10.2103C33.2834 10.1479 33.2455 10.0912 33.1978 10.0435C33.15 9.99574 33.0934 9.95788 33.031 9.93205C32.9686 9.90622 32.9018 9.89293 32.8342 9.89294Z" fill="#AA5D24"/>
<path id="Vector_10" d="M33.3485 18.7233H27.8151C25.7484 18.7233 24.0669 20.4046 24.0669 22.4715C24.0669 24.5382 25.7483 26.2197 27.8151 26.2197H33.3485V18.7233Z" fill="#7C3D1E"/>
<path id="Vector_11" d="M33.6708 17.4026H27.8151C25.7484 17.4026 24.0669 19.084 24.0669 21.1508C24.0669 23.2175 25.7483 24.899 27.8151 24.899H33.6708C34.5212 24.899 35.213 24.2071 35.213 23.3568V18.9449C35.213 18.0944 34.5212 17.4026 33.6708 17.4026Z" fill="#F99608"/>
<path id="Vector_12" d="M28.2507 19.4739C27.326 19.4739 26.5737 20.2262 26.5737 21.1509C26.5737 22.0755 27.326 22.8278 28.2507 22.8278C29.1753 22.8278 29.9276 22.0755 29.9276 21.1509C29.9276 20.2262 29.1753 19.4739 28.2507 19.4739Z" fill="#FFD039"/>
</g>
</svg>
