<svg width="87" height="90" viewBox="0 0 87 90" fill="none" xmlns="http://www.w3.org/2000/svg">
<g id="Layer_1" clip-path="url(#clip0_952_5663)">
<g id="Group" filter="url(#filter0_d_952_5663)">
<path id="Vector" d="M53.9576 84.5597C61.9007 84.5597 68.3399 78.1582 68.3399 70.2615C68.3399 62.3649 61.9007 55.9634 53.9576 55.9634C46.0145 55.9634 39.5753 62.3649 39.5753 70.2615C39.5753 78.1582 46.0145 84.5597 53.9576 84.5597Z" fill="white"/>
<path id="Vector_2" d="M53.9576 84.7273C45.9318 84.7273 39.4067 78.235 39.4067 70.2615C39.4067 62.2881 45.9372 55.7958 53.9576 55.7958C61.9779 55.7958 68.5084 62.2881 68.5084 70.2615C68.5084 78.235 61.9779 84.7273 53.9576 84.7273ZM53.9576 56.1309C46.1221 56.1309 39.7493 62.4665 39.7493 70.2561C39.7493 78.0458 46.1221 84.3813 53.9576 84.3813C61.7931 84.3813 68.1658 78.0458 68.1658 70.2561C68.1658 62.4665 61.7931 56.1309 53.9576 56.1309Z" fill="#231F20"/>
<path id="Vector_3" d="M53.9575 83.392C61.252 83.392 67.1653 77.5133 67.1653 70.2615C67.1653 63.0097 61.252 57.131 53.9575 57.131C46.6631 57.131 40.7498 63.0097 40.7498 70.2615C40.7498 77.5133 46.6631 83.392 53.9575 83.392Z" fill="#E01E89"/>
<path id="Vector_4" d="M53.9957 61.2178C54.1425 60.9421 54.5503 60.8448 54.795 61.0502C54.882 61.1042 54.9092 61.2015 54.9364 61.2934C54.9146 61.3637 54.9092 61.4394 54.8765 61.5043C54.7406 61.7637 54.3763 61.8773 54.1207 61.7205C53.9467 61.6232 53.8924 61.3799 53.9957 61.2178Z" fill="white"/>
<path id="Vector_5" d="M49.6511 61.688C49.7979 61.661 49.9665 61.6772 50.0861 61.7745C50.2275 61.8772 50.2492 62.0827 50.1785 62.234C50.048 62.4989 49.6837 62.6124 49.4281 62.4611C49.2976 62.3854 49.2161 62.2232 49.2541 62.0772C49.2922 61.8826 49.4662 61.7367 49.6565 61.6934L49.6511 61.688Z" fill="white"/>
<path id="Vector_6" d="M54.4198 61.9961H54.4633C54.4959 62.5799 54.5775 63.1584 54.621 63.7368C54.6699 64.1692 54.708 64.6017 54.7461 65.0342C54.7624 65.1152 54.7678 65.1963 54.7624 65.2774C54.5068 65.3153 54.2567 65.3909 54.0011 65.445C52.8266 65.7315 51.6575 66.0504 50.5483 66.5369C49.7925 66.8613 49.0584 67.2181 48.3298 67.5965C48.2319 67.6451 48.1449 67.7154 48.0361 67.737C47.3836 66.8235 46.7203 65.9207 46.0569 65.0125C46.4701 65.2882 46.916 65.5207 47.4 65.6504C47.748 65.7531 48.1123 65.7693 48.4712 65.7369C48.4385 65.7315 48.4113 65.7261 48.3787 65.7207C48.5147 65.7315 48.6452 65.6937 48.7702 65.6504C49.1998 65.5099 49.575 65.2017 49.7816 64.8017C49.961 64.4828 50.0263 64.1152 50.0535 63.7584C50.0643 63.4124 50.0372 63.0665 49.9502 62.7313C49.9502 62.7097 49.9447 62.6718 49.9447 62.6502C50.1894 63.1151 50.5157 63.5368 50.9344 63.8557C51.3259 64.1584 51.8315 64.3314 52.3318 64.2828C52.2502 64.2719 52.1687 64.2665 52.0871 64.2611C52.3318 64.2936 52.5819 64.2557 52.8157 64.1584C53.3106 63.9638 53.6912 63.5584 53.9522 63.1151C54.1588 62.7637 54.3219 62.3853 54.4144 61.9907L54.4198 61.9961Z" fill="white"/>
<path id="Vector_7" d="M45.6436 64.1747C45.8611 64.1206 46.1438 64.2503 46.1819 64.4882C46.2363 64.8666 45.7469 65.1423 45.4206 64.9693C45.2466 64.8936 45.1596 64.6774 45.2303 64.5044C45.301 64.3368 45.4641 64.2071 45.6436 64.1801V64.1747Z" fill="white"/>
<path id="Vector_8" d="M55.306 65.418C56.4697 65.2017 57.6605 65.1207 58.8404 65.2288C59.4984 65.2936 60.1563 65.4288 60.7544 65.7153C61.0753 65.8666 61.3743 66.0775 61.6244 66.3315C62.0377 66.7424 62.3803 67.2451 62.5325 67.8127C62.6848 68.3371 62.6521 68.8939 62.5543 69.429C62.3911 70.2831 62.0159 71.0832 61.5646 71.8238C61.0046 72.7536 60.2868 73.586 59.4386 74.2672C60.0476 74.7537 60.5859 75.3159 61.097 75.8997C60.7001 76.4889 60.3031 77.0727 59.9007 77.662C58.9927 77.089 58.0465 76.5754 57.0841 76.0943C56.225 76.5322 55.3278 76.8835 54.398 77.1538C53.7781 77.3376 53.1419 77.4728 52.5057 77.6025C51.8369 77.7322 51.1626 77.8458 50.4775 77.8782C49.8739 77.9052 49.2704 77.7917 48.6994 77.6079C48.2209 77.4511 47.7479 77.2727 47.3237 77.0079C46.9594 76.7808 46.6332 76.4835 46.3994 76.1267C46.0785 75.6618 45.8719 75.1105 45.8502 74.5428C45.8284 73.905 45.9644 73.2725 46.2199 72.6887C46.5951 71.84 47.2041 71.1102 47.8892 70.4885C48.6994 69.748 49.6347 69.1479 50.6243 68.6776C51.6085 68.2127 52.6471 67.8668 53.702 67.6127C53.615 67.9208 53.5334 68.229 53.4464 68.5371C52.3154 68.9047 51.2224 69.402 50.2328 70.0615C49.3193 70.6778 48.433 71.4129 47.9055 72.3968C48.3732 73.3266 49.0148 74.1915 49.8685 74.8131C50.7222 75.4402 51.7662 75.7754 52.8211 75.8402C53.7835 75.9105 54.7405 75.7429 55.6703 75.4997C54.4523 75.0564 53.2017 74.678 51.913 74.5266C52.7286 73.8347 53.566 73.1698 54.4523 72.5752C54.5665 72.5049 54.6753 72.413 54.8003 72.3697C55.2027 72.3643 55.6051 72.413 56.002 72.4941C56.573 72.613 57.1059 72.8509 57.6279 73.1103C57.9487 73.2779 58.264 73.4563 58.5685 73.6509C59.009 72.6184 59.1993 71.4832 59.1069 70.3696C59.0525 69.7101 58.9002 69.0452 58.5631 68.4668C58.1281 67.71 57.3669 67.1694 56.524 66.9424C55.8824 66.764 55.2027 66.7532 54.5393 66.8072C53.2506 66.9154 51.9946 67.2992 50.8092 67.8019C50.3688 67.9911 49.9338 68.1911 49.5096 68.4182C49.0529 68.283 48.5907 68.1641 48.1394 68.0127C49.1997 67.483 50.2763 66.9964 51.3801 66.5748C52.6525 66.0883 53.9575 65.6883 55.2952 65.4396L55.306 65.418Z" fill="white"/>
</g>
<g id="Group_2" filter="url(#filter1_d_952_5663)">
<path id="Vector_9" d="M28.7437 86.2246C36.6868 86.2246 43.126 79.8231 43.126 71.9265C43.126 64.0298 36.6868 57.6283 28.7437 57.6283C20.8006 57.6283 14.3615 64.0298 14.3615 71.9265C14.3615 79.8231 20.8006 86.2246 28.7437 86.2246Z" fill="white"/>
<path id="Vector_10" d="M34.1921 85.3435C26.7536 88.3275 18.2547 84.7381 15.2532 77.343C12.2517 69.9426 15.8622 61.4988 23.3008 58.5148C30.7447 55.5309 39.2382 59.1203 42.2397 66.5153C45.2412 73.9158 41.6307 82.3595 34.1921 85.3435ZM23.4258 58.8284C16.1613 61.7421 12.6323 69.9912 15.5631 77.2187C18.494 84.4407 26.7916 87.9491 34.0616 85.0354C41.3316 82.1217 44.8551 73.8725 41.9243 66.6451C38.9935 59.423 30.6958 55.9147 23.4258 58.8284Z" fill="#231F20"/>
<path id="Vector_11" d="M28.7438 85.057C36.0382 85.057 41.9515 79.1783 41.9515 71.9265C41.9515 64.6747 36.0382 58.796 28.7438 58.796C21.4493 58.796 15.536 64.6747 15.536 71.9265C15.536 79.1783 21.4493 85.057 28.7438 85.057Z" fill="#E01E89"/>
<path id="Vector_12" d="M25.3725 63.526C25.4051 63.2179 25.7477 62.9746 26.0522 63.0719C26.1501 63.0935 26.2153 63.1746 26.2751 63.2449C26.2751 63.3206 26.3077 63.3908 26.2969 63.4665C26.2697 63.7584 25.9706 64.0017 25.677 63.9476C25.4812 63.9206 25.3344 63.7206 25.3725 63.526Z" fill="white"/>
<path id="Vector_13" d="M21.5227 65.5855C21.6478 65.5045 21.8109 65.4558 21.9577 65.5045C22.1263 65.5477 22.2296 65.7315 22.2133 65.8937C22.1915 66.1856 21.8924 66.4288 21.5988 66.3856C21.4466 66.364 21.3161 66.245 21.2889 66.0937C21.2508 65.8991 21.3596 65.6991 21.5173 65.5855H21.5227Z" fill="white"/>
<path id="Vector_14" d="M26.0576 64.0936L26.1011 64.0828C26.3512 64.6071 26.6394 65.1153 26.9004 65.6342C27.107 66.018 27.3082 66.4018 27.5094 66.791C27.5529 66.8613 27.591 66.9316 27.6182 67.0127C27.3952 67.1424 27.194 67.31 26.9765 67.4505C25.9978 68.1533 25.0299 68.8885 24.1816 69.748C23.6053 70.3264 23.0561 70.9318 22.5232 71.5589C22.4471 71.64 22.3927 71.7373 22.3057 71.8022C21.3541 71.2021 20.4026 70.6075 19.4456 70.0128C19.9349 70.1156 20.4352 70.1642 20.93 70.1047C21.2889 70.0723 21.6314 69.948 21.9523 69.7858C21.9196 69.7912 21.8924 69.7966 21.8598 69.8074C21.9903 69.7696 22.0936 69.6831 22.1969 69.5966C22.5395 69.3047 22.7733 68.8831 22.8168 68.4344C22.8603 68.0722 22.7896 67.71 22.6754 67.364C22.5558 67.0397 22.4036 66.7262 22.1915 66.4505C22.1806 66.4343 22.1643 66.3964 22.1534 66.3802C22.5504 66.7208 23.018 66.9856 23.5237 67.1316C24.0022 67.2667 24.5351 67.2397 24.981 67.0073C24.8994 67.0289 24.8233 67.0559 24.7471 67.0775C24.9864 67.0181 25.2039 66.8829 25.3833 66.71C25.7694 66.3478 25.9652 65.8288 26.0467 65.3153C26.1065 64.9152 26.1174 64.5044 26.0522 64.099L26.0576 64.0936Z" fill="white"/>
<path id="Vector_15" d="M18.7442 69.375C18.929 69.2452 19.239 69.256 19.3586 69.4669C19.5489 69.802 19.2009 70.2345 18.8366 70.1912C18.6463 70.1912 18.4886 70.0183 18.4832 69.8291C18.4832 69.6453 18.5865 69.4669 18.7442 69.3696V69.375Z" fill="white"/>
<path id="Vector_16" d="M28.1674 66.937C29.1679 66.3045 30.2391 65.7802 31.3755 65.445C32.0117 65.2612 32.6751 65.1369 33.3385 65.1855C33.6974 65.2072 34.0508 65.2882 34.377 65.4342C34.9154 65.6612 35.4211 66.0018 35.7799 66.4667C36.1171 66.8991 36.2965 67.4289 36.4052 67.9587C36.5738 68.8128 36.5303 69.6939 36.3889 70.5426C36.2149 71.6129 35.8669 72.6562 35.3395 73.6023C36.0844 73.8239 36.7967 74.1482 37.4928 74.4942C37.3459 75.1861 37.1991 75.8781 37.0469 76.57C35.9866 76.3754 34.9154 76.2565 33.8442 76.1646C33.2134 76.8889 32.512 77.5538 31.7562 78.1485C31.2505 78.5485 30.7122 78.9107 30.1684 79.2675C29.5975 79.6351 29.0156 79.9972 28.3903 80.2783C27.8411 80.527 27.2376 80.6459 26.6394 80.6892C26.1392 80.7216 25.6335 80.7324 25.1387 80.6405C24.7146 80.5648 24.3013 80.4135 23.9479 80.1702C23.4748 79.8567 23.0779 79.4242 22.844 78.9053C22.583 78.3269 22.4689 77.6836 22.4852 77.0511C22.5124 76.1213 22.806 75.224 23.2029 74.3861C23.676 73.3968 24.3122 72.4941 25.0571 71.6886C25.7912 70.8886 26.6286 70.1858 27.5094 69.5588C27.5421 69.8777 27.5801 70.1912 27.6182 70.5102C26.7101 71.2724 25.8836 72.1427 25.2094 73.1211C24.5895 74.0347 24.0457 75.0402 23.9261 76.1538C24.7091 76.8457 25.6335 77.4079 26.6558 77.662C27.6834 77.9268 28.7818 77.8458 29.7823 77.516C30.7013 77.2241 31.5278 76.7106 32.2945 76.143C31.0003 76.1862 29.6953 76.2997 28.4447 76.6403C28.9395 75.6943 29.4615 74.7645 30.0651 73.8888C30.1466 73.7806 30.2119 73.6563 30.3098 73.5644C30.6795 73.4076 31.0765 73.3049 31.4734 73.2347C32.0443 73.132 32.6316 73.1536 33.208 73.2022C33.5669 73.2347 33.9257 73.2833 34.2846 73.3536C34.3009 72.2346 34.0562 71.1102 33.5505 70.1102C33.2515 69.5155 32.86 68.9587 32.3325 68.5479C31.6474 68.0073 30.7339 67.7911 29.8693 67.8938C29.206 67.9641 28.5698 68.2127 27.9771 68.5046C26.8189 69.0831 25.8021 69.9047 24.894 70.8129C24.5569 71.1535 24.2306 71.4994 23.9207 71.867C23.4476 71.9103 22.9745 71.9751 22.496 72.0022C23.279 71.121 24.0947 70.2669 24.9647 69.4615C25.9597 68.5371 27.0201 67.6776 28.1674 66.9532V66.937Z" fill="white"/>
</g>
<g id="Group_3" filter="url(#filter2_d_952_5663)">
<path id="Vector_17" d="M56.8394 37.2866C64.7825 37.2866 71.2217 30.8851 71.2217 22.9884C71.2217 15.0918 64.7825 8.69025 56.8394 8.69025C48.8963 8.69025 42.4572 15.0918 42.4572 22.9884C42.4572 30.8851 48.8963 37.2866 56.8394 37.2866Z" fill="white"/>
<path id="Vector_18" d="M48.1556 34.5999C41.7176 29.8375 40.3745 20.7612 45.1596 14.3554C49.95 7.95504 59.0797 6.61983 65.5231 11.3769C71.9612 16.1393 73.3042 25.2156 68.5192 31.6213C63.7287 38.0217 54.5991 39.357 48.1556 34.5999ZM65.3165 11.6526C59.0307 7.00363 50.1077 8.30642 45.4314 14.5609C40.7552 20.8099 42.0656 29.6807 48.3568 34.3296C54.6426 38.9785 63.5656 37.6758 68.2419 31.4213C72.9182 25.1723 71.6077 16.3015 65.3165 11.6526Z" fill="#231F20"/>
<path id="Vector_19" d="M56.8394 36.1189C64.1338 36.1189 70.0471 30.2402 70.0471 22.9884C70.0471 15.7366 64.1338 9.85785 56.8394 9.85785C49.5449 9.85785 43.6316 15.7366 43.6316 22.9884C43.6316 30.2402 49.5449 36.1189 56.8394 36.1189Z" fill="#E01E89"/>
<path id="Vector_20" d="M62.2932 15.7501C62.5759 15.6204 62.962 15.7826 63.0381 16.0907C63.0708 16.1826 63.0381 16.2799 63.0055 16.3664C62.9457 16.4096 62.8968 16.4691 62.8261 16.5015C62.5596 16.6259 62.1953 16.5015 62.092 16.2258C62.0104 16.0475 62.1138 15.815 62.2932 15.7501Z" fill="white"/>
<path id="Vector_21" d="M58.525 13.5554C58.6609 13.6202 58.786 13.7338 58.824 13.8851C58.873 14.0527 58.7697 14.2311 58.6228 14.3068C58.3618 14.4419 57.9975 14.3176 57.8833 14.0419C57.8235 13.9013 57.8562 13.7283 57.9758 13.6256C58.128 13.4905 58.351 13.4797 58.5304 13.5554H58.525Z" fill="white"/>
<path id="Vector_22" d="M62.1682 16.6258L62.2008 16.6583C61.88 17.1448 61.5972 17.6529 61.2873 18.1448C61.0644 18.5178 60.836 18.8908 60.6076 19.2638C60.5695 19.3395 60.526 19.4044 60.4717 19.4692C60.2433 19.3449 59.9986 19.2584 59.7594 19.1503C58.6447 18.6854 57.5137 18.2476 56.3337 17.9773C55.5344 17.7881 54.7296 17.6421 53.9194 17.5124C53.8107 17.4907 53.6965 17.4962 53.5986 17.4529C53.6204 16.3339 53.6313 15.2149 53.6476 14.0959C53.8161 14.5608 54.0336 15.0149 54.3436 15.4041C54.5611 15.6906 54.8438 15.9177 55.1483 16.1069C55.1266 16.0853 55.1048 16.0636 55.0831 16.0366C55.1864 16.1285 55.3115 16.1717 55.4365 16.215C55.8661 16.3555 56.35 16.3339 56.7578 16.1339C57.0895 15.9825 57.3668 15.7339 57.6061 15.4582C57.8182 15.1879 58.0139 14.8906 58.139 14.5717C58.1498 14.5554 58.1716 14.5176 58.1825 14.5014C58.1009 15.0149 58.1118 15.5501 58.2532 16.0582C58.3891 16.5339 58.6882 16.9718 59.1177 17.2313C59.0579 17.1772 58.9981 17.1232 58.9328 17.0691C59.1123 17.2421 59.3352 17.3556 59.5799 17.4151C60.091 17.5502 60.6402 17.4529 61.1242 17.2529C61.4994 17.0961 61.8582 16.8907 62.1682 16.6258Z" fill="white"/>
<path id="Vector_23" d="M53.8161 13.1716C54.0227 13.2581 54.175 13.5284 54.0608 13.7392C53.8759 14.0744 53.3159 14.0041 53.1636 13.6743C53.0657 13.5122 53.131 13.2851 53.2887 13.1878C53.4463 13.0905 53.653 13.0905 53.8161 13.1716Z" fill="white"/>
<path id="Vector_24" d="M60.8251 19.9017C61.8854 20.4207 62.8968 21.0585 63.7777 21.8478C64.2671 22.2911 64.7184 22.7884 65.0229 23.3776C65.1915 23.6911 65.3056 24.0371 65.3491 24.3885C65.4361 24.9669 65.409 25.5723 65.1915 26.1183C64.9957 26.6265 64.6368 27.0589 64.2399 27.4265C63.5928 28.0157 62.8153 28.4374 62.0105 28.7617C61.0046 29.1726 59.9279 29.4212 58.8404 29.4645C59.0362 30.2159 59.1286 30.9889 59.1939 31.7565C58.5196 31.9889 57.8508 32.2268 57.1765 32.4592C56.7905 31.4592 56.3392 30.4861 55.8552 29.5293C54.9036 29.3726 53.9684 29.1185 53.0658 28.7887C52.4568 28.5671 51.8641 28.3022 51.2768 28.0265C50.6624 27.7292 50.0479 27.4265 49.4824 27.0427C48.9822 26.7075 48.5689 26.2589 48.2155 25.7669C47.9273 25.3615 47.65 24.9345 47.4705 24.4696C47.3183 24.0695 47.2313 23.6425 47.2585 23.2154C47.2802 22.6532 47.4488 22.0856 47.7696 21.6207C48.1339 21.0964 48.6233 20.6639 49.1779 20.3504C49.9881 19.8909 50.9125 19.6693 51.8369 19.572C52.9298 19.4584 54.0391 19.5287 55.1212 19.7395C56.1869 19.9504 57.2309 20.2909 58.2314 20.7126C57.9759 20.9072 57.7257 21.1072 57.4756 21.3018C56.3446 20.9288 55.1701 20.6801 53.9793 20.6153C52.8755 20.5666 51.7227 20.6315 50.7113 21.1072C50.5264 22.1343 50.5264 23.2046 50.8364 24.2101C51.1463 25.221 51.7825 26.1075 52.5927 26.7832C53.3213 27.4103 54.1913 27.8427 55.0831 28.1995C54.3762 27.1238 53.5932 26.0751 52.6525 25.1885C53.7183 25.1182 54.7895 25.0804 55.8607 25.1291C55.9966 25.1453 56.138 25.1291 56.2685 25.1723C56.5947 25.4048 56.8883 25.6859 57.1548 25.9886C57.5409 26.421 57.829 26.9292 58.09 27.4427C58.2477 27.7671 58.3945 28.0968 58.5196 28.432C59.4875 27.8644 60.3249 27.0697 60.923 26.1183C61.2764 25.5561 61.5538 24.9345 61.6299 24.2695C61.7332 23.4046 61.4504 22.5181 60.9067 21.837C60.4989 21.3126 59.9606 20.9018 59.3951 20.5504C58.2967 19.8693 57.0623 19.4368 55.8063 19.1341C55.3386 19.026 54.871 18.9287 54.3925 18.8584C54.1098 18.48 53.8107 18.107 53.5334 17.7232C54.697 17.9286 55.8607 18.1773 56.9971 18.4908C58.3075 18.853 59.5962 19.3071 60.8197 19.9017H60.8251Z" fill="white"/>
</g>
<g id="Group_4" filter="url(#filter3_d_952_5663)">
<path id="Vector_25" d="M71.2217 58.3905C79.1649 58.3905 85.604 51.989 85.604 44.0924C85.604 36.1957 79.1649 29.7942 71.2217 29.7942C63.2786 29.7942 56.8395 36.1957 56.8395 44.0924C56.8395 51.989 63.2786 58.3905 71.2217 58.3905Z" fill="white"/>
<path id="Vector_26" d="M62.538 55.7038C56.0999 50.9414 54.7569 41.8652 59.5419 35.4594C64.3324 29.059 73.462 27.7238 79.9054 32.4808C86.3435 37.2433 87.6866 46.3195 82.9015 52.7253C78.1111 59.1257 68.9815 60.4609 62.538 55.7038ZM79.6988 32.7565C73.413 28.1076 64.49 29.4104 59.8138 35.6648C55.1375 41.9138 56.4479 50.7846 62.7392 55.4336C69.0249 60.0825 77.9479 58.7797 82.6242 52.5253C87.3005 46.2763 85.9901 37.4054 79.6988 32.7565Z" fill="#231F20"/>
<path id="Vector_27" d="M71.2217 57.2228C78.5161 57.2228 84.4294 51.3441 84.4294 44.0923C84.4294 36.8405 78.5161 30.9618 71.2217 30.9618C63.9272 30.9618 58.0139 36.8405 58.0139 44.0923C58.0139 51.3441 63.9272 57.2228 71.2217 57.2228Z" fill="#E01E89"/>
<path id="Vector_28" d="M76.6755 36.8541C76.9583 36.7243 77.3443 36.8865 77.4205 37.1946C77.4531 37.2865 77.4205 37.3838 77.3878 37.4703C77.328 37.5136 77.2791 37.573 77.2084 37.6055C76.942 37.7298 76.5776 37.6055 76.4743 37.3298C76.3928 37.1514 76.4961 36.9189 76.6755 36.8541Z" fill="white"/>
<path id="Vector_29" d="M72.9073 34.6593C73.0432 34.7242 73.1683 34.8377 73.2064 34.9891C73.2553 35.1566 73.152 35.335 73.0052 35.4107C72.7442 35.5458 72.3799 35.4215 72.2657 35.1458C72.2058 35.0053 72.2385 34.8323 72.3581 34.7296C72.5104 34.5944 72.7333 34.5836 72.9127 34.6593H72.9073Z" fill="white"/>
<path id="Vector_30" d="M76.5505 37.7298L76.5831 37.7622C76.2623 38.2487 75.9796 38.7569 75.6696 39.2488C75.4467 39.6218 75.2183 39.9948 74.9899 40.3678C74.9519 40.4435 74.9084 40.5083 74.854 40.5732C74.6256 40.4489 74.3809 40.3624 74.1417 40.2543C73.027 39.7894 71.896 39.3515 70.716 39.0812C69.9167 38.892 69.112 38.7461 68.3018 38.6163C68.193 38.5947 68.0788 38.6001 67.981 38.5569C68.0027 37.4379 68.0136 36.3189 68.0299 35.1999C68.1985 35.6648 68.416 36.1189 68.7259 36.5081C68.9434 36.7946 69.2262 37.0216 69.5307 37.2108C69.5089 37.1892 69.4872 37.1676 69.4654 37.1405C69.5687 37.2324 69.6938 37.2757 69.8188 37.3189C70.2484 37.4595 70.7323 37.4379 71.1402 37.2378C71.4719 37.0865 71.7492 36.8378 71.9884 36.5621C72.2005 36.2918 72.3962 35.9945 72.5213 35.6756C72.5322 35.6594 72.5539 35.6215 72.5648 35.6053C72.4832 36.1189 72.4941 36.654 72.6355 37.1622C72.7714 37.6379 73.0705 38.0757 73.5 38.3352C73.4402 38.2812 73.3804 38.2271 73.3152 38.173C73.4946 38.346 73.7176 38.4595 73.9622 38.519C74.4734 38.6542 75.0226 38.5568 75.5065 38.3568C75.8817 38.2001 76.2406 37.9947 76.5505 37.7298Z" fill="white"/>
<path id="Vector_31" d="M68.1984 34.2755C68.4051 34.362 68.5573 34.6323 68.4431 34.8431C68.2582 35.1783 67.6982 35.108 67.5459 34.7783C67.448 34.6161 67.5133 34.3891 67.671 34.2918C67.8287 34.1945 68.0353 34.1945 68.1984 34.2755Z" fill="white"/>
<path id="Vector_32" d="M75.2074 41.0057C76.2678 41.5246 77.2791 42.1625 78.16 42.9517C78.6494 43.395 79.1007 43.8923 79.4052 44.4815C79.5738 44.7951 79.688 45.141 79.7315 45.4924C79.8185 46.0708 79.7913 46.6763 79.5738 47.2223C79.378 47.7304 79.0192 48.1628 78.6222 48.5304C77.9751 49.1197 77.1976 49.5413 76.3928 49.8657C75.3869 50.2765 74.3103 50.5252 73.2227 50.5684C73.4185 51.3198 73.5109 52.0928 73.5762 52.8604C72.9019 53.0929 72.2331 53.3307 71.5589 53.5632C71.1728 52.5631 70.7215 51.5901 70.2375 50.6333C69.286 50.4765 68.3507 50.2224 67.4481 49.8927C66.8391 49.6711 66.2464 49.4062 65.6591 49.1305C65.0447 48.8332 64.4303 48.5304 63.8648 48.1466C63.3645 47.8115 62.9513 47.3628 62.5978 46.8709C62.3096 46.4654 62.0323 46.0384 61.8529 45.5735C61.7006 45.1735 61.6136 44.7464 61.6408 44.3194C61.6626 43.7572 61.8311 43.1896 62.1519 42.7247C62.5162 42.2003 63.0056 41.7679 63.5603 41.4543C64.3704 40.9948 65.2948 40.7732 66.2192 40.6759C67.3121 40.5624 68.4214 40.6327 69.5035 40.8435C70.5692 41.0543 71.6132 41.3949 72.6137 41.8165C72.3582 42.0111 72.108 42.2111 71.8579 42.4057C70.7269 42.0327 69.5524 41.7841 68.3616 41.7192C67.2578 41.6706 66.105 41.7354 65.0936 42.2111C64.9088 43.2382 64.9088 44.3086 65.2187 45.314C65.5286 46.3249 66.1648 47.2114 66.975 47.8872C67.7037 48.5142 68.5737 48.9467 69.4654 49.3035C68.7585 48.2277 67.9755 47.179 67.0348 46.2925C68.1006 46.2222 69.1718 46.1844 70.243 46.233C70.3789 46.2492 70.5203 46.233 70.6508 46.2762C70.9771 46.5087 71.2707 46.7898 71.5371 47.0925C71.9232 47.525 72.2114 48.0331 72.4724 48.5467C72.6301 48.871 72.7769 49.2007 72.9019 49.5359C73.8698 48.9683 74.7072 48.1737 75.3053 47.2223C75.6588 46.6601 75.9361 46.0384 76.0122 45.3735C76.1155 44.5086 75.8328 43.622 75.289 42.9409C74.8812 42.4166 74.3429 42.0057 73.7774 41.6543C72.679 40.9732 71.4447 40.5408 70.1886 40.238C69.721 40.1299 69.2534 40.0326 68.7748 39.9624C68.4921 39.584 68.193 39.211 67.9157 38.8271C69.0793 39.0326 70.243 39.2812 71.3794 39.5948C72.6899 39.9569 73.9786 40.411 75.202 41.0057H75.2074Z" fill="white"/>
</g>
<g id="Group_5" filter="url(#filter4_d_952_5663)">
<path id="Vector_33" d="M32.6044 32.1782C40.5475 32.1782 46.9867 25.7767 46.9867 17.88C46.9867 9.98336 40.5475 3.58185 32.6044 3.58185C24.6613 3.58185 18.2222 9.98336 18.2222 17.88C18.2222 25.7767 24.6613 32.1782 32.6044 32.1782Z" fill="white"/>
<path id="Vector_34" d="M32.6044 32.3457C24.5786 32.3457 18.0536 25.8534 18.0536 17.88C18.0536 9.90653 24.5786 3.41425 32.6044 3.41425C40.6302 3.41425 47.1553 9.90653 47.1553 17.88C47.1553 25.8534 40.6248 32.3457 32.6044 32.3457ZM32.6044 3.7494C24.7689 3.7494 18.3962 10.0849 18.3962 17.8746C18.3962 25.6642 24.7689 31.9998 32.6044 31.9998C40.4399 31.9998 46.8127 25.6642 46.8127 17.8746C46.8127 10.0849 40.4399 3.7494 32.6044 3.7494Z" fill="#231F20"/>
<path id="Vector_35" d="M32.6044 31.0105C39.8988 31.0105 45.8121 25.1318 45.8121 17.88C45.8121 10.6282 39.8988 4.74945 32.6044 4.74945C25.3099 4.74945 19.3966 10.6282 19.3966 17.88C19.3966 25.1318 25.3099 31.0105 32.6044 31.0105Z" fill="#E01E89"/>
<path id="Vector_36" d="M32.6425 8.83622C32.7893 8.56053 33.1972 8.46323 33.4418 8.66865C33.5288 8.7227 33.556 8.82001 33.5832 8.9119C33.5615 8.98218 33.556 9.05786 33.5234 9.12273C33.3875 9.3822 33.0232 9.49572 32.7676 9.33896C32.5936 9.24165 32.5392 8.9984 32.6425 8.83622Z" fill="white"/>
<path id="Vector_37" d="M28.2979 9.3065C28.4447 9.27947 28.6133 9.29569 28.7329 9.39299C28.8743 9.4957 28.8961 9.70112 28.8254 9.85248C28.6949 10.1174 28.3306 10.2309 28.075 10.0795C27.9445 10.0038 27.8629 9.84167 27.901 9.69572C27.9391 9.50111 28.1131 9.35515 28.3034 9.31191L28.2979 9.3065Z" fill="white"/>
<path id="Vector_38" d="M33.0667 9.6146H33.1102C33.1428 10.1984 33.2243 10.7768 33.2678 11.3552C33.3168 11.7877 33.3548 12.2202 33.3929 12.6526C33.4092 12.7337 33.4147 12.8148 33.4092 12.8959C33.1537 12.9337 32.9035 13.0094 32.648 13.0635C31.4735 13.35 30.3044 13.6689 29.1951 14.1554C28.4393 14.4798 27.7053 14.8365 26.9766 15.2149C26.8787 15.2636 26.7917 15.3339 26.683 15.3555C26.0305 14.4419 25.3671 13.5392 24.7037 12.631C25.117 12.9067 25.5629 13.1391 26.0468 13.2689C26.3948 13.3716 26.7591 13.3878 27.118 13.3554C27.0854 13.35 27.0582 13.3446 27.0256 13.3391C27.1615 13.35 27.292 13.3121 27.4171 13.2689C27.8466 13.1283 28.2218 12.8202 28.4284 12.4202C28.6079 12.1012 28.6731 11.7336 28.7003 11.3769C28.7112 11.0309 28.684 10.6849 28.597 10.3498C28.597 10.3282 28.5916 10.2903 28.5916 10.2687C28.8363 10.7336 29.1625 11.1552 29.5812 11.4742C29.9727 11.7769 30.4784 11.9499 30.9786 11.9012C30.8971 11.8904 30.8155 11.885 30.734 11.8796C30.9786 11.912 31.2288 11.8742 31.4626 11.7769C31.9574 11.5823 32.338 11.1769 32.599 10.7336C32.8057 10.3822 32.9688 10.0038 33.0612 9.60919L33.0667 9.6146Z" fill="white"/>
<path id="Vector_39" d="M24.2904 11.7931C24.5079 11.7391 24.7907 11.8688 24.8287 12.1067C24.8831 12.4851 24.3937 12.7607 24.0675 12.5878C23.8935 12.5121 23.8065 12.2959 23.8772 12.1229C23.9479 11.9553 24.111 11.8256 24.2904 11.7985V11.7931Z" fill="white"/>
<path id="Vector_40" d="M33.9475 13.0364C35.1111 12.8202 36.302 12.7391 37.4819 12.8472C38.1398 12.9121 38.7978 13.0473 39.3959 13.3338C39.7167 13.4851 40.0158 13.6959 40.2659 13.95C40.6792 14.3608 41.0217 14.8636 41.174 15.4312C41.3262 15.9555 41.2936 16.5123 41.1957 17.0475C41.0326 17.9016 40.6574 18.7016 40.2061 19.4422C39.646 20.372 38.9283 21.2045 38.08 21.8856C38.689 22.3721 39.2274 22.9343 39.7385 23.5182C39.3415 24.1074 38.9446 24.6912 38.5422 25.2804C37.6342 24.7074 36.688 24.1939 35.7256 23.7128C34.8665 24.1506 33.9693 24.502 33.0394 24.7723C32.4196 24.9561 31.7834 25.0912 31.1472 25.221C30.4784 25.3507 29.8041 25.4642 29.119 25.4967C28.5154 25.5237 27.9118 25.4102 27.3409 25.2264C26.8624 25.0696 26.3893 24.8912 25.9652 24.6263C25.6009 24.3993 25.2746 24.102 25.0408 23.7452C24.72 23.2803 24.5134 22.7289 24.4916 22.1613C24.4699 21.5234 24.6058 20.891 24.8614 20.3072C25.2366 19.4585 25.8456 18.7287 26.5307 18.107C27.3409 17.3664 28.2762 16.7664 29.2658 16.2961C30.25 15.8312 31.2886 15.4852 32.3434 15.2312C32.2564 15.5393 32.1749 15.8474 32.0879 16.1555C30.9569 16.5231 29.8639 17.0205 28.8743 17.68C27.9608 18.2962 27.0745 19.0314 26.547 20.0152C27.0147 20.945 27.6563 21.8099 28.51 22.4316C29.3637 23.0587 30.4077 23.3938 31.4626 23.4587C32.425 23.529 33.382 23.3614 34.3118 23.1181C33.0938 22.6749 31.8432 22.2965 30.5545 22.1451C31.3701 21.4532 32.2075 20.7883 33.0938 20.1936C33.208 20.1234 33.3168 20.0315 33.4418 19.9882C33.8442 19.9828 34.2466 20.0315 34.6435 20.1125C35.2145 20.2315 35.7473 20.4693 36.2693 20.7288C36.5901 20.8964 36.9055 21.0748 37.21 21.2694C37.6505 20.2369 37.8408 19.1017 37.7483 17.9881C37.694 17.3286 37.5417 16.6637 37.2046 16.0853C36.7696 15.3285 36.0083 14.7879 35.1655 14.5609C34.5239 14.3825 33.8442 14.3717 33.1808 14.4257C31.8921 14.5338 30.6361 14.9176 29.4507 15.4204C29.0102 15.6096 28.5752 15.8096 28.1511 16.0366C27.6943 15.9015 27.2322 15.7826 26.7808 15.6312C27.8412 15.1014 28.9178 14.6149 30.0216 14.1933C31.294 13.7068 32.599 13.3067 33.9366 13.0581L33.9475 13.0364Z" fill="white"/>
</g>
<g id="Group_6" filter="url(#filter5_d_952_5663)">
<path id="Vector_41" d="M40.2441 53.5091C48.1872 53.5091 54.6264 47.1076 54.6264 39.2109C54.6264 31.3143 48.1872 24.9128 40.2441 24.9128C32.301 24.9128 25.8618 31.3143 25.8618 39.2109C25.8618 47.1076 32.301 53.5091 40.2441 53.5091Z" fill="white"/>
<path id="Vector_42" d="M34.9099 52.6712C27.4442 49.7467 23.763 41.33 26.7047 33.9079C29.6464 26.4859 38.1126 22.8262 45.5783 25.7507C53.0441 28.6752 56.7253 37.0919 53.7836 44.514C50.8419 51.9361 42.3756 55.5957 34.9099 52.6712ZM45.4587 26.0696C38.167 23.2154 29.9019 26.7832 27.0255 34.0323C24.1545 41.2814 27.7432 49.4981 35.035 52.3577C42.3267 55.2119 50.5918 51.6442 53.4682 44.3951C56.3392 37.146 52.7505 28.9293 45.4587 26.0696Z" fill="#231F20"/>
<path id="Vector_43" d="M40.2441 52.3415C47.5386 52.3415 53.4519 46.4628 53.4519 39.211C53.4519 31.9592 47.5386 26.0804 40.2441 26.0804C32.9497 26.0804 27.0364 31.9592 27.0364 39.211C27.0364 46.4628 32.9497 52.3415 40.2441 52.3415Z" fill="#E01E89"/>
<path id="Vector_44" d="M43.6154 30.8105C43.8546 30.6105 44.2679 30.6645 44.4201 30.9456C44.4799 31.0267 44.469 31.1294 44.4636 31.2213C44.4147 31.2808 44.3875 31.351 44.3277 31.3997C44.1047 31.5889 43.7241 31.5673 43.5447 31.324C43.4196 31.1727 43.4577 30.924 43.6154 30.8105Z" fill="white"/>
<path id="Vector_45" d="M39.3959 29.6698C39.5427 29.6968 39.695 29.7725 39.7711 29.9077C39.8636 30.0536 39.8092 30.2536 39.6896 30.3672C39.472 30.5618 39.086 30.5401 38.9065 30.3023C38.8087 30.1834 38.7978 30.005 38.8848 29.8806C38.9935 29.7131 39.2056 29.6428 39.4014 29.6698H39.3959Z" fill="white"/>
<path id="Vector_46" d="M43.7187 31.6916L43.7567 31.7132C43.5773 32.2646 43.4359 32.8322 43.2619 33.3836C43.1477 33.8052 43.0227 34.2215 42.903 34.6377C42.8867 34.7188 42.865 34.7945 42.8269 34.8702C42.5714 34.8107 42.3158 34.7945 42.0548 34.7512C40.8585 34.5945 39.6514 34.4593 38.4388 34.508C37.6178 34.535 36.8021 34.5999 35.9865 34.6864C35.8778 34.6918 35.769 34.7242 35.6603 34.7134C35.3884 33.6268 35.1056 32.5403 34.8229 31.4592C35.1056 31.8646 35.4373 32.2484 35.8397 32.5403C36.1224 32.7619 36.4596 32.9079 36.8021 33.0106C36.7749 32.9944 36.7478 32.9782 36.7206 32.9619C36.8402 33.0214 36.9761 33.0322 37.1121 33.0376C37.5634 33.0592 38.0256 32.9133 38.3681 32.6214C38.6509 32.3889 38.8521 32.0754 39.0098 31.7511C39.1457 31.4321 39.2545 31.1024 39.2925 30.7564C39.298 30.7348 39.3088 30.6969 39.3143 30.6807C39.3687 31.1997 39.5209 31.7132 39.7873 32.1619C40.0429 32.5889 40.4453 32.9295 40.9292 33.0701C40.8585 33.0322 40.7824 32.9944 40.7117 32.9619C40.9292 33.0809 41.1793 33.1349 41.424 33.1295C41.9569 33.1295 42.4572 32.8917 42.8704 32.5727C43.1912 32.3241 43.4849 32.0322 43.7132 31.697L43.7187 31.6916Z" fill="white"/>
<path id="Vector_47" d="M34.7522 30.5186C34.9751 30.551 35.1926 30.7726 35.1328 31.0051C35.0404 31.3781 34.4858 31.4538 34.2519 31.1727C34.116 31.0375 34.116 30.8051 34.2465 30.6699C34.3716 30.5402 34.5727 30.4807 34.7522 30.5186Z" fill="white"/>
<path id="Vector_48" d="M43.2837 35.1999C44.4473 35.427 45.5892 35.7783 46.6441 36.3135C47.2313 36.6162 47.7969 36.9784 48.2482 37.4649C48.4929 37.7244 48.694 38.0271 48.83 38.3569C49.0638 38.892 49.1943 39.4813 49.129 40.0651C49.0747 40.6111 48.8409 41.1138 48.5527 41.5733C48.085 42.3085 47.4434 42.9139 46.7528 43.4383C45.8883 44.0978 44.915 44.6167 43.8764 44.941C44.2625 45.6114 44.5561 46.3357 44.8171 47.0601C44.2298 47.4601 43.6426 47.8601 43.0553 48.2602C42.4246 47.3952 41.7286 46.5736 41.0108 45.7735C40.0538 45.8708 39.0805 45.8708 38.1235 45.7843C37.4764 45.7303 36.8348 45.6222 36.1986 45.5086C35.5298 45.3843 34.8555 45.2438 34.2085 45.0275C33.6375 44.8329 33.121 44.5032 32.6533 44.1248C32.2673 43.8058 31.8921 43.4707 31.593 43.0653C31.3429 42.7193 31.1471 42.3301 31.0601 41.9084C30.9351 41.357 30.9459 40.7732 31.1363 40.2327C31.3483 39.6326 31.7126 39.092 32.1639 38.6434C32.8273 37.9893 33.6593 37.5352 34.5293 37.2C35.557 36.8054 36.6445 36.5892 37.7429 36.5135C38.8304 36.4378 39.9233 36.4973 40.9999 36.6487C40.8042 36.9027 40.6139 37.1568 40.4236 37.4163C39.2382 37.346 38.0365 37.4163 36.8728 37.6595C35.7962 37.8974 34.6978 38.2596 33.8441 38.9839C33.9366 40.0218 34.2139 41.0597 34.7794 41.9463C35.3395 42.8382 36.1932 43.5356 37.1502 43.9734C38.0202 44.3897 38.9717 44.5789 39.9233 44.6978C38.9554 43.8437 37.9332 43.0328 36.7859 42.422C37.7972 42.076 38.8195 41.7625 39.8689 41.5354C40.0049 41.5138 40.1354 41.4706 40.2713 41.4706C40.6465 41.6111 41.0054 41.8057 41.3425 42.0274C41.8319 42.3463 42.2397 42.7625 42.6258 43.1896C42.865 43.4599 43.0934 43.741 43.3 44.0329C44.0885 43.2328 44.6866 42.249 45.0128 41.1733C45.2086 40.5408 45.3119 39.8651 45.2086 39.2056C45.0835 38.346 44.5724 37.5622 43.8764 37.0433C43.3435 36.6378 42.7182 36.3838 42.082 36.1946C40.8422 35.827 39.5372 35.7243 38.2431 35.7621C37.7646 35.7783 37.2861 35.8054 36.8076 35.8594C36.4324 35.5675 36.0463 35.2864 35.682 34.9837C36.862 34.881 38.0474 34.8161 39.2327 34.8269C40.5921 34.8377 41.9569 34.9404 43.2946 35.1999H43.2837Z" fill="white"/>
</g>
<g id="Group_7" filter="url(#filter6_d_952_5663)">
<path id="Vector_49" d="M17.5588 49.7036C25.5019 49.7036 31.9411 43.3021 31.9411 35.4054C31.9411 27.5087 25.5019 21.1072 17.5588 21.1072C9.61568 21.1072 3.17651 27.5087 3.17651 35.4054C3.17651 43.3021 9.61568 49.7036 17.5588 49.7036Z" fill="white"/>
<path id="Vector_50" d="M17.5588 49.8711C9.53297 49.8711 3.00793 43.3788 3.00793 35.4054C3.00793 27.4319 9.53841 20.9396 17.5588 20.9396C25.5791 20.9396 32.1096 27.4319 32.1096 35.4054C32.1096 43.3788 25.5791 49.8711 17.5588 49.8711ZM17.5588 21.2748C9.72329 21.2748 3.3505 27.6103 3.3505 35.4C3.3505 43.1896 9.72329 49.5252 17.5588 49.5252C25.3943 49.5252 31.767 43.1896 31.767 35.4C31.767 27.6103 25.3943 21.2748 17.5588 21.2748Z" fill="#231F20"/>
<path id="Vector_51" d="M17.5587 48.5359C24.8532 48.5359 30.7665 42.6572 30.7665 35.4054C30.7665 28.1536 24.8532 22.2748 17.5587 22.2748C10.2643 22.2748 4.35095 28.1536 4.35095 35.4054C4.35095 42.6572 10.2643 48.5359 17.5587 48.5359Z" fill="#E01E89"/>
<path id="Vector_52" d="M17.5969 26.3562C17.7437 26.0805 18.1515 25.9832 18.3962 26.1886C18.4832 26.2427 18.5104 26.34 18.5376 26.4319C18.5158 26.5021 18.5104 26.5778 18.4777 26.6427C18.3418 26.9022 17.9775 27.0157 17.7219 26.8589C17.5479 26.7616 17.4936 26.5184 17.5969 26.3562Z" fill="white"/>
<path id="Vector_53" d="M13.2523 26.8319C13.3991 26.8049 13.5677 26.8211 13.6873 26.9184C13.8287 27.0211 13.8504 27.2265 13.7797 27.3779C13.6492 27.6428 13.2849 27.7563 13.0293 27.6049C12.8988 27.5292 12.8173 27.3671 12.8553 27.2211C12.8934 27.0265 13.0674 26.8805 13.2577 26.8373L13.2523 26.8319Z" fill="white"/>
<path id="Vector_54" d="M18.021 27.1346H18.0645C18.0971 27.7184 18.1787 28.2968 18.2222 28.8753C18.2711 29.3077 18.3092 29.7402 18.3473 30.1726C18.3636 30.2537 18.369 30.3348 18.3636 30.4159C18.108 30.4537 17.8579 30.5294 17.6023 30.5835C16.4278 30.87 15.2587 31.1889 14.1495 31.6754C13.3937 31.9998 12.6596 32.3566 11.931 32.735C11.8331 32.7836 11.7461 32.8539 11.6373 32.8755C10.9848 31.9619 10.3215 31.0592 9.65808 30.151C10.0713 30.4267 10.5172 30.6592 11.0012 30.7889C11.3492 30.8916 11.7135 30.9078 12.0723 30.8754C12.0397 30.87 12.0125 30.8646 11.9799 30.8592C12.1158 30.87 12.2463 30.8321 12.3714 30.7889C12.801 30.6483 13.1762 30.3402 13.3828 29.9402C13.5622 29.6213 13.6275 29.2537 13.6547 28.8969C13.6655 28.5509 13.6384 28.205 13.5514 27.8698C13.5514 27.8482 13.5459 27.8103 13.5459 27.7887C13.7906 28.2536 14.1169 28.6753 14.5355 28.9942C14.927 29.2969 15.4327 29.4699 15.933 29.4212C15.8514 29.4104 15.7699 29.405 15.6883 29.3996C15.933 29.4321 16.1831 29.3942 16.4169 29.2969C16.9117 29.1023 17.2924 28.6969 17.5534 28.2536C17.76 27.9022 17.9231 27.5238 18.0156 27.1292L18.021 27.1346Z" fill="white"/>
<path id="Vector_55" d="M9.24477 29.3131C9.46227 29.2591 9.74502 29.3888 9.78308 29.6267C9.83746 30.0051 9.34808 30.2808 9.02183 30.1078C8.84783 30.0321 8.76083 29.8159 8.83151 29.6429C8.9022 29.4753 9.06533 29.3456 9.24477 29.3185V29.3131Z" fill="white"/>
<path id="Vector_56" d="M18.9072 30.5618C20.0709 30.3456 21.2617 30.2645 22.4416 30.3726C23.0996 30.4375 23.7575 30.5726 24.3556 30.8591C24.6764 31.0105 24.9755 31.2213 25.2256 31.4754C25.6389 31.8862 25.9815 32.389 26.1337 32.9566C26.286 33.4809 26.2533 34.0377 26.1555 34.5729C25.9923 35.427 25.6171 36.227 25.1658 36.9676C24.6058 37.8974 23.888 38.7299 23.0398 39.411C23.6488 39.8975 24.1871 40.4597 24.6982 41.0435C24.3013 41.6328 23.9043 42.2166 23.5019 42.8058C22.5939 42.2328 21.6477 41.7193 20.6853 41.2382C19.8262 41.676 18.929 42.0274 17.9992 42.2977C17.3793 42.4815 16.7431 42.6166 16.1069 42.7464C15.4381 42.8761 14.7638 42.9896 14.0787 43.022C13.4751 43.0491 12.8716 42.9356 12.3006 42.7518C11.8221 42.595 11.3491 42.4166 10.9249 42.1517C10.5606 41.9247 10.2344 41.6274 10.0006 41.2706C9.67974 40.8057 9.47311 40.2543 9.45136 39.6867C9.42961 39.0488 9.56555 38.4164 9.82111 37.8325C10.1963 36.9838 10.8053 36.2541 11.4904 35.6324C12.3006 34.8918 13.2359 34.2918 14.2255 33.8215C15.2097 33.3566 16.2483 33.0106 17.3032 32.7566C17.2162 33.0647 17.1346 33.3728 17.0476 33.6809C15.9166 34.0485 14.8236 34.5459 13.834 35.2054C12.9205 35.8216 12.0342 36.5568 11.5067 37.5406C11.9744 38.4704 12.616 39.3353 13.4697 39.957C14.3234 40.5841 15.3674 40.9192 16.4223 40.9841C17.3847 41.0544 18.3417 40.8868 19.2715 40.6435C18.0535 40.2003 16.8029 39.8219 15.5142 39.6705C16.3298 38.9786 17.1672 38.3137 18.0535 37.719C18.1677 37.6487 18.2765 37.5569 18.4015 37.5136C18.8039 37.5082 19.2063 37.5569 19.6032 37.6379C20.1742 37.7569 20.707 37.9947 21.2291 38.2542C21.5499 38.4218 21.8652 38.6002 22.1697 38.7948C22.6102 37.7623 22.8005 36.6271 22.7081 35.5135C22.6537 34.854 22.5014 34.1891 22.1643 33.6107C21.7293 32.8539 20.9681 32.3133 20.1252 32.0862C19.4836 31.9079 18.8039 31.897 18.1405 31.9511C16.8518 32.0592 15.5958 32.443 14.4104 32.9458C13.9699 33.135 13.5349 33.335 13.1108 33.562C12.6541 33.4269 12.1919 33.3079 11.7406 33.1566C12.8009 32.6268 13.8775 32.1403 14.9813 31.7187C16.2537 31.2321 17.5587 30.8321 18.8964 30.5835L18.9072 30.5618Z" fill="white"/>
</g>
<g id="Group_8" filter="url(#filter7_d_952_5663)">
<path id="Vector_57" d="M58.0194 62.4124C65.9625 62.4124 72.4016 56.0109 72.4016 48.1142C72.4016 40.2175 65.9625 33.816 58.0194 33.816C50.0762 33.816 43.6371 40.2175 43.6371 48.1142C43.6371 56.0109 50.0762 62.4124 58.0194 62.4124Z" fill="white"/>
<path id="Vector_58" d="M51.1844 60.888C44.0993 57.1418 41.4023 48.3629 45.1705 41.3192C48.9387 34.2755 57.7693 31.5943 64.8544 35.3405C71.9395 39.0866 74.6365 47.8656 70.8683 54.9092C67.1001 61.9529 58.2695 64.6341 51.1844 60.888ZM64.6912 35.6432C57.7747 31.9835 49.1508 34.6053 45.4696 41.4814C41.7884 48.3575 44.4256 56.931 51.3421 60.5907C58.2586 64.2503 66.8826 61.6286 70.5638 54.7525C74.245 47.8764 71.6078 39.3029 64.6912 35.6432Z" fill="#231F20"/>
<path id="Vector_59" d="M58.0194 61.2448C65.3139 61.2448 71.2272 55.366 71.2272 48.1142C71.2272 40.8624 65.3139 34.9837 58.0194 34.9837C50.725 34.9837 44.8116 40.8624 44.8116 48.1142C44.8116 55.366 50.725 61.2448 58.0194 61.2448Z" fill="#E01E89"/>
<path id="Vector_60" d="M62.3259 40.1462C62.5869 39.9732 62.9893 40.0759 63.1089 40.3732C63.1578 40.4597 63.1361 40.5624 63.1198 40.6543C63.0654 40.7084 63.0273 40.7732 62.9621 40.8111C62.7228 40.9787 62.3422 40.9084 62.1954 40.6489C62.0921 40.4813 62.1519 40.2435 62.3259 40.1462Z" fill="white"/>
<path id="Vector_61" d="M58.2641 38.5353C58.4055 38.5785 58.5469 38.6704 58.6067 38.8164C58.6828 38.9731 58.6067 39.1677 58.4707 39.265C58.2315 39.4326 57.8509 39.3678 57.6986 39.1137C57.617 38.984 57.6225 38.8056 57.7258 38.692C57.8563 38.5407 58.0738 38.492 58.2641 38.5407V38.5353Z" fill="white"/>
<path id="Vector_62" d="M62.3314 41.0327L62.3694 41.0597C62.1247 41.5895 61.9236 42.1355 61.6897 42.6652C61.5266 43.0707 61.3581 43.4707 61.1895 43.8707C61.1623 43.9464 61.1297 44.0221 61.0916 44.0978C60.8469 44.0113 60.5914 43.9626 60.3412 43.8923C59.1667 43.6004 57.9814 43.3355 56.7742 43.2436C55.9586 43.1788 55.1375 43.1517 54.3165 43.1463C54.2077 43.1463 54.0935 43.1626 53.9902 43.1355C53.8434 42.0274 53.6857 40.9138 53.5334 39.8056C53.7673 40.2435 54.0555 40.6543 54.4198 40.9949C54.6753 41.2489 54.9907 41.4273 55.3224 41.5733C55.2952 41.5517 55.2735 41.5354 55.2463 41.5138C55.3605 41.5895 55.4964 41.6111 55.6269 41.6327C56.0728 41.7084 56.5458 41.6111 56.921 41.357C57.231 41.157 57.4648 40.8705 57.6551 40.5624C57.8237 40.2597 57.9705 39.9407 58.052 39.6056C58.0575 39.5894 58.0738 39.5515 58.0847 39.5299C58.0847 40.0489 58.1717 40.5786 58.3892 41.0543C58.5958 41.5084 58.9547 41.8922 59.4223 42.0814C59.357 42.0328 59.2864 41.9895 59.2157 41.9463C59.4169 42.0922 59.6561 42.1733 59.9062 42.1949C60.4337 42.2544 60.9611 42.0706 61.407 41.8057C61.755 41.5949 62.0758 41.3354 62.3477 41.0327H62.3314Z" fill="white"/>
<path id="Vector_63" d="M53.5551 38.8596C53.7726 38.9137 53.9629 39.1624 53.8814 39.384C53.7454 39.7462 53.1854 39.757 52.9842 39.4543C52.8645 39.3083 52.8917 39.0759 53.0331 38.9569C53.1745 38.838 53.3757 38.8056 53.5497 38.8596H53.5551Z" fill="white"/>
<path id="Vector_64" d="M61.494 44.4707C62.625 44.8275 63.7179 45.3086 64.7075 45.9573C65.2567 46.3249 65.7787 46.7465 66.1702 47.2817C66.3823 47.5682 66.5454 47.8872 66.6487 48.2331C66.8227 48.7899 66.8826 49.3899 66.7521 49.963C66.6379 50.4981 66.3442 50.9738 66.0071 51.4009C65.4579 52.0766 64.751 52.6118 64.0061 53.0496C63.0708 53.6064 62.0431 54.0119 60.9774 54.2173C61.2873 54.9308 61.494 55.6768 61.6734 56.4336C61.0426 56.7634 60.4173 57.0985 59.7866 57.4283C59.2537 56.4985 58.661 55.6011 58.0411 54.7308C57.0787 54.72 56.1162 54.6065 55.1701 54.4173C54.5339 54.2875 53.9086 54.1146 53.2887 53.9254C52.6362 53.7253 51.9837 53.5145 51.3693 53.2226C50.8255 52.9631 50.347 52.5793 49.9283 52.1523C49.5803 51.7955 49.2432 51.4117 48.9985 50.9792C48.7864 50.6062 48.6396 50.1954 48.5961 49.7684C48.5363 49.2062 48.6124 48.6277 48.8626 48.1142C49.1399 47.5412 49.564 47.0439 50.0643 46.6492C50.7983 46.0762 51.6792 45.7141 52.5764 45.4816C53.6422 45.2059 54.7514 45.1086 55.8444 45.1573C56.9319 45.2059 58.0085 45.3843 59.0634 45.6546C58.8404 45.887 58.6229 46.1195 58.4 46.3519C57.2255 46.1519 56.0292 46.0816 54.8439 46.1952C53.7455 46.3087 52.6145 46.5465 51.6847 47.1682C51.6575 48.2115 51.8151 49.271 52.2773 50.217C52.7341 51.1684 53.5008 51.9523 54.398 52.4982C55.2136 53.0064 56.138 53.3091 57.0732 53.5253C56.2087 52.5685 55.2843 51.6495 54.2185 50.9144C55.2625 50.6819 56.3174 50.4873 57.3832 50.3792C57.5191 50.3738 57.6551 50.3414 57.791 50.3576C58.1499 50.5414 58.4816 50.7738 58.7915 51.0279C59.2374 51.4009 59.6017 51.855 59.9334 52.3253C60.14 52.6226 60.3358 52.9253 60.5098 53.2442C61.3852 52.5361 62.0921 51.6279 62.538 50.5954C62.8044 49.99 62.9838 49.3305 62.9567 48.6602C62.9295 47.7899 62.5108 46.952 61.8746 46.3627C61.3906 45.9033 60.798 45.5789 60.1889 45.314C58.9981 44.8059 57.7094 44.5626 56.4262 44.4491C55.9477 44.4113 55.4692 44.3842 54.9907 44.3842C54.6535 44.0491 54.3001 43.7301 53.9684 43.3896C55.1538 43.4166 56.3337 43.4923 57.5137 43.6328C58.8622 43.8004 60.2107 44.0491 61.5048 44.4599L61.494 44.4707Z" fill="white"/>
</g>
<g id="Group_9" filter="url(#filter8_d_952_5663)">
<path id="Vector_65" d="M17.5588 68.083C25.5019 68.083 31.9411 61.6815 31.9411 53.7849C31.9411 45.8882 25.5019 39.4867 17.5588 39.4867C9.61568 39.4867 3.17651 45.8882 3.17651 53.7849C3.17651 61.6815 9.61568 68.083 17.5588 68.083Z" fill="white"/>
<path id="Vector_66" d="M17.5588 68.256C9.53297 68.256 3.00793 61.7637 3.00793 53.7903C3.00793 45.8168 9.53841 39.3245 17.5588 39.3245C25.5791 39.3245 32.1096 45.8168 32.1096 53.7903C32.1096 61.7637 25.5791 68.256 17.5588 68.256ZM17.5588 39.6597C9.72329 39.6597 3.3505 45.9952 3.3505 53.7849C3.3505 61.5745 9.72329 67.91 17.5588 67.91C25.3943 67.91 31.767 61.5745 31.767 53.7849C31.767 45.9952 25.3943 39.6597 17.5588 39.6597Z" fill="#231F20"/>
<path id="Vector_67" d="M17.5587 66.9154C24.8532 66.9154 30.7665 61.0367 30.7665 53.7849C30.7665 46.5331 24.8532 40.6544 17.5587 40.6544C10.2643 40.6544 4.35095 46.5331 4.35095 53.7849C4.35095 61.0367 10.2643 66.9154 17.5587 66.9154Z" fill="#E01E89"/>
<path id="Vector_68" d="M17.5969 44.7411C17.7437 44.4654 18.1515 44.3681 18.3962 44.5735C18.4832 44.6275 18.5104 44.7249 18.5376 44.8168C18.5158 44.887 18.5104 44.9627 18.4777 45.0276C18.3418 45.2871 17.9775 45.4006 17.7219 45.2438C17.5479 45.1465 17.4936 44.9032 17.5969 44.7411Z" fill="white"/>
<path id="Vector_69" d="M13.2523 45.2168C13.3991 45.1898 13.5677 45.206 13.6873 45.3033C13.8287 45.406 13.8504 45.6114 13.7797 45.7628C13.6492 46.0276 13.2849 46.1412 13.0293 45.9898C12.8988 45.9141 12.8173 45.7519 12.8553 45.606C12.8934 45.4114 13.0674 45.2654 13.2577 45.2222L13.2523 45.2168Z" fill="white"/>
<path id="Vector_70" d="M18.021 45.5195H18.0645C18.0971 46.1033 18.1787 46.6817 18.2222 47.2601C18.2711 47.6926 18.3092 48.1251 18.3473 48.5575C18.3636 48.6386 18.369 48.7197 18.3636 48.8008C18.108 48.8386 17.8579 48.9143 17.6023 48.9684C16.4278 49.2549 15.2587 49.5738 14.1495 50.0603C13.3937 50.3847 12.6596 50.7414 11.931 51.1198C11.8331 51.1685 11.7461 51.2388 11.6373 51.2604C10.9848 50.3468 10.3215 49.4441 9.65808 48.5359C10.0713 48.8116 10.5172 49.044 11.0012 49.1738C11.3492 49.2765 11.7135 49.2927 12.0723 49.2603C12.0397 49.2549 12.0125 49.2495 11.9799 49.2441C12.1158 49.2549 12.2463 49.217 12.3714 49.1738C12.801 49.0332 13.1762 48.7251 13.3828 48.3251C13.5622 48.0061 13.6275 47.6386 13.6547 47.2818C13.6655 46.9358 13.6384 46.5898 13.5514 46.2547C13.5514 46.2331 13.5459 46.1952 13.5459 46.1736C13.7906 46.6385 14.1169 47.0601 14.5355 47.3791C14.927 47.6818 15.4327 47.8548 15.933 47.8061C15.8514 47.7953 15.7699 47.7899 15.6883 47.7845C15.933 47.8169 16.1831 47.7791 16.4169 47.6818C16.9117 47.4872 17.2924 47.0818 17.5534 46.6385C17.76 46.2871 17.9231 45.9087 18.0156 45.5141L18.021 45.5195Z" fill="white"/>
<path id="Vector_71" d="M9.24477 47.698C9.46227 47.644 9.74502 47.7737 9.78308 48.0116C9.83746 48.39 9.34808 48.6657 9.02183 48.4927C8.84783 48.417 8.76083 48.2008 8.83151 48.0278C8.9022 47.8602 9.06533 47.7305 9.24477 47.7034V47.698Z" fill="white"/>
<path id="Vector_72" d="M18.9072 48.9413C20.0709 48.7251 21.2617 48.644 22.4416 48.7521C23.0996 48.817 23.7575 48.9522 24.3556 49.2387C24.6764 49.39 24.9755 49.6008 25.2256 49.8549C25.6389 50.2658 25.9815 50.7685 26.1337 51.3361C26.286 51.8604 26.2533 52.4172 26.1555 52.9524C25.9923 53.8065 25.6171 54.6066 25.1658 55.3471C24.6058 56.2769 23.888 57.1094 23.0398 57.7905C23.6488 58.2771 24.1871 58.8392 24.6982 59.4231C24.3013 60.0123 23.9043 60.5961 23.5019 61.1853C22.5939 60.6123 21.6477 60.0988 20.6853 59.6177C19.8262 60.0555 18.929 60.4069 17.9992 60.6772C17.3793 60.861 16.7431 60.9961 16.1069 61.1259C15.4381 61.2556 14.7638 61.3691 14.0787 61.4016C13.4751 61.4286 12.8716 61.3151 12.3006 61.1313C11.8221 60.9745 11.3491 60.7961 10.9249 60.5312C10.5606 60.3042 10.2344 60.0069 10.0006 59.6501C9.67974 59.1852 9.47311 58.6338 9.45136 58.0662C9.42961 57.4284 9.56555 56.7959 9.82111 56.2121C10.1963 55.3634 10.8053 54.6336 11.4904 54.0119C12.3006 53.2713 13.2359 52.6713 14.2255 52.201C15.2097 51.7361 16.2483 51.3901 17.3032 51.1361C17.2162 51.4442 17.1346 51.7523 17.0476 52.0605C15.9166 52.428 14.8236 52.9254 13.834 53.5849C12.9205 54.2011 12.0342 54.9363 11.5067 55.9202C11.9744 56.8499 12.616 57.7149 13.4697 58.3365C14.3234 58.9636 15.3674 59.2987 16.4223 59.3636C17.3847 59.4339 18.3417 59.2663 19.2715 59.023C18.0535 58.5798 16.8029 58.2014 15.5142 58.05C16.3298 57.3581 17.1672 56.6932 18.0535 56.0985C18.1677 56.0283 18.2765 55.9364 18.4015 55.8931C18.8039 55.8877 19.2063 55.9364 19.6032 56.0175C20.1742 56.1364 20.707 56.3742 21.2291 56.6337C21.5499 56.8013 21.8652 56.9797 22.1697 57.1743C22.6102 56.1418 22.8005 55.0066 22.7081 53.893C22.6537 53.2335 22.5014 52.5686 22.1643 51.9902C21.7293 51.2334 20.9681 50.6928 20.1252 50.4658C19.4836 50.2874 18.8039 50.2766 18.1405 50.3306C16.8518 50.4387 15.5958 50.8225 14.4104 51.3253C13.9699 51.5145 13.5349 51.7145 13.1108 51.9415C12.6541 51.8064 12.1919 51.6875 11.7406 51.5361C12.8009 51.0063 13.8775 50.5198 14.9813 50.0982C16.2537 49.6117 17.5587 49.2116 18.8964 48.963L18.9072 48.9413Z" fill="white"/>
</g>
<g id="Group_10" filter="url(#filter9_d_952_5663)">
<path id="Vector_73" d="M37.3242 68.9966C45.2673 68.9966 51.7064 62.5951 51.7064 54.6984C51.7064 46.8018 45.2673 40.4003 37.3242 40.4003C29.3811 40.4003 22.9419 46.8018 22.9419 54.6984C22.9419 62.5951 29.3811 68.9966 37.3242 68.9966Z" fill="white"/>
<path id="Vector_74" d="M37.3241 69.1642C29.2984 69.1642 22.7733 62.6719 22.7733 54.6984C22.7733 46.725 29.3038 40.2327 37.3241 40.2327C45.3445 40.2327 51.875 46.725 51.875 54.6984C51.875 62.6719 45.3445 69.1642 37.3241 69.1642ZM37.3241 40.5678C29.4887 40.5678 23.1159 46.9033 23.1159 54.693C23.1159 62.4827 29.4887 68.8182 37.3241 68.8182C45.1596 68.8182 51.5324 62.4827 51.5324 54.693C51.5324 46.9033 45.1596 40.5678 37.3241 40.5678Z" fill="#231F20"/>
<path id="Vector_75" d="M37.3241 67.8289C44.6185 67.8289 50.5319 61.9502 50.5319 54.6984C50.5319 47.4466 44.6185 41.5679 37.3241 41.5679C30.0296 41.5679 24.1163 47.4466 24.1163 54.6984C24.1163 61.9502 30.0296 67.8289 37.3241 67.8289Z" fill="#E01E89"/>
<path id="Vector_76" d="M37.3568 45.6546C37.5036 45.379 37.9114 45.2816 38.1561 45.4871C38.2431 45.5411 38.2703 45.6384 38.2975 45.7303C38.2757 45.8006 38.2703 45.8763 38.2376 45.9412C38.1017 46.2006 37.7374 46.3141 37.4818 46.1574C37.3078 46.0601 37.2534 45.8168 37.3568 45.6546Z" fill="white"/>
<path id="Vector_77" d="M33.0122 46.1303C33.159 46.1033 33.3275 46.1195 33.4472 46.2168C33.5885 46.3195 33.6103 46.5249 33.5396 46.6763C33.4091 46.9412 33.0448 47.0547 32.7892 46.9033C32.6587 46.8276 32.5772 46.6655 32.6152 46.5195C32.6533 46.3249 32.8273 46.1789 33.0176 46.1357L33.0122 46.1303Z" fill="white"/>
<path id="Vector_78" d="M37.7809 46.433H37.8244C37.857 47.0168 37.9386 47.5953 37.9821 48.1737C38.031 48.6061 38.0691 49.0386 38.1071 49.471C38.1235 49.5521 38.1289 49.6332 38.1235 49.7143C37.8679 49.7521 37.6178 49.8278 37.3622 49.8819C36.1877 50.1684 35.0186 50.4873 33.9094 50.9738C33.1536 51.2982 32.4195 51.655 31.6909 52.0334C31.593 52.082 31.506 52.1523 31.3972 52.1739C30.7447 51.2603 30.0813 50.3576 29.418 49.4494C29.8312 49.7251 30.2771 49.9576 30.761 50.0873C31.109 50.19 31.4734 50.2062 31.8322 50.1738C31.7996 50.1684 31.7724 50.163 31.7398 50.1576C31.8757 50.1684 32.0062 50.1305 32.1313 50.0873C32.5609 49.9467 32.9361 49.6386 33.1427 49.2386C33.3221 48.9197 33.3874 48.5521 33.4146 48.1953C33.4254 47.8493 33.3982 47.5034 33.3112 47.1682C33.3112 47.1466 33.3058 47.1087 33.3058 47.0871C33.5505 47.552 33.8767 47.9737 34.2954 48.2926C34.6869 48.5953 35.1926 48.7683 35.6929 48.7196C35.6113 48.7088 35.5298 48.7034 35.4482 48.698C35.6929 48.7305 35.943 48.6926 36.1768 48.5953C36.6716 48.4007 37.0523 47.9953 37.3133 47.552C37.5199 47.2006 37.683 46.8222 37.7755 46.4276L37.7809 46.433Z" fill="white"/>
<path id="Vector_79" d="M29.0048 48.6115C29.2223 48.5575 29.505 48.6872 29.5431 48.9251C29.5975 49.3035 29.1081 49.5792 28.7818 49.4062C28.6078 49.3305 28.5208 49.1143 28.5915 48.9413C28.6622 48.7737 28.8253 48.644 29.0048 48.6169V48.6115Z" fill="white"/>
<path id="Vector_80" d="M38.6672 49.8549C39.8309 49.6386 41.0217 49.5575 42.2016 49.6657C42.8596 49.7305 43.5175 49.8657 44.1156 50.1522C44.4365 50.3035 44.7355 50.5144 44.9856 50.7684C45.3989 51.1793 45.7415 51.682 45.8937 52.2496C46.046 52.774 46.0133 53.3307 45.9155 53.8659C45.7523 54.72 45.3772 55.5201 44.9258 56.2607C44.3658 57.1904 43.648 58.0229 42.7998 58.704C43.4088 59.1906 43.9471 59.7528 44.4582 60.3366C44.0613 60.9258 43.6643 61.5096 43.2619 62.0988C42.3539 61.5258 41.4078 61.0123 40.4453 60.5312C39.5862 60.969 38.689 61.3204 37.7592 61.5907C37.1393 61.7745 36.5031 61.9096 35.8669 62.0394C35.1981 62.1691 34.5238 62.2826 33.8387 62.3151C33.2351 62.3421 32.6316 62.2286 32.0606 62.0448C31.5821 61.888 31.1091 61.7096 30.6849 61.4448C30.3206 61.2177 29.9944 60.9204 29.7606 60.5636C29.4397 60.0987 29.2331 59.5473 29.2114 58.9797C29.1896 58.3419 29.3256 57.7094 29.5811 57.1256C29.9563 56.2769 30.5653 55.5471 31.2504 54.9254C32.0606 54.1849 32.9959 53.5848 33.9855 53.1145C34.9697 52.6496 36.0083 52.3037 37.0632 52.0496C36.9762 52.3577 36.8946 52.6658 36.8076 52.974C35.6766 53.3416 34.5836 53.8389 33.594 54.4984C32.6805 55.1146 31.7942 55.8498 31.2668 56.8337C31.7344 57.7634 32.376 58.6284 33.2297 59.25C34.0834 59.8771 35.1274 60.2122 36.1823 60.2771C37.1447 60.3474 38.1017 60.1798 39.0316 59.9366C37.8135 59.4933 36.5629 59.1149 35.2742 58.9635C36.0898 58.2716 36.9272 57.6067 37.8135 57.0121C37.9277 56.9418 38.0365 56.8499 38.1615 56.8066C38.5639 56.8012 38.9663 56.8499 39.3632 56.931C39.9342 57.0499 40.4671 57.2877 40.9891 57.5472C41.3099 57.7148 41.6253 57.8932 41.9298 58.0878C42.3702 57.0553 42.5605 55.9201 42.4681 54.8065C42.4137 54.147 42.2614 53.4821 41.9243 52.9037C41.4893 52.1469 40.7281 51.6063 39.8852 51.3793C39.2436 51.2009 38.5639 51.1901 37.9005 51.2441C36.6118 51.3522 35.3558 51.7361 34.1704 52.2388C33.73 52.428 33.295 52.628 32.8708 52.855C32.4141 52.7199 31.9519 52.601 31.5006 52.4496C32.5609 51.9198 33.6375 51.4333 34.7413 51.0117C36.0137 50.5252 37.3187 50.1251 38.6564 49.8765L38.6672 49.8549Z" fill="white"/>
</g>
</g>
<defs>
<filter id="filter0_d_952_5663" x="34.7567" y="50.7858" width="36.2617" height="36.0915" filterUnits="userSpaceOnUse" color-interpolation-filters="sRGB">
<feFlood flood-opacity="0" result="BackgroundImageFix"/>
<feColorMatrix in="SourceAlpha" type="matrix" values="0 0 0 0 0 0 0 0 0 0 0 0 0 0 0 0 0 0 127 0" result="hardAlpha"/>
<feOffset dx="-1.07" dy="-1.43"/>
<feGaussianBlur stdDeviation="1.79"/>
<feColorMatrix type="matrix" values="0 0 0 0 0 0 0 0 0 0 0 0 0 0 0 0 0 0 0.6 0"/>
<feBlend mode="normal" in2="BackgroundImageFix" result="effect1_dropShadow_952_5663"/>
<feBlend mode="normal" in="SourceGraphic" in2="effect1_dropShadow_952_5663" result="shape"/>
</filter>
<filter id="filter1_d_952_5663" x="10.6162" y="53.884" width="36.2606" height="36.0904" filterUnits="userSpaceOnUse" color-interpolation-filters="sRGB">
<feFlood flood-opacity="0" result="BackgroundImageFix"/>
<feColorMatrix in="SourceAlpha" type="matrix" values="0 0 0 0 0 0 0 0 0 0 0 0 0 0 0 0 0 0 127 0" result="hardAlpha"/>
<feOffset/>
<feGaussianBlur stdDeviation="1.79"/>
<feColorMatrix type="matrix" values="0 0 0 0 0 0 0 0 0 0 0 0 0 0 0 0 0 0 0.3 0"/>
<feBlend mode="normal" in2="BackgroundImageFix" result="effect1_dropShadow_952_5663"/>
<feBlend mode="normal" in="SourceGraphic" in2="effect1_dropShadow_952_5663" result="shape"/>
</filter>
<filter id="filter2_d_952_5663" x="38.7126" y="7.44667" width="36.2536" height="36.0835" filterUnits="userSpaceOnUse" color-interpolation-filters="sRGB">
<feFlood flood-opacity="0" result="BackgroundImageFix"/>
<feColorMatrix in="SourceAlpha" type="matrix" values="0 0 0 0 0 0 0 0 0 0 0 0 0 0 0 0 0 0 127 0" result="hardAlpha"/>
<feOffset dy="2.5"/>
<feGaussianBlur stdDeviation="1.79"/>
<feColorMatrix type="matrix" values="0 0 0 0 0 0 0 0 0 0 0 0 0 0 0 0 0 0 0.3 0"/>
<feBlend mode="normal" in2="BackgroundImageFix" result="effect1_dropShadow_952_5663"/>
<feBlend mode="normal" in="SourceGraphic" in2="effect1_dropShadow_952_5663" result="shape"/>
</filter>
<filter id="filter3_d_952_5663" x="49.1649" y="24.6206" width="36.6036" height="36.0835" filterUnits="userSpaceOnUse" color-interpolation-filters="sRGB">
<feFlood flood-opacity="0" result="BackgroundImageFix"/>
<feColorMatrix in="SourceAlpha" type="matrix" values="0 0 0 0 0 0 0 0 0 0 0 0 0 0 0 0 0 0 127 0" result="hardAlpha"/>
<feOffset dx="-3.93" dy="-1.43"/>
<feGaussianBlur stdDeviation="1.79"/>
<feColorMatrix type="matrix" values="0 0 0 0 0 0 0 0 0 0 0 0 0 0 0 0 0 0 0.3 0"/>
<feBlend mode="normal" in2="BackgroundImageFix" result="effect1_dropShadow_952_5663"/>
<feBlend mode="normal" in="SourceGraphic" in2="effect1_dropShadow_952_5663" result="shape"/>
</filter>
<filter id="filter4_d_952_5663" x="13.4036" y="-0.165754" width="36.2617" height="36.0915" filterUnits="userSpaceOnUse" color-interpolation-filters="sRGB">
<feFlood flood-opacity="0" result="BackgroundImageFix"/>
<feColorMatrix in="SourceAlpha" type="matrix" values="0 0 0 0 0 0 0 0 0 0 0 0 0 0 0 0 0 0 127 0" result="hardAlpha"/>
<feOffset dx="-1.07"/>
<feGaussianBlur stdDeviation="1.79"/>
<feColorMatrix type="matrix" values="0 0 0 0 0 0 0 0 0 0 0 0 0 0 0 0 0 0 0.3 0"/>
<feBlend mode="normal" in2="BackgroundImageFix" result="effect1_dropShadow_952_5663"/>
<feBlend mode="normal" in="SourceGraphic" in2="effect1_dropShadow_952_5663" result="shape"/>
</filter>
<filter id="filter5_d_952_5663" x="22.1112" y="21.1631" width="36.266" height="36.0957" filterUnits="userSpaceOnUse" color-interpolation-filters="sRGB">
<feFlood flood-opacity="0" result="BackgroundImageFix"/>
<feColorMatrix in="SourceAlpha" type="matrix" values="0 0 0 0 0 0 0 0 0 0 0 0 0 0 0 0 0 0 127 0" result="hardAlpha"/>
<feOffset/>
<feGaussianBlur stdDeviation="1.79"/>
<feColorMatrix type="matrix" values="0 0 0 0 0 0 0 0 0 0 0 0 0 0 0 0 0 0 0.3 0"/>
<feBlend mode="normal" in2="BackgroundImageFix" result="effect1_dropShadow_952_5663"/>
<feBlend mode="normal" in="SourceGraphic" in2="effect1_dropShadow_952_5663" result="shape"/>
</filter>
<filter id="filter6_d_952_5663" x="1.92793" y="19.8596" width="36.2617" height="36.0915" filterUnits="userSpaceOnUse" color-interpolation-filters="sRGB">
<feFlood flood-opacity="0" result="BackgroundImageFix"/>
<feColorMatrix in="SourceAlpha" type="matrix" values="0 0 0 0 0 0 0 0 0 0 0 0 0 0 0 0 0 0 127 0" result="hardAlpha"/>
<feOffset dx="2.5" dy="2.5"/>
<feGaussianBlur stdDeviation="1.79"/>
<feColorMatrix type="matrix" values="0 0 0 0 0 0 0 0 0 0 0 0 0 0 0 0 0 0 0.6 0"/>
<feBlend mode="normal" in2="BackgroundImageFix" result="effect1_dropShadow_952_5663"/>
<feBlend mode="normal" in="SourceGraphic" in2="effect1_dropShadow_952_5663" result="shape"/>
</filter>
<filter id="filter7_d_952_5663" x="39.8879" y="32.5678" width="36.263" height="36.0928" filterUnits="userSpaceOnUse" color-interpolation-filters="sRGB">
<feFlood flood-opacity="0" result="BackgroundImageFix"/>
<feColorMatrix in="SourceAlpha" type="matrix" values="0 0 0 0 0 0 0 0 0 0 0 0 0 0 0 0 0 0 127 0" result="hardAlpha"/>
<feOffset dy="2.5"/>
<feGaussianBlur stdDeviation="1.79"/>
<feColorMatrix type="matrix" values="0 0 0 0 0 0 0 0 0 0 0 0 0 0 0 0 0 0 0.5 0"/>
<feBlend mode="normal" in2="BackgroundImageFix" result="effect1_dropShadow_952_5663"/>
<feBlend mode="normal" in="SourceGraphic" in2="effect1_dropShadow_952_5663" result="shape"/>
</filter>
<filter id="filter8_d_952_5663" x="0.497935" y="34.3145" width="36.2617" height="36.0915" filterUnits="userSpaceOnUse" color-interpolation-filters="sRGB">
<feFlood flood-opacity="0" result="BackgroundImageFix"/>
<feColorMatrix in="SourceAlpha" type="matrix" values="0 0 0 0 0 0 0 0 0 0 0 0 0 0 0 0 0 0 127 0" result="hardAlpha"/>
<feOffset dx="1.07" dy="-1.43"/>
<feGaussianBlur stdDeviation="1.79"/>
<feColorMatrix type="matrix" values="0 0 0 0 0 0 0 0 0 0 0 0 0 0 0 0 0 0 0.6 0"/>
<feBlend mode="normal" in2="BackgroundImageFix" result="effect1_dropShadow_952_5663"/>
<feBlend mode="normal" in="SourceGraphic" in2="effect1_dropShadow_952_5663" result="shape"/>
</filter>
<filter id="filter9_d_952_5663" x="18.1233" y="36.6527" width="36.2617" height="36.0915" filterUnits="userSpaceOnUse" color-interpolation-filters="sRGB">
<feFlood flood-opacity="0" result="BackgroundImageFix"/>
<feColorMatrix in="SourceAlpha" type="matrix" values="0 0 0 0 0 0 0 0 0 0 0 0 0 0 0 0 0 0 127 0" result="hardAlpha"/>
<feOffset dx="-1.07"/>
<feGaussianBlur stdDeviation="1.79"/>
<feColorMatrix type="matrix" values="0 0 0 0 0 0 0 0 0 0 0 0 0 0 0 0 0 0 0.6 0"/>
<feBlend mode="normal" in2="BackgroundImageFix" result="effect1_dropShadow_952_5663"/>
<feBlend mode="normal" in="SourceGraphic" in2="effect1_dropShadow_952_5663" result="shape"/>
</filter>
<clipPath id="clip0_952_5663">
<rect width="86" height="89" fill="white" transform="translate(0.604492 0.40863)"/>
</clipPath>
</defs>
</svg>
