<svg width="29" height="29" viewBox="0 0 29 29" fill="none" xmlns="http://www.w3.org/2000/svg">
<rect x="14.7357" y="0.884149" width="10.8343" height="10.8343" rx="3.39169" fill="#DE0F7E" stroke="#DE0F7E" stroke-width="1.3"/>
<rect x="0.801172" y="0.884149" width="10.8343" height="10.8343" rx="3.39169" fill="#DE0F7E" stroke="#DE0F7E" stroke-width="1.3"/>
<rect x="0.801172" y="14.4185" width="10.8343" height="10.8343" rx="3.39169" fill="#DE0F7E" stroke="#DE0F7E" stroke-width="1.3"/>
<path d="M24.768 25.2682C24.1135 25.8094 23.3565 26.214 22.542 26.4578C21.7125 26.706 20.8409 26.7821 19.9809 26.6816C18.7791 26.5537 17.6384 26.0878 16.6917 25.3381C15.7447 24.5882 15.0307 23.5853 14.6329 22.4461C14.2352 21.3069 14.17 20.0783 14.445 18.9036C14.7199 17.729 15.3236 16.6565 16.1858 15.8111C17.3101 14.694 18.8124 14.0368 20.3975 13.9684C21.9827 13.9001 23.5363 14.4255 24.7531 15.4418L24.768 25.2682ZM24.768 25.2682L24.7806 25.287M24.768 25.2682L24.7806 25.287M24.7806 25.287C24.8025 25.3246 24.8286 25.3596 24.8584 25.3912L24.8583 25.3913L24.8616 25.3946C25.482 26.015 25.7157 26.278 25.9463 26.5375L25.954 26.546C26.1903 26.812 26.4277 27.0782 27.0623 27.7099C27.0625 27.7101 27.0627 27.7104 27.0629 27.7106L27.2531 27.9046L27.2531 27.9047L27.2569 27.9083L27.3463 27.9933L27.3463 27.9933L27.3486 27.9954C27.4584 28.0955 27.6014 28.1518 27.7501 28.1534L27.752 28.1534C27.8431 28.1533 27.933 28.1332 28.0154 28.0945C28.1276 28.0502 28.2232 27.9717 28.2884 27.8701C28.3548 27.7667 28.3862 27.6447 28.378 27.5222L28.378 27.5222L28.3778 27.5197C28.3697 27.4217 28.3408 27.3266 28.293 27.2407C28.247 27.1578 28.1844 27.0853 28.1093 27.0275L27.8918 26.8157L26.2519 25.0547L26.252 25.0546L26.2481 25.0507L25.8225 24.6261L25.8218 24.6253L25.6222 24.4291C26.6854 23.1231 27.1935 21.4527 27.0364 19.7763C26.878 18.0875 26.0574 16.5295 24.7531 15.4418L24.7806 25.287ZM25.809 20.5175H25.8145C25.7679 21.8237 25.2269 23.0661 24.2972 23.9922C23.3318 24.954 22.0251 25.4971 20.6608 25.5037C20.6607 25.5037 20.6607 25.5037 20.6606 25.5037L20.6275 25.5037C19.6067 25.502 18.6095 25.1977 17.7623 24.6296C16.9151 24.0616 16.2562 23.2552 15.869 22.313C15.4819 21.3707 15.384 20.335 15.5878 19.3371C15.7915 18.3393 16.2877 17.4243 17.0135 16.7082L17.0137 16.7081C17.7373 15.9917 18.6573 15.5052 19.6577 15.3099C20.6581 15.1146 21.6941 15.2193 22.6349 15.6108C23.5758 16.0023 24.3793 16.663 24.9442 17.5095C25.5091 18.356 25.81 19.3505 25.8091 20.3674L25.809 20.5175Z" fill="#DE0F7E" stroke="#DE0F7E" stroke-width="0.3"/>
</svg>
