<?xml version="1.0" encoding="UTF-8"?><svg id="Layer_1" xmlns="http://www.w3.org/2000/svg" viewBox="0 0 366.56 158.51"><defs><style>.cls-1{fill:#010101;}.cls-1,.cls-2,.cls-3{stroke-width:0px;}.cls-2{fill:#231f20;}.cls-3{fill:#e01e89;}</style></defs><path class="cls-1" d="m279.01,26.28c.84-1.56,3.15-2.13,4.54-.96.48.31.63.87.8,1.39-.13.4-.14.84-.35,1.22-.77,1.47-2.85,2.14-4.28,1.23-.97-.56-1.3-1.94-.7-2.88Z"/><path class="cls-1" d="m254.37,28.99c.84-.16,1.79-.07,2.47.5.79.59.94,1.76.52,2.62-.75,1.5-2.82,2.16-4.27,1.29-.75-.43-1.19-1.34-1-2.2.23-1.12,1.21-1.94,2.28-2.2Z"/><path class="cls-1" d="m281.42,30.72l.25.03c.2,3.31.64,6.6.89,9.9.27,2.47.49,4.94.72,7.41.08.46.12.93.1,1.4-1.46.22-2.87.65-4.32.96-6.65,1.65-13.3,3.47-19.6,6.23-4.27,1.84-8.46,3.89-12.57,6.06-.56.27-1.06.67-1.68.82-3.71-5.2-7.47-10.37-11.22-15.55,2.35,1.57,4.89,2.9,7.63,3.64,1.96.59,4.03.66,6.06.5-.18-.03-.35-.06-.53-.09.76.07,1.5-.17,2.22-.4,2.43-.81,4.56-2.56,5.75-4.84,1.01-1.82,1.4-3.9,1.55-5.96.05-1.97-.08-3.96-.58-5.87-.01-.11-.03-.34-.04-.46,1.38,2.64,3.25,5.05,5.61,6.88,2.24,1.73,5.09,2.71,7.93,2.43-.46-.06-.92-.09-1.39-.12,1.4.18,2.82-.04,4.12-.59,2.8-1.11,4.95-3.42,6.46-5.97,1.17-1.99,2.11-4.15,2.63-6.41Z"/><path class="cls-1" d="m231.64,43.15c1.25-.3,2.85.43,3.04,1.79.29,2.17-2.48,3.72-4.3,2.73-.99-.42-1.47-1.66-1.08-2.65.4-.97,1.31-1.69,2.34-1.87Z"/><path class="cls-3" d="m286.44,50.26c6.6-1.22,13.37-1.71,20.06-1.07,3.73.38,7.48,1.13,10.87,2.78,1.83.88,3.52,2.06,4.93,3.52,2.36,2.35,4.29,5.21,5.16,8.45.85,3,.67,6.18.11,9.22-.94,4.87-3.05,9.43-5.61,13.65-3.18,5.29-7.24,10.07-12.05,13.96,3.45,2.77,6.5,5.99,9.41,9.3-2.26,3.35-4.52,6.7-6.79,10.04-5.15-3.28-10.53-6.19-15.98-8.94-4.86,2.51-9.98,4.52-15.23,6.06-3.53,1.04-7.13,1.83-10.74,2.55-3.8.73-7.63,1.4-11.5,1.57-3.43.16-6.84-.51-10.09-1.55-2.7-.88-5.4-1.9-7.81-3.44-2.06-1.31-3.91-2.98-5.25-5.03-1.82-2.66-2.98-5.8-3.1-9.04-.13-3.63.64-7.26,2.09-10.58,2.13-4.85,5.58-9.01,9.46-12.57,4.59-4.23,9.89-7.66,15.52-10.34,5.57-2.66,11.46-4.62,17.46-6.07-.49,1.75-.97,3.51-1.44,5.27-6.41,2.11-12.61,4.95-18.23,8.69-5.2,3.51-10.21,7.7-13.21,13.32,2.65,5.32,6.3,10.25,11.13,13.78,4.84,3.58,10.78,5.49,16.75,5.85,5.45.39,10.89-.57,16.15-1.94-6.9-2.53-13.99-4.68-21.31-5.56,4.61-3.94,9.36-7.75,14.41-11.13.66-.39,1.27-.91,1.99-1.18,2.29-.04,4.58.26,6.82.72,3.23.68,6.28,2.02,9.21,3.5,1.82.95,3.61,1.96,5.33,3.09,2.49-5.88,3.58-12.36,3.06-18.73-.29-3.77-1.17-7.57-3.07-10.87-2.47-4.32-6.8-7.41-11.56-8.7-3.65-1.03-7.5-1.08-11.26-.78-7.32.61-14.43,2.8-21.16,5.68-2.5,1.08-4.97,2.23-7.37,3.51-2.59-.78-5.21-1.45-7.78-2.3,6-3.01,12.13-5.8,18.4-8.21,7.21-2.77,14.62-5.07,22.22-6.47Z"/><path class="cls-3" d="m51.52,62.94c4.07,0,6.1,1.58,6.1,4.73,0,1.81-.87,3.15-2.61,4.03,1.18.34,2.06.94,2.65,1.79.58.85.87,1.88.87,3.08,0,.86-.16,1.63-.48,2.32s-.78,1.27-1.37,1.75c-.59.47-1.3.84-2.14,1.1-.83.26-1.76.39-2.78.39h-9.29v-19.18h9.05Zm2.01,5.48c0-1.47-.95-2.2-2.85-2.2h-4v4.49h4.3c1.7,0,2.55-.76,2.55-2.28Zm.78,7.9c0-1.83-1-2.74-3.01-2.74h-4.62v5.27h4.54c2.06,0,3.09-.84,3.09-2.53Z"/><path class="cls-3" d="m67.4,82.49c-1.29,0-2.47-.27-3.55-.82-1.07-.55-1.93-1.39-2.58-2.54-.64-1.13-.97-2.44-.97-3.95,0-.7.08-1.37.26-2.03.17-.65.41-1.26.73-1.83.31-.56.69-1.07,1.14-1.52s.94-.81,1.48-1.1c1.09-.57,2.26-.86,3.49-.86,1.31,0,2.48.3,3.51.9,1.03.6,1.83,1.48,2.4,2.65.57,1.13.86,2.46.86,4v.28c0,.12,0,.26-.03.42h-10.02c.04,1.13.33,2,.87,2.61.55.61,1.38.91,2.51.91.7,0,1.34-.17,1.92-.52.58-.35.95-.77,1.11-1.28h3.36c-1,3.13-3.17,4.69-6.5,4.67Zm1.95-11.07c-.47-.47-1.17-.7-2.08-.7s-1.67.26-2.2.79-.85,1.25-.94,2.16h6.21c-.18-1.04-.51-1.79-.98-2.26Z"/><path class="cls-3" d="m80.53,82.49c-1.45,0-2.6-.37-3.45-1.1-.85-.73-1.28-1.75-1.28-3.06,0-.64.09-1.21.28-1.71s.5-.92.94-1.28c.44-.36,1.03-.65,1.76-.87.73-.22,1.64-.39,2.71-.5.77-.07,1.4-.16,1.89-.27.49-.11.84-.22,1.03-.35.41-.25.62-.62.62-1.1,0-.63-.19-1.09-.56-1.4-.38-.3-1-.46-1.88-.46-.81,0-1.42.16-1.83.48s-.65.86-.73,1.61h-3.81c.09-1.52.72-2.68,1.88-3.47,1.16-.79,2.72-1.18,4.67-1.18,4.05.02,6.07,1.33,6.07,3.95v7.36c0,1.34.16,2.33.48,2.96h-3.87c-.07-.21-.13-.43-.17-.66-.05-.22-.08-.45-.09-.69-1.13,1.15-2.69,1.72-4.67,1.72Zm-.91-4.32c0,.39.13.73.4,1.01.27.28.6.48,1.01.62s.84.18,1.3.15c.47-.04.9-.17,1.3-.4.4-.23.74-.57,1.01-1.02.27-.45.4-1.02.4-1.72v-1.48c-.32.32-1.09.55-2.31.67-1.07.13-1.86.35-2.36.66-.5.31-.75.82-.75,1.52Z"/><path class="cls-3" d="m96.86,82.49c-1.81,0-3.1-.46-3.88-1.38-.78-.92-1.17-2.34-1.17-4.26v-8.62h3.81v7.87c0,1.07.17,1.91.51,2.5.34.59.98.89,1.93.89,1.07,0,1.84-.31,2.28-.93.45-.62.67-1.63.67-3.02v-7.31h3.81v13.89h-3.63v-1.93h-.08c-.95,1.54-2.37,2.31-4.27,2.31Z"/><path class="cls-3" d="m113.12,82.28c-1.47,0-2.56-.25-3.28-.75-.72-.5-1.07-1.37-1.07-2.61v-8.14h-2.31v-2.55h2.31v-4.16h3.81v4.16h2.79v2.55h-2.79v6.88c0,.64.11,1.07.32,1.29.21.21.64.32,1.29.32.5,0,.9-.04,1.18-.11v2.98c-.27.04-.59.07-.97.09-.38.03-.81.04-1.29.04Z"/><path class="cls-3" d="m119.32,87.01c-.29,0-.63-.01-1.02-.04-.39-.03-.85-.06-1.37-.09v-3.14c.34.04.68.07,1.01.09.33.03.67.04,1.01.04.54,0,.95-.17,1.25-.5.3-.33.44-.75.44-1.25,0-.29-.05-.57-.16-.86l-4.89-13.03h4.08l3.14,9.51h.05l3.04-9.51h3.95l-5.8,15.63c-.41,1.09-.98,1.89-1.71,2.39-.73.5-1.73.75-3.02.75Z"/><path class="cls-3" d="m147.61,82.57c-1.42,0-2.7-.25-3.87-.74-1.16-.49-2.16-1.18-2.98-2.07-.82-.89-1.46-1.94-1.91-3.16-.45-1.22-.67-2.55-.67-4s.22-2.85.67-4.08c.45-1.24,1.08-2.3,1.91-3.2.82-.9,1.82-1.59,2.98-2.1,1.16-.5,2.45-.75,3.87-.75s2.73.25,3.88.75c1.16.5,2.14,1.2,2.97,2.1.82.9,1.46,1.96,1.91,3.2.45,1.24.67,2.6.67,4.08,0,2.79-.83,5.15-2.5,7.06l2.39,2.18-1.96,2.07-2.71-2.47c-1.31.75-2.86,1.13-4.65,1.13Zm.03-3.55c.93,0,1.49-.09,1.67-.27l-1.8-1.64,1.96-2.1,2.18,1.99c.79-1.04,1.18-2.51,1.18-4.41,0-2.04-.47-3.65-1.4-4.82-.93-1.17-2.21-1.76-3.84-1.76s-2.88.58-3.8,1.75c-.92,1.16-1.38,2.78-1.38,4.84,0,.97.12,1.85.35,2.65.23.8.57,1.47,1.02,2.03.45.56,1,.99,1.65,1.29.65.3,1.39.46,2.22.46Z"/><path class="cls-3" d="m164.56,82.49c-1.81,0-3.1-.46-3.88-1.38-.78-.92-1.17-2.34-1.17-4.26v-8.62h3.81v7.87c0,1.07.17,1.91.51,2.5.34.59.98.89,1.93.89,1.07,0,1.84-.31,2.28-.93.45-.62.67-1.63.67-3.02v-7.31h3.81v13.89h-3.63v-1.93h-.08c-.95,1.54-2.37,2.31-4.27,2.31Z"/><path class="cls-3" d="m181.86,82.49c-1.29,0-2.47-.27-3.55-.82-1.07-.55-1.93-1.39-2.58-2.54-.64-1.13-.97-2.44-.97-3.95,0-.7.08-1.37.26-2.03.17-.65.41-1.26.73-1.83.31-.56.69-1.07,1.14-1.52s.94-.81,1.48-1.1c1.09-.57,2.26-.86,3.49-.86,1.31,0,2.48.3,3.51.9,1.03.6,1.83,1.48,2.4,2.65.57,1.13.86,2.46.86,4v.28c0,.12,0,.26-.03.42h-10.02c.04,1.13.33,2,.87,2.61.55.61,1.38.91,2.51.91.7,0,1.34-.17,1.92-.52.58-.35.95-.77,1.11-1.28h3.36c-1,3.13-3.17,4.69-6.5,4.67Zm1.95-11.07c-.48-.47-1.17-.7-2.08-.7s-1.67.26-2.2.79-.85,1.25-.94,2.16h6.21c-.18-1.04-.51-1.79-.98-2.26Z"/><path class="cls-3" d="m197.28,82.49c-1.29,0-2.47-.27-3.55-.82-1.07-.55-1.93-1.39-2.58-2.54-.64-1.13-.97-2.44-.97-3.95,0-.7.08-1.37.26-2.03.17-.65.41-1.26.73-1.83.31-.56.69-1.07,1.14-1.52.45-.45.94-.81,1.48-1.1,1.09-.57,2.26-.86,3.49-.86,1.31,0,2.48.3,3.51.9,1.03.6,1.83,1.48,2.4,2.65.57,1.13.86,2.46.86,4v.28c0,.12,0,.26-.03.42h-10.02c.04,1.13.33,2,.87,2.61.55.61,1.38.91,2.51.91.7,0,1.34-.17,1.92-.52.58-.35.95-.77,1.11-1.28h3.36c-1,3.13-3.17,4.69-6.5,4.67Zm1.95-11.07c-.47-.47-1.17-.7-2.08-.7s-1.67.26-2.2.79-.85,1.25-.94,2.16h6.21c-.18-1.04-.51-1.79-.98-2.26Z"/><path class="cls-3" d="m209.9,68.23v1.93h.08c.95-1.54,2.37-2.31,4.27-2.31,1.77,0,3.06.45,3.85,1.34.8.9,1.2,2.32,1.2,4.27v8.65h-3.81v-7.87c0-1.15-.18-2-.54-2.55-.36-.55-.99-.83-1.91-.83-1.04,0-1.79.31-2.26.93s-.7,1.65-.7,3.1v7.23h-3.81v-13.89h3.63Z"/><path class="cls-2" d="m47.76,97.12c.13.13.29.23.46.31s.37.11.57.11.39-.04.57-.11.33-.18.46-.31c.13-.13.24-.29.31-.46.08-.18.11-.37.11-.57s-.04-.39-.11-.57-.18-.33-.31-.46c-.13-.13-.29-.24-.46-.32-.18-.08-.37-.12-.57-.12s-.39.04-.57.12c-.18.08-.33.18-.46.32-.13.13-.24.29-.32.46-.08.18-.12.37-.12.57s.04.39.12.57c.08.18.18.33.32.46Z"/><path class="cls-2" d="m62.68,111.38c-.13-.13-.29-.24-.46-.31-.18-.08-.37-.11-.57-.11s-.39.04-.57.11c-.18.07-.33.18-.46.31-.13.13-.23.29-.31.46s-.11.37-.11.57.04.39.11.57c.08.18.18.33.31.46.13.13.29.23.46.31.18.07.37.11.57.11s.39-.04.57-.11c.18-.08.33-.18.46-.31.13-.13.24-.29.32-.46.08-.18.12-.37.12-.57s-.04-.39-.12-.57-.18-.33-.32-.46Z"/><path class="cls-2" d="m66.15,111.38c-.13-.13-.29-.24-.46-.31-.18-.08-.37-.11-.57-.11s-.39.04-.57.11c-.18.07-.33.18-.46.31-.13.13-.24.29-.31.46s-.11.37-.11.57.04.39.11.57c.08.18.18.33.31.46.13.13.29.23.46.31.18.07.37.11.57.11s.39-.04.57-.11c.18-.08.33-.18.46-.31.13-.13.24-.29.31-.46.07-.18.11-.37.11-.57s-.04-.39-.11-.57c-.08-.18-.18-.33-.31-.46Z"/><path class="cls-2" d="m63.7,106.1c0,.24-.08.45-.25.61-.17.17-.37.25-.6.25h-6.23s-2.09-.01-2.09-.01v-8.32h-2.89v10.07c0,.38-.08.71-.25.99-.17.29-.38.52-.65.72-.27.19-.57.33-.91.43-.34.09-.69.14-1.04.14s-.71-.05-1.05-.14c-.34-.09-.65-.24-.92-.43-.27-.19-.49-.43-.65-.72-.16-.29-.24-.62-.24-.99v-8.17h-2.88v8.17c0,.86.16,1.61.49,2.25.33.65.76,1.18,1.3,1.61.54.43,1.15.75,1.84.96.69.21,1.39.32,2.11.32.63,0,1.25-.08,1.87-.25.61-.17,1.17-.41,1.68-.74.51-.33.95-.75,1.31-1.25.36-.5.61-1.09.75-1.77h8.44c.51,0,.99-.1,1.44-.29.45-.2.84-.46,1.18-.8.34-.34.61-.73.81-1.19s.3-.94.3-1.46v-7.46h-2.88v7.46Z"/><path class="cls-2" d="m128.27,99.75c-.56-.4-1.2-.68-1.92-.85-.72-.17-1.45-.26-2.2-.27l2.58-2.3-2.07-2.02-6.27,5.81,1.27,2.32c.18-.08.43-.18.75-.29s.67-.21,1.07-.3c.39-.09.8-.17,1.23-.24.43-.07.84-.1,1.24-.1s.81.04,1.2.11c.39.07.75.2,1.06.38.32.18.57.42.76.73.19.3.29.69.29,1.16v2.25c0,.23-.09.43-.26.59-.17.16-.38.24-.63.24h-47.24v-3.17c0-.68-.13-1.34-.4-1.96-.27-.62-.63-1.17-1.09-1.65-.46-.47-1-.85-1.62-1.13-.62-.28-1.28-.42-1.99-.42s-1.36.14-1.97.41c-.62.27-1.16.65-1.62,1.12-.46.47-.83,1.03-1.09,1.66-.27.63-.4,1.31-.4,2.03v2.28c0,.51.1.99.29,1.44.2.45.46.84.79,1.18s.73.6,1.18.79c.45.2.93.29,1.44.29h3.33c-.18.37-.44.65-.78.85-.34.2-.72.29-1.15.29h-3.61v2.87h3.61c.6,0,1.17-.1,1.72-.31.54-.21,1.04-.49,1.48-.85s.82-.79,1.13-1.27c.31-.49.53-1.01.66-1.58h47.34c.52,0,1.01-.1,1.47-.29.46-.2.86-.46,1.2-.79s.61-.73.81-1.18c.2-.45.29-.93.29-1.44v-2.25c0-1.01-.17-1.86-.51-2.52-.34-.67-.79-1.2-1.35-1.6Zm-52.01,7.22h-3.61c-.23,0-.43-.08-.59-.24-.16-.16-.24-.36-.24-.59v-2.28c0-.32.06-.63.17-.91.12-.29.27-.53.47-.74.2-.21.43-.38.7-.5.27-.12.55-.18.86-.18s.6.06.87.19.51.29.72.5.36.45.47.73c.11.28.17.57.17.87v3.17Z"/><path class="cls-2" d="m145.33,115.39c-.13-.13-.29-.23-.46-.31s-.37-.11-.57-.11-.39.04-.57.11-.33.18-.46.31c-.13.13-.24.29-.31.46-.08.18-.11.37-.11.57s.04.39.11.57c.08.18.18.33.31.46.13.13.29.23.46.31s.37.11.57.11.39-.04.57-.11.33-.18.46-.31c.13-.13.24-.29.31-.46.08-.18.11-.37.11-.57s-.04-.39-.11-.57c-.08-.18-.18-.33-.31-.46Z"/><path class="cls-2" d="m141.86,115.39c-.13-.13-.29-.23-.46-.31-.18-.08-.37-.11-.57-.11s-.39.04-.57.11c-.18.08-.33.18-.46.31-.13.13-.23.29-.31.46-.08.18-.11.37-.11.57s.04.39.11.57c.08.18.18.33.31.46.13.13.29.23.46.31.18.08.37.11.57.11s.39-.04.57-.11c.18-.08.33-.18.46-.31.13-.13.24-.29.32-.46.08-.18.12-.37.12-.57s-.04-.39-.12-.57c-.08-.18-.18-.33-.32-.46Z"/><path class="cls-2" d="m156.35,106.1c0,.24-.08.45-.25.61-.17.17-.37.25-.6.25h-13.74v2.87h3.36c-.13.18-.29.34-.47.48-.19.14-.39.26-.61.36-.22.1-.45.17-.7.23-.25.05-.49.08-.74.08-.35,0-.7-.05-1.04-.15-.34-.1-.65-.24-.91-.43-.27-.19-.48-.43-.65-.72-.17-.29-.25-.62-.25-1v-8.16h-2.88v8.16c0,.86.16,1.62.49,2.27.33.65.76,1.19,1.3,1.62s1.15.76,1.84.97c.69.21,1.39.32,2.1.32.63,0,1.25-.08,1.87-.24s1.17-.41,1.69-.74c.51-.33.95-.75,1.32-1.26s.62-1.1.76-1.78h7.28c.51,0,.99-.1,1.45-.29.46-.2.85-.46,1.19-.8.34-.34.61-.73.8-1.19s.29-.94.29-1.46v-7.46h-2.88v7.46Z"/><path class="cls-2" d="m153.31,97.12c.13.13.29.23.46.31s.37.11.57.11.39-.04.57-.11.33-.18.46-.31c.13-.13.24-.29.32-.46.08-.18.12-.37.12-.57s-.04-.39-.12-.57c-.08-.18-.18-.33-.32-.46-.13-.13-.29-.24-.46-.32-.18-.08-.37-.12-.57-.12s-.39.04-.57.12c-.18.08-.33.18-.46.32-.13.13-.24.29-.31.46s-.11.37-.11.57.04.39.11.57c.08.18.18.33.31.46Z"/><path class="cls-2" d="m158.84,95.06c-.13-.13-.29-.24-.46-.32-.18-.08-.37-.12-.57-.12s-.39.04-.57.12c-.18.08-.33.18-.46.32-.13.13-.24.29-.32.46s-.12.37-.12.57.04.39.12.57c.08.18.18.33.32.46.13.13.29.23.46.31.18.08.37.11.57.11s.39-.04.57-.11.33-.18.46-.31c.13-.13.23-.29.31-.46.08-.18.11-.37.11-.57s-.04-.39-.11-.57-.18-.33-.31-.46Z"/><path class="cls-2" d="m210.64,111.38c-.13-.13-.29-.24-.46-.31-.18-.08-.37-.11-.57-.11s-.39.04-.57.11c-.18.07-.33.18-.46.31-.13.13-.24.29-.31.46s-.11.37-.11.57.04.39.11.57c.08.18.18.33.31.46.13.13.29.23.46.31.18.07.37.11.57.11s.39-.04.57-.11c.18-.08.33-.18.46-.31.13-.13.24-.29.31-.46.07-.18.11-.37.11-.57s-.04-.39-.11-.57c-.08-.18-.18-.33-.31-.46Z"/><path class="cls-2" d="m207.17,111.38c-.13-.13-.29-.24-.46-.31-.18-.08-.37-.11-.57-.11s-.39.04-.57.11c-.18.07-.33.18-.46.31-.13.13-.23.29-.31.46s-.11.37-.11.57.04.39.11.57c.08.18.18.33.31.46.13.13.29.23.46.31.18.07.37.11.57.11s.39-.04.57-.11c.18-.08.33-.18.46-.31.13-.13.24-.29.32-.46.08-.18.12-.37.12-.57s-.04-.39-.12-.57-.18-.33-.32-.46Z"/><path class="cls-2" d="m215.72,98.63v7.46c0,.24-.08.45-.25.61-.17.17-.37.25-.6.25h-3.78v-8.33h-2.88v8.33h-36.39v-3.17c0-.68-.13-1.34-.4-1.96-.27-.62-.63-1.17-1.09-1.65-.46-.47-1-.85-1.62-1.13-.62-.28-1.28-.42-1.99-.42s-1.36.14-1.97.41c-.62.27-1.16.65-1.62,1.12-.46.47-.83,1.03-1.09,1.66-.27.63-.4,1.31-.4,2.03v2.28c0,.51.1.99.29,1.44.2.45.46.84.79,1.18s.73.6,1.18.79c.45.2.93.29,1.44.29h3.33c-.18.37-.44.65-.78.85-.34.2-.72.29-1.15.29h-3.61v2.87h3.61c.6,0,1.17-.1,1.72-.31.54-.21,1.04-.49,1.48-.85s.82-.79,1.13-1.27c.31-.49.53-1.01.66-1.58h43.14c.51,0,.99-.1,1.45-.29.46-.2.85-.46,1.19-.8.34-.34.61-.73.8-1.19s.29-.94.29-1.46v-7.46h-2.88Zm-46.77,8.33h-3.61c-.23,0-.43-.08-.59-.24-.16-.16-.24-.36-.24-.59v-2.28c0-.32.06-.63.17-.91.12-.29.27-.53.47-.74.2-.21.43-.38.7-.5.27-.12.55-.18.86-.18s.6.06.87.19.51.29.72.5.36.45.47.73c.11.28.17.57.17.87v3.17Z"/><path class="cls-2" d="m218.16,111.36c-.13-.13-.29-.23-.46-.31s-.37-.11-.57-.11-.39.04-.57.11-.33.18-.46.31-.24.28-.31.46c-.08.17-.11.36-.11.56s.04.39.11.57c.07.18.18.33.31.46s.29.24.46.32c.18.08.37.12.57.12s.39-.04.57-.12c.18-.08.33-.18.46-.32.13-.13.23-.29.31-.46.08-.18.11-.37.11-.57s-.04-.39-.11-.56-.18-.33-.31-.46Z"/></svg>