<svg width="29" height="29" viewBox="0 0 29 29" fill="none" xmlns="http://www.w3.org/2000/svg">
<path d="M11.2708 26.3708L11.2708 26.3709C11.27 26.3716 11.2694 26.3721 11.2688 26.3725C11.2681 26.373 11.2674 26.3733 11.2669 26.3735C11.2655 26.374 11.2635 26.3745 11.2609 26.3744C11.2583 26.3744 11.2563 26.3738 11.2549 26.3733C11.254 26.3728 11.2528 26.3722 11.2511 26.3704L1.96338 16.65C1.96097 16.6475 1.96033 16.6459 1.96015 16.6454C1.95996 16.645 1.9594 16.6434 1.95948 16.64C1.95956 16.6365 1.9602 16.635 1.96038 16.6346C1.96055 16.6342 1.96121 16.6327 1.96372 16.6303L1.96383 16.6302L16.4722 2.76774C16.4722 2.76774 16.4722 2.76773 16.4722 2.76772C16.8751 2.38278 17.4011 2.17884 17.9581 2.19152L25.0548 2.35307C25.2726 2.35803 25.5475 2.48421 25.8386 2.74248C26.1027 2.97684 26.3283 3.27512 26.4726 3.53852L26.5825 4.01998L26.4225 11.0501C26.4098 11.6072 26.1821 12.1234 25.7793 12.5082L11.2708 26.3708ZM26.2373 1.69568C26.6448 1.92027 26.984 2.25388 27.2164 2.65692L27.2537 2.76154C27.0661 2.47562 26.8253 2.18633 26.5493 1.94145C26.4533 1.85623 26.3489 1.77289 26.2373 1.69568Z" fill="#DE0F7E" stroke="#DE0F7E" stroke-width="1.07088"/>
<path d="M15.1021 7.91408C14.9736 7.91115 14.8491 7.95941 14.7562 8.04823C14.6632 8.13705 14.6093 8.25916 14.6064 8.38769L14.3734 18.6228C14.3705 18.7513 14.4187 18.8758 14.5076 18.9687C14.5964 19.0617 14.7185 19.1155 14.847 19.1185C14.9756 19.1214 15.1 19.0731 15.193 18.9843C15.2859 18.8955 15.3398 18.7734 15.3427 18.6449L15.5757 8.40976C15.5786 8.28122 15.5304 8.15679 15.4416 8.06383C15.3527 7.97087 15.2306 7.917 15.1021 7.91408ZM12.7911 12.0266C12.0156 11.2147 10.7242 11.1854 9.91259 11.961C9.10086 12.7366 9.07146 14.0279 9.84706 14.8397C10.2349 15.2456 10.7516 15.4558 11.2728 15.4676C11.794 15.4795 12.3199 15.2929 12.7257 14.9052C13.1189 14.5294 13.3423 14.0231 13.3547 13.4794C13.3671 12.9357 13.1669 12.4197 12.7911 12.0266ZM12.0559 14.2041C11.6307 14.6104 10.9543 14.595 10.5481 14.1698C10.1418 13.7446 10.1572 13.0682 10.5824 12.6619C10.795 12.4588 11.0704 12.3611 11.3434 12.3673C11.6165 12.3735 11.8871 12.4836 12.0903 12.6963C12.1873 12.7973 12.2634 12.9166 12.3141 13.0472C12.3647 13.1779 12.389 13.3172 12.3854 13.4573C12.3826 13.5974 12.352 13.7355 12.2954 13.8637C12.2389 13.9919 12.1574 14.1076 12.0559 14.2041ZM20.102 12.1929C19.3264 11.3812 18.035 11.3518 17.2234 12.1274C16.4117 12.903 16.3823 14.1944 17.1579 15.0061C17.5457 15.412 18.0624 15.6222 18.5837 15.634C19.1049 15.6459 19.6307 15.4594 20.0365 15.0716C20.8482 14.296 20.8776 13.0047 20.102 12.1929ZM19.3667 14.3706C18.9414 14.7769 18.2651 14.7614 17.8589 14.3362C17.4526 13.911 17.468 13.2347 17.8932 12.8284C18.1058 12.6252 18.3812 12.5275 18.6542 12.5338C18.9272 12.54 19.1979 12.6501 19.4011 12.8627C19.8073 13.2879 19.7919 13.9643 19.3667 14.3706Z" fill="white"/>
</svg>
