<svg width="32" height="32" viewBox="0 0 32 32" fill="none" xmlns="http://www.w3.org/2000/svg">
<path d="M30.8784 9.08234H0.700195V14.7021H1.82403V30.8308H29.3609V14.1963H30.8784V9.08234Z" fill="#DE0F7E"/>
<path d="M30.931 8.30666H21.2527C22.1108 7.87072 22.94 7.33446 23.6083 6.66613C25.1182 5.15625 25.1182 2.70024 23.6083 1.1903C22.1452 -0.272878 19.5957 -0.274237 18.1325 1.1903C17.0544 2.26838 16.2939 3.75083 15.8044 5.1287C15.3148 3.75083 14.5544 2.26838 13.4762 1.1903C12.0117 -0.274237 9.4608 -0.272878 8.0004 1.1903C6.49052 2.70018 6.49052 5.15619 8.0004 6.66613C8.66874 7.33446 9.49793 7.87072 10.356 8.30666H0.677779C0.298239 8.30666 -0.00976562 8.61467 -0.00976562 8.99421V14.4947C-0.00976562 14.8743 0.298239 15.1823 0.677779 15.1823H1.36532V30.9964C1.36532 31.376 1.67333 31.684 2.05287 31.684H29.5557C29.9352 31.684 30.2432 31.376 30.2432 30.9964V15.1823H30.9308C31.3103 15.1823 31.6183 14.8743 31.6183 14.4947V8.99421C31.6185 8.61467 31.3105 8.30666 30.931 8.30666ZM12.3665 30.3089H2.74054V15.1824H12.3665V30.3089ZM12.3665 13.8072H1.36538V9.68181H12.3665V13.8072ZM8.97266 5.69387C7.99905 4.72025 7.99905 3.13612 8.97266 2.1625C9.44431 1.68943 10.0714 1.43091 10.7383 1.43091C11.4053 1.43091 12.031 1.68943 12.504 2.1625C14.2711 3.92954 15.1017 7.20925 15.1209 8.28461C15.1209 8.29147 15.1195 8.3011 15.1195 8.3066H15.0439C13.9259 8.26818 10.7177 7.43756 8.97266 5.69387ZM17.8671 30.3089H13.7416V15.1824H17.8671V30.3089ZM17.8671 13.8072H13.7416V9.68181H17.8671V13.8072ZM16.5648 8.30666H16.4892C16.4892 8.30116 16.4878 8.29153 16.4878 8.28467C16.5071 7.20931 17.3377 3.92961 19.1047 2.16256C19.5778 1.6895 20.2034 1.43097 20.8704 1.43097C21.5374 1.43097 22.1644 1.6895 22.6361 2.16256C23.6097 3.13618 23.6097 4.72031 22.6361 5.69393C20.891 7.43756 17.6828 8.26818 16.5648 8.30666ZM28.8682 30.3089H19.2422V15.1824H28.8682V30.3089ZM30.2434 13.8072H19.2422V9.68181H30.2434V13.8072Z" fill="#DE0F7E"/>
<path fill-rule="evenodd" clip-rule="evenodd" d="M13.7639 15.184L13.7639 31.6839H12.3677L12.3677 15.184L-0.00976562 15.184V13.7879L12.3677 13.7879V9.6947H13.7639V13.7879H17.8839V9.6947H19.28V13.7879L31.6269 13.7879V15.184L19.28 15.184L19.28 31.6839H17.8839V15.184H13.7639Z" fill="white"/>
</svg>
