<svg width="38" height="46" viewBox="0 0 38 46" fill="none" xmlns="http://www.w3.org/2000/svg">
<path d="M37.6292 28.9274C36.7292 23.4002 33.5674 19.3856 28.5538 16.8599C28.2994 16.7327 28.2052 16.5819 28.2099 16.2992C28.224 15.2578 28.224 14.2212 28.2099 13.1798C28.191 11.6955 27.3052 10.8238 25.8303 10.8191C25.0575 10.8191 24.28 10.8191 23.4931 10.8191V7.44532C23.5403 7.41705 23.5685 7.39349 23.5921 7.38877C24.3602 7.2804 25.1329 7.19087 25.901 7.06836C26.9895 6.89872 27.668 6.13067 27.6444 5.11759C27.6209 4.07623 26.8622 3.32702 25.7408 3.1998C24.6334 3.07729 23.5308 2.91708 22.4282 2.78043C21.0523 2.6108 19.6764 2.39876 18.2911 2.29509C17.1979 2.21028 16.3686 3.04902 16.3215 4.1422C16.3168 4.30241 16.3215 4.46733 16.3215 4.62282C15.6995 4.68408 15.1293 4.70293 14.578 4.80188C11.2513 5.39559 8.73984 7.15317 7.04823 10.0888C6.98226 10.2066 6.77023 10.3102 6.63358 10.3008C5.25767 10.2443 4.16448 10.7626 3.5048 11.9736C2.69433 13.4578 1.96397 14.9892 1.21005 16.5065C0.908485 17.1144 0.837804 17.7693 0.96974 18.429C1.24304 19.8143 2.32209 20.8793 3.61318 21.0724C5.12102 21.2986 6.41682 20.6578 7.11891 19.3054C7.82571 17.939 8.51367 16.5583 9.19691 15.1777C10.0027 13.5521 9.65397 12.0395 8.23095 10.8945C8.19796 10.8662 8.17911 10.8238 8.16027 10.7908C9.70109 7.56312 13.4943 5.72544 16.2979 6.00345C16.3073 6.75265 16.5712 7.45003 17.278 7.72333C17.9 7.96364 18.6115 7.96364 19.3136 8.07202V10.8097C18.4513 10.8097 17.6173 10.8097 16.7785 10.8097C15.5393 10.8191 14.6016 11.7474 14.5922 12.9772C14.5827 14.0186 14.5686 15.0552 14.6016 16.0966C14.6157 16.5159 14.4885 16.7327 14.0974 16.9212C7.73619 20.0075 4.05139 26.9436 5.04563 33.9457C5.69589 38.5069 7.88226 42.1728 11.5529 44.9529C11.7555 45.1037 12.0477 45.2074 12.3021 45.2074C18.3712 45.2215 24.4355 45.2215 30.5046 45.2074C30.7449 45.2074 31.0276 45.1178 31.2114 44.9718C36.4417 40.8582 38.6941 35.4676 37.6292 28.9132V28.9274ZM8.18854 14.306C7.45818 15.8657 6.67598 17.4018 5.87023 18.9238C5.53097 19.5599 4.9184 19.8473 4.18804 19.852C2.77444 19.852 1.77549 18.4196 2.36449 17.1285C3.07601 15.5782 3.8582 14.061 4.66867 12.5578C5.16343 11.6343 6.30373 11.3563 7.26027 11.8228C8.16026 12.261 8.62675 13.373 8.18854 14.306ZM18.4749 6.71025C17.8387 6.78093 17.6126 6.56417 17.6078 5.91863C17.6078 5.65947 17.6078 5.40031 17.6078 5.14115C17.6078 4.86785 17.6078 4.58984 17.6078 4.31655C17.6173 3.78409 17.8953 3.52022 18.4183 3.58147C19.6764 3.73226 20.9298 3.89718 22.1832 4.05267C23.3329 4.19874 24.4779 4.34482 25.6277 4.49089C26.1224 4.55215 26.3769 4.79246 26.3533 5.2024C26.3298 5.56051 26.1272 5.75371 25.7785 5.79612C24.4026 5.97517 23.0267 6.15423 21.6555 6.32857C20.6 6.46051 19.5398 6.59244 18.4796 6.71496L18.4749 6.71025ZM22.1549 7.57254V10.8003H20.6377C20.6377 9.84373 20.633 8.90604 20.6471 7.96835C20.6471 7.88354 20.7649 7.74218 20.8497 7.73275C21.2644 7.66207 21.6884 7.62909 22.1596 7.57725L22.1549 7.57254ZM15.8785 13.029C15.8927 12.473 16.2461 12.1055 16.8021 12.1008C19.8743 12.0914 22.9418 12.0961 26.0141 12.1008C26.4994 12.1008 26.8811 12.4118 26.8952 12.8594C26.9235 14.0327 26.9046 15.206 26.9046 16.417H15.8785C15.8785 15.7196 15.8785 15.0364 15.8785 14.3578C15.8785 13.9149 15.8691 13.472 15.8785 13.029ZM9.53617 22.1845C11.0016 20.3562 12.8016 18.9426 14.9314 17.9578C15.1576 17.8541 15.4262 17.7882 15.6712 17.7882C19.4926 17.7788 23.3094 17.7788 27.1308 17.7882C27.3805 17.7882 27.6491 17.8494 27.8706 17.9578C31.6402 19.7672 34.2554 22.6368 35.702 26.5619C35.7821 26.774 35.7679 27.085 35.669 27.2876C33.8454 31.0383 29.5669 32.975 25.5664 31.8629C21.2078 30.652 16.8586 29.4127 12.4953 28.23C11.1194 27.8577 9.69638 27.6363 8.30634 28.1687C7.63723 28.4232 7.02938 28.8378 6.39326 29.1771C6.81734 26.6138 7.86812 24.2625 9.53617 22.1892V22.1845ZM30.9758 43.5676C30.6601 43.8362 30.3397 43.9634 29.9062 43.9587C24.2235 43.9445 18.5408 43.9445 12.8534 43.9587C12.4812 43.9587 12.189 43.8739 11.8969 43.6335C8.44299 40.7828 6.5252 37.131 6.22363 32.6593C6.19536 32.2588 6.35557 31.8158 6.52991 31.4389C7.29326 29.7473 8.79168 28.9745 10.6199 29.2101C12.9665 29.5069 15.167 30.3504 17.4288 30.9488C20.1099 31.6556 22.7675 32.4425 25.4439 33.1729C29.3078 34.2237 33.6192 32.6074 36.0177 29.2336C36.1025 29.1111 36.192 28.9933 36.3569 28.7672C36.4465 29.5117 36.569 30.1431 36.5925 30.7792C36.7999 35.953 34.9339 40.2268 30.9711 43.5723L30.9758 43.5676Z" fill="#E01E89"/>
<path d="M30.4997 4.5053C30.0332 4.5053 29.7222 4.79744 29.741 5.17912C29.7552 5.54194 30.0473 5.78225 30.5091 5.78697C31.2866 5.79639 32.0641 5.78697 32.8415 5.78697C33.6332 5.78697 34.4248 5.79168 35.2211 5.78697C35.7112 5.78225 35.9562 5.57021 35.9656 5.1744C35.975 4.76917 35.697 4.51001 35.2117 4.5053C33.6426 4.49587 32.0735 4.49587 30.4997 4.5053Z" fill="#E01E89"/>
<path d="M29.4864 7.18607C29.3686 7.14838 29.2508 7.12482 29.1424 7.10126C28.789 7.13424 28.5487 7.30388 28.4969 7.65257C28.4403 8.02481 28.6382 8.26041 28.9869 8.3735C30.0848 8.73161 31.1827 9.08973 32.2853 9.44313C32.7612 9.59391 33.0864 9.46669 33.223 9.08973C33.3644 8.69863 33.1712 8.38764 32.6576 8.218C31.6021 7.86932 30.5466 7.53005 29.4911 7.19079L29.4864 7.18607Z" fill="#E01E89"/>
<path d="M29.4721 3.12461C30.2119 2.88901 30.9469 2.65341 31.6867 2.41309C32.0637 2.29058 32.4407 2.18221 32.8129 2.04085C33.1427 1.91362 33.3124 1.6309 33.1899 1.31048C33.105 1.08431 32.8553 0.919389 32.6763 0.726196C32.6433 0.749756 32.6056 0.773315 32.5726 0.796875C32.4548 0.829859 32.3417 0.858131 32.2239 0.895827C31.1684 1.23509 30.1129 1.57436 29.0574 1.91833C28.5627 2.07854 28.3459 2.41309 28.4826 2.78534C28.6192 3.16702 28.9585 3.28482 29.4721 3.12461Z" fill="#E01E89"/>
</svg>
